<svg width="88" height="89" viewBox="0 0 88 89" fill="none" xmlns="http://www.w3.org/2000/svg">
<path fill-rule="evenodd" clip-rule="evenodd" d="M17.6777 -25.6777L0 -8L96.125 88.125L113.803 70.4473L17.6777 -25.6777ZM36.8801 19.6629C37.1619 20.3516 37.6314 21.0246 38.2888 21.682C38.9658 22.359 39.6603 22.8344 40.3725 23.1083C41.0886 23.3861 41.7793 23.4585 42.4445 23.3255C43.1136 23.1963 43.7221 22.8579 44.2699 22.31L44.2758 22.3042C44.7062 21.8737 44.986 21.4179 45.1151 20.9366C45.2521 20.4553 45.2384 19.9251 45.074 19.3459C44.9097 18.7668 44.5927 18.1172 44.1232 17.3972L43.4071 16.2938C42.9884 15.6559 42.7595 15.1218 42.7203 14.6914C42.6851 14.2649 42.8162 13.9029 43.1136 13.6055L43.1195 13.5996C43.3621 13.357 43.6379 13.2181 43.9471 13.1829C44.2601 13.1516 44.5849 13.2103 44.9214 13.359C45.2618 13.5038 45.5866 13.7307 45.8958 14.0399C46.2205 14.3646 46.4553 14.6973 46.6001 15.0377C46.7449 15.3781 46.8055 15.7049 46.7821 16.0179C46.7664 16.3309 46.6647 16.6166 46.4768 16.8748L46.4181 16.957L47.862 18.4009L47.9325 18.3188C48.3551 17.8335 48.6153 17.2798 48.7131 16.6577C48.811 16.0355 48.7347 15.3918 48.4842 14.7266C48.2377 14.0575 47.8014 13.4099 47.1753 12.7838C46.5649 12.1733 45.9153 11.739 45.2266 11.4807C44.5458 11.2225 43.8805 11.1481 43.231 11.2577C42.5853 11.3712 42.0101 11.6803 41.5053 12.1851L41.4995 12.191C40.8695 12.821 40.5466 13.5351 40.531 14.3333C40.5232 15.1316 40.8616 16.057 41.5464 17.1096L42.2684 18.2072C42.6988 18.8724 42.9356 19.4222 42.9786 19.8566C43.0256 20.287 42.8964 20.6548 42.5912 20.96L42.5853 20.9659C42.3427 21.2085 42.0532 21.3494 41.7166 21.3885C41.384 21.4237 41.0338 21.3631 40.666 21.2066C40.2982 21.05 39.944 20.8016 39.6036 20.4611C39.2475 20.1051 38.9795 19.7392 38.7995 19.3635C38.6234 18.984 38.5393 18.622 38.5471 18.2777C38.5588 17.9372 38.6723 17.6359 38.8875 17.3738L38.9403 17.3092L37.473 15.8418L37.3967 15.9299C36.9467 16.4503 36.6786 17.0314 36.5925 17.6731C36.5065 18.3148 36.6023 18.9781 36.8801 19.6629ZM45.344 27.6572C45.5827 28.6159 46.1168 29.51 46.9464 30.3396C47.772 31.1652 48.6642 31.6974 49.6229 31.9361C50.5855 32.1709 51.5599 32.1161 52.5459 31.7717C53.5359 31.4313 54.4848 30.8072 55.3927 29.8994L55.4044 29.8876C56.3122 28.9798 56.9364 28.0309 57.2768 27.0409C57.6172 26.0509 57.6681 25.0765 57.4294 24.1179C57.1907 23.1592 56.6605 22.269 55.8388 21.4472C55.0209 20.6294 54.1307 20.0992 53.1681 19.8566C52.2094 19.6179 51.2331 19.6668 50.2392 20.0033C49.2531 20.3398 48.3042 20.964 47.3925 21.8757L47.3807 21.8874C46.4729 22.7953 45.8488 23.7442 45.5084 24.7342C45.1679 25.7242 45.1131 26.6985 45.344 27.6572ZM49.9516 29.9522C49.3255 29.8426 48.7601 29.5354 48.2553 29.0307C47.7466 28.522 47.4355 27.9526 47.3221 27.3226C47.2125 26.6965 47.2927 26.0489 47.5627 25.3798C47.8366 24.7146 48.2905 24.065 48.9244 23.4311L48.9362 23.4194C49.574 22.7816 50.2255 22.3296 50.8907 22.0635C51.5638 21.7974 52.2114 21.7211 52.8335 21.8346C53.4635 21.9481 54.029 22.2553 54.5298 22.7561C55.0346 23.2609 55.3418 23.8263 55.4514 24.4524C55.5648 25.0746 55.4866 25.7202 55.2166 26.3894C54.9544 27.0585 54.5044 27.712 53.8666 28.3498L53.8548 28.3615C53.2209 28.9954 52.5675 29.4454 51.8944 29.7115C51.2253 29.9815 50.5777 30.0617 49.9516 29.9522ZM54.7353 37.0485C54.974 38.0071 55.5081 38.9013 56.3377 39.7308C57.1633 40.5565 58.0555 41.0887 59.0142 41.3273C59.9768 41.5621 60.9511 41.5073 61.9372 41.163C62.9272 40.8226 63.8761 40.1984 64.7839 39.2906L64.7957 39.2789C65.7035 38.3711 66.3276 37.4221 66.6681 36.4322C67.0085 35.4422 67.0594 34.4678 66.8207 33.5091C66.582 32.5504 66.0518 31.6602 65.23 30.8385C64.4122 30.0207 63.522 29.4904 62.5594 29.2478C61.6007 29.0091 60.6244 29.0581 59.6305 29.3946C58.6444 29.7311 57.6955 30.3552 56.7837 31.267L56.772 31.2787C55.8642 32.1865 55.2401 33.1354 54.8996 34.1254C54.5592 35.1154 54.5044 36.0898 54.7353 37.0485ZM59.3429 39.3434C58.7168 39.2339 58.1514 38.9267 57.6466 38.4219C57.1379 37.9132 56.8268 37.3439 56.7133 36.7139C56.6037 36.0878 56.684 35.4402 56.954 34.7711C57.2279 34.1059 57.6818 33.4563 58.3157 32.8224L58.3274 32.8106C58.9653 32.1728 59.6168 31.7209 60.282 31.4548C60.955 31.1887 61.6026 31.1124 62.2248 31.2259C62.8548 31.3393 63.4202 31.6465 63.9211 32.1474C64.4259 32.6522 64.7331 33.2176 64.8426 33.8437C64.9561 34.4659 64.8778 35.1115 64.6078 35.7806C64.3457 36.4498 63.8957 37.1032 63.2579 37.7411L63.2461 37.7528C62.6122 38.3867 61.9587 38.8367 61.2857 39.1028C60.6166 39.3728 59.969 39.453 59.3429 39.3434ZM70.7591 36.7902L62.2894 45.2599L63.7509 46.7215L69.5911 40.8813L69.6842 40.9743L68.0063 50.9769L69.3152 52.2858L77.785 43.816L76.3293 42.3604L70.495 48.1947L70.4016 48.1013L72.0739 38.105L70.7591 36.7902Z" fill="white"/>
</svg>
