<svg width="31" height="32" viewBox="0 0 31 32" fill="none" xmlns="http://www.w3.org/2000/svg">
<g clip-path="url(#clip0_286_27716)">
<mask id="mask0_286_27716" style="mask-type:luminance" maskUnits="userSpaceOnUse" x="0" y="0" width="31" height="32">
<path d="M24.1481 0.499983L0 6.97046L6.47048 31.1186L30.6186 24.6481L24.1481 0.499983Z" fill="white"/>
</mask>
<g mask="url(#mask0_286_27716)">
<path d="M19.8411 5.69681C19.5832 4.59569 18.4823 3.91661 17.3823 4.18006C16.2823 4.4435 15.5997 5.5497 15.8576 6.65082C16.1156 7.75194 17.2164 8.43102 18.3164 8.16757C19.4165 7.90413 20.0991 6.79792 19.8411 5.69681Z" fill="url(#paint0_radial_286_27716)"/>
<path d="M19.8411 5.69681C19.5832 4.59569 18.4823 3.91661 17.3823 4.18006C16.2823 4.4435 15.5997 5.5497 15.8576 6.65082C16.1156 7.75194 17.2164 8.43102 18.3164 8.16757C19.4165 7.90413 20.0991 6.79792 19.8411 5.69681Z" stroke="url(#paint1_linear_286_27716)" stroke-width="0.390627" stroke-linecap="round" stroke-linejoin="round"/>
<path d="M17.0619 6.08046C16.9477 6.74917 17.3701 7.37735 18.0054 7.48358C18.6407 7.58981 19.2484 7.13382 19.3626 6.4651C19.4769 5.79638 19.0544 5.16821 18.4191 5.06198C17.7838 4.95575 17.1762 5.41174 17.0619 6.08046Z" fill="url(#paint2_linear_286_27716)"/>
<g opacity="0.2">
<path d="M15.9326 5.35315C17.6007 5.19541 18.9772 6.12788 19.7891 7.01887C19.109 9.10483 15.3565 8.56796 15.9326 5.35315Z" fill="#B61060"/>
</g>
<path d="M7.16522 6.47216C9.73633 5.61209 11.0162 9.50061 8.44511 10.3607C5.87401 11.2207 4.59412 7.33222 7.16522 6.47216Z" fill="url(#paint3_radial_286_27716)"/>
<path d="M7.16522 6.47216C9.73633 5.61209 11.0162 9.50061 8.44511 10.3607C5.87401 11.2207 4.59412 7.33222 7.16522 6.47216Z" stroke="url(#paint4_linear_286_27716)" stroke-width="0.390627" stroke-linecap="round" stroke-linejoin="round"/>
<path d="M8.54544 7.62546C8.99059 8.13393 8.91806 8.92763 8.38345 9.39816C7.84884 9.86869 7.0546 9.8379 6.60944 9.32943C6.16428 8.82095 6.23682 8.02726 6.77143 7.55673C7.30604 7.08619 8.10028 7.11699 8.54544 7.62546Z" fill="url(#paint5_linear_286_27716)"/>
<g opacity="0.2">
<path d="M6.62431 10.0642C6.91631 9.17097 7.82643 7.76608 9.39868 7.15202C11.9353 9.465 7.70503 11.5111 6.62431 10.0642Z" fill="#B61060"/>
</g>
<path d="M22.9169 19.5768C25.2567 25.4537 11.4228 29.6314 10.1419 23.4369C9.41549 19.9239 11.4369 16.7491 14.4423 15.6729C16.7222 14.8565 21.3121 15.546 22.9169 19.5768Z" fill="url(#paint6_radial_286_27716)"/>
<path d="M22.9169 19.5768C25.2567 25.4537 11.4228 29.6314 10.1419 23.4369C9.41549 19.9239 11.4369 16.7491 14.4423 15.6729C16.7222 14.8565 21.3121 15.546 22.9169 19.5768Z" stroke="url(#paint7_linear_286_27716)" stroke-width="0.390625" stroke-linecap="round" stroke-linejoin="round"/>
<path d="M20.5254 21.9436C21.0546 24.2562 14.9912 26.4653 13.8431 23.8677C13.1986 22.4096 13.5318 20.0937 16.2972 19.0817C18.8071 18.1632 20.1339 20.2326 20.5254 21.9436Z" fill="url(#paint8_linear_286_27716)"/>
<g opacity="0.33">
<path d="M17.7607 25.0182C15.0108 25.8147 11.6181 24.861 10.0005 22.6632C10.1891 23.5782 10.806 25.1089 11.7617 25.8704C13.6771 27.3969 18.1422 26.0119 18.2623 25.9716C20.2415 25.3099 22.4173 24.0181 22.9597 22.1465C23.2127 21.274 23.3545 19.5941 22.2527 18.2722C22.3001 20.281 21.6221 23.8991 17.7607 25.0182Z" fill="#B61060"/>
</g>
<g opacity="0.2">
<path d="M13.1106 18.6147C12.6128 19.0499 11.8013 19.7714 11.6637 20.2932C11.5293 20.803 12.0373 21.1226 14.1067 20.8004C13.8172 21.5154 13.4498 22.2073 13.4498 22.2073L15.9539 22.7994L16.1241 19.6255L16.9667 19.235L18.51 21.8567L20.3319 20.6436C20.3319 20.6436 19.525 19.2787 18.8963 19.0331C23.2691 18.6889 20.2353 17.3803 20.2353 17.3803C20.2891 17.3866 16.1244 17.8619 13.1106 18.6147Z" fill="#B61060"/>
</g>
<path d="M20.8657 10.1374C22.1495 13.1348 19.5065 15.9315 15.8217 17.1641C12.1368 18.3967 8.178 17.8632 7.42971 14.6868C6.74073 11.7622 7.53866 7.35719 12.0318 5.89659C16.7842 4.35169 19.6839 7.37774 20.8657 10.1374Z" fill="url(#paint9_radial_286_27716)"/>
<path d="M20.8657 10.1374C22.1495 13.1348 19.5065 15.9315 15.8217 17.1641C12.1368 18.3967 8.178 17.8632 7.42971 14.6868C6.74073 11.7622 7.53866 7.35719 12.0318 5.89659C16.7842 4.35169 19.6839 7.37774 20.8657 10.1374Z" stroke="url(#paint10_linear_286_27716)" stroke-width="0.390627" stroke-linecap="round" stroke-linejoin="round"/>
<g opacity="0.33">
<path d="M20.0969 8.63054C22.9266 14.5374 8.15338 20.0656 7.26837 12.3117C6.75348 20.2805 15.6363 17.2261 15.8216 17.1641C19.285 16.0056 23.3124 12.892 20.0969 8.63054Z" fill="#B61060"/>
</g>
<path d="M11.1858 18.9178C10.2848 18.687 8.76567 20.757 8.50707 22.2125C8.19218 23.9849 11.2057 24.5116 11.4695 22.7011C11.7332 20.8906 11.6085 19.026 11.1858 18.9178Z" fill="url(#paint11_radial_286_27716)"/>
<path d="M11.1858 18.9178C10.2848 18.687 8.76567 20.757 8.50707 22.2125C8.19218 23.9849 11.2057 24.5116 11.4695 22.7011C11.7332 20.8906 11.6085 19.026 11.1858 18.9178Z" stroke="url(#paint12_linear_286_27716)" stroke-width="0.390625" stroke-linecap="round" stroke-linejoin="round"/>
<g opacity="0.3">
<path d="M8.94898 22.2C9.08048 21.3279 9.50662 20.5899 10.2291 19.879" stroke="white" stroke-width="0.390625" stroke-linecap="round" stroke-linejoin="round"/>
</g>
<path d="M11.2372 22.5501C11.4855 23.4768 9.61657 24.0764 9.39571 23.2521C9.18412 22.4624 11.0639 21.9033 11.2372 22.5501Z" fill="url(#paint13_linear_286_27716)"/>
<path d="M19.9427 16.1019C20.5921 15.5039 23.8553 16.6875 24.4359 17.9318C25.2734 19.7269 23.0884 20.8842 21.9376 19.476C20.9543 18.2727 19.6086 16.4096 19.9427 16.1019Z" fill="url(#paint14_radial_286_27716)"/>
<path d="M19.9427 16.1019C20.5921 15.5039 23.8553 16.6875 24.4359 17.9318C25.2734 19.7269 23.0884 20.8842 21.9376 19.476C20.9543 18.2727 19.6086 16.4096 19.9427 16.1019Z" stroke="url(#paint15_linear_286_27716)" stroke-width="0.390625" stroke-linecap="round" stroke-linejoin="round"/>
<g opacity="0.3">
<path d="M21.8339 16.5939C22.4582 16.8011 23.2118 17.172 23.6562 17.6111" stroke="white" stroke-width="0.390625" stroke-linecap="round" stroke-linejoin="round"/>
</g>
<path d="M24.2053 18.9799C24.4567 19.9183 22.4943 20.3794 22.2277 19.3845C21.9923 18.5057 23.9654 18.0849 24.2053 18.9799Z" fill="url(#paint16_linear_286_27716)"/>
<g opacity="0.5">
<path d="M17.798 7.20577C18.1246 8.44907 16.331 10.0084 13.7919 10.6888C11.2528 11.3691 8.92971 10.9127 8.60315 9.66939C8.27658 8.4261 10.0249 6.69447 12.564 6.01416C15.1031 5.33385 17.4714 5.96247 17.798 7.20577Z" fill="url(#paint17_radial_286_27716)"/>
</g>
<g opacity="0.3">
<path d="M7.63682 12.1294C7.64983 10.8481 8.55496 7.35003 12.442 6.29334" stroke="white" stroke-width="0.390627" stroke-linecap="round" stroke-linejoin="round"/>
</g>
<g opacity="0.5">
<path d="M12.5025 13.2738C12.4933 14.0077 11.9693 14.6248 11.3321 14.652C10.6949 14.6792 10.1858 14.1063 10.195 13.3724C10.2041 12.6385 10.7281 12.0214 11.3653 11.9942C12.0025 11.967 12.5116 12.5399 12.5025 13.2738Z" fill="#B61060"/>
</g>
<g opacity="0.5">
<path d="M16.027 12.3294C16.3951 12.9622 17.153 13.2358 17.7198 12.9405C18.2866 12.6451 18.4476 11.8927 18.0794 11.2598C17.7113 10.627 16.9534 10.3534 16.3866 10.6488C15.8198 10.9441 15.6588 11.6966 16.027 12.3294Z" fill="#B61060"/>
</g>
<path d="M17.3171 13.9147C17.5504 14.8289 17.3401 15.7652 15.1931 16.3342C13.1132 16.8853 12.3859 16.1148 12.1526 15.2006C11.9192 14.2864 12.8922 12.9191 14.2102 12.5758C15.5282 12.2326 17.0838 13.0005 17.3171 13.9147Z" fill="url(#paint18_linear_286_27716)"/>
<g opacity="0.2">
<path d="M15.0355 15.4585C13.9547 15.7481 14.0575 16.1395 15.1383 15.8499C16.2191 15.5604 16.1163 15.1689 15.0355 15.4585ZM16.583 13.0011C16.9579 13.2519 17.23 13.5727 17.3173 13.9147C17.5503 14.8287 17.8939 15.9465 15.313 16.638C12.4594 17.4026 12.3856 16.1144 12.1526 15.2004C12.0847 14.9341 12.1198 14.6295 12.2351 14.3227C12.2527 14.6394 12.2426 14.8069 12.4492 15.0896C12.8802 15.6807 13.8552 14.9828 14.869 14.7708C15.2324 14.6952 16.7125 14.5993 16.8169 13.836C16.8656 13.4828 16.6964 13.1865 16.583 13.0011Z" fill="#B71060"/>
</g>
<path d="M16.29 14.0872C16.1761 15.4453 13.9342 16.0223 13.2849 15.0564" stroke="#B3115F" stroke-width="0.390627" stroke-linecap="round" stroke-linejoin="round"/>
<path d="M14.9418 15.4299C14.8657 15.1288 14.7924 14.8119 14.7389 14.5292" stroke="#B3115F" stroke-width="0.390627" stroke-linecap="round" stroke-linejoin="round"/>
<path d="M14.0657 14.3435C13.1595 14.5147 13.1101 13.3982 14.2093 13.0678C15.6929 12.6219 15.971 13.6772 15.2923 14.042C15.1926 14.4415 14.2421 14.6533 14.0657 14.3435Z" fill="url(#paint19_linear_286_27716)"/>
<path d="M14.0657 14.3435C13.1595 14.5147 13.1101 13.3982 14.2093 13.0678C15.6929 12.6219 15.971 13.6772 15.2923 14.042C15.1926 14.4415 14.2421 14.6533 14.0657 14.3435Z" stroke="black" stroke-width="0.42632" stroke-linecap="round" stroke-linejoin="round"/>
<path d="M14.0657 14.3434C14.0577 14.1848 14.1209 14.0854 14.195 14.0331" stroke="black" stroke-width="0.42632" stroke-linecap="round" stroke-linejoin="round"/>
<path d="M15.2923 14.0419C15.2049 13.851 14.9786 13.7875 14.9786 13.7875" stroke="black" stroke-width="0.42632" stroke-linecap="round" stroke-linejoin="round"/>
<g opacity="0.1">
<path d="M14.6258 13.33C14.2563 13.4031 13.9623 13.5232 13.8135 13.7836" stroke="white" stroke-width="0.42632" stroke-linecap="round" stroke-linejoin="round"/>
</g>
<path d="M12.3984 12.9707C12.3893 13.7046 11.8653 14.3217 11.2281 14.3489C10.5909 14.3761 10.0818 13.8032 10.0909 13.0693C10.1 12.3354 10.624 11.7183 11.2612 11.6911C11.8984 11.6639 12.4075 12.2368 12.3984 12.9707Z" fill="black"/>
<path d="M11.892 12.2358C11.9438 12.4692 11.7022 12.7169 11.3524 12.7891C11.0026 12.8612 10.677 12.7305 10.6252 12.4971C10.5734 12.2637 10.815 12.016 11.1648 11.9439C11.5146 11.8718 11.8401 12.0024 11.892 12.2358Z" fill="url(#paint20_linear_286_27716)"/>
<path d="M15.9737 12.0126C16.3418 12.6455 17.0998 12.9191 17.6666 12.6237C18.2334 12.3284 18.3943 11.5759 18.0262 10.9431C17.6581 10.3102 16.9002 10.0366 16.3334 10.332C15.7666 10.6274 15.6056 11.3798 15.9737 12.0126Z" fill="black"/>
<path d="M16.053 11.1211C16.1225 11.3497 16.4539 11.4439 16.7931 11.3314C17.1323 11.219 17.3509 10.9425 17.2814 10.7138C17.2119 10.4851 16.8805 10.391 16.5413 10.5034C16.2021 10.6159 15.9835 10.8924 16.053 11.1211Z" fill="url(#paint21_linear_286_27716)"/>
<path d="M24.4534 24.5643C23.1519 24.3172 22.6153 23.8722 22.1844 23.6516C21.1561 23.1251 21.4985 19.8779 23.5861 20.2891C24.2524 20.4204 25.0516 20.5476 25.4646 20.7393C27.1074 21.5019 26.3533 24.925 24.4534 24.5643Z" fill="url(#paint22_radial_286_27716)"/>
<path d="M24.4534 24.5643C23.1519 24.3172 22.6153 23.8722 22.1844 23.6516C21.1561 23.1251 21.4985 19.8779 23.5861 20.2891C24.2524 20.4204 25.0516 20.5476 25.4646 20.7393C27.1074 21.5019 26.3533 24.925 24.4534 24.5643Z" stroke="url(#paint23_linear_286_27716)" stroke-width="0.390625" stroke-linecap="round" stroke-linejoin="round"/>
<path d="M25.4015 25.261C29.5572 25.2432 29.4152 17.345 25.2882 17.3219C22.0516 17.3039 21.3157 25.2786 25.4015 25.261Z" fill="url(#paint24_radial_286_27716)"/>
<path d="M25.4015 25.261C29.5572 25.2432 29.4152 17.345 25.2882 17.3219C22.0516 17.3039 21.3157 25.2786 25.4015 25.261Z" stroke="url(#paint25_linear_286_27716)" stroke-width="0.390625" stroke-linecap="round" stroke-linejoin="round"/>
<path d="M26.8269 24.1725C28.296 23.2188 28.4317 21.2911 28.1299 20.2007C27.8482 19.1827 26.3396 19.0702 26.0389 20.5491C25.2405 19.6691 24.0692 19.6972 23.9241 21.3072C23.8315 22.3343 24.9737 24.1312 26.8269 24.1725Z" fill="url(#paint26_linear_286_27716)"/>
<g opacity="0.66">
<path d="M23.0195 20.7784C23.3443 21.9907 24.867 22.6396 25.9975 22.3367C27.1281 22.0338 28.0172 20.592 27.6924 19.3797C27.3676 18.1674 25.9775 17.3101 24.847 17.6131C23.7165 17.916 22.6947 19.5661 23.0195 20.7784Z" fill="url(#paint27_radial_286_27716)"/>
</g>
<g opacity="0.3">
<path d="M25.1336 17.7328C25.5962 17.7052 26.6942 17.8449 27.3636 18.8586" stroke="white" stroke-width="0.390625" stroke-linecap="round" stroke-linejoin="round"/>
</g>
<path d="M12.2186 28.3598C12.7255 27.9483 13.4431 27.0625 13.7187 26.7016C14.3766 25.8406 12.7751 23.2299 11.1739 24.4213C10.6629 24.8015 10.0897 25.2011 9.81753 25.5302C8.73481 26.8394 10.8104 29.5032 12.2186 28.3598Z" fill="url(#paint28_radial_286_27716)"/>
<path d="M12.2186 28.3598C12.7255 27.9483 13.4431 27.0625 13.7187 26.7016C14.3766 25.8406 12.7751 23.2299 11.1739 24.4213C10.6629 24.8015 10.0897 25.2011 9.81753 25.5302C8.73481 26.8394 10.8104 29.5032 12.2186 28.3598Z" stroke="url(#paint29_linear_286_27716)" stroke-width="0.390625" stroke-linecap="round" stroke-linejoin="round"/>
<path d="M11.6062 29.1022C8.37155 31.2775 4.23329 25.3677 7.31025 23.0185C10.0361 20.9375 15.0849 26.7628 11.6062 29.1022Z" fill="url(#paint30_radial_286_27716)"/>
<path d="M11.6062 29.1022C8.37155 31.2775 4.23329 25.3677 7.31025 23.0185C10.0361 20.9375 15.0849 26.7628 11.6062 29.1022Z" stroke="url(#paint31_linear_286_27716)" stroke-width="0.390625" stroke-linecap="round" stroke-linejoin="round"/>
<path d="M10.2643 28.9669C8.60547 29.224 7.42736 28.115 6.94872 27.0935C6.50192 26.1399 7.23784 25.0308 8.39515 25.9448C8.31752 24.6487 9.17799 23.7652 10.3074 24.8812C11.028 25.5933 11.5643 27.7053 10.2643 28.9669Z" fill="url(#paint32_linear_286_27716)"/>
<g opacity="0.66">
<path d="M11.0372 24.7955C11.3621 26.0078 10.3679 27.3311 9.23739 27.634C8.10686 27.9369 6.92708 27.1997 6.60224 25.9874C6.2774 24.7751 6.74144 23.2709 7.87197 22.968C9.0025 22.665 10.7124 23.5832 11.0372 24.7955Z" fill="url(#paint33_radial_286_27716)"/>
</g>
<path d="M15.6483 18.0032C15.4096 18.6712 15.6943 22.0613 15.6943 22.0613L13.3623 21.5311C13.3623 21.5311 14.6826 18.2408 15.1711 17.7371" fill="#EF0B00"/>
<path d="M15.6483 18.0032C15.4096 18.6712 15.6943 22.0613 15.6943 22.0613L13.3623 21.5311C13.3623 21.5311 14.6826 18.2408 15.1711 17.7371" stroke="#990700" stroke-width="0.390625" stroke-linecap="round" stroke-linejoin="round"/>
<path d="M16.4179 18.0364C17.1658 18.4991 18.2423 20.7608 18.5617 21.2355C19.082 20.8647 20.0407 19.9573 20.0407 19.9573C19.0826 18.6569 17.2487 17.6999 17.2487 17.6999" fill="#EF0B00"/>
<path d="M16.4179 18.0364C17.1658 18.4991 18.2423 20.7608 18.5617 21.2355C19.082 20.8647 20.0407 19.9573 20.0407 19.9573C19.0826 18.6569 17.2487 17.6999 17.2487 17.6999" stroke="#990700" stroke-width="0.390625" stroke-linecap="round" stroke-linejoin="round"/>
<path d="M15.8957 17.9854C17.6204 18.1429 20.118 18.7776 20.9248 18.4446C22.0849 17.9658 21.0053 14.2864 19.5779 14.4056C18.5406 14.4921 17.2835 16.4407 15.8845 17.666C13.4172 17.0125 11.5642 15.9279 10.6732 16.4166C9.37742 17.1275 10.2326 20.637 11.8528 20.5233C12.8293 20.4547 14.6128 19.24 15.8957 17.9854Z" fill="#EF0B00"/>
<path d="M15.8957 17.9854C17.6204 18.1429 20.118 18.7776 20.9248 18.4446C22.0849 17.9658 21.0053 14.2864 19.5779 14.4056C18.5406 14.4921 17.2835 16.4407 15.8845 17.666C13.4172 17.0125 11.5642 15.9279 10.6732 16.4166C9.37742 17.1275 10.2326 20.637 11.8528 20.5233C12.8293 20.4547 14.6128 19.24 15.8957 17.9854Z" stroke="#990700" stroke-width="0.390625" stroke-linecap="round" stroke-linejoin="round"/>
<path d="M11.4732 20.426C11.9574 20.8133 13.776 19.8451 15.5942 18.391C13.481 18.8015 10.9614 20.0165 11.4732 20.426Z" fill="#B50000"/>
<path d="M11.4732 20.426C11.9574 20.8133 13.776 19.8451 15.5942 18.391C13.481 18.8015 10.9614 20.0165 11.4732 20.426Z" stroke="#7C0000" stroke-width="0.390625" stroke-linecap="round" stroke-linejoin="round"/>
<path d="M17.0275 18.0719C19.3849 17.6888 21.016 17.5086 21.1042 18.2165C21.1923 18.9243 18.316 18.462 17.0275 18.0719Z" fill="#B50000"/>
<path d="M17.0275 18.0719C19.3849 17.6888 21.016 17.5086 21.1042 18.2165C21.1923 18.9243 18.316 18.462 17.0275 18.0719Z" stroke="#7C0000" stroke-width="0.390625" stroke-linecap="round" stroke-linejoin="round"/>
<path d="M15.2162 17.2689C14.7087 18.0814 15.2713 18.6506 15.4204 18.8785C16.2363 18.8385 17.1574 18.6882 17.1574 18.6882C17.1431 17.9917 16.2828 16.9704 16.2828 16.9704L15.2162 17.2689Z" fill="#EF0B00"/>
<path d="M15.2162 17.2689C14.7087 18.0814 15.2713 18.6506 15.4204 18.8785C16.2363 18.8385 17.1574 18.6882 17.1574 18.6882C17.1431 17.9917 16.2828 16.9704 16.2828 16.9704L15.2162 17.2689Z" stroke="#990700" stroke-width="0.390625" stroke-linecap="round" stroke-linejoin="round"/>
<g opacity="0.3">
<path d="M6.61546 25.1959C6.61437 24.2997 7.13561 23.2336 8.27803 23.0918" stroke="white" stroke-width="0.390625" stroke-linecap="round" stroke-linejoin="round"/>
</g>
<g opacity="0.44">
<path d="M10.7382 19.1108C10.3339 18.2788 10.3844 16.9937 10.8906 16.7133C11.3968 16.4329 13.502 17.2832 14.1418 17.4721" stroke="white" stroke-width="0.390625" stroke-linecap="round" stroke-linejoin="round"/>
</g>
<g opacity="0.44">
<path d="M17.0781 17.0298C17.602 16.5297 19.0653 14.5188 19.8018 14.7596" stroke="white" stroke-width="0.390625" stroke-linecap="round" stroke-linejoin="round"/>
</g>
</g>
</g>
<defs>
<radialGradient id="paint0_radial_286_27716" cx="0" cy="0" r="1" gradientUnits="userSpaceOnUse" gradientTransform="translate(17.656 4.69013) rotate(-14.9993) scale(2.65758 2.65641)">
<stop offset="0.49" stop-color="#FFBFD1"/>
<stop offset="0.67" stop-color="#FF8BBD"/>
<stop offset="0.84" stop-color="#FF57AA"/>
</radialGradient>
<linearGradient id="paint1_linear_286_27716" x1="17.4574" y1="9.1242" x2="16.1389" y2="3.86191" gradientUnits="userSpaceOnUse">
<stop stop-color="#890A4D"/>
<stop offset="0.5" stop-color="#B61362"/>
<stop offset="1" stop-color="#E31B78"/>
</linearGradient>
<linearGradient id="paint2_linear_286_27716" x1="17.8643" y1="4.9969" x2="18.5923" y2="7.79115" gradientUnits="userSpaceOnUse">
<stop stop-color="white"/>
<stop offset="0.5" stop-color="#F7DDFF"/>
<stop offset="1" stop-color="#EEBBFF"/>
</linearGradient>
<radialGradient id="paint3_radial_286_27716" cx="0" cy="0" r="1" gradientUnits="userSpaceOnUse" gradientTransform="translate(6.71798 6.80835) rotate(-14.9993) scale(2.73236 2.73115)">
<stop offset="0.49" stop-color="#FFBFD1"/>
<stop offset="0.67" stop-color="#FF8BBD"/>
<stop offset="0.84" stop-color="#FF57AA"/>
</radialGradient>
<linearGradient id="paint4_linear_286_27716" x1="7.60215" y1="12.0862" x2="6.08234" y2="6.07264" gradientUnits="userSpaceOnUse">
<stop stop-color="#890A4D"/>
<stop offset="0.5" stop-color="#B61362"/>
<stop offset="1" stop-color="#E31B78"/>
</linearGradient>
<linearGradient id="paint5_linear_286_27716" x1="6.86583" y1="7.38113" x2="8.2381" y2="10.1759" gradientUnits="userSpaceOnUse">
<stop stop-color="white"/>
<stop offset="0.5" stop-color="#F7DDFF"/>
<stop offset="1" stop-color="#EEBBFF"/>
</linearGradient>
<radialGradient id="paint6_radial_286_27716" cx="0" cy="0" r="1" gradientUnits="userSpaceOnUse" gradientTransform="translate(15.9866 19.5274) rotate(-15) scale(7.00025)">
<stop offset="0.49" stop-color="#FFBFD1"/>
<stop offset="0.67" stop-color="#FF8BBD"/>
<stop offset="0.84" stop-color="#FF57AA"/>
</radialGradient>
<linearGradient id="paint7_linear_286_27716" x1="16.6982" y1="26.457" x2="14.1025" y2="16.4283" gradientUnits="userSpaceOnUse">
<stop stop-color="#890A4D"/>
<stop offset="0.5" stop-color="#B61362"/>
<stop offset="1" stop-color="#E31B78"/>
</linearGradient>
<linearGradient id="paint8_linear_286_27716" x1="16.1936" y1="19.4573" x2="17.4981" y2="24.3258" gradientUnits="userSpaceOnUse">
<stop stop-color="white"/>
<stop offset="0.5" stop-color="#F7DDFF"/>
<stop offset="1" stop-color="#EEBBFF"/>
</linearGradient>
<radialGradient id="paint9_radial_286_27716" cx="0" cy="0" r="1" gradientUnits="userSpaceOnUse" gradientTransform="translate(12.1768 6.53596) rotate(-14.9993) scale(11.6436 11.6384)">
<stop offset="0.49" stop-color="#FFBFD1"/>
<stop offset="0.67" stop-color="#FF8BBD"/>
<stop offset="0.84" stop-color="#FF57AA"/>
</radialGradient>
<linearGradient id="paint10_linear_286_27716" x1="14.261" y1="17.1961" x2="11.6658" y2="7.16917" gradientUnits="userSpaceOnUse">
<stop stop-color="#890A4D"/>
<stop offset="0.5" stop-color="#B61362"/>
<stop offset="1" stop-color="#E31B78"/>
</linearGradient>
<radialGradient id="paint11_radial_286_27716" cx="0" cy="0" r="1" gradientUnits="userSpaceOnUse" gradientTransform="translate(7.56625 20.1795) rotate(-15) scale(3.49946)">
<stop offset="0.49" stop-color="#FFBFD1"/>
<stop offset="0.67" stop-color="#FF8BBD"/>
<stop offset="0.84" stop-color="#FF57AA"/>
</radialGradient>
<linearGradient id="paint12_linear_286_27716" x1="10.2272" y1="25.7188" x2="8.45941" y2="18.9733" gradientUnits="userSpaceOnUse">
<stop stop-color="#890A4D"/>
<stop offset="0.5" stop-color="#B61362"/>
<stop offset="1" stop-color="#E31B78"/>
</linearGradient>
<linearGradient id="paint13_linear_286_27716" x1="9.88774" y1="21.6043" x2="10.9201" y2="25.3371" gradientUnits="userSpaceOnUse">
<stop stop-color="white"/>
<stop offset="0.5" stop-color="#F7DDFF"/>
<stop offset="1" stop-color="#EEBBFF"/>
</linearGradient>
<radialGradient id="paint14_radial_286_27716" cx="0" cy="0" r="1" gradientUnits="userSpaceOnUse" gradientTransform="translate(22.6876 15.5921) rotate(-15) scale(3.9371)">
<stop offset="0.49" stop-color="#FFBFD1"/>
<stop offset="0.67" stop-color="#FF8BBD"/>
<stop offset="0.84" stop-color="#FF57AA"/>
</radialGradient>
<linearGradient id="paint15_linear_286_27716" x1="22.6693" y1="21.9233" x2="20.4511" y2="14.5643" gradientUnits="userSpaceOnUse">
<stop stop-color="#890A4D"/>
<stop offset="0.5" stop-color="#B61362"/>
<stop offset="1" stop-color="#E31B78"/>
</linearGradient>
<linearGradient id="paint16_linear_286_27716" x1="22.7885" y1="17.6523" x2="23.7799" y2="20.9141" gradientUnits="userSpaceOnUse">
<stop stop-color="white"/>
<stop offset="0.5" stop-color="#F7DDFF"/>
<stop offset="1" stop-color="#EEBBFF"/>
</linearGradient>
<radialGradient id="paint17_radial_286_27716" cx="0" cy="0" r="1" gradientUnits="userSpaceOnUse" gradientTransform="translate(12.1865 6.54585) rotate(-14.9993) scale(6.08095 6.07827)">
<stop stop-color="white"/>
<stop offset="0.5" stop-color="white" stop-opacity="0.5"/>
<stop offset="1" stop-color="white" stop-opacity="0"/>
</radialGradient>
<linearGradient id="paint18_linear_286_27716" x1="14.7602" y1="14.6074" x2="15.2943" y2="16.8302" gradientUnits="userSpaceOnUse">
<stop stop-color="white"/>
<stop offset="0.5" stop-color="#F7DDFF"/>
<stop offset="1" stop-color="#EEBBFF"/>
</linearGradient>
<linearGradient id="paint19_linear_286_27716" x1="15.525" y1="13.9916" x2="13.9504" y2="13.4711" gradientUnits="userSpaceOnUse">
<stop stop-color="#231F20"/>
<stop offset="0.5" stop-color="#2F292B"/>
<stop offset="1" stop-color="#3B3336"/>
</linearGradient>
<linearGradient id="paint20_linear_286_27716" x1="11.1637" y1="11.8626" x2="11.3475" y2="12.9764" gradientUnits="userSpaceOnUse">
<stop stop-color="white"/>
<stop offset="0.5" stop-color="white" stop-opacity="0.5"/>
<stop offset="1" stop-color="white" stop-opacity="0"/>
</linearGradient>
<linearGradient id="paint21_linear_286_27716" x1="16.5023" y1="10.4323" x2="16.8996" y2="11.4878" gradientUnits="userSpaceOnUse">
<stop stop-color="white"/>
<stop offset="0.5" stop-color="white" stop-opacity="0.5"/>
<stop offset="1" stop-color="white" stop-opacity="0"/>
</linearGradient>
<radialGradient id="paint22_radial_286_27716" cx="0" cy="0" r="1" gradientUnits="userSpaceOnUse" gradientTransform="translate(22.0362 16.9331) rotate(-15) scale(6.95504 6.95504)">
<stop offset="0.49" stop-color="#FFBFD1"/>
<stop offset="0.67" stop-color="#EB6BA4"/>
<stop offset="0.84" stop-color="#D71877"/>
</radialGradient>
<linearGradient id="paint23_linear_286_27716" x1="22.4076" y1="25.1122" x2="21.8559" y2="17.9761" gradientUnits="userSpaceOnUse">
<stop stop-color="#890A4D"/>
<stop offset="0.5" stop-color="#B61362"/>
<stop offset="1" stop-color="#E31B78"/>
</linearGradient>
<radialGradient id="paint24_radial_286_27716" cx="0" cy="0" r="1" gradientUnits="userSpaceOnUse" gradientTransform="translate(23.2779 15.3605) rotate(-15) scale(9.33261)">
<stop offset="0.49" stop-color="#FFBFD1"/>
<stop offset="0.67" stop-color="#FF8BBD"/>
<stop offset="0.84" stop-color="#FF57AA"/>
</radialGradient>
<linearGradient id="paint25_linear_286_27716" x1="24.9931" y1="25.9919" x2="23.2192" y2="16.9048" gradientUnits="userSpaceOnUse">
<stop stop-color="#890A4D"/>
<stop offset="0.5" stop-color="#B61362"/>
<stop offset="1" stop-color="#E31B78"/>
</linearGradient>
<linearGradient id="paint26_linear_286_27716" x1="25.571" y1="20.1546" x2="26.5209" y2="23.9288" gradientUnits="userSpaceOnUse">
<stop stop-color="white"/>
<stop offset="0.5" stop-color="#F7DDFF"/>
<stop offset="1" stop-color="#EEBBFF"/>
</linearGradient>
<radialGradient id="paint27_radial_286_27716" cx="0" cy="0" r="1" gradientUnits="userSpaceOnUse" gradientTransform="translate(24.132 17.5888) rotate(-15) scale(5.66047)">
<stop stop-color="white"/>
<stop offset="0.5" stop-color="white" stop-opacity="0.5"/>
<stop offset="1" stop-color="white" stop-opacity="0"/>
</radialGradient>
<radialGradient id="paint28_radial_286_27716" cx="0" cy="0" r="1" gradientUnits="userSpaceOnUse" gradientTransform="translate(9.66397 21.7569) rotate(-15) scale(6.14954)">
<stop offset="0.49" stop-color="#FFBFD1"/>
<stop offset="0.67" stop-color="#EB6BA4"/>
<stop offset="0.84" stop-color="#D71877"/>
</radialGradient>
<linearGradient id="paint29_linear_286_27716" x1="13.1346" y1="27.3934" x2="10.057" y2="23.3658" gradientUnits="userSpaceOnUse">
<stop stop-color="#890A4D"/>
<stop offset="0.5" stop-color="#B61362"/>
<stop offset="1" stop-color="#E31B78"/>
</linearGradient>
<radialGradient id="paint30_radial_286_27716" cx="0" cy="0" r="1" gradientUnits="userSpaceOnUse" gradientTransform="translate(5.48979 22.0968) rotate(-15) scale(7.43754)">
<stop offset="0.49" stop-color="#FFBFD1"/>
<stop offset="0.67" stop-color="#FF8BBD"/>
<stop offset="0.84" stop-color="#FF57AA"/>
</radialGradient>
<linearGradient id="paint31_linear_286_27716" x1="11.5606" y1="28.8972" x2="7.17235" y2="23.2956" gradientUnits="userSpaceOnUse">
<stop stop-color="#890A4D"/>
<stop offset="0.5" stop-color="#B61362"/>
<stop offset="1" stop-color="#E31B78"/>
</linearGradient>
<linearGradient id="paint32_linear_286_27716" x1="8.26807" y1="24.1496" x2="9.57258" y2="29.0181" gradientUnits="userSpaceOnUse">
<stop stop-color="white"/>
<stop offset="0.5" stop-color="#F7DDFF"/>
<stop offset="1" stop-color="#EEBBFF"/>
</linearGradient>
<radialGradient id="paint33_radial_286_27716" cx="0" cy="0" r="1" gradientUnits="userSpaceOnUse" gradientTransform="translate(7.57706 22.8312) rotate(-15) scale(5.97794)">
<stop stop-color="white"/>
<stop offset="0.5" stop-color="white" stop-opacity="0.5"/>
<stop offset="1" stop-color="white" stop-opacity="0"/>
</radialGradient>
<clipPath id="clip0_286_27716">
<rect width="25" height="25" fill="white" transform="translate(0 6.97046) rotate(-15)"/>
</clipPath>
</defs>
</svg>
