<svg width="169" height="51" viewBox="0 0 169 51" fill="none" xmlns="http://www.w3.org/2000/svg">
<g opacity="0.6" filter="url(#filter0_f_415_5506)">
<mask id="path-1-outside-1_415_5506" maskUnits="userSpaceOnUse" x="8" y="8" width="153" height="35" fill="black">
<rect fill="white" x="8" y="8" width="153" height="35"/>
<path d="M13.625 41V34.9575H19.4478C20.4438 34.9575 21.2056 34.6499 21.7329 34.0347C22.2603 33.4194 22.5239 32.4526 22.5239 31.1343V31.0903C22.5239 30.27 22.4067 29.5742 22.1724 29.0029C21.938 28.4316 21.5864 27.9995 21.1177 27.7065C20.6489 27.4136 20.063 27.2671 19.3599 27.2671H13.625V22.1255H19.228C20.2095 22.1255 20.9272 21.8398 21.3813 21.2686C21.8501 20.6973 22.0845 19.8257 22.0845 18.6538V18.6099C22.0845 17.5405 21.8574 16.7275 21.4033 16.1709C20.9639 15.6143 20.3047 15.3359 19.4258 15.3359H13.625V9.29346H21.7549C23.6445 9.29346 25.2119 9.62305 26.457 10.2822C27.7168 10.9268 28.6543 11.835 29.2695 13.0068C29.8848 14.1641 30.1924 15.5044 30.1924 17.0278V17.0718C30.1924 18.4194 29.9434 19.584 29.4453 20.5654C28.9473 21.5469 28.2661 22.3379 27.4019 22.9385C26.5522 23.5391 25.5928 23.9272 24.5234 24.103V24.2788C25.666 24.3521 26.728 24.6743 27.7095 25.2456C28.7056 25.8022 29.5039 26.6445 30.1045 27.7725C30.7197 28.8857 31.0273 30.2993 31.0273 32.0132V32.0571C31.0273 33.8442 30.6611 35.4116 29.9287 36.7593C29.2109 38.1069 28.1782 39.1543 26.8306 39.9014C25.4829 40.6338 23.8862 41 22.0405 41H13.625ZM9.4502 41V9.29346H17.7778V41H9.4502ZM40.32 41.4175C39.0603 41.4175 37.9689 41.1392 37.0461 40.5825C36.1232 40.0259 35.4128 39.2349 34.9147 38.2095C34.4167 37.1694 34.1677 35.9316 34.1677 34.4961V34.4521C34.1677 33.002 34.4606 31.7202 35.0466 30.6069C35.6472 29.479 36.6066 28.5635 37.925 27.8604C39.258 27.1572 41.0158 26.7104 43.1984 26.52L49.6364 25.9927V30.6289L44.319 31.0903C43.572 31.1489 43.008 31.3906 42.6271 31.8154C42.2463 32.2256 42.0559 32.8115 42.0559 33.5732V33.5952C42.0559 34.3569 42.217 34.8989 42.5393 35.2212C42.8615 35.5288 43.2497 35.6826 43.7038 35.6826C44.0554 35.6826 44.3703 35.6021 44.6486 35.4409C44.927 35.2651 45.1467 35.0088 45.3078 34.6719C45.4836 34.3203 45.5715 33.8735 45.5715 33.3315V24.5864C45.5715 23.9126 45.4177 23.4072 45.1101 23.0703C44.8171 22.7188 44.4069 22.543 43.8796 22.543C43.3376 22.543 42.9128 22.7041 42.6052 23.0264C42.3122 23.3486 42.1511 23.8394 42.1218 24.4985V24.96H34.8708V24.3008C34.9001 22.8066 35.2736 21.4736 35.9914 20.3018C36.7238 19.1152 37.7785 18.1777 39.1555 17.4893C40.5471 16.8008 42.2316 16.4565 44.2092 16.4565C46.26 16.4565 47.9812 16.7788 49.3728 17.4233C50.779 18.0532 51.8337 18.9834 52.5368 20.2139C53.2546 21.4443 53.6135 22.9604 53.6135 24.7622V41H45.5715V38.2754H45.4177C45.154 38.9053 44.7878 39.4546 44.319 39.9233C43.8503 40.3921 43.279 40.7583 42.6052 41.022C41.946 41.2856 41.1843 41.4175 40.32 41.4175ZM57.9184 41V9.29346H65.9823V41H57.9184ZM75.9562 41.4175C74.6964 41.4175 73.6051 41.1392 72.6822 40.5825C71.7594 40.0259 71.0489 39.2349 70.5509 38.2095C70.0528 37.1694 69.8038 35.9316 69.8038 34.4961V34.4521C69.8038 33.002 70.0968 31.7202 70.6827 30.6069C71.2833 29.479 72.2428 28.5635 73.5611 27.8604C74.8941 27.1572 76.652 26.7104 78.8346 26.52L85.2726 25.9927V30.6289L79.9552 31.0903C79.2081 31.1489 78.6441 31.3906 78.2633 31.8154C77.8824 32.2256 77.692 32.8115 77.692 33.5732V33.5952C77.692 34.3569 77.8531 34.8989 78.1754 35.2212C78.4977 35.5288 78.8858 35.6826 79.3399 35.6826C79.6915 35.6826 80.0064 35.6021 80.2848 35.4409C80.5631 35.2651 80.7828 35.0088 80.9439 34.6719C81.1197 34.3203 81.2076 33.8735 81.2076 33.3315V24.5864C81.2076 23.9126 81.0538 23.4072 80.7462 23.0703C80.4532 22.7188 80.0431 22.543 79.5157 22.543C78.9737 22.543 78.5489 22.7041 78.2413 23.0264C77.9483 23.3486 77.7872 23.8394 77.7579 24.4985V24.96H70.5069V24.3008C70.5362 22.8066 70.9098 21.4736 71.6275 20.3018C72.36 19.1152 73.4146 18.1777 74.7916 17.4893C76.1832 16.8008 77.8678 16.4565 79.8453 16.4565C81.8961 16.4565 83.6173 16.7788 85.0089 17.4233C86.4151 18.0532 87.4698 18.9834 88.173 20.2139C88.8907 21.4443 89.2496 22.9604 89.2496 24.7622V41H81.2076V38.2754H81.0538C80.7901 38.9053 80.4239 39.4546 79.9552 39.9233C79.4864 40.3921 78.9151 40.7583 78.2413 41.022C77.5821 41.2856 76.8204 41.4175 75.9562 41.4175ZM93.5545 41V16.896H101.618V20.7192H101.772C102.226 19.313 102.922 18.251 103.86 17.5332C104.797 16.8154 105.969 16.4565 107.375 16.4565C109.294 16.4565 110.803 17.1377 111.902 18.5C113.015 19.8623 113.572 21.7373 113.572 24.125V41H105.508V25.8389C105.508 25.0332 105.354 24.4033 105.046 23.9492C104.753 23.4951 104.27 23.2681 103.596 23.2681C103.157 23.2681 102.79 23.3779 102.497 23.5977C102.204 23.8027 101.985 24.103 101.838 24.4985C101.692 24.894 101.618 25.3555 101.618 25.8828V41H93.5545ZM127.281 41.5493C125.23 41.5493 123.465 41.0952 121.985 40.187C120.521 39.2788 119.393 37.8945 118.602 36.0342C117.811 34.1592 117.415 31.7861 117.415 28.915V28.8711C117.415 26.0879 117.803 23.7734 118.58 21.9277C119.371 20.082 120.499 18.6978 121.963 17.7749C123.443 16.8521 125.215 16.3906 127.281 16.3906C129.273 16.3906 130.965 16.8008 132.356 17.6211C133.763 18.4268 134.839 19.5693 135.586 21.0488C136.333 22.5283 136.714 24.2861 136.729 26.3223L136.751 27.0693H129.39L129.368 26.3223C129.324 25.2383 129.156 24.3667 128.863 23.7075C128.57 23.0337 128.13 22.6968 127.544 22.6968C127.12 22.6968 126.761 22.8945 126.468 23.29C126.175 23.6855 125.955 24.3374 125.809 25.2456C125.677 26.1538 125.611 27.3623 125.611 28.8711V28.937C125.611 30.5044 125.677 31.7495 125.809 32.6724C125.955 33.5952 126.175 34.2544 126.468 34.6499C126.761 35.0454 127.12 35.2432 127.544 35.2432C128.145 35.2432 128.584 34.9136 128.863 34.2544C129.156 33.5806 129.324 32.7017 129.368 31.6177L129.39 30.8706H136.751L136.729 31.6177C136.7 33.6392 136.319 35.397 135.586 36.8911C134.854 38.3706 133.785 39.5205 132.378 40.3408C130.987 41.1465 129.288 41.5493 127.281 41.5493ZM150.021 41.5493C147.941 41.5493 146.161 41.0952 144.681 40.187C143.202 39.2642 142.067 37.8726 141.276 36.0122C140.499 34.1372 140.111 31.7715 140.111 28.915V28.8931C140.111 26.0952 140.499 23.7734 141.276 21.9277C142.067 20.082 143.195 18.6978 144.659 17.7749C146.124 16.8521 147.882 16.3906 149.933 16.3906C151.94 16.3906 153.654 16.8667 155.074 17.8188C156.495 18.7563 157.579 20.1406 158.326 21.9717C159.088 23.7881 159.469 26.022 159.469 28.6733V30.9365H144.11V26.2344H155.712L151.954 30.541V26.7617C151.954 25.751 151.881 24.916 151.735 24.2568C151.588 23.5977 151.368 23.0996 151.075 22.7627C150.782 22.4258 150.424 22.2573 149.999 22.2573C149.559 22.2573 149.193 22.4258 148.9 22.7627C148.607 23.0996 148.387 23.605 148.241 24.2788C148.094 24.938 148.021 25.7656 148.021 26.7617V30.6509C148.021 31.8374 148.102 32.7969 148.263 33.5293C148.424 34.2617 148.658 34.7964 148.966 35.1333C149.288 35.4702 149.676 35.6387 150.131 35.6387C150.511 35.6387 150.834 35.5435 151.097 35.353C151.376 35.1479 151.588 34.8623 151.735 34.4961C151.896 34.1299 152.013 33.6978 152.086 33.1997L152.13 32.958H159.315L159.271 33.3975C159.183 34.5107 158.927 35.5581 158.502 36.5396C158.077 37.5063 157.484 38.3706 156.722 39.1323C155.975 39.8794 155.038 40.4727 153.91 40.9121C152.797 41.3369 151.5 41.5493 150.021 41.5493Z"/>
</mask>
<path d="M13.625 41V34.9575H19.4478C20.4438 34.9575 21.2056 34.6499 21.7329 34.0347C22.2603 33.4194 22.5239 32.4526 22.5239 31.1343V31.0903C22.5239 30.27 22.4067 29.5742 22.1724 29.0029C21.938 28.4316 21.5864 27.9995 21.1177 27.7065C20.6489 27.4136 20.063 27.2671 19.3599 27.2671H13.625V22.1255H19.228C20.2095 22.1255 20.9272 21.8398 21.3813 21.2686C21.8501 20.6973 22.0845 19.8257 22.0845 18.6538V18.6099C22.0845 17.5405 21.8574 16.7275 21.4033 16.1709C20.9639 15.6143 20.3047 15.3359 19.4258 15.3359H13.625V9.29346H21.7549C23.6445 9.29346 25.2119 9.62305 26.457 10.2822C27.7168 10.9268 28.6543 11.835 29.2695 13.0068C29.8848 14.1641 30.1924 15.5044 30.1924 17.0278V17.0718C30.1924 18.4194 29.9434 19.584 29.4453 20.5654C28.9473 21.5469 28.2661 22.3379 27.4019 22.9385C26.5522 23.5391 25.5928 23.9272 24.5234 24.103V24.2788C25.666 24.3521 26.728 24.6743 27.7095 25.2456C28.7056 25.8022 29.5039 26.6445 30.1045 27.7725C30.7197 28.8857 31.0273 30.2993 31.0273 32.0132V32.0571C31.0273 33.8442 30.6611 35.4116 29.9287 36.7593C29.2109 38.1069 28.1782 39.1543 26.8306 39.9014C25.4829 40.6338 23.8862 41 22.0405 41H13.625ZM9.4502 41V9.29346H17.7778V41H9.4502ZM40.32 41.4175C39.0603 41.4175 37.9689 41.1392 37.0461 40.5825C36.1232 40.0259 35.4128 39.2349 34.9147 38.2095C34.4167 37.1694 34.1677 35.9316 34.1677 34.4961V34.4521C34.1677 33.002 34.4606 31.7202 35.0466 30.6069C35.6472 29.479 36.6066 28.5635 37.925 27.8604C39.258 27.1572 41.0158 26.7104 43.1984 26.52L49.6364 25.9927V30.6289L44.319 31.0903C43.572 31.1489 43.008 31.3906 42.6271 31.8154C42.2463 32.2256 42.0559 32.8115 42.0559 33.5732V33.5952C42.0559 34.3569 42.217 34.8989 42.5393 35.2212C42.8615 35.5288 43.2497 35.6826 43.7038 35.6826C44.0554 35.6826 44.3703 35.6021 44.6486 35.4409C44.927 35.2651 45.1467 35.0088 45.3078 34.6719C45.4836 34.3203 45.5715 33.8735 45.5715 33.3315V24.5864C45.5715 23.9126 45.4177 23.4072 45.1101 23.0703C44.8171 22.7188 44.4069 22.543 43.8796 22.543C43.3376 22.543 42.9128 22.7041 42.6052 23.0264C42.3122 23.3486 42.1511 23.8394 42.1218 24.4985V24.96H34.8708V24.3008C34.9001 22.8066 35.2736 21.4736 35.9914 20.3018C36.7238 19.1152 37.7785 18.1777 39.1555 17.4893C40.5471 16.8008 42.2316 16.4565 44.2092 16.4565C46.26 16.4565 47.9812 16.7788 49.3728 17.4233C50.779 18.0532 51.8337 18.9834 52.5368 20.2139C53.2546 21.4443 53.6135 22.9604 53.6135 24.7622V41H45.5715V38.2754H45.4177C45.154 38.9053 44.7878 39.4546 44.319 39.9233C43.8503 40.3921 43.279 40.7583 42.6052 41.022C41.946 41.2856 41.1843 41.4175 40.32 41.4175ZM57.9184 41V9.29346H65.9823V41H57.9184ZM75.9562 41.4175C74.6964 41.4175 73.6051 41.1392 72.6822 40.5825C71.7594 40.0259 71.0489 39.2349 70.5509 38.2095C70.0528 37.1694 69.8038 35.9316 69.8038 34.4961V34.4521C69.8038 33.002 70.0968 31.7202 70.6827 30.6069C71.2833 29.479 72.2428 28.5635 73.5611 27.8604C74.8941 27.1572 76.652 26.7104 78.8346 26.52L85.2726 25.9927V30.6289L79.9552 31.0903C79.2081 31.1489 78.6441 31.3906 78.2633 31.8154C77.8824 32.2256 77.692 32.8115 77.692 33.5732V33.5952C77.692 34.3569 77.8531 34.8989 78.1754 35.2212C78.4977 35.5288 78.8858 35.6826 79.3399 35.6826C79.6915 35.6826 80.0064 35.6021 80.2848 35.4409C80.5631 35.2651 80.7828 35.0088 80.9439 34.6719C81.1197 34.3203 81.2076 33.8735 81.2076 33.3315V24.5864C81.2076 23.9126 81.0538 23.4072 80.7462 23.0703C80.4532 22.7188 80.0431 22.543 79.5157 22.543C78.9737 22.543 78.5489 22.7041 78.2413 23.0264C77.9483 23.3486 77.7872 23.8394 77.7579 24.4985V24.96H70.5069V24.3008C70.5362 22.8066 70.9098 21.4736 71.6275 20.3018C72.36 19.1152 73.4146 18.1777 74.7916 17.4893C76.1832 16.8008 77.8678 16.4565 79.8453 16.4565C81.8961 16.4565 83.6173 16.7788 85.0089 17.4233C86.4151 18.0532 87.4698 18.9834 88.173 20.2139C88.8907 21.4443 89.2496 22.9604 89.2496 24.7622V41H81.2076V38.2754H81.0538C80.7901 38.9053 80.4239 39.4546 79.9552 39.9233C79.4864 40.3921 78.9151 40.7583 78.2413 41.022C77.5821 41.2856 76.8204 41.4175 75.9562 41.4175ZM93.5545 41V16.896H101.618V20.7192H101.772C102.226 19.313 102.922 18.251 103.86 17.5332C104.797 16.8154 105.969 16.4565 107.375 16.4565C109.294 16.4565 110.803 17.1377 111.902 18.5C113.015 19.8623 113.572 21.7373 113.572 24.125V41H105.508V25.8389C105.508 25.0332 105.354 24.4033 105.046 23.9492C104.753 23.4951 104.27 23.2681 103.596 23.2681C103.157 23.2681 102.79 23.3779 102.497 23.5977C102.204 23.8027 101.985 24.103 101.838 24.4985C101.692 24.894 101.618 25.3555 101.618 25.8828V41H93.5545ZM127.281 41.5493C125.23 41.5493 123.465 41.0952 121.985 40.187C120.521 39.2788 119.393 37.8945 118.602 36.0342C117.811 34.1592 117.415 31.7861 117.415 28.915V28.8711C117.415 26.0879 117.803 23.7734 118.58 21.9277C119.371 20.082 120.499 18.6978 121.963 17.7749C123.443 16.8521 125.215 16.3906 127.281 16.3906C129.273 16.3906 130.965 16.8008 132.356 17.6211C133.763 18.4268 134.839 19.5693 135.586 21.0488C136.333 22.5283 136.714 24.2861 136.729 26.3223L136.751 27.0693H129.39L129.368 26.3223C129.324 25.2383 129.156 24.3667 128.863 23.7075C128.57 23.0337 128.13 22.6968 127.544 22.6968C127.12 22.6968 126.761 22.8945 126.468 23.29C126.175 23.6855 125.955 24.3374 125.809 25.2456C125.677 26.1538 125.611 27.3623 125.611 28.8711V28.937C125.611 30.5044 125.677 31.7495 125.809 32.6724C125.955 33.5952 126.175 34.2544 126.468 34.6499C126.761 35.0454 127.12 35.2432 127.544 35.2432C128.145 35.2432 128.584 34.9136 128.863 34.2544C129.156 33.5806 129.324 32.7017 129.368 31.6177L129.39 30.8706H136.751L136.729 31.6177C136.7 33.6392 136.319 35.397 135.586 36.8911C134.854 38.3706 133.785 39.5205 132.378 40.3408C130.987 41.1465 129.288 41.5493 127.281 41.5493ZM150.021 41.5493C147.941 41.5493 146.161 41.0952 144.681 40.187C143.202 39.2642 142.067 37.8726 141.276 36.0122C140.499 34.1372 140.111 31.7715 140.111 28.915V28.8931C140.111 26.0952 140.499 23.7734 141.276 21.9277C142.067 20.082 143.195 18.6978 144.659 17.7749C146.124 16.8521 147.882 16.3906 149.933 16.3906C151.94 16.3906 153.654 16.8667 155.074 17.8188C156.495 18.7563 157.579 20.1406 158.326 21.9717C159.088 23.7881 159.469 26.022 159.469 28.6733V30.9365H144.11V26.2344H155.712L151.954 30.541V26.7617C151.954 25.751 151.881 24.916 151.735 24.2568C151.588 23.5977 151.368 23.0996 151.075 22.7627C150.782 22.4258 150.424 22.2573 149.999 22.2573C149.559 22.2573 149.193 22.4258 148.9 22.7627C148.607 23.0996 148.387 23.605 148.241 24.2788C148.094 24.938 148.021 25.7656 148.021 26.7617V30.6509C148.021 31.8374 148.102 32.7969 148.263 33.5293C148.424 34.2617 148.658 34.7964 148.966 35.1333C149.288 35.4702 149.676 35.6387 150.131 35.6387C150.511 35.6387 150.834 35.5435 151.097 35.353C151.376 35.1479 151.588 34.8623 151.735 34.4961C151.896 34.1299 152.013 33.6978 152.086 33.1997L152.13 32.958H159.315L159.271 33.3975C159.183 34.5107 158.927 35.5581 158.502 36.5396C158.077 37.5063 157.484 38.3706 156.722 39.1323C155.975 39.8794 155.038 40.4727 153.91 40.9121C152.797 41.3369 151.5 41.5493 150.021 41.5493Z" fill="url(#paint0_radial_415_5506)"/>
<path d="M13.625 41H12.625V42H13.625V41ZM13.625 34.9575V33.9575H12.625V34.9575H13.625ZM13.625 27.2671H12.625V28.2671H13.625V27.2671ZM13.625 22.1255V21.1255H12.625V22.1255H13.625ZM21.3813 21.2686L20.6083 20.6342L20.6034 20.6402L20.5985 20.6463L21.3813 21.2686ZM21.4033 16.1709L20.6184 16.7905L20.6234 16.7968L20.6285 16.803L21.4033 16.1709ZM13.625 15.3359H12.625V16.3359H13.625V15.3359ZM13.625 9.29346V8.29346H12.625V9.29346H13.625ZM26.457 10.2822L25.9891 11.1661L26.0016 11.1725L26.457 10.2822ZM29.2695 13.0068L28.3841 13.4717L28.3866 13.4763L29.2695 13.0068ZM27.4019 22.9385L26.8312 22.1173L26.8246 22.1219L27.4019 22.9385ZM24.5234 24.103L24.3612 23.1163L23.5234 23.254V24.103H24.5234ZM24.5234 24.2788H23.5234V25.2168L24.4595 25.2768L24.5234 24.2788ZM27.7095 25.2456L27.2064 26.1099L27.214 26.1143L27.2217 26.1185L27.7095 25.2456ZM30.1045 27.7725L29.2218 28.2425L29.2255 28.2493L29.2292 28.2561L30.1045 27.7725ZM29.9287 36.7593L29.0501 36.2817L29.0461 36.2892L29.9287 36.7593ZM26.8306 39.9014L27.3081 40.78L27.3154 40.776L26.8306 39.9014ZM9.4502 41H8.4502V42H9.4502V41ZM9.4502 9.29346V8.29346H8.4502V9.29346H9.4502ZM17.7778 9.29346H18.7778V8.29346H17.7778V9.29346ZM17.7778 41V42H18.7778V41H17.7778ZM14.625 41V34.9575H12.625V41H14.625ZM13.625 35.9575H19.4478V33.9575H13.625V35.9575ZM19.4478 35.9575C20.6629 35.9575 21.732 35.5723 22.4922 34.6855L20.9737 33.3839C20.6791 33.7275 20.2248 33.9575 19.4478 33.9575V35.9575ZM22.4922 34.6855C23.2465 33.8054 23.5239 32.5514 23.5239 31.1343H21.5239C21.5239 32.3538 21.274 33.0335 20.9737 33.3839L22.4922 34.6855ZM23.5239 31.1343V31.0903H21.5239V31.1343H23.5239ZM23.5239 31.0903C23.5239 30.1803 23.3946 29.3476 23.0975 28.6234L21.2472 29.3825C21.4188 29.8008 21.5239 30.3598 21.5239 31.0903H23.5239ZM23.0975 28.6234C22.7934 27.8821 22.3145 27.2753 21.6477 26.8585L20.5877 28.5545C20.8584 28.7237 21.0825 28.9811 21.2472 29.3825L23.0975 28.6234ZM21.6477 26.8585C20.982 26.4425 20.2 26.2671 19.3599 26.2671V28.2671C19.926 28.2671 20.3158 28.3846 20.5877 28.5545L21.6477 26.8585ZM19.3599 26.2671H13.625V28.2671H19.3599V26.2671ZM14.625 27.2671V22.1255H12.625V27.2671H14.625ZM13.625 23.1255H19.228V21.1255H13.625V23.1255ZM19.228 23.1255C20.4019 23.1255 21.4599 22.7768 22.1642 21.8908L20.5985 20.6463C20.3946 20.9029 20.0171 21.1255 19.228 21.1255V23.1255ZM22.1544 21.9029C22.8343 21.0743 23.0845 19.9297 23.0845 18.6538H21.0845C21.0845 19.7217 20.8659 20.3202 20.6083 20.6342L22.1544 21.9029ZM23.0845 18.6538V18.6099H21.0845V18.6538H23.0845ZM23.0845 18.6099C23.0845 17.4186 22.8342 16.3429 22.1782 15.5388L20.6285 16.803C20.8807 17.1122 21.0845 17.6625 21.0845 18.6099H23.0845ZM22.1882 15.5513C21.5142 14.6975 20.53 14.3359 19.4258 14.3359V16.3359C20.0794 16.3359 20.4136 16.531 20.6184 16.7905L22.1882 15.5513ZM19.4258 14.3359H13.625V16.3359H19.4258V14.3359ZM14.625 15.3359V9.29346H12.625V15.3359H14.625ZM13.625 10.2935H21.7549V8.29346H13.625V10.2935ZM21.7549 10.2935C23.5348 10.2935 24.9289 10.6047 25.9891 11.166L26.9249 9.39844C25.4949 8.64138 23.7543 8.29346 21.7549 8.29346V10.2935ZM26.0016 11.1725C27.091 11.7298 27.8716 12.4955 28.3841 13.4717L30.1549 12.542C29.437 11.1744 28.3426 10.1237 26.9125 9.39198L26.0016 11.1725ZM28.3866 13.4763C28.9133 14.4671 29.1924 15.6414 29.1924 17.0278H31.1924C31.1924 15.3674 30.8562 13.861 30.1525 12.5374L28.3866 13.4763ZM29.1924 17.0278V17.0718H31.1924V17.0278H29.1924ZM29.1924 17.0718C29.1924 18.2969 28.9662 19.2997 28.5536 20.1129L30.3371 21.018C30.9205 19.8683 31.1924 18.5419 31.1924 17.0718H29.1924ZM28.5536 20.1129C28.1269 20.9538 27.5533 21.6155 26.8312 22.1173L27.9725 23.7597C28.9789 23.0603 29.7677 22.14 30.3371 21.018L28.5536 20.1129ZM26.8246 22.1219C26.1039 22.6314 25.2875 22.964 24.3612 23.1163L24.6856 25.0898C25.898 24.8905 27.0006 24.4467 27.9791 23.7551L26.8246 22.1219ZM23.5234 24.103V24.2788H25.5234V24.103H23.5234ZM24.4595 25.2768C25.4486 25.3402 26.3601 25.6172 27.2064 26.1099L28.2125 24.3814C27.0959 23.7314 25.8834 23.3639 24.5874 23.2809L24.4595 25.2768ZM27.2217 26.1185C28.0306 26.5706 28.7003 27.263 29.2218 28.2425L30.9872 27.3025C30.3075 26.0261 29.3805 25.0339 28.1973 24.3727L27.2217 26.1185ZM29.2292 28.2561C29.7391 29.1788 30.0273 30.4121 30.0273 32.0132H32.0273C32.0273 30.1865 31.7003 28.5927 30.9797 27.2888L29.2292 28.2561ZM30.0273 32.0132V32.0571H32.0273V32.0132H30.0273ZM30.0273 32.0571C30.0273 33.7051 29.6906 35.1032 29.0501 36.2818L30.8073 37.2368C31.6317 35.72 32.0273 33.9834 32.0273 32.0571H30.0273ZM29.0461 36.2892C28.42 37.4648 27.5262 38.3724 26.3457 39.0268L27.3154 40.776C28.8303 39.9362 30.0019 38.7491 30.8113 37.2294L29.0461 36.2892ZM26.3531 39.0227C25.179 39.6608 23.7532 40 22.0405 40V42C24.0193 42 25.7868 41.6068 27.3081 40.78L26.3531 39.0227ZM22.0405 40H13.625V42H22.0405V40ZM10.4502 41V9.29346H8.4502V41H10.4502ZM9.4502 10.2935H17.7778V8.29346H9.4502V10.2935ZM16.7778 9.29346V41H18.7778V9.29346H16.7778ZM17.7778 40H9.4502V42H17.7778V40ZM34.9147 38.2095L34.0128 38.6414L34.0152 38.6464L34.9147 38.2095ZM35.0466 30.6069L34.1639 30.1369L34.1617 30.1412L35.0466 30.6069ZM37.925 27.8604L37.4584 26.9758L37.4544 26.978L37.925 27.8604ZM43.1984 26.52L43.1168 25.5233L43.1115 25.5238L43.1984 26.52ZM49.6364 25.9927H50.6364V24.9074L49.5548 24.996L49.6364 25.9927ZM49.6364 30.6289L49.7229 31.6252L50.6364 31.5459V30.6289H49.6364ZM44.319 31.0903L44.3972 32.0873L44.4055 32.0866L44.319 31.0903ZM42.6271 31.8154L43.3599 32.4959L43.3659 32.4895L43.3717 32.483L42.6271 31.8154ZM42.5393 35.2212L41.8321 35.9283L41.8404 35.9365L41.8488 35.9445L42.5393 35.2212ZM44.6486 35.4409L45.1497 36.3063L45.1663 36.2967L45.1826 36.2864L44.6486 35.4409ZM45.3078 34.6719L44.4134 34.2247L44.4095 34.2325L44.4057 34.2404L45.3078 34.6719ZM45.1101 23.0703L44.3418 23.7105L44.3563 23.7279L44.3716 23.7446L45.1101 23.0703ZM42.6052 23.0264L41.8818 22.3359L41.8734 22.3447L41.8652 22.3537L42.6052 23.0264ZM42.1218 24.4985L41.1228 24.4541L41.1218 24.4763V24.4985H42.1218ZM42.1218 24.96V25.96H43.1218V24.96H42.1218ZM34.8708 24.96H33.8708V25.96H34.8708V24.96ZM34.8708 24.3008L33.871 24.2812L33.8708 24.291V24.3008H34.8708ZM35.9914 20.3018L35.1405 19.7765L35.1387 19.7794L35.9914 20.3018ZM39.1555 17.4893L38.712 16.5929L38.7083 16.5948L39.1555 17.4893ZM49.3728 17.4233L48.9524 18.3308L48.964 18.336L49.3728 17.4233ZM52.5368 20.2139L51.6685 20.71L51.673 20.7177L52.5368 20.2139ZM53.6135 41V42H54.6135V41H53.6135ZM45.5715 41H44.5715V42H45.5715V41ZM45.5715 38.2754H46.5715V37.2754H45.5715V38.2754ZM45.4177 38.2754V37.2754H44.7522L44.4952 37.8893L45.4177 38.2754ZM42.6052 41.022L42.2408 40.0907L42.2338 40.0935L42.6052 41.022ZM40.32 40.4175C39.2111 40.4175 38.3049 40.174 37.5626 39.7262L36.5296 41.4388C37.633 42.1044 38.9094 42.4175 40.32 42.4175V40.4175ZM37.5626 39.7262C36.815 39.2753 36.233 38.6346 35.8143 37.7726L34.0152 38.6464C34.5926 39.8351 35.4315 40.7764 36.5296 41.4388L37.5626 39.7262ZM35.8167 37.7776C35.397 36.9012 35.1677 35.8179 35.1677 34.4961H33.1677C33.1677 36.0454 33.4364 37.4376 34.0128 38.6414L35.8167 37.7776ZM35.1677 34.4961V34.4521H33.1677V34.4961H35.1677ZM35.1677 34.4521C35.1677 33.1393 35.432 32.0218 35.9315 31.0727L34.1617 30.1412C33.4893 31.4186 33.1677 32.8646 33.1677 34.4521H35.1677ZM35.9293 31.0769C36.4215 30.1524 37.2221 29.3686 38.3956 28.7427L37.4544 26.978C35.9912 27.7584 34.8728 28.8056 34.1639 30.1369L35.9293 31.0769ZM38.3915 28.7448C39.566 28.1254 41.1802 27.6999 43.2854 27.5162L43.1115 25.5238C40.8514 25.721 38.95 26.1891 37.4585 26.9759L38.3915 28.7448ZM43.2801 27.5167L49.7181 26.9893L49.5548 24.996L43.1168 25.5234L43.2801 27.5167ZM48.6364 25.9927V30.6289H50.6364V25.9927H48.6364ZM49.55 29.6327L44.2326 30.0941L44.4055 32.0866L49.7229 31.6252L49.55 29.6327ZM44.2409 30.0934C43.3204 30.1656 42.4834 30.4777 41.8826 31.1479L43.3717 32.483C43.5326 32.3035 43.8236 32.1323 44.3972 32.0873L44.2409 30.0934ZM41.8944 31.135C41.2878 31.7882 41.0559 32.6515 41.0559 33.5732H43.0559C43.0559 32.9715 43.2048 32.663 43.3599 32.4959L41.8944 31.135ZM41.0559 33.5732V33.5952H43.0559V33.5732H41.0559ZM41.0559 33.5952C41.0559 34.454 41.2299 35.3261 41.8321 35.9283L43.2464 34.5141C43.2041 34.4718 43.0559 34.2599 43.0559 33.5952H41.0559ZM41.8488 35.9445C42.361 36.4335 42.9981 36.6826 43.7038 36.6826V34.6826C43.5014 34.6826 43.362 34.6241 43.2297 34.4978L41.8488 35.9445ZM43.7038 36.6826C44.2144 36.6826 44.7051 36.5637 45.1497 36.3063L44.1476 34.5755C44.0355 34.6404 43.8963 34.6826 43.7038 34.6826V36.6826ZM45.1826 36.2864C45.6408 35.997 45.9788 35.5867 46.2099 35.1033L44.4057 34.2404C44.3146 34.4309 44.2131 34.5333 44.1146 34.5954L45.1826 36.2864ZM46.2022 35.1191C46.4686 34.5863 46.5715 33.9732 46.5715 33.3315H44.5715C44.5715 33.7739 44.4986 34.0543 44.4134 34.2247L46.2022 35.1191ZM46.5715 33.3315V24.5864H44.5715V33.3315H46.5715ZM46.5715 24.5864C46.5715 23.7798 46.3893 22.9883 45.8485 22.396L44.3716 23.7446C44.446 23.8261 44.5715 24.0454 44.5715 24.5864H46.5715ZM45.8783 22.4301C45.3652 21.8144 44.6532 21.543 43.8796 21.543V23.543C44.1607 23.543 44.269 23.6231 44.3418 23.7105L45.8783 22.4301ZM43.8796 21.543C43.1278 21.543 42.4179 21.7743 41.8818 22.3359L43.3285 23.7168C43.4077 23.6339 43.5473 23.543 43.8796 23.543V21.543ZM41.8652 22.3537C41.352 22.9182 41.1573 23.6769 41.1228 24.4541L43.1208 24.5429C43.1448 24.0018 43.2724 23.7791 43.3451 23.699L41.8652 22.3537ZM41.1218 24.4985V24.96H43.1218V24.4985H41.1218ZM42.1218 23.96H34.8708V25.96H42.1218V23.96ZM35.8708 24.96V24.3008H33.8708V24.96H35.8708ZM35.8706 24.3204C35.8967 22.9879 36.2272 21.8313 36.8442 20.8241L35.1387 19.7794C34.32 21.116 33.9035 22.6254 33.871 24.2812L35.8706 24.3204ZM36.8423 20.827C37.4671 19.8149 38.3741 18.998 39.6027 18.3837L38.7083 16.5948C37.1829 17.3575 35.9805 18.4156 35.1405 19.7765L36.8423 20.827ZM39.5989 18.3856C40.8202 17.7814 42.3446 17.4565 44.2092 17.4565V15.4565C42.1187 15.4565 40.274 15.8202 38.712 16.593L39.5989 18.3856ZM44.2092 17.4565C46.1613 17.4565 47.7291 17.7641 48.9525 18.3307L49.793 16.5159C48.2332 15.7935 46.3586 15.4565 44.2092 15.4565V17.4565ZM48.964 18.336C50.1946 18.8872 51.0799 19.6798 51.6686 20.71L53.4051 19.7177C52.5875 18.287 51.3634 17.2192 49.7815 16.5107L48.964 18.336ZM51.673 20.7177C52.2809 21.7598 52.6135 23.0913 52.6135 24.7622H54.6135C54.6135 22.8296 54.2283 21.1289 53.4006 19.71L51.673 20.7177ZM52.6135 24.7622V41H54.6135V24.7622H52.6135ZM53.6135 40H45.5715V42H53.6135V40ZM46.5715 41V38.2754H44.5715V41H46.5715ZM45.5715 37.2754H45.4177V39.2754H45.5715V37.2754ZM44.4952 37.8893C44.2802 38.4028 43.9859 38.8422 43.6119 39.2162L45.0261 40.6304C45.5896 40.0669 46.0278 39.4077 46.3401 38.6615L44.4952 37.8893ZM43.6119 39.2162C43.2494 39.5788 42.798 39.8727 42.2408 40.0907L42.9696 41.9532C43.76 41.6439 44.4512 41.2054 45.0261 40.6304L43.6119 39.2162ZM42.2338 40.0935C41.7154 40.3009 41.0839 40.4175 40.32 40.4175V42.4175C41.2846 42.4175 42.1766 42.2704 42.9766 41.9505L42.2338 40.0935ZM57.9184 41H56.9184V42H57.9184V41ZM57.9184 9.29346V8.29346H56.9184V9.29346H57.9184ZM65.9823 9.29346H66.9823V8.29346H65.9823V9.29346ZM65.9823 41V42H66.9823V41H65.9823ZM58.9184 41V9.29346H56.9184V41H58.9184ZM57.9184 10.2935H65.9823V8.29346H57.9184V10.2935ZM64.9823 9.29346V41H66.9823V9.29346H64.9823ZM65.9823 40H57.9184V42H65.9823V40ZM70.5509 38.2095L69.6489 38.6414L69.6514 38.6464L70.5509 38.2095ZM70.6827 30.6069L69.8 30.1369L69.7978 30.1412L70.6827 30.6069ZM73.5611 27.8604L73.0946 26.9758L73.0905 26.978L73.5611 27.8604ZM78.8346 26.52L78.7529 25.5233L78.7477 25.5238L78.8346 26.52ZM85.2726 25.9927H86.2726V24.9074L85.1909 24.996L85.2726 25.9927ZM85.2726 30.6289L85.359 31.6252L86.2726 31.5459V30.6289H85.2726ZM79.9552 31.0903L80.0334 32.0873L80.0416 32.0866L79.9552 31.0903ZM78.2633 31.8154L78.9961 32.4959L79.002 32.4895L79.0079 32.483L78.2633 31.8154ZM78.1754 35.2212L77.4683 35.9283L77.4765 35.9365L77.4849 35.9445L78.1754 35.2212ZM80.2848 35.4409L80.7858 36.3063L80.8025 36.2967L80.8188 36.2864L80.2848 35.4409ZM80.9439 34.6719L80.0495 34.2247L80.0456 34.2325L80.0418 34.2404L80.9439 34.6719ZM80.7462 23.0703L79.978 23.7105L79.9925 23.7279L80.0077 23.7446L80.7462 23.0703ZM78.2413 23.0264L77.518 22.3359L77.5096 22.3447L77.5014 22.3537L78.2413 23.0264ZM77.7579 24.4985L76.7589 24.4541L76.7579 24.4763V24.4985H77.7579ZM77.7579 24.96V25.96H78.7579V24.96H77.7579ZM70.5069 24.96H69.5069V25.96H70.5069V24.96ZM70.5069 24.3008L69.5071 24.2812L69.5069 24.291V24.3008H70.5069ZM71.6275 20.3018L70.7766 19.7765L70.7748 19.7794L71.6275 20.3018ZM74.7916 17.4893L74.3482 16.5929L74.3444 16.5948L74.7916 17.4893ZM85.0089 17.4233L84.5886 18.3308L84.6001 18.336L85.0089 17.4233ZM88.173 20.2139L87.3047 20.71L87.3092 20.7177L88.173 20.2139ZM89.2496 41V42H90.2496V41H89.2496ZM81.2076 41H80.2076V42H81.2076V41ZM81.2076 38.2754H82.2076V37.2754H81.2076V38.2754ZM81.0538 38.2754V37.2754H80.3883L80.1314 37.8893L81.0538 38.2754ZM78.2413 41.022L77.8769 40.0907L77.8699 40.0935L78.2413 41.022ZM75.9562 40.4175C74.8473 40.4175 73.941 40.174 73.1987 39.7262L72.1657 41.4388C73.2691 42.1044 74.5455 42.4175 75.9562 42.4175V40.4175ZM73.1987 39.7262C72.4511 39.2753 71.8691 38.6346 71.4504 37.7726L69.6514 38.6464C70.2288 39.8351 71.0676 40.7764 72.1657 41.4388L73.1987 39.7262ZM71.4528 37.7776C71.0331 36.9012 70.8038 35.8179 70.8038 34.4961H68.8038C68.8038 36.0454 69.0725 37.4376 69.649 38.6414L71.4528 37.7776ZM70.8038 34.4961V34.4521H68.8038V34.4961H70.8038ZM70.8038 34.4521C70.8038 33.1393 71.0681 32.0218 71.5676 31.0727L69.7978 30.1412C69.1255 31.4186 68.8038 32.8646 68.8038 34.4521H70.8038ZM71.5654 31.0769C72.0577 30.1524 72.8583 29.3686 74.0317 28.7427L73.0905 26.978C71.6273 27.7584 70.509 28.8056 69.8 30.1369L71.5654 31.0769ZM74.0277 28.7448C75.2021 28.1254 76.8164 27.6999 78.9215 27.5162L78.7477 25.5238C76.4875 25.721 74.5862 26.1891 73.0946 26.9759L74.0277 28.7448ZM78.9162 27.5167L85.3542 26.9893L85.1909 24.996L78.7529 25.5234L78.9162 27.5167ZM84.2726 25.9927V30.6289H86.2726V25.9927H84.2726ZM85.1861 29.6327L79.8687 30.0941L80.0416 32.0866L85.359 31.6252L85.1861 29.6327ZM79.877 30.0934C78.9565 30.1656 78.1195 30.4777 77.5187 31.1479L79.0079 32.483C79.1687 32.3035 79.4597 32.1323 80.0334 32.0873L79.877 30.0934ZM77.5305 31.135C76.9239 31.7882 76.692 32.6515 76.692 33.5732H78.692C78.692 32.9715 78.8409 32.663 78.9961 32.4959L77.5305 31.135ZM76.692 33.5732V33.5952H78.692V33.5732H76.692ZM76.692 33.5952C76.692 34.454 76.8661 35.3261 77.4683 35.9283L78.8825 34.5141C78.8402 34.4718 78.692 34.2599 78.692 33.5952H76.692ZM77.4849 35.9445C77.9972 36.4335 78.6342 36.6826 79.3399 36.6826V34.6826C79.1375 34.6826 78.9982 34.6241 78.8659 34.4978L77.4849 35.9445ZM79.3399 36.6826C79.8506 36.6826 80.3413 36.5637 80.7858 36.3063L79.7837 34.5755C79.6716 34.6404 79.5324 34.6826 79.3399 34.6826V36.6826ZM80.8188 36.2864C81.277 35.997 81.6149 35.5867 81.8461 35.1033L80.0418 34.2404C79.9507 34.4309 79.8492 34.5333 79.7508 34.5954L80.8188 36.2864ZM81.8384 35.1191C82.1048 34.5863 82.2076 33.9732 82.2076 33.3315H80.2076C80.2076 33.7739 80.1347 34.0543 80.0495 34.2247L81.8384 35.1191ZM82.2076 33.3315V24.5864H80.2076V33.3315H82.2076ZM82.2076 24.5864C82.2076 23.7798 82.0254 22.9883 81.4847 22.396L80.0077 23.7446C80.0822 23.8261 80.2076 24.0454 80.2076 24.5864H82.2076ZM81.5144 22.4301C81.0013 21.8144 80.2893 21.543 79.5157 21.543V23.543C79.7968 23.543 79.9051 23.6231 79.978 23.7105L81.5144 22.4301ZM79.5157 21.543C78.764 21.543 78.0541 21.7743 77.518 22.3359L78.9647 23.7168C79.0438 23.6339 79.1835 23.543 79.5157 23.543V21.543ZM77.5014 22.3537C76.9882 22.9182 76.7934 23.6769 76.7589 24.4541L78.7569 24.5429C78.781 24.0018 78.9085 23.7791 78.9812 23.699L77.5014 22.3537ZM76.7579 24.4985V24.96H78.7579V24.4985H76.7579ZM77.7579 23.96H70.5069V25.96H77.7579V23.96ZM71.5069 24.96V24.3008H69.5069V24.96H71.5069ZM71.5067 24.3204C71.5329 22.9879 71.8634 21.8313 72.4803 20.8241L70.7748 19.7794C69.9562 21.116 69.5396 22.6254 69.5071 24.2812L71.5067 24.3204ZM72.4785 20.827C73.1033 19.8149 74.0103 18.998 75.2388 18.3837L74.3444 16.5948C72.819 17.3575 71.6167 18.4156 70.7766 19.7765L72.4785 20.827ZM75.235 18.3856C76.4563 17.7814 77.9807 17.4565 79.8453 17.4565V15.4565C77.7548 15.4565 75.9101 15.8202 74.3482 16.593L75.235 18.3856ZM79.8453 17.4565C81.7975 17.4565 83.3652 17.7641 84.5886 18.3307L85.4292 16.5159C83.8693 15.7935 81.9947 15.4565 79.8453 15.4565V17.4565ZM84.6001 18.336C85.8308 18.8872 86.716 19.6798 87.3047 20.71L89.0412 19.7177C88.2236 18.287 86.9995 17.2192 85.4177 16.5107L84.6001 18.336ZM87.3092 20.7177C87.917 21.7598 88.2496 23.0913 88.2496 24.7622H90.2496C90.2496 22.8296 89.8644 21.1289 89.0367 19.71L87.3092 20.7177ZM88.2496 24.7622V41H90.2496V24.7622H88.2496ZM89.2496 40H81.2076V42H89.2496V40ZM82.2076 41V38.2754H80.2076V41H82.2076ZM81.2076 37.2754H81.0538V39.2754H81.2076V37.2754ZM80.1314 37.8893C79.9164 38.4028 79.6221 38.8422 79.2481 39.2162L80.6623 40.6304C81.2258 40.0669 81.6639 39.4077 81.9762 38.6615L80.1314 37.8893ZM79.2481 39.2162C78.8855 39.5788 78.4341 39.8727 77.8769 40.0907L78.6057 41.9532C79.3961 41.6439 80.0874 41.2054 80.6623 40.6304L79.2481 39.2162ZM77.8699 40.0935C77.3515 40.3009 76.7201 40.4175 75.9562 40.4175V42.4175C76.9207 42.4175 77.8128 42.2704 78.6127 41.9505L77.8699 40.0935ZM93.5545 41H92.5545V42H93.5545V41ZM93.5545 16.896V15.896H92.5545V16.896H93.5545ZM101.618 16.896H102.618V15.896H101.618V16.896ZM101.618 20.7192H100.618V21.7192H101.618V20.7192ZM101.772 20.7192V21.7192H102.5L102.724 21.0265L101.772 20.7192ZM111.902 18.5L111.123 19.1278L111.127 19.1328L111.902 18.5ZM113.572 41V42H114.572V41H113.572ZM105.508 41H104.508V42H105.508V41ZM105.046 23.9492L104.206 24.4913L104.212 24.5008L104.218 24.5101L105.046 23.9492ZM102.497 23.5977L103.071 24.4169L103.084 24.4075L103.097 24.3977L102.497 23.5977ZM101.618 41V42H102.618V41H101.618ZM94.5545 41V16.896H92.5545V41H94.5545ZM93.5545 17.896H101.618V15.896H93.5545V17.896ZM100.618 16.896V20.7192H102.618V16.896H100.618ZM101.618 21.7192H101.772V19.7192H101.618V21.7192ZM102.724 21.0265C103.131 19.7648 103.728 18.8935 104.468 18.3272L103.252 16.7392C102.116 17.6085 101.321 18.8612 100.821 20.4119L102.724 21.0265ZM104.468 18.3272C105.199 17.7672 106.145 17.4565 107.375 17.4565V15.4565C105.793 15.4565 104.395 15.8637 103.252 16.7392L104.468 18.3272ZM107.375 17.4565C109.025 17.4565 110.234 18.0256 111.123 19.1278L112.68 17.8722C111.372 16.2498 109.563 15.4565 107.375 15.4565V17.4565ZM111.127 19.1328C112.05 20.2618 112.572 21.8858 112.572 24.125H114.572C114.572 21.5888 113.98 19.4628 112.676 17.8672L111.127 19.1328ZM112.572 24.125V41H114.572V24.125H112.572ZM113.572 40H105.508V42H113.572V40ZM106.508 41V25.8389H104.508V41H106.508ZM106.508 25.8389C106.508 24.9221 106.335 24.0688 105.874 23.3884L104.218 24.5101C104.373 24.7378 104.508 25.1443 104.508 25.8389H106.508ZM105.886 23.4071C105.363 22.5955 104.514 22.2681 103.596 22.2681V24.2681C104.026 24.2681 104.144 24.3948 104.206 24.4913L105.886 23.4071ZM103.596 22.2681C102.985 22.2681 102.396 22.4237 101.897 22.7977L103.097 24.3977C103.185 24.3321 103.328 24.2681 103.596 24.2681V22.2681ZM101.924 22.7784C101.436 23.1198 101.105 23.6001 100.9 24.1512L102.776 24.8458C102.865 24.606 102.973 24.4856 103.071 24.4169L101.924 22.7784ZM100.9 24.1512C100.704 24.6818 100.618 25.2654 100.618 25.8828H102.618C102.618 25.4455 102.679 25.1063 102.776 24.8458L100.9 24.1512ZM100.618 25.8828V41H102.618V25.8828H100.618ZM101.618 40H93.5545V42H101.618V40ZM121.985 40.187L121.458 41.0369L121.462 41.0392L121.985 40.187ZM118.602 36.0342L117.68 36.4229L117.681 36.4255L118.602 36.0342ZM118.58 21.9277L117.66 21.5338L117.658 21.54L118.58 21.9277ZM121.963 17.7749L121.434 16.9264L121.43 16.9288L121.963 17.7749ZM132.356 17.6211L131.849 18.4826L131.859 18.4888L132.356 17.6211ZM136.729 26.3223L135.729 26.3295L135.729 26.3406L135.729 26.3517L136.729 26.3223ZM136.751 27.0693V28.0693H137.781L137.751 27.0399L136.751 27.0693ZM129.39 27.0693L128.391 27.0987L128.419 28.0693H129.39V27.0693ZM129.368 26.3223L130.368 26.2929L130.367 26.2818L129.368 26.3223ZM128.863 23.7075L127.946 24.1063L127.949 24.1137L128.863 23.7075ZM125.809 25.2456L124.821 25.0864L124.82 25.0942L124.819 25.1019L125.809 25.2456ZM125.809 32.6724L124.819 32.8138L124.82 32.8215L124.821 32.8291L125.809 32.6724ZM128.863 34.2544L127.946 33.8556L127.942 33.8654L128.863 34.2544ZM129.368 31.6177L130.367 31.6582L130.368 31.6471L129.368 31.6177ZM129.39 30.8706V29.8706H128.419L128.391 30.8412L129.39 30.8706ZM136.751 30.8706L137.751 30.9L137.781 29.8706H136.751V30.8706ZM136.729 31.6177L135.729 31.5883L135.729 31.5957L135.729 31.6032L136.729 31.6177ZM135.586 36.8911L136.483 37.3348L136.484 37.3313L135.586 36.8911ZM132.378 40.3408L132.879 41.2063L132.882 41.2046L132.378 40.3408ZM127.281 40.5493C125.381 40.5493 123.804 40.1301 122.509 39.3348L121.462 41.0392C123.126 42.0604 125.079 42.5493 127.281 42.5493V40.5493ZM122.512 39.3371C121.251 38.5554 120.246 37.3472 119.522 35.6429L117.681 36.4255C118.539 38.4419 119.79 40.0022 121.458 41.0369L122.512 39.3371ZM119.523 35.6455C118.8 33.933 118.415 31.7035 118.415 28.915H116.415C116.415 31.8688 116.821 34.3854 117.68 36.4229L119.523 35.6455ZM118.415 28.915V28.8711H116.415V28.915H118.415ZM118.415 28.8711C118.415 26.1726 118.793 24.0005 119.501 22.3155L117.658 21.54C116.814 23.5463 116.415 26.0031 116.415 28.8711H118.415ZM119.499 22.3217C120.223 20.6317 121.229 19.4192 122.496 18.621L121.43 16.9288C119.768 17.9763 118.518 19.5324 117.66 21.5338L119.499 22.3217ZM122.493 18.6234C123.786 17.8165 125.368 17.3906 127.281 17.3906V15.3906C125.063 15.3906 123.1 15.8876 121.434 16.9264L122.493 18.6234ZM127.281 17.3906C129.136 17.3906 130.643 17.7719 131.849 18.4826L132.864 16.7596C131.287 15.8297 129.41 15.3906 127.281 15.3906V17.3906ZM131.859 18.4888C133.092 19.1948 134.033 20.1906 134.694 21.4996L136.479 20.5981C135.646 18.9481 134.434 17.6587 132.854 16.7534L131.859 18.4888ZM134.694 21.4996C135.357 22.8136 135.715 24.4129 135.729 26.3295L137.729 26.3151C137.713 24.1594 137.31 22.243 136.479 20.5981L134.694 21.4996ZM135.729 26.3517L135.751 27.0987L137.751 27.0399L137.729 26.2929L135.729 26.3517ZM136.751 26.0693H129.39V28.0693H136.751V26.0693ZM130.39 27.0399L130.368 26.2929L128.369 26.3517L128.391 27.0987L130.39 27.0399ZM130.367 26.2818C130.321 25.129 130.14 24.1188 129.777 23.3014L127.949 24.1137C128.172 24.6146 128.328 25.3476 128.369 26.3628L130.367 26.2818ZM129.78 23.3088C129.587 22.8653 129.313 22.4559 128.922 22.1559C128.517 21.8455 128.044 21.6968 127.544 21.6968V23.6968C127.631 23.6968 127.67 23.7166 127.705 23.7431C127.753 23.7799 127.846 23.8759 127.946 24.1062L129.78 23.3088ZM127.544 21.6968C126.75 21.6968 126.112 22.0907 125.664 22.6948L127.271 23.8853C127.41 23.6984 127.49 23.6968 127.544 23.6968V21.6968ZM125.664 22.6948C125.225 23.2877 124.975 24.1349 124.821 25.0864L126.796 25.4048C126.935 24.5399 127.125 24.0834 127.271 23.8853L125.664 22.6948ZM124.819 25.1019C124.677 26.0782 124.611 27.3406 124.611 28.8711H126.611C126.611 27.384 126.676 26.2295 126.798 25.3893L124.819 25.1019ZM124.611 28.8711V28.937H126.611V28.8711H124.611ZM124.611 28.937C124.611 30.5245 124.677 31.8232 124.819 32.8138L126.799 32.5309C126.676 31.6758 126.611 30.4843 126.611 28.937H124.611ZM124.821 32.8291C124.974 33.7924 125.223 34.6499 125.664 35.2451L127.271 34.0547C127.126 33.8589 126.936 33.3981 126.796 32.5156L124.821 32.8291ZM125.664 35.2451C126.112 35.8492 126.75 36.2432 127.544 36.2432V34.2432C127.49 34.2432 127.41 34.2416 127.271 34.0547L125.664 35.2451ZM127.544 36.2432C128.04 36.2432 128.515 36.1028 128.924 35.796C129.322 35.4975 129.596 35.0879 129.784 34.6434L127.942 33.8654C127.851 34.0801 127.766 34.1648 127.724 34.196C127.694 34.2187 127.65 34.2432 127.544 34.2432V36.2432ZM129.78 34.6531C130.14 33.8256 130.321 32.8122 130.367 31.6582L128.369 31.5772C128.328 32.5911 128.172 33.3356 127.946 33.8557L129.78 34.6531ZM130.368 31.6471L130.39 30.9L128.391 30.8412L128.369 31.5883L130.368 31.6471ZM129.39 31.8706H136.751V29.8706H129.39V31.8706ZM135.751 30.8412L135.729 31.5883L137.729 31.6471L137.751 30.9L135.751 30.8412ZM135.729 31.6032C135.701 33.5082 135.343 35.1148 134.689 36.451L136.484 37.3313C137.294 35.6791 137.698 33.7702 137.729 31.6322L135.729 31.6032ZM134.69 36.4475C134.043 37.7541 133.109 38.7568 131.875 39.477L132.882 41.2046C134.46 40.2842 135.665 38.9871 136.483 37.3348L134.69 36.4475ZM131.877 39.4754C130.671 40.1735 129.155 40.5493 127.281 40.5493V42.5493C129.42 42.5493 131.302 42.1194 132.879 41.2062L131.877 39.4754ZM144.681 40.187L144.152 41.0355L144.158 41.0392L144.681 40.187ZM141.276 36.0122L140.352 36.3948L140.355 36.4035L141.276 36.0122ZM141.276 21.9277L140.356 21.5338L140.354 21.54L141.276 21.9277ZM155.074 17.8188L154.518 18.6496L154.524 18.6535L155.074 17.8188ZM158.326 21.9717L157.4 22.3495L157.404 22.3584L158.326 21.9717ZM159.469 30.9365V31.9365H160.469V30.9365H159.469ZM144.11 30.9365H143.11V31.9365H144.11V30.9365ZM144.11 26.2344V25.2344H143.11V26.2344H144.11ZM155.712 26.2344L156.465 26.8918L157.911 25.2344H155.712V26.2344ZM151.954 30.541H150.954V33.2083L152.708 31.1984L151.954 30.541ZM148.241 24.2788L149.217 24.4957L149.218 24.4912L148.241 24.2788ZM148.966 35.1333L148.228 35.8076L148.235 35.8161L148.243 35.8245L148.966 35.1333ZM151.097 35.353L151.683 36.1637L151.691 36.1581L151.097 35.353ZM151.735 34.4961L150.819 34.0934L150.812 34.1089L150.806 34.1247L151.735 34.4961ZM152.086 33.1997L151.102 33.0208L151.099 33.0375L151.097 33.0542L152.086 33.1997ZM152.13 32.958V31.958H151.296L151.146 32.7791L152.13 32.958ZM159.315 32.958L160.31 33.0575L160.42 31.958H159.315V32.958ZM159.271 33.3975L158.276 33.298L158.275 33.3083L158.274 33.3188L159.271 33.3975ZM158.502 36.5396L159.418 36.9418L159.42 36.9368L158.502 36.5396ZM153.91 40.9121L154.266 41.8464L154.273 41.8439L153.91 40.9121ZM150.021 40.5493C148.088 40.5493 146.498 40.1287 145.205 39.3348L144.158 41.0392C145.824 42.0617 147.793 42.5493 150.021 42.5493V40.5493ZM145.211 39.3385C143.932 38.5409 142.92 37.3234 142.196 35.6209L140.355 36.4035C141.213 38.4217 142.472 39.9874 144.152 41.0355L145.211 39.3385ZM142.2 35.6296C141.489 33.9146 141.111 31.6898 141.111 28.915H139.111C139.111 31.8532 139.509 34.3598 140.352 36.3948L142.2 35.6296ZM141.111 28.915V28.8931H139.111V28.915H141.111ZM141.111 28.8931C141.111 26.1792 141.489 24 142.197 22.3155L140.354 21.54C139.51 23.5469 139.111 26.0113 139.111 28.8931H141.111ZM142.195 22.3217C142.919 20.6317 143.925 19.4192 145.192 18.621L144.126 16.9288C142.464 17.9763 141.214 19.5324 140.356 21.5338L142.195 22.3217ZM145.192 18.621C146.47 17.816 148.035 17.3906 149.933 17.3906V15.3906C147.729 15.3906 145.778 15.8881 144.126 16.9288L145.192 18.621ZM149.933 17.3906C151.777 17.3906 153.288 17.8258 154.518 18.6496L155.631 16.9881C154.019 15.9076 152.103 15.3906 149.933 15.3906V17.3906ZM154.524 18.6535C155.75 19.4629 156.717 20.674 157.4 22.3494L159.252 21.5939C158.442 19.6072 157.24 18.0498 155.625 16.9842L154.524 18.6535ZM157.404 22.3584C158.1 24.0179 158.469 26.1114 158.469 28.6733H160.469C160.469 25.9325 160.076 23.5583 159.249 21.585L157.404 22.3584ZM158.469 28.6733V30.9365H160.469V28.6733H158.469ZM159.469 29.9365H144.11V31.9365H159.469V29.9365ZM145.11 30.9365V26.2344H143.11V30.9365H145.11ZM144.11 27.2344H155.712V25.2344H144.11V27.2344ZM154.958 25.577L151.201 29.8836L152.708 31.1984L156.465 26.8918L154.958 25.577ZM152.954 30.541V26.7617H150.954V30.541H152.954ZM152.954 26.7617C152.954 25.7102 152.879 24.7961 152.711 24.0399L150.758 24.4738C150.883 25.036 150.954 25.7917 150.954 26.7617H152.954ZM152.711 24.0399C152.545 23.2946 152.274 22.6173 151.83 22.1065L150.321 23.4189C150.463 23.5819 150.631 23.9007 150.758 24.4738L152.711 24.0399ZM151.83 22.1065C151.358 21.5639 150.729 21.2573 149.999 21.2573V23.2573C150.118 23.2573 150.207 23.2877 150.321 23.4189L151.83 22.1065ZM149.999 21.2573C149.265 21.2573 148.625 21.5552 148.145 22.1065L149.655 23.4189C149.761 23.2964 149.854 23.2573 149.999 23.2573V21.2573ZM148.145 22.1065C147.698 22.6211 147.428 23.3098 147.264 24.0664L149.218 24.4912C149.347 23.9002 149.516 23.5781 149.655 23.4189L148.145 22.1065ZM147.265 24.0619C147.097 24.8172 147.021 25.7236 147.021 26.7617H149.021C149.021 25.8076 149.092 25.0588 149.217 24.4957L147.265 24.0619ZM147.021 26.7617V30.6509H149.021V26.7617H147.021ZM147.021 30.6509C147.021 31.8731 147.103 32.9127 147.286 33.7442L149.24 33.3144C149.1 32.6811 149.021 31.8017 149.021 30.6509H147.021ZM147.286 33.7442C147.463 34.5495 147.748 35.2828 148.228 35.8076L149.704 34.459C149.568 34.31 149.385 33.9739 149.24 33.3144L147.286 33.7442ZM148.243 35.8245C148.749 36.3527 149.395 36.6387 150.131 36.6387V34.6387C149.958 34.6387 149.828 34.5877 149.689 34.4421L148.243 35.8245ZM150.131 36.6387C150.685 36.6387 151.221 36.4973 151.683 36.1637L150.512 34.5423C150.446 34.5896 150.338 34.6387 150.131 34.6387V36.6387ZM151.691 36.1581C152.139 35.8276 152.457 35.3817 152.663 34.8675L150.806 34.1247C150.719 34.3429 150.612 34.4683 150.504 34.548L151.691 36.1581ZM152.65 34.8988C152.855 34.4326 152.992 33.9102 153.076 33.3452L151.097 33.0542C151.033 33.4853 150.936 33.8271 150.819 34.0934L152.65 34.8988ZM153.07 33.3786L153.114 33.1369L151.146 32.7791L151.102 33.0208L153.07 33.3786ZM152.13 33.958H159.315V31.958H152.13V33.958ZM158.32 32.8585L158.276 33.298L160.266 33.497L160.31 33.0575L158.32 32.8585ZM158.274 33.3188C158.195 34.3271 157.964 35.2664 157.584 36.1423L159.42 36.9368C159.89 35.8498 160.172 34.6944 160.268 33.4762L158.274 33.3188ZM157.587 36.1373C157.213 36.9881 156.691 37.7495 156.015 38.4252L157.429 39.8394C158.277 38.9917 158.942 38.0246 159.418 36.9418L157.587 36.1373ZM156.015 38.4252C155.379 39.0611 154.564 39.5838 153.547 39.9803L154.273 41.8439C155.511 41.3615 156.571 40.6977 157.429 39.8394L156.015 38.4252ZM153.553 39.9778C152.578 40.3501 151.407 40.5493 150.021 40.5493V42.5493C151.594 42.5493 153.015 42.3237 154.266 41.8464L153.553 39.9778Z" fill="url(#paint1_radial_415_5506)" mask="url(#path-1-outside-1_415_5506)"/>
</g>
<defs>
<filter id="filter0_f_415_5506" x="0.450195" y="0.293457" width="168.019" height="50.2559" filterUnits="userSpaceOnUse" color-interpolation-filters="sRGB">
<feFlood flood-opacity="0" result="BackgroundImageFix"/>
<feBlend mode="normal" in="SourceGraphic" in2="BackgroundImageFix" result="shape"/>
<feGaussianBlur stdDeviation="4" result="effect1_foregroundBlur_415_5506"/>
</filter>
<radialGradient id="paint0_radial_415_5506" cx="0" cy="0" r="1" gradientUnits="userSpaceOnUse" gradientTransform="translate(34.3631 25.2319) rotate(-6.75726) scale(137.952 53.1496)">
<stop offset="0.0328283" stop-color="#00B0F5"/>
<stop offset="1" stop-color="#7140CC"/>
</radialGradient>
<radialGradient id="paint1_radial_415_5506" cx="0" cy="0" r="1" gradientUnits="userSpaceOnUse" gradientTransform="translate(38.1364 -2.92508) rotate(17.921) scale(135.394 121.596)">
<stop offset="0.0328283" stop-color="#00B0F5"/>
<stop offset="0.37" stop-color="#7140CC"/>
<stop offset="0.695" stop-color="#FF00A2"/>
<stop offset="1" stop-color="#E35E3E"/>
</radialGradient>
</defs>
</svg>
