<svg width="177" height="61" viewBox="0 0 177 61" fill="none" xmlns="http://www.w3.org/2000/svg">
<g opacity="0.6" filter="url(#filter0_f_32_12678)">
<mask id="path-1-outside-1_32_12678" maskUnits="userSpaceOnUse" x="8" y="8" width="161" height="45" fill="black">
<rect fill="white" x="8" y="8" width="161" height="45"/>
<path d="M9.4502 44V12.2935H20.085L24.1719 31.6074H24.3257L28.4346 12.2935H39.0474V44H31.8623V24.5322H27.9731L34.1255 13.1504L27.3359 44H21.1836L14.3721 13.1504L20.5244 24.5322H16.6353V44H9.4502ZM46.8898 51.8223C46.3332 51.8223 45.7839 51.8003 45.2419 51.7563C44.6999 51.7271 44.2385 51.6831 43.8576 51.6245V45.604C44.0334 45.6333 44.2385 45.6553 44.4729 45.6699C44.7072 45.6846 44.9562 45.6919 45.2199 45.6919C46.0402 45.6919 46.6774 45.5747 47.1315 45.3403C47.5856 45.1206 47.9079 44.791 48.0983 44.3516L48.1862 44.1318L42.1877 19.896H50.779L53.6574 43.3188L52.9104 39.3857H53.6794L52.9323 43.3188L55.8327 19.896H64.3581L59.1945 41.9785C58.6672 44.3809 57.8542 46.2998 56.7556 47.7354C55.6716 49.1855 54.302 50.2256 52.6467 50.8555C51.0061 51.5 49.0871 51.8223 46.8898 51.8223ZM87.6017 44.5054C85.6827 44.4907 84.0055 44.1392 82.5699 43.4507C81.1344 42.7622 79.9405 41.7368 78.9884 40.3745C78.0362 39.0122 77.3185 37.313 76.8351 35.2769C76.3517 33.2407 76.11 30.8604 76.11 28.1357V28.0918C76.11 24.459 76.5348 21.4414 77.3844 19.0391C78.2486 16.6221 79.5304 14.813 81.2296 13.6118C82.9288 12.396 85.0528 11.7881 87.6017 11.7881C90.0333 11.7881 92.0255 12.2715 93.5782 13.2383C95.1456 14.2051 96.3248 15.5088 97.1158 17.1494C97.9215 18.7754 98.4049 20.5845 98.566 22.5767L98.6319 23.5654H90.4801L90.4361 22.6206C90.3043 21.5806 90.0333 20.709 89.6231 20.0059C89.213 19.2881 88.6051 18.9292 87.7994 18.9292C87.1109 18.9292 86.525 19.2222 86.0416 19.8081C85.5729 20.394 85.214 21.3535 84.9649 22.6865C84.7306 24.0195 84.6134 25.814 84.6134 28.0698V28.1138C84.6134 29.7837 84.6793 31.2046 84.8111 32.3765C84.9576 33.5483 85.17 34.5005 85.4483 35.2329C85.7267 35.9653 86.0636 36.5073 86.4591 36.8589C86.8692 37.1958 87.338 37.3643 87.8653 37.3643C88.5099 37.3643 89.0445 37.1445 89.4693 36.7051C89.9088 36.2656 90.2384 35.6797 90.4581 34.9473C90.6778 34.2148 90.795 33.4092 90.8097 32.5303V32.1787H87.8214V26.2681H98.8517V30.5747C98.8517 32.8306 98.6173 34.8301 98.1485 36.5732C97.6944 38.3164 96.9986 39.7812 96.0611 40.9678C95.1236 42.1396 93.9444 43.0259 92.5235 43.6265C91.1173 44.2271 89.4767 44.52 87.6017 44.5054ZM103.025 44V19.896H111.089V44H103.025ZM107.046 18.0063C105.932 18.0063 104.98 17.6108 104.189 16.8198C103.413 16.0142 103.025 15.0547 103.025 13.9414C103.025 12.8428 103.413 11.8906 104.189 11.085C104.98 10.2793 105.932 9.87646 107.046 9.87646C108.174 9.87646 109.126 10.2793 109.902 11.085C110.679 11.8906 111.067 12.8428 111.067 13.9414C111.067 15.0547 110.679 16.0142 109.902 16.8198C109.126 17.6108 108.174 18.0063 107.046 18.0063ZM117.283 44V26.0264H114.581V19.896H117.283V18.8193C117.283 17.3252 117.554 16.0581 118.096 15.0181C118.653 13.978 119.502 13.1943 120.645 12.667C121.802 12.125 123.296 11.854 125.127 11.854C125.948 11.854 126.658 11.8906 127.259 11.9639C127.874 12.0371 128.401 12.125 128.841 12.2275V17.2812C128.68 17.252 128.489 17.23 128.27 17.2153C128.05 17.2007 127.793 17.1934 127.5 17.1934C126.739 17.1934 126.146 17.3618 125.721 17.6987C125.311 18.0356 125.105 18.5483 125.105 19.2368V19.896H128.841V26.0264H125.347V44H117.283ZM142.001 44.4395C139.379 44.4395 137.386 43.8389 136.024 42.6377C134.662 41.4365 133.981 39.459 133.981 36.7051V26.0264H131.52V19.896H133.981V14.4907H142.067V19.896H145.253V26.0264H142.067V35.958C142.067 36.8516 142.242 37.4741 142.594 37.8257C142.946 38.1626 143.553 38.3311 144.418 38.3311C144.593 38.3311 144.747 38.3237 144.879 38.3091C145.026 38.2944 145.165 38.2798 145.297 38.2651V44.022C144.842 44.1392 144.337 44.2344 143.78 44.3076C143.224 44.3955 142.631 44.4395 142.001 44.4395ZM158.061 44.4395C156.039 44.4395 154.296 44.1245 152.831 43.4946C151.381 42.8501 150.261 41.9492 149.47 40.792C148.679 39.6201 148.268 38.2432 148.239 36.6611V36.2437H155.996V36.9248C156.025 37.5986 156.193 38.0894 156.501 38.397C156.823 38.7046 157.277 38.8584 157.863 38.8584C158.2 38.8584 158.493 38.8071 158.742 38.7046C158.991 38.5874 159.182 38.4263 159.313 38.2212C159.445 38.0161 159.511 37.7744 159.511 37.4961V37.4741C159.511 36.9761 159.321 36.5439 158.94 36.1777C158.559 35.8115 157.922 35.4746 157.028 35.167L154.611 34.376C153.278 33.9072 152.172 33.3359 151.293 32.6621C150.414 31.9736 149.763 31.1753 149.338 30.2671C148.913 29.3589 148.701 28.3115 148.701 27.125V27.0811C148.701 25.5723 149.089 24.2466 149.865 23.104C150.656 21.9614 151.747 21.0679 153.139 20.4233C154.545 19.7788 156.179 19.4565 158.039 19.4565C159.87 19.4565 161.452 19.7861 162.785 20.4453C164.133 21.0898 165.173 21.9907 165.905 23.1479C166.652 24.2905 167.026 25.6162 167.026 27.125V27.6523H159.797V27.125C159.782 26.4658 159.621 25.9531 159.313 25.5869C159.02 25.2207 158.603 25.0376 158.061 25.0376C157.724 25.0376 157.431 25.0962 157.182 25.2134C156.948 25.3306 156.765 25.499 156.633 25.7188C156.516 25.9238 156.457 26.1655 156.457 26.4438V26.4878C156.457 26.7954 156.53 27.0737 156.677 27.3228C156.838 27.5571 157.087 27.7769 157.424 27.9819C157.775 28.1724 158.244 28.3701 158.83 28.5752L161.225 29.3662C163.452 30.1426 165.056 31.1094 166.037 32.2666C167.018 33.4238 167.509 34.9033 167.509 36.7051V36.7271C167.509 38.2798 167.121 39.6348 166.345 40.792C165.568 41.9492 164.47 42.8501 163.049 43.4946C161.628 44.1245 159.965 44.4395 158.061 44.4395Z"/>
</mask>
<path d="M9.4502 44V12.2935H20.085L24.1719 31.6074H24.3257L28.4346 12.2935H39.0474V44H31.8623V24.5322H27.9731L34.1255 13.1504L27.3359 44H21.1836L14.3721 13.1504L20.5244 24.5322H16.6353V44H9.4502ZM46.8898 51.8223C46.3332 51.8223 45.7839 51.8003 45.2419 51.7563C44.6999 51.7271 44.2385 51.6831 43.8576 51.6245V45.604C44.0334 45.6333 44.2385 45.6553 44.4729 45.6699C44.7072 45.6846 44.9562 45.6919 45.2199 45.6919C46.0402 45.6919 46.6774 45.5747 47.1315 45.3403C47.5856 45.1206 47.9079 44.791 48.0983 44.3516L48.1862 44.1318L42.1877 19.896H50.779L53.6574 43.3188L52.9104 39.3857H53.6794L52.9323 43.3188L55.8327 19.896H64.3581L59.1945 41.9785C58.6672 44.3809 57.8542 46.2998 56.7556 47.7354C55.6716 49.1855 54.302 50.2256 52.6467 50.8555C51.0061 51.5 49.0871 51.8223 46.8898 51.8223ZM87.6017 44.5054C85.6827 44.4907 84.0055 44.1392 82.5699 43.4507C81.1344 42.7622 79.9405 41.7368 78.9884 40.3745C78.0362 39.0122 77.3185 37.313 76.8351 35.2769C76.3517 33.2407 76.11 30.8604 76.11 28.1357V28.0918C76.11 24.459 76.5348 21.4414 77.3844 19.0391C78.2486 16.6221 79.5304 14.813 81.2296 13.6118C82.9288 12.396 85.0528 11.7881 87.6017 11.7881C90.0333 11.7881 92.0255 12.2715 93.5782 13.2383C95.1456 14.2051 96.3248 15.5088 97.1158 17.1494C97.9215 18.7754 98.4049 20.5845 98.566 22.5767L98.6319 23.5654H90.4801L90.4361 22.6206C90.3043 21.5806 90.0333 20.709 89.6231 20.0059C89.213 19.2881 88.6051 18.9292 87.7994 18.9292C87.1109 18.9292 86.525 19.2222 86.0416 19.8081C85.5729 20.394 85.214 21.3535 84.9649 22.6865C84.7306 24.0195 84.6134 25.814 84.6134 28.0698V28.1138C84.6134 29.7837 84.6793 31.2046 84.8111 32.3765C84.9576 33.5483 85.17 34.5005 85.4483 35.2329C85.7267 35.9653 86.0636 36.5073 86.4591 36.8589C86.8692 37.1958 87.338 37.3643 87.8653 37.3643C88.5099 37.3643 89.0445 37.1445 89.4693 36.7051C89.9088 36.2656 90.2384 35.6797 90.4581 34.9473C90.6778 34.2148 90.795 33.4092 90.8097 32.5303V32.1787H87.8214V26.2681H98.8517V30.5747C98.8517 32.8306 98.6173 34.8301 98.1485 36.5732C97.6944 38.3164 96.9986 39.7812 96.0611 40.9678C95.1236 42.1396 93.9444 43.0259 92.5235 43.6265C91.1173 44.2271 89.4767 44.52 87.6017 44.5054ZM103.025 44V19.896H111.089V44H103.025ZM107.046 18.0063C105.932 18.0063 104.98 17.6108 104.189 16.8198C103.413 16.0142 103.025 15.0547 103.025 13.9414C103.025 12.8428 103.413 11.8906 104.189 11.085C104.98 10.2793 105.932 9.87646 107.046 9.87646C108.174 9.87646 109.126 10.2793 109.902 11.085C110.679 11.8906 111.067 12.8428 111.067 13.9414C111.067 15.0547 110.679 16.0142 109.902 16.8198C109.126 17.6108 108.174 18.0063 107.046 18.0063ZM117.283 44V26.0264H114.581V19.896H117.283V18.8193C117.283 17.3252 117.554 16.0581 118.096 15.0181C118.653 13.978 119.502 13.1943 120.645 12.667C121.802 12.125 123.296 11.854 125.127 11.854C125.948 11.854 126.658 11.8906 127.259 11.9639C127.874 12.0371 128.401 12.125 128.841 12.2275V17.2812C128.68 17.252 128.489 17.23 128.27 17.2153C128.05 17.2007 127.793 17.1934 127.5 17.1934C126.739 17.1934 126.146 17.3618 125.721 17.6987C125.311 18.0356 125.105 18.5483 125.105 19.2368V19.896H128.841V26.0264H125.347V44H117.283ZM142.001 44.4395C139.379 44.4395 137.386 43.8389 136.024 42.6377C134.662 41.4365 133.981 39.459 133.981 36.7051V26.0264H131.52V19.896H133.981V14.4907H142.067V19.896H145.253V26.0264H142.067V35.958C142.067 36.8516 142.242 37.4741 142.594 37.8257C142.946 38.1626 143.553 38.3311 144.418 38.3311C144.593 38.3311 144.747 38.3237 144.879 38.3091C145.026 38.2944 145.165 38.2798 145.297 38.2651V44.022C144.842 44.1392 144.337 44.2344 143.78 44.3076C143.224 44.3955 142.631 44.4395 142.001 44.4395ZM158.061 44.4395C156.039 44.4395 154.296 44.1245 152.831 43.4946C151.381 42.8501 150.261 41.9492 149.47 40.792C148.679 39.6201 148.268 38.2432 148.239 36.6611V36.2437H155.996V36.9248C156.025 37.5986 156.193 38.0894 156.501 38.397C156.823 38.7046 157.277 38.8584 157.863 38.8584C158.2 38.8584 158.493 38.8071 158.742 38.7046C158.991 38.5874 159.182 38.4263 159.313 38.2212C159.445 38.0161 159.511 37.7744 159.511 37.4961V37.4741C159.511 36.9761 159.321 36.5439 158.94 36.1777C158.559 35.8115 157.922 35.4746 157.028 35.167L154.611 34.376C153.278 33.9072 152.172 33.3359 151.293 32.6621C150.414 31.9736 149.763 31.1753 149.338 30.2671C148.913 29.3589 148.701 28.3115 148.701 27.125V27.0811C148.701 25.5723 149.089 24.2466 149.865 23.104C150.656 21.9614 151.747 21.0679 153.139 20.4233C154.545 19.7788 156.179 19.4565 158.039 19.4565C159.87 19.4565 161.452 19.7861 162.785 20.4453C164.133 21.0898 165.173 21.9907 165.905 23.1479C166.652 24.2905 167.026 25.6162 167.026 27.125V27.6523H159.797V27.125C159.782 26.4658 159.621 25.9531 159.313 25.5869C159.02 25.2207 158.603 25.0376 158.061 25.0376C157.724 25.0376 157.431 25.0962 157.182 25.2134C156.948 25.3306 156.765 25.499 156.633 25.7188C156.516 25.9238 156.457 26.1655 156.457 26.4438V26.4878C156.457 26.7954 156.53 27.0737 156.677 27.3228C156.838 27.5571 157.087 27.7769 157.424 27.9819C157.775 28.1724 158.244 28.3701 158.83 28.5752L161.225 29.3662C163.452 30.1426 165.056 31.1094 166.037 32.2666C167.018 33.4238 167.509 34.9033 167.509 36.7051V36.7271C167.509 38.2798 167.121 39.6348 166.345 40.792C165.568 41.9492 164.47 42.8501 163.049 43.4946C161.628 44.1245 159.965 44.4395 158.061 44.4395Z" fill="url(#paint0_radial_32_12678)"/>
<path d="M9.4502 44H8.4502V45H9.4502V44ZM9.4502 12.2935V11.2935H8.4502V12.2935H9.4502ZM20.085 12.2935L21.0633 12.0864L20.8955 11.2935H20.085V12.2935ZM24.1719 31.6074L23.1935 31.8144L23.3613 32.6074H24.1719V31.6074ZM24.3257 31.6074V32.6074H25.1353L25.3038 31.8155L24.3257 31.6074ZM28.4346 12.2935V11.2935H27.6249L27.4565 12.0854L28.4346 12.2935ZM39.0474 12.2935H40.0474V11.2935H39.0474V12.2935ZM39.0474 44V45H40.0474V44H39.0474ZM31.8623 44H30.8623V45H31.8623V44ZM31.8623 24.5322H32.8623V23.5322H31.8623V24.5322ZM27.9731 24.5322L27.0934 24.0567L26.2959 25.5322H27.9731V24.5322ZM34.1255 13.1504L35.1021 13.3653L33.2458 12.6749L34.1255 13.1504ZM27.3359 44V45H28.1398L28.3126 44.2149L27.3359 44ZM21.1836 44L20.2071 44.2156L20.3803 45H21.1836V44ZM14.3721 13.1504L15.2518 12.6749L13.3956 13.366L14.3721 13.1504ZM20.5244 24.5322V25.5322H22.2017L21.4041 24.0567L20.5244 24.5322ZM16.6353 24.5322V23.5322H15.6353V24.5322H16.6353ZM16.6353 44V45H17.6353V44H16.6353ZM10.4502 44V12.2935H8.4502V44H10.4502ZM9.4502 13.2935H20.085V11.2935H9.4502V13.2935ZM19.1066 12.5005L23.1935 31.8144L25.1502 31.4004L21.0633 12.0864L19.1066 12.5005ZM24.1719 32.6074H24.3257V30.6074H24.1719V32.6074ZM25.3038 31.8155L29.4127 12.5015L27.4565 12.0854L23.3476 31.3993L25.3038 31.8155ZM28.4346 13.2935H39.0474V11.2935H28.4346V13.2935ZM38.0474 12.2935V44H40.0474V12.2935H38.0474ZM39.0474 43H31.8623V45H39.0474V43ZM32.8623 44V24.5322H30.8623V44H32.8623ZM31.8623 23.5322H27.9731V25.5322H31.8623V23.5322ZM28.8529 25.0077L35.0052 13.6259L33.2458 12.6749L27.0934 24.0567L28.8529 25.0077ZM33.1489 12.9354L26.3593 43.7851L28.3126 44.2149L35.1021 13.3653L33.1489 12.9354ZM27.3359 43H21.1836V45H27.3359V43ZM22.1601 43.7844L15.3486 12.9348L13.3956 13.366L20.2071 44.2156L22.1601 43.7844ZM13.4924 13.6259L19.6447 25.0077L21.4041 24.0567L15.2518 12.6749L13.4924 13.6259ZM20.5244 23.5322H16.6353V25.5322H20.5244V23.5322ZM15.6353 24.5322V44H17.6353V24.5322H15.6353ZM16.6353 43H9.4502V45H16.6353V43ZM45.2419 51.7563L45.3227 50.7596L45.3093 50.7585L45.2959 50.7578L45.2419 51.7563ZM43.8576 51.6245H42.8576V52.4824L43.7056 52.6129L43.8576 51.6245ZM43.8576 45.604L44.022 44.6176L42.8576 44.4235V45.604H43.8576ZM47.1315 45.3403L46.696 44.4402L46.6844 44.4458L46.6729 44.4517L47.1315 45.3403ZM48.0983 44.3516L49.0159 44.7492L49.0215 44.7361L49.0268 44.723L48.0983 44.3516ZM48.1862 44.1318L49.1147 44.5032L49.2343 44.2042L49.1569 43.8916L48.1862 44.1318ZM42.1877 19.896V18.896H40.91L41.217 20.1363L42.1877 19.896ZM50.779 19.896L51.7715 19.774L51.6636 18.896H50.779V19.896ZM53.6574 43.3188L52.675 43.5055L54.65 43.1969L53.6574 43.3188ZM52.9104 39.3857V38.3857H51.7025L51.9279 39.5723L52.9104 39.3857ZM53.6794 39.3857L54.6618 39.5723L54.8872 38.3857H53.6794V39.3857ZM52.9323 43.3188L51.9399 43.196L53.9148 43.5055L52.9323 43.3188ZM55.8327 19.896V18.896H54.9489L54.8403 19.7731L55.8327 19.896ZM64.3581 19.896L65.3318 20.1237L65.6189 18.896H64.3581V19.896ZM59.1945 41.9785L58.2207 41.7508L58.2178 41.7641L59.1945 41.9785ZM56.7556 47.7354L55.9614 47.1276L55.9546 47.1366L56.7556 47.7354ZM52.6467 50.8555L52.291 49.9208L52.281 49.9247L52.6467 50.8555ZM46.8898 50.8223C46.3595 50.8223 45.8372 50.8013 45.3227 50.7596L45.1611 52.7531C45.7306 52.7993 46.3069 52.8223 46.8898 52.8223V50.8223ZM45.2959 50.7578C44.7746 50.7296 44.3479 50.6882 44.0097 50.6361L43.7056 52.6129C44.129 52.678 44.6252 52.7245 45.1879 52.7549L45.2959 50.7578ZM44.8576 51.6245V45.604H42.8576V51.6245H44.8576ZM43.6932 46.5904C43.9114 46.6268 44.1519 46.6518 44.4105 46.668L44.5352 44.6719C44.325 44.6587 44.1554 44.6398 44.022 44.6176L43.6932 46.5904ZM44.4105 46.668C44.6679 46.6841 44.9379 46.6919 45.2199 46.6919V44.6919C44.9746 44.6919 44.7465 44.6851 44.5352 44.6719L44.4105 46.668ZM45.2199 46.6919C46.1136 46.6919 46.9336 46.5678 47.5902 46.229L46.6729 44.4517C46.4213 44.5816 45.9669 44.6919 45.2199 44.6919V46.6919ZM47.5671 46.2405C48.2244 45.9225 48.7248 45.4209 49.0159 44.7492L47.1808 43.954C47.091 44.1611 46.9469 44.3188 46.696 44.4402L47.5671 46.2405ZM49.0268 44.723L49.1147 44.5032L47.2578 43.7604L47.1699 43.9802L49.0268 44.723ZM49.1569 43.8916L43.1584 19.6557L41.217 20.1363L47.2155 44.3721L49.1569 43.8916ZM42.1877 20.896H50.779V18.896H42.1877V20.896ZM49.7865 20.018L52.6649 43.4408L54.65 43.1969L51.7715 19.774L49.7865 20.018ZM54.6399 43.1322L53.8928 39.1991L51.9279 39.5723L52.675 43.5055L54.6399 43.1322ZM52.9104 40.3857H53.6794V38.3857H52.9104V40.3857ZM52.697 39.1991L51.9499 43.1322L53.9148 43.5055L54.6618 39.5723L52.697 39.1991ZM53.9247 43.4417L56.8251 20.0189L54.8403 19.7731L51.9399 43.196L53.9247 43.4417ZM55.8327 20.896H64.3581V18.896H55.8327V20.896ZM63.3844 19.6683L58.2208 41.7508L60.1683 42.2062L65.3318 20.1237L63.3844 19.6683ZM58.2178 41.7641C57.7111 44.0723 56.9452 45.8422 55.9614 47.1276L57.5497 48.3431C58.7632 46.7574 59.6233 44.6895 60.1713 42.1929L58.2178 41.7641ZM55.9546 47.1366C54.9815 48.4385 53.7649 49.36 52.291 49.9208L53.0023 51.7901C54.839 51.0912 56.3617 49.9326 57.5565 48.3341L55.9546 47.1366ZM52.281 49.9247C50.7817 50.5137 48.9917 50.8223 46.8898 50.8223V52.8223C49.1825 52.8223 51.2304 52.4863 53.0123 51.7862L52.281 49.9247ZM87.6017 44.5054L87.6095 43.5054L87.6093 43.5054L87.6017 44.5054ZM77.3844 19.0391L76.4428 18.7024L76.4416 18.7056L77.3844 19.0391ZM81.2296 13.6118L81.8068 14.4284L81.8115 14.4251L81.2296 13.6118ZM93.5782 13.2383L93.0497 14.0872L93.0532 14.0894L93.5782 13.2383ZM97.1158 17.1494L96.215 17.5837L96.2198 17.5934L97.1158 17.1494ZM98.566 22.5767L99.5639 22.5101L99.5628 22.496L98.566 22.5767ZM98.6319 23.5654V24.5654H99.7008L99.6297 23.4989L98.6319 23.5654ZM90.4801 23.5654L89.4812 23.6119L89.5255 24.5654H90.4801V23.5654ZM90.4361 22.6206L91.4351 22.5741L91.4332 22.5344L91.4282 22.4949L90.4361 22.6206ZM89.6231 20.0059L88.7549 20.502L88.7594 20.5097L89.6231 20.0059ZM86.0416 19.8081L85.2702 19.1717L85.2654 19.1775L85.2607 19.1834L86.0416 19.8081ZM84.9649 22.6865L83.9819 22.5029L83.98 22.5134L84.9649 22.6865ZM84.8111 32.3765L83.8173 32.4883L83.8189 32.5005L84.8111 32.3765ZM86.4591 36.8589L85.7947 37.6063L85.8093 37.6192L85.8243 37.6316L86.4591 36.8589ZM89.4693 36.7051L88.7622 35.998L88.7562 36.004L88.7504 36.0101L89.4693 36.7051ZM90.8097 32.5303L91.8095 32.5469L91.8097 32.5386V32.5303H90.8097ZM90.8097 32.1787H91.8097V31.1787H90.8097V32.1787ZM87.8214 32.1787H86.8214V33.1787H87.8214V32.1787ZM87.8214 26.2681V25.2681H86.8214V26.2681H87.8214ZM98.8517 26.2681H99.8517V25.2681H98.8517V26.2681ZM98.1485 36.5732L97.1828 36.3136L97.1808 36.3212L98.1485 36.5732ZM96.0611 40.9678L96.842 41.5925L96.8458 41.5877L96.0611 40.9678ZM92.5235 43.6265L92.1342 42.7054L92.1308 42.7068L92.5235 43.6265ZM87.6093 43.5054C85.8077 43.4916 84.2808 43.1622 83.0024 42.549L82.1375 44.3523C83.7301 45.1162 85.5577 45.4898 87.594 45.5053L87.6093 43.5054ZM83.0024 42.549C81.729 41.9383 80.6661 41.0293 79.808 39.8016L78.1687 40.9474C79.215 42.4443 80.5398 43.5861 82.1375 44.3523L83.0024 42.549ZM79.808 39.8016C78.9441 38.5656 78.2696 36.9899 77.808 35.0459L75.8621 35.5078C76.3674 37.636 77.1284 39.4589 78.1687 40.9474L79.808 39.8016ZM77.808 35.0459C77.347 33.1042 77.11 30.8045 77.11 28.1357H75.11C75.11 30.9162 75.3563 33.3773 75.8621 35.5078L77.808 35.0459ZM77.11 28.1357V28.0918H75.11V28.1357H77.11ZM77.11 28.0918C77.11 24.5283 77.5278 21.6327 78.3272 19.3725L76.4416 18.7056C75.5417 21.2501 75.11 24.3897 75.11 28.0918H77.11ZM78.326 19.3758C79.1374 17.1066 80.3112 15.4856 81.8068 14.4284L80.6524 12.7952C78.7495 14.1404 77.3599 16.1375 76.4428 18.7024L78.326 19.3758ZM81.8115 14.4251C83.3066 13.3553 85.2148 12.7881 87.6017 12.7881V10.7881C84.8908 10.7881 82.551 11.4367 80.6477 12.7986L81.8115 14.4251ZM87.6017 12.7881C89.9064 12.7881 91.6997 13.2467 93.0497 14.0872L94.1068 12.3894C92.3512 11.2963 90.1602 10.7881 87.6017 10.7881V12.7881ZM93.0532 14.0894C94.4601 14.9571 95.5079 16.1171 96.215 17.5837L98.0166 16.7151C97.1417 14.9005 95.8312 13.453 94.1032 12.3872L93.0532 14.0894ZM96.2198 17.5934C96.9637 19.0947 97.4173 20.7787 97.5693 22.6573L99.5628 22.496C99.3924 20.3903 98.8793 18.456 98.0119 16.7054L96.2198 17.5934ZM97.5682 22.6432L97.6341 23.6319L99.6297 23.4989L99.5638 22.5101L97.5682 22.6432ZM98.6319 22.5654H90.4801V24.5654H98.6319V22.5654ZM91.479 23.519L91.4351 22.5741L89.4372 22.6671L89.4812 23.6119L91.479 23.519ZM91.4282 22.4949C91.2841 21.3582 90.9813 20.3495 90.4869 19.502L88.7594 20.5097C89.0853 21.0685 89.3245 21.8029 89.4441 22.7464L91.4282 22.4949ZM90.4914 19.5097C89.9089 18.4904 88.9754 17.9292 87.7994 17.9292V19.9292C88.2348 19.9292 88.517 20.0857 88.7549 20.502L90.4914 19.5097ZM87.7994 17.9292C86.7792 17.9292 85.9213 18.3825 85.2702 19.1717L86.813 20.4445C87.1287 20.0618 87.4427 19.9292 87.7994 19.9292V17.9292ZM85.2607 19.1834C84.6367 19.9635 84.2404 21.1193 83.9819 22.5029L85.9479 22.8702C86.1875 21.5877 86.509 20.8246 86.8225 20.4328L85.2607 19.1834ZM83.98 22.5134C83.7312 23.9287 83.6134 25.7887 83.6134 28.0698H85.6134C85.6134 25.8392 85.7299 24.1104 85.9498 22.8597L83.98 22.5134ZM83.6134 28.0698V28.1138H85.6134V28.0698H83.6134ZM83.6134 28.1138C83.6134 29.807 83.6801 31.2676 83.8174 32.4883L85.8049 32.2647C85.6785 31.1416 85.6134 29.7603 85.6134 28.1138H83.6134ZM83.8189 32.5005C83.9708 33.7158 84.1965 34.7538 84.5136 35.5881L86.3831 34.8777C86.1435 34.2471 85.9445 33.3808 85.8034 32.2524L83.8189 32.5005ZM84.5136 35.5881C84.8237 36.4043 85.2348 37.1086 85.7947 37.6063L87.1234 36.1115C86.8923 35.9061 86.6296 35.5263 86.3831 34.8777L84.5136 35.5881ZM85.8243 37.6316C86.4121 38.1144 87.1048 38.3643 87.8653 38.3643V36.3643C87.5712 36.3643 87.3264 36.2772 87.0938 36.0862L85.8243 37.6316ZM87.8653 38.3643C88.7644 38.3643 89.5639 38.046 90.1883 37.4001L88.7504 36.0101C88.5251 36.243 88.2553 36.3643 87.8653 36.3643V38.3643ZM90.1764 37.4122C90.7569 36.8317 91.1595 36.0895 91.4159 35.2346L89.5003 34.6599C89.3173 35.2699 89.0607 35.6995 88.7622 35.998L90.1764 37.4122ZM91.4159 35.2346C91.6656 34.4023 91.7936 33.5042 91.8095 32.5469L89.8098 32.5136C89.7965 33.3142 89.6901 34.0273 89.5003 34.6599L91.4159 35.2346ZM91.8097 32.5303V32.1787H89.8097V32.5303H91.8097ZM90.8097 31.1787H87.8214V33.1787H90.8097V31.1787ZM88.8214 32.1787V26.2681H86.8214V32.1787H88.8214ZM87.8214 27.2681H98.8517V25.2681H87.8214V27.2681ZM97.8517 26.2681V30.5747H99.8517V26.2681H97.8517ZM97.8517 30.5747C97.8517 32.7637 97.624 34.6731 97.1828 36.3136L99.1142 36.8329C99.6106 34.9871 99.8517 32.8974 99.8517 30.5747H97.8517ZM97.1808 36.3212C96.7551 37.9555 96.1134 39.2886 95.2765 40.3478L96.8458 41.5877C97.8839 40.2739 98.6338 38.6773 99.1162 36.8253L97.1808 36.3212ZM95.2803 40.3431C94.4496 41.3814 93.4064 42.1676 92.1342 42.7054L92.9129 44.5476C94.4824 43.8841 95.7977 42.8979 96.842 41.5925L95.2803 40.3431ZM92.1308 42.7068C90.8763 43.2426 89.3772 43.5192 87.6095 43.5054L87.5938 45.5053C89.5761 45.5208 91.3583 45.2115 92.9163 44.5461L92.1308 42.7068ZM103.025 44H102.025V45H103.025V44ZM103.025 19.896V18.896H102.025V19.896H103.025ZM111.089 19.896H112.089V18.896H111.089V19.896ZM111.089 44V45H112.089V44H111.089ZM104.189 16.8198L103.469 17.5137L103.476 17.5204L103.482 17.5269L104.189 16.8198ZM104.189 11.085L103.476 10.3843L103.469 10.3911L104.189 11.085ZM109.902 16.8198L110.616 17.5203L110.622 17.5137L109.902 16.8198ZM104.025 44V19.896H102.025V44H104.025ZM103.025 20.896H111.089V18.896H103.025V20.896ZM110.089 19.896V44H112.089V19.896H110.089ZM111.089 43H103.025V45H111.089V43ZM107.046 17.0063C106.199 17.0063 105.501 16.7172 104.896 16.1127L103.482 17.5269C104.46 18.5045 105.666 19.0063 107.046 19.0063V17.0063ZM104.909 16.1259C104.312 15.5056 104.025 14.7944 104.025 13.9414H102.025C102.025 15.3149 102.514 16.5227 103.469 17.5137L104.909 16.1259ZM104.025 13.9414C104.025 13.1068 104.309 12.402 104.909 11.7789L103.469 10.3911C102.517 11.3793 102.025 12.5787 102.025 13.9414H104.025ZM104.903 11.7856C105.509 11.1683 106.205 10.8765 107.046 10.8765V8.87646C105.66 8.87646 104.452 9.39025 103.476 10.3844L104.903 11.7856ZM107.046 10.8765C107.904 10.8765 108.596 11.1706 109.182 11.7789L110.622 10.3911C109.656 9.38802 108.443 8.87646 107.046 8.87646V10.8765ZM109.182 11.7789C109.783 12.402 110.067 13.1068 110.067 13.9414H112.067C112.067 12.5787 111.574 11.3793 110.622 10.3911L109.182 11.7789ZM110.067 13.9414C110.067 14.7944 109.78 15.5056 109.182 16.1259L110.622 17.5137C111.577 16.5227 112.067 15.3149 112.067 13.9414H110.067ZM109.188 16.1194C108.604 16.715 107.911 17.0063 107.046 17.0063V19.0063C108.437 19.0063 109.648 18.5067 110.616 17.5203L109.188 16.1194ZM117.283 44H116.283V45H117.283V44ZM117.283 26.0264H118.283V25.0264H117.283V26.0264ZM114.581 26.0264H113.581V27.0264H114.581V26.0264ZM114.581 19.896V18.896H113.581V19.896H114.581ZM117.283 19.896V20.896H118.283V19.896H117.283ZM118.096 15.0181L117.214 14.5462L117.209 14.5559L118.096 15.0181ZM120.645 12.667L121.064 13.575L121.069 13.5726L120.645 12.667ZM127.259 11.9639L127.138 12.9565L127.141 12.9569L127.259 11.9639ZM128.841 12.2275H129.841V11.434L129.068 11.2537L128.841 12.2275ZM128.841 17.2812L128.662 18.2651L129.841 18.4795V17.2812H128.841ZM125.721 17.6987L125.099 16.9152L125.093 16.9206L125.086 16.926L125.721 17.6987ZM125.105 19.896H124.105V20.896H125.105V19.896ZM128.841 19.896H129.841V18.896H128.841V19.896ZM128.841 26.0264V27.0264H129.841V26.0264H128.841ZM125.347 26.0264V25.0264H124.347V26.0264H125.347ZM125.347 44V45H126.347V44H125.347ZM118.283 44V26.0264H116.283V44H118.283ZM117.283 25.0264H114.581V27.0264H117.283V25.0264ZM115.581 26.0264V19.896H113.581V26.0264H115.581ZM114.581 20.896H117.283V18.896H114.581V20.896ZM118.283 19.896V18.8193H116.283V19.896H118.283ZM118.283 18.8193C118.283 17.4432 118.533 16.3438 118.983 15.4802L117.209 14.5559C116.575 15.7724 116.283 17.2072 116.283 18.8193H118.283ZM118.978 15.4899C119.425 14.6549 120.105 14.0176 121.064 13.575L120.226 11.759C118.9 12.3711 117.881 13.3011 117.215 14.5462L118.978 15.4899ZM121.069 13.5726C122.049 13.1137 123.384 12.854 125.127 12.854V10.854C123.209 10.854 121.555 11.1363 120.221 11.7614L121.069 13.5726ZM125.127 12.854C125.92 12.854 126.589 12.8895 127.138 12.9565L127.38 10.9712C126.728 10.8917 125.975 10.854 125.127 10.854V12.854ZM127.141 12.9569C127.732 13.0272 128.221 13.1097 128.614 13.2014L129.068 11.2537C128.582 11.1403 128.016 11.047 127.377 10.9709L127.141 12.9569ZM127.841 12.2275V17.2812H129.841V12.2275H127.841ZM129.02 16.2974C128.811 16.2595 128.582 16.2339 128.336 16.2175L128.203 18.2131C128.397 18.226 128.548 18.2444 128.662 18.2651L129.02 16.2974ZM128.336 16.2175C128.088 16.201 127.809 16.1934 127.5 16.1934V18.1934C127.778 18.1934 128.011 18.2003 128.203 18.2131L128.336 16.2175ZM127.5 16.1934C126.603 16.1934 125.76 16.3911 125.099 16.9152L126.342 18.4822C126.531 18.3326 126.875 18.1934 127.5 18.1934V16.1934ZM125.086 16.926C124.38 17.5063 124.105 18.3449 124.105 19.2368H126.105C126.105 18.7518 126.242 18.565 126.355 18.4715L125.086 16.926ZM124.105 19.2368V19.896H126.105V19.2368H124.105ZM125.105 20.896H128.841V18.896H125.105V20.896ZM127.841 19.896V26.0264H129.841V19.896H127.841ZM128.841 25.0264H125.347V27.0264H128.841V25.0264ZM124.347 26.0264V44H126.347V26.0264H124.347ZM125.347 43H117.283V45H125.347V43ZM133.981 26.0264H134.981V25.0264H133.981V26.0264ZM131.52 26.0264H130.52V27.0264H131.52V26.0264ZM131.52 19.896V18.896H130.52V19.896H131.52ZM133.981 19.896V20.896H134.981V19.896H133.981ZM133.981 14.4907V13.4907H132.981V14.4907H133.981ZM142.067 14.4907H143.067V13.4907H142.067V14.4907ZM142.067 19.896H141.067V20.896H142.067V19.896ZM145.253 19.896H146.253V18.896H145.253V19.896ZM145.253 26.0264V27.0264H146.253V26.0264H145.253ZM142.067 26.0264V25.0264H141.067V26.0264H142.067ZM142.594 37.8257L141.887 38.5328L141.894 38.5403L141.902 38.5477L142.594 37.8257ZM144.879 38.3091L144.78 37.314L144.769 37.3152L144.879 38.3091ZM145.297 38.2651H146.297V37.1479L145.186 37.2713L145.297 38.2651ZM145.297 44.022L145.546 44.9902L146.297 44.7967V44.022H145.297ZM143.78 44.3076L143.65 43.3162L143.637 43.3178L143.625 43.3199L143.78 44.3076ZM142.001 43.4395C139.516 43.4395 137.799 42.8691 136.685 41.8876L135.363 43.3878C136.974 44.8087 139.242 45.4395 142.001 45.4395V43.4395ZM136.685 41.8876C135.629 40.9564 134.981 39.3207 134.981 36.7051H132.981C132.981 39.5973 133.694 41.9167 135.363 43.3878L136.685 41.8876ZM134.981 36.7051V26.0264H132.981V36.7051H134.981ZM133.981 25.0264H131.52V27.0264H133.981V25.0264ZM132.52 26.0264V19.896H130.52V26.0264H132.52ZM131.52 20.896H133.981V18.896H131.52V20.896ZM134.981 19.896V14.4907H132.981V19.896H134.981ZM133.981 15.4907H142.067V13.4907H133.981V15.4907ZM141.067 14.4907V19.896H143.067V14.4907H141.067ZM142.067 20.896H145.253V18.896H142.067V20.896ZM144.253 19.896V26.0264H146.253V19.896H144.253ZM145.253 25.0264H142.067V27.0264H145.253V25.0264ZM141.067 26.0264V35.958H143.067V26.0264H141.067ZM141.067 35.958C141.067 36.9236 141.245 37.891 141.887 38.5328L143.301 37.1186C143.24 37.0572 143.067 36.7796 143.067 35.958H141.067ZM141.902 38.5477C142.539 39.1584 143.478 39.3311 144.418 39.3311V37.3311C143.629 37.3311 143.352 37.1668 143.286 37.1037L141.902 38.5477ZM144.418 39.3311C144.619 39.3311 144.811 39.3228 144.99 39.303L144.769 37.3152C144.683 37.3247 144.568 37.3311 144.418 37.3311V39.3311ZM144.979 39.3041C145.128 39.2891 145.271 39.2741 145.407 39.259L145.186 37.2713C145.058 37.2855 144.923 37.2997 144.78 37.314L144.979 39.3041ZM144.297 38.2651V44.022H146.297V38.2651H144.297ZM145.047 43.0537C144.639 43.159 144.174 43.2472 143.65 43.3162L143.911 45.2991C144.5 45.2215 145.046 45.1193 145.546 44.9902L145.047 43.0537ZM143.625 43.3199C143.125 43.3987 142.584 43.4395 142.001 43.4395V45.4395C142.677 45.4395 143.323 45.3923 143.936 45.2954L143.625 43.3199ZM152.831 43.4946L152.425 44.4085L152.436 44.4133L152.831 43.4946ZM149.47 40.792L148.641 41.3515L148.644 41.3563L149.47 40.792ZM148.239 36.6611H147.239V36.6704L147.239 36.6796L148.239 36.6611ZM148.239 36.2437V35.2437H147.239V36.2437H148.239ZM155.996 36.2437H156.996V35.2437H155.996V36.2437ZM155.996 36.9248H154.996V36.9465L154.996 36.9682L155.996 36.9248ZM156.501 38.397L155.794 39.1041L155.802 39.1123L155.81 39.1203L156.501 38.397ZM158.742 38.7046L159.123 39.6293L159.146 39.6199L159.168 39.6094L158.742 38.7046ZM157.028 35.167L157.354 34.2215L157.347 34.219L157.339 34.2166L157.028 35.167ZM154.611 34.376L154.279 35.3193L154.29 35.323L154.3 35.3264L154.611 34.376ZM151.293 32.6621L150.677 33.4494L150.685 33.4557L151.293 32.6621ZM149.865 23.104L149.043 22.5348L149.038 22.542L149.865 23.104ZM153.139 20.4233L152.722 19.5143L152.719 19.5159L153.139 20.4233ZM162.785 20.4453L162.342 21.3418L162.354 21.3474L162.785 20.4453ZM165.905 23.1479L165.06 23.6827L165.064 23.689L165.068 23.6952L165.905 23.1479ZM167.026 27.6523V28.6523H168.026V27.6523H167.026ZM159.797 27.6523H158.797V28.6523H159.797V27.6523ZM159.797 27.125H160.797V27.1139L160.797 27.1028L159.797 27.125ZM159.313 25.5869L158.533 26.2116L158.54 26.2209L158.548 26.2301L159.313 25.5869ZM157.182 25.2134L156.756 24.3086L156.745 24.3136L156.735 24.319L157.182 25.2134ZM156.633 25.7188L155.775 25.2043L155.77 25.2134L155.764 25.2226L156.633 25.7188ZM156.677 27.3228L155.815 27.8298L155.833 27.8602L155.853 27.8893L156.677 27.3228ZM157.424 27.9819L156.904 28.8361L156.925 28.8492L156.947 28.8612L157.424 27.9819ZM158.83 28.5752L158.5 29.5191L158.508 29.522L158.516 29.5247L158.83 28.5752ZM161.225 29.3662L161.554 28.422L161.546 28.4192L161.539 28.4167L161.225 29.3662ZM163.049 43.4946L163.454 44.4089L163.462 44.4053L163.049 43.4946ZM158.061 43.4395C156.14 43.4395 154.538 43.1399 153.226 42.576L152.436 44.4133C154.055 45.1091 155.939 45.4395 158.061 45.4395V43.4395ZM153.238 42.5808C151.934 42.0014 150.968 41.2123 150.295 40.2277L148.644 41.3563C149.553 42.6862 150.829 43.6988 152.425 44.4084L153.238 42.5808ZM150.298 40.2325C149.628 39.2393 149.265 38.0554 149.239 36.6426L147.239 36.6796C147.272 38.431 147.729 40.0009 148.641 41.3515L150.298 40.2325ZM149.239 36.6611V36.2437H147.239V36.6611H149.239ZM148.239 37.2437H155.996V35.2437H148.239V37.2437ZM154.996 36.2437V36.9248H156.996V36.2437H154.996ZM154.996 36.9682C155.031 37.7596 155.234 38.544 155.794 39.1041L157.208 37.6899C157.153 37.6347 157.019 37.4377 156.995 36.8814L154.996 36.9682ZM155.81 39.1203C156.371 39.6559 157.104 39.8584 157.863 39.8584V37.8584C157.451 37.8584 157.275 37.7533 157.191 37.6736L155.81 39.1203ZM157.863 39.8584C158.299 39.8584 158.727 39.7923 159.123 39.6293L158.361 37.7799C158.259 37.8219 158.101 37.8584 157.863 37.8584V39.8584ZM159.168 39.6094C159.564 39.4229 159.909 39.1447 160.155 38.7619L158.472 37.6804C158.455 37.7079 158.418 37.7519 158.316 37.7998L159.168 39.6094ZM160.155 38.7619C160.404 38.3736 160.511 37.9383 160.511 37.4961H158.511C158.511 37.6105 158.486 37.6586 158.472 37.6804L160.155 38.7619ZM160.511 37.4961V37.4741H158.511V37.4961H160.511ZM160.511 37.4741C160.511 36.6861 160.197 35.9988 159.633 35.4569L158.247 36.8986C158.445 37.0891 158.511 37.266 158.511 37.4741H160.511ZM159.633 35.4569C159.095 34.9394 158.293 34.5448 157.354 34.2215L156.703 36.1125C157.551 36.4044 158.023 36.6837 158.247 36.8986L159.633 35.4569ZM157.339 34.2166L154.922 33.4256L154.3 35.3264L156.717 36.1174L157.339 34.2166ZM154.943 33.4326C153.683 32.9897 152.678 32.4632 151.902 31.8685L150.685 33.4557C151.667 34.2087 152.873 34.8248 154.279 35.3193L154.943 33.4326ZM151.91 31.8749C151.14 31.2721 150.595 30.5939 150.244 29.8434L148.432 30.6908C148.931 31.7567 149.688 32.6752 150.677 33.4493L151.91 31.8749ZM150.244 29.8434C149.891 29.09 149.701 28.1917 149.701 27.125H147.701C147.701 28.4314 147.935 29.6278 148.432 30.6908L150.244 29.8434ZM149.701 27.125V27.0811H147.701V27.125H149.701ZM149.701 27.0811C149.701 25.7534 150.039 24.6275 150.692 23.666L149.038 22.542C148.139 23.8656 147.701 25.3912 147.701 27.0811H149.701ZM150.687 23.6732C151.367 22.692 152.312 21.9083 153.559 21.3307L152.719 19.5159C151.183 20.2274 149.946 21.2308 149.043 22.5348L150.687 23.6732ZM153.556 21.3324C154.807 20.7587 156.294 20.4565 158.039 20.4565V18.4565C156.063 18.4565 154.283 18.7989 152.722 19.5143L153.556 21.3324ZM158.039 20.4565C159.751 20.4565 161.175 20.7646 162.342 21.3417L163.228 19.5489C161.729 18.8076 159.989 18.4565 158.039 18.4565V20.4565ZM162.354 21.3474C163.548 21.9185 164.437 22.6987 165.06 23.6827L166.75 22.6132C165.908 21.2827 164.718 20.2612 163.217 19.5432L162.354 21.3474ZM165.068 23.6952C165.698 24.6582 166.026 25.7894 166.026 27.125H168.026C168.026 25.4431 167.607 23.9229 166.742 22.6007L165.068 23.6952ZM166.026 27.125V27.6523H168.026V27.125H166.026ZM167.026 26.6523H159.797V28.6523H167.026V26.6523ZM160.797 27.6523V27.125H158.797V27.6523H160.797ZM160.797 27.1028C160.779 26.3013 160.58 25.5399 160.079 24.9437L158.548 26.2301C158.662 26.3663 158.786 26.6304 158.797 27.1472L160.797 27.1028ZM160.094 24.9622C159.581 24.3202 158.854 24.0376 158.061 24.0376V26.0376C158.352 26.0376 158.46 26.1212 158.533 26.2116L160.094 24.9622ZM158.061 24.0376C157.609 24.0376 157.165 24.1162 156.756 24.3086L157.608 26.1182C157.697 26.0761 157.839 26.0376 158.061 26.0376V24.0376ZM156.735 24.319C156.334 24.5192 156.007 24.8176 155.775 25.2043L157.49 26.2332C157.522 26.1805 157.561 26.142 157.629 26.1078L156.735 24.319ZM155.764 25.2226C155.547 25.6038 155.457 26.0227 155.457 26.4438H157.457C157.457 26.3083 157.484 26.2439 157.501 26.2149L155.764 25.2226ZM155.457 26.4438V26.4878H157.457V26.4438H155.457ZM155.457 26.4878C155.457 26.9617 155.572 27.4171 155.815 27.8298L157.539 26.8157C157.488 26.7304 157.457 26.6291 157.457 26.4878H155.457ZM155.853 27.8893C156.118 28.2757 156.49 28.5843 156.904 28.8361L157.944 27.1277C157.684 26.9695 157.557 26.8385 157.501 26.7562L155.853 27.8893ZM156.947 28.8612C157.364 29.0869 157.888 29.3049 158.5 29.5191L159.16 27.6313C158.6 27.4354 158.187 27.2579 157.9 27.1026L156.947 28.8612ZM158.516 29.5247L160.911 30.3158L161.539 28.4167L159.144 27.6256L158.516 29.5247ZM160.896 30.3105C163.039 31.0578 164.455 31.9476 165.274 32.9134L166.8 31.6198C165.656 30.2711 163.864 29.2273 161.554 28.422L160.896 30.3105ZM165.274 32.9134C166.075 33.8574 166.509 35.0937 166.509 36.7051H168.509C168.509 34.713 167.962 32.9903 166.8 31.6198L165.274 32.9134ZM166.509 36.7051V36.7271H168.509V36.7051H166.509ZM166.509 36.7271C166.509 38.1049 166.168 39.2609 165.514 40.2349L167.175 41.3491C168.074 40.0086 168.509 38.4547 168.509 36.7271H166.509ZM165.514 40.2349C164.853 41.2198 163.908 42.0067 162.636 42.5839L163.462 44.4053C165.031 43.6935 166.283 42.6786 167.175 41.3491L165.514 40.2349ZM162.643 42.5804C161.376 43.1425 159.856 43.4395 158.061 43.4395V45.4395C160.074 45.4395 161.88 45.1065 163.454 44.4088L162.643 42.5804Z" fill="url(#paint1_radial_32_12678)" mask="url(#path-1-outside-1_32_12678)"/>
</g>
<defs>
<filter id="filter0_f_32_12678" x="0.450195" y="0.876465" width="176.059" height="59.9458" filterUnits="userSpaceOnUse" color-interpolation-filters="sRGB">
<feFlood flood-opacity="0" result="BackgroundImageFix"/>
<feBlend mode="normal" in="SourceGraphic" in2="BackgroundImageFix" result="shape"/>
<feGaussianBlur stdDeviation="4" result="effect1_foregroundBlur_32_12678"/>
</filter>
<radialGradient id="paint0_radial_32_12678" cx="0" cy="0" r="1" gradientUnits="userSpaceOnUse" gradientTransform="translate(35.7415 28.2319) rotate(-6.42437) scale(145.068 53.1853)">
<stop offset="0.0328283" stop-color="#00B0F5"/>
<stop offset="0.37" stop-color="#7140CC"/>
<stop offset="0.695" stop-color="#FF00A2"/>
<stop offset="1" stop-color="#E35E3E"/>
</radialGradient>
<radialGradient id="paint1_radial_32_12678" cx="0" cy="0" r="1" gradientUnits="userSpaceOnUse" gradientTransform="translate(39.7121 0.0749203) rotate(17.0836) scale(141.818 122.158)">
<stop offset="0.0328283" stop-color="#00B0F5"/>
<stop offset="0.37" stop-color="#7140CC"/>
<stop offset="0.695" stop-color="#FF00A2"/>
<stop offset="1" stop-color="#E35E3E"/>
</radialGradient>
</defs>
</svg>
