<svg width="249" height="54" viewBox="0 0 249 54" fill="none" xmlns="http://www.w3.org/2000/svg">
<g opacity="0.9" filter="url(#filter0_f_286_30518)">
<mask id="path-1-outside-1_286_30518" maskUnits="userSpaceOnUse" x="8" y="8" width="233" height="38" fill="black">
<rect fill="white" x="8" y="8" width="233" height="38"/>
<path d="M20.6934 44.5054C18.7744 44.4907 17.0972 44.1392 15.6616 43.4507C14.2261 42.7622 13.0322 41.7368 12.0801 40.3745C11.1279 39.0122 10.4102 37.313 9.92676 35.2769C9.44336 33.2407 9.20166 30.8604 9.20166 28.1357V28.0918C9.20166 24.459 9.62646 21.4414 10.4761 19.0391C11.3403 16.6221 12.6221 14.813 14.3213 13.6118C16.0205 12.396 18.1445 11.7881 20.6934 11.7881C23.125 11.7881 25.1172 12.2715 26.6699 13.2383C28.2373 14.2051 29.4165 15.5088 30.2075 17.1494C31.0132 18.7754 31.4966 20.5845 31.6577 22.5767L31.7236 23.5654H23.5718L23.5278 22.6206C23.396 21.5806 23.125 20.709 22.7148 20.0059C22.3047 19.2881 21.6968 18.9292 20.8911 18.9292C20.2026 18.9292 19.6167 19.2222 19.1333 19.8081C18.6646 20.394 18.3057 21.3535 18.0566 22.6865C17.8223 24.0195 17.7051 25.814 17.7051 28.0698V28.1138C17.7051 29.7837 17.771 31.2046 17.9028 32.3765C18.0493 33.5483 18.2617 34.5005 18.54 35.2329C18.8184 35.9653 19.1553 36.5073 19.5508 36.8589C19.9609 37.1958 20.4297 37.3643 20.957 37.3643C21.6016 37.3643 22.1362 37.1445 22.561 36.7051C23.0005 36.2656 23.3301 35.6797 23.5498 34.9473C23.7695 34.2148 23.8867 33.4092 23.9014 32.5303V32.1787H20.9131V26.2681H31.9434V30.5747C31.9434 32.8306 31.709 34.8301 31.2402 36.5732C30.7861 38.3164 30.0903 39.7812 29.1528 40.9678C28.2153 42.1396 27.0361 43.0259 25.6152 43.6265C24.209 44.2271 22.5684 44.52 20.6934 44.5054ZM36.1164 44V19.896H44.1804V44H36.1164ZM40.1374 18.0063C39.0241 18.0063 38.072 17.6108 37.281 16.8198C36.5046 16.0142 36.1164 15.0547 36.1164 13.9414C36.1164 12.8428 36.5046 11.8906 37.281 11.085C38.072 10.2793 39.0241 9.87646 40.1374 9.87646C41.2653 9.87646 42.2175 10.2793 42.9938 11.085C43.7702 11.8906 44.1584 12.8428 44.1584 13.9414C44.1584 15.0547 43.7702 16.0142 42.9938 16.8198C42.2175 17.6108 41.2653 18.0063 40.1374 18.0063ZM50.3749 44V26.0264H47.6723V19.896H50.3749V18.8193C50.3749 17.3252 50.6459 16.0581 51.1879 15.0181C51.7445 13.978 52.5941 13.1943 53.7367 12.667C54.8939 12.125 56.3881 11.854 58.2191 11.854C59.0395 11.854 59.7499 11.8906 60.3505 11.9639C60.9657 12.0371 61.4931 12.125 61.9325 12.2275V17.2812C61.7714 17.252 61.581 17.23 61.3612 17.2153C61.1415 17.2007 60.8852 17.1934 60.5922 17.1934C59.8305 17.1934 59.2372 17.3618 58.8124 17.6987C58.4022 18.0356 58.1972 18.5483 58.1972 19.2368V19.896H61.9325V26.0264H58.4389V44H50.3749ZM75.0924 44.4395C72.4703 44.4395 70.4781 43.8389 69.1158 42.6377C67.7535 41.4365 67.0724 39.459 67.0724 36.7051V26.0264H64.6114V19.896H67.0724V14.4907H75.1583V19.896H78.3443V26.0264H75.1583V35.958C75.1583 36.8516 75.3341 37.4741 75.6856 37.8257C76.0372 38.1626 76.6451 38.3311 77.5094 38.3311C77.6852 38.3311 77.839 38.3237 77.9708 38.3091C78.1173 38.2944 78.2564 38.2798 78.3883 38.2651V44.022C77.9342 44.1392 77.4288 44.2344 76.8722 44.3076C76.3155 44.3955 75.7223 44.4395 75.0924 44.4395ZM91.1526 44.4395C89.1311 44.4395 87.388 44.1245 85.9231 43.4946C84.4729 42.8501 83.3523 41.9492 82.5613 40.792C81.7703 39.6201 81.3602 38.2432 81.3309 36.6611V36.2437H89.0872V36.9248C89.1165 37.5986 89.285 38.0894 89.5926 38.397C89.9148 38.7046 90.3689 38.8584 90.9549 38.8584C91.2918 38.8584 91.5848 38.8071 91.8338 38.7046C92.0828 38.5874 92.2732 38.4263 92.4051 38.2212C92.5369 38.0161 92.6028 37.7744 92.6028 37.4961V37.4741C92.6028 36.9761 92.4124 36.5439 92.0315 36.1777C91.6507 35.8115 91.0135 35.4746 90.1199 35.167L87.7029 34.376C86.3699 33.9072 85.264 33.3359 84.3851 32.6621C83.5061 31.9736 82.8543 31.1753 82.4295 30.2671C82.0047 29.3589 81.7923 28.3115 81.7923 27.125V27.0811C81.7923 25.5723 82.1805 24.2466 82.9568 23.104C83.7478 21.9614 84.8392 21.0679 86.2308 20.4233C87.637 19.7788 89.2703 19.4565 91.1307 19.4565C92.9617 19.4565 94.5437 19.7861 95.8768 20.4453C97.2244 21.0898 98.2645 21.9907 98.9969 23.1479C99.7439 24.2905 100.117 25.6162 100.117 27.125V27.6523H92.8885V27.125C92.8738 26.4658 92.7127 25.9531 92.4051 25.5869C92.1121 25.2207 91.6946 25.0376 91.1526 25.0376C90.8157 25.0376 90.5228 25.0962 90.2737 25.2134C90.0394 25.3306 89.8562 25.499 89.7244 25.7188C89.6072 25.9238 89.5486 26.1655 89.5486 26.4438V26.4878C89.5486 26.7954 89.6219 27.0737 89.7684 27.3228C89.9295 27.5571 90.1785 27.7769 90.5154 27.9819C90.867 28.1724 91.3357 28.3701 91.9217 28.5752L94.3167 29.3662C96.5433 30.1426 98.1473 31.1094 99.1287 32.2666C100.11 33.4238 100.601 34.9033 100.601 36.7051V36.7271C100.601 38.2798 100.213 39.6348 99.4363 40.792C98.66 41.9492 97.5613 42.8501 96.1404 43.4946C94.7195 44.1245 93.0569 44.4395 91.1526 44.4395ZM124.482 44.5054C122.563 44.4907 120.885 44.1392 119.45 43.4507C118.014 42.7622 116.821 41.7368 115.868 40.3745C114.916 39.0122 114.198 37.313 113.715 35.2769C113.232 33.2407 112.99 30.8604 112.99 28.1357V28.0918C112.99 24.459 113.415 21.4414 114.264 19.0391C115.129 16.6221 116.41 14.813 118.11 13.6118C119.809 12.396 121.933 11.7881 124.482 11.7881C126.913 11.7881 128.905 12.2715 130.458 13.2383C132.026 14.2051 133.205 15.5088 133.996 17.1494C134.801 18.7754 135.285 20.5845 135.446 22.5767L135.512 23.5654H127.36L127.316 22.6206C127.184 21.5806 126.913 20.709 126.503 20.0059C126.093 19.2881 125.485 18.9292 124.679 18.9292C123.991 18.9292 123.405 19.2222 122.922 19.8081C122.453 20.394 122.094 21.3535 121.845 22.6865C121.611 24.0195 121.493 25.814 121.493 28.0698V28.1138C121.493 29.7837 121.559 31.2046 121.691 32.3765C121.838 33.5483 122.05 34.5005 122.328 35.2329C122.607 35.9653 122.944 36.5073 123.339 36.8589C123.749 37.1958 124.218 37.3643 124.745 37.3643C125.39 37.3643 125.925 37.1445 126.349 36.7051C126.789 36.2656 127.118 35.6797 127.338 34.9473C127.558 34.2148 127.675 33.4092 127.69 32.5303V32.1787H124.701V26.2681H135.732V30.5747C135.732 32.8306 135.497 34.8301 135.029 36.5732C134.574 38.3164 133.879 39.7812 132.941 40.9678C132.004 42.1396 130.824 43.0259 129.404 43.6265C127.997 44.2271 126.357 44.52 124.482 44.5054ZM145.178 44.4175C143.918 44.4175 142.827 44.1392 141.904 43.5825C140.981 43.0259 140.271 42.2349 139.773 41.2095C139.275 40.1694 139.026 38.9316 139.026 37.4961V37.4521C139.026 36.002 139.319 34.7202 139.905 33.6069C140.505 32.479 141.465 31.5635 142.783 30.8604C144.116 30.1572 145.874 29.7104 148.057 29.52L154.495 28.9927V33.6289L149.177 34.0903C148.43 34.1489 147.866 34.3906 147.485 34.8154C147.104 35.2256 146.914 35.8115 146.914 36.5732V36.5952C146.914 37.3569 147.075 37.8989 147.397 38.2212C147.72 38.5288 148.108 38.6826 148.562 38.6826C148.913 38.6826 149.228 38.6021 149.507 38.4409C149.785 38.2651 150.005 38.0088 150.166 37.6719C150.342 37.3203 150.43 36.8735 150.43 36.3315V27.5864C150.43 26.9126 150.276 26.4072 149.968 26.0703C149.675 25.7188 149.265 25.543 148.738 25.543C148.196 25.543 147.771 25.7041 147.463 26.0264C147.17 26.3486 147.009 26.8394 146.98 27.4985V27.96H139.729V27.3008C139.758 25.8066 140.132 24.4736 140.85 23.3018C141.582 22.1152 142.637 21.1777 144.014 20.4893C145.405 19.8008 147.09 19.4565 149.067 19.4565C151.118 19.4565 152.839 19.7788 154.231 20.4233C155.637 21.0532 156.692 21.9834 157.395 23.2139C158.113 24.4443 158.472 25.9604 158.472 27.7622V44H150.43V41.2754H150.276C150.012 41.9053 149.646 42.4546 149.177 42.9233C148.708 43.3921 148.137 43.7583 147.463 44.022C146.804 44.2856 146.042 44.4175 145.178 44.4175ZM162.798 44V19.896H170.862V23.4775H171.016C171.456 22.2031 172.144 21.2217 173.082 20.5332C174.019 19.8301 175.169 19.4785 176.531 19.4785C177.41 19.4785 178.201 19.6396 178.904 19.9619C179.622 20.2695 180.23 20.731 180.728 21.3462C181.241 21.9468 181.622 22.6792 181.871 23.5435H182.046C182.339 22.6792 182.75 21.9468 183.277 21.3462C183.819 20.7456 184.463 20.2842 185.211 19.9619C185.972 19.6396 186.829 19.4785 187.781 19.4785C189.026 19.4785 190.096 19.7861 190.989 20.4014C191.898 21.0166 192.593 21.8882 193.077 23.0161C193.575 24.144 193.824 25.4771 193.824 27.0151V44H185.76V28.5752C185.76 28.0771 185.694 27.6597 185.562 27.3228C185.445 26.9712 185.262 26.7148 185.013 26.5537C184.778 26.3779 184.471 26.29 184.09 26.29C183.709 26.29 183.387 26.3853 183.123 26.5757C182.859 26.7515 182.662 27.0151 182.53 27.3667C182.398 27.7036 182.332 28.1211 182.332 28.6191V44H174.312V28.5752C174.312 28.0771 174.254 27.6597 174.136 27.3228C174.019 26.9712 173.836 26.7148 173.587 26.5537C173.338 26.3779 173.03 26.29 172.664 26.29C172.283 26.29 171.954 26.3853 171.675 26.5757C171.412 26.7515 171.214 27.0151 171.082 27.3667C170.95 27.7036 170.884 28.1211 170.884 28.6191V44H162.798ZM207.643 44.5493C205.563 44.5493 203.783 44.0952 202.304 43.187C200.824 42.2642 199.689 40.8726 198.898 39.0122C198.121 37.1372 197.733 34.7715 197.733 31.915V31.8931C197.733 29.0952 198.121 26.7734 198.898 24.9277C199.689 23.082 200.817 21.6978 202.282 20.7749C203.746 19.8521 205.504 19.3906 207.555 19.3906C209.562 19.3906 211.276 19.8667 212.697 20.8188C214.117 21.7563 215.201 23.1406 215.949 24.9717C216.71 26.7881 217.091 29.022 217.091 31.6733V33.9365H201.732V29.2344H213.334L209.576 33.541V29.7617C209.576 28.751 209.503 27.916 209.357 27.2568C209.21 26.5977 208.991 26.0996 208.698 25.7627C208.405 25.4258 208.046 25.2573 207.621 25.2573C207.181 25.2573 206.815 25.4258 206.522 25.7627C206.229 26.0996 206.01 26.605 205.863 27.2788C205.717 27.938 205.643 28.7656 205.643 29.7617V33.6509C205.643 34.8374 205.724 35.7969 205.885 36.5293C206.046 37.2617 206.281 37.7964 206.588 38.1333C206.91 38.4702 207.299 38.6387 207.753 38.6387C208.134 38.6387 208.456 38.5435 208.72 38.353C208.998 38.1479 209.21 37.8623 209.357 37.4961C209.518 37.1299 209.635 36.6978 209.708 36.1997L209.752 35.958H216.937L216.893 36.3975C216.805 37.5107 216.549 38.5581 216.124 39.5396C215.7 40.5063 215.106 41.3706 214.345 42.1323C213.597 42.8794 212.66 43.4727 211.532 43.9121C210.419 44.3369 209.122 44.5493 207.643 44.5493ZM229.965 44.4395C227.944 44.4395 226.201 44.1245 224.736 43.4946C223.286 42.8501 222.165 41.9492 221.374 40.792C220.583 39.6201 220.173 38.2432 220.144 36.6611V36.2437H227.9V36.9248C227.929 37.5986 228.098 38.0894 228.405 38.397C228.728 38.7046 229.182 38.8584 229.768 38.8584C230.104 38.8584 230.397 38.8071 230.646 38.7046C230.896 38.5874 231.086 38.4263 231.218 38.2212C231.35 38.0161 231.416 37.7744 231.416 37.4961V37.4741C231.416 36.9761 231.225 36.5439 230.844 36.1777C230.463 35.8115 229.826 35.4746 228.933 35.167L226.516 34.376C225.183 33.9072 224.077 33.3359 223.198 32.6621C222.319 31.9736 221.667 31.1753 221.242 30.2671C220.817 29.3589 220.605 28.3115 220.605 27.125V27.0811C220.605 25.5723 220.993 24.2466 221.77 23.104C222.561 21.9614 223.652 21.0679 225.043 20.4233C226.45 19.7788 228.083 19.4565 229.943 19.4565C231.774 19.4565 233.356 19.7861 234.689 20.4453C236.037 21.0898 237.077 21.9907 237.81 23.1479C238.557 24.2905 238.93 25.6162 238.93 27.125V27.6523H231.701V27.125C231.687 26.4658 231.525 25.9531 231.218 25.5869C230.925 25.2207 230.507 25.0376 229.965 25.0376C229.628 25.0376 229.335 25.0962 229.086 25.2134C228.852 25.3306 228.669 25.499 228.537 25.7188C228.42 25.9238 228.361 26.1655 228.361 26.4438V26.4878C228.361 26.7954 228.435 27.0737 228.581 27.3228C228.742 27.5571 228.991 27.7769 229.328 27.9819C229.68 28.1724 230.148 28.3701 230.734 28.5752L233.129 29.3662C235.356 30.1426 236.96 31.1094 237.941 32.2666C238.923 33.4238 239.414 34.9033 239.414 36.7051V36.7271C239.414 38.2798 239.025 39.6348 238.249 40.792C237.473 41.9492 236.374 42.8501 234.953 43.4946C233.532 44.1245 231.87 44.4395 229.965 44.4395Z"/>
</mask>
<path d="M20.6934 44.5054C18.7744 44.4907 17.0972 44.1392 15.6616 43.4507C14.2261 42.7622 13.0322 41.7368 12.0801 40.3745C11.1279 39.0122 10.4102 37.313 9.92676 35.2769C9.44336 33.2407 9.20166 30.8604 9.20166 28.1357V28.0918C9.20166 24.459 9.62646 21.4414 10.4761 19.0391C11.3403 16.6221 12.6221 14.813 14.3213 13.6118C16.0205 12.396 18.1445 11.7881 20.6934 11.7881C23.125 11.7881 25.1172 12.2715 26.6699 13.2383C28.2373 14.2051 29.4165 15.5088 30.2075 17.1494C31.0132 18.7754 31.4966 20.5845 31.6577 22.5767L31.7236 23.5654H23.5718L23.5278 22.6206C23.396 21.5806 23.125 20.709 22.7148 20.0059C22.3047 19.2881 21.6968 18.9292 20.8911 18.9292C20.2026 18.9292 19.6167 19.2222 19.1333 19.8081C18.6646 20.394 18.3057 21.3535 18.0566 22.6865C17.8223 24.0195 17.7051 25.814 17.7051 28.0698V28.1138C17.7051 29.7837 17.771 31.2046 17.9028 32.3765C18.0493 33.5483 18.2617 34.5005 18.54 35.2329C18.8184 35.9653 19.1553 36.5073 19.5508 36.8589C19.9609 37.1958 20.4297 37.3643 20.957 37.3643C21.6016 37.3643 22.1362 37.1445 22.561 36.7051C23.0005 36.2656 23.3301 35.6797 23.5498 34.9473C23.7695 34.2148 23.8867 33.4092 23.9014 32.5303V32.1787H20.9131V26.2681H31.9434V30.5747C31.9434 32.8306 31.709 34.8301 31.2402 36.5732C30.7861 38.3164 30.0903 39.7812 29.1528 40.9678C28.2153 42.1396 27.0361 43.0259 25.6152 43.6265C24.209 44.2271 22.5684 44.52 20.6934 44.5054ZM36.1164 44V19.896H44.1804V44H36.1164ZM40.1374 18.0063C39.0241 18.0063 38.072 17.6108 37.281 16.8198C36.5046 16.0142 36.1164 15.0547 36.1164 13.9414C36.1164 12.8428 36.5046 11.8906 37.281 11.085C38.072 10.2793 39.0241 9.87646 40.1374 9.87646C41.2653 9.87646 42.2175 10.2793 42.9938 11.085C43.7702 11.8906 44.1584 12.8428 44.1584 13.9414C44.1584 15.0547 43.7702 16.0142 42.9938 16.8198C42.2175 17.6108 41.2653 18.0063 40.1374 18.0063ZM50.3749 44V26.0264H47.6723V19.896H50.3749V18.8193C50.3749 17.3252 50.6459 16.0581 51.1879 15.0181C51.7445 13.978 52.5941 13.1943 53.7367 12.667C54.8939 12.125 56.3881 11.854 58.2191 11.854C59.0395 11.854 59.7499 11.8906 60.3505 11.9639C60.9657 12.0371 61.4931 12.125 61.9325 12.2275V17.2812C61.7714 17.252 61.581 17.23 61.3612 17.2153C61.1415 17.2007 60.8852 17.1934 60.5922 17.1934C59.8305 17.1934 59.2372 17.3618 58.8124 17.6987C58.4022 18.0356 58.1972 18.5483 58.1972 19.2368V19.896H61.9325V26.0264H58.4389V44H50.3749ZM75.0924 44.4395C72.4703 44.4395 70.4781 43.8389 69.1158 42.6377C67.7535 41.4365 67.0724 39.459 67.0724 36.7051V26.0264H64.6114V19.896H67.0724V14.4907H75.1583V19.896H78.3443V26.0264H75.1583V35.958C75.1583 36.8516 75.3341 37.4741 75.6856 37.8257C76.0372 38.1626 76.6451 38.3311 77.5094 38.3311C77.6852 38.3311 77.839 38.3237 77.9708 38.3091C78.1173 38.2944 78.2564 38.2798 78.3883 38.2651V44.022C77.9342 44.1392 77.4288 44.2344 76.8722 44.3076C76.3155 44.3955 75.7223 44.4395 75.0924 44.4395ZM91.1526 44.4395C89.1311 44.4395 87.388 44.1245 85.9231 43.4946C84.4729 42.8501 83.3523 41.9492 82.5613 40.792C81.7703 39.6201 81.3602 38.2432 81.3309 36.6611V36.2437H89.0872V36.9248C89.1165 37.5986 89.285 38.0894 89.5926 38.397C89.9148 38.7046 90.3689 38.8584 90.9549 38.8584C91.2918 38.8584 91.5848 38.8071 91.8338 38.7046C92.0828 38.5874 92.2732 38.4263 92.4051 38.2212C92.5369 38.0161 92.6028 37.7744 92.6028 37.4961V37.4741C92.6028 36.9761 92.4124 36.5439 92.0315 36.1777C91.6507 35.8115 91.0135 35.4746 90.1199 35.167L87.7029 34.376C86.3699 33.9072 85.264 33.3359 84.3851 32.6621C83.5061 31.9736 82.8543 31.1753 82.4295 30.2671C82.0047 29.3589 81.7923 28.3115 81.7923 27.125V27.0811C81.7923 25.5723 82.1805 24.2466 82.9568 23.104C83.7478 21.9614 84.8392 21.0679 86.2308 20.4233C87.637 19.7788 89.2703 19.4565 91.1307 19.4565C92.9617 19.4565 94.5437 19.7861 95.8768 20.4453C97.2244 21.0898 98.2645 21.9907 98.9969 23.1479C99.7439 24.2905 100.117 25.6162 100.117 27.125V27.6523H92.8885V27.125C92.8738 26.4658 92.7127 25.9531 92.4051 25.5869C92.1121 25.2207 91.6946 25.0376 91.1526 25.0376C90.8157 25.0376 90.5228 25.0962 90.2737 25.2134C90.0394 25.3306 89.8562 25.499 89.7244 25.7188C89.6072 25.9238 89.5486 26.1655 89.5486 26.4438V26.4878C89.5486 26.7954 89.6219 27.0737 89.7684 27.3228C89.9295 27.5571 90.1785 27.7769 90.5154 27.9819C90.867 28.1724 91.3357 28.3701 91.9217 28.5752L94.3167 29.3662C96.5433 30.1426 98.1473 31.1094 99.1287 32.2666C100.11 33.4238 100.601 34.9033 100.601 36.7051V36.7271C100.601 38.2798 100.213 39.6348 99.4363 40.792C98.66 41.9492 97.5613 42.8501 96.1404 43.4946C94.7195 44.1245 93.0569 44.4395 91.1526 44.4395ZM124.482 44.5054C122.563 44.4907 120.885 44.1392 119.45 43.4507C118.014 42.7622 116.821 41.7368 115.868 40.3745C114.916 39.0122 114.198 37.313 113.715 35.2769C113.232 33.2407 112.99 30.8604 112.99 28.1357V28.0918C112.99 24.459 113.415 21.4414 114.264 19.0391C115.129 16.6221 116.41 14.813 118.11 13.6118C119.809 12.396 121.933 11.7881 124.482 11.7881C126.913 11.7881 128.905 12.2715 130.458 13.2383C132.026 14.2051 133.205 15.5088 133.996 17.1494C134.801 18.7754 135.285 20.5845 135.446 22.5767L135.512 23.5654H127.36L127.316 22.6206C127.184 21.5806 126.913 20.709 126.503 20.0059C126.093 19.2881 125.485 18.9292 124.679 18.9292C123.991 18.9292 123.405 19.2222 122.922 19.8081C122.453 20.394 122.094 21.3535 121.845 22.6865C121.611 24.0195 121.493 25.814 121.493 28.0698V28.1138C121.493 29.7837 121.559 31.2046 121.691 32.3765C121.838 33.5483 122.05 34.5005 122.328 35.2329C122.607 35.9653 122.944 36.5073 123.339 36.8589C123.749 37.1958 124.218 37.3643 124.745 37.3643C125.39 37.3643 125.925 37.1445 126.349 36.7051C126.789 36.2656 127.118 35.6797 127.338 34.9473C127.558 34.2148 127.675 33.4092 127.69 32.5303V32.1787H124.701V26.2681H135.732V30.5747C135.732 32.8306 135.497 34.8301 135.029 36.5732C134.574 38.3164 133.879 39.7812 132.941 40.9678C132.004 42.1396 130.824 43.0259 129.404 43.6265C127.997 44.2271 126.357 44.52 124.482 44.5054ZM145.178 44.4175C143.918 44.4175 142.827 44.1392 141.904 43.5825C140.981 43.0259 140.271 42.2349 139.773 41.2095C139.275 40.1694 139.026 38.9316 139.026 37.4961V37.4521C139.026 36.002 139.319 34.7202 139.905 33.6069C140.505 32.479 141.465 31.5635 142.783 30.8604C144.116 30.1572 145.874 29.7104 148.057 29.52L154.495 28.9927V33.6289L149.177 34.0903C148.43 34.1489 147.866 34.3906 147.485 34.8154C147.104 35.2256 146.914 35.8115 146.914 36.5732V36.5952C146.914 37.3569 147.075 37.8989 147.397 38.2212C147.72 38.5288 148.108 38.6826 148.562 38.6826C148.913 38.6826 149.228 38.6021 149.507 38.4409C149.785 38.2651 150.005 38.0088 150.166 37.6719C150.342 37.3203 150.43 36.8735 150.43 36.3315V27.5864C150.43 26.9126 150.276 26.4072 149.968 26.0703C149.675 25.7188 149.265 25.543 148.738 25.543C148.196 25.543 147.771 25.7041 147.463 26.0264C147.17 26.3486 147.009 26.8394 146.98 27.4985V27.96H139.729V27.3008C139.758 25.8066 140.132 24.4736 140.85 23.3018C141.582 22.1152 142.637 21.1777 144.014 20.4893C145.405 19.8008 147.09 19.4565 149.067 19.4565C151.118 19.4565 152.839 19.7788 154.231 20.4233C155.637 21.0532 156.692 21.9834 157.395 23.2139C158.113 24.4443 158.472 25.9604 158.472 27.7622V44H150.43V41.2754H150.276C150.012 41.9053 149.646 42.4546 149.177 42.9233C148.708 43.3921 148.137 43.7583 147.463 44.022C146.804 44.2856 146.042 44.4175 145.178 44.4175ZM162.798 44V19.896H170.862V23.4775H171.016C171.456 22.2031 172.144 21.2217 173.082 20.5332C174.019 19.8301 175.169 19.4785 176.531 19.4785C177.41 19.4785 178.201 19.6396 178.904 19.9619C179.622 20.2695 180.23 20.731 180.728 21.3462C181.241 21.9468 181.622 22.6792 181.871 23.5435H182.046C182.339 22.6792 182.75 21.9468 183.277 21.3462C183.819 20.7456 184.463 20.2842 185.211 19.9619C185.972 19.6396 186.829 19.4785 187.781 19.4785C189.026 19.4785 190.096 19.7861 190.989 20.4014C191.898 21.0166 192.593 21.8882 193.077 23.0161C193.575 24.144 193.824 25.4771 193.824 27.0151V44H185.76V28.5752C185.76 28.0771 185.694 27.6597 185.562 27.3228C185.445 26.9712 185.262 26.7148 185.013 26.5537C184.778 26.3779 184.471 26.29 184.09 26.29C183.709 26.29 183.387 26.3853 183.123 26.5757C182.859 26.7515 182.662 27.0151 182.53 27.3667C182.398 27.7036 182.332 28.1211 182.332 28.6191V44H174.312V28.5752C174.312 28.0771 174.254 27.6597 174.136 27.3228C174.019 26.9712 173.836 26.7148 173.587 26.5537C173.338 26.3779 173.03 26.29 172.664 26.29C172.283 26.29 171.954 26.3853 171.675 26.5757C171.412 26.7515 171.214 27.0151 171.082 27.3667C170.95 27.7036 170.884 28.1211 170.884 28.6191V44H162.798ZM207.643 44.5493C205.563 44.5493 203.783 44.0952 202.304 43.187C200.824 42.2642 199.689 40.8726 198.898 39.0122C198.121 37.1372 197.733 34.7715 197.733 31.915V31.8931C197.733 29.0952 198.121 26.7734 198.898 24.9277C199.689 23.082 200.817 21.6978 202.282 20.7749C203.746 19.8521 205.504 19.3906 207.555 19.3906C209.562 19.3906 211.276 19.8667 212.697 20.8188C214.117 21.7563 215.201 23.1406 215.949 24.9717C216.71 26.7881 217.091 29.022 217.091 31.6733V33.9365H201.732V29.2344H213.334L209.576 33.541V29.7617C209.576 28.751 209.503 27.916 209.357 27.2568C209.21 26.5977 208.991 26.0996 208.698 25.7627C208.405 25.4258 208.046 25.2573 207.621 25.2573C207.181 25.2573 206.815 25.4258 206.522 25.7627C206.229 26.0996 206.01 26.605 205.863 27.2788C205.717 27.938 205.643 28.7656 205.643 29.7617V33.6509C205.643 34.8374 205.724 35.7969 205.885 36.5293C206.046 37.2617 206.281 37.7964 206.588 38.1333C206.91 38.4702 207.299 38.6387 207.753 38.6387C208.134 38.6387 208.456 38.5435 208.72 38.353C208.998 38.1479 209.21 37.8623 209.357 37.4961C209.518 37.1299 209.635 36.6978 209.708 36.1997L209.752 35.958H216.937L216.893 36.3975C216.805 37.5107 216.549 38.5581 216.124 39.5396C215.7 40.5063 215.106 41.3706 214.345 42.1323C213.597 42.8794 212.66 43.4727 211.532 43.9121C210.419 44.3369 209.122 44.5493 207.643 44.5493ZM229.965 44.4395C227.944 44.4395 226.201 44.1245 224.736 43.4946C223.286 42.8501 222.165 41.9492 221.374 40.792C220.583 39.6201 220.173 38.2432 220.144 36.6611V36.2437H227.9V36.9248C227.929 37.5986 228.098 38.0894 228.405 38.397C228.728 38.7046 229.182 38.8584 229.768 38.8584C230.104 38.8584 230.397 38.8071 230.646 38.7046C230.896 38.5874 231.086 38.4263 231.218 38.2212C231.35 38.0161 231.416 37.7744 231.416 37.4961V37.4741C231.416 36.9761 231.225 36.5439 230.844 36.1777C230.463 35.8115 229.826 35.4746 228.933 35.167L226.516 34.376C225.183 33.9072 224.077 33.3359 223.198 32.6621C222.319 31.9736 221.667 31.1753 221.242 30.2671C220.817 29.3589 220.605 28.3115 220.605 27.125V27.0811C220.605 25.5723 220.993 24.2466 221.77 23.104C222.561 21.9614 223.652 21.0679 225.043 20.4233C226.45 19.7788 228.083 19.4565 229.943 19.4565C231.774 19.4565 233.356 19.7861 234.689 20.4453C236.037 21.0898 237.077 21.9907 237.81 23.1479C238.557 24.2905 238.93 25.6162 238.93 27.125V27.6523H231.701V27.125C231.687 26.4658 231.525 25.9531 231.218 25.5869C230.925 25.2207 230.507 25.0376 229.965 25.0376C229.628 25.0376 229.335 25.0962 229.086 25.2134C228.852 25.3306 228.669 25.499 228.537 25.7188C228.42 25.9238 228.361 26.1655 228.361 26.4438V26.4878C228.361 26.7954 228.435 27.0737 228.581 27.3228C228.742 27.5571 228.991 27.7769 229.328 27.9819C229.68 28.1724 230.148 28.3701 230.734 28.5752L233.129 29.3662C235.356 30.1426 236.96 31.1094 237.941 32.2666C238.923 33.4238 239.414 34.9033 239.414 36.7051V36.7271C239.414 38.2798 239.025 39.6348 238.249 40.792C237.473 41.9492 236.374 42.8501 234.953 43.4946C233.532 44.1245 231.87 44.4395 229.965 44.4395Z" fill="url(#paint0_radial_286_30518)"/>
<path d="M20.6934 44.5054L20.7012 43.5054L20.701 43.5054L20.6934 44.5054ZM10.4761 19.0391L9.53446 18.7024L9.5333 18.7056L10.4761 19.0391ZM14.3213 13.6118L14.8985 14.4284L14.9032 14.4251L14.3213 13.6118ZM26.6699 13.2383L26.1414 14.0872L26.1449 14.0894L26.6699 13.2383ZM30.2075 17.1494L29.3067 17.5837L29.3115 17.5934L30.2075 17.1494ZM31.6577 22.5767L32.6556 22.5101L32.6545 22.496L31.6577 22.5767ZM31.7236 23.5654V24.5654H32.7925L32.7214 23.4989L31.7236 23.5654ZM23.5718 23.5654L22.5729 23.6119L22.6172 24.5654H23.5718V23.5654ZM23.5278 22.6206L24.5268 22.5741L24.5249 22.5344L24.5199 22.4949L23.5278 22.6206ZM22.7148 20.0059L21.8466 20.502L21.8511 20.5097L22.7148 20.0059ZM19.1333 19.8081L18.3619 19.1717L18.3571 19.1775L18.3524 19.1834L19.1333 19.8081ZM18.0566 22.6865L17.0736 22.5029L17.0717 22.5134L18.0566 22.6865ZM17.9028 32.3765L16.909 32.4883L16.9106 32.5005L17.9028 32.3765ZM19.5508 36.8589L18.8864 37.6063L18.901 37.6192L18.916 37.6316L19.5508 36.8589ZM22.561 36.7051L21.8539 35.998L21.8479 36.004L21.842 36.0101L22.561 36.7051ZM23.9014 32.5303L24.9012 32.5469L24.9014 32.5386V32.5303H23.9014ZM23.9014 32.1787H24.9014V31.1787H23.9014V32.1787ZM20.9131 32.1787H19.9131V33.1787H20.9131V32.1787ZM20.9131 26.2681V25.2681H19.9131V26.2681H20.9131ZM31.9434 26.2681H32.9434V25.2681H31.9434V26.2681ZM31.2402 36.5732L30.2745 36.3136L30.2725 36.3212L31.2402 36.5732ZM29.1528 40.9678L29.9337 41.5925L29.9375 41.5877L29.1528 40.9678ZM25.6152 43.6265L25.2259 42.7054L25.2225 42.7068L25.6152 43.6265ZM20.701 43.5054C18.8994 43.4916 17.3725 43.1622 16.0941 42.549L15.2292 44.3523C16.8218 45.1162 18.6494 45.4898 20.6857 45.5053L20.701 43.5054ZM16.0941 42.549C14.8207 41.9383 13.7578 41.0293 12.8997 39.8016L11.2604 40.9474C12.3067 42.4443 13.6315 43.5861 15.2292 44.3523L16.0941 42.549ZM12.8997 39.8016C12.0358 38.5656 11.3613 36.9899 10.8997 35.0459L8.9538 35.5078C9.45906 37.636 10.2201 39.4589 11.2604 40.9474L12.8997 39.8016ZM10.8997 35.0459C10.4387 33.1042 10.2017 30.8045 10.2017 28.1357H8.20166C8.20166 30.9162 8.44799 33.3773 8.9538 35.5078L10.8997 35.0459ZM10.2017 28.1357V28.0918H8.20166V28.1357H10.2017ZM10.2017 28.0918C10.2017 24.5283 10.6195 21.6327 11.4189 19.3725L9.5333 18.7056C8.63343 21.2501 8.20166 24.3897 8.20166 28.0918H10.2017ZM11.4177 19.3758C12.2291 17.1066 13.4029 15.4856 14.8985 14.4284L13.7441 12.7952C11.8412 14.1404 10.4516 16.1375 9.53446 18.7024L11.4177 19.3758ZM14.9032 14.4251C16.3983 13.3553 18.3065 12.7881 20.6934 12.7881V10.7881C17.9825 10.7881 15.6427 11.4367 13.7394 12.7986L14.9032 14.4251ZM20.6934 12.7881C22.9981 12.7881 24.7914 13.2467 26.1414 14.0872L27.1985 12.3894C25.4429 11.2963 23.2519 10.7881 20.6934 10.7881V12.7881ZM26.1449 14.0894C27.5518 14.9571 28.5996 16.1171 29.3068 17.5837L31.1083 16.7151C30.2334 14.9005 28.9229 13.453 27.1949 12.3872L26.1449 14.0894ZM29.3115 17.5934C30.0554 19.0947 30.509 20.7787 30.661 22.6573L32.6545 22.496C32.4841 20.3903 31.971 18.456 31.1036 16.7054L29.3115 17.5934ZM30.6599 22.6432L30.7258 23.6319L32.7214 23.4989L32.6555 22.5101L30.6599 22.6432ZM31.7236 22.5654H23.5718V24.5654H31.7236V22.5654ZM24.5707 23.519L24.5268 22.5741L22.5289 22.6671L22.5729 23.6119L24.5707 23.519ZM24.5199 22.4949C24.3758 21.3582 24.073 20.3495 23.5786 19.502L21.8511 20.5097C22.177 21.0685 22.4162 21.8029 22.5358 22.7464L24.5199 22.4949ZM23.5831 19.5097C23.0006 18.4904 22.0671 17.9292 20.8911 17.9292V19.9292C21.3265 19.9292 21.6087 20.0857 21.8466 20.502L23.5831 19.5097ZM20.8911 17.9292C19.8708 17.9292 19.013 18.3825 18.3619 19.1717L19.9047 20.4445C20.2204 20.0618 20.5344 19.9292 20.8911 19.9292V17.9292ZM18.3524 19.1834C17.7284 19.9635 17.3321 21.1193 17.0736 22.5029L19.0396 22.8702C19.2792 21.5877 19.6007 20.8246 19.9142 20.4328L18.3524 19.1834ZM17.0717 22.5134C16.8229 23.9287 16.7051 25.7887 16.7051 28.0698H18.7051C18.7051 25.8392 18.8216 24.1104 19.0415 22.8597L17.0717 22.5134ZM16.7051 28.0698V28.1138H18.7051V28.0698H16.7051ZM16.7051 28.1138C16.7051 29.807 16.7718 31.2676 16.9091 32.4883L18.8966 32.2647C18.7702 31.1416 18.7051 29.7603 18.7051 28.1138H16.7051ZM16.9106 32.5005C17.0625 33.7158 17.2882 34.7538 17.6053 35.5881L19.4748 34.8777C19.2352 34.2471 19.0362 33.3808 18.8951 32.2524L16.9106 32.5005ZM17.6053 35.5881C17.9154 36.4043 18.3265 37.1086 18.8864 37.6063L20.2151 36.1115C19.984 35.9061 19.7213 35.5263 19.4748 34.8777L17.6053 35.5881ZM18.916 37.6316C19.5038 38.1144 20.1965 38.3643 20.957 38.3643V36.3643C20.6628 36.3643 20.4181 36.2772 20.1855 36.0862L18.916 37.6316ZM20.957 38.3643C21.8561 38.3643 22.6556 38.046 23.28 37.4001L21.842 36.0101C21.6168 36.243 21.347 36.3643 20.957 36.3643V38.3643ZM23.2681 37.4122C23.8486 36.8317 24.2512 36.0895 24.5076 35.2346L22.592 34.6599C22.409 35.2699 22.1524 35.6995 21.8539 35.998L23.2681 37.4122ZM24.5076 35.2346C24.7573 34.4023 24.8853 33.5042 24.9012 32.5469L22.9015 32.5136C22.8882 33.3142 22.7818 34.0273 22.592 34.6599L24.5076 35.2346ZM24.9014 32.5303V32.1787H22.9014V32.5303H24.9014ZM23.9014 31.1787H20.9131V33.1787H23.9014V31.1787ZM21.9131 32.1787V26.2681H19.9131V32.1787H21.9131ZM20.9131 27.2681H31.9434V25.2681H20.9131V27.2681ZM30.9434 26.2681V30.5747H32.9434V26.2681H30.9434ZM30.9434 30.5747C30.9434 32.7637 30.7157 34.6731 30.2745 36.3136L32.2059 36.8329C32.7023 34.9871 32.9434 32.8974 32.9434 30.5747H30.9434ZM30.2725 36.3212C29.8468 37.9555 29.2051 39.2886 28.3682 40.3478L29.9375 41.5877C30.9756 40.2739 31.7255 38.6773 32.2079 36.8253L30.2725 36.3212ZM28.372 40.3431C27.5413 41.3814 26.4981 42.1676 25.2259 42.7054L26.0046 44.5476C27.5741 43.8841 28.8894 42.8979 29.9337 41.5925L28.372 40.3431ZM25.2225 42.7068C23.968 43.2426 22.4689 43.5192 20.7012 43.5054L20.6855 45.5053C22.6678 45.5208 24.45 45.2115 26.008 44.5461L25.2225 42.7068ZM36.1164 44H35.1164V45H36.1164V44ZM36.1164 19.896V18.896H35.1164V19.896H36.1164ZM44.1804 19.896H45.1804V18.896H44.1804V19.896ZM44.1804 44V45H45.1804V44H44.1804ZM37.281 16.8198L36.5609 17.5137L36.5673 17.5204L36.5738 17.5269L37.281 16.8198ZM37.281 11.085L36.5674 10.3843L36.5609 10.3911L37.281 11.085ZM42.9938 16.8198L43.7076 17.5203L43.7139 17.5137L42.9938 16.8198ZM37.1164 44V19.896H35.1164V44H37.1164ZM36.1164 20.896H44.1804V18.896H36.1164V20.896ZM43.1804 19.896V44H45.1804V19.896H43.1804ZM44.1804 43H36.1164V45H44.1804V43ZM40.1374 17.0063C39.2908 17.0063 38.5926 16.7172 37.9881 16.1127L36.5738 17.5269C37.5514 18.5045 38.7575 19.0063 40.1374 19.0063V17.0063ZM38.001 16.1259C37.4032 15.5056 37.1164 14.7944 37.1164 13.9414H35.1164C35.1164 15.3149 35.6059 16.5227 36.5609 17.5137L38.001 16.1259ZM37.1164 13.9414C37.1164 13.1068 37.4006 12.402 38.001 11.7789L36.5609 10.3911C35.6086 11.3793 35.1164 12.5787 35.1164 13.9414H37.1164ZM37.9945 11.7856C38.6005 11.1683 39.2968 10.8765 40.1374 10.8765V8.87646C38.7515 8.87646 37.5434 9.39025 36.5674 10.3844L37.9945 11.7856ZM40.1374 10.8765C40.9962 10.8765 41.6876 11.1706 42.2738 11.7789L43.7139 10.3911C42.7473 9.38802 41.5345 8.87646 40.1374 8.87646V10.8765ZM42.2738 11.7789C42.8742 12.402 43.1584 13.1068 43.1584 13.9414H45.1584C45.1584 12.5787 44.6662 11.3793 43.7139 10.3911L42.2738 11.7789ZM43.1584 13.9414C43.1584 14.7944 42.8716 15.5056 42.2738 16.1259L43.7139 17.5137C44.6689 16.5227 45.1584 15.3149 45.1584 13.9414H43.1584ZM42.2802 16.1194C41.6955 16.715 41.0022 17.0063 40.1374 17.0063V19.0063C41.5285 19.0063 42.7394 18.5067 43.7075 17.5203L42.2802 16.1194ZM50.3749 44H49.3749V45H50.3749V44ZM50.3749 26.0264H51.3749V25.0264H50.3749V26.0264ZM47.6723 26.0264H46.6723V27.0264H47.6723V26.0264ZM47.6723 19.896V18.896H46.6723V19.896H47.6723ZM50.3749 19.896V20.896H51.3749V19.896H50.3749ZM51.1879 15.0181L50.3062 14.5462L50.3011 14.5559L51.1879 15.0181ZM53.7367 12.667L54.1558 13.575L54.1609 13.5726L53.7367 12.667ZM60.3505 11.9639L60.2294 12.9565L60.2323 12.9569L60.3505 11.9639ZM61.9325 12.2275H62.9325V11.434L62.1597 11.2537L61.9325 12.2275ZM61.9325 17.2812L61.7536 18.2651L62.9325 18.4795V17.2812H61.9325ZM58.8124 17.6987L58.191 16.9152L58.1843 16.9206L58.1777 16.926L58.8124 17.6987ZM58.1972 19.896H57.1972V20.896H58.1972V19.896ZM61.9325 19.896H62.9325V18.896H61.9325V19.896ZM61.9325 26.0264V27.0264H62.9325V26.0264H61.9325ZM58.4389 26.0264V25.0264H57.4389V26.0264H58.4389ZM58.4389 44V45H59.4389V44H58.4389ZM51.3749 44V26.0264H49.3749V44H51.3749ZM50.3749 25.0264H47.6723V27.0264H50.3749V25.0264ZM48.6723 26.0264V19.896H46.6723V26.0264H48.6723ZM47.6723 20.896H50.3749V18.896H47.6723V20.896ZM51.3749 19.896V18.8193H49.3749V19.896H51.3749ZM51.3749 18.8193C51.3749 17.4432 51.6247 16.3438 52.0747 15.4802L50.3011 14.5559C49.6671 15.7724 49.3749 17.2072 49.3749 18.8193H51.3749ZM52.0696 15.4899C52.5165 14.6549 53.1967 14.0176 54.1558 13.575L53.3177 11.759C51.9916 12.3711 50.9726 13.3011 50.3062 14.5462L52.0696 15.4899ZM54.1609 13.5726C55.1407 13.1137 56.4758 12.854 58.2191 12.854V10.854C56.3004 10.854 54.6472 11.1363 53.3126 11.7614L54.1609 13.5726ZM58.2191 12.854C59.0122 12.854 59.6803 12.8895 60.2294 12.9565L60.4715 10.9712C59.8195 10.8917 59.0667 10.854 58.2191 10.854V12.854ZM60.2323 12.9569C60.8233 13.0272 61.3122 13.1097 61.7053 13.2014L62.1597 11.2537C61.6739 11.1403 61.1081 11.047 60.4687 10.9709L60.2323 12.9569ZM60.9325 12.2275V17.2812H62.9325V12.2275H60.9325ZM62.1114 16.2974C61.903 16.2595 61.6732 16.2339 61.4277 16.2175L61.2947 18.2131C61.4887 18.226 61.6398 18.2444 61.7536 18.2651L62.1114 16.2974ZM61.4277 16.2175C61.18 16.201 60.9006 16.1934 60.5922 16.1934V18.1934C60.8697 18.1934 61.103 18.2003 61.2947 18.2131L61.4277 16.2175ZM60.5922 16.1934C59.6945 16.1934 58.8519 16.3911 58.191 16.9152L59.4338 18.4822C59.6225 18.3326 59.9665 18.1934 60.5922 18.1934V16.1934ZM58.1777 16.926C57.4712 17.5063 57.1972 18.3449 57.1972 19.2368H59.1972C59.1972 18.7518 59.3333 18.565 59.4471 18.4715L58.1777 16.926ZM57.1972 19.2368V19.896H59.1972V19.2368H57.1972ZM58.1972 20.896H61.9325V18.896H58.1972V20.896ZM60.9325 19.896V26.0264H62.9325V19.896H60.9325ZM61.9325 25.0264H58.4389V27.0264H61.9325V25.0264ZM57.4389 26.0264V44H59.4389V26.0264H57.4389ZM58.4389 43H50.3749V45H58.4389V43ZM67.0724 26.0264H68.0724V25.0264H67.0724V26.0264ZM64.6114 26.0264H63.6114V27.0264H64.6114V26.0264ZM64.6114 19.896V18.896H63.6114V19.896H64.6114ZM67.0724 19.896V20.896H68.0724V19.896H67.0724ZM67.0724 14.4907V13.4907H66.0724V14.4907H67.0724ZM75.1583 14.4907H76.1583V13.4907H75.1583V14.4907ZM75.1583 19.896H74.1583V20.896H75.1583V19.896ZM78.3443 19.896H79.3443V18.896H78.3443V19.896ZM78.3443 26.0264V27.0264H79.3443V26.0264H78.3443ZM75.1583 26.0264V25.0264H74.1583V26.0264H75.1583ZM75.6856 37.8257L74.9785 38.5328L74.9861 38.5403L74.9937 38.5477L75.6856 37.8257ZM77.9708 38.3091L77.8713 37.314L77.8604 37.3152L77.9708 38.3091ZM78.3883 38.2651H79.3883V37.1479L78.2779 37.2713L78.3883 38.2651ZM78.3883 44.022L78.6382 44.9902L79.3883 44.7967V44.022H78.3883ZM76.8722 44.3076L76.7417 43.3162L76.7289 43.3178L76.7162 43.3199L76.8722 44.3076ZM75.0924 43.4395C72.6074 43.4395 70.8903 42.8691 69.7772 41.8876L68.4545 43.3878C70.066 44.8087 72.3332 45.4395 75.0924 45.4395V43.4395ZM69.7772 41.8876C68.721 40.9564 68.0724 39.3207 68.0724 36.7051H66.0724C66.0724 39.5973 66.786 41.9167 68.4545 43.3878L69.7772 41.8876ZM68.0724 36.7051V26.0264H66.0724V36.7051H68.0724ZM67.0724 25.0264H64.6114V27.0264H67.0724V25.0264ZM65.6114 26.0264V19.896H63.6114V26.0264H65.6114ZM64.6114 20.896H67.0724V18.896H64.6114V20.896ZM68.0724 19.896V14.4907H66.0724V19.896H68.0724ZM67.0724 15.4907H75.1583V13.4907H67.0724V15.4907ZM74.1583 14.4907V19.896H76.1583V14.4907H74.1583ZM75.1583 20.896H78.3443V18.896H75.1583V20.896ZM77.3443 19.896V26.0264H79.3443V19.896H77.3443ZM78.3443 25.0264H75.1583V27.0264H78.3443V25.0264ZM74.1583 26.0264V35.958H76.1583V26.0264H74.1583ZM74.1583 35.958C74.1583 36.9236 74.3368 37.891 74.9785 38.5328L76.3928 37.1186C76.3314 37.0572 76.1583 36.7796 76.1583 35.958H74.1583ZM74.9937 38.5477C75.6311 39.1584 76.5698 39.3311 77.5094 39.3311V37.3311C76.7204 37.3311 76.4434 37.1668 76.3775 37.1037L74.9937 38.5477ZM77.5094 39.3311C77.711 39.3311 77.9032 39.3228 78.0812 39.303L77.8604 37.3152C77.7748 37.3247 77.6593 37.3311 77.5094 37.3311V39.3311ZM78.0703 39.3041C78.22 39.2891 78.3629 39.2741 78.4987 39.259L78.2779 37.2713C78.15 37.2855 78.0145 37.2997 77.8713 37.314L78.0703 39.3041ZM77.3883 38.2651V44.022H79.3883V38.2651H77.3883ZM78.1384 43.0537C77.7304 43.159 77.2657 43.2472 76.7417 43.3162L77.0026 45.2991C77.5919 45.2215 78.138 45.1193 78.6382 44.9902L78.1384 43.0537ZM76.7162 43.3199C76.2168 43.3987 75.676 43.4395 75.0924 43.4395V45.4395C75.7685 45.4395 76.4143 45.3923 77.0281 45.2954L76.7162 43.3199ZM85.9231 43.4946L85.517 44.4085L85.5281 44.4133L85.9231 43.4946ZM82.5613 40.792L81.7325 41.3515L81.7358 41.3563L82.5613 40.792ZM81.3309 36.6611H80.3309V36.6704L80.331 36.6796L81.3309 36.6611ZM81.3309 36.2437V35.2437H80.3309V36.2437H81.3309ZM89.0872 36.2437H90.0872V35.2437H89.0872V36.2437ZM89.0872 36.9248H88.0872V36.9465L88.0882 36.9682L89.0872 36.9248ZM89.5926 38.397L88.8855 39.1041L88.8937 39.1123L88.9021 39.1203L89.5926 38.397ZM91.8338 38.7046L92.2145 39.6293L92.2373 39.6199L92.2596 39.6094L91.8338 38.7046ZM90.1199 35.167L90.4454 34.2215L90.4382 34.219L90.431 34.2166L90.1199 35.167ZM87.7029 34.376L87.3712 35.3193L87.3815 35.323L87.3919 35.3264L87.7029 34.376ZM84.3851 32.6621L83.7684 33.4494L83.7766 33.4557L84.3851 32.6621ZM82.9568 23.104L82.1346 22.5348L82.1297 22.542L82.9568 23.104ZM86.2308 20.4233L85.8141 19.5143L85.8105 19.5159L86.2308 20.4233ZM95.8768 20.4453L95.4334 21.3418L95.4453 21.3474L95.8768 20.4453ZM98.9969 23.1479L98.1519 23.6827L98.1559 23.689L98.1599 23.6952L98.9969 23.1479ZM100.117 27.6523V28.6523H101.117V27.6523H100.117ZM92.8885 27.6523H91.8885V28.6523H92.8885V27.6523ZM92.8885 27.125H93.8885V27.1139L93.8882 27.1028L92.8885 27.125ZM92.4051 25.5869L91.6242 26.2116L91.6317 26.2209L91.6394 26.2301L92.4051 25.5869ZM90.2737 25.2134L89.8479 24.3086L89.8372 24.3136L89.8265 24.319L90.2737 25.2134ZM89.7244 25.7188L88.8669 25.2043L88.8614 25.2134L88.8562 25.2226L89.7244 25.7188ZM89.7684 27.3228L88.9064 27.8298L88.9243 27.8602L88.9443 27.8893L89.7684 27.3228ZM90.5154 27.9819L89.9955 28.8361L90.017 28.8492L90.0391 28.8612L90.5154 27.9819ZM91.9217 28.5752L91.5913 29.5191L91.5997 29.522L91.6081 29.5247L91.9217 28.5752ZM94.3167 29.3662L94.6459 28.422L94.6381 28.4192L94.6303 28.4167L94.3167 29.3662ZM96.1404 43.4946L96.5457 44.4089L96.5535 44.4053L96.1404 43.4946ZM91.1526 43.4395C89.2319 43.4395 87.6296 43.1399 86.3182 42.576L85.5281 44.4133C87.1463 45.1091 89.0303 45.4395 91.1526 45.4395V43.4395ZM86.3293 42.5808C85.0256 42.0014 84.0599 41.2123 83.3869 40.2277L81.7358 41.3563C82.6448 42.6862 83.9202 43.6988 85.517 44.4084L86.3293 42.5808ZM83.3902 40.2325C82.7197 39.2393 82.3568 38.0554 82.3307 36.6426L80.331 36.6796C80.3635 38.431 80.8209 40.0009 81.7325 41.3515L83.3902 40.2325ZM82.3309 36.6611V36.2437H80.3309V36.6611H82.3309ZM81.3309 37.2437H89.0872V35.2437H81.3309V37.2437ZM88.0872 36.2437V36.9248H90.0872V36.2437H88.0872ZM88.0882 36.9682C88.1226 37.7596 88.3254 38.544 88.8855 39.1041L90.2997 37.6899C90.2445 37.6347 90.1105 37.4377 90.0863 36.8814L88.0882 36.9682ZM88.9021 39.1203C89.4631 39.6559 90.1953 39.8584 90.9549 39.8584V37.8584C90.5426 37.8584 90.3666 37.7533 90.2831 37.6736L88.9021 39.1203ZM90.9549 39.8584C91.3908 39.8584 91.8186 39.7923 92.2145 39.6293L91.453 37.7799C91.351 37.8219 91.1928 37.8584 90.9549 37.8584V39.8584ZM92.2596 39.6094C92.656 39.4229 93.0002 39.1447 93.2463 38.7619L91.5639 37.6804C91.5462 37.7079 91.5096 37.7519 91.408 37.7998L92.2596 39.6094ZM93.2463 38.7619C93.4959 38.3736 93.6028 37.9383 93.6028 37.4961H91.6028C91.6028 37.6105 91.5779 37.6586 91.5639 37.6804L93.2463 38.7619ZM93.6028 37.4961V37.4741H91.6028V37.4961H93.6028ZM93.6028 37.4741C93.6028 36.6861 93.2883 35.9988 92.7246 35.4569L91.3384 36.8986C91.5365 37.0891 91.6028 37.266 91.6028 37.4741H93.6028ZM92.7246 35.4569C92.1864 34.9394 91.3847 34.5448 90.4454 34.2215L89.7944 36.1125C90.6423 36.4044 91.1149 36.6837 91.3384 36.8986L92.7246 35.4569ZM90.431 34.2166L88.014 33.4256L87.3919 35.3264L89.8089 36.1174L90.431 34.2166ZM88.0347 33.4326C86.7751 32.9897 85.7692 32.4632 84.9935 31.8685L83.7766 33.4557C84.7587 34.2087 85.9647 34.8248 87.3712 35.3193L88.0347 33.4326ZM85.0017 31.8749C84.2322 31.2721 83.6863 30.5939 83.3353 29.8434L81.5237 30.6908C82.0222 31.7567 82.7801 32.6752 83.7684 33.4493L85.0017 31.8749ZM83.3353 29.8434C82.9829 29.09 82.7923 28.1917 82.7923 27.125H80.7923C80.7923 28.4314 81.0265 29.6278 81.5237 30.6908L83.3353 29.8434ZM82.7923 27.125V27.0811H80.7923V27.125H82.7923ZM82.7923 27.0811C82.7923 25.7534 83.1306 24.6275 83.784 23.666L82.1297 22.542C81.2303 23.8656 80.7923 25.3912 80.7923 27.0811H82.7923ZM83.779 23.6732C84.4583 22.692 85.4039 21.9083 86.651 21.3307L85.8105 19.5159C84.2744 20.2274 83.0374 21.2308 82.1346 22.5348L83.779 23.6732ZM86.6474 21.3324C87.8992 20.7587 89.3855 20.4565 91.1307 20.4565V18.4565C89.1552 18.4565 87.3748 18.7989 85.8141 19.5143L86.6474 21.3324ZM91.1307 20.4565C92.8428 20.4565 94.2665 20.7646 95.4335 21.3417L96.32 19.5489C94.821 18.8076 93.0806 18.4565 91.1307 18.4565V20.4565ZM95.4453 21.3474C96.6393 21.9185 97.5291 22.6987 98.1519 23.6827L99.8419 22.6132C98.9998 21.2827 97.8095 20.2612 96.3082 19.5432L95.4453 21.3474ZM98.1599 23.6952C98.7895 24.6582 99.1175 25.7894 99.1175 27.125H101.117C101.117 25.4431 100.698 23.9229 99.8338 22.6007L98.1599 23.6952ZM99.1175 27.125V27.6523H101.117V27.125H99.1175ZM100.117 26.6523H92.8885V28.6523H100.117V26.6523ZM93.8885 27.6523V27.125H91.8885V27.6523H93.8885ZM93.8882 27.1028C93.8704 26.3013 93.6716 25.5399 93.1708 24.9437L91.6394 26.2301C91.7538 26.3663 91.8772 26.6304 91.8887 27.1472L93.8882 27.1028ZM93.1859 24.9622C92.6723 24.3202 91.9452 24.0376 91.1526 24.0376V26.0376C91.444 26.0376 91.5519 26.1212 91.6242 26.2116L93.1859 24.9622ZM91.1526 24.0376C90.7008 24.0376 90.2566 24.1162 89.8479 24.3086L90.6995 26.1182C90.7889 26.0761 90.9306 26.0376 91.1526 26.0376V24.0376ZM89.8265 24.319C89.4261 24.5192 89.0989 24.8176 88.8669 25.2043L90.5819 26.2332C90.6136 26.1805 90.6526 26.142 90.7209 26.1078L89.8265 24.319ZM88.8562 25.2226C88.6384 25.6038 88.5486 26.0227 88.5486 26.4438H90.5486C90.5486 26.3083 90.5761 26.2439 90.5927 26.2149L88.8562 25.2226ZM88.5486 26.4438V26.4878H90.5486V26.4438H88.5486ZM88.5486 26.4878C88.5486 26.9617 88.6637 27.4171 88.9064 27.8298L90.6303 26.8157C90.5801 26.7304 90.5486 26.6291 90.5486 26.4878H88.5486ZM88.9443 27.8893C89.21 28.2757 89.5817 28.5843 89.9955 28.8361L91.0354 27.1277C90.7753 26.9695 90.649 26.8385 90.5924 26.7562L88.9443 27.8893ZM90.0391 28.8612C90.4557 29.0869 90.9793 29.3049 91.5913 29.5191L92.252 27.6313C91.6921 27.4354 91.2783 27.2579 90.9917 27.1026L90.0391 28.8612ZM91.6081 29.5247L94.0031 30.3158L94.6303 28.4167L92.2353 27.6256L91.6081 29.5247ZM93.9874 30.3105C96.1309 31.0578 97.547 31.9476 98.3661 32.9134L99.8914 31.6198C98.7475 30.2711 96.9556 29.2273 94.6459 28.422L93.9874 30.3105ZM98.3661 32.9134C99.1666 33.8574 99.6009 35.0937 99.6009 36.7051H101.601C101.601 34.713 101.054 32.9903 99.8914 31.6198L98.3661 32.9134ZM99.6009 36.7051V36.7271H101.601V36.7051H99.6009ZM99.6009 36.7271C99.6009 38.1049 99.2593 39.2609 98.6059 40.2349L100.267 41.3491C101.166 40.0086 101.601 38.4547 101.601 36.7271H99.6009ZM98.6059 40.2349C97.9451 41.2198 96.9998 42.0067 95.7273 42.5839L96.5535 44.4053C98.1229 43.6935 99.3748 42.6786 100.267 41.3491L98.6059 40.2349ZM95.7352 42.5804C94.4672 43.1425 92.948 43.4395 91.1526 43.4395V45.4395C93.1659 45.4395 94.9718 45.1065 96.5457 44.4088L95.7352 42.5804ZM124.482 44.5054L124.489 43.5054L124.489 43.5054L124.482 44.5054ZM114.264 19.0391L113.323 18.7024L113.322 18.7056L114.264 19.0391ZM118.11 13.6118L118.687 14.4284L118.691 14.4251L118.11 13.6118ZM130.458 13.2383L129.93 14.0872L129.933 14.0894L130.458 13.2383ZM133.996 17.1494L133.095 17.5837L133.1 17.5934L133.996 17.1494ZM135.446 22.5767L136.444 22.5101L136.443 22.496L135.446 22.5767ZM135.512 23.5654V24.5654H136.581L136.51 23.4989L135.512 23.5654ZM127.36 23.5654L126.361 23.6119L126.405 24.5654H127.36V23.5654ZM127.316 22.6206L128.315 22.5741L128.313 22.5344L128.308 22.4949L127.316 22.6206ZM126.503 20.0059L125.635 20.502L125.639 20.5097L126.503 20.0059ZM122.922 19.8081L122.15 19.1717L122.145 19.1775L122.141 19.1834L122.922 19.8081ZM121.845 22.6865L120.862 22.5029L120.86 22.5134L121.845 22.6865ZM121.691 32.3765L120.697 32.4883L120.699 32.5005L121.691 32.3765ZM123.339 36.8589L122.675 37.6063L122.689 37.6192L122.704 37.6316L123.339 36.8589ZM126.349 36.7051L125.642 35.998L125.636 36.004L125.63 36.0101L126.349 36.7051ZM127.69 32.5303L128.69 32.5469L128.69 32.5386V32.5303H127.69ZM127.69 32.1787H128.69V31.1787H127.69V32.1787ZM124.701 32.1787H123.701V33.1787H124.701V32.1787ZM124.701 26.2681V25.2681H123.701V26.2681H124.701ZM135.732 26.2681H136.732V25.2681H135.732V26.2681ZM135.029 36.5732L134.063 36.3136L134.061 36.3212L135.029 36.5732ZM132.941 40.9678L133.722 41.5925L133.726 41.5877L132.941 40.9678ZM129.404 43.6265L129.014 42.7054L129.011 42.7068L129.404 43.6265ZM124.489 43.5054C122.688 43.4916 121.161 43.1622 119.882 42.549L119.017 44.3523C120.61 45.1162 122.438 45.4898 124.474 45.5053L124.489 43.5054ZM119.882 42.549C118.609 41.9383 117.546 41.0293 116.688 39.8016L115.049 40.9474C116.095 42.4443 117.42 43.5861 119.017 44.3523L119.882 42.549ZM116.688 39.8016C115.824 38.5656 115.15 36.9899 114.688 35.0459L112.742 35.5078C113.247 37.636 114.008 39.4589 115.049 40.9474L116.688 39.8016ZM114.688 35.0459C114.227 33.1042 113.99 30.8045 113.99 28.1357H111.99C111.99 30.9162 112.236 33.3773 112.742 35.5078L114.688 35.0459ZM113.99 28.1357V28.0918H111.99V28.1357H113.99ZM113.99 28.0918C113.99 24.5283 114.408 21.6327 115.207 19.3725L113.322 18.7056C112.422 21.2501 111.99 24.3897 111.99 28.0918H113.99ZM115.206 19.3758C116.017 17.1066 117.191 15.4856 118.687 14.4284L117.532 12.7952C115.629 14.1404 114.24 16.1375 113.323 18.7024L115.206 19.3758ZM118.691 14.4251C120.187 13.3553 122.095 12.7881 124.482 12.7881V10.7881C121.771 10.7881 119.431 11.4367 117.528 12.7986L118.691 14.4251ZM124.482 12.7881C126.786 12.7881 128.58 13.2467 129.93 14.0872L130.987 12.3894C129.231 11.2963 127.04 10.7881 124.482 10.7881V12.7881ZM129.933 14.0894C131.34 14.9571 132.388 16.1171 133.095 17.5837L134.897 16.7151C134.022 14.9005 132.711 13.453 130.983 12.3872L129.933 14.0894ZM133.1 17.5934C133.844 19.0947 134.297 20.7787 134.449 22.6573L136.443 22.496C136.272 20.3903 135.759 18.456 134.892 16.7054L133.1 17.5934ZM134.448 22.6432L134.514 23.6319L136.51 23.4989L136.444 22.5101L134.448 22.6432ZM135.512 22.5654H127.36V24.5654H135.512V22.5654ZM128.359 23.519L128.315 22.5741L126.317 22.6671L126.361 23.6119L128.359 23.519ZM128.308 22.4949C128.164 21.3582 127.861 20.3495 127.367 19.502L125.639 20.5097C125.965 21.0685 126.204 21.8029 126.324 22.7464L128.308 22.4949ZM127.371 19.5097C126.789 18.4904 125.855 17.9292 124.679 17.9292V19.9292C125.115 19.9292 125.397 20.0857 125.635 20.502L127.371 19.5097ZM124.679 17.9292C123.659 17.9292 122.801 18.3825 122.15 19.1717L123.693 20.4445C124.009 20.0618 124.323 19.9292 124.679 19.9292V17.9292ZM122.141 19.1834C121.517 19.9635 121.12 21.1193 120.862 22.5029L122.828 22.8702C123.067 21.5877 123.389 20.8246 123.702 20.4328L122.141 19.1834ZM120.86 22.5134C120.611 23.9287 120.493 25.7887 120.493 28.0698H122.493C122.493 25.8392 122.61 24.1104 122.83 22.8597L120.86 22.5134ZM120.493 28.0698V28.1138H122.493V28.0698H120.493ZM120.493 28.1138C120.493 29.807 120.56 31.2676 120.697 32.4883L122.685 32.2647C122.559 31.1416 122.493 29.7603 122.493 28.1138H120.493ZM120.699 32.5005C120.851 33.7158 121.077 34.7538 121.394 35.5881L123.263 34.8777C123.023 34.2471 122.824 33.3808 122.683 32.2524L120.699 32.5005ZM121.394 35.5881C121.704 36.4043 122.115 37.1086 122.675 37.6063L124.003 36.1115C123.772 35.9061 123.51 35.5263 123.263 34.8777L121.394 35.5881ZM122.704 37.6316C123.292 38.1144 123.985 38.3643 124.745 38.3643V36.3643C124.451 36.3643 124.206 36.2772 123.974 36.0862L122.704 37.6316ZM124.745 38.3643C125.644 38.3643 126.444 38.046 127.068 37.4001L125.63 36.0101C125.405 36.243 125.135 36.3643 124.745 36.3643V38.3643ZM127.056 37.4122C127.637 36.8317 128.039 36.0895 128.296 35.2346L126.38 34.6599C126.197 35.2699 125.941 35.6995 125.642 35.998L127.056 37.4122ZM128.296 35.2346C128.546 34.4023 128.674 33.5042 128.69 32.5469L126.69 32.5136C126.676 33.3142 126.57 34.0273 126.38 34.6599L128.296 35.2346ZM128.69 32.5303V32.1787H126.69V32.5303H128.69ZM127.69 31.1787H124.701V33.1787H127.69V31.1787ZM125.701 32.1787V26.2681H123.701V32.1787H125.701ZM124.701 27.2681H135.732V25.2681H124.701V27.2681ZM134.732 26.2681V30.5747H136.732V26.2681H134.732ZM134.732 30.5747C134.732 32.7637 134.504 34.6731 134.063 36.3136L135.994 36.8329C136.491 34.9871 136.732 32.8974 136.732 30.5747H134.732ZM134.061 36.3212C133.635 37.9555 132.993 39.2886 132.156 40.3478L133.726 41.5877C134.764 40.2739 135.514 38.6773 135.996 36.8253L134.061 36.3212ZM132.16 40.3431C131.33 41.3814 130.286 42.1676 129.014 42.7054L129.793 44.5476C131.362 43.8841 132.678 42.8979 133.722 41.5925L132.16 40.3431ZM129.011 42.7068C127.756 43.2426 126.257 43.5192 124.489 43.5054L124.474 45.5053C126.456 45.5208 128.238 45.2115 129.796 44.5461L129.011 42.7068ZM139.773 41.2095L138.871 41.6414L138.873 41.6464L139.773 41.2095ZM139.905 33.6069L139.022 33.1369L139.02 33.1412L139.905 33.6069ZM142.783 30.8604L142.317 29.9758L142.313 29.978L142.783 30.8604ZM148.057 29.52L147.975 28.5233L147.97 28.5238L148.057 29.52ZM154.495 28.9927H155.495V27.9074L154.413 27.996L154.495 28.9927ZM154.495 33.6289L154.581 34.6252L155.495 34.5459V33.6289H154.495ZM149.177 34.0903L149.255 35.0873L149.264 35.0866L149.177 34.0903ZM147.485 34.8154L148.218 35.4959L148.224 35.4895L148.23 35.483L147.485 34.8154ZM147.397 38.2212L146.69 38.9283L146.698 38.9365L146.707 38.9445L147.397 38.2212ZM149.507 38.4409L150.008 39.3063L150.024 39.2967L150.041 39.2864L149.507 38.4409ZM150.166 37.6719L149.271 37.2247L149.268 37.2325L149.264 37.2404L150.166 37.6719ZM149.968 26.0703L149.2 26.7105L149.214 26.7279L149.23 26.7446L149.968 26.0703ZM147.463 26.0264L146.74 25.3359L146.732 25.3447L146.723 25.3537L147.463 26.0264ZM146.98 27.4985L145.981 27.4541L145.98 27.4763V27.4985H146.98ZM146.98 27.96V28.96H147.98V27.96H146.98ZM139.729 27.96H138.729V28.96H139.729V27.96ZM139.729 27.3008L138.729 27.2812L138.729 27.291V27.3008H139.729ZM140.85 23.3018L139.999 22.7765L139.997 22.7794L140.85 23.3018ZM144.014 20.4893L143.57 19.5929L143.566 19.5948L144.014 20.4893ZM154.231 20.4233L153.811 21.3308L153.822 21.336L154.231 20.4233ZM157.395 23.2139L156.527 23.71L156.531 23.7177L157.395 23.2139ZM158.472 44V45H159.472V44H158.472ZM150.43 44H149.43V45H150.43V44ZM150.43 41.2754H151.43V40.2754H150.43V41.2754ZM150.276 41.2754V40.2754H149.61L149.353 40.8893L150.276 41.2754ZM147.463 44.022L147.099 43.0907L147.092 43.0935L147.463 44.022ZM145.178 43.4175C144.069 43.4175 143.163 43.174 142.421 42.7262L141.388 44.4388C142.491 45.1044 143.767 45.4175 145.178 45.4175V43.4175ZM142.421 42.7262C141.673 42.2753 141.091 41.6346 140.672 40.7726L138.873 41.6464C139.451 42.8351 140.29 43.7764 141.388 44.4388L142.421 42.7262ZM140.675 40.7776C140.255 39.9012 140.026 38.8179 140.026 37.4961H138.026C138.026 39.0454 138.294 40.4376 138.871 41.6414L140.675 40.7776ZM140.026 37.4961V37.4521H138.026V37.4961H140.026ZM140.026 37.4521C140.026 36.1393 140.29 35.0218 140.79 34.0727L139.02 33.1412C138.347 34.4186 138.026 35.8646 138.026 37.4521H140.026ZM140.787 34.0769C141.28 33.1524 142.08 32.3686 143.254 31.7427L142.313 29.978C140.849 30.7584 139.731 31.8056 139.022 33.1369L140.787 34.0769ZM143.25 31.7448C144.424 31.1254 146.038 30.6999 148.143 30.5162L147.97 28.5238C145.71 28.721 143.808 29.1891 142.317 29.9759L143.25 31.7448ZM148.138 30.5167L154.576 29.9893L154.413 27.996L147.975 28.5234L148.138 30.5167ZM153.495 28.9927V33.6289H155.495V28.9927H153.495ZM154.408 32.6327L149.091 33.0941L149.264 35.0866L154.581 34.6252L154.408 32.6327ZM149.099 33.0934C148.178 33.1656 147.342 33.4777 146.741 34.1479L148.23 35.483C148.391 35.3035 148.682 35.1323 149.255 35.0873L149.099 33.0934ZM146.752 34.135C146.146 34.7882 145.914 35.6515 145.914 36.5732H147.914C147.914 35.9715 148.063 35.663 148.218 35.4959L146.752 34.135ZM145.914 36.5732V36.5952H147.914V36.5732H145.914ZM145.914 36.5952C145.914 37.454 146.088 38.3261 146.69 38.9283L148.104 37.5141C148.062 37.4718 147.914 37.2599 147.914 36.5952H145.914ZM146.707 38.9445C147.219 39.4335 147.856 39.6826 148.562 39.6826V37.6826C148.359 37.6826 148.22 37.6241 148.088 37.4978L146.707 38.9445ZM148.562 39.6826C149.073 39.6826 149.563 39.5637 150.008 39.3063L149.006 37.5755C148.894 37.6404 148.754 37.6826 148.562 37.6826V39.6826ZM150.041 39.2864C150.499 38.997 150.837 38.5867 151.068 38.1033L149.264 37.2404C149.173 37.4309 149.071 37.5333 148.973 37.5954L150.041 39.2864ZM151.06 38.1191C151.327 37.5863 151.43 36.9732 151.43 36.3315H149.43C149.43 36.7739 149.357 37.0543 149.271 37.2247L151.06 38.1191ZM151.43 36.3315V27.5864H149.43V36.3315H151.43ZM151.43 27.5864C151.43 26.7798 151.247 25.9883 150.707 25.396L149.23 26.7446C149.304 26.8261 149.43 27.0454 149.43 27.5864H151.43ZM150.736 25.4301C150.223 24.8144 149.511 24.543 148.738 24.543V26.543C149.019 26.543 149.127 26.6231 149.2 26.7105L150.736 25.4301ZM148.738 24.543C147.986 24.543 147.276 24.7743 146.74 25.3359L148.187 26.7168C148.266 26.6339 148.405 26.543 148.738 26.543V24.543ZM146.723 25.3537C146.21 25.9182 146.015 26.6769 145.981 27.4541L147.979 27.5429C148.003 27.0018 148.13 26.7791 148.203 26.699L146.723 25.3537ZM145.98 27.4985V27.96H147.98V27.4985H145.98ZM146.98 26.96H139.729V28.96H146.98V26.96ZM140.729 27.96V27.3008H138.729V27.96H140.729ZM140.729 27.3204C140.755 25.9879 141.085 24.8313 141.702 23.8241L139.997 22.7794C139.178 24.116 138.762 25.6254 138.729 27.2812L140.729 27.3204ZM141.7 23.827C142.325 22.8149 143.232 21.998 144.461 21.3837L143.566 19.5948C142.041 20.3575 140.839 21.4156 139.999 22.7765L141.7 23.827ZM144.457 21.3856C145.678 20.7814 147.203 20.4565 149.067 20.4565V18.4565C146.977 18.4565 145.132 18.8202 143.57 19.593L144.457 21.3856ZM149.067 20.4565C151.019 20.4565 152.587 20.7641 153.811 21.3307L154.651 19.5159C153.091 18.7935 151.217 18.4565 149.067 18.4565V20.4565ZM153.822 21.336C155.053 21.8872 155.938 22.6798 156.527 23.71L158.263 22.7177C157.446 21.287 156.221 20.2192 154.64 19.5107L153.822 21.336ZM156.531 23.7177C157.139 24.7598 157.472 26.0913 157.472 27.7622H159.472C159.472 25.8296 159.086 24.1289 158.259 22.71L156.531 23.7177ZM157.472 27.7622V44H159.472V27.7622H157.472ZM158.472 43H150.43V45H158.472V43ZM151.43 44V41.2754H149.43V44H151.43ZM150.43 40.2754H150.276V42.2754H150.43V40.2754ZM149.353 40.8893C149.138 41.4028 148.844 41.8422 148.47 42.2162L149.884 43.6304C150.448 43.0669 150.886 42.4077 151.198 41.6615L149.353 40.8893ZM148.47 42.2162C148.107 42.5788 147.656 42.8727 147.099 43.0907L147.828 44.9532C148.618 44.6439 149.309 44.2054 149.884 43.6304L148.47 42.2162ZM147.092 43.0935C146.573 43.3009 145.942 43.4175 145.178 43.4175V45.4175C146.143 45.4175 147.035 45.2704 147.835 44.9505L147.092 43.0935ZM162.798 44H161.798V45H162.798V44ZM162.798 19.896V18.896H161.798V19.896H162.798ZM170.862 19.896H171.862V18.896H170.862V19.896ZM170.862 23.4775H169.862V24.4775H170.862V23.4775ZM171.016 23.4775V24.4775H171.729L171.962 23.8035L171.016 23.4775ZM173.082 20.5332L173.674 21.3392L173.682 21.3332L173.082 20.5332ZM178.904 19.9619L178.488 20.871L178.499 20.8762L178.51 20.8811L178.904 19.9619ZM180.728 21.3462L179.951 21.9754L179.959 21.9855L179.968 21.9955L180.728 21.3462ZM181.871 23.5435L180.91 23.8203L181.118 24.5435H181.871V23.5435ZM182.046 23.5435V24.5435H182.763L182.994 23.8645L182.046 23.5435ZM183.277 21.3462L182.534 20.6762L182.526 20.6864L183.277 21.3462ZM185.211 19.9619L184.821 19.0409L184.814 19.0437L185.211 19.9619ZM190.989 20.4014L190.422 21.225L190.428 21.2293L190.989 20.4014ZM193.077 23.0161L192.158 23.4101L192.162 23.42L193.077 23.0161ZM193.824 44V45H194.824V44H193.824ZM185.76 44H184.76V45H185.76V44ZM185.562 27.3228L184.613 27.639L184.622 27.6633L184.631 27.6872L185.562 27.3228ZM185.013 26.5537L184.413 27.3537L184.44 27.3745L184.47 27.3933L185.013 26.5537ZM183.123 26.5757L183.678 27.4077L183.693 27.3973L183.709 27.3864L183.123 26.5757ZM182.53 27.3667L183.461 27.7311L183.464 27.7245L183.466 27.7178L182.53 27.3667ZM182.332 44V45H183.332V44H182.332ZM174.312 44H173.312V45H174.312V44ZM174.136 27.3228L173.188 27.639L173.192 27.6513L174.136 27.3228ZM173.587 26.5537L173.01 27.3707L173.027 27.3823L173.044 27.3933L173.587 26.5537ZM171.675 26.5757L172.23 27.4078L172.24 27.401L171.675 26.5757ZM171.082 27.3667L172.013 27.7311L172.016 27.7245L172.018 27.7178L171.082 27.3667ZM170.884 44V45H171.884V44H170.884ZM163.798 44V19.896H161.798V44H163.798ZM162.798 20.896H170.862V18.896H162.798V20.896ZM169.862 19.896V23.4775H171.862V19.896H169.862ZM170.862 24.4775H171.016V22.4775H170.862V24.4775ZM171.962 23.8035C172.346 22.6899 172.925 21.889 173.674 21.3392L172.49 19.7272C171.363 20.5543 170.566 21.7164 170.071 23.1515L171.962 23.8035ZM173.682 21.3332C174.419 20.7802 175.349 20.4785 176.531 20.4785V18.4785C174.989 18.4785 173.619 18.8799 172.482 19.7332L173.682 21.3332ZM176.531 20.4785C177.286 20.4785 177.932 20.6163 178.488 20.871L179.321 19.0528C178.47 18.663 177.534 18.4785 176.531 18.4785V20.4785ZM178.51 20.8811C179.077 21.1237 179.554 21.4847 179.951 21.9754L181.505 20.717C180.906 19.9772 180.168 19.4153 179.298 19.0428L178.51 20.8811ZM179.968 21.9955C180.376 22.4735 180.695 23.074 180.91 23.8203L182.832 23.2666C182.549 22.2844 182.106 21.4201 181.489 20.6969L179.968 21.9955ZM181.871 24.5435H182.046V22.5435H181.871V24.5435ZM182.994 23.8645C183.25 23.1074 183.599 22.4946 184.028 22.006L182.526 20.6864C181.9 21.399 181.429 22.251 181.099 23.2224L182.994 23.8645ZM184.019 22.0162C184.465 21.5229 184.991 21.1458 185.607 20.8801L184.814 19.0437C183.936 19.4225 183.173 19.9683 182.535 20.6762L184.019 22.0162ZM185.6 20.8829C186.221 20.6201 186.943 20.4785 187.781 20.4785V18.4785C186.715 18.4785 185.723 18.6592 184.821 19.0409L185.6 20.8829ZM187.781 20.4785C188.855 20.4785 189.719 20.741 190.422 21.225L191.556 19.5777C190.472 18.8313 189.198 18.4785 187.781 18.4785V20.4785ZM190.428 21.2293C191.16 21.7247 191.74 22.4365 192.158 23.41L193.996 22.6222C193.446 21.3398 192.635 20.3085 191.55 19.5734L190.428 21.2293ZM192.162 23.42C192.592 24.3934 192.824 25.5828 192.824 27.0151H194.824C194.824 25.3713 194.558 23.8947 193.992 22.6122L192.162 23.42ZM192.824 27.0151V44H194.824V27.0151H192.824ZM193.824 43H185.76V45H193.824V43ZM186.76 44V28.5752H184.76V44H186.76ZM186.76 28.5752C186.76 27.9962 186.684 27.4462 186.493 26.9584L184.631 27.6872C184.704 27.8732 184.76 28.1581 184.76 28.5752H186.76ZM186.511 27.0065C186.34 26.4945 186.039 26.0268 185.556 25.7141L184.47 27.3933C184.484 27.4029 184.55 27.4479 184.613 27.639L186.511 27.0065ZM185.613 25.7537C185.16 25.4139 184.622 25.29 184.09 25.29V27.29C184.319 27.29 184.397 27.342 184.413 27.3537L185.613 25.7537ZM184.09 25.29C183.536 25.29 183 25.4314 182.538 25.765L183.709 27.3864C183.774 27.3391 183.882 27.29 184.09 27.29V25.29ZM182.568 25.7436C182.1 26.056 181.785 26.5049 181.594 27.0156L183.466 27.7178C183.538 27.5253 183.619 27.4469 183.678 27.4077L182.568 25.7436ZM181.599 27.0023C181.408 27.4901 181.332 28.0402 181.332 28.6191H183.332C183.332 28.202 183.388 27.9171 183.461 27.7311L181.599 27.0023ZM181.332 28.6191V44H183.332V28.6191H181.332ZM182.332 43H174.312V45H182.332V43ZM175.312 44V28.5752H173.312V44H175.312ZM175.312 28.5752C175.312 28.0062 175.246 27.4695 175.081 26.9942L173.192 27.6513C173.261 27.8498 173.312 28.1481 173.312 28.5752H175.312ZM175.085 27.0065C174.914 26.4945 174.613 26.0268 174.13 25.7141L173.044 27.3933C173.059 27.4029 173.124 27.4479 173.188 27.639L175.085 27.0065ZM174.164 25.7367C173.714 25.4195 173.194 25.29 172.664 25.29V27.29C172.866 27.29 172.962 27.3363 173.01 27.3707L174.164 25.7367ZM172.664 25.29C172.109 25.29 171.576 25.4318 171.111 25.7504L172.24 27.401C172.331 27.3387 172.458 27.29 172.664 27.29V25.29ZM171.121 25.7436C170.652 26.056 170.337 26.5049 170.146 27.0156L172.018 27.7178C172.091 27.5253 172.171 27.4469 172.23 27.4077L171.121 25.7436ZM170.151 27.0023C169.96 27.4901 169.884 28.0402 169.884 28.6191H171.884C171.884 28.202 171.941 27.9171 172.013 27.7311L170.151 27.0023ZM169.884 28.6191V44H171.884V28.6191H169.884ZM170.884 43H162.798V45H170.884V43ZM202.304 43.187L201.774 44.0355L201.78 44.0392L202.304 43.187ZM198.898 39.0122L197.974 39.3948L197.977 39.4035L198.898 39.0122ZM198.898 24.9277L197.979 24.5338L197.976 24.54L198.898 24.9277ZM212.697 20.8188L212.14 21.6496L212.146 21.6535L212.697 20.8188ZM215.949 24.9717L215.023 25.3495L215.026 25.3584L215.949 24.9717ZM217.091 33.9365V34.9365H218.091V33.9365H217.091ZM201.732 33.9365H200.732V34.9365H201.732V33.9365ZM201.732 29.2344V28.2344H200.732V29.2344H201.732ZM213.334 29.2344L214.087 29.8918L215.533 28.2344H213.334V29.2344ZM209.576 33.541H208.576V36.2083L210.33 34.1984L209.576 33.541ZM205.863 27.2788L206.839 27.4957L206.84 27.4912L205.863 27.2788ZM206.588 38.1333L205.85 38.8076L205.858 38.8161L205.866 38.8245L206.588 38.1333ZM208.72 38.353L209.305 39.1637L209.313 39.1581L208.72 38.353ZM209.357 37.4961L208.441 37.0934L208.435 37.1089L208.428 37.1247L209.357 37.4961ZM209.708 36.1997L208.724 36.0208L208.721 36.0375L208.719 36.0542L209.708 36.1997ZM209.752 35.958V34.958H208.918L208.768 35.7791L209.752 35.958ZM216.937 35.958L217.932 36.0575L218.042 34.958H216.937V35.958ZM216.893 36.3975L215.898 36.298L215.897 36.3083L215.896 36.3188L216.893 36.3975ZM216.124 39.5396L217.04 39.9418L217.042 39.9368L216.124 39.5396ZM211.532 43.9121L211.889 44.8464L211.895 44.8439L211.532 43.9121ZM207.643 43.5493C205.711 43.5493 204.12 43.1287 202.827 42.3348L201.78 44.0392C203.446 45.0617 205.415 45.5493 207.643 45.5493V43.5493ZM202.833 42.3385C201.554 41.5409 200.542 40.3234 199.818 38.6209L197.977 39.4035C198.836 41.4217 200.094 42.9874 201.774 44.0355L202.833 42.3385ZM199.822 38.6296C199.112 36.9146 198.733 34.6898 198.733 31.915H196.733C196.733 34.8532 197.131 37.3598 197.974 39.3948L199.822 38.6296ZM198.733 31.915V31.8931H196.733V31.915H198.733ZM198.733 31.8931C198.733 29.1792 199.111 27 199.82 25.3155L197.976 24.54C197.132 26.5469 196.733 29.0113 196.733 31.8931H198.733ZM199.817 25.3217C200.541 23.6317 201.548 22.4192 202.815 21.621L201.749 19.9288C200.086 20.9763 198.836 22.5324 197.979 24.5338L199.817 25.3217ZM202.815 21.621C204.092 20.816 205.658 20.3906 207.555 20.3906V18.3906C205.351 18.3906 203.4 18.8881 201.749 19.9288L202.815 21.621ZM207.555 20.3906C209.399 20.3906 210.911 20.8258 212.14 21.6496L213.253 19.9881C211.641 18.9076 209.725 18.3906 207.555 18.3906V20.3906ZM212.146 21.6535C213.373 22.4629 214.339 23.674 215.023 25.3494L216.874 24.5939C216.064 22.6072 214.862 21.0498 213.247 19.9842L212.146 21.6535ZM215.026 25.3584C215.722 27.0179 216.091 29.1114 216.091 31.6733H218.091C218.091 28.9325 217.698 26.5583 216.871 24.585L215.026 25.3584ZM216.091 31.6733V33.9365H218.091V31.6733H216.091ZM217.091 32.9365H201.732V34.9365H217.091V32.9365ZM202.732 33.9365V29.2344H200.732V33.9365H202.732ZM201.732 30.2344H213.334V28.2344H201.732V30.2344ZM212.58 28.577L208.823 32.8836L210.33 34.1984L214.087 29.8918L212.58 28.577ZM210.576 33.541V29.7617H208.576V33.541H210.576ZM210.576 29.7617C210.576 28.7102 210.501 27.7961 210.333 27.0399L208.381 27.4738C208.505 28.036 208.576 28.7917 208.576 29.7617H210.576ZM210.333 27.0399C210.167 26.2946 209.896 25.6173 209.452 25.1065L207.943 26.4189C208.085 26.5819 208.253 26.9007 208.381 27.4738L210.333 27.0399ZM209.452 25.1065C208.98 24.5639 208.352 24.2573 207.621 24.2573V26.2573C207.74 26.2573 207.829 26.2877 207.943 26.4189L209.452 25.1065ZM207.621 24.2573C206.887 24.2573 206.247 24.5552 205.768 25.1065L207.277 26.4189C207.383 26.2964 207.476 26.2573 207.621 26.2573V24.2573ZM205.768 25.1065C205.32 25.6211 205.05 26.3098 204.886 27.0664L206.84 27.4912C206.969 26.9002 207.138 26.5781 207.277 26.4189L205.768 25.1065ZM204.887 27.0619C204.719 27.8172 204.643 28.7236 204.643 29.7617H206.643C206.643 28.8076 206.714 28.0588 206.839 27.4957L204.887 27.0619ZM204.643 29.7617V33.6509H206.643V29.7617H204.643ZM204.643 33.6509C204.643 34.8731 204.725 35.9127 204.908 36.7442L206.862 36.3144C206.722 35.6811 206.643 34.8017 206.643 33.6509H204.643ZM204.908 36.7442C205.086 37.5495 205.371 38.2828 205.85 38.8076L207.327 37.459C207.191 37.31 207.007 36.9739 206.862 36.3144L204.908 36.7442ZM205.866 38.8245C206.371 39.3527 207.018 39.6387 207.753 39.6387V37.6387C207.58 37.6387 207.45 37.5877 207.311 37.4421L205.866 38.8245ZM207.753 39.6387C208.307 39.6387 208.843 39.4973 209.305 39.1637L208.134 37.5423C208.069 37.5896 207.96 37.6387 207.753 37.6387V39.6387ZM209.313 39.1581C209.761 38.8276 210.08 38.3817 210.285 37.8675L208.428 37.1247C208.341 37.3429 208.234 37.4683 208.126 37.548L209.313 39.1581ZM210.272 37.8988C210.477 37.4326 210.615 36.9102 210.698 36.3452L208.719 36.0542C208.656 36.4853 208.559 36.8271 208.441 37.0934L210.272 37.8988ZM210.692 36.3786L210.736 36.1369L208.768 35.7791L208.724 36.0208L210.692 36.3786ZM209.752 36.958H216.937V34.958H209.752V36.958ZM215.942 35.8585L215.898 36.298L217.888 36.497L217.932 36.0575L215.942 35.8585ZM215.896 36.3188C215.817 37.3271 215.586 38.2664 215.207 39.1423L217.042 39.9368C217.513 38.8498 217.794 37.6944 217.89 36.4762L215.896 36.3188ZM215.209 39.1373C214.835 39.9881 214.313 40.7495 213.637 41.4252L215.052 42.8394C215.899 41.9917 216.564 41.0246 217.04 39.9418L215.209 39.1373ZM213.637 41.4252C213.002 42.0611 212.187 42.5838 211.169 42.9803L211.895 44.8439C213.133 44.3615 214.193 43.6977 215.052 42.8394L213.637 41.4252ZM211.176 42.9778C210.2 43.3501 209.029 43.5493 207.643 43.5493V45.5493C209.216 45.5493 210.638 45.3237 211.889 44.8464L211.176 42.9778ZM224.736 43.4946L224.33 44.4085L224.341 44.4133L224.736 43.4946ZM221.374 40.792L220.545 41.3515L220.548 41.3563L221.374 40.792ZM220.144 36.6611H219.144V36.6704L219.144 36.6796L220.144 36.6611ZM220.144 36.2437V35.2437H219.144V36.2437H220.144ZM227.9 36.2437H228.9V35.2437H227.9V36.2437ZM227.9 36.9248H226.9V36.9465L226.901 36.9682L227.9 36.9248ZM228.405 38.397L227.698 39.1041L227.706 39.1123L227.715 39.1203L228.405 38.397ZM230.646 38.7046L231.027 39.6293L231.05 39.6199L231.072 39.6094L230.646 38.7046ZM228.933 35.167L229.258 34.2215L229.251 34.219L229.244 34.2166L228.933 35.167ZM226.516 34.376L226.184 35.3193L226.194 35.323L226.205 35.3264L226.516 34.376ZM223.198 32.6621L222.581 33.4494L222.589 33.4557L223.198 32.6621ZM221.77 23.104L220.947 22.5348L220.942 22.542L221.77 23.104ZM225.043 20.4233L224.627 19.5143L224.623 19.5159L225.043 20.4233ZM234.689 20.4453L234.246 21.3418L234.258 21.3474L234.689 20.4453ZM237.81 23.1479L236.965 23.6827L236.969 23.689L236.973 23.6952L237.81 23.1479ZM238.93 27.6523V28.6523H239.93V27.6523H238.93ZM231.701 27.6523H230.701V28.6523H231.701V27.6523ZM231.701 27.125H232.701V27.1139L232.701 27.1028L231.701 27.125ZM231.218 25.5869L230.437 26.2116L230.444 26.2209L230.452 26.2301L231.218 25.5869ZM229.086 25.2134L228.661 24.3086L228.65 24.3136L228.639 24.319L229.086 25.2134ZM228.537 25.7188L227.68 25.2043L227.674 25.2134L227.669 25.2226L228.537 25.7188ZM228.581 27.3228L227.719 27.8298L227.737 27.8602L227.757 27.8893L228.581 27.3228ZM229.328 27.9819L228.808 28.8361L228.83 28.8492L228.852 28.8612L229.328 27.9819ZM230.734 28.5752L230.404 29.5191L230.412 29.522L230.421 29.5247L230.734 28.5752ZM233.129 29.3662L233.459 28.422L233.451 28.4192L233.443 28.4167L233.129 29.3662ZM234.953 43.4946L235.358 44.4089L235.366 44.4053L234.953 43.4946ZM229.965 43.4395C228.045 43.4395 226.442 43.1399 225.131 42.576L224.341 44.4133C225.959 45.1091 227.843 45.4395 229.965 45.4395V43.4395ZM225.142 42.5808C223.838 42.0014 222.873 41.2123 222.2 40.2277L220.548 41.3563C221.457 42.6862 222.733 43.6988 224.33 44.4084L225.142 42.5808ZM222.203 40.2325C221.532 39.2393 221.17 38.0554 221.143 36.6426L219.144 36.6796C219.176 38.431 219.634 40.0009 220.545 41.3515L222.203 40.2325ZM221.144 36.6611V36.2437H219.144V36.6611H221.144ZM220.144 37.2437H227.9V35.2437H220.144V37.2437ZM226.9 36.2437V36.9248H228.9V36.2437H226.9ZM226.901 36.9682C226.935 37.7596 227.138 38.544 227.698 39.1041L229.112 37.6899C229.057 37.6347 228.923 37.4377 228.899 36.8814L226.901 36.9682ZM227.715 39.1203C228.276 39.6559 229.008 39.8584 229.768 39.8584V37.8584C229.355 37.8584 229.179 37.7533 229.096 37.6736L227.715 39.1203ZM229.768 39.8584C230.203 39.8584 230.631 39.7923 231.027 39.6293L230.266 37.7799C230.164 37.8219 230.006 37.8584 229.768 37.8584V39.8584ZM231.072 39.6094C231.469 39.4229 231.813 39.1447 232.059 38.7619L230.377 37.6804C230.359 37.7079 230.322 37.7519 230.221 37.7998L231.072 39.6094ZM232.059 38.7619C232.309 38.3736 232.416 37.9383 232.416 37.4961H230.416C230.416 37.6105 230.391 37.6586 230.377 37.6804L232.059 38.7619ZM232.416 37.4961V37.4741H230.416V37.4961H232.416ZM232.416 37.4741C232.416 36.6861 232.101 35.9988 231.537 35.4569L230.151 36.8986C230.349 37.0891 230.416 37.266 230.416 37.4741H232.416ZM231.537 35.4569C230.999 34.9394 230.197 34.5448 229.258 34.2215L228.607 36.1125C229.455 36.4044 229.928 36.6837 230.151 36.8986L231.537 35.4569ZM229.244 34.2166L226.827 33.4256L226.205 35.3264L228.622 36.1174L229.244 34.2166ZM226.847 33.4326C225.588 32.9897 224.582 32.4632 223.806 31.8685L222.589 33.4557C223.571 34.2087 224.777 34.8248 226.184 35.3193L226.847 33.4326ZM223.814 31.8749C223.045 31.2721 222.499 30.5939 222.148 29.8434L220.336 30.6908C220.835 31.7567 221.593 32.6752 222.581 33.4493L223.814 31.8749ZM222.148 29.8434C221.796 29.09 221.605 28.1917 221.605 27.125H219.605C219.605 28.4314 219.839 29.6278 220.336 30.6908L222.148 29.8434ZM221.605 27.125V27.0811H219.605V27.125H221.605ZM221.605 27.0811C221.605 25.7534 221.943 24.6275 222.597 23.666L220.942 22.542C220.043 23.8656 219.605 25.3912 219.605 27.0811H221.605ZM222.592 23.6732C223.271 22.692 224.217 21.9083 225.464 21.3307L224.623 19.5159C223.087 20.2274 221.85 21.2308 220.947 22.5348L222.592 23.6732ZM225.46 21.3324C226.712 20.7587 228.198 20.4565 229.943 20.4565V18.4565C227.968 18.4565 226.188 18.7989 224.627 19.5143L225.46 21.3324ZM229.943 20.4565C231.656 20.4565 233.079 20.7646 234.246 21.3417L235.133 19.5489C233.634 18.8076 231.893 18.4565 229.943 18.4565V20.4565ZM234.258 21.3474C235.452 21.9185 236.342 22.6987 236.965 23.6827L238.655 22.6132C237.812 21.2827 236.622 20.2612 235.121 19.5432L234.258 21.3474ZM236.973 23.6952C237.602 24.6582 237.93 25.7894 237.93 27.125H239.93C239.93 25.4431 239.511 23.9229 238.647 22.6007L236.973 23.6952ZM237.93 27.125V27.6523H239.93V27.125H237.93ZM238.93 26.6523H231.701V28.6523H238.93V26.6523ZM232.701 27.6523V27.125H230.701V27.6523H232.701ZM232.701 27.1028C232.683 26.3013 232.484 25.5399 231.983 24.9437L230.452 26.2301C230.566 26.3663 230.69 26.6304 230.701 27.1472L232.701 27.1028ZM231.999 24.9622C231.485 24.3202 230.758 24.0376 229.965 24.0376V26.0376C230.257 26.0376 230.365 26.1212 230.437 26.2116L231.999 24.9622ZM229.965 24.0376C229.514 24.0376 229.069 24.1162 228.661 24.3086L229.512 26.1182C229.602 26.0761 229.743 26.0376 229.965 26.0376V24.0376ZM228.639 24.319C228.239 24.5192 227.912 24.8176 227.68 25.2043L229.395 26.2332C229.426 26.1805 229.465 26.142 229.534 26.1078L228.639 24.319ZM227.669 25.2226C227.451 25.6038 227.361 26.0227 227.361 26.4438H229.361C229.361 26.3083 229.389 26.2439 229.405 26.2149L227.669 25.2226ZM227.361 26.4438V26.4878H229.361V26.4438H227.361ZM227.361 26.4878C227.361 26.9617 227.476 27.4171 227.719 27.8298L229.443 26.8157C229.393 26.7304 229.361 26.6291 229.361 26.4878H227.361ZM227.757 27.8893C228.023 28.2757 228.394 28.5843 228.808 28.8361L229.848 27.1277C229.588 26.9695 229.462 26.8385 229.405 26.7562L227.757 27.8893ZM228.852 28.8612C229.268 29.0869 229.792 29.3049 230.404 29.5191L231.065 27.6313C230.505 27.4354 230.091 27.2579 229.804 27.1026L228.852 28.8612ZM230.421 29.5247L232.816 30.3158L233.443 28.4167L231.048 27.6256L230.421 29.5247ZM232.8 30.3105C234.944 31.0578 236.36 31.9476 237.179 32.9134L238.704 31.6198C237.56 30.2711 235.768 29.2273 233.459 28.422L232.8 30.3105ZM237.179 32.9134C237.979 33.8574 238.414 35.0937 238.414 36.7051H240.414C240.414 34.713 239.866 32.9903 238.704 31.6198L237.179 32.9134ZM238.414 36.7051V36.7271H240.414V36.7051H238.414ZM238.414 36.7271C238.414 38.1049 238.072 39.2609 237.419 40.2349L239.079 41.3491C239.979 40.0086 240.414 38.4547 240.414 36.7271H238.414ZM237.419 40.2349C236.758 41.2198 235.812 42.0067 234.54 42.5839L235.366 44.4053C236.936 43.6935 238.188 42.6786 239.079 41.3491L237.419 40.2349ZM234.548 42.5804C233.28 43.1425 231.761 43.4395 229.965 43.4395V45.4395C231.979 45.4395 233.785 45.1065 235.358 44.4088L234.548 42.5804Z" fill="url(#paint1_radial_286_30518)" mask="url(#path-1-outside-1_286_30518)"/>
</g>
<defs>
<filter id="filter0_f_286_30518" x="0.20166" y="0.876465" width="248.212" height="52.6729" filterUnits="userSpaceOnUse" color-interpolation-filters="sRGB">
<feFlood flood-opacity="0" result="BackgroundImageFix"/>
<feBlend mode="normal" in="SourceGraphic" in2="BackgroundImageFix" result="shape"/>
<feGaussianBlur stdDeviation="4" result="effect1_foregroundBlur_286_30518"/>
</filter>
<radialGradient id="paint0_radial_286_30518" cx="0" cy="0" r="1" gradientUnits="userSpaceOnUse" gradientTransform="translate(47.9754 28.2319) rotate(-4.46799) scale(208.362 53.3587)">
<stop offset="0.0328283" stop-color="#00B0F5"/>
<stop offset="0.37" stop-color="#7140CC"/>
<stop offset="0.695" stop-color="#FF00A2"/>
<stop offset="1" stop-color="#E35E3E"/>
</radialGradient>
<radialGradient id="paint1_radial_286_30518" cx="0" cy="0" r="1" gradientUnits="userSpaceOnUse" gradientTransform="translate(53.697 0.0749203) rotate(12.0393) scale(199.735 124.986)">
<stop offset="0.0328283" stop-color="#00B0F5"/>
<stop offset="0.37" stop-color="#7140CC"/>
<stop offset="0.695" stop-color="#FF00A2"/>
<stop offset="1" stop-color="#E35E3E"/>
</radialGradient>
</defs>
</svg>
