<svg
  width="249"
  height="54"
  viewBox="0 0 249 54"
  fill="none"
  xmlns="http://www.w3.org/2000/svg"
>
  <g opacity="0.6" filter="url(#filter0_f_126_4515)">
    <mask
      id="path-1-outside-1_126_4515"
      maskUnits="userSpaceOnUse"
      x="8"
      y="8"
      width="233"
      height="38"
      fill="black"
    >
      <rect fill="white" x="8" y="8" width="233" height="38" />
      <path d="M20.6343 44.5054C18.7153 44.4907 17.0381 44.1392 15.6025 43.4507C14.167 42.7622 12.9731 41.7368 12.021 40.3745C11.0688 39.0122 10.3511 37.313 9.86768 35.2769C9.38428 33.2407 9.14258 30.8604 9.14258 28.1357V28.0918C9.14258 24.459 9.56738 21.4414 10.417 19.0391C11.2812 16.6221 12.563 14.813 14.2622 13.6118C15.9614 12.396 18.0854 11.7881 20.6343 11.7881C23.0659 11.7881 25.0581 12.2715 26.6108 13.2383C28.1782 14.2051 29.3574 15.5088 30.1484 17.1494C30.9541 18.7754 31.4375 20.5845 31.5986 22.5767L31.6646 23.5654H23.5127L23.4688 22.6206C23.3369 21.5806 23.0659 20.709 22.6558 20.0059C22.2456 19.2881 21.6377 18.9292 20.832 18.9292C20.1436 18.9292 19.5576 19.2222 19.0742 19.8081C18.6055 20.394 18.2466 21.3535 17.9976 22.6865C17.7632 24.0195 17.646 25.814 17.646 28.0698V28.1138C17.646 29.7837 17.7119 31.2046 17.8438 32.3765C17.9902 33.5483 18.2026 34.5005 18.481 35.2329C18.7593 35.9653 19.0962 36.5073 19.4917 36.8589C19.9019 37.1958 20.3706 37.3643 20.8979 37.3643C21.5425 37.3643 22.0771 37.1445 22.502 36.7051C22.9414 36.2656 23.271 35.6797 23.4907 34.9473C23.7104 34.2148 23.8276 33.4092 23.8423 32.5303V32.1787H20.854V26.2681H31.8843V30.5747C31.8843 32.8306 31.6499 34.8301 31.1812 36.5732C30.7271 38.3164 30.0312 39.7812 29.0938 40.9678C28.1562 42.1396 26.9771 43.0259 25.5562 43.6265C24.1499 44.2271 22.5093 44.52 20.6343 44.5054ZM36.0573 44V19.896H44.1213V44H36.0573ZM40.0783 18.0063C38.965 18.0063 38.0129 17.6108 37.2219 16.8198C36.4455 16.0142 36.0573 15.0547 36.0573 13.9414C36.0573 12.8428 36.4455 11.8906 37.2219 11.085C38.0129 10.2793 38.965 9.87646 40.0783 9.87646C41.2062 9.87646 42.1584 10.2793 42.9348 11.085C43.7111 11.8906 44.0993 12.8428 44.0993 13.9414C44.0993 15.0547 43.7111 16.0142 42.9348 16.8198C42.1584 17.6108 41.2062 18.0063 40.0783 18.0063ZM50.3158 44V26.0264H47.6132V19.896H50.3158V18.8193C50.3158 17.3252 50.5868 16.0581 51.1288 15.0181C51.6854 13.978 52.5351 13.1943 53.6776 12.667C54.8349 12.125 56.329 11.854 58.1601 11.854C58.9804 11.854 59.6908 11.8906 60.2914 11.9639C60.9066 12.0371 61.434 12.125 61.8734 12.2275V17.2812C61.7123 17.252 61.5219 17.23 61.3021 17.2153C61.0824 17.2007 60.8261 17.1934 60.5331 17.1934C59.7714 17.1934 59.1781 17.3618 58.7533 17.6987C58.3432 18.0356 58.1381 18.5483 58.1381 19.2368V19.896H61.8734V26.0264H58.3798V44H50.3158ZM75.0333 44.4395C72.4112 44.4395 70.419 43.8389 69.0567 42.6377C67.6944 41.4365 67.0133 39.459 67.0133 36.7051V26.0264H64.5523V19.896H67.0133V14.4907H75.0992V19.896H78.2853V26.0264H75.0992V35.958C75.0992 36.8516 75.275 37.4741 75.6266 37.8257C75.9781 38.1626 76.586 38.3311 77.4503 38.3311C77.6261 38.3311 77.7799 38.3237 77.9117 38.3091C78.0582 38.2944 78.1974 38.2798 78.3292 38.2651V44.022C77.8751 44.1392 77.3697 44.2344 76.8131 44.3076C76.2564 44.3955 75.6632 44.4395 75.0333 44.4395ZM91.0936 44.4395C89.0721 44.4395 87.3289 44.1245 85.8641 43.4946C84.4139 42.8501 83.2933 41.9492 82.5022 40.792C81.7112 39.6201 81.3011 38.2432 81.2718 36.6611V36.2437H89.0281V36.9248C89.0574 37.5986 89.2259 38.0894 89.5335 38.397C89.8558 38.7046 90.3099 38.8584 90.8958 38.8584C91.2327 38.8584 91.5257 38.8071 91.7747 38.7046C92.0237 38.5874 92.2142 38.4263 92.346 38.2212C92.4778 38.0161 92.5437 37.7744 92.5437 37.4961V37.4741C92.5437 36.9761 92.3533 36.5439 91.9725 36.1777C91.5916 35.8115 90.9544 35.4746 90.0608 35.167L87.6438 34.376C86.3108 33.9072 85.2049 33.3359 84.326 32.6621C83.4471 31.9736 82.7952 31.1753 82.3704 30.2671C81.9456 29.3589 81.7332 28.3115 81.7332 27.125V27.0811C81.7332 25.5723 82.1214 24.2466 82.8978 23.104C83.6888 21.9614 84.7801 21.0679 86.1717 20.4233C87.5779 19.7788 89.2112 19.4565 91.0716 19.4565C92.9026 19.4565 94.4847 19.7861 95.8177 20.4453C97.1653 21.0898 98.2054 21.9907 98.9378 23.1479C99.6849 24.2905 100.058 25.6162 100.058 27.125V27.6523H92.8294V27.125C92.8147 26.4658 92.6536 25.9531 92.346 25.5869C92.053 25.2207 91.6355 25.0376 91.0936 25.0376C90.7566 25.0376 90.4637 25.0962 90.2146 25.2134C89.9803 25.3306 89.7972 25.499 89.6653 25.7188C89.5481 25.9238 89.4895 26.1655 89.4895 26.4438V26.4878C89.4895 26.7954 89.5628 27.0737 89.7093 27.3228C89.8704 27.5571 90.1194 27.7769 90.4563 27.9819C90.8079 28.1724 91.2767 28.3701 91.8626 28.5752L94.2576 29.3662C96.4842 30.1426 98.0882 31.1094 99.0696 32.2666C100.051 33.4238 100.542 34.9033 100.542 36.7051V36.7271C100.542 38.2798 100.154 39.6348 99.3772 40.792C98.6009 41.9492 97.5022 42.8501 96.0813 43.4946C94.6604 44.1245 92.9978 44.4395 91.0936 44.4395ZM124.423 44.5054C122.504 44.4907 120.826 44.1392 119.391 43.4507C117.955 42.7622 116.761 41.7368 115.809 40.3745C114.857 39.0122 114.139 37.313 113.656 35.2769C113.173 33.2407 112.931 30.8604 112.931 28.1357V28.0918C112.931 24.459 113.356 21.4414 114.205 19.0391C115.07 16.6221 116.351 14.813 118.05 13.6118C119.75 12.396 121.874 11.7881 124.423 11.7881C126.854 11.7881 128.846 12.2715 130.399 13.2383C131.967 14.2051 133.146 15.5088 133.937 17.1494C134.742 18.7754 135.226 20.5845 135.387 22.5767L135.453 23.5654H127.301L127.257 22.6206C127.125 21.5806 126.854 20.709 126.444 20.0059C126.034 19.2881 125.426 18.9292 124.62 18.9292C123.932 18.9292 123.346 19.2222 122.863 19.8081C122.394 20.394 122.035 21.3535 121.786 22.6865C121.551 24.0195 121.434 25.814 121.434 28.0698V28.1138C121.434 29.7837 121.5 31.2046 121.632 32.3765C121.779 33.5483 121.991 34.5005 122.269 35.2329C122.548 35.9653 122.884 36.5073 123.28 36.8589C123.69 37.1958 124.159 37.3643 124.686 37.3643C125.331 37.3643 125.865 37.1445 126.29 36.7051C126.73 36.2656 127.059 35.6797 127.279 34.9473C127.499 34.2148 127.616 33.4092 127.631 32.5303V32.1787H124.642V26.2681H135.673V30.5747C135.673 32.8306 135.438 34.8301 134.969 36.5732C134.515 38.3164 133.82 39.7812 132.882 40.9678C131.945 42.1396 130.765 43.0259 129.344 43.6265C127.938 44.2271 126.298 44.52 124.423 44.5054ZM145.119 44.4175C143.859 44.4175 142.768 44.1392 141.845 43.5825C140.922 43.0259 140.212 42.2349 139.714 41.2095C139.216 40.1694 138.967 38.9316 138.967 37.4961V37.4521C138.967 36.002 139.26 34.7202 139.846 33.6069C140.446 32.479 141.406 31.5635 142.724 30.8604C144.057 30.1572 145.815 29.7104 147.997 29.52L154.435 28.9927V33.6289L149.118 34.0903C148.371 34.1489 147.807 34.3906 147.426 34.8154C147.045 35.2256 146.855 35.8115 146.855 36.5732V36.5952C146.855 37.3569 147.016 37.8989 147.338 38.2212C147.661 38.5288 148.049 38.6826 148.503 38.6826C148.854 38.6826 149.169 38.6021 149.448 38.4409C149.726 38.2651 149.946 38.0088 150.107 37.6719C150.283 37.3203 150.371 36.8735 150.371 36.3315V27.5864C150.371 26.9126 150.217 26.4072 149.909 26.0703C149.616 25.7188 149.206 25.543 148.679 25.543C148.137 25.543 147.712 25.7041 147.404 26.0264C147.111 26.3486 146.95 26.8394 146.921 27.4985V27.96H139.67V27.3008C139.699 25.8066 140.073 24.4736 140.79 23.3018C141.523 22.1152 142.578 21.1777 143.954 20.4893C145.346 19.8008 147.031 19.4565 149.008 19.4565C151.059 19.4565 152.78 19.7788 154.172 20.4233C155.578 21.0532 156.633 21.9834 157.336 23.2139C158.054 24.4443 158.413 25.9604 158.413 27.7622V44H150.371V41.2754H150.217C149.953 41.9053 149.587 42.4546 149.118 42.9233C148.649 43.3921 148.078 43.7583 147.404 44.022C146.745 44.2856 145.983 44.4175 145.119 44.4175ZM162.739 44V19.896H170.803V23.4775H170.957C171.397 22.2031 172.085 21.2217 173.023 20.5332C173.96 19.8301 175.11 19.4785 176.472 19.4785C177.351 19.4785 178.142 19.6396 178.845 19.9619C179.563 20.2695 180.171 20.731 180.669 21.3462C181.182 21.9468 181.563 22.6792 181.812 23.5435H181.987C182.28 22.6792 182.691 21.9468 183.218 21.3462C183.76 20.7456 184.404 20.2842 185.151 19.9619C185.913 19.6396 186.77 19.4785 187.722 19.4785C188.967 19.4785 190.037 19.7861 190.93 20.4014C191.838 21.0166 192.534 21.8882 193.018 23.0161C193.516 24.144 193.765 25.4771 193.765 27.0151V44H185.701V28.5752C185.701 28.0771 185.635 27.6597 185.503 27.3228C185.386 26.9712 185.203 26.7148 184.954 26.5537C184.719 26.3779 184.412 26.29 184.031 26.29C183.65 26.29 183.328 26.3853 183.064 26.5757C182.8 26.7515 182.603 27.0151 182.471 27.3667C182.339 27.7036 182.273 28.1211 182.273 28.6191V44H174.253V28.5752C174.253 28.0771 174.194 27.6597 174.077 27.3228C173.96 26.9712 173.777 26.7148 173.528 26.5537C173.279 26.3779 172.971 26.29 172.605 26.29C172.224 26.29 171.895 26.3853 171.616 26.5757C171.353 26.7515 171.155 27.0151 171.023 27.3667C170.891 27.7036 170.825 28.1211 170.825 28.6191V44H162.739ZM207.584 44.5493C205.504 44.5493 203.724 44.0952 202.244 43.187C200.765 42.2642 199.63 40.8726 198.839 39.0122C198.062 37.1372 197.674 34.7715 197.674 31.915V31.8931C197.674 29.0952 198.062 26.7734 198.839 24.9277C199.63 23.082 200.758 21.6978 202.222 20.7749C203.687 19.8521 205.445 19.3906 207.496 19.3906C209.503 19.3906 211.217 19.8667 212.637 20.8188C214.058 21.7563 215.142 23.1406 215.889 24.9717C216.651 26.7881 217.032 29.022 217.032 31.6733V33.9365H201.673V29.2344H213.275L209.517 33.541V29.7617C209.517 28.751 209.444 27.916 209.298 27.2568C209.151 26.5977 208.931 26.0996 208.638 25.7627C208.346 25.4258 207.987 25.2573 207.562 25.2573C207.122 25.2573 206.756 25.4258 206.463 25.7627C206.17 26.0996 205.95 26.605 205.804 27.2788C205.658 27.938 205.584 28.7656 205.584 29.7617V33.6509C205.584 34.8374 205.665 35.7969 205.826 36.5293C205.987 37.2617 206.221 37.7964 206.529 38.1333C206.851 38.4702 207.24 38.6387 207.694 38.6387C208.075 38.6387 208.397 38.5435 208.66 38.353C208.939 38.1479 209.151 37.8623 209.298 37.4961C209.459 37.1299 209.576 36.6978 209.649 36.1997L209.693 35.958H216.878L216.834 36.3975C216.746 37.5107 216.49 38.5581 216.065 39.5396C215.64 40.5063 215.047 41.3706 214.285 42.1323C213.538 42.8794 212.601 43.4727 211.473 43.9121C210.36 44.3369 209.063 44.5493 207.584 44.5493ZM229.906 44.4395C227.885 44.4395 226.142 44.1245 224.677 43.4946C223.227 42.8501 222.106 41.9492 221.315 40.792C220.524 39.6201 220.114 38.2432 220.084 36.6611V36.2437H227.841V36.9248C227.87 37.5986 228.039 38.0894 228.346 38.397C228.668 38.7046 229.123 38.8584 229.708 38.8584C230.045 38.8584 230.338 38.8071 230.587 38.7046C230.836 38.5874 231.027 38.4263 231.159 38.2212C231.291 38.0161 231.356 37.7744 231.356 37.4961V37.4741C231.356 36.9761 231.166 36.5439 230.785 36.1777C230.404 35.8115 229.767 35.4746 228.874 35.167L226.457 34.376C225.124 33.9072 224.018 33.3359 223.139 32.6621C222.26 31.9736 221.608 31.1753 221.183 30.2671C220.758 29.3589 220.546 28.3115 220.546 27.125V27.0811C220.546 25.5723 220.934 24.2466 221.71 23.104C222.501 21.9614 223.593 21.0679 224.984 20.4233C226.391 19.7788 228.024 19.4565 229.884 19.4565C231.715 19.4565 233.297 19.7861 234.63 20.4453C235.978 21.0898 237.018 21.9907 237.75 23.1479C238.498 24.2905 238.871 25.6162 238.871 27.125V27.6523H231.642V27.125C231.627 26.4658 231.466 25.9531 231.159 25.5869C230.866 25.2207 230.448 25.0376 229.906 25.0376C229.569 25.0376 229.276 25.0962 229.027 25.2134C228.793 25.3306 228.61 25.499 228.478 25.7188C228.361 25.9238 228.302 26.1655 228.302 26.4438V26.4878C228.302 26.7954 228.375 27.0737 228.522 27.3228C228.683 27.5571 228.932 27.7769 229.269 27.9819C229.621 28.1724 230.089 28.3701 230.675 28.5752L233.07 29.3662C235.297 30.1426 236.901 31.1094 237.882 32.2666C238.864 33.4238 239.354 34.9033 239.354 36.7051V36.7271C239.354 38.2798 238.966 39.6348 238.19 40.792C237.414 41.9492 236.315 42.8501 234.894 43.4946C233.473 44.1245 231.811 44.4395 229.906 44.4395Z" />
    </mask>
    <path
      d="M20.6343 44.5054C18.7153 44.4907 17.0381 44.1392 15.6025 43.4507C14.167 42.7622 12.9731 41.7368 12.021 40.3745C11.0688 39.0122 10.3511 37.313 9.86768 35.2769C9.38428 33.2407 9.14258 30.8604 9.14258 28.1357V28.0918C9.14258 24.459 9.56738 21.4414 10.417 19.0391C11.2812 16.6221 12.563 14.813 14.2622 13.6118C15.9614 12.396 18.0854 11.7881 20.6343 11.7881C23.0659 11.7881 25.0581 12.2715 26.6108 13.2383C28.1782 14.2051 29.3574 15.5088 30.1484 17.1494C30.9541 18.7754 31.4375 20.5845 31.5986 22.5767L31.6646 23.5654H23.5127L23.4688 22.6206C23.3369 21.5806 23.0659 20.709 22.6558 20.0059C22.2456 19.2881 21.6377 18.9292 20.832 18.9292C20.1436 18.9292 19.5576 19.2222 19.0742 19.8081C18.6055 20.394 18.2466 21.3535 17.9976 22.6865C17.7632 24.0195 17.646 25.814 17.646 28.0698V28.1138C17.646 29.7837 17.7119 31.2046 17.8438 32.3765C17.9902 33.5483 18.2026 34.5005 18.481 35.2329C18.7593 35.9653 19.0962 36.5073 19.4917 36.8589C19.9019 37.1958 20.3706 37.3643 20.8979 37.3643C21.5425 37.3643 22.0771 37.1445 22.502 36.7051C22.9414 36.2656 23.271 35.6797 23.4907 34.9473C23.7104 34.2148 23.8276 33.4092 23.8423 32.5303V32.1787H20.854V26.2681H31.8843V30.5747C31.8843 32.8306 31.6499 34.8301 31.1812 36.5732C30.7271 38.3164 30.0312 39.7812 29.0938 40.9678C28.1562 42.1396 26.9771 43.0259 25.5562 43.6265C24.1499 44.2271 22.5093 44.52 20.6343 44.5054ZM36.0573 44V19.896H44.1213V44H36.0573ZM40.0783 18.0063C38.965 18.0063 38.0129 17.6108 37.2219 16.8198C36.4455 16.0142 36.0573 15.0547 36.0573 13.9414C36.0573 12.8428 36.4455 11.8906 37.2219 11.085C38.0129 10.2793 38.965 9.87646 40.0783 9.87646C41.2062 9.87646 42.1584 10.2793 42.9348 11.085C43.7111 11.8906 44.0993 12.8428 44.0993 13.9414C44.0993 15.0547 43.7111 16.0142 42.9348 16.8198C42.1584 17.6108 41.2062 18.0063 40.0783 18.0063ZM50.3158 44V26.0264H47.6132V19.896H50.3158V18.8193C50.3158 17.3252 50.5868 16.0581 51.1288 15.0181C51.6854 13.978 52.5351 13.1943 53.6776 12.667C54.8349 12.125 56.329 11.854 58.1601 11.854C58.9804 11.854 59.6908 11.8906 60.2914 11.9639C60.9066 12.0371 61.434 12.125 61.8734 12.2275V17.2812C61.7123 17.252 61.5219 17.23 61.3021 17.2153C61.0824 17.2007 60.8261 17.1934 60.5331 17.1934C59.7714 17.1934 59.1781 17.3618 58.7533 17.6987C58.3432 18.0356 58.1381 18.5483 58.1381 19.2368V19.896H61.8734V26.0264H58.3798V44H50.3158ZM75.0333 44.4395C72.4112 44.4395 70.419 43.8389 69.0567 42.6377C67.6944 41.4365 67.0133 39.459 67.0133 36.7051V26.0264H64.5523V19.896H67.0133V14.4907H75.0992V19.896H78.2853V26.0264H75.0992V35.958C75.0992 36.8516 75.275 37.4741 75.6266 37.8257C75.9781 38.1626 76.586 38.3311 77.4503 38.3311C77.6261 38.3311 77.7799 38.3237 77.9117 38.3091C78.0582 38.2944 78.1974 38.2798 78.3292 38.2651V44.022C77.8751 44.1392 77.3697 44.2344 76.8131 44.3076C76.2564 44.3955 75.6632 44.4395 75.0333 44.4395ZM91.0936 44.4395C89.0721 44.4395 87.3289 44.1245 85.8641 43.4946C84.4139 42.8501 83.2933 41.9492 82.5022 40.792C81.7112 39.6201 81.3011 38.2432 81.2718 36.6611V36.2437H89.0281V36.9248C89.0574 37.5986 89.2259 38.0894 89.5335 38.397C89.8558 38.7046 90.3099 38.8584 90.8958 38.8584C91.2327 38.8584 91.5257 38.8071 91.7747 38.7046C92.0237 38.5874 92.2142 38.4263 92.346 38.2212C92.4778 38.0161 92.5437 37.7744 92.5437 37.4961V37.4741C92.5437 36.9761 92.3533 36.5439 91.9725 36.1777C91.5916 35.8115 90.9544 35.4746 90.0608 35.167L87.6438 34.376C86.3108 33.9072 85.2049 33.3359 84.326 32.6621C83.4471 31.9736 82.7952 31.1753 82.3704 30.2671C81.9456 29.3589 81.7332 28.3115 81.7332 27.125V27.0811C81.7332 25.5723 82.1214 24.2466 82.8978 23.104C83.6888 21.9614 84.7801 21.0679 86.1717 20.4233C87.5779 19.7788 89.2112 19.4565 91.0716 19.4565C92.9026 19.4565 94.4847 19.7861 95.8177 20.4453C97.1653 21.0898 98.2054 21.9907 98.9378 23.1479C99.6849 24.2905 100.058 25.6162 100.058 27.125V27.6523H92.8294V27.125C92.8147 26.4658 92.6536 25.9531 92.346 25.5869C92.053 25.2207 91.6355 25.0376 91.0936 25.0376C90.7566 25.0376 90.4637 25.0962 90.2146 25.2134C89.9803 25.3306 89.7972 25.499 89.6653 25.7188C89.5481 25.9238 89.4895 26.1655 89.4895 26.4438V26.4878C89.4895 26.7954 89.5628 27.0737 89.7093 27.3228C89.8704 27.5571 90.1194 27.7769 90.4563 27.9819C90.8079 28.1724 91.2767 28.3701 91.8626 28.5752L94.2576 29.3662C96.4842 30.1426 98.0882 31.1094 99.0696 32.2666C100.051 33.4238 100.542 34.9033 100.542 36.7051V36.7271C100.542 38.2798 100.154 39.6348 99.3772 40.792C98.6009 41.9492 97.5022 42.8501 96.0813 43.4946C94.6604 44.1245 92.9978 44.4395 91.0936 44.4395ZM124.423 44.5054C122.504 44.4907 120.826 44.1392 119.391 43.4507C117.955 42.7622 116.761 41.7368 115.809 40.3745C114.857 39.0122 114.139 37.313 113.656 35.2769C113.173 33.2407 112.931 30.8604 112.931 28.1357V28.0918C112.931 24.459 113.356 21.4414 114.205 19.0391C115.07 16.6221 116.351 14.813 118.05 13.6118C119.75 12.396 121.874 11.7881 124.423 11.7881C126.854 11.7881 128.846 12.2715 130.399 13.2383C131.967 14.2051 133.146 15.5088 133.937 17.1494C134.742 18.7754 135.226 20.5845 135.387 22.5767L135.453 23.5654H127.301L127.257 22.6206C127.125 21.5806 126.854 20.709 126.444 20.0059C126.034 19.2881 125.426 18.9292 124.62 18.9292C123.932 18.9292 123.346 19.2222 122.863 19.8081C122.394 20.394 122.035 21.3535 121.786 22.6865C121.551 24.0195 121.434 25.814 121.434 28.0698V28.1138C121.434 29.7837 121.5 31.2046 121.632 32.3765C121.779 33.5483 121.991 34.5005 122.269 35.2329C122.548 35.9653 122.884 36.5073 123.28 36.8589C123.69 37.1958 124.159 37.3643 124.686 37.3643C125.331 37.3643 125.865 37.1445 126.29 36.7051C126.73 36.2656 127.059 35.6797 127.279 34.9473C127.499 34.2148 127.616 33.4092 127.631 32.5303V32.1787H124.642V26.2681H135.673V30.5747C135.673 32.8306 135.438 34.8301 134.969 36.5732C134.515 38.3164 133.82 39.7812 132.882 40.9678C131.945 42.1396 130.765 43.0259 129.344 43.6265C127.938 44.2271 126.298 44.52 124.423 44.5054ZM145.119 44.4175C143.859 44.4175 142.768 44.1392 141.845 43.5825C140.922 43.0259 140.212 42.2349 139.714 41.2095C139.216 40.1694 138.967 38.9316 138.967 37.4961V37.4521C138.967 36.002 139.26 34.7202 139.846 33.6069C140.446 32.479 141.406 31.5635 142.724 30.8604C144.057 30.1572 145.815 29.7104 147.997 29.52L154.435 28.9927V33.6289L149.118 34.0903C148.371 34.1489 147.807 34.3906 147.426 34.8154C147.045 35.2256 146.855 35.8115 146.855 36.5732V36.5952C146.855 37.3569 147.016 37.8989 147.338 38.2212C147.661 38.5288 148.049 38.6826 148.503 38.6826C148.854 38.6826 149.169 38.6021 149.448 38.4409C149.726 38.2651 149.946 38.0088 150.107 37.6719C150.283 37.3203 150.371 36.8735 150.371 36.3315V27.5864C150.371 26.9126 150.217 26.4072 149.909 26.0703C149.616 25.7188 149.206 25.543 148.679 25.543C148.137 25.543 147.712 25.7041 147.404 26.0264C147.111 26.3486 146.95 26.8394 146.921 27.4985V27.96H139.67V27.3008C139.699 25.8066 140.073 24.4736 140.79 23.3018C141.523 22.1152 142.578 21.1777 143.954 20.4893C145.346 19.8008 147.031 19.4565 149.008 19.4565C151.059 19.4565 152.78 19.7788 154.172 20.4233C155.578 21.0532 156.633 21.9834 157.336 23.2139C158.054 24.4443 158.413 25.9604 158.413 27.7622V44H150.371V41.2754H150.217C149.953 41.9053 149.587 42.4546 149.118 42.9233C148.649 43.3921 148.078 43.7583 147.404 44.022C146.745 44.2856 145.983 44.4175 145.119 44.4175ZM162.739 44V19.896H170.803V23.4775H170.957C171.397 22.2031 172.085 21.2217 173.023 20.5332C173.96 19.8301 175.11 19.4785 176.472 19.4785C177.351 19.4785 178.142 19.6396 178.845 19.9619C179.563 20.2695 180.171 20.731 180.669 21.3462C181.182 21.9468 181.563 22.6792 181.812 23.5435H181.987C182.28 22.6792 182.691 21.9468 183.218 21.3462C183.76 20.7456 184.404 20.2842 185.151 19.9619C185.913 19.6396 186.77 19.4785 187.722 19.4785C188.967 19.4785 190.037 19.7861 190.93 20.4014C191.838 21.0166 192.534 21.8882 193.018 23.0161C193.516 24.144 193.765 25.4771 193.765 27.0151V44H185.701V28.5752C185.701 28.0771 185.635 27.6597 185.503 27.3228C185.386 26.9712 185.203 26.7148 184.954 26.5537C184.719 26.3779 184.412 26.29 184.031 26.29C183.65 26.29 183.328 26.3853 183.064 26.5757C182.8 26.7515 182.603 27.0151 182.471 27.3667C182.339 27.7036 182.273 28.1211 182.273 28.6191V44H174.253V28.5752C174.253 28.0771 174.194 27.6597 174.077 27.3228C173.96 26.9712 173.777 26.7148 173.528 26.5537C173.279 26.3779 172.971 26.29 172.605 26.29C172.224 26.29 171.895 26.3853 171.616 26.5757C171.353 26.7515 171.155 27.0151 171.023 27.3667C170.891 27.7036 170.825 28.1211 170.825 28.6191V44H162.739ZM207.584 44.5493C205.504 44.5493 203.724 44.0952 202.244 43.187C200.765 42.2642 199.63 40.8726 198.839 39.0122C198.062 37.1372 197.674 34.7715 197.674 31.915V31.8931C197.674 29.0952 198.062 26.7734 198.839 24.9277C199.63 23.082 200.758 21.6978 202.222 20.7749C203.687 19.8521 205.445 19.3906 207.496 19.3906C209.503 19.3906 211.217 19.8667 212.637 20.8188C214.058 21.7563 215.142 23.1406 215.889 24.9717C216.651 26.7881 217.032 29.022 217.032 31.6733V33.9365H201.673V29.2344H213.275L209.517 33.541V29.7617C209.517 28.751 209.444 27.916 209.298 27.2568C209.151 26.5977 208.931 26.0996 208.638 25.7627C208.346 25.4258 207.987 25.2573 207.562 25.2573C207.122 25.2573 206.756 25.4258 206.463 25.7627C206.17 26.0996 205.95 26.605 205.804 27.2788C205.658 27.938 205.584 28.7656 205.584 29.7617V33.6509C205.584 34.8374 205.665 35.7969 205.826 36.5293C205.987 37.2617 206.221 37.7964 206.529 38.1333C206.851 38.4702 207.24 38.6387 207.694 38.6387C208.075 38.6387 208.397 38.5435 208.66 38.353C208.939 38.1479 209.151 37.8623 209.298 37.4961C209.459 37.1299 209.576 36.6978 209.649 36.1997L209.693 35.958H216.878L216.834 36.3975C216.746 37.5107 216.49 38.5581 216.065 39.5396C215.64 40.5063 215.047 41.3706 214.285 42.1323C213.538 42.8794 212.601 43.4727 211.473 43.9121C210.36 44.3369 209.063 44.5493 207.584 44.5493ZM229.906 44.4395C227.885 44.4395 226.142 44.1245 224.677 43.4946C223.227 42.8501 222.106 41.9492 221.315 40.792C220.524 39.6201 220.114 38.2432 220.084 36.6611V36.2437H227.841V36.9248C227.87 37.5986 228.039 38.0894 228.346 38.397C228.668 38.7046 229.123 38.8584 229.708 38.8584C230.045 38.8584 230.338 38.8071 230.587 38.7046C230.836 38.5874 231.027 38.4263 231.159 38.2212C231.291 38.0161 231.356 37.7744 231.356 37.4961V37.4741C231.356 36.9761 231.166 36.5439 230.785 36.1777C230.404 35.8115 229.767 35.4746 228.874 35.167L226.457 34.376C225.124 33.9072 224.018 33.3359 223.139 32.6621C222.26 31.9736 221.608 31.1753 221.183 30.2671C220.758 29.3589 220.546 28.3115 220.546 27.125V27.0811C220.546 25.5723 220.934 24.2466 221.71 23.104C222.501 21.9614 223.593 21.0679 224.984 20.4233C226.391 19.7788 228.024 19.4565 229.884 19.4565C231.715 19.4565 233.297 19.7861 234.63 20.4453C235.978 21.0898 237.018 21.9907 237.75 23.1479C238.498 24.2905 238.871 25.6162 238.871 27.125V27.6523H231.642V27.125C231.627 26.4658 231.466 25.9531 231.159 25.5869C230.866 25.2207 230.448 25.0376 229.906 25.0376C229.569 25.0376 229.276 25.0962 229.027 25.2134C228.793 25.3306 228.61 25.499 228.478 25.7188C228.361 25.9238 228.302 26.1655 228.302 26.4438V26.4878C228.302 26.7954 228.375 27.0737 228.522 27.3228C228.683 27.5571 228.932 27.7769 229.269 27.9819C229.621 28.1724 230.089 28.3701 230.675 28.5752L233.07 29.3662C235.297 30.1426 236.901 31.1094 237.882 32.2666C238.864 33.4238 239.354 34.9033 239.354 36.7051V36.7271C239.354 38.2798 238.966 39.6348 238.19 40.792C237.414 41.9492 236.315 42.8501 234.894 43.4946C233.473 44.1245 231.811 44.4395 229.906 44.4395Z"
      fill="url(#paint0_radial_126_4515)"
    />
    <path
      d="M20.6343 44.5054L20.6421 43.5054L20.6419 43.5054L20.6343 44.5054ZM10.417 19.0391L9.47537 18.7024L9.47421 18.7056L10.417 19.0391ZM14.2622 13.6118L14.8395 14.4284L14.8441 14.4251L14.2622 13.6118ZM26.6108 13.2383L26.0823 14.0872L26.0859 14.0894L26.6108 13.2383ZM30.1484 17.1494L29.2476 17.5837L29.2524 17.5934L30.1484 17.1494ZM31.5986 22.5767L32.5965 22.5101L32.5954 22.496L31.5986 22.5767ZM31.6646 23.5654V24.5654H32.7334L32.6623 23.4989L31.6646 23.5654ZM23.5127 23.5654L22.5138 23.6119L22.5581 24.5654H23.5127V23.5654ZM23.4688 22.6206L24.4677 22.5741L24.4658 22.5344L24.4608 22.4949L23.4688 22.6206ZM22.6558 20.0059L21.7875 20.502L21.792 20.5097L22.6558 20.0059ZM19.0742 19.8081L18.3028 19.1717L18.2981 19.1775L18.2934 19.1834L19.0742 19.8081ZM17.9976 22.6865L17.0145 22.5029L17.0127 22.5134L17.9976 22.6865ZM17.8438 32.3765L16.8499 32.4883L16.8515 32.5005L17.8438 32.3765ZM19.4917 36.8589L18.8273 37.6063L18.8419 37.6192L18.857 37.6316L19.4917 36.8589ZM22.502 36.7051L21.7948 35.998L21.7889 36.004L21.783 36.0101L22.502 36.7051ZM23.8423 32.5303L24.8421 32.5469L24.8423 32.5386V32.5303H23.8423ZM23.8423 32.1787H24.8423V31.1787H23.8423V32.1787ZM20.854 32.1787H19.854V33.1787H20.854V32.1787ZM20.854 26.2681V25.2681H19.854V26.2681H20.854ZM31.8843 26.2681H32.8843V25.2681H31.8843V26.2681ZM31.1812 36.5732L30.2154 36.3136L30.2134 36.3212L31.1812 36.5732ZM29.0938 40.9678L29.8746 41.5925L29.8784 41.5877L29.0938 40.9678ZM25.5562 43.6265L25.1668 42.7054L25.1634 42.7068L25.5562 43.6265ZM20.6419 43.5054C18.8403 43.4916 17.3135 43.1622 16.035 42.549L15.1701 44.3523C16.7627 45.1162 18.5903 45.4898 20.6266 45.5053L20.6419 43.5054ZM16.035 42.549C14.7616 41.9383 13.6987 41.0293 12.8406 39.8016L11.2014 40.9474C12.2476 42.4443 13.5724 43.5861 15.1701 44.3523L16.035 42.549ZM12.8406 39.8016C11.9767 38.5656 11.3022 36.9899 10.8406 35.0459L8.89472 35.5078C9.39997 37.636 10.161 39.4589 11.2014 40.9474L12.8406 39.8016ZM10.8406 35.0459C10.3797 33.1042 10.1426 30.8045 10.1426 28.1357H8.14258C8.14258 30.9162 8.3889 33.3773 8.89472 35.5078L10.8406 35.0459ZM10.1426 28.1357V28.0918H8.14258V28.1357H10.1426ZM10.1426 28.0918C10.1426 24.5283 10.5604 21.6327 11.3598 19.3725L9.47421 18.7056C8.57435 21.2501 8.14258 24.3897 8.14258 28.0918H10.1426ZM11.3586 19.3758C12.17 17.1066 13.3439 15.4856 14.8394 14.4284L13.685 12.7952C11.7821 14.1404 10.3925 16.1375 9.47538 18.7024L11.3586 19.3758ZM14.8441 14.4251C16.3392 13.3553 18.2475 12.7881 20.6343 12.7881V10.7881C17.9234 10.7881 15.5836 11.4367 13.6803 12.7986L14.8441 14.4251ZM20.6343 12.7881C22.939 12.7881 24.7323 13.2467 26.0823 14.0872L27.1394 12.3894C25.3839 11.2963 23.1928 10.7881 20.6343 10.7881V12.7881ZM26.0859 14.0894C27.4927 14.9571 28.5405 16.1171 29.2477 17.5837L31.0492 16.7151C30.1743 14.9005 28.8638 13.453 27.1358 12.3872L26.0859 14.0894ZM29.2524 17.5934C29.9963 19.0947 30.4499 20.7787 30.6019 22.6573L32.5954 22.496C32.4251 20.3903 31.9119 18.456 31.0445 16.7054L29.2524 17.5934ZM30.6008 22.6432L30.6668 23.6319L32.6623 23.4989L32.5964 22.5101L30.6008 22.6432ZM31.6646 22.5654H23.5127V24.5654H31.6646V22.5654ZM24.5116 23.519L24.4677 22.5741L22.4698 22.6671L22.5138 23.6119L24.5116 23.519ZM24.4608 22.4949C24.3167 21.3582 24.0139 20.3495 23.5195 19.502L21.792 20.5097C22.1179 21.0685 22.3571 21.8029 22.4767 22.7464L24.4608 22.4949ZM23.524 19.5097C22.9416 18.4904 22.008 17.9292 20.832 17.9292V19.9292C21.2674 19.9292 21.5496 20.0857 21.7875 20.502L23.524 19.5097ZM20.832 17.9292C19.8118 17.9292 18.954 18.3825 18.3028 19.1717L19.8456 20.4445C20.1613 20.0618 20.4753 19.9292 20.832 19.9292V17.9292ZM18.2934 19.1834C17.6693 19.9635 17.273 21.1193 17.0146 22.5029L18.9806 22.8702C19.2201 21.5877 19.5416 20.8246 19.8551 20.4328L18.2934 19.1834ZM17.0127 22.5134C16.7638 23.9287 16.646 25.7887 16.646 28.0698H18.646C18.646 25.8392 18.7626 24.1104 18.9825 22.8597L17.0127 22.5134ZM16.646 28.0698V28.1138H18.646V28.0698H16.646ZM16.646 28.1138C16.646 29.807 16.7127 31.2676 16.85 32.4883L18.8375 32.2647C18.7111 31.1416 18.646 29.7603 18.646 28.1138H16.646ZM16.8515 32.5005C17.0034 33.7158 17.2291 34.7538 17.5462 35.5881L19.4157 34.8777C19.1761 34.2471 18.9771 33.3808 18.836 32.2524L16.8515 32.5005ZM17.5462 35.5881C17.8563 36.4043 18.2674 37.1086 18.8273 37.6063L20.1561 36.1115C19.925 35.9061 19.6622 35.5263 19.4157 34.8777L17.5462 35.5881ZM18.857 37.6316C19.4447 38.1144 20.1374 38.3643 20.8979 38.3643V36.3643C20.6038 36.3643 20.359 36.2772 20.1264 36.0862L18.857 37.6316ZM20.8979 38.3643C21.7971 38.3643 22.5965 38.046 23.2209 37.4001L21.783 36.0101C21.5578 36.243 21.2879 36.3643 20.8979 36.3643V38.3643ZM23.2091 37.4122C23.7895 36.8317 24.1921 36.0895 24.4485 35.2346L22.5329 34.6599C22.3499 35.2699 22.0933 35.6995 21.7948 35.998L23.2091 37.4122ZM24.4485 35.2346C24.6982 34.4023 24.8262 33.5042 24.8421 32.5469L22.8424 32.5136C22.8291 33.3142 22.7227 34.0273 22.5329 34.6599L24.4485 35.2346ZM24.8423 32.5303V32.1787H22.8423V32.5303H24.8423ZM23.8423 31.1787H20.854V33.1787H23.8423V31.1787ZM21.854 32.1787V26.2681H19.854V32.1787H21.854ZM20.854 27.2681H31.8843V25.2681H20.854V27.2681ZM30.8843 26.2681V30.5747H32.8843V26.2681H30.8843ZM30.8843 30.5747C30.8843 32.7637 30.6566 34.6731 30.2155 36.3136L32.1468 36.8329C32.6432 34.9871 32.8843 32.8974 32.8843 30.5747H30.8843ZM30.2134 36.3212C29.7877 37.9555 29.146 39.2886 28.3091 40.3478L29.8784 41.5877C30.9165 40.2739 31.6664 38.6773 32.1489 36.8253L30.2134 36.3212ZM28.3129 40.3431C27.4822 41.3814 26.439 42.1676 25.1668 42.7054L25.9455 44.5476C27.5151 43.8841 28.8303 42.8979 29.8746 41.5925L28.3129 40.3431ZM25.1634 42.7068C23.9089 43.2426 22.4098 43.5192 20.6421 43.5054L20.6265 45.5053C22.6088 45.5208 24.3909 45.2115 25.9489 44.5461L25.1634 42.7068ZM36.0573 44H35.0573V45H36.0573V44ZM36.0573 19.896V18.896H35.0573V19.896H36.0573ZM44.1213 19.896H45.1213V18.896H44.1213V19.896ZM44.1213 44V45H45.1213V44H44.1213ZM37.2219 16.8198L36.5018 17.5137L36.5082 17.5204L36.5148 17.5269L37.2219 16.8198ZM37.2219 11.085L36.5083 10.3843L36.5018 10.3911L37.2219 11.085ZM42.9348 16.8198L43.6485 17.5203L43.6548 17.5137L42.9348 16.8198ZM37.0573 44V19.896H35.0573V44H37.0573ZM36.0573 20.896H44.1213V18.896H36.0573V20.896ZM43.1213 19.896V44H45.1213V19.896H43.1213ZM44.1213 43H36.0573V45H44.1213V43ZM40.0783 17.0063C39.2317 17.0063 38.5335 16.7172 37.929 16.1127L36.5148 17.5269C37.4923 18.5045 38.6984 19.0063 40.0783 19.0063V17.0063ZM37.942 16.1259C37.3442 15.5056 37.0573 14.7944 37.0573 13.9414H35.0573C35.0573 15.3149 35.5469 16.5227 36.5018 17.5137L37.942 16.1259ZM37.0573 13.9414C37.0573 13.1068 37.3415 12.402 37.942 11.7789L36.5018 10.3911C35.5495 11.3793 35.0573 12.5787 35.0573 13.9414H37.0573ZM37.9354 11.7856C38.5414 11.1683 39.2377 10.8765 40.0783 10.8765V8.87646C38.6924 8.87646 37.4844 9.39025 36.5083 10.3844L37.9354 11.7856ZM40.0783 10.8765C40.9371 10.8765 41.6285 11.1706 42.2147 11.7789L43.6548 10.3911C42.6883 9.38802 41.4754 8.87646 40.0783 8.87646V10.8765ZM42.2147 11.7789C42.8152 12.402 43.0993 13.1068 43.0993 13.9414H45.0993C45.0993 12.5787 44.6071 11.3793 43.6548 10.3911L42.2147 11.7789ZM43.0993 13.9414C43.0993 14.7944 42.8125 15.5056 42.2147 16.1259L43.6548 17.5137C44.6098 16.5227 45.0993 15.3149 45.0993 13.9414H43.0993ZM42.2211 16.1194C41.6365 16.715 40.9431 17.0063 40.0783 17.0063V19.0063C41.4694 19.0063 42.6803 18.5067 43.6484 17.5203L42.2211 16.1194ZM50.3158 44H49.3158V45H50.3158V44ZM50.3158 26.0264H51.3158V25.0264H50.3158V26.0264ZM47.6132 26.0264H46.6132V27.0264H47.6132V26.0264ZM47.6132 19.896V18.896H46.6132V19.896H47.6132ZM50.3158 19.896V20.896H51.3158V19.896H50.3158ZM51.1288 15.0181L50.2471 14.5462L50.242 14.5559L51.1288 15.0181ZM53.6776 12.667L54.0967 13.575L54.1018 13.5726L53.6776 12.667ZM60.2914 11.9639L60.1703 12.9565L60.1732 12.9569L60.2914 11.9639ZM61.8734 12.2275H62.8734V11.434L62.1007 11.2537L61.8734 12.2275ZM61.8734 17.2812L61.6945 18.2651L62.8734 18.4795V17.2812H61.8734ZM58.7533 17.6987L58.1319 16.9152L58.1252 16.9206L58.1186 16.926L58.7533 17.6987ZM58.1381 19.896H57.1381V20.896H58.1381V19.896ZM61.8734 19.896H62.8734V18.896H61.8734V19.896ZM61.8734 26.0264V27.0264H62.8734V26.0264H61.8734ZM58.3798 26.0264V25.0264H57.3798V26.0264H58.3798ZM58.3798 44V45H59.3798V44H58.3798ZM51.3158 44V26.0264H49.3158V44H51.3158ZM50.3158 25.0264H47.6132V27.0264H50.3158V25.0264ZM48.6132 26.0264V19.896H46.6132V26.0264H48.6132ZM47.6132 20.896H50.3158V18.896H47.6132V20.896ZM51.3158 19.896V18.8193H49.3158V19.896H51.3158ZM51.3158 18.8193C51.3158 17.4432 51.5656 16.3438 52.0156 15.4802L50.242 14.5559C49.6081 15.7724 49.3158 17.2072 49.3158 18.8193H51.3158ZM52.0105 15.4899C52.4574 14.6549 53.1376 14.0176 54.0967 13.575L53.2586 11.759C51.9325 12.3711 50.9135 13.3011 50.2471 14.5462L52.0105 15.4899ZM54.1018 13.5726C55.0816 13.1137 56.4167 12.854 58.1601 12.854V10.854C56.2413 10.854 54.5881 11.1363 53.2535 11.7614L54.1018 13.5726ZM58.1601 12.854C58.9531 12.854 59.6212 12.8895 60.1703 12.9565L60.4125 10.9712C59.7605 10.8917 59.0077 10.854 58.1601 10.854V12.854ZM60.1732 12.9569C60.7642 13.0272 61.2532 13.1097 61.6462 13.2014L62.1007 11.2537C61.6148 11.1403 61.0491 11.047 60.4096 10.9709L60.1732 12.9569ZM60.8734 12.2275V17.2812H62.8734V12.2275H60.8734ZM62.0523 16.2974C61.8439 16.2595 61.6142 16.2339 61.3687 16.2175L61.2356 18.2131C61.4296 18.226 61.5807 18.2444 61.6945 18.2651L62.0523 16.2974ZM61.3687 16.2175C61.121 16.201 60.8415 16.1934 60.5331 16.1934V18.1934C60.8106 18.1934 61.0439 18.2003 61.2356 18.2131L61.3687 16.2175ZM60.5331 16.1934C59.6354 16.1934 58.7928 16.3911 58.1319 16.9152L59.3747 18.4822C59.5634 18.3326 59.9074 18.1934 60.5331 18.1934V16.1934ZM58.1186 16.926C57.4121 17.5063 57.1381 18.3449 57.1381 19.2368H59.1381C59.1381 18.7518 59.2742 18.565 59.3881 18.4715L58.1186 16.926ZM57.1381 19.2368V19.896H59.1381V19.2368H57.1381ZM58.1381 20.896H61.8734V18.896H58.1381V20.896ZM60.8734 19.896V26.0264H62.8734V19.896H60.8734ZM61.8734 25.0264H58.3798V27.0264H61.8734V25.0264ZM57.3798 26.0264V44H59.3798V26.0264H57.3798ZM58.3798 43H50.3158V45H58.3798V43ZM67.0133 26.0264H68.0133V25.0264H67.0133V26.0264ZM64.5523 26.0264H63.5523V27.0264H64.5523V26.0264ZM64.5523 19.896V18.896H63.5523V19.896H64.5523ZM67.0133 19.896V20.896H68.0133V19.896H67.0133ZM67.0133 14.4907V13.4907H66.0133V14.4907H67.0133ZM75.0992 14.4907H76.0992V13.4907H75.0992V14.4907ZM75.0992 19.896H74.0992V20.896H75.0992V19.896ZM78.2853 19.896H79.2853V18.896H78.2853V19.896ZM78.2853 26.0264V27.0264H79.2853V26.0264H78.2853ZM75.0992 26.0264V25.0264H74.0992V26.0264H75.0992ZM75.6266 37.8257L74.9195 38.5328L74.927 38.5403L74.9347 38.5477L75.6266 37.8257ZM77.9117 38.3091L77.8122 37.314L77.8013 37.3152L77.9117 38.3091ZM78.3292 38.2651H79.3292V37.1479L78.2188 37.2713L78.3292 38.2651ZM78.3292 44.022L78.5791 44.9902L79.3292 44.7967V44.022H78.3292ZM76.8131 44.3076L76.6826 43.3162L76.6699 43.3178L76.6571 43.3199L76.8131 44.3076ZM75.0333 43.4395C72.5483 43.4395 70.8312 42.8691 69.7181 41.8876L68.3954 43.3878C70.0069 44.8087 72.2741 45.4395 75.0333 45.4395V43.4395ZM69.7181 41.8876C68.6619 40.9564 68.0133 39.3207 68.0133 36.7051H66.0133C66.0133 39.5973 66.7269 41.9167 68.3954 43.3878L69.7181 41.8876ZM68.0133 36.7051V26.0264H66.0133V36.7051H68.0133ZM67.0133 25.0264H64.5523V27.0264H67.0133V25.0264ZM65.5523 26.0264V19.896H63.5523V26.0264H65.5523ZM64.5523 20.896H67.0133V18.896H64.5523V20.896ZM68.0133 19.896V14.4907H66.0133V19.896H68.0133ZM67.0133 15.4907H75.0992V13.4907H67.0133V15.4907ZM74.0992 14.4907V19.896H76.0992V14.4907H74.0992ZM75.0992 20.896H78.2853V18.896H75.0992V20.896ZM77.2853 19.896V26.0264H79.2853V19.896H77.2853ZM78.2853 25.0264H75.0992V27.0264H78.2853V25.0264ZM74.0992 26.0264V35.958H76.0992V26.0264H74.0992ZM74.0992 35.958C74.0992 36.9236 74.2777 37.891 74.9195 38.5328L76.3337 37.1186C76.2723 37.0572 76.0992 36.7796 76.0992 35.958H74.0992ZM74.9347 38.5477C75.572 39.1584 76.5107 39.3311 77.4503 39.3311V37.3311C76.6614 37.3311 76.3843 37.1668 76.3185 37.1037L74.9347 38.5477ZM77.4503 39.3311C77.6519 39.3311 77.8441 39.3228 78.0221 39.303L77.8013 37.3152C77.7157 37.3247 77.6003 37.3311 77.4503 37.3311V39.3311ZM78.0112 39.3041C78.161 39.2891 78.3038 39.2741 78.4396 39.259L78.2188 37.2713C78.0909 37.2855 77.9554 37.2997 77.8122 37.314L78.0112 39.3041ZM77.3292 38.2651V44.022H79.3292V38.2651H77.3292ZM78.0793 43.0537C77.6713 43.159 77.2066 43.2472 76.6826 43.3162L76.9435 45.2991C77.5329 45.2215 78.0789 45.1193 78.5791 44.9902L78.0793 43.0537ZM76.6571 43.3199C76.1577 43.3987 75.617 43.4395 75.0333 43.4395V45.4395C75.7094 45.4395 76.3552 45.3923 76.969 45.2954L76.6571 43.3199ZM85.8641 43.4946L85.4579 44.4085L85.469 44.4133L85.8641 43.4946ZM82.5022 40.792L81.6734 41.3515L81.6767 41.3563L82.5022 40.792ZM81.2718 36.6611H80.2718V36.6704L80.2719 36.6796L81.2718 36.6611ZM81.2718 36.2437V35.2437H80.2718V36.2437H81.2718ZM89.0281 36.2437H90.0281V35.2437H89.0281V36.2437ZM89.0281 36.9248H88.0281V36.9465L88.0291 36.9682L89.0281 36.9248ZM89.5335 38.397L88.8264 39.1041L88.8346 39.1123L88.843 39.1203L89.5335 38.397ZM91.7747 38.7046L92.1555 39.6293L92.1782 39.6199L92.2005 39.6094L91.7747 38.7046ZM90.0608 35.167L90.3864 34.2215L90.3791 34.219L90.3719 34.2166L90.0608 35.167ZM87.6438 34.376L87.3121 35.3193L87.3224 35.323L87.3328 35.3264L87.6438 34.376ZM84.326 32.6621L83.7093 33.4494L83.7175 33.4557L84.326 32.6621ZM82.8978 23.104L82.0755 22.5348L82.0706 22.542L82.8978 23.104ZM86.1717 20.4233L85.755 19.5143L85.7514 19.5159L86.1717 20.4233ZM95.8177 20.4453L95.3744 21.3418L95.3862 21.3474L95.8177 20.4453ZM98.9378 23.1479L98.0928 23.6827L98.0968 23.689L98.1008 23.6952L98.9378 23.1479ZM100.058 27.6523V28.6523H101.058V27.6523H100.058ZM92.8294 27.6523H91.8294V28.6523H92.8294V27.6523ZM92.8294 27.125H93.8294V27.1139L93.8291 27.1028L92.8294 27.125ZM92.346 25.5869L91.5651 26.2116L91.5726 26.2209L91.5803 26.2301L92.346 25.5869ZM90.2146 25.2134L89.7888 24.3086L89.7781 24.3136L89.7674 24.319L90.2146 25.2134ZM89.6653 25.7188L88.8078 25.2043L88.8024 25.2134L88.7971 25.2226L89.6653 25.7188ZM89.7093 27.3228L88.8473 27.8298L88.8652 27.8602L88.8852 27.8893L89.7093 27.3228ZM90.4563 27.9819L89.9364 28.8361L89.9579 28.8492L89.9801 28.8612L90.4563 27.9819ZM91.8626 28.5752L91.5322 29.5191L91.5406 29.522L91.549 29.5247L91.8626 28.5752ZM94.2576 29.3662L94.5869 28.422L94.5791 28.4192L94.5712 28.4167L94.2576 29.3662ZM96.0813 43.4946L96.4866 44.4089L96.4944 44.4053L96.0813 43.4946ZM91.0936 43.4395C89.1729 43.4395 87.5705 43.1399 86.2591 42.576L85.469 44.4133C87.0873 45.1091 88.9713 45.4395 91.0936 45.4395V43.4395ZM86.2702 42.5808C84.9666 42.0014 84.0008 41.2123 83.3278 40.2277L81.6767 41.3563C82.5857 42.6862 83.8612 43.6988 85.4579 44.4084L86.2702 42.5808ZM83.3311 40.2325C82.6607 39.2393 82.2978 38.0554 82.2716 36.6426L80.2719 36.6796C80.3044 38.431 80.7618 40.0009 81.6734 41.3515L83.3311 40.2325ZM82.2718 36.6611V36.2437H80.2718V36.6611H82.2718ZM81.2718 37.2437H89.0281V35.2437H81.2718V37.2437ZM88.0281 36.2437V36.9248H90.0281V36.2437H88.0281ZM88.0291 36.9682C88.0635 37.7596 88.2663 38.544 88.8264 39.1041L90.2406 37.6899C90.1854 37.6347 90.0514 37.4377 90.0272 36.8814L88.0291 36.9682ZM88.843 39.1203C89.404 39.6559 90.1362 39.8584 90.8958 39.8584V37.8584C90.4835 37.8584 90.3075 37.7533 90.224 37.6736L88.843 39.1203ZM90.8958 39.8584C91.3317 39.8584 91.7595 39.7923 92.1555 39.6293L91.394 37.7799C91.2919 37.8219 91.1337 37.8584 90.8958 37.8584V39.8584ZM92.2005 39.6094C92.5969 39.4229 92.9411 39.1447 93.1872 38.7619L91.5048 37.6804C91.4872 37.7079 91.4505 37.7519 91.3489 37.7998L92.2005 39.6094ZM93.1872 38.7619C93.4368 38.3736 93.5437 37.9383 93.5437 37.4961H91.5437C91.5437 37.6105 91.5189 37.6586 91.5048 37.6804L93.1872 38.7619ZM93.5437 37.4961V37.4741H91.5437V37.4961H93.5437ZM93.5437 37.4741C93.5437 36.6861 93.2292 35.9988 92.6656 35.4569L91.2794 36.8986C91.4775 37.0891 91.5437 37.266 91.5437 37.4741H93.5437ZM92.6656 35.4569C92.1273 34.9394 91.3256 34.5448 90.3864 34.2215L89.7353 36.1125C90.5832 36.4044 91.0559 36.6837 91.2794 36.8986L92.6656 35.4569ZM90.3719 34.2166L87.9549 33.4256L87.3328 35.3264L89.7498 36.1174L90.3719 34.2166ZM87.9756 33.4326C86.716 32.9897 85.7101 32.4632 84.9344 31.8685L83.7175 33.4557C84.6996 34.2087 85.9056 34.8248 87.3121 35.3193L87.9756 33.4326ZM84.9426 31.8749C84.1731 31.2721 83.6273 30.5939 83.2762 29.8434L81.4646 30.6908C81.9632 31.7567 82.721 32.6752 83.7093 33.4493L84.9426 31.8749ZM83.2762 29.8434C82.9238 29.09 82.7332 28.1917 82.7332 27.125H80.7332C80.7332 28.4314 80.9674 29.6278 81.4646 30.6908L83.2762 29.8434ZM82.7332 27.125V27.0811H80.7332V27.125H82.7332ZM82.7332 27.0811C82.7332 25.7534 83.0715 24.6275 83.7249 23.666L82.0706 22.542C81.1712 23.8656 80.7332 25.3912 80.7332 27.0811H82.7332ZM83.7199 23.6732C84.3992 22.692 85.3448 21.9083 86.5919 21.3307L85.7514 19.5159C84.2153 20.2274 82.9783 21.2308 82.0756 22.5348L83.7199 23.6732ZM86.5883 21.3324C87.8401 20.7587 89.3264 20.4565 91.0716 20.4565V18.4565C89.0961 18.4565 87.3158 18.7989 85.755 19.5143L86.5883 21.3324ZM91.0716 20.4565C92.7838 20.4565 94.2074 20.7646 95.3744 21.3417L96.2609 19.5489C94.7619 18.8076 93.0215 18.4565 91.0716 18.4565V20.4565ZM95.3862 21.3474C96.5802 21.9185 97.47 22.6987 98.0928 23.6827L99.7828 22.6132C98.9407 21.2827 97.7504 20.2612 96.2491 19.5432L95.3862 21.3474ZM98.1008 23.6952C98.7305 24.6582 99.0584 25.7894 99.0584 27.125H101.058C101.058 25.4431 100.639 23.9229 99.7748 22.6007L98.1008 23.6952ZM99.0584 27.125V27.6523H101.058V27.125H99.0584ZM100.058 26.6523H92.8294V28.6523H100.058V26.6523ZM93.8294 27.6523V27.125H91.8294V27.6523H93.8294ZM93.8291 27.1028C93.8113 26.3013 93.6125 25.5399 93.1117 24.9437L91.5803 26.2301C91.6947 26.3663 91.8182 26.6304 91.8296 27.1472L93.8291 27.1028ZM93.1269 24.9622C92.6132 24.3202 91.8862 24.0376 91.0936 24.0376V26.0376C91.3849 26.0376 91.4928 26.1212 91.5651 26.2116L93.1269 24.9622ZM91.0936 24.0376C90.6418 24.0376 90.1975 24.1162 89.7888 24.3086L90.6404 26.1182C90.7298 26.0761 90.8715 26.0376 91.0936 26.0376V24.0376ZM89.7674 24.319C89.367 24.5192 89.0398 24.8176 88.8078 25.2043L90.5228 26.2332C90.5545 26.1805 90.5935 26.142 90.6619 26.1078L89.7674 24.319ZM88.7971 25.2226C88.5793 25.6038 88.4895 26.0227 88.4895 26.4438H90.4895C90.4895 26.3083 90.517 26.2439 90.5336 26.2149L88.7971 25.2226ZM88.4895 26.4438V26.4878H90.4895V26.4438H88.4895ZM88.4895 26.4878C88.4895 26.9617 88.6046 27.4171 88.8473 27.8298L90.5712 26.8157C90.521 26.7304 90.4895 26.6291 90.4895 26.4878H88.4895ZM88.8852 27.8893C89.1509 28.2757 89.5226 28.5843 89.9364 28.8361L90.9763 27.1277C90.7163 26.9695 90.5899 26.8385 90.5333 26.7562L88.8852 27.8893ZM89.9801 28.8612C90.3966 29.0869 90.9203 29.3049 91.5322 29.5191L92.1929 27.6313C91.633 27.4354 91.2192 27.2579 90.9326 27.1026L89.9801 28.8612ZM91.549 29.5247L93.944 30.3158L94.5712 28.4167L92.1762 27.6256L91.549 29.5247ZM93.9284 30.3105C96.0718 31.0578 97.4879 31.9476 98.307 32.9134L99.8323 31.6198C98.6885 30.2711 96.8965 29.2273 94.5869 28.422L93.9284 30.3105ZM98.307 32.9134C99.1076 33.8574 99.5418 35.0937 99.5418 36.7051H101.542C101.542 34.713 100.995 32.9903 99.8323 31.6198L98.307 32.9134ZM99.5418 36.7051V36.7271H101.542V36.7051H99.5418ZM99.5418 36.7271C99.5418 38.1049 99.2002 39.2609 98.5468 40.2349L100.208 41.3491C101.107 40.0086 101.542 38.4547 101.542 36.7271H99.5418ZM98.5468 40.2349C97.886 41.2198 96.9407 42.0067 95.6683 42.5839L96.4944 44.4053C98.0638 43.6935 99.3157 42.6786 100.208 41.3491L98.5468 40.2349ZM95.6761 42.5804C94.4081 43.1425 92.8889 43.4395 91.0936 43.4395V45.4395C93.1068 45.4395 94.9128 45.1065 96.4866 44.4088L95.6761 42.5804ZM124.423 44.5054L124.43 43.5054L124.43 43.5054L124.423 44.5054ZM114.205 19.0391L113.264 18.7024L113.262 18.7056L114.205 19.0391ZM118.05 13.6118L118.628 14.4284L118.632 14.4251L118.05 13.6118ZM130.399 13.2383L129.871 14.0872L129.874 14.0894L130.399 13.2383ZM133.937 17.1494L133.036 17.5837L133.041 17.5934L133.937 17.1494ZM135.387 22.5767L136.385 22.5101L136.384 22.496L135.387 22.5767ZM135.453 23.5654V24.5654H136.522L136.451 23.4989L135.453 23.5654ZM127.301 23.5654L126.302 23.6119L126.346 24.5654H127.301V23.5654ZM127.257 22.6206L128.256 22.5741L128.254 22.5344L128.249 22.4949L127.257 22.6206ZM126.444 20.0059L125.576 20.502L125.58 20.5097L126.444 20.0059ZM122.863 19.8081L122.091 19.1717L122.086 19.1775L122.082 19.1834L122.863 19.8081ZM121.786 22.6865L120.803 22.5029L120.801 22.5134L121.786 22.6865ZM121.632 32.3765L120.638 32.4883L120.64 32.5005L121.632 32.3765ZM123.28 36.8589L122.616 37.6063L122.63 37.6192L122.645 37.6316L123.28 36.8589ZM126.29 36.7051L125.583 35.998L125.577 36.004L125.571 36.0101L126.29 36.7051ZM127.631 32.5303L128.63 32.5469L128.631 32.5386V32.5303H127.631ZM127.631 32.1787H128.631V31.1787H127.631V32.1787ZM124.642 32.1787H123.642V33.1787H124.642V32.1787ZM124.642 26.2681V25.2681H123.642V26.2681H124.642ZM135.673 26.2681H136.673V25.2681H135.673V26.2681ZM134.969 36.5732L134.004 36.3136L134.002 36.3212L134.969 36.5732ZM132.882 40.9678L133.663 41.5925L133.667 41.5877L132.882 40.9678ZM129.344 43.6265L128.955 42.7054L128.952 42.7068L129.344 43.6265ZM124.43 43.5054C122.629 43.4916 121.102 43.1622 119.823 42.549L118.958 44.3523C120.551 45.1162 122.379 45.4898 124.415 45.5053L124.43 43.5054ZM119.823 42.549C118.55 41.9383 117.487 41.0293 116.629 39.8016L114.99 40.9474C116.036 42.4443 117.361 43.5861 118.958 44.3523L119.823 42.549ZM116.629 39.8016C115.765 38.5656 115.09 36.9899 114.629 35.0459L112.683 35.5078C113.188 37.636 113.949 39.4589 114.99 40.9474L116.629 39.8016ZM114.629 35.0459C114.168 33.1042 113.931 30.8045 113.931 28.1357H111.931C111.931 30.9162 112.177 33.3773 112.683 35.5078L114.629 35.0459ZM113.931 28.1357V28.0918H111.931V28.1357H113.931ZM113.931 28.0918C113.931 24.5283 114.349 21.6327 115.148 19.3725L113.262 18.7056C112.363 21.2501 111.931 24.3897 111.931 28.0918H113.931ZM115.147 19.3758C115.958 17.1066 117.132 15.4856 118.628 14.4284L117.473 12.7952C115.57 14.1404 114.181 16.1375 113.264 18.7024L115.147 19.3758ZM118.632 14.4251C120.127 13.3553 122.036 12.7881 124.423 12.7881V10.7881C121.712 10.7881 119.372 11.4367 117.469 12.7986L118.632 14.4251ZM124.423 12.7881C126.727 12.7881 128.521 13.2467 129.871 14.0872L130.928 12.3894C129.172 11.2963 126.981 10.7881 124.423 10.7881V12.7881ZM129.874 14.0894C131.281 14.9571 132.329 16.1171 133.036 17.5837L134.837 16.7151C133.963 14.9005 132.652 13.453 130.924 12.3872L129.874 14.0894ZM133.041 17.5934C133.785 19.0947 134.238 20.7787 134.39 22.6573L136.384 22.496C136.213 20.3903 135.7 18.456 134.833 16.7054L133.041 17.5934ZM134.389 22.6432L134.455 23.6319L136.451 23.4989L136.385 22.5101L134.389 22.6432ZM135.453 22.5654H127.301V24.5654H135.453V22.5654ZM128.3 23.519L128.256 22.5741L126.258 22.6671L126.302 23.6119L128.3 23.519ZM128.249 22.4949C128.105 21.3582 127.802 20.3495 127.308 19.502L125.58 20.5097C125.906 21.0685 126.145 21.8029 126.265 22.7464L128.249 22.4949ZM127.312 19.5097C126.73 18.4904 125.796 17.9292 124.62 17.9292V19.9292C125.056 19.9292 125.338 20.0857 125.576 20.502L127.312 19.5097ZM124.62 17.9292C123.6 17.9292 122.742 18.3825 122.091 19.1717L123.634 20.4445C123.95 20.0618 124.264 19.9292 124.62 19.9292V17.9292ZM122.082 19.1834C121.458 19.9635 121.061 21.1193 120.803 22.5029L122.769 22.8702C123.008 21.5877 123.33 20.8246 123.643 20.4328L122.082 19.1834ZM120.801 22.5134C120.552 23.9287 120.434 25.7887 120.434 28.0698H122.434C122.434 25.8392 122.551 24.1104 122.771 22.8597L120.801 22.5134ZM120.434 28.0698V28.1138H122.434V28.0698H120.434ZM120.434 28.1138C120.434 29.807 120.501 31.2676 120.638 32.4883L122.626 32.2647C122.499 31.1416 122.434 29.7603 122.434 28.1138H120.434ZM120.64 32.5005C120.792 33.7158 121.017 34.7538 121.334 35.5881L123.204 34.8777C122.964 34.2471 122.765 33.3808 122.624 32.2524L120.64 32.5005ZM121.334 35.5881C121.645 36.4043 122.056 37.1086 122.616 37.6063L123.944 36.1115C123.713 35.9061 123.451 35.5263 123.204 34.8777L121.334 35.5881ZM122.645 37.6316C123.233 38.1144 123.926 38.3643 124.686 38.3643V36.3643C124.392 36.3643 124.147 36.2772 123.915 36.0862L122.645 37.6316ZM124.686 38.3643C125.585 38.3643 126.385 38.046 127.009 37.4001L125.571 36.0101C125.346 36.243 125.076 36.3643 124.686 36.3643V38.3643ZM126.997 37.4122C127.578 36.8317 127.98 36.0895 128.237 35.2346L126.321 34.6599C126.138 35.2699 125.882 35.6995 125.583 35.998L126.997 37.4122ZM128.237 35.2346C128.487 34.4023 128.614 33.5042 128.63 32.5469L126.631 32.5136C126.617 33.3142 126.511 34.0273 126.321 34.6599L128.237 35.2346ZM128.631 32.5303V32.1787H126.631V32.5303H128.631ZM127.631 31.1787H124.642V33.1787H127.631V31.1787ZM125.642 32.1787V26.2681H123.642V32.1787H125.642ZM124.642 27.2681H135.673V25.2681H124.642V27.2681ZM134.673 26.2681V30.5747H136.673V26.2681H134.673ZM134.673 30.5747C134.673 32.7637 134.445 34.6731 134.004 36.3136L135.935 36.8329C136.431 34.9871 136.673 32.8974 136.673 30.5747H134.673ZM134.002 36.3212C133.576 37.9555 132.934 39.2886 132.097 40.3478L133.667 41.5877C134.705 40.2739 135.455 38.6773 135.937 36.8253L134.002 36.3212ZM132.101 40.3431C131.27 41.3814 130.227 42.1676 128.955 42.7054L129.734 44.5476C131.303 43.8841 132.619 42.8979 133.663 41.5925L132.101 40.3431ZM128.952 42.7068C127.697 43.2426 126.198 43.5192 124.43 43.5054L124.415 45.5053C126.397 45.5208 128.179 45.2115 129.737 44.5461L128.952 42.7068ZM139.714 41.2095L138.812 41.6414L138.814 41.6464L139.714 41.2095ZM139.846 33.6069L138.963 33.1369L138.961 33.1412L139.846 33.6069ZM142.724 30.8604L142.257 29.9758L142.253 29.978L142.724 30.8604ZM147.997 29.52L147.916 28.5233L147.911 28.5238L147.997 29.52ZM154.435 28.9927H155.435V27.9074L154.354 27.996L154.435 28.9927ZM154.435 33.6289L154.522 34.6252L155.435 34.5459V33.6289H154.435ZM149.118 34.0903L149.196 35.0873L149.205 35.0866L149.118 34.0903ZM147.426 34.8154L148.159 35.4959L148.165 35.4895L148.171 35.483L147.426 34.8154ZM147.338 38.2212L146.631 38.9283L146.639 38.9365L146.648 38.9445L147.338 38.2212ZM149.448 38.4409L149.949 39.3063L149.965 39.2967L149.982 39.2864L149.448 38.4409ZM150.107 37.6719L149.212 37.2247L149.208 37.2325L149.205 37.2404L150.107 37.6719ZM149.909 26.0703L149.141 26.7105L149.155 26.7279L149.171 26.7446L149.909 26.0703ZM147.404 26.0264L146.681 25.3359L146.672 25.3447L146.664 25.3537L147.404 26.0264ZM146.921 27.4985L145.922 27.4541L145.921 27.4763V27.4985H146.921ZM146.921 27.96V28.96H147.921V27.96H146.921ZM139.67 27.96H138.67V28.96H139.67V27.96ZM139.67 27.3008L138.67 27.2812L138.67 27.291V27.3008H139.67ZM140.79 23.3018L139.939 22.7765L139.938 22.7794L140.79 23.3018ZM143.954 20.4893L143.511 19.5929L143.507 19.5948L143.954 20.4893ZM154.172 20.4233L153.751 21.3308L153.763 21.336L154.172 20.4233ZM157.336 23.2139L156.468 23.71L156.472 23.7177L157.336 23.2139ZM158.413 44V45H159.413V44H158.413ZM150.371 44H149.371V45H150.371V44ZM150.371 41.2754H151.371V40.2754H150.371V41.2754ZM150.217 41.2754V40.2754H149.551L149.294 40.8893L150.217 41.2754ZM147.404 44.022L147.04 43.0907L147.033 43.0935L147.404 44.022ZM145.119 43.4175C144.01 43.4175 143.104 43.174 142.362 42.7262L141.329 44.4388C142.432 45.1044 143.708 45.4175 145.119 45.4175V43.4175ZM142.362 42.7262C141.614 42.2753 141.032 41.6346 140.613 40.7726L138.814 41.6464C139.392 42.8351 140.23 43.7764 141.329 44.4388L142.362 42.7262ZM140.616 40.7776C140.196 39.9012 139.967 38.8179 139.967 37.4961H137.967C137.967 39.0454 138.235 40.4376 138.812 41.6414L140.616 40.7776ZM139.967 37.4961V37.4521H137.967V37.4961H139.967ZM139.967 37.4521C139.967 36.1393 140.231 35.0218 140.731 34.0727L138.961 33.1412C138.288 34.4186 137.967 35.8646 137.967 37.4521H139.967ZM140.728 34.0769C141.221 33.1524 142.021 32.3686 143.195 31.7427L142.253 29.978C140.79 30.7584 139.672 31.8056 138.963 33.1369L140.728 34.0769ZM143.191 31.7448C144.365 31.1254 145.979 30.6999 148.084 30.5162L147.911 28.5238C145.65 28.721 143.749 29.1891 142.257 29.9759L143.191 31.7448ZM148.079 30.5167L154.517 29.9893L154.354 27.996L147.916 28.5234L148.079 30.5167ZM153.435 28.9927V33.6289H155.435V28.9927H153.435ZM154.349 32.6327L149.032 33.0941L149.205 35.0866L154.522 34.6252L154.349 32.6327ZM149.04 33.0934C148.119 33.1656 147.282 33.4777 146.682 34.1479L148.171 35.483C148.332 35.3035 148.623 35.1323 149.196 35.0873L149.04 33.0934ZM146.693 34.135C146.087 34.7882 145.855 35.6515 145.855 36.5732H147.855C147.855 35.9715 148.004 35.663 148.159 35.4959L146.693 34.135ZM145.855 36.5732V36.5952H147.855V36.5732H145.855ZM145.855 36.5952C145.855 37.454 146.029 38.3261 146.631 38.9283L148.045 37.5141C148.003 37.4718 147.855 37.2599 147.855 36.5952H145.855ZM146.648 38.9445C147.16 39.4335 147.797 39.6826 148.503 39.6826V37.6826C148.3 37.6826 148.161 37.6241 148.029 37.4978L146.648 38.9445ZM148.503 39.6826C149.013 39.6826 149.504 39.5637 149.949 39.3063L148.947 37.5755C148.835 37.6404 148.695 37.6826 148.503 37.6826V39.6826ZM149.982 39.2864C150.44 38.997 150.778 38.5867 151.009 38.1033L149.205 37.2404C149.114 37.4309 149.012 37.5333 148.914 37.5954L149.982 39.2864ZM151.001 38.1191C151.268 37.5863 151.371 36.9732 151.371 36.3315H149.371C149.371 36.7739 149.298 37.0543 149.212 37.2247L151.001 38.1191ZM151.371 36.3315V27.5864H149.371V36.3315H151.371ZM151.371 27.5864C151.371 26.7798 151.188 25.9883 150.648 25.396L149.171 26.7446C149.245 26.8261 149.371 27.0454 149.371 27.5864H151.371ZM150.677 25.4301C150.164 24.8144 149.452 24.543 148.679 24.543V26.543C148.96 26.543 149.068 26.6231 149.141 26.7105L150.677 25.4301ZM148.679 24.543C147.927 24.543 147.217 24.7743 146.681 25.3359L148.128 26.7168C148.207 26.6339 148.346 26.543 148.679 26.543V24.543ZM146.664 25.3537C146.151 25.9182 145.956 26.6769 145.922 27.4541L147.92 27.5429C147.944 27.0018 148.071 26.7791 148.144 26.699L146.664 25.3537ZM145.921 27.4985V27.96H147.921V27.4985H145.921ZM146.921 26.96H139.67V28.96H146.921V26.96ZM140.67 27.96V27.3008H138.67V27.96H140.67ZM140.67 27.3204C140.696 25.9879 141.026 24.8313 141.643 23.8241L139.938 22.7794C139.119 24.116 138.702 25.6254 138.67 27.2812L140.67 27.3204ZM141.641 23.827C142.266 22.8149 143.173 21.998 144.402 21.3837L143.507 19.5948C141.982 20.3575 140.78 21.4156 139.939 22.7765L141.641 23.827ZM144.398 21.3856C145.619 20.7814 147.144 20.4565 149.008 20.4565V18.4565C146.918 18.4565 145.073 18.8202 143.511 19.593L144.398 21.3856ZM149.008 20.4565C150.96 20.4565 152.528 20.7641 153.752 21.3307L154.592 19.5159C153.032 18.7935 151.158 18.4565 149.008 18.4565V20.4565ZM153.763 21.336C154.994 21.8872 155.879 22.6798 156.468 23.71L158.204 22.7177C157.387 21.287 156.162 20.2192 154.581 19.5107L153.763 21.336ZM156.472 23.7177C157.08 24.7598 157.413 26.0913 157.413 27.7622H159.413C159.413 25.8296 159.027 24.1289 158.2 22.71L156.472 23.7177ZM157.413 27.7622V44H159.413V27.7622H157.413ZM158.413 43H150.371V45H158.413V43ZM151.371 44V41.2754H149.371V44H151.371ZM150.371 40.2754H150.217V42.2754H150.371V40.2754ZM149.294 40.8893C149.079 41.4028 148.785 41.8422 148.411 42.2162L149.825 43.6304C150.389 43.0669 150.827 42.4077 151.139 41.6615L149.294 40.8893ZM148.411 42.2162C148.048 42.5788 147.597 42.8727 147.04 43.0907L147.769 44.9532C148.559 44.6439 149.25 44.2054 149.825 43.6304L148.411 42.2162ZM147.033 43.0935C146.514 43.3009 145.883 43.4175 145.119 43.4175V45.4175C146.084 45.4175 146.976 45.2704 147.776 44.9505L147.033 43.0935ZM162.739 44H161.739V45H162.739V44ZM162.739 19.896V18.896H161.739V19.896H162.739ZM170.803 19.896H171.803V18.896H170.803V19.896ZM170.803 23.4775H169.803V24.4775H170.803V23.4775ZM170.957 23.4775V24.4775H171.67L171.902 23.8035L170.957 23.4775ZM173.023 20.5332L173.614 21.3392L173.623 21.3332L173.023 20.5332ZM178.845 19.9619L178.429 20.871L178.44 20.8762L178.451 20.8811L178.845 19.9619ZM180.669 21.3462L179.892 21.9754L179.9 21.9855L179.908 21.9955L180.669 21.3462ZM181.812 23.5435L180.851 23.8203L181.059 24.5435H181.812V23.5435ZM181.987 23.5435V24.5435H182.704L182.934 23.8645L181.987 23.5435ZM183.218 21.3462L182.475 20.6762L182.466 20.6864L183.218 21.3462ZM185.151 19.9619L184.762 19.0409L184.755 19.0437L185.151 19.9619ZM190.93 20.4014L190.363 21.225L190.369 21.2293L190.93 20.4014ZM193.018 23.0161L192.098 23.4101L192.103 23.42L193.018 23.0161ZM193.765 44V45H194.765V44H193.765ZM185.701 44H184.701V45H185.701V44ZM185.503 27.3228L184.554 27.639L184.562 27.6633L184.572 27.6872L185.503 27.3228ZM184.954 26.5537L184.354 27.3537L184.381 27.3745L184.41 27.3933L184.954 26.5537ZM183.064 26.5757L183.619 27.4077L183.634 27.3973L183.65 27.3864L183.064 26.5757ZM182.471 27.3667L183.402 27.7311L183.405 27.7245L183.407 27.7178L182.471 27.3667ZM182.273 44V45H183.273V44H182.273ZM174.253 44H173.253V45H174.253V44ZM174.077 27.3228L173.128 27.639L173.133 27.6513L174.077 27.3228ZM173.528 26.5537L172.951 27.3707L172.968 27.3823L172.985 27.3933L173.528 26.5537ZM171.616 26.5757L172.171 27.4078L172.181 27.401L171.616 26.5757ZM171.023 27.3667L171.954 27.7311L171.957 27.7245L171.959 27.7178L171.023 27.3667ZM170.825 44V45H171.825V44H170.825ZM163.739 44V19.896H161.739V44H163.739ZM162.739 20.896H170.803V18.896H162.739V20.896ZM169.803 19.896V23.4775H171.803V19.896H169.803ZM170.803 24.4775H170.957V22.4775H170.803V24.4775ZM171.902 23.8035C172.287 22.6899 172.866 21.889 173.614 21.3392L172.431 19.7272C171.304 20.5543 170.507 21.7164 170.012 23.1515L171.902 23.8035ZM173.623 21.3332C174.36 20.7802 175.29 20.4785 176.472 20.4785V18.4785C174.93 18.4785 173.56 18.8799 172.423 19.7332L173.623 21.3332ZM176.472 20.4785C177.227 20.4785 177.873 20.6163 178.429 20.871L179.262 19.0528C178.411 18.663 177.475 18.4785 176.472 18.4785V20.4785ZM178.451 20.8811C179.018 21.1237 179.495 21.4847 179.892 21.9754L181.446 20.717C180.847 19.9772 180.109 19.4153 179.239 19.0428L178.451 20.8811ZM179.908 21.9955C180.317 22.4735 180.636 23.074 180.851 23.8203L182.773 23.2666C182.49 22.2844 182.047 21.4201 181.43 20.6969L179.908 21.9955ZM181.812 24.5435H181.987V22.5435H181.812V24.5435ZM182.934 23.8645C183.191 23.1074 183.54 22.4946 183.969 22.006L182.466 20.6864C181.841 21.399 181.37 22.251 181.04 23.2224L182.934 23.8645ZM183.96 22.0162C184.405 21.5229 184.932 21.1458 185.548 20.8801L184.755 19.0437C183.877 19.4225 183.114 19.9683 182.475 20.6762L183.96 22.0162ZM185.541 20.8829C186.162 20.6201 186.884 20.4785 187.722 20.4785V18.4785C186.656 18.4785 185.664 18.6592 184.762 19.0409L185.541 20.8829ZM187.722 20.4785C188.796 20.4785 189.66 20.741 190.363 21.225L191.497 19.5777C190.413 18.8313 189.139 18.4785 187.722 18.4785V20.4785ZM190.369 21.2293C191.101 21.7247 191.681 22.4365 192.099 23.41L193.937 22.6222C193.387 21.3398 192.576 20.3085 191.491 19.5734L190.369 21.2293ZM192.103 23.42C192.533 24.3934 192.765 25.5828 192.765 27.0151H194.765C194.765 25.3713 194.499 23.8947 193.932 22.6122L192.103 23.42ZM192.765 27.0151V44H194.765V27.0151H192.765ZM193.765 43H185.701V45H193.765V43ZM186.701 44V28.5752H184.701V44H186.701ZM186.701 28.5752C186.701 27.9962 186.625 27.4462 186.434 26.9584L184.572 27.6872C184.645 27.8732 184.701 28.1581 184.701 28.5752H186.701ZM186.452 27.0065C186.281 26.4945 185.98 26.0268 185.497 25.7141L184.41 27.3933C184.425 27.4029 184.491 27.4479 184.554 27.639L186.452 27.0065ZM185.554 25.7537C185.101 25.4139 184.563 25.29 184.031 25.29V27.29C184.26 27.29 184.338 27.342 184.354 27.3537L185.554 25.7537ZM184.031 25.29C183.477 25.29 182.94 25.4314 182.479 25.765L183.65 27.3864C183.715 27.3391 183.823 27.29 184.031 27.29V25.29ZM182.509 25.7436C182.041 26.056 181.726 26.5049 181.534 27.0156L183.407 27.7178C183.479 27.5253 183.56 27.4469 183.619 27.4077L182.509 25.7436ZM181.54 27.0023C181.349 27.4901 181.273 28.0402 181.273 28.6191H183.273C183.273 28.202 183.329 27.9171 183.402 27.7311L181.54 27.0023ZM181.273 28.6191V44H183.273V28.6191H181.273ZM182.273 43H174.253V45H182.273V43ZM175.253 44V28.5752H173.253V44H175.253ZM175.253 28.5752C175.253 28.0062 175.187 27.4695 175.022 26.9942L173.133 27.6513C173.202 27.8498 173.253 28.1481 173.253 28.5752H175.253ZM175.026 27.0065C174.855 26.4945 174.554 26.0268 174.071 25.7141L172.985 27.3933C173 27.4029 173.065 27.4479 173.129 27.639L175.026 27.0065ZM174.105 25.7367C173.655 25.4195 173.135 25.29 172.605 25.29V27.29C172.807 27.29 172.903 27.3363 172.951 27.3707L174.105 25.7367ZM172.605 25.29C172.05 25.29 171.517 25.4318 171.052 25.7504L172.181 27.401C172.272 27.3387 172.399 27.29 172.605 27.29V25.29ZM171.062 25.7436C170.593 26.056 170.278 26.5049 170.087 27.0156L171.959 27.7178C172.032 27.5253 172.112 27.4469 172.171 27.4077L171.062 25.7436ZM170.092 27.0023C169.901 27.4901 169.825 28.0402 169.825 28.6191H171.825C171.825 28.202 171.881 27.9171 171.954 27.7311L170.092 27.0023ZM169.825 28.6191V44H171.825V28.6191H169.825ZM170.825 43H162.739V45H170.825V43ZM202.244 43.187L201.715 44.0355L201.721 44.0392L202.244 43.187ZM198.839 39.0122L197.915 39.3948L197.918 39.4035L198.839 39.0122ZM198.839 24.9277L197.92 24.5338L197.917 24.54L198.839 24.9277ZM212.637 20.8188L212.081 21.6496L212.087 21.6535L212.637 20.8188ZM215.889 24.9717L214.964 25.3495L214.967 25.3584L215.889 24.9717ZM217.032 33.9365V34.9365H218.032V33.9365H217.032ZM201.673 33.9365H200.673V34.9365H201.673V33.9365ZM201.673 29.2344V28.2344H200.673V29.2344H201.673ZM213.275 29.2344L214.028 29.8918L215.474 28.2344H213.275V29.2344ZM209.517 33.541H208.517V36.2083L210.271 34.1984L209.517 33.541ZM205.804 27.2788L206.78 27.4957L206.781 27.4912L205.804 27.2788ZM206.529 38.1333L205.791 38.8076L205.798 38.8161L205.806 38.8245L206.529 38.1333ZM208.66 38.353L209.246 39.1637L209.254 39.1581L208.66 38.353ZM209.298 37.4961L208.382 37.0934L208.375 37.1089L208.369 37.1247L209.298 37.4961ZM209.649 36.1997L208.665 36.0208L208.662 36.0375L208.66 36.0542L209.649 36.1997ZM209.693 35.958V34.958H208.859L208.709 35.7791L209.693 35.958ZM216.878 35.958L217.873 36.0575L217.983 34.958H216.878V35.958ZM216.834 36.3975L215.839 36.298L215.838 36.3083L215.837 36.3188L216.834 36.3975ZM216.065 39.5396L216.981 39.9418L216.983 39.9368L216.065 39.5396ZM211.473 43.9121L211.829 44.8464L211.836 44.8439L211.473 43.9121ZM207.584 43.5493C205.652 43.5493 204.061 43.1287 202.768 42.3348L201.721 44.0392C203.387 45.0617 205.356 45.5493 207.584 45.5493V43.5493ZM202.774 42.3385C201.495 41.5409 200.483 40.3234 199.759 38.6209L197.918 39.4035C198.777 41.4217 200.035 42.9874 201.715 44.0355L202.774 42.3385ZM199.763 38.6296C199.052 36.9146 198.674 34.6898 198.674 31.915H196.674C196.674 34.8532 197.072 37.3598 197.915 39.3948L199.763 38.6296ZM198.674 31.915V31.8931H196.674V31.915H198.674ZM198.674 31.8931C198.674 29.1792 199.052 27 199.76 25.3155L197.917 24.54C197.073 26.5469 196.674 29.0113 196.674 31.8931H198.674ZM199.758 25.3217C200.482 23.6317 201.488 22.4192 202.755 21.621L201.689 19.9288C200.027 20.9763 198.777 22.5324 197.92 24.5338L199.758 25.3217ZM202.755 21.621C204.033 20.816 205.598 20.3906 207.496 20.3906V18.3906C205.292 18.3906 203.341 18.8881 201.689 19.9288L202.755 21.621ZM207.496 20.3906C209.34 20.3906 210.852 20.8258 212.081 21.6496L213.194 19.9881C211.582 18.9076 209.666 18.3906 207.496 18.3906V20.3906ZM212.087 21.6535C213.313 22.4629 214.28 23.674 214.964 25.3494L216.815 24.5939C216.005 22.6072 214.803 21.0498 213.188 19.9842L212.087 21.6535ZM214.967 25.3584C215.663 27.0179 216.032 29.1114 216.032 31.6733H218.032C218.032 28.9325 217.639 26.5583 216.812 24.585L214.967 25.3584ZM216.032 31.6733V33.9365H218.032V31.6733H216.032ZM217.032 32.9365H201.673V34.9365H217.032V32.9365ZM202.673 33.9365V29.2344H200.673V33.9365H202.673ZM201.673 30.2344H213.275V28.2344H201.673V30.2344ZM212.521 28.577L208.764 32.8836L210.271 34.1984L214.028 29.8918L212.521 28.577ZM210.517 33.541V29.7617H208.517V33.541H210.517ZM210.517 29.7617C210.517 28.7102 210.442 27.7961 210.274 27.0399L208.321 27.4738C208.446 28.036 208.517 28.7917 208.517 29.7617H210.517ZM210.274 27.0399C210.108 26.2946 209.837 25.6173 209.393 25.1065L207.884 26.4189C208.026 26.5819 208.194 26.9007 208.321 27.4738L210.274 27.0399ZM209.393 25.1065C208.921 24.5639 208.292 24.2573 207.562 24.2573V26.2573C207.681 26.2573 207.77 26.2877 207.884 26.4189L209.393 25.1065ZM207.562 24.2573C206.828 24.2573 206.188 24.5552 205.709 25.1065L207.218 26.4189C207.324 26.2964 207.417 26.2573 207.562 26.2573V24.2573ZM205.709 25.1065C205.261 25.6211 204.991 26.3098 204.827 27.0664L206.781 27.4912C206.91 26.9002 207.079 26.5781 207.218 26.4189L205.709 25.1065ZM204.828 27.0619C204.66 27.8172 204.584 28.7236 204.584 29.7617H206.584C206.584 28.8076 206.655 28.0588 206.78 27.4957L204.828 27.0619ZM204.584 29.7617V33.6509H206.584V29.7617H204.584ZM204.584 33.6509C204.584 34.8731 204.666 35.9127 204.849 36.7442L206.803 36.3144C206.663 35.6811 206.584 34.8017 206.584 33.6509H204.584ZM204.849 36.7442C205.027 37.5495 205.311 38.2828 205.791 38.8076L207.268 37.459C207.132 37.31 206.948 36.9739 206.803 36.3144L204.849 36.7442ZM205.806 38.8245C206.312 39.3527 206.959 39.6387 207.694 39.6387V37.6387C207.521 37.6387 207.391 37.5877 207.252 37.4421L205.806 38.8245ZM207.694 39.6387C208.248 39.6387 208.784 39.4973 209.246 39.1637L208.075 37.5423C208.009 37.5896 207.901 37.6387 207.694 37.6387V39.6387ZM209.254 39.1581C209.702 38.8276 210.02 38.3817 210.226 37.8675L208.369 37.1247C208.282 37.3429 208.175 37.4683 208.067 37.548L209.254 39.1581ZM210.213 37.8988C210.418 37.4326 210.555 36.9102 210.639 36.3452L208.66 36.0542C208.596 36.4853 208.499 36.8271 208.382 37.0934L210.213 37.8988ZM210.633 36.3786L210.677 36.1369L208.709 35.7791L208.665 36.0208L210.633 36.3786ZM209.693 36.958H216.878V34.958H209.693V36.958ZM215.883 35.8585L215.839 36.298L217.829 36.497L217.873 36.0575L215.883 35.8585ZM215.837 36.3188C215.758 37.3271 215.527 38.2664 215.148 39.1423L216.983 39.9368C217.453 38.8498 217.735 37.6944 217.831 36.4762L215.837 36.3188ZM215.15 39.1373C214.776 39.9881 214.254 40.7495 213.578 41.4252L214.993 42.8394C215.84 41.9917 216.505 41.0246 216.981 39.9418L215.15 39.1373ZM213.578 41.4252C212.942 42.0611 212.128 42.5838 211.11 42.9803L211.836 44.8439C213.074 44.3615 214.134 43.6977 214.993 42.8394L213.578 41.4252ZM211.116 42.9778C210.141 43.3501 208.97 43.5493 207.584 43.5493V45.5493C209.157 45.5493 210.579 45.3237 211.829 44.8464L211.116 42.9778ZM224.677 43.4946L224.271 44.4085L224.282 44.4133L224.677 43.4946ZM221.315 40.792L220.486 41.3515L220.489 41.3563L221.315 40.792ZM220.084 36.6611H219.084V36.6704L219.085 36.6796L220.084 36.6611ZM220.084 36.2437V35.2437H219.084V36.2437H220.084ZM227.841 36.2437H228.841V35.2437H227.841V36.2437ZM227.841 36.9248H226.841V36.9465L226.842 36.9682L227.841 36.9248ZM228.346 38.397L227.639 39.1041L227.647 39.1123L227.656 39.1203L228.346 38.397ZM230.587 38.7046L230.968 39.6293L230.991 39.6199L231.013 39.6094L230.587 38.7046ZM228.874 35.167L229.199 34.2215L229.192 34.219L229.185 34.2166L228.874 35.167ZM226.457 34.376L226.125 35.3193L226.135 35.323L226.146 35.3264L226.457 34.376ZM223.139 32.6621L222.522 33.4494L222.53 33.4557L223.139 32.6621ZM221.71 23.104L220.888 22.5348L220.883 22.542L221.71 23.104ZM224.984 20.4233L224.568 19.5143L224.564 19.5159L224.984 20.4233ZM234.63 20.4453L234.187 21.3418L234.199 21.3474L234.63 20.4453ZM237.75 23.1479L236.906 23.6827L236.909 23.689L236.914 23.6952L237.75 23.1479ZM238.871 27.6523V28.6523H239.871V27.6523H238.871ZM231.642 27.6523H230.642V28.6523H231.642V27.6523ZM231.642 27.125H232.642V27.1139L232.642 27.1028L231.642 27.125ZM231.159 25.5869L230.378 26.2116L230.385 26.2209L230.393 26.2301L231.159 25.5869ZM229.027 25.2134L228.602 24.3086L228.591 24.3136L228.58 24.319L229.027 25.2134ZM228.478 25.7188L227.621 25.2043L227.615 25.2134L227.61 25.2226L228.478 25.7188ZM228.522 27.3228L227.66 27.8298L227.678 27.8602L227.698 27.8893L228.522 27.3228ZM229.269 27.9819L228.749 28.8361L228.771 28.8492L228.793 28.8612L229.269 27.9819ZM230.675 28.5752L230.345 29.5191L230.353 29.522L230.362 29.5247L230.675 28.5752ZM233.07 29.3662L233.4 28.422L233.392 28.4192L233.384 28.4167L233.07 29.3662ZM234.894 43.4946L235.299 44.4089L235.307 44.4053L234.894 43.4946ZM229.906 43.4395C227.986 43.4395 226.383 43.1399 225.072 42.576L224.282 44.4133C225.9 45.1091 227.784 45.4395 229.906 45.4395V43.4395ZM225.083 42.5808C223.779 42.0014 222.814 41.2123 222.141 40.2277L220.489 41.3563C221.398 42.6862 222.674 43.6988 224.271 44.4084L225.083 42.5808ZM222.144 40.2325C221.473 39.2393 221.11 38.0554 221.084 36.6426L219.085 36.6796C219.117 38.431 219.574 40.0009 220.486 41.3515L222.144 40.2325ZM221.084 36.6611V36.2437H219.084V36.6611H221.084ZM220.084 37.2437H227.841V35.2437H220.084V37.2437ZM226.841 36.2437V36.9248H228.841V36.2437H226.841ZM226.842 36.9682C226.876 37.7596 227.079 38.544 227.639 39.1041L229.053 37.6899C228.998 37.6347 228.864 37.4377 228.84 36.8814L226.842 36.9682ZM227.656 39.1203C228.217 39.6559 228.949 39.8584 229.708 39.8584V37.8584C229.296 37.8584 229.12 37.7533 229.037 37.6736L227.656 39.1203ZM229.708 39.8584C230.144 39.8584 230.572 39.7923 230.968 39.6293L230.207 37.7799C230.105 37.8219 229.946 37.8584 229.708 37.8584V39.8584ZM231.013 39.6094C231.41 39.4229 231.754 39.1447 232 38.7619L230.318 37.6804C230.3 37.7079 230.263 37.7519 230.162 37.7998L231.013 39.6094ZM232 38.7619C232.25 38.3736 232.356 37.9383 232.356 37.4961H230.356C230.356 37.6105 230.332 37.6586 230.318 37.6804L232 38.7619ZM232.356 37.4961V37.4741H230.356V37.4961H232.356ZM232.356 37.4741C232.356 36.6861 232.042 35.9988 231.478 35.4569L230.092 36.8986C230.29 37.0891 230.356 37.266 230.356 37.4741H232.356ZM231.478 35.4569C230.94 34.9394 230.138 34.5448 229.199 34.2215L228.548 36.1125C229.396 36.4044 229.869 36.6837 230.092 36.8986L231.478 35.4569ZM229.185 34.2166L226.768 33.4256L226.146 35.3264L228.562 36.1174L229.185 34.2166ZM226.788 33.4326C225.529 32.9897 224.523 32.4632 223.747 31.8685L222.53 33.4557C223.512 34.2087 224.718 34.8248 226.125 35.3193L226.788 33.4326ZM223.755 31.8749C222.986 31.2721 222.44 30.5939 222.089 29.8434L220.277 30.6908C220.776 31.7567 221.534 32.6752 222.522 33.4493L223.755 31.8749ZM222.089 29.8434C221.736 29.09 221.546 28.1917 221.546 27.125H219.546C219.546 28.4314 219.78 29.6278 220.277 30.6908L222.089 29.8434ZM221.546 27.125V27.0811H219.546V27.125H221.546ZM221.546 27.0811C221.546 25.7534 221.884 24.6275 222.538 23.666L220.883 22.542C219.984 23.8656 219.546 25.3912 219.546 27.0811H221.546ZM222.533 23.6732C223.212 22.692 224.158 21.9083 225.405 21.3307L224.564 19.5159C223.028 20.2274 221.791 21.2308 220.888 22.5348L222.533 23.6732ZM225.401 21.3324C226.653 20.7587 228.139 20.4565 229.884 20.4565V18.4565C227.909 18.4565 226.128 18.7989 224.568 19.5143L225.401 21.3324ZM229.884 20.4565C231.596 20.4565 233.02 20.7646 234.187 21.3417L235.074 19.5489C233.575 18.8076 231.834 18.4565 229.884 18.4565V20.4565ZM234.199 21.3474C235.393 21.9185 236.283 22.6987 236.906 23.6827L238.595 22.6132C237.753 21.2827 236.563 20.2612 235.062 19.5432L234.199 21.3474ZM236.914 23.6952C237.543 24.6582 237.871 25.7894 237.871 27.125H239.871C239.871 25.4431 239.452 23.9229 238.587 22.6007L236.914 23.6952ZM237.871 27.125V27.6523H239.871V27.125H237.871ZM238.871 26.6523H231.642V28.6523H238.871V26.6523ZM232.642 27.6523V27.125H230.642V27.6523H232.642ZM232.642 27.1028C232.624 26.3013 232.425 25.5399 231.924 24.9437L230.393 26.2301C230.507 26.3663 230.631 26.6304 230.642 27.1472L232.642 27.1028ZM231.94 24.9622C231.426 24.3202 230.699 24.0376 229.906 24.0376V26.0376C230.198 26.0376 230.306 26.1212 230.378 26.2116L231.94 24.9622ZM229.906 24.0376C229.454 24.0376 229.01 24.1162 228.602 24.3086L229.453 26.1182C229.543 26.0761 229.684 26.0376 229.906 26.0376V24.0376ZM228.58 24.319C228.18 24.5192 227.853 24.8176 227.621 25.2043L229.336 26.2332C229.367 26.1805 229.406 26.142 229.475 26.1078L228.58 24.319ZM227.61 25.2226C227.392 25.6038 227.302 26.0227 227.302 26.4438H229.302C229.302 26.3083 229.33 26.2439 229.346 26.2149L227.61 25.2226ZM227.302 26.4438V26.4878H229.302V26.4438H227.302ZM227.302 26.4878C227.302 26.9617 227.417 27.4171 227.66 27.8298L229.384 26.8157C229.334 26.7304 229.302 26.6291 229.302 26.4878H227.302ZM227.698 27.8893C227.964 28.2757 228.335 28.5843 228.749 28.8361L229.789 27.1277C229.529 26.9695 229.403 26.8385 229.346 26.7562L227.698 27.8893ZM228.793 28.8612C229.209 29.0869 229.733 29.3049 230.345 29.5191L231.006 27.6313C230.446 27.4354 230.032 27.2579 229.745 27.1026L228.793 28.8612ZM230.362 29.5247L232.757 30.3158L233.384 28.4167L230.989 27.6256L230.362 29.5247ZM232.741 30.3105C234.885 31.0578 236.301 31.9476 237.12 32.9134L238.645 31.6198C237.501 30.2711 235.709 29.2273 233.4 28.422L232.741 30.3105ZM237.12 32.9134C237.92 33.8574 238.354 35.0937 238.354 36.7051H240.354C240.354 34.713 239.807 32.9903 238.645 31.6198L237.12 32.9134ZM238.354 36.7051V36.7271H240.354V36.7051H238.354ZM238.354 36.7271C238.354 38.1049 238.013 39.2609 237.36 40.2349L239.02 41.3491C239.92 40.0086 240.354 38.4547 240.354 36.7271H238.354ZM237.36 40.2349C236.699 41.2198 235.753 42.0067 234.481 42.5839L235.307 44.4053C236.876 43.6935 238.128 42.6786 239.02 41.3491L237.36 40.2349ZM234.489 42.5804C233.221 43.1425 231.702 43.4395 229.906 43.4395V45.4395C231.919 45.4395 233.725 45.1065 235.299 44.4088L234.489 42.5804Z"
      fill="url(#paint1_radial_126_4515)"
      mask="url(#path-1-outside-1_126_4515)"
    />
  </g>
  <defs>
    <filter
      id="filter0_f_126_4515"
      x="0.142578"
      y="0.876465"
      width="248.212"
      height="52.6729"
      filterUnits="userSpaceOnUse"
      color-interpolation-filters="sRGB"
    >
      <feFlood flood-opacity="0" result="BackgroundImageFix" />
      <feBlend
        mode="normal"
        in="SourceGraphic"
        in2="BackgroundImageFix"
        result="shape"
      />
      <feGaussianBlur
        stdDeviation="4"
        result="effect1_foregroundBlur_126_4515"
      />
    </filter>
    <radialGradient
      id="paint0_radial_126_4515"
      cx="0"
      cy="0"
      r="1"
      gradientUnits="userSpaceOnUse"
      gradientTransform="translate(47.9754 28.2319) rotate(-4.46799) scale(208.362 53.3587)"
    >
      <stop offset="0.0328283" stop-color="#00B0F5" />
      <stop offset="0.37" stop-color="#7140CC" />
      <stop offset="0.695" stop-color="#FF00A2" />
      <stop offset="1" stop-color="#E35E3E" />
    </radialGradient>
    <radialGradient
      id="paint1_radial_126_4515"
      cx="0"
      cy="0"
      r="1"
      gradientUnits="userSpaceOnUse"
      gradientTransform="translate(53.697 0.0749203) rotate(12.0393) scale(199.735 124.986)"
    >
      <stop offset="0.0328283" stop-color="#00B0F5" />
      <stop offset="0.37" stop-color="#7140CC" />
      <stop offset="0.695" stop-color="#FF00A2" />
      <stop offset="1" stop-color="#E35E3E" />
    </radialGradient>
  </defs>
</svg>