<svg width="50" height="50" viewBox="0 0 50 50" fill="none" xmlns="http://www.w3.org/2000/svg">
<circle cx="25" cy="25" r="22.5" fill="#34C759"/>
<path d="M32.8099 21.255L36.0342 25.6586C36.4858 26.2733 36.6364 26.725 36.6364 27.7036V33.1611C36.6364 35.2688 35.5825 36.3227 33.4372 36.3227H16.5629C14.4301 36.3227 13.3636 35.2688 13.3636 33.1611V27.7036C13.3636 26.725 13.5267 26.2733 13.9784 25.6586L17.1902 21.255C18.3319 19.6867 18.9466 19.2727 20.7909 19.2727H22.1458V20.8409H20.6779C19.9879 20.8409 19.3983 21.0542 18.9466 21.6941L15.4714 26.5368C15.2957 26.7877 15.371 27.0889 15.7348 27.0889H21.7569C22.3717 27.0889 22.6602 27.553 22.6602 28.0298V28.0674C22.6602 29.1841 23.5384 30.4762 25.0063 30.4762C26.4616 30.4762 27.3524 29.1841 27.3524 28.0674V28.0298C27.3524 27.553 27.641 27.0889 28.2431 27.0889H34.2652C34.629 27.0889 34.6918 26.7877 34.5287 26.5368L31.066 21.6941C30.6143 21.0542 30.0122 20.8409 29.3222 20.8409H27.8668V19.2727H29.2092C31.066 19.2727 31.6682 19.6867 32.8099 21.255Z" fill="white"/>
<path d="M25.0063 13.3636C24.517 13.3636 24.1155 13.7526 24.1155 14.2293V22.8233L24.1782 24.3163L23.6764 23.7768L22.2963 22.2713C22.1332 22.0956 21.8949 22.0078 21.6816 22.0078C21.2048 22.0078 20.8661 22.334 20.8661 22.7857C20.8661 23.0366 20.9665 23.2122 21.1296 23.3879L24.3539 26.4616C24.5797 26.6875 24.7679 26.7628 25.0063 26.7628C25.2321 26.7628 25.4203 26.6875 25.6586 26.4616L28.8704 23.3879C29.046 23.2122 29.1339 23.0366 29.1339 22.7857C29.1339 22.334 28.7827 22.0078 28.3184 22.0078C28.1051 22.0078 27.8668 22.0956 27.7162 22.2713L26.3236 23.7768L25.8218 24.3163L25.897 22.8233V14.2293C25.897 13.7526 25.483 13.3636 25.0063 13.3636Z" fill="white"/>
</svg>
