<svg width="47" height="50" viewBox="0 0 47 50" fill="none" xmlns="http://www.w3.org/2000/svg">
<path opacity="0.4" d="M13.6736 23.1787C13.7617 22.9404 14.0986 22.9404 14.1868 23.1787L15.1059 25.6626C15.1336 25.7375 15.1927 25.7965 15.2676 25.8242L17.7515 26.7434C17.9897 26.8315 17.9897 27.1685 17.7515 27.2566L15.2676 28.1758C15.1927 28.2035 15.1336 28.2625 15.1059 28.3374L14.1868 30.8213C14.0986 31.0596 13.7617 31.0596 13.6736 30.8213L12.7544 28.3374C12.7267 28.2625 12.6677 28.2035 12.5928 28.1758L10.1088 27.2566C9.87062 27.1685 9.87062 26.8315 10.1088 26.7434L12.5928 25.8242C12.6677 25.7965 12.7267 25.7375 12.7544 25.6626L13.6736 23.1787Z" fill="white"/>
<path opacity="0.3" d="M5.87169 30.0998C5.91576 29.9807 6.08424 29.9807 6.12831 30.0998L6.58788 31.3418C6.60173 31.3792 6.63126 31.4088 6.66871 31.4226L7.91067 31.8822C8.02978 31.9263 8.02978 32.0947 7.91067 32.1388L6.66871 32.5984C6.63126 32.6122 6.60173 32.6418 6.58788 32.6792L6.12831 33.9212C6.08424 34.0403 5.91576 34.0403 5.87169 33.9212L5.41212 32.6792C5.39827 32.6418 5.36874 32.6122 5.33129 32.5984L4.08933 32.1388C3.97022 32.0947 3.97022 31.9263 4.08933 31.8822L5.33129 31.4226C5.36874 31.4088 5.39827 31.3792 5.41212 31.3418L5.87169 30.0998Z" fill="white"/>
<path opacity="0.2" d="M1.87169 21.5893C1.91576 21.4702 2.08424 21.4702 2.12831 21.5893L2.58788 22.8313C2.60173 22.8687 2.63126 22.8983 2.66871 22.9121L3.91067 23.3717C4.02978 23.4158 4.02978 23.5842 3.91067 23.6283L2.66871 24.0879C2.63126 24.1017 2.60173 24.1313 2.58788 24.1687L2.12831 25.4107C2.08424 25.5298 1.91576 25.5298 1.87169 25.4107L1.41212 24.1687C1.39827 24.1313 1.36874 24.1017 1.33129 24.0879L0.0893342 23.6283C-0.029778 23.5842 -0.0297781 23.4158 0.0893341 23.3717L1.33129 22.9121C1.36874 22.8983 1.39827 22.8687 1.41212 22.8313L1.87169 21.5893Z" fill="white"/>
<path opacity="0.2" d="M30.3611 45.5893C30.4051 45.4702 30.5736 45.4702 30.6177 45.5893L31.0773 46.8313C31.0911 46.8687 31.1206 46.8983 31.1581 46.9121L32.4 47.3717C32.5192 47.4158 32.5192 47.5842 32.4 47.6283L31.1581 48.0879C31.1206 48.1017 31.0911 48.1313 31.0773 48.1687L30.6177 49.4107C30.5736 49.5298 30.4051 49.5298 30.3611 49.4107L29.9015 48.1687C29.8876 48.1313 29.8581 48.1017 29.8207 48.0879L28.5787 47.6283C28.4596 47.5842 28.4596 47.4158 28.5787 47.3717L29.8207 46.9121C29.8581 46.8983 29.8876 46.8687 29.9015 46.8313L30.3611 45.5893Z" fill="white"/>
<path opacity="0.2" d="M3.87169 44.5893C3.91576 44.4702 4.08424 44.4702 4.12831 44.5893L4.58788 45.8313C4.60173 45.8687 4.63126 45.8983 4.66871 45.9121L5.91067 46.3717C6.02978 46.4158 6.02978 46.5842 5.91067 46.6283L4.66871 47.0879C4.63126 47.1017 4.60173 47.1313 4.58788 47.1687L4.12831 48.4107C4.08424 48.5298 3.91576 48.5298 3.87169 48.4107L3.41212 47.1687C3.39827 47.1313 3.36874 47.1017 3.33129 47.0879L2.08933 46.6283C1.97022 46.5842 1.97022 46.4158 2.08933 46.3717L3.33129 45.9121C3.36874 45.8983 3.39827 45.8687 3.41212 45.8313L3.87169 44.5893Z" fill="white"/>
<path opacity="0.2" d="M19.3611 0.589334C19.4051 0.470222 19.5736 0.470222 19.6177 0.589334L20.0773 1.83129C20.0911 1.86874 20.1206 1.89827 20.1581 1.91212L21.4 2.37169C21.5192 2.41576 21.5192 2.58424 21.4 2.62831L20.1581 3.08788C20.1206 3.10173 20.0911 3.13126 20.0773 3.16871L19.6177 4.41067C19.5736 4.52978 19.4051 4.52978 19.3611 4.41067L18.9015 3.16871C18.8876 3.13126 18.8581 3.10173 18.8207 3.08788L17.5787 2.62831C17.4596 2.58424 17.4596 2.41576 17.5787 2.37169L18.8207 1.91212C18.8581 1.89827 18.8876 1.86874 18.9015 1.83129L19.3611 0.589334Z" fill="white"/>
<path opacity="0.3" d="M42.3611 5.58933C42.4051 5.47022 42.5736 5.47022 42.6177 5.58933L43.0773 6.83129C43.0911 6.86874 43.1206 6.89827 43.1581 6.91212L44.4 7.37169C44.5192 7.41576 44.5192 7.58424 44.4 7.62831L43.1581 8.08788C43.1206 8.10173 43.0911 8.13126 43.0773 8.16871L42.6177 9.41067C42.5736 9.52978 42.4051 9.52978 42.3611 9.41067L41.9015 8.16871C41.8876 8.13126 41.8581 8.10173 41.8207 8.08788L40.5787 7.62831C40.4596 7.58424 40.4596 7.41576 40.5787 7.37169L41.8207 6.91212C41.8581 6.89827 41.8876 6.86874 41.9015 6.83129L42.3611 5.58933Z" fill="white"/>
<path opacity="0.23" d="M27.2755 9.65633C27.3526 9.44789 27.6474 9.44789 27.7245 9.65633L28.5288 11.8298C28.553 11.8953 28.6047 11.947 28.6702 11.9712L30.8437 12.7755C31.0521 12.8526 31.0521 13.1474 30.8437 13.2245L28.6702 14.0288C28.6047 14.053 28.553 14.1047 28.5288 14.1702L27.7245 16.3437C27.6474 16.5521 27.3526 16.5521 27.2755 16.3437L26.4712 14.1702C26.447 14.1047 26.3953 14.053 26.3298 14.0288L24.1563 13.2245C23.9479 13.1474 23.9479 12.8526 24.1563 12.7755L26.3298 11.9712C26.3953 11.947 26.447 11.8953 26.4712 11.8298L27.2755 9.65633Z" fill="white"/>
<path d="M29.7561 26.7036C29.8566 26.4321 30.2406 26.4321 30.3411 26.7036L31.3887 29.5348C31.4203 29.6202 31.4876 29.6875 31.573 29.7191L34.4041 30.7667C34.6757 30.8672 34.6757 31.2512 34.4041 31.3517L31.573 32.3993C31.4876 32.4309 31.4203 32.4982 31.3887 32.5836L30.3411 35.4148C30.2406 35.6863 29.8566 35.6863 29.7561 35.4148L28.7085 32.5836C28.6769 32.4982 28.6096 32.4309 28.5242 32.3993L25.693 31.3517C25.4215 31.2512 25.4215 30.8672 25.693 30.7667L28.5242 29.7191C28.6096 29.6875 28.6769 29.6202 28.7085 29.5348L29.7561 26.7036Z" fill="white"/>
<g clip-path="url(#clip0_286_27705)">
<mask id="mask0_286_27705" style="mask-type:luminance" maskUnits="userSpaceOnUse" x="14" y="13" width="33" height="33">
<path d="M46.6264 22.1342L23.1341 13.5837L14.5836 37.0761L38.0759 45.6266L46.6264 22.1342Z" fill="white"/>
</mask>
<g mask="url(#mask0_286_27705)">
<mask id="mask1_286_27705" style="mask-type:luminance" maskUnits="userSpaceOnUse" x="24" y="18" width="16" height="22">
<path d="M35.9726 18.33C39.8158 19.7288 41.0307 26.0845 38.6863 32.5258C37.4164 36.0147 35.2315 37.726 33.005 39.3362C30.9326 38.3475 28.2582 37.772 25.8412 37.063C24.6355 34.2866 23.2543 31.6219 24.769 27.4603C27.1134 21.019 32.1295 16.9312 35.9726 18.33Z" fill="url(#paint0_radial_286_27705)"/>
</mask>
<g mask="url(#mask1_286_27705)">
<path d="M35.9726 18.33C39.8158 19.7288 41.0307 26.0845 38.6863 32.5258C37.4164 36.0147 35.2315 37.726 33.005 39.3362C30.9326 38.3475 28.2582 37.772 25.8412 37.063C24.6355 34.2866 23.2543 31.6219 24.769 27.4603C27.1134 21.019 32.1295 16.9312 35.9726 18.33Z" fill="url(#paint1_radial_286_27705)"/>
</g>
<mask id="mask2_286_27705" style="mask-type:luminance" maskUnits="userSpaceOnUse" x="21" y="18" width="17" height="22">
<path d="M33.6206 18.7106C37.4638 20.1094 38.6787 26.4651 36.3342 32.9065C35.0644 36.3953 32.8794 38.1066 30.6529 39.7168C28.5806 38.7281 25.9062 38.1526 23.4891 37.4436C22.2835 34.6672 20.9022 32.0026 22.4169 27.841C24.7614 21.3996 29.7774 17.3118 33.6206 18.7106Z" fill="url(#paint2_radial_286_27705)"/>
</mask>
<g mask="url(#mask2_286_27705)">
<path d="M33.6206 18.7106C37.4638 20.1094 38.6787 26.4651 36.3342 32.9065C35.0644 36.3953 32.8794 38.1066 30.6529 39.7168C28.5806 38.7281 25.9062 38.1526 23.4891 37.4436C22.2835 34.6672 20.9022 32.0026 22.4169 27.841C24.7614 21.3996 29.7774 17.3118 33.6206 18.7106Z" fill="url(#paint3_radial_286_27705)"/>
</g>
<mask id="mask3_286_27705" style="mask-type:luminance" maskUnits="userSpaceOnUse" x="30" y="27" width="13" height="15">
<path d="M41.6097 28.4523C43.607 30.0127 43.0699 34.0375 40.4101 37.4419C37.7503 40.8463 33.975 42.3411 31.9778 40.7807C29.9805 39.2203 30.5176 35.1955 33.1774 31.7911C35.8372 28.3867 39.6125 26.8919 41.6097 28.4523Z" fill="url(#paint4_radial_286_27705)"/>
</mask>
<g mask="url(#mask3_286_27705)">
<path d="M41.6097 28.4523C43.607 30.0127 43.0699 34.0375 40.4101 37.4419C37.7503 40.8463 33.975 42.3411 31.9778 40.7807C29.9805 39.2203 30.5176 35.1955 33.1774 31.7911C35.8372 28.3867 39.6125 26.8919 41.6097 28.4523Z" fill="url(#paint5_radial_286_27705)"/>
</g>
<mask id="mask4_286_27705" style="mask-type:luminance" maskUnits="userSpaceOnUse" x="30" y="26" width="14" height="14">
<path d="M41.8343 26.7691C43.8316 28.3295 43.2945 32.3543 40.6347 35.7586C37.9749 39.163 34.1996 40.6579 32.2024 39.0974C30.2051 37.537 30.7422 33.5123 33.402 30.1079C36.0618 26.7035 39.8371 25.2087 41.8343 26.7691Z" fill="url(#paint6_radial_286_27705)"/>
</mask>
<g mask="url(#mask4_286_27705)">
<path d="M41.8343 26.7691C43.8316 28.3295 43.2945 32.3543 40.6347 35.7586C37.9749 39.163 34.1996 40.6579 32.2024 39.0974C30.2051 37.537 30.7422 33.5123 33.402 30.1079C36.0618 26.7035 39.8371 25.2087 41.8343 26.7691Z" fill="url(#paint7_radial_286_27705)"/>
</g>
<path d="M22.8205 20.9714C25.2687 20.3154 28.1597 23.1665 29.2779 27.3396C30.396 31.5126 29.3179 35.4272 26.8697 36.0832C24.4215 36.7392 21.5305 33.8881 20.4123 29.7151C19.2941 25.5421 20.3723 21.6274 22.8205 20.9714Z" fill="url(#paint8_radial_286_27705)"/>
<path d="M24.1016 19.1117C26.5498 18.4557 29.4409 21.3068 30.559 25.4798C31.6772 29.6528 30.599 33.5675 28.1508 34.2235C25.7026 34.8795 22.8116 32.0284 21.6934 27.8553C20.5753 23.6823 21.6535 19.7677 24.1016 19.1117Z" fill="url(#paint9_radial_286_27705)"/>
<mask id="mask5_286_27705" style="mask-type:luminance" maskUnits="userSpaceOnUse" x="17" y="26" width="13" height="14">
<path d="M18.4581 27.5947C20.3416 25.8987 24.2119 27.1266 27.1027 30.3371C29.9935 33.5477 30.8101 37.5251 28.9266 39.2211C27.043 40.917 23.1727 39.6892 20.2819 36.4786C17.3911 33.2681 16.5746 29.2906 18.4581 27.5947Z" fill="url(#paint10_radial_286_27705)"/>
</mask>
<g mask="url(#mask5_286_27705)">
<path d="M18.4581 27.5947C20.3416 25.8987 24.2119 27.1266 27.1027 30.3371C29.9935 33.5477 30.8101 37.5251 28.9266 39.2211C27.043 40.917 23.1727 39.6892 20.2819 36.4786C17.3911 33.2681 16.5746 29.2906 18.4581 27.5947Z" fill="url(#paint11_radial_286_27705)"/>
</g>
<mask id="mask6_286_27705" style="mask-type:luminance" maskUnits="userSpaceOnUse" x="25" y="35" width="10" height="8">
<path d="M25.2236 37.6356C25.7793 35.6976 28.2293 34.6999 30.6958 35.4071C33.1623 36.1144 34.7113 38.2588 34.1556 40.1968C33.5999 42.1348 31.1499 43.1325 28.6834 42.4253C26.2169 41.718 24.6678 39.5736 25.2236 37.6356Z" fill="url(#paint12_radial_286_27705)"/>
</mask>
<g mask="url(#mask6_286_27705)">
<path d="M25.2236 37.6356C25.7793 35.6976 28.2293 34.6999 30.6958 35.4071C33.1623 36.1144 34.7113 38.2588 34.1556 40.1968C33.5999 42.1348 31.1499 43.1325 28.6834 42.4253C26.2169 41.718 24.6678 39.5736 25.2236 37.6356Z" fill="url(#paint13_radial_286_27705)"/>
</g>
<mask id="mask7_286_27705" style="mask-type:luminance" maskUnits="userSpaceOnUse" x="24" y="18" width="16" height="22">
<path d="M35.9727 18.33C39.8159 19.7288 41.0308 26.0845 38.6863 32.5258C37.4165 36.0147 35.2315 37.726 33.0051 39.3362C30.9327 38.3475 28.2583 37.772 25.8412 37.063C24.6356 34.2866 23.2543 31.6219 24.769 27.4603C27.1135 21.019 32.1295 16.9312 35.9727 18.33Z" fill="url(#paint14_radial_286_27705)"/>
</mask>
<g mask="url(#mask7_286_27705)">
<path d="M35.9727 18.33C39.8159 19.7288 41.0308 26.0845 38.6863 32.5258C37.4165 36.0147 35.2315 37.726 33.0051 39.3362C30.9327 38.3475 28.2583 37.772 25.8412 37.063C24.6356 34.2866 23.2543 31.6219 24.769 27.4603C27.1135 21.019 32.1295 16.9312 35.9727 18.33Z" fill="url(#paint15_radial_286_27705)"/>
</g>
<mask id="mask8_286_27705" style="mask-type:luminance" maskUnits="userSpaceOnUse" x="30" y="27" width="13" height="15">
<path d="M41.6098 28.4527C43.607 30.0131 43.0699 34.0379 40.4101 37.4422C37.7503 40.8466 33.9751 42.3415 31.9778 40.781C29.9806 39.2206 30.5177 35.1959 33.1775 31.7915C35.8373 28.3871 39.6125 26.8923 41.6098 28.4527Z" fill="url(#paint16_radial_286_27705)"/>
</mask>
<g mask="url(#mask8_286_27705)">
<path d="M41.6098 28.4527C43.607 30.0131 43.0699 34.0379 40.4101 37.4422C37.7503 40.8466 33.9751 42.3415 31.9778 40.781C29.9806 39.2206 30.5177 35.1959 33.1775 31.7915C35.8373 28.3871 39.6125 26.8923 41.6098 28.4527Z" fill="url(#paint17_radial_286_27705)"/>
</g>
<mask id="mask9_286_27705" style="mask-type:luminance" maskUnits="userSpaceOnUse" x="19" y="20" width="11" height="17">
<path d="M22.8205 20.9715C25.2687 20.3156 28.1597 23.1667 29.2779 27.3397C30.396 31.5127 29.3179 35.4274 26.8697 36.0833C24.4215 36.7393 21.5305 33.8882 20.4123 29.7152C19.2941 25.5422 20.3723 21.6275 22.8205 20.9715Z" fill="url(#paint18_radial_286_27705)"/>
</mask>
<g mask="url(#mask9_286_27705)">
<path d="M22.8205 20.9715C25.2687 20.3156 28.1597 23.1667 29.2779 27.3397C30.396 31.5127 29.3179 35.4274 26.8697 36.0833C24.4215 36.7393 21.5305 33.8882 20.4123 29.7152C19.2941 25.5422 20.3723 21.6275 22.8205 20.9715Z" fill="url(#paint19_radial_286_27705)"/>
</g>
<mask id="mask10_286_27705" style="mask-type:luminance" maskUnits="userSpaceOnUse" x="17" y="26" width="13" height="14">
<path d="M18.4581 27.5947C20.3416 25.8987 24.2119 27.1266 27.1027 30.3371C29.9935 33.5477 30.8101 37.5251 28.9266 39.2211C27.043 40.917 23.1727 39.6892 20.2819 36.4786C17.3911 33.2681 16.5746 29.2906 18.4581 27.5947Z" fill="url(#paint20_radial_286_27705)"/>
</mask>
<g mask="url(#mask10_286_27705)">
<path d="M18.4581 27.5947C20.3416 25.8987 24.2119 27.1266 27.1027 30.3371C29.9935 33.5477 30.8101 37.5251 28.9266 39.2211C27.043 40.917 23.1727 39.6892 20.2819 36.4786C17.3911 33.2681 16.5746 29.2906 18.4581 27.5947Z" fill="url(#paint21_radial_286_27705)"/>
</g>
<mask id="mask11_286_27705" style="mask-type:luminance" maskUnits="userSpaceOnUse" x="25" y="35" width="10" height="8">
<path d="M25.2236 37.6356C25.7793 35.6976 28.2293 34.6999 30.6958 35.4071C33.1623 36.1144 34.7113 38.2588 34.1556 40.1968C33.5999 42.1348 31.1499 43.1325 28.6834 42.4253C26.2169 41.718 24.6678 39.5736 25.2236 37.6356Z" fill="url(#paint22_radial_286_27705)"/>
</mask>
<g mask="url(#mask11_286_27705)">
<path d="M25.2236 37.6356C25.7793 35.6976 28.2293 34.6999 30.6958 35.4071C33.1623 36.1144 34.7113 38.2588 34.1556 40.1968C33.5999 42.1348 31.1499 43.1325 28.6834 42.4253C26.2169 41.718 24.6678 39.5736 25.2236 37.6356Z" fill="url(#paint23_radial_286_27705)"/>
</g>
<path d="M40.4836 29.3035L35.6731 31.2419L30.6822 36.3883L33.5763 40.1436L37.1977 38.7597L40.2358 34.9811L40.4836 29.3035Z" fill="#4BAFE4"/>
<path d="M40.3751 29.3161L38.4043 35.3019L33.7181 40.0395L37.352 38.7641L40.2524 34.9353L40.3751 29.3161Z" fill="white"/>
<path d="M38.9065 29.9247L35.5938 31.3171L30.7699 36.0046L32.9258 39.0756L37.2193 36.2735L38.9065 29.9247Z" fill="url(#paint24_linear_286_27705)"/>
<path d="M40.229 29.5747L38.517 35.135L33.6889 39.9769" stroke="white" stroke-width="0.390625" stroke-linecap="round" stroke-linejoin="round"/>
<mask id="mask12_286_27705" style="mask-type:luminance" maskUnits="userSpaceOnUse" x="30" y="29" width="11" height="12">
<path d="M40.4836 29.3035L35.6731 31.2419L30.6822 36.3883L33.5763 40.1436L37.1977 38.7597L40.2358 34.9811L40.4836 29.3035Z" fill="url(#paint25_linear_286_27705)"/>
</mask>
<g mask="url(#mask12_286_27705)">
<path d="M40.4836 29.3035L35.6731 31.2419L30.6822 36.3883L33.5763 40.1436L37.1977 38.7597L40.2358 34.9811L40.4836 29.3035Z" fill="url(#paint26_linear_286_27705)"/>
</g>
<g opacity="0.35">
<path d="M35.6396 31.3336L38.3082 35.4226L40.1898 34.9643" stroke="white" stroke-width="0.390625" stroke-linecap="round" stroke-linejoin="round"/>
</g>
<g opacity="0.47">
<mask id="mask13_286_27705" style="mask-type:luminance" maskUnits="userSpaceOnUse" x="30" y="29" width="11" height="12">
<path d="M40.4836 29.3035L35.6731 31.2419L30.6822 36.3883L33.5763 40.1436L37.1977 38.7597L40.2358 34.9811L40.4836 29.3035Z" fill="url(#paint27_radial_286_27705)"/>
</mask>
<g mask="url(#mask13_286_27705)">
<path d="M40.4836 29.3035L35.6731 31.2419L30.6822 36.3883L33.5763 40.1436L37.1977 38.7597L40.2358 34.9811L40.4836 29.3035Z" fill="url(#paint28_radial_286_27705)"/>
</g>
</g>
<mask id="mask14_286_27705" style="mask-type:luminance" maskUnits="userSpaceOnUse" x="38" y="29" width="3" height="7">
<path d="M40.3375 29.5621C40.3375 29.5621 38.3876 35.3477 38.3375 35.4853C38.2874 35.623 40.0355 34.9602 40.0355 34.9602L40.3375 29.5621Z" fill="url(#paint29_radial_286_27705)"/>
</mask>
<g mask="url(#mask14_286_27705)">
<path d="M40.3375 29.5621C40.3375 29.5621 38.3876 35.3477 38.3375 35.4853C38.2874 35.623 40.0355 34.9602 40.0355 34.9602L40.3375 29.5621Z" fill="url(#paint30_radial_286_27705)" fill-opacity="0.6"/>
</g>
<path d="M40.4836 29.3035L35.6731 31.2419L30.6822 36.3883L33.5763 40.1436L37.1977 38.7597L40.2358 34.9811L40.4836 29.3035Z" stroke="url(#paint31_linear_286_27705)" stroke-width="0.390625" stroke-linecap="round" stroke-linejoin="round"/>
<path d="M23.7278 22.9449L21.8449 27.9754L24.536 32.563L27.0039 32.5032L27.0768 25.8786L23.7278 22.9449Z" fill="#4BAFE4"/>
<g opacity="0.7">
<mask id="mask15_286_27705" style="mask-type:luminance" maskUnits="userSpaceOnUse" x="21" y="22" width="7" height="11">
<path d="M23.7278 22.9449L21.8449 27.9754L24.4933 32.5672L27.0039 32.5032L27.0768 25.8786L23.7278 22.9449Z" fill="url(#paint32_linear_286_27705)"/>
</mask>
<g mask="url(#mask15_286_27705)">
<path d="M23.7278 22.9449L21.8449 27.9754L24.4933 32.5672L27.0039 32.5032L27.0768 25.8786L23.7278 22.9449Z" fill="url(#paint33_linear_286_27705)"/>
</g>
</g>
<path d="M25.9216 24.6267L21.9993 27.9796L27.1042 32.2278L27.1561 25.8035L25.9216 24.6267Z" fill="url(#paint34_linear_286_27705)"/>
<g opacity="0.67">
<path d="M23.2289 24.2442L23.139 29.9682L24.9494 32.5688L25.8277 24.6705L23.6 22.8624L23.2289 24.2442Z" fill="#CEAF74"/>
</g>
<path d="M23.7278 22.9449L21.9992 27.9796L27.1792 32.3072L23.7278 22.9449Z" fill="url(#paint35_linear_286_27705)"/>
<g opacity="0.36">
<path d="M25.7485 24.7455L21.8533 27.9524" stroke="white" stroke-width="0.390625" stroke-linecap="round" stroke-linejoin="round"/>
</g>
<path d="M23.7278 22.9449L21.8449 27.9754L24.4894 32.4027L27.0039 32.5032L27.0768 25.8786L23.7278 22.9449Z" stroke="#6E8B8E" stroke-width="0.390625" stroke-linecap="round" stroke-linejoin="round"/>
<path d="M22.7167 28.2928L19.9384 28.2169L20.7289 35.4675L26.9852 39.4074L25.2108 30.2918L22.7167 28.2928Z" fill="#4BAFE4"/>
<path d="M26.0657 31.2265L23.1661 32.1976L23.3048 28.8186L20.7832 35.1755L26.0657 31.2265Z" fill="#B7E6AA" fill-opacity="0.55"/>
<path d="M24.2222 29.7241L23.6578 33.9874L25.5879 38.5351L27.0333 31.9943L24.2222 29.7241Z" fill="url(#paint36_linear_286_27705)"/>
<mask id="mask16_286_27705" style="mask-type:luminance" maskUnits="userSpaceOnUse" x="19" y="28" width="8" height="12">
<path d="M22.7167 28.2928L19.9384 28.2169L20.7289 35.4675L26.9852 39.4074L25.2108 30.2918L22.7167 28.2928Z" fill="url(#paint37_linear_286_27705)"/>
</mask>
<g mask="url(#mask16_286_27705)">
<path d="M22.7167 28.2928L19.9384 28.2169L20.7289 35.4675L26.9852 39.4074L25.2108 30.2918L22.7167 28.2928Z" fill="url(#paint38_linear_286_27705)"/>
</g>
<path d="M19.9633 28.4338L20.7789 35.3298L23.357 35.3848L21.5816 29.6983L19.9633 28.4338Z" fill="url(#paint39_linear_286_27705)"/>
<g opacity="0.3">
<path d="M20.3222 28.3044L21.0585 35.2755L26.8144 38.8774" stroke="white" stroke-width="0.390625" stroke-linecap="round" stroke-linejoin="round"/>
</g>
<path d="M22.8085 28.3261L19.9967 28.342L21.7484 29.8109L22.8085 28.3261Z" fill="#D4F5FF"/>
<path d="M20.7685 35.4299L23.4259 35.4099L21.6567 29.7776L20.0051 28.3191" stroke="#B6FAFF" stroke-width="0.390625" stroke-linecap="round" stroke-linejoin="round"/>
<path d="M20.0427 28.3586L21.6567 29.7775L22.6833 28.3844" stroke="white" stroke-width="0.390625" stroke-linecap="round" stroke-linejoin="round"/>
<path d="M27.0415 39.3238L23.4029 35.4014L20.7372 35.4444" stroke="#FFCCD1" stroke-width="0.390625" stroke-linecap="round" stroke-linejoin="round"/>
<path d="M22.7167 28.2928L19.9384 28.2169L20.7289 35.4675L26.9852 39.4074L25.2108 30.2918L22.7167 28.2928Z" stroke="url(#paint40_linear_286_27705)" stroke-width="0.390625" stroke-linecap="round" stroke-linejoin="round"/>
<path d="M34.5838 18.5305L29.1951 21.8433L25.9711 23.7934L24.6883 33.5831L25.6129 38.7521L31.0192 39.3168L35.73 35.9392L38.2605 27.559L34.5838 18.5305Z" fill="#40D4FF"/>
<path d="M29.5989 31.941L26.1198 31.5061L27.0702 34.0344L29.5989 31.941Z" fill="#63B0FF"/>
<path d="M32.1159 26.8815L35.0239 25.6017L38.3022 27.7302L32.1159 26.8815Z" fill="#63B0FF"/>
<path d="M26.3681 24.1139C26.3681 24.1139 26.3056 24.143 26.3694 24.1336C26.0372 26.5953 25.1496 33.4578 25.1222 33.5331C25.0721 33.6708 25.8342 38.0012 25.8342 38.0012" stroke="white" stroke-width="0.390625" stroke-linecap="round"/>
<path d="M34.9684 29.8942L34.1737 36.9315L35.7653 35.8487L36.5151 33.2111L34.9684 29.8942Z" fill="#FFB974"/>
<g opacity="0.67">
<path d="M29.1073 29.5794L28.3112 31.6999L25.7089 38.6309L31.3823 39.0331L35.7051 35.7221L29.1073 29.5794Z" fill="#95C4FF"/>
</g>
<g opacity="0.26">
<path d="M34.638 18.8098L37.241 30.9352L38.2272 27.6506L34.638 18.8098Z" fill="#FFA30F"/>
</g>
<path d="M34.3311 19.5816L26.6245 24.6229L28.017 27.3641C28.017 27.3641 34.3923 24.1245 34.5342 24.0203C34.676 23.916 29.1233 24.7529 29.1233 24.7529L34.3311 19.5816Z" fill="#0FFFF3"/>
<path d="M34.3311 19.5816L26.6245 24.6229L28.017 27.3641C28.017 27.3641 34.3923 24.1245 34.5342 24.0203C34.676 23.916 29.1233 24.7529 29.1233 24.7529L34.3311 19.5816Z" stroke="url(#paint41_radial_286_27705)" stroke-width="0.390625" stroke-linecap="round" stroke-linejoin="round"/>
<g opacity="0.73">
<path d="M25.9886 23.8718L25.7583 26.6459L29.3659 29.7257L25.9886 23.8718Z" fill="#CDFF95"/>
</g>
<path d="M26.3639 24.1253L34.3667 19.1269L37.8162 27.709C37.8162 27.709 35.6113 35.4802 35.5612 35.6178C35.5111 35.7555 31.0632 38.8391 31.0632 38.8391" stroke="white" stroke-width="0.390625" stroke-linecap="round"/>
<mask id="mask17_286_27705" style="mask-type:luminance" maskUnits="userSpaceOnUse" x="24" y="18" width="15" height="22">
<path d="M34.5838 18.5303L26.1013 23.7049L25.5649 27.4553L24.6884 33.583L25.613 38.752L31.0193 39.3167L35.7301 35.9391L38.2606 27.5589L34.5838 18.5303Z" fill="url(#paint42_linear_286_27705)"/>
</mask>
<g mask="url(#mask17_286_27705)">
<path d="M34.5838 18.5303L26.1013 23.7049L25.5649 27.4553L24.6884 33.583L25.613 38.752L31.0193 39.3167L35.7301 35.9391L38.2606 27.5589L34.5838 18.5303Z" fill="url(#paint43_linear_286_27705)"/>
</g>
<mask id="mask18_286_27705" style="mask-type:luminance" maskUnits="userSpaceOnUse" x="24" y="18" width="15" height="22">
<path d="M34.5838 18.5303L26.1013 23.7049L25.5813 27.3402L24.6884 33.583L25.613 38.752L31.0193 39.3167L35.7301 35.9391L38.2606 27.5589L34.5838 18.5303Z" fill="url(#paint44_linear_286_27705)"/>
</mask>
<g mask="url(#mask18_286_27705)">
<path d="M34.5838 18.5303L26.1013 23.7049L25.5813 27.3402L24.6884 33.583L25.613 38.752L31.0193 39.3167L35.7301 35.9391L38.2606 27.5589L34.5838 18.5303Z" fill="url(#paint45_linear_286_27705)"/>
</g>
<g opacity="0.29">
<path d="M35.1187 29.4813C35.0097 31.2084 35.826 35.8183 35.826 35.8183C35.826 35.8183 36.3815 33.5783 37.2416 30.9295C36.3988 31.2463 35.6315 30.4994 35.1187 29.4813Z" fill="#4180E6"/>
</g>
<path d="M30.6285 34.3941L26.0431 37.1419L25.7933 38.6356L30.8858 39.1124L33.4811 37.4069L30.6285 34.3941Z" fill="url(#paint46_linear_286_27705)"/>
<mask id="mask19_286_27705" style="mask-type:luminance" maskUnits="userSpaceOnUse" x="24" y="18" width="15" height="22">
<path d="M34.5838 18.5303L26.1013 23.7049L25.5647 27.4564L24.6884 33.583L25.613 38.752L31.0193 39.3167L35.7301 35.9391L38.2606 27.5589L34.5838 18.5303Z" fill="url(#paint47_radial_286_27705)"/>
</mask>
<g mask="url(#mask19_286_27705)">
<path d="M34.5838 18.5303L26.1013 23.7049L25.5647 27.4564L24.6884 33.583L25.613 38.752L31.0193 39.3167L35.7301 35.9391L38.2606 27.5589L34.5838 18.5303Z" fill="url(#paint48_radial_286_27705)"/>
</g>
<path d="M34.9106 28.0546L29.1241 29.5338L28.2621 31.6327L25.467 38.4392L31.0402 39.1167L34.107 37.1152L34.9588 29.9321L34.9106 28.0546Z" fill="url(#paint49_linear_286_27705)"/>
<path d="M25.7256 38.5852L28.449 31.6551L29.245 29.6297L34.8522 27.9293L35.6842 35.9224" stroke="#FFE1A3" stroke-width="0.390625" stroke-linecap="round" stroke-linejoin="round"/>
<g opacity="0.65">
<path d="M34.6588 18.6097L25.9302 23.7466L29.2574 29.7381L34.8312 28.1295L34.6588 18.6097Z" fill="#FFEBC5"/>
</g>
<g opacity="0.78">
<path d="M28.0915 22.6625L26.0345 23.8883L33.2 28.471L33.5546 28.4961L28.0915 22.6625Z" fill="white"/>
</g>
<mask id="mask20_286_27705" style="mask-type:luminance" maskUnits="userSpaceOnUse" x="30" y="18" width="5" height="11">
<path d="M34.3751 18.8182L30.8578 20.9155L33.029 28.5128L34.6811 27.9709L34.3751 18.8182Z" fill="url(#paint50_radial_286_27705)"/>
</mask>
<g mask="url(#mask20_286_27705)">
<path d="M34.3751 18.8182L30.8578 20.9155L33.029 28.5128L34.6811 27.9709L34.3751 18.8182Z" fill="url(#paint51_radial_286_27705)"/>
</g>
<mask id="mask21_286_27705" style="mask-type:luminance" maskUnits="userSpaceOnUse" x="26" y="26" width="8" height="11">
<path d="M33.805 28.3794L29.415 29.6115L27.4312 26.4752C27.4312 26.4752 28.665 29.9381 26.6441 36.0615C28.9808 34.21 30.4335 30.7896 33.1366 31.3578C34.0965 30.1483 33.805 28.3794 33.805 28.3794Z" fill="url(#paint52_radial_286_27705)"/>
</mask>
<g mask="url(#mask21_286_27705)">
<path d="M33.805 28.3794L29.415 29.6115L27.4312 26.4752C27.4312 26.4752 28.665 29.9381 26.6441 36.0615C28.9808 34.21 30.4335 30.7896 33.1366 31.3578C34.0965 30.1483 33.805 28.3794 33.805 28.3794Z" fill="url(#paint53_radial_286_27705)"/>
</g>
<mask id="mask22_286_27705" style="mask-type:luminance" maskUnits="userSpaceOnUse" x="26" y="29" width="10" height="11">
<path d="M35.0477 29.819L31.4335 34.8949L26.4306 38.7897L29.8804 39.162L35.3181 32.3596L35.0477 29.819Z" fill="url(#paint54_linear_286_27705)"/>
</mask>
<g mask="url(#mask22_286_27705)">
<path d="M35.0477 29.819L31.4335 34.8949L26.4306 38.7897L29.8804 39.162L35.3181 32.3596L35.0477 29.819Z" fill="url(#paint55_linear_286_27705)"/>
</g>
<path d="M26.1138 23.8135L26.1626 23.8167L29.245 29.6298L34.8522 27.9294L34.5963 18.639" stroke="#E1F0A9" stroke-width="0.390625" stroke-linecap="round" stroke-linejoin="round"/>
<path d="M24.7175 33.6456L26.1763 23.7842L34.613 18.593" stroke="#E1F0A9" stroke-width="0.390625" stroke-linecap="round" stroke-linejoin="round"/>
<path d="M26.1138 23.8135L26.1626 23.8167L29.245 29.6298L34.8522 27.9294L34.5963 18.639" stroke="url(#paint56_radial_286_27705)" stroke-width="0.390625" stroke-linecap="round" stroke-linejoin="round"/>
<path d="M25.7256 38.5852L28.3744 31.8448L29.245 29.6297L34.8522 27.9293L35.6842 35.9224" stroke="url(#paint57_radial_286_27705)" stroke-width="0.390625" stroke-linecap="round" stroke-linejoin="round"/>
<path d="M34.5838 18.5305L29.1951 21.8433L25.9711 23.7934L24.6883 33.5831L25.6129 38.7521L31.0192 39.3168L35.73 35.9392L38.2605 27.559L34.5838 18.5305Z" stroke="url(#paint58_linear_286_27705)" stroke-width="0.390625" stroke-linecap="round" stroke-linejoin="round"/>
<path d="M28.5246 23.0592L27.3977 24.7275L29.617 24.9118L28.5246 23.0592Z" fill="white"/>
<path d="M34.4128 21.6573L33.375 19.9322L32.2723 21.8669L34.4128 21.6573Z" fill="white"/>
<path d="M27.7612 26.8559L28.219 32.0144L31.882 28.8507L27.7612 26.8559Z" fill="white"/>
<path d="M30.651 35.8314L25.5211 38.7187L28.8451 41.4355L33.7305 40.1479L30.651 35.8314Z" fill="#4BAFE4"/>
<g opacity="0.86">
<path d="M30.6991 35.7708L30.6731 38.9829L28.8911 41.452L33.6847 40.131L30.6991 35.7708Z" fill="white"/>
</g>
<mask id="mask23_286_27705" style="mask-type:luminance" maskUnits="userSpaceOnUse" x="25" y="35" width="9" height="7">
<path d="M30.651 35.8314L25.5211 38.7187L28.8451 41.4355L33.7305 40.1479L30.651 35.8314Z" fill="url(#paint59_radial_286_27705)"/>
</mask>
<g mask="url(#mask23_286_27705)">
<path d="M30.651 35.8314L25.5211 38.7187L28.8451 41.4355L33.7305 40.1479L30.651 35.8314Z" fill="url(#paint60_radial_286_27705)"/>
</g>
<g opacity="0.66">
<path d="M32.166 40.5915L28.2498 37.5033L29.7443 41.0351L30.2993 40.2238L32.166 40.5915Z" fill="#E8FF63"/>
</g>
<mask id="mask24_286_27705" style="mask-type:luminance" maskUnits="userSpaceOnUse" x="25" y="35" width="9" height="7">
<path d="M30.651 35.8314L25.5211 38.7187L28.8451 41.4355L33.7305 40.1479L30.651 35.8314Z" fill="url(#paint61_linear_286_27705)"/>
</mask>
<g mask="url(#mask24_286_27705)">
<path d="M30.651 35.8314L25.5211 38.7187L28.8451 41.4355L33.7305 40.1479L30.651 35.8314Z" fill="url(#paint62_linear_286_27705)"/>
</g>
<g opacity="0.42">
<path d="M30.7742 35.85L25.7047 38.7854L30.5668 38.9182L30.7742 35.85Z" fill="white"/>
</g>
<path d="M26.1531 38.7669L28.9099 41.0434L33.3197 39.9204" stroke="#ADDEE7" stroke-width="0.390625"/>
<g opacity="0.43">
<path d="M33.5147 40.277L29.1675 41.3708L30.6908 39.1842L33.5147 40.277Z" fill="#C8A5FD"/>
</g>
<path d="M30.6043 38.9579L28.8765 41.4207L33.6993 40.1623L30.6043 38.9579Z" stroke="#E2FF86" stroke-width="0.390625" stroke-linecap="round" stroke-linejoin="round"/>
<path d="M25.5441 38.7269L30.6126 38.9349L30.6657 35.8625" stroke="white" stroke-width="0.390625" stroke-linecap="round" stroke-linejoin="round"/>
<path d="M30.651 35.8314L25.5211 38.7187L28.8451 41.4355L33.7305 40.1479L30.651 35.8314Z" stroke="url(#paint63_linear_286_27705)" stroke-width="0.390625" stroke-linecap="round" stroke-linejoin="round"/>
<mask id="mask25_286_27705" style="mask-type:luminance" maskUnits="userSpaceOnUse" x="24" y="21" width="5" height="6">
<path d="M26.4837 23.7711C27.5049 25.0793 28.2085 26.2367 28.0554 26.3562C27.9022 26.4758 26.9502 25.5122 25.9291 24.2041C24.9079 22.8959 24.2042 21.7385 24.3574 21.6189C24.5105 21.4994 25.4625 22.463 26.4837 23.7711Z" fill="url(#paint64_radial_286_27705)"/>
</mask>
<g mask="url(#mask25_286_27705)">
<path d="M26.4837 23.7711C27.5049 25.0793 28.2085 26.2367 28.0554 26.3562C27.9022 26.4758 26.9502 25.5122 25.9291 24.2041C24.9079 22.8959 24.2042 21.7385 24.3574 21.6189C24.5105 21.4994 25.4625 22.463 26.4837 23.7711Z" fill="url(#paint65_radial_286_27705)"/>
</g>
<mask id="mask26_286_27705" style="mask-type:luminance" maskUnits="userSpaceOnUse" x="23" y="21" width="7" height="6">
<path d="M26.5288 24.3461C24.8384 25.8668 23.3237 26.9392 23.1457 26.7413C22.9677 26.5434 24.1937 25.1501 25.884 23.6294C27.5744 22.1087 29.0891 21.0363 29.2671 21.2342C29.4451 21.4321 28.2191 22.8253 26.5288 24.3461Z" fill="url(#paint66_radial_286_27705)"/>
</mask>
<g mask="url(#mask26_286_27705)">
<path d="M26.5288 24.3461C24.8384 25.8668 23.3237 26.9392 23.1457 26.7413C22.9677 26.5434 24.1937 25.1501 25.884 23.6294C27.5744 22.1087 29.0891 21.0363 29.2671 21.2342C29.4451 21.4321 28.2191 22.8253 26.5288 24.3461Z" fill="url(#paint67_radial_286_27705)"/>
</g>
<mask id="mask27_286_27705" style="mask-type:luminance" maskUnits="userSpaceOnUse" x="24" y="21" width="5" height="6">
<path d="M26.4837 23.7711C27.5049 25.0793 28.2085 26.2367 28.0554 26.3562C27.9022 26.4758 26.9502 25.5122 25.9291 24.2041C24.9079 22.8959 24.2042 21.7385 24.3574 21.6189C24.5105 21.4994 25.4625 22.463 26.4837 23.7711Z" fill="url(#paint68_radial_286_27705)"/>
</mask>
<g mask="url(#mask27_286_27705)">
<path d="M26.4837 23.7711C27.5049 25.0793 28.2085 26.2367 28.0554 26.3562C27.9022 26.4758 26.9502 25.5122 25.9291 24.2041C24.9079 22.8959 24.2042 21.7385 24.3574 21.6189C24.5105 21.4994 25.4625 22.463 26.4837 23.7711Z" fill="url(#paint69_radial_286_27705)"/>
</g>
</g>
</g>
<g clip-path="url(#clip1_286_27705)">
<mask id="mask28_286_27705" style="mask-type:luminance" maskUnits="userSpaceOnUse" x="2" y="3" width="31" height="32">
<path d="M26.1481 3.49998L2 9.97046L8.47048 34.1186L32.6186 27.6481L26.1481 3.49998Z" fill="white"/>
</mask>
<g mask="url(#mask28_286_27705)">
<path d="M21.8411 8.69681C21.5832 7.59569 20.4823 6.91661 19.3823 7.18006C18.2823 7.4435 17.5997 8.5497 17.8576 9.65082C18.1156 10.7519 19.2164 11.431 20.3164 11.1676C21.4165 10.9041 22.0991 9.79792 21.8411 8.69681Z" fill="url(#paint70_radial_286_27705)"/>
<path d="M21.8411 8.69681C21.5832 7.59569 20.4823 6.91661 19.3823 7.18006C18.2823 7.4435 17.5997 8.5497 17.8576 9.65082C18.1156 10.7519 19.2164 11.431 20.3164 11.1676C21.4165 10.9041 22.0991 9.79792 21.8411 8.69681Z" stroke="url(#paint71_linear_286_27705)" stroke-width="0.390627" stroke-linecap="round" stroke-linejoin="round"/>
<path d="M19.0619 9.08046C18.9477 9.74917 19.3701 10.3774 20.0054 10.4836C20.6407 10.5898 21.2484 10.1338 21.3626 9.4651C21.4769 8.79638 21.0544 8.16821 20.4191 8.06198C19.7838 7.95575 19.1762 8.41174 19.0619 9.08046Z" fill="url(#paint72_linear_286_27705)"/>
<g opacity="0.2">
<path d="M17.9326 8.35315C19.6007 8.19541 20.9772 9.12788 21.7891 10.0189C21.109 12.1048 17.3565 11.568 17.9326 8.35315Z" fill="#B61060"/>
</g>
<path d="M9.16522 9.47216C11.7363 8.61209 13.0162 12.5006 10.4451 13.3607C7.87401 14.2207 6.59412 10.3322 9.16522 9.47216Z" fill="url(#paint73_radial_286_27705)"/>
<path d="M9.16522 9.47216C11.7363 8.61209 13.0162 12.5006 10.4451 13.3607C7.87401 14.2207 6.59412 10.3322 9.16522 9.47216Z" stroke="url(#paint74_linear_286_27705)" stroke-width="0.390627" stroke-linecap="round" stroke-linejoin="round"/>
<path d="M10.5454 10.6255C10.9906 11.1339 10.9181 11.9276 10.3835 12.3982C9.84884 12.8687 9.0546 12.8379 8.60944 12.3294C8.16428 11.821 8.23682 11.0273 8.77143 10.5567C9.30604 10.0862 10.1003 10.117 10.5454 10.6255Z" fill="url(#paint75_linear_286_27705)"/>
<g opacity="0.2">
<path d="M8.62431 13.0642C8.91631 12.171 9.82643 10.7661 11.3987 10.152C13.9353 12.465 9.70503 14.5111 8.62431 13.0642Z" fill="#B61060"/>
</g>
<path d="M24.9169 22.5768C27.2567 28.4537 13.4228 32.6314 12.1419 26.4369C11.4155 22.9239 13.4369 19.7491 16.4423 18.6729C18.7222 17.8565 23.3121 18.546 24.9169 22.5768Z" fill="url(#paint76_radial_286_27705)"/>
<path d="M24.9169 22.5768C27.2567 28.4537 13.4228 32.6314 12.1419 26.4369C11.4155 22.9239 13.4369 19.7491 16.4423 18.6729C18.7222 17.8565 23.3121 18.546 24.9169 22.5768Z" stroke="url(#paint77_linear_286_27705)" stroke-width="0.390625" stroke-linecap="round" stroke-linejoin="round"/>
<path d="M22.5254 24.9436C23.0546 27.2562 16.9912 29.4653 15.8431 26.8677C15.1986 25.4096 15.5318 23.0937 18.2972 22.0817C20.8071 21.1632 22.1339 23.2326 22.5254 24.9436Z" fill="url(#paint78_linear_286_27705)"/>
<g opacity="0.33">
<path d="M19.7607 28.0182C17.0108 28.8147 13.6181 27.861 12.0005 25.6632C12.1891 26.5782 12.806 28.1089 13.7617 28.8704C15.6771 30.3969 20.1422 29.0119 20.2623 28.9716C22.2415 28.3099 24.4173 27.0181 24.9597 25.1465C25.2127 24.274 25.3545 22.5941 24.2527 21.2722C24.3001 23.281 23.6221 26.8991 19.7607 28.0182Z" fill="#B61060"/>
</g>
<g opacity="0.2">
<path d="M15.1106 21.6147C14.6128 22.0499 13.8013 22.7714 13.6637 23.2932C13.5293 23.803 14.0373 24.1226 16.1067 23.8004C15.8172 24.5154 15.4498 25.2073 15.4498 25.2073L17.9539 25.7994L18.1241 22.6255L18.9667 22.235L20.51 24.8567L22.3319 23.6436C22.3319 23.6436 21.525 22.2787 20.8963 22.0331C25.2691 21.6889 22.2353 20.3803 22.2353 20.3803C22.2891 20.3866 18.1244 20.8619 15.1106 21.6147Z" fill="#B61060"/>
</g>
<path d="M22.8657 13.1374C24.1495 16.1348 21.5065 18.9315 17.8217 20.1641C14.1368 21.3967 10.178 20.8632 9.42971 17.6868C8.74073 14.7622 9.53866 10.3572 14.0318 8.89659C18.7842 7.35169 21.6839 10.3777 22.8657 13.1374Z" fill="url(#paint79_radial_286_27705)"/>
<path d="M22.8657 13.1374C24.1495 16.1348 21.5065 18.9315 17.8217 20.1641C14.1368 21.3967 10.178 20.8632 9.42971 17.6868C8.74073 14.7622 9.53866 10.3572 14.0318 8.89659C18.7842 7.35169 21.6839 10.3777 22.8657 13.1374Z" stroke="url(#paint80_linear_286_27705)" stroke-width="0.390627" stroke-linecap="round" stroke-linejoin="round"/>
<g opacity="0.33">
<path d="M22.0969 11.6305C24.9266 17.5374 10.1534 23.0656 9.26837 15.3117C8.75348 23.2805 17.6363 20.2261 17.8216 20.1641C21.285 19.0056 25.3124 15.892 22.0969 11.6305Z" fill="#B61060"/>
</g>
<path d="M13.1858 21.9178C12.2848 21.687 10.7657 23.757 10.5071 25.2125C10.1922 26.9849 13.2057 27.5116 13.4695 25.7011C13.7332 23.8906 13.6085 22.026 13.1858 21.9178Z" fill="url(#paint81_radial_286_27705)"/>
<path d="M13.1858 21.9178C12.2848 21.687 10.7657 23.757 10.5071 25.2125C10.1922 26.9849 13.2057 27.5116 13.4695 25.7011C13.7332 23.8906 13.6085 22.026 13.1858 21.9178Z" stroke="url(#paint82_linear_286_27705)" stroke-width="0.390625" stroke-linecap="round" stroke-linejoin="round"/>
<g opacity="0.3">
<path d="M10.949 25.2C11.0805 24.3279 11.5066 23.5899 12.2291 22.879" stroke="white" stroke-width="0.390625" stroke-linecap="round" stroke-linejoin="round"/>
</g>
<path d="M13.2372 25.5501C13.4855 26.4768 11.6166 27.0764 11.3957 26.2521C11.1841 25.4624 13.0639 24.9033 13.2372 25.5501Z" fill="url(#paint83_linear_286_27705)"/>
<path d="M21.9427 19.1019C22.5921 18.5039 25.8553 19.6875 26.4359 20.9318C27.2734 22.7269 25.0884 23.8842 23.9376 22.476C22.9543 21.2727 21.6086 19.4096 21.9427 19.1019Z" fill="url(#paint84_radial_286_27705)"/>
<path d="M21.9427 19.1019C22.5921 18.5039 25.8553 19.6875 26.4359 20.9318C27.2734 22.7269 25.0884 23.8842 23.9376 22.476C22.9543 21.2727 21.6086 19.4096 21.9427 19.1019Z" stroke="url(#paint85_linear_286_27705)" stroke-width="0.390625" stroke-linecap="round" stroke-linejoin="round"/>
<g opacity="0.3">
<path d="M23.8339 19.5939C24.4582 19.8011 25.2118 20.172 25.6562 20.6111" stroke="white" stroke-width="0.390625" stroke-linecap="round" stroke-linejoin="round"/>
</g>
<path d="M26.2053 21.9799C26.4567 22.9183 24.4943 23.3794 24.2277 22.3845C23.9923 21.5057 25.9654 21.0849 26.2053 21.9799Z" fill="url(#paint86_linear_286_27705)"/>
<g opacity="0.5">
<path d="M19.798 10.2058C20.1246 11.4491 18.331 13.0084 15.7919 13.6888C13.2528 14.3691 10.9297 13.9127 10.6031 12.6694C10.2766 11.4261 12.0249 9.69447 14.564 9.01416C17.1031 8.33385 19.4714 8.96247 19.798 10.2058Z" fill="url(#paint87_radial_286_27705)"/>
</g>
<g opacity="0.3">
<path d="M9.63682 15.1294C9.64983 13.8481 10.555 10.35 14.442 9.29334" stroke="white" stroke-width="0.390627" stroke-linecap="round" stroke-linejoin="round"/>
</g>
<g opacity="0.5">
<path d="M14.5025 16.2738C14.4933 17.0077 13.9693 17.6248 13.3321 17.652C12.6949 17.6792 12.1858 17.1063 12.195 16.3724C12.2041 15.6385 12.7281 15.0214 13.3653 14.9942C14.0025 14.967 14.5116 15.5399 14.5025 16.2738Z" fill="#B61060"/>
</g>
<g opacity="0.5">
<path d="M18.027 15.3294C18.3951 15.9622 19.153 16.2358 19.7198 15.9405C20.2866 15.6451 20.4476 14.8927 20.0794 14.2598C19.7113 13.627 18.9534 13.3534 18.3866 13.6488C17.8198 13.9441 17.6588 14.6966 18.027 15.3294Z" fill="#B61060"/>
</g>
<path d="M19.3171 16.9147C19.5504 17.8289 19.3401 18.7652 17.1931 19.3342C15.1132 19.8853 14.3859 19.1148 14.1526 18.2006C13.9192 17.2864 14.8922 15.9191 16.2102 15.5758C17.5282 15.2326 19.0838 16.0005 19.3171 16.9147Z" fill="url(#paint88_linear_286_27705)"/>
<g opacity="0.2">
<path d="M17.0355 18.4585C15.9547 18.7481 16.0575 19.1395 17.1383 18.8499C18.2191 18.5604 18.1163 18.1689 17.0355 18.4585ZM18.583 16.0011C18.9579 16.2519 19.23 16.5727 19.3173 16.9147C19.5503 17.8287 19.8939 18.9465 17.313 19.638C14.4594 20.4026 14.3856 19.1144 14.1526 18.2004C14.0847 17.9341 14.1198 17.6295 14.2351 17.3227C14.2527 17.6394 14.2426 17.8069 14.4492 18.0896C14.8802 18.6807 15.8552 17.9828 16.869 17.7708C17.2324 17.6952 18.7125 17.5993 18.8169 16.836C18.8656 16.4828 18.6964 16.1865 18.583 16.0011Z" fill="#B71060"/>
</g>
<path d="M18.29 17.0872C18.1761 18.4453 15.9342 19.0223 15.2849 18.0564" stroke="#B3115F" stroke-width="0.390627" stroke-linecap="round" stroke-linejoin="round"/>
<path d="M16.9418 18.4299C16.8657 18.1288 16.7924 17.8119 16.7389 17.5292" stroke="#B3115F" stroke-width="0.390627" stroke-linecap="round" stroke-linejoin="round"/>
<path d="M16.0657 17.3435C15.1595 17.5147 15.1101 16.3982 16.2093 16.0678C17.6929 15.6219 17.971 16.6772 17.2923 17.042C17.1926 17.4415 16.2421 17.6533 16.0657 17.3435Z" fill="url(#paint89_linear_286_27705)"/>
<path d="M16.0657 17.3435C15.1595 17.5147 15.1101 16.3982 16.2093 16.0678C17.6929 15.6219 17.971 16.6772 17.2923 17.042C17.1926 17.4415 16.2421 17.6533 16.0657 17.3435Z" stroke="black" stroke-width="0.42632" stroke-linecap="round" stroke-linejoin="round"/>
<path d="M16.0657 17.3434C16.0577 17.1848 16.1209 17.0854 16.195 17.0331" stroke="black" stroke-width="0.42632" stroke-linecap="round" stroke-linejoin="round"/>
<path d="M17.2923 17.0419C17.2049 16.851 16.9786 16.7875 16.9786 16.7875" stroke="black" stroke-width="0.42632" stroke-linecap="round" stroke-linejoin="round"/>
<g opacity="0.1">
<path d="M16.6258 16.33C16.2563 16.4031 15.9623 16.5232 15.8135 16.7836" stroke="white" stroke-width="0.42632" stroke-linecap="round" stroke-linejoin="round"/>
</g>
<path d="M14.3984 15.9707C14.3893 16.7046 13.8653 17.3217 13.2281 17.3489C12.5909 17.3761 12.0818 16.8032 12.0909 16.0693C12.1 15.3354 12.624 14.7183 13.2612 14.6911C13.8984 14.6639 14.4075 15.2368 14.3984 15.9707Z" fill="black"/>
<path d="M13.892 15.2358C13.9438 15.4692 13.7022 15.7169 13.3524 15.7891C13.0026 15.8612 12.677 15.7305 12.6252 15.4971C12.5734 15.2637 12.815 15.016 13.1648 14.9439C13.5146 14.8718 13.8401 15.0024 13.892 15.2358Z" fill="url(#paint90_linear_286_27705)"/>
<path d="M17.9737 15.0126C18.3418 15.6455 19.0998 15.9191 19.6666 15.6237C20.2334 15.3284 20.3943 14.5759 20.0262 13.9431C19.6581 13.3102 18.9002 13.0366 18.3334 13.332C17.7666 13.6274 17.6056 14.3798 17.9737 15.0126Z" fill="black"/>
<path d="M18.053 14.1211C18.1225 14.3497 18.4539 14.4439 18.7931 14.3314C19.1323 14.219 19.3509 13.9425 19.2814 13.7138C19.2119 13.4851 18.8805 13.391 18.5413 13.5034C18.2021 13.6159 17.9835 13.8924 18.053 14.1211Z" fill="url(#paint91_linear_286_27705)"/>
<path d="M26.4534 27.5643C25.1519 27.3172 24.6153 26.8722 24.1844 26.6516C23.1561 26.1251 23.4985 22.8779 25.5861 23.2891C26.2524 23.4204 27.0516 23.5476 27.4646 23.7393C29.1074 24.5019 28.3533 27.925 26.4534 27.5643Z" fill="url(#paint92_radial_286_27705)"/>
<path d="M26.4534 27.5643C25.1519 27.3172 24.6153 26.8722 24.1844 26.6516C23.1561 26.1251 23.4985 22.8779 25.5861 23.2891C26.2524 23.4204 27.0516 23.5476 27.4646 23.7393C29.1074 24.5019 28.3533 27.925 26.4534 27.5643Z" stroke="url(#paint93_linear_286_27705)" stroke-width="0.390625" stroke-linecap="round" stroke-linejoin="round"/>
<path d="M27.4015 28.261C31.5572 28.2432 31.4152 20.345 27.2882 20.3219C24.0516 20.3039 23.3157 28.2786 27.4015 28.261Z" fill="url(#paint94_radial_286_27705)"/>
<path d="M27.4015 28.261C31.5572 28.2432 31.4152 20.345 27.2882 20.3219C24.0516 20.3039 23.3157 28.2786 27.4015 28.261Z" stroke="url(#paint95_linear_286_27705)" stroke-width="0.390625" stroke-linecap="round" stroke-linejoin="round"/>
<path d="M28.8269 27.1725C30.296 26.2188 30.4317 24.2911 30.1299 23.2007C29.8482 22.1827 28.3396 22.0702 28.0389 23.5491C27.2405 22.6691 26.0692 22.6972 25.9241 24.3072C25.8315 25.3343 26.9737 27.1312 28.8269 27.1725Z" fill="url(#paint96_linear_286_27705)"/>
<g opacity="0.66">
<path d="M25.0195 23.7784C25.3443 24.9907 26.867 25.6396 27.9975 25.3367C29.1281 25.0338 30.0172 23.592 29.6924 22.3797C29.3676 21.1674 27.9775 20.3101 26.847 20.6131C25.7165 20.916 24.6947 22.5661 25.0195 23.7784Z" fill="url(#paint97_radial_286_27705)"/>
</g>
<g opacity="0.3">
<path d="M27.1336 20.7328C27.5962 20.7052 28.6942 20.8449 29.3636 21.8586" stroke="white" stroke-width="0.390625" stroke-linecap="round" stroke-linejoin="round"/>
</g>
<path d="M14.2186 31.3598C14.7255 30.9483 15.4431 30.0625 15.7187 29.7016C16.3766 28.8406 14.7751 26.2299 13.1739 27.4213C12.6629 27.8015 12.0897 28.2011 11.8175 28.5302C10.7348 29.8394 12.8104 32.5032 14.2186 31.3598Z" fill="url(#paint98_radial_286_27705)"/>
<path d="M14.2186 31.3598C14.7255 30.9483 15.4431 30.0625 15.7187 29.7016C16.3766 28.8406 14.7751 26.2299 13.1739 27.4213C12.6629 27.8015 12.0897 28.2011 11.8175 28.5302C10.7348 29.8394 12.8104 32.5032 14.2186 31.3598Z" stroke="url(#paint99_linear_286_27705)" stroke-width="0.390625" stroke-linecap="round" stroke-linejoin="round"/>
<path d="M13.6062 32.1022C10.3715 34.2775 6.23329 28.3677 9.31025 26.0185C12.0361 23.9375 17.0849 29.7628 13.6062 32.1022Z" fill="url(#paint100_radial_286_27705)"/>
<path d="M13.6062 32.1022C10.3715 34.2775 6.23329 28.3677 9.31025 26.0185C12.0361 23.9375 17.0849 29.7628 13.6062 32.1022Z" stroke="url(#paint101_linear_286_27705)" stroke-width="0.390625" stroke-linecap="round" stroke-linejoin="round"/>
<path d="M12.2643 31.9669C10.6055 32.224 9.42736 31.115 8.94872 30.0935C8.50192 29.1399 9.23784 28.0308 10.3951 28.9448C10.3175 27.6487 11.178 26.7652 12.3074 27.8812C13.028 28.5933 13.5643 30.7053 12.2643 31.9669Z" fill="url(#paint102_linear_286_27705)"/>
<g opacity="0.66">
<path d="M13.0372 27.7955C13.3621 29.0078 12.3679 30.3311 11.2374 30.634C10.1069 30.9369 8.92708 30.1997 8.60224 28.9874C8.2774 27.7751 8.74144 26.2709 9.87197 25.968C11.0025 25.665 12.7124 26.5832 13.0372 27.7955Z" fill="url(#paint103_radial_286_27705)"/>
</g>
<path d="M17.6483 21.0032C17.4096 21.6712 17.6943 25.0613 17.6943 25.0613L15.3623 24.5311C15.3623 24.5311 16.6826 21.2408 17.1711 20.7371" fill="#EF0B00"/>
<path d="M17.6483 21.0032C17.4096 21.6712 17.6943 25.0613 17.6943 25.0613L15.3623 24.5311C15.3623 24.5311 16.6826 21.2408 17.1711 20.7371" stroke="#990700" stroke-width="0.390625" stroke-linecap="round" stroke-linejoin="round"/>
<path d="M18.4179 21.0364C19.1658 21.4991 20.2423 23.7608 20.5617 24.2355C21.082 23.8647 22.0407 22.9573 22.0407 22.9573C21.0826 21.6569 19.2487 20.6999 19.2487 20.6999" fill="#EF0B00"/>
<path d="M18.4179 21.0364C19.1658 21.4991 20.2423 23.7608 20.5617 24.2355C21.082 23.8647 22.0407 22.9573 22.0407 22.9573C21.0826 21.6569 19.2487 20.6999 19.2487 20.6999" stroke="#990700" stroke-width="0.390625" stroke-linecap="round" stroke-linejoin="round"/>
<path d="M17.8957 20.9854C19.6204 21.1429 22.118 21.7776 22.9248 21.4446C24.0849 20.9658 23.0053 17.2864 21.5779 17.4056C20.5406 17.4921 19.2835 19.4407 17.8845 20.666C15.4172 20.0125 13.5642 18.9279 12.6732 19.4166C11.3774 20.1275 12.2326 23.637 13.8528 23.5233C14.8293 23.4547 16.6128 22.24 17.8957 20.9854Z" fill="#EF0B00"/>
<path d="M17.8957 20.9854C19.6204 21.1429 22.118 21.7776 22.9248 21.4446C24.0849 20.9658 23.0053 17.2864 21.5779 17.4056C20.5406 17.4921 19.2835 19.4407 17.8845 20.666C15.4172 20.0125 13.5642 18.9279 12.6732 19.4166C11.3774 20.1275 12.2326 23.637 13.8528 23.5233C14.8293 23.4547 16.6128 22.24 17.8957 20.9854Z" stroke="#990700" stroke-width="0.390625" stroke-linecap="round" stroke-linejoin="round"/>
<path d="M13.4732 23.426C13.9574 23.8133 15.776 22.8451 17.5942 21.391C15.481 21.8015 12.9614 23.0165 13.4732 23.426Z" fill="#B50000"/>
<path d="M13.4732 23.426C13.9574 23.8133 15.776 22.8451 17.5942 21.391C15.481 21.8015 12.9614 23.0165 13.4732 23.426Z" stroke="#7C0000" stroke-width="0.390625" stroke-linecap="round" stroke-linejoin="round"/>
<path d="M19.0275 21.0719C21.3849 20.6888 23.016 20.5086 23.1042 21.2165C23.1923 21.9243 20.316 21.462 19.0275 21.0719Z" fill="#B50000"/>
<path d="M19.0275 21.0719C21.3849 20.6888 23.016 20.5086 23.1042 21.2165C23.1923 21.9243 20.316 21.462 19.0275 21.0719Z" stroke="#7C0000" stroke-width="0.390625" stroke-linecap="round" stroke-linejoin="round"/>
<path d="M17.2162 20.2689C16.7087 21.0814 17.2713 21.6506 17.4204 21.8785C18.2363 21.8385 19.1574 21.6882 19.1574 21.6882C19.1431 20.9917 18.2828 19.9704 18.2828 19.9704L17.2162 20.2689Z" fill="#EF0B00"/>
<path d="M17.2162 20.2689C16.7087 21.0814 17.2713 21.6506 17.4204 21.8785C18.2363 21.8385 19.1574 21.6882 19.1574 21.6882C19.1431 20.9917 18.2828 19.9704 18.2828 19.9704L17.2162 20.2689Z" stroke="#990700" stroke-width="0.390625" stroke-linecap="round" stroke-linejoin="round"/>
<g opacity="0.3">
<path d="M8.61546 28.1959C8.61437 27.2997 9.13561 26.2336 10.278 26.0918" stroke="white" stroke-width="0.390625" stroke-linecap="round" stroke-linejoin="round"/>
</g>
<g opacity="0.44">
<path d="M12.7382 22.1108C12.3339 21.2788 12.3844 19.9937 12.8906 19.7133C13.3968 19.4329 15.502 20.2832 16.1418 20.4721" stroke="white" stroke-width="0.390625" stroke-linecap="round" stroke-linejoin="round"/>
</g>
<g opacity="0.44">
<path d="M19.0781 20.0298C19.602 19.5297 21.0653 17.5188 21.8018 17.7596" stroke="white" stroke-width="0.390625" stroke-linecap="round" stroke-linejoin="round"/>
</g>
</g>
</g>
<defs>
<radialGradient id="paint0_radial_286_27705" cx="0" cy="0" r="1" gradientUnits="userSpaceOnUse" gradientTransform="translate(31.7276 29.9931) rotate(20) scale(7.55493 12.6625)">
<stop stop-color="white"/>
<stop offset="0.4" stop-color="white" stop-opacity="0.5"/>
<stop offset="1" stop-color="white" stop-opacity="0"/>
</radialGradient>
<radialGradient id="paint1_radial_286_27705" cx="0" cy="0" r="1" gradientUnits="userSpaceOnUse" gradientTransform="translate(31.7276 29.9931) rotate(20) scale(7.55493 12.6625)">
<stop stop-color="#C3FFF9"/>
<stop offset="0.5" stop-color="#A4FFF5"/>
<stop offset="1" stop-color="#85FFF2"/>
</radialGradient>
<radialGradient id="paint2_radial_286_27705" cx="0" cy="0" r="1" gradientUnits="userSpaceOnUse" gradientTransform="translate(29.3756 30.3737) rotate(20) scale(7.55493 12.6625)">
<stop offset="0.3" stop-color="white" stop-opacity="0.576744"/>
<stop offset="0.61" stop-color="white" stop-opacity="0.288372"/>
<stop offset="1" stop-color="white" stop-opacity="0"/>
</radialGradient>
<radialGradient id="paint3_radial_286_27705" cx="0" cy="0" r="1" gradientUnits="userSpaceOnUse" gradientTransform="translate(29.3756 30.3737) rotate(20) scale(7.55493 12.6625)">
<stop offset="0.3" stop-color="#E6EFA3"/>
<stop offset="0.65" stop-color="#DAEFA1"/>
<stop offset="1" stop-color="#CEEFA0"/>
</radialGradient>
<radialGradient id="paint4_radial_286_27705" cx="0" cy="0" r="1" gradientUnits="userSpaceOnUse" gradientTransform="translate(36.7937 34.6165) rotate(38) scale(4.72043 8.04619)">
<stop stop-color="white"/>
<stop offset="0.4" stop-color="white" stop-opacity="0.5"/>
<stop offset="1" stop-color="white" stop-opacity="0"/>
</radialGradient>
<radialGradient id="paint5_radial_286_27705" cx="0" cy="0" r="1" gradientUnits="userSpaceOnUse" gradientTransform="translate(36.7937 34.6165) rotate(38) scale(4.72043 8.04619)">
<stop stop-color="#C3FFF9"/>
<stop offset="0.5" stop-color="#A4FFF5"/>
<stop offset="1" stop-color="#85FFF2"/>
</radialGradient>
<radialGradient id="paint6_radial_286_27705" cx="0" cy="0" r="1" gradientUnits="userSpaceOnUse" gradientTransform="translate(37.0184 32.9333) rotate(38) scale(4.72043 8.04619)">
<stop offset="0.26" stop-color="white" stop-opacity="0.634091"/>
<stop offset="0.58" stop-color="white" stop-opacity="0.317045"/>
<stop offset="1" stop-color="white" stop-opacity="0"/>
</radialGradient>
<radialGradient id="paint7_radial_286_27705" cx="0" cy="0" r="1" gradientUnits="userSpaceOnUse" gradientTransform="translate(37.0184 32.9333) rotate(38) scale(4.72043 8.04619)">
<stop offset="0.26" stop-color="#E1F1AE"/>
<stop offset="0.63" stop-color="#D3F1AD"/>
<stop offset="1" stop-color="#C4F1AB"/>
</radialGradient>
<radialGradient id="paint8_radial_286_27705" cx="0" cy="0" r="1" gradientUnits="userSpaceOnUse" gradientTransform="translate(24.8451 28.5273) rotate(-15) scale(4.68193 7.98056)">
<stop offset="0.5" stop-color="#FEE46B" stop-opacity="0.3"/>
<stop offset="0.75" stop-color="#FEE46A" stop-opacity="0.15"/>
<stop offset="1" stop-color="#FEE46A" stop-opacity="0"/>
</radialGradient>
<radialGradient id="paint9_radial_286_27705" cx="0" cy="0" r="1" gradientUnits="userSpaceOnUse" gradientTransform="translate(26.1262 26.6676) rotate(-15) scale(4.68193 7.98056)">
<stop offset="0.5" stop-color="#FEB789" stop-opacity="0.3"/>
<stop offset="0.75" stop-color="#FEB789" stop-opacity="0.15"/>
<stop offset="1" stop-color="#FEB788" stop-opacity="0"/>
</radialGradient>
<radialGradient id="paint10_radial_286_27705" cx="0" cy="0" r="1" gradientUnits="userSpaceOnUse" gradientTransform="translate(23.6923 33.4079) rotate(-42) scale(4.68193 7.98056)">
<stop stop-color="white"/>
<stop offset="0.4" stop-color="white" stop-opacity="0.5"/>
<stop offset="1" stop-color="white" stop-opacity="0"/>
</radialGradient>
<radialGradient id="paint11_radial_286_27705" cx="0" cy="0" r="1" gradientUnits="userSpaceOnUse" gradientTransform="translate(23.6923 33.4079) rotate(-42) scale(4.68193 7.98056)">
<stop stop-color="#C3FFF9"/>
<stop offset="0.5" stop-color="#A4FFF5"/>
<stop offset="1" stop-color="#85FFF2"/>
</radialGradient>
<radialGradient id="paint12_radial_286_27705" cx="0" cy="0" r="1" gradientUnits="userSpaceOnUse" gradientTransform="translate(29.6896 38.9162) rotate(-74) scale(3.72426 4.73992)">
<stop offset="0.18" stop-color="white" stop-opacity="0.741304"/>
<stop offset="0.53" stop-color="white" stop-opacity="0.370652"/>
<stop offset="1" stop-color="white" stop-opacity="0"/>
</radialGradient>
<radialGradient id="paint13_radial_286_27705" cx="0" cy="0" r="1" gradientUnits="userSpaceOnUse" gradientTransform="translate(29.6896 38.9162) rotate(-74) scale(3.72426 4.73992)">
<stop offset="0.18" stop-color="#A2C8FB"/>
<stop offset="0.59" stop-color="#8FC8F9"/>
<stop offset="1" stop-color="#7BC8F7"/>
</radialGradient>
<radialGradient id="paint14_radial_286_27705" cx="0" cy="0" r="1" gradientUnits="userSpaceOnUse" gradientTransform="translate(31.7277 29.9931) rotate(20) scale(7.55493 12.6625)">
<stop stop-color="white"/>
<stop offset="0.38" stop-color="white" stop-opacity="0.5"/>
<stop offset="0.9" stop-color="white" stop-opacity="0"/>
</radialGradient>
<radialGradient id="paint15_radial_286_27705" cx="0" cy="0" r="1" gradientUnits="userSpaceOnUse" gradientTransform="translate(31.7277 29.9931) rotate(20) scale(7.55493 12.6625)">
<stop stop-color="white"/>
<stop offset="0.45" stop-color="white"/>
<stop offset="0.9" stop-color="white"/>
</radialGradient>
<radialGradient id="paint16_radial_286_27705" cx="0" cy="0" r="1" gradientUnits="userSpaceOnUse" gradientTransform="translate(36.7938 34.6169) rotate(38) scale(4.72043 8.04619)">
<stop stop-color="white"/>
<stop offset="0.38" stop-color="white" stop-opacity="0.5"/>
<stop offset="0.9" stop-color="white" stop-opacity="0"/>
</radialGradient>
<radialGradient id="paint17_radial_286_27705" cx="0" cy="0" r="1" gradientUnits="userSpaceOnUse" gradientTransform="translate(36.7938 34.6169) rotate(38) scale(4.72043 8.04619)">
<stop stop-color="white"/>
<stop offset="0.45" stop-color="white"/>
<stop offset="0.9" stop-color="white"/>
</radialGradient>
<radialGradient id="paint18_radial_286_27705" cx="0" cy="0" r="1" gradientUnits="userSpaceOnUse" gradientTransform="translate(24.8451 28.5274) rotate(-15) scale(4.68193 7.98056)">
<stop stop-color="white"/>
<stop offset="0.38" stop-color="white" stop-opacity="0.5"/>
<stop offset="0.9" stop-color="white" stop-opacity="0"/>
</radialGradient>
<radialGradient id="paint19_radial_286_27705" cx="0" cy="0" r="1" gradientUnits="userSpaceOnUse" gradientTransform="translate(24.8451 28.5274) rotate(-15) scale(4.68193 7.98056)">
<stop stop-color="white"/>
<stop offset="0.45" stop-color="white"/>
<stop offset="0.9" stop-color="white"/>
</radialGradient>
<radialGradient id="paint20_radial_286_27705" cx="0" cy="0" r="1" gradientUnits="userSpaceOnUse" gradientTransform="translate(23.6923 33.4079) rotate(-42) scale(4.68193 7.98056)">
<stop stop-color="white"/>
<stop offset="0.38" stop-color="white" stop-opacity="0.5"/>
<stop offset="0.9" stop-color="white" stop-opacity="0"/>
</radialGradient>
<radialGradient id="paint21_radial_286_27705" cx="0" cy="0" r="1" gradientUnits="userSpaceOnUse" gradientTransform="translate(23.6923 33.4079) rotate(-42) scale(4.68193 7.98056)">
<stop stop-color="white"/>
<stop offset="0.45" stop-color="white"/>
<stop offset="0.9" stop-color="white"/>
</radialGradient>
<radialGradient id="paint22_radial_286_27705" cx="0" cy="0" r="1" gradientUnits="userSpaceOnUse" gradientTransform="translate(29.6896 38.9162) rotate(-74) scale(3.72426 4.73992)">
<stop stop-color="white"/>
<stop offset="0.38" stop-color="white" stop-opacity="0.5"/>
<stop offset="0.9" stop-color="white" stop-opacity="0"/>
</radialGradient>
<radialGradient id="paint23_radial_286_27705" cx="0" cy="0" r="1" gradientUnits="userSpaceOnUse" gradientTransform="translate(29.6896 38.9162) rotate(-74) scale(3.72426 4.73992)">
<stop stop-color="white"/>
<stop offset="0.45" stop-color="white"/>
<stop offset="0.9" stop-color="white"/>
</radialGradient>
<linearGradient id="paint24_linear_286_27705" x1="34.3242" y1="34.6796" x2="38.0009" y2="36.829" gradientUnits="userSpaceOnUse">
<stop stop-color="#FFDF93" stop-opacity="0"/>
<stop offset="0.5" stop-color="#FFDF93" stop-opacity="0.45"/>
<stop offset="1" stop-color="#FFDF93" stop-opacity="0.9"/>
</linearGradient>
<linearGradient id="paint25_linear_286_27705" x1="24.4406" y1="31.6528" x2="40.9917" y2="22.6498" gradientUnits="userSpaceOnUse">
<stop stop-color="white" stop-opacity="0"/>
<stop offset="0.5" stop-color="white" stop-opacity="0.45"/>
<stop offset="1" stop-color="white" stop-opacity="0.9"/>
</linearGradient>
<linearGradient id="paint26_linear_286_27705" x1="24.4406" y1="31.6528" x2="40.9917" y2="22.6498" gradientUnits="userSpaceOnUse">
<stop stop-color="#C885EC"/>
<stop offset="0.7" stop-color="#C885EC"/>
<stop offset="1" stop-color="#C885EC"/>
</linearGradient>
<radialGradient id="paint27_radial_286_27705" cx="0" cy="0" r="1" gradientUnits="userSpaceOnUse" gradientTransform="translate(34.3133 37.2308) rotate(20) scale(9.24774)">
<stop stop-color="white" stop-opacity="0.7"/>
<stop offset="0.5" stop-color="white" stop-opacity="0.35"/>
<stop offset="1" stop-color="white" stop-opacity="0"/>
</radialGradient>
<radialGradient id="paint28_radial_286_27705" cx="0" cy="0" r="1" gradientUnits="userSpaceOnUse" gradientTransform="translate(34.3133 37.2308) rotate(20) scale(9.24774)">
<stop stop-color="#CBFF82"/>
<stop offset="0.7" stop-color="#CBFF82"/>
<stop offset="1" stop-color="#CBFF82"/>
</radialGradient>
<radialGradient id="paint29_radial_286_27705" cx="0" cy="0" r="1" gradientUnits="userSpaceOnUse" gradientTransform="translate(40.6267 29.3774) rotate(20) scale(5.4305)">
<stop stop-color="white"/>
<stop offset="0.79" stop-color="white" stop-opacity="0.5"/>
<stop offset="1" stop-color="white" stop-opacity="0"/>
</radialGradient>
<radialGradient id="paint30_radial_286_27705" cx="0" cy="0" r="1" gradientUnits="userSpaceOnUse" gradientTransform="translate(40.6267 29.3774) rotate(20) scale(5.4305)">
<stop stop-color="#97FD4A"/>
<stop offset="0.59" stop-color="#97FD4A"/>
<stop offset="1" stop-color="#97FD4A"/>
</radialGradient>
<linearGradient id="paint31_linear_286_27705" x1="39.8933" y1="35.0864" x2="34.8767" y2="31.4804" gradientUnits="userSpaceOnUse">
<stop stop-color="#B29EB6"/>
<stop offset="0.5" stop-color="#9F92C7"/>
<stop offset="1" stop-color="#8C85D8"/>
</linearGradient>
<linearGradient id="paint32_linear_286_27705" x1="27.9822" y1="29.1395" x2="15.0905" y2="34.9387" gradientUnits="userSpaceOnUse">
<stop stop-color="white" stop-opacity="0"/>
<stop offset="0.5" stop-color="white" stop-opacity="0.45"/>
<stop offset="1" stop-color="white" stop-opacity="0.9"/>
</linearGradient>
<linearGradient id="paint33_linear_286_27705" x1="27.9822" y1="29.1395" x2="15.0905" y2="34.9387" gradientUnits="userSpaceOnUse">
<stop stop-color="#FFB482"/>
<stop offset="0.7" stop-color="#FFB482"/>
<stop offset="1" stop-color="#FFB482"/>
</linearGradient>
<linearGradient id="paint34_linear_286_27705" x1="23.9156" y1="22.902" x2="27.4856" y2="33.2851" gradientUnits="userSpaceOnUse">
<stop stop-opacity="0"/>
<stop offset="0.5" stop-opacity="0.355"/>
<stop offset="1" stop-opacity="0.71"/>
</linearGradient>
<linearGradient id="paint35_linear_286_27705" x1="21.4233" y1="24.2261" x2="26.4152" y2="30.1908" gradientUnits="userSpaceOnUse">
<stop stop-color="#93F9FF" stop-opacity="0"/>
<stop offset="0.5" stop-color="#93F9FF" stop-opacity="0.45"/>
<stop offset="1" stop-color="#93F9FF" stop-opacity="0.9"/>
</linearGradient>
<linearGradient id="paint36_linear_286_27705" x1="25.4392" y1="33.726" x2="23.333" y2="34.2157" gradientUnits="userSpaceOnUse">
<stop stop-color="#34F5FF" stop-opacity="0"/>
<stop offset="0.5" stop-color="#34E6FF" stop-opacity="0.45"/>
<stop offset="1" stop-color="#34D7FF" stop-opacity="0.9"/>
</linearGradient>
<linearGradient id="paint37_linear_286_27705" x1="28.8999" y1="29.4736" x2="16.0083" y2="35.2728" gradientUnits="userSpaceOnUse">
<stop stop-color="white" stop-opacity="0"/>
<stop offset="0.5" stop-color="white" stop-opacity="0.45"/>
<stop offset="1" stop-color="white" stop-opacity="0.9"/>
</linearGradient>
<linearGradient id="paint38_linear_286_27705" x1="28.8999" y1="29.4736" x2="16.0083" y2="35.2728" gradientUnits="userSpaceOnUse">
<stop stop-color="#FFB482"/>
<stop offset="0.7" stop-color="#FFB482"/>
<stop offset="1" stop-color="#FFB482"/>
</linearGradient>
<linearGradient id="paint39_linear_286_27705" x1="23.7213" y1="29.0143" x2="20.8559" y2="35.1186" gradientUnits="userSpaceOnUse">
<stop stop-color="#93F9FF" stop-opacity="0"/>
<stop offset="0.5" stop-color="#93F9FF" stop-opacity="0.45"/>
<stop offset="1" stop-color="#93F9FF" stop-opacity="0.9"/>
</linearGradient>
<linearGradient id="paint40_linear_286_27705" x1="26.443" y1="38.7728" x2="21.0579" y2="28.1533" gradientUnits="userSpaceOnUse">
<stop stop-color="#5C7C88"/>
<stop offset="0.5" stop-color="#578C89"/>
<stop offset="1" stop-color="#529B89"/>
</linearGradient>
<radialGradient id="paint41_radial_286_27705" cx="0" cy="0" r="1" gradientUnits="userSpaceOnUse" gradientTransform="translate(30.6049 29.605) rotate(20) scale(4.88281)">
<stop offset="0.25" stop-color="white"/>
<stop offset="0.63" stop-color="white" stop-opacity="0.5"/>
<stop offset="1" stop-color="white" stop-opacity="0"/>
</radialGradient>
<linearGradient id="paint42_linear_286_27705" x1="26.3921" y1="29.0893" x2="45.6839" y2="23.7765" gradientUnits="userSpaceOnUse">
<stop stop-color="white" stop-opacity="0"/>
<stop offset="0.5" stop-color="white" stop-opacity="0.45"/>
<stop offset="1" stop-color="white" stop-opacity="0.9"/>
</linearGradient>
<linearGradient id="paint43_linear_286_27705" x1="26.3921" y1="29.0893" x2="45.6839" y2="23.7765" gradientUnits="userSpaceOnUse">
<stop stop-color="#EC859A"/>
<stop offset="0.7" stop-color="#EC8590"/>
<stop offset="1" stop-color="#EC8585"/>
</linearGradient>
<linearGradient id="paint44_linear_286_27705" x1="29.8454" y1="28.9035" x2="19.5425" y2="33.756" gradientUnits="userSpaceOnUse">
<stop stop-color="white" stop-opacity="0"/>
<stop offset="0.5" stop-color="white" stop-opacity="0.45"/>
<stop offset="1" stop-color="white" stop-opacity="0.9"/>
</linearGradient>
<linearGradient id="paint45_linear_286_27705" x1="29.8454" y1="28.9035" x2="19.5425" y2="33.756" gradientUnits="userSpaceOnUse">
<stop stop-color="#FFB482"/>
<stop offset="0.7" stop-color="#FFB482"/>
<stop offset="1" stop-color="#FFB482"/>
</linearGradient>
<linearGradient id="paint46_linear_286_27705" x1="30.1664" y1="37.4823" x2="30.6631" y2="34.2494" gradientUnits="userSpaceOnUse">
<stop stop-color="#A2FFF0" stop-opacity="0"/>
<stop offset="0.5" stop-color="#A2FFF0" stop-opacity="0.355"/>
<stop offset="1" stop-color="#A2FFF0" stop-opacity="0.71"/>
</linearGradient>
<radialGradient id="paint47_radial_286_27705" cx="0" cy="0" r="1" gradientUnits="userSpaceOnUse" gradientTransform="translate(35.3425 38.5398) rotate(20) scale(8.1741)">
<stop stop-color="white" stop-opacity="0.7"/>
<stop offset="0.5" stop-color="white" stop-opacity="0.35"/>
<stop offset="1" stop-color="white" stop-opacity="0"/>
</radialGradient>
<radialGradient id="paint48_radial_286_27705" cx="0" cy="0" r="1" gradientUnits="userSpaceOnUse" gradientTransform="translate(35.3425 38.5398) rotate(20) scale(8.1741)">
<stop stop-color="#CBFF82"/>
<stop offset="0.7" stop-color="#CBFF82"/>
<stop offset="1" stop-color="#CBFF82"/>
</radialGradient>
<linearGradient id="paint49_linear_286_27705" x1="32.3376" y1="28.9103" x2="31.0591" y2="39.0602" gradientUnits="userSpaceOnUse">
<stop stop-opacity="0.25"/>
<stop offset="0.5" stop-opacity="0.125"/>
<stop offset="1" stop-opacity="0"/>
</linearGradient>
<radialGradient id="paint50_radial_286_27705" cx="0" cy="0" r="1" gradientUnits="userSpaceOnUse" gradientTransform="translate(35.6452 16.3325) rotate(20) scale(9.17742)">
<stop stop-color="white"/>
<stop offset="0.79" stop-color="white" stop-opacity="0.5"/>
<stop offset="1" stop-color="white" stop-opacity="0"/>
</radialGradient>
<radialGradient id="paint51_radial_286_27705" cx="0" cy="0" r="1" gradientUnits="userSpaceOnUse" gradientTransform="translate(35.6452 16.3325) rotate(20) scale(9.17742)">
<stop stop-color="white"/>
<stop offset="0.59" stop-color="white"/>
<stop offset="1" stop-color="white"/>
</radialGradient>
<radialGradient id="paint52_radial_286_27705" cx="0" cy="0" r="1" gradientUnits="userSpaceOnUse" gradientTransform="translate(29.3588 29.7327) rotate(20) scale(6.30574)">
<stop stop-color="white" stop-opacity="0.7"/>
<stop offset="0.5" stop-color="white" stop-opacity="0.35"/>
<stop offset="1" stop-color="white" stop-opacity="0"/>
</radialGradient>
<radialGradient id="paint53_radial_286_27705" cx="0" cy="0" r="1" gradientUnits="userSpaceOnUse" gradientTransform="translate(29.3588 29.7327) rotate(20) scale(6.30574)">
<stop stop-color="white"/>
<stop offset="0.7" stop-color="white"/>
<stop offset="1" stop-color="white"/>
</radialGradient>
<linearGradient id="paint54_linear_286_27705" x1="33.9834" y1="37.4303" x2="30.2935" y2="33.8423" gradientUnits="userSpaceOnUse">
<stop stop-color="white" stop-opacity="0.7"/>
<stop offset="0.5" stop-color="white" stop-opacity="0.35"/>
<stop offset="1" stop-color="white" stop-opacity="0"/>
</linearGradient>
<linearGradient id="paint55_linear_286_27705" x1="33.9834" y1="37.4303" x2="30.2935" y2="33.8423" gradientUnits="userSpaceOnUse">
<stop stop-color="white"/>
<stop offset="0.7" stop-color="white"/>
<stop offset="1" stop-color="white"/>
</linearGradient>
<radialGradient id="paint56_radial_286_27705" cx="0" cy="0" r="1" gradientUnits="userSpaceOnUse" gradientTransform="translate(29.2731 29.3193) rotate(20) scale(4.60659)">
<stop offset="0.25" stop-color="white"/>
<stop offset="0.63" stop-color="white" stop-opacity="0.5"/>
<stop offset="1" stop-color="white" stop-opacity="0"/>
</radialGradient>
<radialGradient id="paint57_radial_286_27705" cx="0" cy="0" r="1" gradientUnits="userSpaceOnUse" gradientTransform="translate(29.2731 29.3192) rotate(20) scale(4.60659)">
<stop offset="0.25" stop-color="white"/>
<stop offset="0.63" stop-color="white" stop-opacity="0.5"/>
<stop offset="1" stop-color="white" stop-opacity="0"/>
</radialGradient>
<linearGradient id="paint58_linear_286_27705" x1="26.1196" y1="38.3125" x2="34.761" y2="18.0392" gradientUnits="userSpaceOnUse">
<stop stop-color="#3A9F83"/>
<stop offset="0.5" stop-color="#709691"/>
<stop offset="1" stop-color="#A78D9E"/>
</linearGradient>
<radialGradient id="paint59_radial_286_27705" cx="0" cy="0" r="1" gradientUnits="userSpaceOnUse" gradientTransform="translate(34.3132 37.2308) rotate(20) scale(9.24774)">
<stop stop-color="white" stop-opacity="0.7"/>
<stop offset="0.5" stop-color="white" stop-opacity="0.35"/>
<stop offset="1" stop-color="white" stop-opacity="0"/>
</radialGradient>
<radialGradient id="paint60_radial_286_27705" cx="0" cy="0" r="1" gradientUnits="userSpaceOnUse" gradientTransform="translate(34.3132 37.2308) rotate(20) scale(9.24774)">
<stop stop-color="#CBFF82"/>
<stop offset="0.7" stop-color="#CBFF82"/>
<stop offset="1" stop-color="#CBFF82"/>
</radialGradient>
<linearGradient id="paint61_linear_286_27705" x1="24.4406" y1="31.6528" x2="40.9916" y2="22.6498" gradientUnits="userSpaceOnUse">
<stop stop-color="white" stop-opacity="0"/>
<stop offset="0.5" stop-color="white" stop-opacity="0.45"/>
<stop offset="1" stop-color="white" stop-opacity="0.9"/>
</linearGradient>
<linearGradient id="paint62_linear_286_27705" x1="24.4406" y1="31.6528" x2="40.9916" y2="22.6498" gradientUnits="userSpaceOnUse">
<stop stop-color="#C885EC"/>
<stop offset="0.7" stop-color="#C885EC"/>
<stop offset="1" stop-color="#C885EC"/>
</linearGradient>
<linearGradient id="paint63_linear_286_27705" x1="30.6152" y1="35.8766" x2="29.2712" y2="41.5412" gradientUnits="userSpaceOnUse">
<stop stop-color="#4C9C88"/>
<stop offset="0.5" stop-color="#7A9AA3"/>
<stop offset="1" stop-color="#A998BE"/>
</linearGradient>
<radialGradient id="paint64_radial_286_27705" cx="0" cy="0" r="1" gradientUnits="userSpaceOnUse" gradientTransform="translate(26.2064 23.9876) rotate(52.024) scale(3.01933 0.353497)">
<stop offset="0.4" stop-color="white"/>
<stop offset="0.64" stop-color="white" stop-opacity="0.5"/>
<stop offset="1" stop-color="white" stop-opacity="0"/>
</radialGradient>
<radialGradient id="paint65_radial_286_27705" cx="0" cy="0" r="1" gradientUnits="userSpaceOnUse" gradientTransform="translate(26.2064 23.9876) rotate(52.024) scale(3.01933 0.353497)">
<stop offset="0.4" stop-color="white"/>
<stop offset="0.7" stop-color="#C9F4FF"/>
<stop offset="1" stop-color="#94E9FF"/>
</radialGradient>
<radialGradient id="paint66_radial_286_27705" cx="0" cy="0" r="1" gradientUnits="userSpaceOnUse" gradientTransform="translate(26.2064 23.9877) rotate(138.024) scale(4.13683 0.484325)">
<stop offset="0.4" stop-color="white"/>
<stop offset="0.64" stop-color="white" stop-opacity="0.5"/>
<stop offset="1" stop-color="white" stop-opacity="0"/>
</radialGradient>
<radialGradient id="paint67_radial_286_27705" cx="0" cy="0" r="1" gradientUnits="userSpaceOnUse" gradientTransform="translate(26.2064 23.9877) rotate(138.024) scale(4.13683 0.484325)">
<stop offset="0.4" stop-color="white"/>
<stop offset="0.7" stop-color="#C9F4FF"/>
<stop offset="1" stop-color="#94E9FF"/>
</radialGradient>
<radialGradient id="paint68_radial_286_27705" cx="0" cy="0" r="1" gradientUnits="userSpaceOnUse" gradientTransform="translate(26.2064 23.9876) rotate(52.024) scale(3.01933 0.353497)">
<stop offset="0.4" stop-color="white"/>
<stop offset="0.64" stop-color="white" stop-opacity="0.5"/>
<stop offset="1" stop-color="white" stop-opacity="0"/>
</radialGradient>
<radialGradient id="paint69_radial_286_27705" cx="0" cy="0" r="1" gradientUnits="userSpaceOnUse" gradientTransform="translate(26.2064 23.9876) rotate(52.024) scale(3.01933 0.353497)">
<stop offset="0.4" stop-color="white"/>
<stop offset="0.7" stop-color="white"/>
<stop offset="1" stop-color="white"/>
</radialGradient>
<radialGradient id="paint70_radial_286_27705" cx="0" cy="0" r="1" gradientUnits="userSpaceOnUse" gradientTransform="translate(19.656 7.69013) rotate(-14.9993) scale(2.65758 2.65641)">
<stop offset="0.49" stop-color="#FFBFD1"/>
<stop offset="0.67" stop-color="#FF8BBD"/>
<stop offset="0.84" stop-color="#FF57AA"/>
</radialGradient>
<linearGradient id="paint71_linear_286_27705" x1="19.4574" y1="12.1242" x2="18.1389" y2="6.86191" gradientUnits="userSpaceOnUse">
<stop stop-color="#890A4D"/>
<stop offset="0.5" stop-color="#B61362"/>
<stop offset="1" stop-color="#E31B78"/>
</linearGradient>
<linearGradient id="paint72_linear_286_27705" x1="19.8643" y1="7.9969" x2="20.5923" y2="10.7911" gradientUnits="userSpaceOnUse">
<stop stop-color="white"/>
<stop offset="0.5" stop-color="#F7DDFF"/>
<stop offset="1" stop-color="#EEBBFF"/>
</linearGradient>
<radialGradient id="paint73_radial_286_27705" cx="0" cy="0" r="1" gradientUnits="userSpaceOnUse" gradientTransform="translate(8.71798 9.80835) rotate(-14.9993) scale(2.73236 2.73115)">
<stop offset="0.49" stop-color="#FFBFD1"/>
<stop offset="0.67" stop-color="#FF8BBD"/>
<stop offset="0.84" stop-color="#FF57AA"/>
</radialGradient>
<linearGradient id="paint74_linear_286_27705" x1="9.60215" y1="15.0862" x2="8.08234" y2="9.07264" gradientUnits="userSpaceOnUse">
<stop stop-color="#890A4D"/>
<stop offset="0.5" stop-color="#B61362"/>
<stop offset="1" stop-color="#E31B78"/>
</linearGradient>
<linearGradient id="paint75_linear_286_27705" x1="8.86583" y1="10.3811" x2="10.2381" y2="13.1759" gradientUnits="userSpaceOnUse">
<stop stop-color="white"/>
<stop offset="0.5" stop-color="#F7DDFF"/>
<stop offset="1" stop-color="#EEBBFF"/>
</linearGradient>
<radialGradient id="paint76_radial_286_27705" cx="0" cy="0" r="1" gradientUnits="userSpaceOnUse" gradientTransform="translate(17.9866 22.5274) rotate(-15) scale(7.00025)">
<stop offset="0.49" stop-color="#FFBFD1"/>
<stop offset="0.67" stop-color="#FF8BBD"/>
<stop offset="0.84" stop-color="#FF57AA"/>
</radialGradient>
<linearGradient id="paint77_linear_286_27705" x1="18.6982" y1="29.457" x2="16.1025" y2="19.4283" gradientUnits="userSpaceOnUse">
<stop stop-color="#890A4D"/>
<stop offset="0.5" stop-color="#B61362"/>
<stop offset="1" stop-color="#E31B78"/>
</linearGradient>
<linearGradient id="paint78_linear_286_27705" x1="18.1936" y1="22.4573" x2="19.4981" y2="27.3258" gradientUnits="userSpaceOnUse">
<stop stop-color="white"/>
<stop offset="0.5" stop-color="#F7DDFF"/>
<stop offset="1" stop-color="#EEBBFF"/>
</linearGradient>
<radialGradient id="paint79_radial_286_27705" cx="0" cy="0" r="1" gradientUnits="userSpaceOnUse" gradientTransform="translate(14.1768 9.53596) rotate(-14.9993) scale(11.6436 11.6384)">
<stop offset="0.49" stop-color="#FFBFD1"/>
<stop offset="0.67" stop-color="#FF8BBD"/>
<stop offset="0.84" stop-color="#FF57AA"/>
</radialGradient>
<linearGradient id="paint80_linear_286_27705" x1="16.261" y1="20.1961" x2="13.6658" y2="10.1692" gradientUnits="userSpaceOnUse">
<stop stop-color="#890A4D"/>
<stop offset="0.5" stop-color="#B61362"/>
<stop offset="1" stop-color="#E31B78"/>
</linearGradient>
<radialGradient id="paint81_radial_286_27705" cx="0" cy="0" r="1" gradientUnits="userSpaceOnUse" gradientTransform="translate(9.56625 23.1795) rotate(-15) scale(3.49946)">
<stop offset="0.49" stop-color="#FFBFD1"/>
<stop offset="0.67" stop-color="#FF8BBD"/>
<stop offset="0.84" stop-color="#FF57AA"/>
</radialGradient>
<linearGradient id="paint82_linear_286_27705" x1="12.2272" y1="28.7188" x2="10.4594" y2="21.9733" gradientUnits="userSpaceOnUse">
<stop stop-color="#890A4D"/>
<stop offset="0.5" stop-color="#B61362"/>
<stop offset="1" stop-color="#E31B78"/>
</linearGradient>
<linearGradient id="paint83_linear_286_27705" x1="11.8877" y1="24.6043" x2="12.9201" y2="28.3371" gradientUnits="userSpaceOnUse">
<stop stop-color="white"/>
<stop offset="0.5" stop-color="#F7DDFF"/>
<stop offset="1" stop-color="#EEBBFF"/>
</linearGradient>
<radialGradient id="paint84_radial_286_27705" cx="0" cy="0" r="1" gradientUnits="userSpaceOnUse" gradientTransform="translate(24.6876 18.5921) rotate(-15) scale(3.9371)">
<stop offset="0.49" stop-color="#FFBFD1"/>
<stop offset="0.67" stop-color="#FF8BBD"/>
<stop offset="0.84" stop-color="#FF57AA"/>
</radialGradient>
<linearGradient id="paint85_linear_286_27705" x1="24.6693" y1="24.9233" x2="22.4511" y2="17.5643" gradientUnits="userSpaceOnUse">
<stop stop-color="#890A4D"/>
<stop offset="0.5" stop-color="#B61362"/>
<stop offset="1" stop-color="#E31B78"/>
</linearGradient>
<linearGradient id="paint86_linear_286_27705" x1="24.7885" y1="20.6523" x2="25.7799" y2="23.9141" gradientUnits="userSpaceOnUse">
<stop stop-color="white"/>
<stop offset="0.5" stop-color="#F7DDFF"/>
<stop offset="1" stop-color="#EEBBFF"/>
</linearGradient>
<radialGradient id="paint87_radial_286_27705" cx="0" cy="0" r="1" gradientUnits="userSpaceOnUse" gradientTransform="translate(14.1865 9.54585) rotate(-14.9993) scale(6.08095 6.07827)">
<stop stop-color="white"/>
<stop offset="0.5" stop-color="white" stop-opacity="0.5"/>
<stop offset="1" stop-color="white" stop-opacity="0"/>
</radialGradient>
<linearGradient id="paint88_linear_286_27705" x1="16.7602" y1="17.6074" x2="17.2943" y2="19.8302" gradientUnits="userSpaceOnUse">
<stop stop-color="white"/>
<stop offset="0.5" stop-color="#F7DDFF"/>
<stop offset="1" stop-color="#EEBBFF"/>
</linearGradient>
<linearGradient id="paint89_linear_286_27705" x1="17.525" y1="16.9916" x2="15.9504" y2="16.4711" gradientUnits="userSpaceOnUse">
<stop stop-color="#231F20"/>
<stop offset="0.5" stop-color="#2F292B"/>
<stop offset="1" stop-color="#3B3336"/>
</linearGradient>
<linearGradient id="paint90_linear_286_27705" x1="13.1637" y1="14.8626" x2="13.3475" y2="15.9764" gradientUnits="userSpaceOnUse">
<stop stop-color="white"/>
<stop offset="0.5" stop-color="white" stop-opacity="0.5"/>
<stop offset="1" stop-color="white" stop-opacity="0"/>
</linearGradient>
<linearGradient id="paint91_linear_286_27705" x1="18.5023" y1="13.4323" x2="18.8996" y2="14.4878" gradientUnits="userSpaceOnUse">
<stop stop-color="white"/>
<stop offset="0.5" stop-color="white" stop-opacity="0.5"/>
<stop offset="1" stop-color="white" stop-opacity="0"/>
</linearGradient>
<radialGradient id="paint92_radial_286_27705" cx="0" cy="0" r="1" gradientUnits="userSpaceOnUse" gradientTransform="translate(24.0362 19.9331) rotate(-15) scale(6.95504 6.95504)">
<stop offset="0.49" stop-color="#FFBFD1"/>
<stop offset="0.67" stop-color="#EB6BA4"/>
<stop offset="0.84" stop-color="#D71877"/>
</radialGradient>
<linearGradient id="paint93_linear_286_27705" x1="24.4076" y1="28.1122" x2="23.8559" y2="20.9761" gradientUnits="userSpaceOnUse">
<stop stop-color="#890A4D"/>
<stop offset="0.5" stop-color="#B61362"/>
<stop offset="1" stop-color="#E31B78"/>
</linearGradient>
<radialGradient id="paint94_radial_286_27705" cx="0" cy="0" r="1" gradientUnits="userSpaceOnUse" gradientTransform="translate(25.2779 18.3605) rotate(-15) scale(9.33261)">
<stop offset="0.49" stop-color="#FFBFD1"/>
<stop offset="0.67" stop-color="#FF8BBD"/>
<stop offset="0.84" stop-color="#FF57AA"/>
</radialGradient>
<linearGradient id="paint95_linear_286_27705" x1="26.9931" y1="28.9919" x2="25.2192" y2="19.9048" gradientUnits="userSpaceOnUse">
<stop stop-color="#890A4D"/>
<stop offset="0.5" stop-color="#B61362"/>
<stop offset="1" stop-color="#E31B78"/>
</linearGradient>
<linearGradient id="paint96_linear_286_27705" x1="27.571" y1="23.1546" x2="28.5209" y2="26.9288" gradientUnits="userSpaceOnUse">
<stop stop-color="white"/>
<stop offset="0.5" stop-color="#F7DDFF"/>
<stop offset="1" stop-color="#EEBBFF"/>
</linearGradient>
<radialGradient id="paint97_radial_286_27705" cx="0" cy="0" r="1" gradientUnits="userSpaceOnUse" gradientTransform="translate(26.132 20.5888) rotate(-15) scale(5.66047)">
<stop stop-color="white"/>
<stop offset="0.5" stop-color="white" stop-opacity="0.5"/>
<stop offset="1" stop-color="white" stop-opacity="0"/>
</radialGradient>
<radialGradient id="paint98_radial_286_27705" cx="0" cy="0" r="1" gradientUnits="userSpaceOnUse" gradientTransform="translate(11.664 24.7569) rotate(-15) scale(6.14954)">
<stop offset="0.49" stop-color="#FFBFD1"/>
<stop offset="0.67" stop-color="#EB6BA4"/>
<stop offset="0.84" stop-color="#D71877"/>
</radialGradient>
<linearGradient id="paint99_linear_286_27705" x1="15.1346" y1="30.3934" x2="12.057" y2="26.3658" gradientUnits="userSpaceOnUse">
<stop stop-color="#890A4D"/>
<stop offset="0.5" stop-color="#B61362"/>
<stop offset="1" stop-color="#E31B78"/>
</linearGradient>
<radialGradient id="paint100_radial_286_27705" cx="0" cy="0" r="1" gradientUnits="userSpaceOnUse" gradientTransform="translate(7.48979 25.0968) rotate(-15) scale(7.43754)">
<stop offset="0.49" stop-color="#FFBFD1"/>
<stop offset="0.67" stop-color="#FF8BBD"/>
<stop offset="0.84" stop-color="#FF57AA"/>
</radialGradient>
<linearGradient id="paint101_linear_286_27705" x1="13.5606" y1="31.8972" x2="9.17235" y2="26.2956" gradientUnits="userSpaceOnUse">
<stop stop-color="#890A4D"/>
<stop offset="0.5" stop-color="#B61362"/>
<stop offset="1" stop-color="#E31B78"/>
</linearGradient>
<linearGradient id="paint102_linear_286_27705" x1="10.2681" y1="27.1496" x2="11.5726" y2="32.0181" gradientUnits="userSpaceOnUse">
<stop stop-color="white"/>
<stop offset="0.5" stop-color="#F7DDFF"/>
<stop offset="1" stop-color="#EEBBFF"/>
</linearGradient>
<radialGradient id="paint103_radial_286_27705" cx="0" cy="0" r="1" gradientUnits="userSpaceOnUse" gradientTransform="translate(9.57706 25.8312) rotate(-15) scale(5.97794)">
<stop stop-color="white"/>
<stop offset="0.5" stop-color="white" stop-opacity="0.5"/>
<stop offset="1" stop-color="white" stop-opacity="0"/>
</radialGradient>
<clipPath id="clip0_286_27705">
<rect width="25" height="25" fill="white" transform="translate(23.1341 13.5837) rotate(20)"/>
</clipPath>
<clipPath id="clip1_286_27705">
<rect width="25" height="25" fill="white" transform="translate(2 9.97046) rotate(-15)"/>
</clipPath>
</defs>
</svg>
