<svg width="361" height="156" viewBox="0 0 361 156" fill="none" xmlns="http://www.w3.org/2000/svg">
<g clip-path="url(#clip0_168_7408)">
<mask id="mask0_168_7408" style="mask-type:luminance" maskUnits="userSpaceOnUse" x="-91" y="37" width="120" height="119">
<path d="M7.71544 37.1115L-90.0222 58.2625L-68.8712 156L28.8664 134.849L7.71544 37.1115Z" fill="white"/>
</mask>
<g mask="url(#mask0_168_7408)">
<path d="M11.6838 74.1661C8.77233 69.5314 2.998 67.2757 -2.10261 68.9546C-6.38317 70.3638 -17.5414 75.8518 -29.685 82.6505C-43.219 90.2277 -57.7411 99.2573 -63.2252 103.686C-66.467 106.304 -64.7825 114.591 -60.5927 121.087C-56.4937 127.642 -52.2305 132.054 -46.8829 129.417C-40.5608 126.299 -26.196 117.031 -13.5838 108.003C-2.26722 99.9017 7.44414 92.1353 10.5394 88.8601C14.2276 84.9573 14.6408 78.7718 11.6838 74.1661Z" fill="url(#paint0_linear_168_7408)"/>
<path d="M11.6838 74.1661C8.77233 69.5314 2.998 67.2757 -2.10261 68.9546C-6.38317 70.3638 -17.5414 75.8518 -29.685 82.6505C-43.219 90.2277 -57.7411 99.2573 -63.2252 103.686C-66.467 106.304 -64.7825 114.591 -60.5927 121.087C-56.4937 127.642 -52.2305 132.054 -46.8829 129.417C-40.5608 126.299 -26.196 117.031 -13.5838 108.003C-2.26722 99.9017 7.44414 92.1353 10.5393 88.8601C14.2276 84.9573 14.6408 78.7718 11.6838 74.1661Z" stroke="#894700" stroke-width="1.17188" stroke-miterlimit="10"/>
<g opacity="0.75">
<path d="M-9.00524 104.602C-0.341593 98.646 -2.52713 67.2022 -12.6791 73.6499" stroke="url(#paint1_linear_168_7408)" stroke-width="0.78125" stroke-linecap="round" stroke-linejoin="round"/>
</g>
<g opacity="0.75">
<path d="M1.79293 96.4367C10.4567 90.4811 9.80663 65.2479 -1.1404 68.6858" stroke="url(#paint2_linear_168_7408)" stroke-width="0.78125" stroke-linecap="round" stroke-linejoin="round"/>
</g>
<path d="M-2.37911 85.6974C-3.70748 83.2741 -5.9314 81.6934 -8.59517 81.6093C-11.1253 79.1299 -16.2921 75.9119 -20.2831 76.9719C-22.8356 78.2275 -25.6331 79.9786 -28.3817 81.3308C-23.9103 80.1396 -18.6306 83.1894 -16.0099 85.8397C-17.4679 88.5094 -17.4944 91.7248 -16.1858 94.5022C-14.8226 97.3375 -11.9218 98.9719 -9.69148 98.8619C-9.39701 101.006 -9.16988 104.514 -12.3097 107.777C-9.62037 105.761 -7.03944 103.826 -4.56052 101.967C-1.76888 99.6869 -1.8634 95.6144 -2.2239 93.652C-0.887972 90.9879 -1.00227 88.1661 -2.37911 85.6974Z" fill="url(#paint3_linear_168_7408)"/>
<path d="M-2.37911 85.6974C-3.70748 83.2741 -5.9314 81.6934 -8.59517 81.6093C-11.1253 79.1299 -16.2921 75.9119 -20.2831 76.9719C-22.8356 78.2275 -25.6331 79.9786 -28.3817 81.3308C-23.9103 80.1396 -18.6306 83.1894 -16.0099 85.8397C-17.4679 88.5094 -17.4944 91.7248 -16.1858 94.5022C-14.8226 97.3375 -11.9218 98.9719 -9.69148 98.8619C-9.39701 101.006 -9.16988 104.514 -12.3097 107.777C-9.62036 105.761 -7.03944 103.826 -4.56052 101.967C-1.76888 99.6869 -1.8634 95.6144 -2.2239 93.652C-0.887971 90.9879 -1.00227 88.1661 -2.37911 85.6974Z" stroke="url(#paint4_linear_168_7408)" stroke-width="0.78125" stroke-linecap="round" stroke-linejoin="round"/>
<path d="M-12.9426 82.9535C-13.8033 83.4373 -14.468 84.0523 -14.9443 84.763C-17.3854 82.4009 -20.3396 80.3823 -24.5882 79.832C-24.9379 80.005 -25.6742 80.446 -26.0273 80.6206C-21.5278 81.026 -18.1515 83.0608 -15.6248 85.6636C-17.0558 88.555 -17.0722 91.7061 -15.7909 94.4142C-14.4561 97.1767 -11.7742 98.5203 -9.43011 98.5576C-8.75042 101.145 -9.18347 103.339 -10.2226 105.659C-9.87673 105.401 -8.55958 104.412 -8.2173 104.157C-7.47439 102.278 -7.47106 99.8989 -8.03809 98.3378C-7.20852 98.2432 -6.55683 97.9296 -5.68838 97.3155C-4.8405 96.7153 -4.06765 95.9129 -3.41294 94.987C-3.15044 96.6737 -3.66688 99.6357 -4.56269 101.379C-4.24803 101.144 -3.82897 100.591 -3.58001 100.2C-2.64086 98.6968 -2.15664 96.0614 -2.67153 93.5744C-1.30568 90.9981 -1.339 88.4591 -2.69143 86.0269C-3.99626 83.6384 -6.19795 81.9629 -8.80797 81.9484C-11.2558 79.5037 -16.3892 76.4237 -20.134 77.3839C-20.4548 77.5426 -20.5059 77.5748 -20.6788 77.6615C-15.7882 77.6843 -12.5372 79.7756 -10.155 82.0359C-11.1476 82.1763 -12.1012 82.4807 -12.9426 82.9535Z" fill="url(#paint5_linear_168_7408)"/>
<path d="M-12.0727 83.7861C-9.24045 82.1528 -5.26472 83.3948 -3.54949 86.5689C-1.75234 89.8212 -3.01569 94.0061 -5.87543 95.9857C-8.89097 98.0958 -13.0764 97.2977 -14.8607 93.6607C-16.5547 90.1192 -15.0756 85.49 -12.0727 83.7861Z" fill="url(#paint6_linear_168_7408)"/>
</g>
</g>
<mask id="mask1_168_7408" style="mask-type:luminance" maskUnits="userSpaceOnUse" x="21" y="15" width="112" height="111">
<path d="M121.23 15.3685L21.8664 26.6368L33.1347 126L132.498 114.732L121.23 15.3685Z" fill="white"/>
</mask>
<g mask="url(#mask1_168_7408)">
<path d="M42.8463 85.8457C43.3612 101.659 65.4547 104.993 80.8749 103.247C96.3001 101.5 116.511 93.7825 114.056 77.7701C112.707 73.9238 109.804 69.5445 106.933 66.5757C102.062 92.2785 56.5509 94.1545 47.6149 72.8113C45.4817 76.3476 43.3 81.7949 42.8463 85.8457Z" fill="url(#paint7_radial_168_7408)"/>
<path d="M42.8463 85.8457C43.3612 101.659 65.4547 104.993 80.8749 103.247C96.3001 101.5 116.511 93.7825 114.056 77.7701C112.707 73.9238 109.804 69.5445 106.933 66.5757C102.062 92.2785 56.5509 94.1545 47.6149 72.8113C45.4817 76.3476 43.3 81.7949 42.8463 85.8457Z" fill="url(#paint8_radial_168_7408)"/>
<path d="M42.8463 85.8457C43.3612 101.659 65.4547 104.993 80.8749 103.247C96.3001 101.5 116.511 93.7825 114.056 77.7701C112.707 73.9238 109.804 69.5445 106.933 66.5757C102.062 92.2785 56.5509 94.1545 47.6149 72.8113C45.4817 76.3476 43.3 81.7949 42.8463 85.8457Z" stroke="#757575" stroke-width="1.5625" stroke-linecap="round" stroke-linejoin="round"/>
<path d="M112.199 50.8977C107.512 43.3948 97.248 34.0888 94.8895 32.0687L51.1391 37.1314C51.1391 37.1314 41.9738 50.0244 38.8394 58.5782C32.5093 75.8527 38.5395 88.7276 40.1877 91.3695C34.6957 58.4643 116.174 49.6526 118.048 82.4414C118.535 80.7986 122.523 67.4236 112.199 50.8977Z" fill="url(#paint9_radial_168_7408)"/>
<path d="M38.3969 89.3755C34.7921 76.4357 50.1431 65.6351 53.3563 58.6149C50.0614 51.9464 49.2593 41.7673 51.0956 37.0091C47.6834 41.4842 41.6849 51.3749 38.6832 60.066C37.3525 63.9192 36.0481 68.5283 35.8808 74.009C35.7431 78.5195 36.3754 83.62 38.3969 89.3755Z" fill="url(#paint10_radial_168_7408)"/>
<path d="M38.3969 89.3755C34.7921 76.4357 50.1431 65.6351 53.3563 58.6149C50.0614 51.9464 49.2593 41.7673 51.0956 37.0091C47.6834 41.4842 41.6849 51.3749 38.6832 60.066C37.3525 63.9192 36.0481 68.5283 35.8808 74.009C35.7431 78.5195 36.3754 83.62 38.3969 89.3755Z" fill="url(#paint11_radial_168_7408)"/>
<path d="M119.183 80.214C119.799 66.7955 104.352 58.0696 98.2974 53.5183C100.191 45.5386 97.4578 35.0207 94.6815 31.968C99.2163 35.7522 107.181 43.1538 112.383 51.2167C116.411 57.4613 120.692 66.786 119.183 80.214Z" fill="url(#paint12_radial_168_7408)"/>
<g opacity="0.5">
<path d="M94.9011 32.0184C98.0715 35.5896 99.4492 49.5056 98.2776 53.3443L53.3053 58.5224C50.022 51.749 48.8224 41.1977 51.1127 37.0072L94.9011 32.0184Z" fill="url(#paint13_radial_168_7408)"/>
</g>
<path d="M112.199 50.8977C107.512 43.3948 97.248 34.0888 94.8895 32.0687L51.1391 37.1314C51.1391 37.1314 41.9738 50.0244 38.8394 58.5782C32.5093 75.8527 38.5395 88.7276 40.1877 91.3695C34.6957 58.4643 116.174 49.6526 118.048 82.4414C118.535 80.7986 122.523 67.4236 112.199 50.8977Z" stroke="url(#paint14_linear_168_7408)" stroke-width="1.5625" stroke-linecap="round" stroke-linejoin="round"/>
<path d="M110.02 77.7221C111.227 88.3598 98.0853 98.5846 80.6684 100.56C63.2516 102.535 48.1543 95.5125 46.948 84.8748C45.7416 74.2371 58.8829 64.0123 76.2998 62.0371C93.7167 60.062 108.814 67.0844 110.02 77.7221ZM52.9058 58.5388C50.6609 61.358 46.1046 65.5406 42.5552 70.5951C39.0061 75.6496 36.464 81.576 38.2479 87.8829C40.1504 94.6092 46.9774 99.3372 55.2686 102.164C63.5598 104.99 73.3151 105.915 81.0739 105.035C96.5916 103.275 118.329 92.6854 119.025 78.7224C119.678 65.6299 103.453 57.87 97.8868 53.4378L52.9058 58.5388Z" fill="url(#paint15_linear_168_7408)"/>
<path d="M110.02 77.7221C111.227 88.3598 98.0853 98.5846 80.6684 100.56C63.2516 102.535 48.1543 95.5125 46.948 84.8748C45.7416 74.2371 58.8829 64.0123 76.2998 62.0371C93.7167 60.062 108.814 67.0844 110.02 77.7221ZM52.9058 58.5388C50.6609 61.358 46.1046 65.5406 42.5552 70.5951C39.0061 75.6496 36.464 81.576 38.2479 87.8829C40.1504 94.6092 46.9774 99.3372 55.2686 102.164C63.5598 104.99 73.3151 105.915 81.0739 105.035C96.5916 103.275 118.329 92.6854 119.025 78.7224C119.678 65.6299 103.453 57.87 97.8868 53.4378L52.9058 58.5388Z" stroke="#955B1E" stroke-width="1.5625" stroke-linecap="round" stroke-linejoin="round"/>
<mask id="mask2_168_7408" style="mask-type:luminance" maskUnits="userSpaceOnUse" x="36" y="52" width="84" height="55">
<path d="M52.9058 58.5388C50.6609 61.358 46.1046 65.5406 42.5552 70.5951C39.0061 75.6496 36.464 81.576 38.2479 87.8829C40.1504 94.6092 46.9774 99.3372 55.2686 102.164C63.5598 104.99 73.3151 105.915 81.0739 105.035C96.5916 103.275 118.329 92.6854 119.025 78.7224C119.678 65.6299 103.453 57.87 97.8868 53.4378L52.9058 58.5388Z" fill="black" stroke="url(#paint16_linear_168_7408)" stroke-width="1.58203" stroke-linecap="round" stroke-linejoin="round"/>
</mask>
<g mask="url(#mask2_168_7408)">
<path d="M52.9058 58.5388C50.6609 61.358 46.1046 65.5406 42.5552 70.5951C39.0061 75.6496 36.464 81.576 38.2479 87.8829C40.1504 94.6092 46.9774 99.3372 55.2686 102.164C63.5598 104.99 73.3151 105.915 81.0739 105.035C96.5916 103.275 118.329 92.6854 119.025 78.7224C119.678 65.6299 103.453 57.87 97.8868 53.4378L52.9058 58.5388Z" stroke="url(#paint17_linear_168_7408)" stroke-width="1.58203" stroke-linecap="round" stroke-linejoin="round"/>
</g>
<mask id="mask3_168_7408" style="mask-type:luminance" maskUnits="userSpaceOnUse" x="46" y="60" width="65" height="42">
<path d="M110.02 77.722C111.227 88.3597 98.0853 98.5845 80.6684 100.56C63.2515 102.535 48.1543 95.5124 46.9479 84.8747C45.7416 74.237 58.8829 64.0122 76.2998 62.037C93.7166 60.0619 108.814 67.0843 110.02 77.722Z" fill="black" stroke="url(#paint18_linear_168_7408)" stroke-width="1.58203" stroke-linecap="round" stroke-linejoin="round"/>
</mask>
<g mask="url(#mask3_168_7408)">
<path d="M110.02 77.722C111.227 88.3597 98.0853 98.5845 80.6684 100.56C63.2515 102.535 48.1543 95.5124 46.9479 84.8747C45.7416 74.237 58.8829 64.0122 76.2998 62.037C93.7166 60.0619 108.814 67.0843 110.02 77.722Z" stroke="url(#paint19_linear_168_7408)" stroke-width="1.58203" stroke-linecap="round" stroke-linejoin="round"/>
</g>
<path d="M51.1347 37.2013L94.9231 32.2125" stroke="#BC8126" stroke-width="1.5625" stroke-linecap="round" stroke-linejoin="round"/>
<path d="M84.5147 43.1675C85.0421 47.8182 80.8562 52.1113 75.1652 52.7567C69.4741 53.4021 64.4332 50.1553 63.9058 45.5047C63.3784 40.854 67.5642 36.5607 73.2553 35.9153C78.9463 35.2699 83.9873 38.5169 84.5147 43.1675Z" fill="url(#paint20_linear_168_7408)"/>
<path d="M79.667 38.3943C79.6107 38.1436 79.3999 37.7669 78.5251 38.0542C77.1992 38.4898 73.4041 40.3862 66.5411 43.8653C65.9293 44.1534 65.6199 44.4034 65.6125 44.6149C65.6065 44.7864 65.8197 46.3035 65.8159 46.4091C65.8018 46.8152 66.4839 46.8654 67.3509 47.0073C68.0577 47.1229 69.005 47.2449 69.4855 47.2006C69.9215 47.1604 70.3898 46.9522 70.8909 46.576C71.7717 45.9247 72.4988 44.9682 73.1608 44.4821C73.0796 44.5638 73.0245 44.62 73.0051 44.6416C72.591 45.1032 72.1283 45.4721 72.1451 45.8264C72.1506 45.9445 72.3389 47.5169 72.3496 47.6367C72.3694 47.8598 72.5827 48.0771 73.1222 48.3088C74.3413 48.8322 75.055 49.1733 76.3104 49.7089C77.1127 50.0511 77.7605 50.4909 78.5337 50.3425C78.8894 50.2742 79.2282 49.9425 79.321 49.0555C79.366 48.6253 80.0323 41.9017 79.8932 40.3597C79.8913 40.3375 79.6841 38.4702 79.667 38.3943Z" fill="url(#paint21_radial_168_7408)"/>
<path d="M66.5411 43.8653C73.4041 40.3862 77.1992 38.4899 78.5251 38.0543C79.6648 37.6799 79.6779 38.433 79.6898 38.5656C79.8289 40.1076 79.1625 46.8309 79.1175 47.2612C78.8855 49.479 77.1142 48.3446 76.1068 47.9148C74.8513 47.3792 74.1378 47.0381 72.9187 46.5147C71.5098 45.9099 72.3238 45.401 73.0051 44.6417C73.1477 44.4828 75.1819 42.4889 76.0133 41.5663C76.5823 40.9349 76.4665 40.5746 75.382 41.3452C74.5845 41.9118 73.0196 43.0573 70.6874 44.7817C70.1863 45.1579 69.718 45.3663 69.282 45.4065C68.8015 45.4508 67.8542 45.3286 67.1474 45.213C67.0919 45.204 64.1555 44.9892 66.5411 43.8653Z" fill="url(#paint22_linear_168_7408)"/>
</g>
<g clip-path="url(#clip1_168_7408)">
<mask id="mask4_168_7408" style="mask-type:luminance" maskUnits="userSpaceOnUse" x="125" y="1" width="111" height="110">
<path d="M235.498 1H125.498V111H235.498V1Z" fill="white"/>
</mask>
<g mask="url(#mask4_168_7408)">
<path d="M209.86 66.4808C209.863 62.8861 207.06 61.1888 203.378 60.7579L166.666 56.2047C162.905 55.7646 158.974 56.2385 156.974 58.6489L144.385 75.6863C142.539 77.8041 142.226 79.2733 141.715 81.61C141.374 83.275 142.549 97.3114 142.646 98.1116C142.957 100.636 144.8 102.231 147.828 102.81L188.247 108.48C193.195 108.955 198.356 107.849 199.916 103.95L208.389 84.8584C208.881 83.8403 209.106 83.1279 209.423 81.6781C209.89 79.4222 209.86 66.8169 209.86 66.4808Z" fill="url(#paint23_linear_168_7408)"/>
<path d="M209.86 66.4808C209.863 62.8861 207.06 61.1888 203.378 60.7579L166.666 56.2047C162.905 55.7646 158.974 56.2385 156.974 58.6489L144.385 75.6863C142.539 77.8041 142.226 79.2733 141.715 81.61C141.374 83.275 142.549 97.3114 142.646 98.1116C142.957 100.636 144.8 102.231 147.828 102.81L188.247 108.48C193.195 108.955 198.356 107.849 199.916 103.95L208.389 84.8584C208.881 83.8403 209.106 83.1279 209.423 81.6781C209.89 79.4222 209.86 66.8169 209.86 66.4808Z" stroke="#006E87" stroke-width="1.35352" stroke-linecap="round" stroke-linejoin="round"/>
<path d="M142.611 93.5988C142.728 96.1847 144.933 98.386 147.971 98.9003L188.848 104.454C193.853 104.956 198.74 103.019 200.245 99.3404L208.352 81.2259C208.844 80.2078 209.733 78.5926 209.865 76.5483" stroke="url(#paint24_linear_168_7408)" stroke-width="0.676758" stroke-linecap="round" stroke-linejoin="round"/>
<path d="M188.247 108.48C193.196 108.955 198.356 107.849 199.916 103.95L208.389 84.8584C208.881 83.8403 209.12 83.1279 209.423 81.6779C209.865 79.4103 209.861 66.8169 209.86 66.4808C209.845 62.8266 207.06 61.1888 203.379 60.7579" stroke="#254C50" stroke-width="1.35352" stroke-linecap="round" stroke-linejoin="round"/>
<path d="M166.666 56.2048C162.905 55.7647 158.974 56.2387 156.974 58.649L144.385 75.6862C142.539 77.804 142.226 79.2051 141.715 81.6099C141.374 83.2749 142.545 97.3269 142.646 98.1117" stroke="#00AAB7" stroke-width="1.35352" stroke-linecap="round" stroke-linejoin="round"/>
<path d="M186.715 89.6405L148.225 84.0324C144.24 83.3403 143.087 79.6843 145.051 77.5087L157.768 60.56C159.769 58.234 162.688 58.0727 167.343 58.516C169.858 58.7553 196.587 60.8941 201.058 61.5135C204.795 62.031 208.987 64.3449 207.244 67.2761L198.811 85.4563C197.393 88.0052 191.446 90.4619 186.715 89.6405Z" fill="url(#paint25_linear_168_7408)"/>
<path d="M186.401 87.5128L149.639 82.1452C145.839 81.4854 144.359 79.236 146.232 77.1616L158.207 60.6072C160.115 58.3892 163.137 57.4366 167.639 56.9829C177.483 55.991 196.171 60.3635 200.041 61.974C202.76 63.1055 206.532 64.8802 205.494 66.7469L197.107 84.4881C195.756 86.9186 190.912 88.296 186.401 87.5128Z" fill="black"/>
<path d="M186.401 87.5128L149.639 82.1452C145.839 81.4854 144.359 79.236 146.232 77.1616L158.207 60.6072C160.115 58.3892 163.137 57.4366 167.639 56.9829C177.483 55.991 196.171 60.3635 200.041 61.974C202.76 63.1055 206.532 64.8802 205.494 66.7469L197.107 84.4881C195.756 86.9186 190.912 88.296 186.401 87.5128Z" stroke="#212121" stroke-width="1.35352" stroke-linecap="round" stroke-linejoin="round"/>
<path d="M185.995 85.498L150.852 80.3555C147.225 79.7257 145.814 77.5795 147.601 75.5997L158.889 59.9127C160.71 57.796 163.594 56.8871 167.89 56.4542C177.285 55.5077 195.179 59.7002 198.872 61.2371C201.466 62.317 205.067 64.0107 204.076 65.7921L196.212 82.6116C194.922 84.9309 190.299 86.2453 185.995 85.498Z" fill="url(#paint26_linear_168_7408)"/>
<path d="M185.995 85.498L150.852 80.3555C147.225 79.7257 145.814 77.5795 147.601 75.5997L158.889 59.9127C160.71 57.796 163.594 56.8871 167.89 56.4542C177.285 55.5077 195.179 59.7002 198.872 61.2371C201.466 62.317 205.067 64.0107 204.076 65.7921L196.212 82.6116C194.922 84.9309 190.299 86.2453 185.995 85.498Z" stroke="black" stroke-width="1.35352" stroke-linecap="round" stroke-linejoin="round"/>
<path d="M146.472 78.0183C146.963 79.3684 149.187 80.5158 151.254 80.7337C153.321 80.9516 185.759 86.0284 185.759 86.0284" stroke="url(#paint27_radial_168_7408)" stroke-width="0.676758" stroke-linecap="round" stroke-linejoin="round"/>
<g opacity="0.44">
<path d="M151.805 70.1686C156.876 66.4408 164.261 66.2879 178.195 68.1136C192.129 69.9392 196.8 73.041 197.32 75.4331C182.264 72.2632 162.138 69.68 151.805 70.1686Z" fill="#0F020E"/>
</g>
<path d="M158.846 18.1121C158.858 17.894 159.31 32.5185 159.65 44.6904C159.86 52.1966 165.278 54.5846 166.953 54.9661C174.493 55.8468 211.085 63.4713 212.035 57.104C212.982 51.4884 216.638 21.1905 212.167 17.3647C207.7 13.5417 160.506 -0.113199 158.846 18.1121Z" fill="url(#paint28_linear_168_7408)"/>
<path d="M158.846 18.1121C158.858 17.894 159.31 32.5185 159.65 44.6904C159.86 52.1966 165.278 54.5846 166.953 54.9661C174.493 55.8468 211.085 63.4713 212.035 57.104C212.982 51.4885 216.638 21.1905 212.167 17.3647C207.7 13.5417 160.506 -0.113199 158.846 18.1121Z" stroke="black" stroke-width="1.35352" stroke-linecap="round" stroke-linejoin="round"/>
<path d="M213.934 46.647C214.262 50.306 211.609 52.8667 208.013 52.3738L172.413 48.3017C168.882 47.8176 165.823 44.9657 165.635 41.0924C165.487 39.5598 164.972 14.25 164.972 14.25C164.923 10.5458 167.405 7.94371 170.97 8.40052L206.837 12.5626C210.469 13.028 213.689 16.4264 214.023 20.1463L213.934 46.647Z" fill="url(#paint29_linear_168_7408)"/>
<g opacity="0.22">
<path d="M184.417 24.0233L180.989 23.645L180.995 24.2643L182.457 24.4258L182.493 28.6857L183.075 28.7507L183.039 24.4903L184.422 24.643L184.417 24.0233Z" fill="white"/>
<path d="M185.67 25.3305C182.898 25.131 183.794 30.1853 186.909 29.088L186.706 28.4844C185.768 28.7382 184.855 28.4088 184.683 27.3567L187.091 27.624C187.209 26.4024 186.478 25.3884 185.67 25.3305ZM184.688 26.7388C184.901 25.628 186.382 25.6973 186.483 26.938L184.688 26.7388Z" fill="white"/>
<path d="M187.881 29.2865L188.465 29.3514L188.428 24.2051L187.844 24.1406L187.881 29.2865Z" fill="white"/>
<path d="M195.149 26.8654C191.947 24.3515 191.936 31.39 195.164 29.6868C195.371 30.9259 194.036 31.2032 193.17 30.5824L192.885 31.0888C193.972 31.8973 195.799 31.5892 195.752 30.0344L195.734 26.6666L195.148 26.6021L195.149 26.8654ZM194.183 29.3326C192.995 29.2467 193.027 26.8088 194.137 26.9642C195.41 27.054 195.503 29.5316 194.183 29.3326Z" fill="white"/>
<path d="M197.207 27.1769L197.205 26.8286L196.619 26.764L196.636 30.2599L197.222 30.3251C197.244 29.3199 196.949 27.3282 198.34 27.4277L198.337 26.8064C197.884 26.7566 197.497 26.8926 197.207 27.1769Z" fill="white"/>
<path d="M201.222 28.691C201.254 27.1604 200.131 26.6751 198.811 27.1098L199.035 27.7097C199.899 27.4683 200.578 27.4888 200.633 28.4555C197.873 27.8069 198.067 31.5645 200.697 30.3971C200.724 30.6398 200.749 30.7695 200.752 30.7817L201.325 30.7158C201.324 30.7091 201.194 30.024 201.222 28.691ZM199.224 29.5584C199.293 28.9267 200.189 29.0208 200.63 29.0772C200.862 30.153 199.144 30.2942 199.224 29.5584Z" fill="white"/>
<path d="M206.327 27.9175C205.747 27.553 205.188 27.777 204.796 28.3658C204.432 27.3603 203.23 27.2897 202.731 28.1352L202.729 27.4363L202.141 27.3718L202.154 30.872L202.741 30.9372C202.732 28.3863 203.568 28.029 203.979 28.2189C204.512 28.4657 204.259 30.0768 204.296 31.1249L204.884 31.1745C204.82 30.0416 205.064 28.0596 206.043 28.4303C206.474 28.6642 206.195 30.9408 206.273 31.3282L206.862 31.3933C206.756 30.6117 207.2 28.4185 206.327 27.9175Z" fill="white"/>
<path d="M190.7 25.8859C187.922 25.6865 188.813 30.7464 191.938 29.6477L191.735 29.0432C190.794 29.2972 189.88 28.9676 189.708 27.9143L192.121 28.1819C192.241 26.959 191.51 25.9439 190.7 25.8859ZM189.713 27.2958C189.928 26.1837 191.413 26.2531 191.513 27.4952L189.713 27.2958Z" fill="white"/>
<path d="M178.179 28.9484L179.416 23.4601C179.452 23.3006 179.294 23.1452 179.14 23.1887L172.363 25.0996C172.2 25.1457 172.209 25.3834 172.377 25.4538L174.164 26.2059L178.149 24.0919L175.109 26.7611L177.894 29.0291C178.001 29.1169 178.15 29.0747 178.179 28.9484Z" fill="white"/>
</g>
<path d="M211.838 6.66454C206.336 6.11456 174.844 3.11584 174.844 3.11584C171.785 2.80657 168.826 3.56431 167.104 5.26139C165.782 6.29435 159.705 10.6755 158.659 12.5762C157.939 13.9974 157.798 15.2246 157.753 17.3354C157.671 21.2879 158.212 42.1388 158.417 46.7548C158.623 51.3707 162.571 55.0823 166.59 55.6232L207.274 60.3136C209.796 60.6531 212.376 58.8302 213.728 56.9628C214.479 55.9102 217.95 50.1974 218.545 48.1886C218.928 46.9855 219.452 45.976 219.59 41.1345C219.728 36.293 219.807 20.5406 219.865 15.5258C219.923 10.511 217.34 7.21452 211.838 6.66454ZM211.544 51.8571C211.544 55.6614 209.113 58.1275 205.349 57.63L168.034 53.4883C164.339 52.9999 160.947 49.6928 160.869 45.993C160.869 45.993 160.196 20.4131 160.196 19.3639C160.165 15.0983 163.102 12.5189 166.835 12.9798L204.385 17.1987C208.187 17.6684 211.589 21.0599 211.589 25.0814L211.544 51.8571Z" fill="url(#paint30_linear_168_7408)"/>
<path d="M211.838 6.66454C206.336 6.11456 174.844 3.11584 174.844 3.11584C171.785 2.80657 168.826 3.56431 167.104 5.26139C165.782 6.29435 159.705 10.6755 158.659 12.5762C157.939 13.9974 157.798 15.2246 157.753 17.3354C157.671 21.2879 158.212 42.1388 158.417 46.7548C158.623 51.3707 162.571 55.0823 166.59 55.6232L207.274 60.3136C209.796 60.6531 212.376 58.8302 213.728 56.9628C214.479 55.9102 217.95 50.1974 218.545 48.1886C218.928 46.9855 219.452 45.976 219.59 41.1345C219.728 36.293 219.807 20.5406 219.865 15.5258C219.923 10.511 217.34 7.21452 211.838 6.66454ZM211.544 51.8571C211.544 55.6614 209.113 58.1275 205.349 57.63L168.034 53.4883C164.339 52.9999 160.947 49.6928 160.869 45.993C160.869 45.993 160.196 20.4131 160.196 19.3639C160.165 15.0983 163.102 12.5189 166.835 12.9798L204.385 17.1987C208.187 17.6684 211.589 21.0599 211.589 25.0814L211.544 51.8571Z" stroke="#006E87" stroke-width="1.35352" stroke-linecap="round" stroke-linejoin="round"/>
<path d="M217.382 50.6662C218.004 49.3694 218.189 47.1094 218.237 44.3848C218.38 36.1049 218.295 27.2423 218.309 18.0601C218.317 12.7103 214.802 9.80091 210.359 9.10723C205.917 8.41355 175.327 5.50485 172.314 5.24768C169.3 4.99051 166.621 5.74329 164.25 7.70612" stroke="url(#paint31_linear_168_7408)" stroke-width="0.676758" stroke-linecap="round" stroke-linejoin="round"/>
<path d="M168.008 55.7868C175.198 56.6156 207.274 60.3137 207.274 60.3137C209.796 60.6532 212.376 58.8302 213.728 56.9628C214.479 55.9102 217.95 50.1975 218.545 48.1887C218.928 46.9856 219.452 45.9761 219.59 41.1346C219.712 36.8782 219.787 24.1892 219.843 17.7767" stroke="#254C50" stroke-width="1.35352" stroke-linecap="round" stroke-linejoin="round"/>
<path d="M211.838 6.66454C206.336 6.11456 174.843 3.11584 174.843 3.11584C171.785 2.80657 168.826 3.56431 167.104 5.26139C165.781 6.29435 159.705 10.6755 158.659 12.5762C157.939 13.9974 157.798 15.2246 157.753 17.3354C157.684 20.6606 158.055 35.9454 158.298 43.4621" stroke="#00AAB7" stroke-width="1.35352" stroke-linecap="round" stroke-linejoin="round"/>
<path d="M161.87 59.2926C162.152 54.3184 164.114 47.4931 168.751 47.0191C172.301 46.6564 205.216 51.1433 206.766 51.5913C209.623 52.458 208.081 55.4944 207.033 56.1504C204.89 56.8107 203.921 63.6775 203.732 65.0933" fill="url(#paint32_linear_168_7408)"/>
<path d="M161.87 59.2926C162.152 54.3184 164.114 47.4931 168.751 47.0191C172.301 46.6564 205.216 51.1433 206.766 51.5913C209.623 52.458 208.081 55.4944 207.033 56.1504C204.89 56.8107 203.921 63.6775 203.732 65.0933" stroke="url(#paint33_linear_168_7408)" stroke-width="1.35352" stroke-linecap="round" stroke-linejoin="round"/>
<path d="M190.755 73.5453C199.966 63.3625 192.885 44.9565 177.105 43.2883C163.376 41.8412 154.457 58.4852 162.22 69.7584C164.022 69.3523 165.904 69.0658 165.904 69.0658C161.476 64.7772 162.884 49.8727 175.93 50.503C189.049 51.18 192.957 64.1977 188.617 72.4083C189.373 72.7749 190.755 73.5453 190.755 73.5453Z" fill="url(#paint34_radial_168_7408)"/>
<path d="M190.755 73.5453C199.966 63.3625 192.885 44.9565 177.105 43.2883C163.376 41.8412 154.457 58.4852 162.22 69.7584C164.022 69.3523 165.904 69.0658 165.904 69.0658C161.476 64.7772 162.884 49.8727 175.93 50.503C189.049 51.18 192.957 64.1977 188.617 72.4083C189.373 72.7749 190.755 73.5453 190.755 73.5453Z" stroke="url(#paint35_radial_168_7408)" stroke-width="0.676758" stroke-linecap="round" stroke-linejoin="round"/>
<path d="M160.593 56.4035C162.738 46.3625 174.098 39.7041 184.75 46.4536C174.606 42.5525 163.842 46.956 160.593 56.4035Z" fill="white"/>
<path d="M189.316 72.0961C191.874 67.098 192.728 57.5925 183.827 51.8547C190.953 53.1171 195.393 64.4406 189.316 72.0961Z" fill="#E6E6E6"/>
<path d="M185.684 54.1394C180.232 49.6888 172.326 48.3374 167.108 53.0841C163.241 56.4445 162.256 63.5761 164.83 68.4574C154.789 56.0411 172.156 38.2681 185.684 54.1394Z" fill="url(#paint36_linear_168_7408)"/>
<g opacity="0.8">
<path d="M173.133 35.1858L184.617 35.9724L180.163 43.9279L175.134 43.5516L173.133 35.1858Z" fill="#F84AAA"/>
<path d="M184.617 35.9725L173.133 35.1859L175.175 31.8215L181.784 32.2529L184.617 35.9725Z" fill="white"/>
<path d="M182.747 45.356L188.685 38.9773L184.617 35.9725L180.164 43.928L182.747 45.356Z" fill="#CD2D8E"/>
<path d="M184.617 35.9725L181.784 32.2528L185.643 35.233L188.685 38.9773L184.617 35.9725Z" fill="#A42B88"/>
<path d="M175.134 43.5516L173.133 35.1858L166.911 36.9235L172.291 44.5602L175.134 43.5516Z" fill="#A80244"/>
<path d="M173.133 35.1859L175.175 31.8215L169.718 33.5951L166.911 36.9234L173.133 35.1859Z" fill="#A42B88"/>
<path d="M180.164 43.9279L175.135 43.5516L172.291 44.5602L173.855 46.369L178.943 46.8335L182.747 45.3559L180.164 43.9279Z" fill="#EA6EC9"/>
</g>
<g opacity="0.85">
<path d="M181.752 32.2327L175.17 31.8328L169.721 33.5768L172.617 37.4386L179.622 37.9863L185.658 35.286L181.752 32.2327Z" fill="#EA6EC9"/>
<path d="M172.29 44.5459L166.876 36.9249L170.124 41.8865L173.852 46.3501L172.29 44.5459Z" fill="#CD2D8E"/>
<path d="M178.971 46.848L181.837 42.9415L170.124 41.8865L173.853 46.3501L178.971 46.848Z" fill="#A80244"/>
<path d="M188.689 38.9897L181.837 42.9416L178.971 46.848L182.777 45.3646L188.689 38.9897Z" fill="#65001A"/>
<path d="M166.865 36.9249L169.721 33.5768L172.617 37.4386L170.124 41.8867L166.865 36.9249Z" fill="white"/>
<path d="M179.622 37.9864L181.837 42.9417L170.124 41.8866L172.617 37.4387L179.622 37.9864Z" fill="#F84AAA"/>
<path d="M185.658 35.2861L179.621 37.9864L181.837 42.9416L188.689 38.99L185.658 35.2861Z" fill="#CD2D8E"/>
</g>
<path d="M169.728 33.5723L166.817 36.9333L172.27 44.5759L173.896 46.4309L178.966 46.8932L182.746 45.3472L188.691 38.9816L185.643 35.2394L181.795 32.2102L175.187 31.8423L169.728 33.5723Z" stroke="#93005F" stroke-width="0.676758" stroke-linecap="round" stroke-linejoin="round"/>
<path d="M171.769 44.6226L173.916 46.4076C173.916 46.4076 174.767 45.7182 176.351 45.8626C177.978 46.0135 178.858 46.9055 178.858 46.9055L182.718 45.4085L178.971 47.1561L173.853 46.6582L171.769 44.6226Z" fill="#6A6A6A"/>
<path d="M171.769 44.6226L173.916 46.4076C173.916 46.4076 174.767 45.7182 176.351 45.8626C177.978 46.0135 178.858 46.9055 178.858 46.9055L182.718 45.4085L178.971 47.1561L173.853 46.6582L171.769 44.6226Z" stroke="url(#paint37_linear_168_7408)" stroke-width="0.676758" stroke-linecap="round" stroke-linejoin="round"/>
<path d="M197.012 80.5605C197.73 79.2943 198.909 76.8077 199.027 75.9263C198.969 74.9933 192.171 70.8441 176.783 69.1326C154.401 66.643 152.963 68.4662 149.947 72.723L150.155 73.2946" fill="url(#paint38_linear_168_7408)"/>
<path d="M197.012 80.5605C197.73 79.2943 198.909 76.8077 199.027 75.9263C198.969 74.9933 192.171 70.8441 176.783 69.1326C154.401 66.643 152.963 68.4662 149.947 72.723L150.155 73.2946" stroke="black" stroke-width="0.676758" stroke-linecap="round" stroke-linejoin="round"/>
<path d="M153.174 69.8445C155.836 68.3798 159.749 67.7398 171.231 68.9164C157.71 68.4625 153.411 69.5219 148.805 75.869C151.281 72.6794 151.709 70.6505 153.174 69.8445Z" fill="#64565D"/>
<path d="M170.203 93.2723C169.803 98.5319 161.92 97.0344 162.304 91.698C162.677 86.4333 170.626 87.8869 170.203 93.2723Z" fill="#BFD3D6"/>
<path d="M170.203 93.2723C169.803 98.5319 161.92 97.0344 162.304 91.698C162.677 86.4333 170.626 87.8869 170.203 93.2723Z" stroke="#485F60" stroke-width="1.35352" stroke-linecap="round" stroke-linejoin="round"/>
<path d="M163.029 92.4546C162.933 89.3925 165.74 88.6616 167.814 89.9527" stroke="white" stroke-width="0.676758" stroke-linecap="round" stroke-linejoin="round"/>
<path d="M168.051 93.6378C167.833 97.0766 162.581 96.0344 162.898 92.6107C163.206 89.2269 168.269 90.1951 168.051 93.6378Z" fill="#A4BEC1"/>
<path d="M168.051 93.6378C167.833 97.0766 162.581 96.0344 162.898 92.6107C163.206 89.2269 168.269 90.1951 168.051 93.6378Z" stroke="#84A0A5" stroke-width="1.35352" stroke-linecap="round" stroke-linejoin="round"/>
<path d="M163.429 93.3507C163.188 91.4305 165.303 90.6014 166.783 91.9268" stroke="white" stroke-width="0.676758" stroke-linecap="round" stroke-linejoin="round"/>
<g opacity="0.5">
<path d="M171.51 95.7972C172.014 94.5597 172.28 91.6018 169.292 89.8831C169.827 91.8748 169.099 93.4886 167.5 92.9203C166.621 94.7336 163.54 94.9105 162.664 94.298C162.829 97.3639 166.514 98.424 167.747 98.2361C169.64 100.574 172.97 98.4555 171.51 95.7972Z" fill="#485F60"/>
</g>
<path d="M166.615 94.4567C166.615 97.462 162.058 97.457 162.058 94.4567C162.058 91.4566 166.615 91.4485 166.615 94.4567Z" fill="#BFD3D6"/>
<path d="M166.615 94.4567C166.615 97.462 162.058 97.457 162.058 94.4567C162.058 91.4566 166.615 91.4485 166.615 94.4567Z" stroke="#768E91" stroke-width="0.676758" stroke-linecap="round" stroke-linejoin="round"/>
<path d="M164.637 94.0534C164.637 95.215 162.876 95.2129 162.876 94.0534C162.876 92.8939 164.637 92.8908 164.637 94.0534Z" fill="#FDFFFF"/>
<path d="M175.825 14.0958C180.477 14.7061 193.231 15.4334 199.978 16.5795C195.746 13.5351 180.959 12.2484 175.825 14.0958Z" fill="#53D8CA"/>
<path d="M168.998 13.1533L201.95 16.8366" stroke="#254C50" stroke-width="1.30602" stroke-linecap="round" stroke-linejoin="round"/>
</g>
</g>
<mask id="mask5_168_7408" style="mask-type:luminance" maskUnits="userSpaceOnUse" x="228" y="15" width="112" height="111">
<path d="M339.135 26.6376L239.772 15.3632L228.498 114.726L327.86 126L339.135 26.6376Z" fill="white"/>
</mask>
<g mask="url(#mask5_168_7408)">
<path d="M273.272 44.3317C273.272 44.3317 275.557 32.0767 280.098 26.1862C280.098 26.1862 293.134 22.8983 301.793 46.3761" fill="url(#paint39_linear_168_7408)"/>
<path d="M273.067 45.6987C273.067 45.6987 274.59 32.7121 279.792 26.6976C279.792 26.6976 288.799 26.0227 289.039 43.2363L286.128 43.5059C286.128 43.5059 286.797 32.3588 280.47 30.3499C280.47 30.3499 276.482 34.8632 275.588 44.4949L273.067 45.6987Z" fill="url(#paint40_linear_168_7408)"/>
<path d="M278.44 41.2433C278.44 41.2433 282.834 40.1528 285.7 40.2793C285.7 40.2793 286.191 35.071 282.572 31.085C282.572 31.085 279.348 34.99 278.44 41.2433Z" fill="url(#paint41_linear_168_7408)"/>
<path d="M277.591 43.0339C277.591 43.0339 278.706 34.5196 282.212 31.1931" stroke="#77004A" stroke-width="1.5625" stroke-linecap="round" stroke-linejoin="round"/>
<path d="M288.43 35.4742C288.43 35.4742 289.375 37.7084 289.394 42.7344C289.412 47.7605 296.817 43.7459 297.52 42.0177C297.52 42.0177 299.284 43.2075 294.824 35.9428C290.364 28.6782 285.856 29.8938 288.43 35.4742Z" fill="url(#paint42_linear_168_7408)"/>
<path d="M273.272 44.3317C273.272 44.3317 275.556 32.0769 280.098 26.1864" stroke="#77004A" stroke-width="1.5625" stroke-linecap="round" stroke-linejoin="round"/>
<path d="M280.098 26.1864C280.098 26.1864 293.134 22.8982 301.793 46.3761" stroke="#510032" stroke-width="1.5625" stroke-linecap="round" stroke-linejoin="round"/>
<path d="M281.021 29.8663C281.021 29.8663 285.986 32.0684 285.553 42.4477" stroke="#77004A" stroke-width="1.5625" stroke-linecap="round" stroke-linejoin="round"/>
<path d="M254.946 57.8419C254.946 57.8419 250.688 56.4555 249.211 61.0138C247.506 66.2753 258.04 72.5883 258.04 72.5883L254.946 57.8419Z" fill="#9199A8"/>
<path d="M254.946 57.8419C254.946 57.8419 250.688 56.4555 249.211 61.0138C247.506 66.2753 258.04 72.5883 258.04 72.5883L254.946 57.8419Z" stroke="#060707" stroke-width="1.5625" stroke-linecap="round" stroke-linejoin="round"/>
<path d="M256.753 112.096C256.753 112.096 253.664 109.448 252.016 106.568C250.222 103.431 248.801 98.8057 248.78 89.8617C248.774 87.1091 254.799 81.4572 256.77 73.934C258.471 67.4424 253.263 66.3156 251.728 63.2314C251.197 62.1658 252.033 61.0647 252.492 59.9486C261.066 39.1155 288.46 37.9837 300.186 41.4342C311.912 44.8847 322.005 57.3873 319.643 72.8681C317.28 88.3489 313.939 96.5849 313.939 96.5849C313.939 96.5849 308.443 105.26 287.934 109.798C269.518 113.872 256.753 112.096 256.753 112.096Z" fill="url(#paint43_linear_168_7408)"/>
<g opacity="0.13">
<path d="M268.229 111.097C268.229 111.097 264.031 83.1087 272.443 63.5299C278.302 49.893 290.346 48.131 290.346 48.131C290.346 48.131 302.169 51.4504 304.218 59.504C304.218 59.504 293.558 69.0543 291.715 78.6775C287.936 98.4003 284.489 109.59 284.489 109.59C284.489 109.59 271.263 113.899 268.229 111.097Z" fill="white"/>
</g>
<g opacity="0.43">
<path d="M249.499 90.0923C249.499 90.0923 249.919 97.8455 252.143 104.504C252.143 104.504 254.878 109.283 258.485 111.629" stroke="white" stroke-width="1.5625" stroke-linecap="round" stroke-linejoin="round"/>
</g>
<path d="M284.253 89.7155C284.253 89.7155 300.849 87.9853 306.4 75.2452C312.802 60.5534 309.886 54.1883 309.886 54.1883C309.886 54.1883 296.191 57.9678 289.602 67.7248C284.024 75.9837 284.253 89.7155 284.253 89.7155Z" fill="url(#paint44_linear_168_7408)"/>
<path d="M283.094 95.9899C283.094 95.9899 281.856 103.257 281.546 109.926C281.546 109.926 292.336 109.363 298.007 106.654C298.007 106.654 302.277 94.6246 302.948 90.6784C303.619 86.7323 286.672 88.3846 282.827 96.6635" fill="url(#paint45_linear_168_7408)"/>
<g opacity="0.67">
<path d="M251.782 63.3514C251.782 63.3514 256.567 47.0365 276.858 41.9078C290.891 38.3606 305.298 43.3471 305.298 43.3471" stroke="url(#paint46_linear_168_7408)" stroke-width="1.5625" stroke-linecap="round" stroke-linejoin="round"/>
</g>
<g opacity="0.57">
<path d="M287.095 69.9263C275.903 73.9128 262.109 71.2104 259.142 62.881C256.175 54.5516 262.981 46.7957 274.172 42.8091C285.363 38.8226 296.841 42.3436 299.808 50.673C302.775 59.0025 298.286 65.9398 287.095 69.9263Z" fill="url(#paint47_radial_168_7408)"/>
</g>
<path d="M315.488 84.9755C315.488 84.9755 313.29 93.9668 311.551 96.0453C307.3 101.125 296.902 106.107 289.421 107.046C289.421 107.046 297.697 95.595 299.688 93.8096C301.678 92.0241 315.488 84.9755 315.488 84.9755Z" fill="url(#paint48_linear_168_7408)"/>
<path d="M318.368 60.9454C319.216 64.3804 319.431 68.1129 318.832 72.0401C316.508 87.2699 313.248 94.9943 313.248 94.9943C313.248 94.9943 307.888 103.722 287.716 108.187C269.604 112.196 259.449 111.665 259.449 111.665" stroke="#F943BC" stroke-width="1.58848" stroke-linecap="round" stroke-linejoin="round"/>
<path d="M289.421 107.046C289.421 107.046 297.072 96.2936 299.688 93.8096C302.304 91.3256 315.488 84.9755 315.488 84.9755C315.488 84.9755 302.959 92.4835 300.381 95.0713C300.381 95.0713 292.469 102.724 289.421 107.046Z" fill="#510032"/>
<path d="M253.957 63.9315C253.957 63.9315 258.591 50.9587 270.697 46.6713C270.697 46.6713 274.983 45.6677 279.656 46.496C279.656 46.496 266.259 51.6549 262.541 67.3474C259.152 81.6538 253.957 63.9315 253.957 63.9315Z" fill="url(#paint49_radial_168_7408)"/>
<g opacity="0.5">
<path d="M250.159 96.1597C250.159 96.1597 251.363 98.6798 258.176 100.347C264.989 102.013 273.556 101.347 273.556 101.347C273.556 101.347 270.934 110.013 259.685 111.12" stroke="#FFA4EE" stroke-width="3.51562" stroke-linecap="round" stroke-linejoin="round"/>
<path d="M257.441 100.263C257.441 100.263 257.027 106.101 257.539 110.777" stroke="#FFA4EE" stroke-width="3.51562" stroke-linecap="round" stroke-linejoin="round"/>
</g>
<path d="M257.272 100.071C251.269 98.5374 249.363 95.7982 249.363 95.7982C249.363 95.7982 249.969 100.896 251.346 104.787C252.365 107.668 255.586 111.165 257.114 112.065C268.81 112.42 273.368 101.251 273.368 101.251C273.368 101.251 264.067 101.808 257.272 100.071Z" stroke="#FFA4EE" stroke-width="1.5625" stroke-linecap="round" stroke-linejoin="round"/>
<path d="M257.253 100.168C257.253 100.168 256.797 106.373 257.309 111.049" stroke="#FFA4EE" stroke-width="1.5625" stroke-linecap="round" stroke-linejoin="round"/>
<g opacity="0.5">
<path d="M306.837 81.3197C306.837 81.3197 312.373 79.5273 317.668 78.3653" stroke="#FFA4EE" stroke-width="3.51562" stroke-linecap="round" stroke-linejoin="round"/>
</g>
<path d="M306.304 81.4502C306.304 81.4502 311.358 80.2361 318.654 78.0843" stroke="#FFA4EE" stroke-width="1.5625" stroke-miterlimit="10"/>
<g opacity="0.5">
<path d="M283.48 72.529C283.48 72.529 285.956 62.5304 293.717 57.1539C301.478 51.7775 308.327 51.8099 308.327 51.8099" stroke="#FFA4EE" stroke-width="3.51562" stroke-linecap="round" stroke-linejoin="round"/>
</g>
<path d="M283.489 72.4555C283.489 72.4555 285.964 62.4569 293.725 57.0805C301.486 51.704 308.335 51.7364 308.335 51.7364" stroke="#FFA4EE" stroke-width="1.5625" stroke-linecap="round" stroke-linejoin="round"/>
<path d="M256.753 112.096C256.753 112.096 253.664 109.448 252.016 106.568C250.222 103.431 248.801 98.8057 248.78 89.8617C248.774 87.1091 254.799 81.4572 256.77 73.934C258.471 67.4424 253.263 66.3156 251.728 63.2314C251.197 62.1658 252.033 61.0645 252.492 59.9484C261.066 39.1153 288.46 37.9837 300.186 41.4342C311.912 44.8847 322.005 57.3873 319.643 72.8681C317.28 88.3489 313.939 96.5849 313.939 96.5849C313.939 96.5849 308.443 105.26 287.934 109.798C269.518 113.872 256.753 112.096 256.753 112.096Z" stroke="#930965" stroke-width="1.58848" stroke-linecap="round" stroke-linejoin="round"/>
<path d="M319.235 61.953C320.082 65.388 320.162 69.65 319.563 73.5772C317.239 88.807 313.979 96.5314 313.979 96.5314C313.979 96.5314 308.618 105.259 288.447 109.724C270.335 113.733 257.086 112.182 257.086 112.182" stroke="#510032" stroke-width="1.5625" stroke-linecap="round" stroke-linejoin="round"/>
<path d="M265.641 72.6923C265.641 72.6923 265.158 78.6957 261.192 83.013C257.227 87.3303 253.379 92.356 253.379 92.356L258.32 95.201C258.32 95.201 277.296 84.6416 288.293 84.0025C299.291 83.3633 304.964 85.0002 304.964 85.0002C304.964 85.0002 308.5 78.3499 303.218 76.7574C297.937 75.1648 290.665 76.227 282.275 75.7715C273.885 75.316 265.641 72.6923 265.641 72.6923Z" fill="url(#paint50_linear_168_7408)"/>
<path d="M260.673 95.4679C260.673 95.4679 261.831 89.6404 273.59 84.9163C285.349 80.1922 299.636 80.3233 302.224 87.2714C302.224 87.2714 284.754 96.81 272.691 96.3351C260.629 95.8601 260.673 95.4679 260.673 95.4679Z" fill="#160814"/>
<path d="M259.632 87.5784C259.632 87.5784 262.857 84.5546 265.977 81.5448C270.215 77.4571 269.7 74.121 269.7 74.121C269.7 74.121 263.317 72.6023 260.574 71.3972C260.574 71.3972 260.341 77.8264 257.389 81.9608C254.437 86.0951 253.069 88.522 253.069 88.522C253.069 88.522 256.08 87.374 259.632 87.5784Z" fill="url(#paint51_linear_168_7408)"/>
<path d="M255.31 86.7154C255.31 86.7154 256.633 84.6805 258.514 82.1131C260.394 79.5456 262.401 74.1123 262.234 71.213L259.392 69.9968C259.392 69.9968 259.511 75.0754 256.153 80.1568C252.796 85.2382 251.156 87.4359 251.807 88.7015L255.31 86.7154Z" fill="#8E6E8D"/>
<path d="M251.796 88.7996C251.796 88.7996 254.799 85.9621 259.047 87.0401C263.295 88.1181 266.683 93.2696 268.027 96.3024C268.027 96.3024 251.799 96.6461 251.796 88.7996Z" fill="#594D57"/>
<g opacity="0.24">
<path d="M255.372 91.7503C255.372 91.7503 256.044 89.1077 258.334 88.6227C260.623 88.1377 265.467 92.4985 264.488 94.1255C263.509 95.7524 255.31 92.7365 255.372 91.7503Z" fill="url(#paint52_linear_168_7408)"/>
</g>
<g opacity="0.67">
<path d="M251.984 90.0994C251.984 90.0994 257.416 86.2093 262.166 88.9829" stroke="url(#paint53_linear_168_7408)" stroke-width="1.5625" stroke-linecap="round" stroke-linejoin="round"/>
</g>
<path d="M251.765 89.0756C251.765 89.0756 254.768 86.2381 259.016 87.3161C263.264 88.3941 266.652 93.5456 267.996 96.5784" stroke="#281F26" stroke-width="1.58848" stroke-linecap="round" stroke-linejoin="round"/>
<path d="M260.491 90.7235C260.442 91.1602 260.064 91.4759 259.648 91.4286C259.232 91.3814 258.934 90.9891 258.984 90.5525C259.033 90.1158 259.411 89.8001 259.827 89.8474C260.244 89.8946 260.541 90.2869 260.491 90.7235Z" fill="#3A2E37"/>
<path d="M263.565 93.3381C263.516 93.7748 263.138 94.0905 262.722 94.0433C262.305 93.996 262.008 93.6037 262.058 93.1671C262.107 92.7304 262.485 92.4148 262.901 92.462C263.317 92.5092 263.615 92.9015 263.565 93.3381Z" fill="#3A2E37"/>
<path d="M257.49 89.7992C257.322 90.2049 256.9 90.4157 256.55 90.2698C256.199 90.1239 256.052 89.6767 256.22 89.271C256.389 88.8654 256.81 88.6545 257.161 88.8004C257.511 88.9463 257.659 89.3936 257.49 89.7992Z" fill="#3A2E37"/>
<path d="M254.208 90.3726C254.023 90.7475 253.661 90.9471 253.4 90.8184C253.139 90.6897 253.078 90.2813 253.263 89.9064C253.448 89.5315 253.809 89.332 254.07 89.4606C254.331 89.5893 254.393 89.9977 254.208 90.3726Z" fill="#3A2E37"/>
<path d="M257.646 92.1079C257.597 92.5446 257.219 92.8603 256.803 92.813C256.387 92.7658 256.089 92.3735 256.139 91.9369C256.188 91.5002 256.566 91.1845 256.982 91.2318C257.399 91.279 257.696 91.6713 257.646 92.1079Z" fill="#3A2E37"/>
<path d="M260.556 93.1673C260.502 93.6394 260.094 93.9807 259.644 93.9297C259.193 93.8786 258.872 93.4545 258.926 92.9823C258.979 92.5101 259.387 92.1688 259.838 92.2199C260.288 92.271 260.609 92.6951 260.556 93.1673Z" fill="#3A2E37"/>
<path d="M255.498 91.4229C255.313 91.7978 254.952 91.9974 254.691 91.8687C254.43 91.74 254.368 91.3316 254.553 90.9567C254.738 90.5818 255.099 90.3822 255.36 90.5109C255.621 90.6396 255.683 91.048 255.498 91.4229Z" fill="#3A2E37"/>
<path d="M281.61 94.7648C281.61 94.7648 289.295 79.5474 293.716 76.4737C293.716 76.4737 297.183 75.6752 299.372 76.5195C301.56 77.3638 286.624 94.3405 286.624 94.3405C286.624 94.3405 283.461 95.0742 281.61 94.7648Z" fill="#8E6E8D"/>
<path d="M284.346 94.2807C284.346 94.2807 293.207 78.6474 296.747 76.023C298.373 74.817 305.679 77.831 306.359 80.5897C307.039 83.3485 304.067 86.7853 297.694 90.4322C291.321 94.0791 284.346 94.2807 284.346 94.2807Z" fill="url(#paint54_linear_168_7408)"/>
<path d="M256.64 67.9961L259.459 69.4085C259.459 69.4085 259.203 76.0339 257.103 79.6689C255.002 83.3038 250.34 86.7475 251.955 90.9034C253.569 95.0594 262.75 97.293 276.812 95.909C290.873 94.525 304.23 87.1018 306.81 83.6205C306.81 83.6205 306.759 86.6936 302.195 90.1486C297.632 93.6036 287.202 98.8754 268.043 98.7873C248.885 98.6992 247.235 91.3611 249.402 87.1378C251.57 82.9144 258.11 77.7968 256.64 67.9961Z" fill="url(#paint55_linear_168_7408)"/>
<path d="M248.812 90.1492C248.812 90.1492 248.524 87.4349 250.934 84.5798C253.344 81.7247 257.838 74.9351 256.774 68.5572" stroke="#510032" stroke-width="1.5625" stroke-linecap="round" stroke-linejoin="round"/>
<path d="M259.218 69.7781C259.218 69.7781 259.767 72.8197 257.816 77.7628C255.864 82.706 251.793 85.3229 251.446 89.2563C251.099 93.1897 258.276 97.2641 273.988 96.2834C291.493 95.1908 302.374 88.5791 306.417 83.5756" stroke="#510032" stroke-width="1.5625" stroke-linecap="round" stroke-linejoin="round"/>
<path d="M251.475 62.8303C251.475 62.8303 255.271 69.7638 268.043 72.9645C287.599 77.865 293.653 75.7213 299.145 75.8975C304.637 76.0737 307.672 78.2061 306.644 84.6443C305.615 91.0825 292.518 96.078 280.032 98.161C270.82 99.698 249.803 99.7961 248.812 90.1492" stroke="#930965" stroke-width="1.58848" stroke-linecap="round" stroke-linejoin="round"/>
<path d="M252.216 60.4367C247.451 59.4299 248.521 68.1708 250.36 66.9333C251.96 63.9519 251.681 60.6961 252.216 60.4367Z" fill="#9199A8"/>
<path d="M252.09 60.4424C252.09 60.4424 251.167 63.3173 258.154 67.1102C268.192 72.5597 282.904 74.3014 297.743 73.8906C306.187 73.6569 308.025 77.8132 307.23 82.1924C307.23 82.1924 271.335 83.8305 262.213 79.3194C253.091 74.8082 246.997 69.2498 249.173 61.452" fill="#9199A8"/>
<path d="M252.09 60.4424C252.09 60.4424 251.167 63.3173 258.154 67.1102C268.192 72.5597 282.904 74.3014 297.743 73.8906C306.187 73.6569 308.025 77.8132 307.23 82.1924C307.23 82.1924 271.335 83.8305 262.213 79.3194C253.091 74.8082 246.997 69.2498 249.173 61.452" stroke="#060707" stroke-width="1.5625" stroke-linecap="round" stroke-linejoin="round"/>
<path d="M249.273 60.5695C249.273 60.5695 247.721 65.0892 257.36 69.8297C268.648 75.3811 282.18 76.9167 297.46 76.1676C306.117 75.7432 308.057 78.4271 307.262 82.8062C306.177 88.7849 300.212 92.579 292.767 95.0162C279.925 99.2201 265.685 99.9881 257.06 97.2217C248.436 94.4553 246.911 89.515 246.911 89.515C246.911 89.515 244.452 74.1751 249.273 60.5695Z" fill="url(#paint56_linear_168_7408)"/>
<path d="M250.945 65.3674C250.945 65.3674 248.497 83.4574 249.677 92.7532C249.677 92.7532 255.411 98.0219 264.777 98.1909L266.322 73.1484C266.322 73.1484 256.152 69.361 250.945 65.3674Z" fill="url(#paint57_linear_168_7408)"/>
<path d="M250.974 65.4088C250.974 65.4088 253.911 69.5873 259.27 70.9401C259.27 70.9401 256.352 84.5361 257.564 97.4856C257.564 97.4856 251.097 94.964 249.479 92.5953C249.479 92.5953 248.699 79.1789 250.974 65.4088Z" fill="url(#paint58_linear_168_7408)"/>
<path d="M249.826 64.4557C249.826 64.4557 252.179 67.8855 261.275 71.2172C270.37 74.5488 283.532 77.4591 296.158 76.2678C303.529 75.5722 305.683 77.6081 305.255 81.0275C304.67 85.6959 299.64 90.4471 293.42 92.6569C282.69 96.4686 270.028 98.2318 258.658 95.1538C251.198 93.1344 248.051 87.0974 248.051 87.0974C248.051 87.0974 246.486 75.1827 249.826 64.4557Z" fill="url(#paint59_linear_168_7408)"/>
<g opacity="0.24">
<path d="M266.736 72.979C266.736 72.979 280.062 76.8972 285.021 76.5165C285.021 76.5165 283.299 86.4473 281.691 97.9844C281.691 97.9844 267.2 98.7775 265.239 98.555C265.239 98.555 263.412 89.1382 266.736 72.979Z" fill="url(#paint60_linear_168_7408)"/>
</g>
<g opacity="0.8">
<path d="M266.922 98.4979C269.801 98.5574 275.788 99.0712 277.868 97.856C280.323 95.2974 281.929 91.7631 284.284 86.9085C286.129 83.1058 287.954 78.2758 288.436 76.4287C286.617 75.7655 282.46 75.5886 277.831 75.7379C277.234 77.3661 274.207 84.2345 271.546 88.4062C272.19 88.576 275.046 87.2293 276.237 86.5074C275.241 89.8219 271.23 95.7399 266.922 98.4979Z" fill="url(#paint61_linear_168_7408)"/>
</g>
<g opacity="0.74">
<path d="M300.209 81.6495C300.324 81.7914 300.538 81.8024 300.656 81.6635C301.081 81.1658 302.065 80.2632 303.238 80.8592C304.794 81.6501 304.52 83.5622 302.978 85.9943C302.072 87.4231 301.137 88.3513 300.519 88.8743C300.134 89.2009 299.56 89.1602 299.223 88.7842C298.081 87.5124 295.702 84.5582 296.063 82.3791C296.507 79.6992 298.968 80.1212 300.209 81.6495Z" fill="#21D6D1"/>
</g>
<g opacity="0.36">
<path d="M297.631 86.1779L302.355 80.9784C302.355 80.9784 303.716 80.7977 304.056 82.4005L299.007 88.1591C299.007 88.1591 297.849 87.2083 297.631 86.1779Z" fill="white"/>
</g>
<g opacity="0.36">
<path d="M296.964 85.4939L300.399 81.9112L299.869 81.553L296.717 85.0439L296.964 85.4939Z" fill="white"/>
</g>
<path d="M300.209 81.6495C300.324 81.7914 300.538 81.8024 300.656 81.6635C301.081 81.1658 302.065 80.2632 303.238 80.8592C304.794 81.6501 304.52 83.5622 302.978 85.9943C302.072 87.4231 301.137 88.3513 300.519 88.8743C300.134 89.2009 299.56 89.1602 299.223 88.7842C298.081 87.5124 295.702 84.5582 296.063 82.3791C296.507 79.6992 298.968 80.1212 300.209 81.6495Z" stroke="#060707" stroke-width="0.976562" stroke-linecap="round" stroke-linejoin="round"/>
<g opacity="0.4">
<mask id="mask6_168_7408" style="mask-type:luminance" maskUnits="userSpaceOnUse" x="249" y="40" width="49" height="73">
<path d="M289.997 40.473C267.341 45.1603 258.772 52.5434 254.247 63.3004C252.877 63.1415 251.888 64.0612 251.819 65.1098C249.593 67.8304 248.482 88.8843 249.736 94.1398C249.97 94.6061 250.74 95.1849 251.191 95.4926C251.183 99.7315 251.876 104.588 252.581 107.114C252.964 108.067 255.796 112.123 258.18 112.123C257.759 107.603 258.33 100.837 258.773 98.6034C258.314 98.5996 257.891 98.4288 257.709 98.2833C257.498 86.5165 258.685 74.7589 260.089 70.1762C260.254 69.6399 260.684 68.4008 261.781 67.9374C265.844 52.7536 279.51 43.055 297.202 41.9294C296.126 41.021 293.124 40.4567 289.997 40.473Z" fill="url(#paint62_linear_168_7408)"/>
</mask>
<g mask="url(#mask6_168_7408)">
<path d="M289.997 40.473C267.341 45.1603 258.772 52.5434 254.247 63.3004C252.877 63.1415 251.888 64.0612 251.819 65.1098C249.593 67.8304 248.482 88.8843 249.736 94.1398C249.97 94.6061 250.74 95.1849 251.191 95.4926C251.183 99.7315 251.876 104.588 252.581 107.114C252.964 108.067 255.796 112.123 258.18 112.123C257.759 107.603 258.33 100.837 258.773 98.6034C258.314 98.5996 257.891 98.4288 257.709 98.2833C257.498 86.5165 258.685 74.7589 260.089 70.1762C260.254 69.6399 260.684 68.4008 261.781 67.9374C265.844 52.7536 279.51 43.055 297.202 41.9294C296.126 41.021 293.124 40.4567 289.997 40.473Z" fill="url(#paint63_linear_168_7408)"/>
</g>
<mask id="mask7_168_7408" style="mask-type:luminance" maskUnits="userSpaceOnUse" x="270" y="48" width="48" height="64">
<path d="M308.962 49.1607C293.824 47.4431 280.295 54.5077 276.044 71.7199C274.674 71.5609 273.685 72.9228 273.615 73.9714C272.541 77.8055 270.072 93.4964 271.023 99.2581C271.258 99.7244 272.339 99.5031 272.777 99.711C272.723 103.92 272.87 107.598 272.718 111.758C274.537 111.748 279.166 110.799 281.621 110.385C281.539 106.125 282.467 101.193 282.618 98.508C282.158 98.5042 281.665 98.5219 281.482 98.3764C281.272 86.6097 282.614 79.9804 284.018 75.3976C284.183 74.8614 284.716 73.1426 285.452 72.8347C289.585 59.6897 301.612 53.7324 317.256 53.1487C316.18 52.2403 311.171 49.608 308.962 49.1607Z" fill="url(#paint64_linear_168_7408)"/>
</mask>
<g mask="url(#mask7_168_7408)">
<path d="M308.962 49.1607C293.824 47.4431 280.295 54.5077 276.044 71.7199C274.674 71.5609 273.685 72.9228 273.615 73.9714C272.541 77.8055 270.072 93.4964 271.023 99.2581C271.258 99.7244 272.339 99.5031 272.777 99.711C272.723 103.92 272.87 107.598 272.718 111.758C274.537 111.748 279.166 110.799 281.621 110.385C281.539 106.125 282.467 101.193 282.618 98.508C282.158 98.5042 281.665 98.5219 281.482 98.3764C281.272 86.6097 282.614 79.9804 284.018 75.3976C284.183 74.8614 284.716 73.1426 285.452 72.8347C289.585 59.6897 301.612 53.7324 317.256 53.1487C316.18 52.2403 311.171 49.608 308.962 49.1607Z" fill="url(#paint65_linear_168_7408)"/>
</g>
</g>
<path d="M249.273 60.569C249.273 60.569 247.721 65.0888 257.36 69.8292C268.648 75.3806 282.18 76.9162 297.46 76.1671C306.117 75.7427 308.057 78.4266 307.262 82.8057C306.177 88.7844 300.212 92.5785 292.767 95.0157C279.925 99.2196 265.685 99.9876 257.06 97.2212C248.436 94.4548 246.911 89.5147 246.911 89.5147C246.911 89.5147 244.452 74.1746 249.273 60.569Z" stroke="#060707" stroke-width="1.5625" stroke-linecap="round" stroke-linejoin="round"/>
<path d="M249.272 60.5621C249.272 60.5621 247.719 65.0819 257.358 69.8223C268.647 75.3738 282.178 76.9094 297.459 76.1602C306.115 75.7358 308.055 78.4198 307.261 82.7989C306.175 88.7775 300.211 92.5716 292.765 95.0089C279.923 99.2128 265.683 99.9806 257.059 97.2142C248.434 94.4478 246.909 89.5076 246.909 89.5076C246.909 89.5076 244.451 74.1678 249.272 60.5621Z" stroke="url(#paint66_linear_168_7408)" stroke-width="1.5625" stroke-linecap="round" stroke-linejoin="round"/>
<g opacity="0.2">
<path d="M274.579 75.1466C278.951 75.8646 283.542 76.2347 288.333 76.3186" stroke="url(#paint67_linear_168_7408)" stroke-width="1.5625" stroke-linecap="round" stroke-linejoin="round"/>
</g>
<g opacity="0.2">
<path d="M274.579 75.1466C278.951 75.8646 283.542 76.2347 288.333 76.3186" stroke="url(#paint68_linear_168_7408)" stroke-width="1.5625" stroke-linecap="round" stroke-linejoin="round"/>
</g>
<g opacity="0.2">
<path d="M274.579 75.1466C278.951 75.8646 283.542 76.2347 288.333 76.3186" stroke="url(#paint69_linear_168_7408)" stroke-width="1.5625" stroke-linecap="round" stroke-linejoin="round"/>
</g>
<g opacity="0.2">
<path d="M274.579 75.1466C278.951 75.8646 283.542 76.2347 288.333 76.3186" stroke="url(#paint70_linear_168_7408)" stroke-width="1.5625" stroke-linecap="round" stroke-linejoin="round"/>
</g>
<path d="M274.579 75.1466C278.951 75.8646 283.542 76.2347 288.333 76.3186" stroke="url(#paint71_linear_168_7408)" stroke-width="1.5625" stroke-linecap="round" stroke-linejoin="round"/>
<g opacity="0.2">
<path d="M250.032 64.0309C251.008 65.652 253.048 67.6803 257.222 69.7545" stroke="url(#paint72_linear_168_7408)" stroke-width="1.5625" stroke-linecap="round" stroke-linejoin="round"/>
</g>
<g opacity="0.2">
<path d="M250.032 64.0309C251.008 65.652 253.048 67.6803 257.222 69.7545" stroke="url(#paint73_linear_168_7408)" stroke-width="1.5625" stroke-linecap="round" stroke-linejoin="round"/>
</g>
<g opacity="0.2">
<path d="M250.032 64.0309C251.008 65.652 253.048 67.6803 257.222 69.7545" stroke="url(#paint74_linear_168_7408)" stroke-width="1.5625" stroke-linecap="round" stroke-linejoin="round"/>
</g>
<g opacity="0.2">
<path d="M250.032 64.0309C251.008 65.652 253.048 67.6803 257.222 69.7545" stroke="url(#paint75_linear_168_7408)" stroke-width="1.5625" stroke-linecap="round" stroke-linejoin="round"/>
</g>
<path d="M250.032 64.0309C251.008 65.652 253.048 67.6803 257.222 69.7545" stroke="url(#paint76_linear_168_7408)" stroke-width="1.5625" stroke-linecap="round" stroke-linejoin="round"/>
<path d="M306.093 75.7835C305.93 85.8542 297.634 93.8858 287.563 93.7226C277.492 93.5594 269.461 85.2633 269.624 75.1927C269.787 65.1221 278.083 57.0904 288.154 57.2536C298.225 57.4168 306.256 65.7129 306.093 75.7835Z" fill="url(#paint77_radial_168_7408)"/>
<path d="M288.225 67.6258C288.225 67.6258 287.512 75.4904 290.766 75.8596C290.766 75.8596 287.53 74.9937 286.579 83.3735C286.579 83.3735 287.262 75.5117 284.387 75.1855C284.387 75.1855 287.389 74.9941 288.225 67.6258Z" fill="white"/>
<path d="M310.814 65.7732C310.814 65.7732 315.919 67.9784 319.672 65.9711C319.672 65.9711 324.226 50.858 320.404 42.5287C316.582 34.1993 309.948 29.2751 303.995 28.7486C303.995 28.7486 295.501 34.8612 293.064 45.8324C293.064 45.8324 293.81 48.4496 297.201 48.7599C297.201 48.7599 300.647 36.1154 305.977 35.7519C305.977 35.7519 312.447 44.3819 307.86 62.4835C307.86 62.4835 308.742 65.4388 310.814 65.7732Z" fill="url(#paint78_linear_168_7408)"/>
<path d="M294.135 44.2071C294.135 44.2071 292.41 47.5868 295.515 48.237C295.515 48.237 297.365 38.1267 303.785 33.194C303.785 33.194 309.188 38.9715 309.452 47.1456C309.716 55.3197 307.97 62.7603 307.97 62.7603C307.97 62.7603 308.242 65.1747 310.814 65.7732C310.814 65.7732 313.601 58.4609 313.044 48.745C312.311 35.9491 306.055 30.4721 303.606 29.077C303.606 29.077 297.562 32.3801 294.135 44.2071Z" fill="url(#paint79_linear_168_7408)"/>
<path d="M297.265 48.6429C297.265 48.6429 305.018 51.2109 307.972 60.1868C307.972 60.1868 313.213 46.3805 305.49 35.6717C305.49 35.6717 299.469 37.9681 297.265 48.6429Z" fill="url(#paint80_linear_168_7408)"/>
<path d="M312.499 43.2703C312.499 43.2703 313.61 50.5473 312.418 57.1158C311.225 63.6844 310.594 65.7481 310.594 65.7481C310.594 65.7481 317 67.7165 318.28 65.6272C318.28 65.6272 322.876 55.323 319.157 44.7706C315.438 34.2182 310.689 35.3679 312.499 43.2703Z" fill="url(#paint81_linear_168_7408)"/>
<path d="M293.282 45.7079C293.282 45.7079 297.595 32.6406 303.995 28.7486C303.995 28.7486 317.337 31.1476 321.364 46.3618C324.141 56.857 319.982 65.9444 319.982 65.9444" stroke="#77004A" stroke-width="1.5625" stroke-linecap="round" stroke-linejoin="round"/>
<path d="M303.995 28.7485C303.995 28.7485 317.337 31.1475 321.364 46.3618C324.141 56.8569 319.982 65.9443 319.982 65.9443" stroke="#510032" stroke-width="1.5625" stroke-linecap="round" stroke-linejoin="round"/>
<g opacity="0.43">
<path d="M306.254 33.0369C308.689 36.045 311.158 41.2769 311.569 48.539" stroke="white" stroke-width="1.5625" stroke-linecap="round" stroke-linejoin="round"/>
</g>
<g opacity="0.43">
<path d="M311.562 52.9747C311.443 55.0417 311.161 57.2405 310.681 59.5676" stroke="white" stroke-width="1.5625" stroke-linecap="round" stroke-linejoin="round"/>
</g>
<path d="M305.304 35.6009C299.544 37.778 297.28 48.5452 297.28 48.5452" stroke="#77004A" stroke-width="1.5625" stroke-linecap="round" stroke-linejoin="round"/>
<path d="M303.348 33.1444C303.348 33.1444 313.173 39.7714 308.119 61.9913" stroke="#77004A" stroke-width="1.5625" stroke-linecap="round" stroke-linejoin="round"/>
</g>
<mask id="mask8_168_7408" style="mask-type:luminance" maskUnits="userSpaceOnUse" x="332" y="37" width="120" height="119">
<path d="M451.022 58.2621L353.284 37.1125L332.135 134.85L429.873 156L451.022 58.2621Z" fill="white"/>
</mask>
<g mask="url(#mask8_168_7408)">
<path d="M399.006 74.5076C395.844 71.4013 386.37 69.8756 374.678 75.5872C364.667 80.4778 353.614 92.3902 353.434 109.72C353.343 118.473 357.965 125.378 362.65 128.76C365.25 130.637 367.868 131.429 369.713 130.85L399.006 74.5076Z" fill="url(#paint82_radial_168_7408)"/>
<g opacity="0.81">
<path d="M398.946 74.783C395.782 71.6878 386.308 70.1598 374.625 75.834C364.621 80.6927 353.582 92.5403 353.419 109.791C353.336 118.504 357.964 125.383 362.652 128.755C365.252 130.625 367.871 131.416 369.714 130.842L398.946 74.783Z" fill="url(#paint83_linear_168_7408)"/>
</g>
<g opacity="0.7">
<path d="M398.946 74.783C395.782 71.6878 386.308 70.1598 374.625 75.834C364.621 80.6927 353.582 92.5403 353.419 109.791C353.336 118.504 357.964 125.383 362.652 128.755C365.252 130.625 367.871 131.416 369.714 130.842L398.946 74.783Z" fill="url(#paint84_radial_168_7408)"/>
</g>
<g opacity="0.5">
<path d="M378.733 113.425L369.611 130.935C368.029 131.429 365.876 130.917 363.654 129.579C359.36 126.993 354.808 121.323 353.617 113.872L353.62 113.87C357.917 126.632 365.969 128.219 365.969 128.219C365.969 128.219 363.369 120.053 366.609 109.723C368.566 103.485 373.876 107.503 378.733 113.425Z" fill="url(#paint85_linear_168_7408)"/>
</g>
<path d="M381.005 101.053C373.76 111.733 363.551 117.449 358.203 113.82C352.856 110.191 354.393 98.591 361.639 87.9107C368.884 77.2304 379.092 71.5143 384.44 75.1434C389.788 78.7725 388.25 90.3725 381.005 101.053Z" fill="url(#paint86_radial_168_7408)"/>
<g opacity="0.5">
<path d="M367.392 84.0824C368.751 84.8351 367.572 89.5839 364.759 94.6892C361.946 99.7944 358.565 103.323 357.206 102.57C355.848 101.818 357.027 97.0688 359.839 91.9636C362.652 86.8583 366.034 83.3298 367.392 84.0824Z" fill="url(#paint87_radial_168_7408)"/>
</g>
<g opacity="0.5">
<path d="M372.382 79.2556C373.537 79.8499 371.218 86.6582 367.202 94.4624C363.187 102.267 358.995 108.111 357.84 107.517C356.685 106.923 359.004 100.114 363.02 92.31C367.035 84.5058 371.227 78.6612 372.382 79.2556Z" fill="url(#paint88_radial_168_7408)"/>
</g>
<g opacity="0.3">
<path d="M397.374 75.2621C395.908 73.7608 386.77 70.1118 371.923 78.8712C356.745 87.8264 352.336 106.171 354.967 118.236" stroke="url(#paint89_linear_168_7408)" stroke-width="1.5625" stroke-miterlimit="10"/>
</g>
<path d="M404.231 86.1053C403.675 81.2888 402.157 77.6631 398.994 74.5646C395.83 71.4661 386.356 69.9389 374.67 75.6238C364.664 80.4917 353.621 92.3584 353.453 109.632C353.352 120.036 359.747 127.588 365.219 129.998C366.882 130.73 368.459 130.987 369.744 130.706C376.412 129.244 378.373 123.874 379.027 117.62" stroke="url(#paint90_linear_168_7408)" stroke-width="1.5625" stroke-linecap="round" stroke-linejoin="round"/>
<path d="M391.814 78.9538C389.434 80.8401 388.742 78.7205 384.976 80.4093C381.39 82.0174 372.053 86.9334 367.572 105.721C362.442 127.223 371.91 139.037 386.717 140.203C389.442 140.418 392.303 140.212 395.182 139.596C406.499 137.172 418.08 128.395 422.699 113.841C428.492 95.5852 421.009 76.9307 407.951 74.0889C401.113 72.6009 396.73 75.0557 391.814 78.9538Z" fill="url(#paint91_radial_168_7408)"/>
<path d="M391.814 78.9538C389.434 80.8401 388.742 78.7205 384.976 80.4093C381.39 82.0174 372.053 86.9334 367.572 105.721C362.442 127.223 371.91 139.037 386.717 140.203C389.442 140.418 392.303 140.212 395.182 139.596C406.499 137.172 418.08 128.395 422.699 113.841C428.492 95.5852 421.009 76.9307 407.951 74.0889C401.113 72.6009 396.73 75.0557 391.814 78.9538Z" fill="url(#paint92_linear_168_7408)"/>
<g opacity="0.81">
<path d="M391.814 78.9538C389.434 80.8401 388.742 78.7205 384.976 80.4093C381.39 82.0174 372.053 86.9334 367.572 105.721C362.442 127.223 371.91 139.037 386.717 140.203C389.442 140.418 392.303 140.212 395.182 139.596C406.499 137.172 418.08 128.395 422.699 113.841C428.492 95.5852 421.009 76.9307 407.951 74.0889C401.113 72.6009 396.73 75.0557 391.814 78.9538Z" fill="url(#paint93_linear_168_7408)"/>
</g>
<path d="M418.237 102.809C420.805 114.14 410.949 126.029 396.225 129.363C381.5 132.697 367.482 126.214 364.914 114.883C362.346 103.552 372.201 91.6638 386.926 88.3295C401.651 84.9953 415.669 91.478 418.237 102.809Z" fill="url(#paint94_radial_168_7408)"/>
<g opacity="0.5">
<path d="M422.699 113.84C416.905 132.096 400.16 141.262 386.716 140.203C384.012 139.99 381.486 139.422 379.195 138.505C372.257 135.727 367.469 129.747 366.395 120.727C382.48 150.315 421.345 129.714 424.368 106.222C424.057 108.741 423.508 111.294 422.699 113.84Z" fill="url(#paint95_linear_168_7408)"/>
</g>
<path d="M391.814 78.9538C389.434 80.8401 388.742 78.7205 384.976 80.4093C381.39 82.0174 372.053 86.9334 367.572 105.721C362.442 127.223 371.91 139.037 386.717 140.203C389.442 140.418 392.303 140.212 395.182 139.596C406.499 137.172 418.08 128.395 422.699 113.841C428.492 95.5852 421.009 76.9307 407.951 74.0889C401.113 72.6009 396.73 75.0557 391.814 78.9538Z" stroke="url(#paint96_linear_168_7408)" stroke-width="1.5625" stroke-linecap="round" stroke-linejoin="round"/>
<path d="M391.814 78.9538C389.434 80.8401 388.742 78.7205 384.976 80.4093C381.39 82.0174 372.053 86.9334 367.572 105.721C362.442 127.223 371.91 139.037 386.717 140.203C389.442 140.418 392.303 140.212 395.182 139.596C406.499 137.172 418.08 128.395 422.699 113.841C428.492 95.5852 421.009 76.9307 407.951 74.0889C401.113 72.6009 396.73 75.0557 391.814 78.9538Z" stroke="url(#paint97_linear_168_7408)" stroke-width="1.5625" stroke-linecap="round" stroke-linejoin="round"/>
</g>
<defs>
<linearGradient id="paint0_linear_168_7408" x1="-29.9555" y1="79.7824" x2="-14.2841" y2="104.458" gradientUnits="userSpaceOnUse">
<stop stop-color="#B87032"/>
<stop offset="0.15" stop-color="#C88E57"/>
<stop offset="0.31" stop-color="#D8AC7D"/>
<stop offset="0.43" stop-color="#CF9D6A"/>
<stop offset="0.55" stop-color="#C58E57"/>
<stop offset="0.71" stop-color="#976B3F"/>
<stop offset="0.87" stop-color="#6A4727"/>
<stop offset="0.93" stop-color="#7E542F"/>
<stop offset="1" stop-color="#936237"/>
</linearGradient>
<linearGradient id="paint1_linear_168_7408" x1="-17.483" y1="78.0233" x2="-1.99968" y2="102.425" gradientUnits="userSpaceOnUse">
<stop stop-color="#7F4C1A"/>
<stop offset="0.11" stop-color="#A27444"/>
<stop offset="0.22" stop-color="#C69C6D"/>
<stop offset="0.46" stop-color="#9E7448"/>
<stop offset="0.69" stop-color="#754C24"/>
<stop offset="0.85" stop-color="#7A4C1F"/>
<stop offset="1" stop-color="#7F4C1A"/>
</linearGradient>
<linearGradient id="paint2_linear_168_7408" x1="-10.8187" y1="76.1331" x2="3.00337" y2="97.9165" gradientUnits="userSpaceOnUse">
<stop stop-color="#7F4C1A"/>
<stop offset="0.11" stop-color="#A27444"/>
<stop offset="0.22" stop-color="#C69C6D"/>
<stop offset="0.46" stop-color="#9E7448"/>
<stop offset="0.69" stop-color="#754C24"/>
<stop offset="0.85" stop-color="#7A4C1F"/>
<stop offset="1" stop-color="#7F4C1A"/>
</linearGradient>
<linearGradient id="paint3_linear_168_7408" x1="-22.8113" y1="69.8869" x2="-6.45134" y2="95.6463" gradientUnits="userSpaceOnUse">
<stop stop-color="#E6E6E6"/>
<stop offset="0.1" stop-color="#F3F3F3"/>
<stop offset="0.2" stop-color="white"/>
<stop offset="0.6" stop-color="#D9D9D9"/>
<stop offset="1" stop-color="#B3B3B3"/>
</linearGradient>
<linearGradient id="paint4_linear_168_7408" x1="-18.7544" y1="76.7464" x2="-1.9866" y2="103.172" gradientUnits="userSpaceOnUse">
<stop stop-color="#808080"/>
<stop offset="0.1" stop-color="#9A9A9A"/>
<stop offset="0.2" stop-color="#B3B3B3"/>
<stop offset="0.52" stop-color="#846F5A"/>
<stop offset="0.85" stop-color="#542C00"/>
<stop offset="0.93" stop-color="#875D2F"/>
<stop offset="1" stop-color="#BA8E5E"/>
</linearGradient>
<linearGradient id="paint5_linear_168_7408" x1="-21.2179" y1="68.0757" x2="-5.58697" y2="92.6874" gradientUnits="userSpaceOnUse">
<stop stop-color="#EBBC00"/>
<stop offset="0.07" stop-color="#F5DE80"/>
<stop offset="0.14" stop-color="white"/>
<stop offset="0.19" stop-color="white"/>
<stop offset="0.24" stop-color="white"/>
<stop offset="0.26" stop-color="#FFEAA2"/>
<stop offset="0.29" stop-color="#FFD446"/>
<stop offset="0.51" stop-color="#E4BA23"/>
<stop offset="0.74" stop-color="#C9A100"/>
<stop offset="0.75" stop-color="#E4C400"/>
<stop offset="0.76" stop-color="#FFE600"/>
<stop offset="0.88" stop-color="#F6D600"/>
<stop offset="1" stop-color="#EDC600"/>
</linearGradient>
<linearGradient id="paint6_linear_168_7408" x1="-21.9284" y1="69.3373" x2="-5.56853" y2="95.0966" gradientUnits="userSpaceOnUse">
<stop stop-color="#E6E6E6"/>
<stop offset="0.1" stop-color="#F3F3F3"/>
<stop offset="0.2" stop-color="white"/>
<stop offset="0.6" stop-color="#D9D9D9"/>
<stop offset="1" stop-color="#B3B3B3"/>
</linearGradient>
<radialGradient id="paint7_radial_168_7408" cx="0" cy="0" r="1" gradientUnits="userSpaceOnUse" gradientTransform="translate(78.9077 87.4016) rotate(-6.47) scale(27.9914)">
<stop stop-color="white"/>
<stop offset="0.4" stop-color="#BABABA"/>
<stop offset="0.8" stop-color="#757575"/>
<stop offset="0.9" stop-color="#989898"/>
<stop offset="1" stop-color="#BCBCBC"/>
</radialGradient>
<radialGradient id="paint8_radial_168_7408" cx="0" cy="0" r="1" gradientUnits="userSpaceOnUse" gradientTransform="translate(63.182 86.4799) rotate(-6.47) scale(13.4596 13.4596)">
<stop stop-color="white"/>
<stop offset="0.5" stop-color="white" stop-opacity="0.5"/>
<stop offset="1" stop-color="white" stop-opacity="0"/>
</radialGradient>
<radialGradient id="paint9_radial_168_7408" cx="0" cy="0" r="1" gradientUnits="userSpaceOnUse" gradientTransform="translate(70.4306 49.0501) rotate(-6.47) scale(52.2508 52.2508)">
<stop offset="0.44" stop-color="#F7DA6F"/>
<stop offset="0.7" stop-color="#DEAF4F"/>
<stop offset="0.92" stop-color="#C4852E"/>
</radialGradient>
<radialGradient id="paint10_radial_168_7408" cx="0" cy="0" r="1" gradientUnits="userSpaceOnUse" gradientTransform="translate(48.0834 48.5875) rotate(-6.47) scale(24.8811 24.8811)">
<stop stop-color="white"/>
<stop offset="0.25" stop-color="#FDF8CE"/>
<stop offset="0.55" stop-color="#FCF19C"/>
<stop offset="0.7" stop-color="#F9DF84" stop-opacity="0.5"/>
<stop offset="0.89" stop-color="#F5CD6B" stop-opacity="0"/>
</radialGradient>
<radialGradient id="paint11_radial_168_7408" cx="0" cy="0" r="1" gradientUnits="userSpaceOnUse" gradientTransform="translate(93.0637 86.6248) rotate(-6.47) scale(10.4122)">
<stop stop-color="#FFEF76"/>
<stop offset="0.5" stop-color="#FFEF76" stop-opacity="0.5"/>
<stop offset="1" stop-color="#FFEF76" stop-opacity="0"/>
</radialGradient>
<radialGradient id="paint12_radial_168_7408" cx="0" cy="0" r="1" gradientUnits="userSpaceOnUse" gradientTransform="translate(100.614 42.6303) rotate(-6.47) scale(24.8738 24.8738)">
<stop stop-color="white"/>
<stop offset="0.25" stop-color="#FDF8CE"/>
<stop offset="0.55" stop-color="#FCF19C"/>
<stop offset="0.7" stop-color="#F9DF84" stop-opacity="0.5"/>
<stop offset="0.89" stop-color="#F5CD6B" stop-opacity="0"/>
</radialGradient>
<radialGradient id="paint13_radial_168_7408" cx="0" cy="0" r="1" gradientUnits="userSpaceOnUse" gradientTransform="translate(73.8882 43.1603) rotate(-6.47) scale(34.6852 34.6852)">
<stop offset="0.44" stop-color="#F7DA6F"/>
<stop offset="0.7" stop-color="#DEAF4F"/>
<stop offset="0.92" stop-color="#C4852E"/>
</radialGradient>
<linearGradient id="paint14_linear_168_7408" x1="76.155" y1="60.367" x2="73.2695" y2="35.5674" gradientUnits="userSpaceOnUse">
<stop stop-color="#955B1E"/>
<stop offset="0.69" stop-color="#BE8236"/>
<stop offset="1" stop-color="#E8A94E"/>
</linearGradient>
<linearGradient id="paint15_linear_168_7408" x1="111.982" y1="92.9142" x2="61.8537" y2="85.941" gradientUnits="userSpaceOnUse">
<stop stop-color="#D9BA69"/>
<stop offset="0.46" stop-color="#BA9146"/>
<stop offset="1" stop-color="#9B6723"/>
</linearGradient>
<linearGradient id="paint16_linear_168_7408" x1="77.4863" y1="73.4686" x2="75.1771" y2="56.1901" gradientUnits="userSpaceOnUse">
<stop offset="0.01" stop-color="white" stop-opacity="0"/>
<stop offset="0.31" stop-color="white" stop-opacity="0.5"/>
<stop offset="1" stop-color="white"/>
</linearGradient>
<linearGradient id="paint17_linear_168_7408" x1="77.4863" y1="73.4686" x2="75.1771" y2="56.1901" gradientUnits="userSpaceOnUse">
<stop stop-color="#F8F6AC"/>
<stop offset="0.69" stop-color="#F8F6AC"/>
<stop offset="1" stop-color="#F8F6AC"/>
</linearGradient>
<linearGradient id="paint18_linear_168_7408" x1="78.9195" y1="86.1065" x2="80.9909" y2="100.895" gradientUnits="userSpaceOnUse">
<stop offset="0.01" stop-color="white" stop-opacity="0"/>
<stop offset="0.31" stop-color="white" stop-opacity="0.5"/>
<stop offset="1" stop-color="white"/>
</linearGradient>
<linearGradient id="paint19_linear_168_7408" x1="78.9195" y1="86.1065" x2="80.9909" y2="100.895" gradientUnits="userSpaceOnUse">
<stop stop-color="#F8F6AC"/>
<stop offset="0.69" stop-color="#F8F6AC"/>
<stop offset="1" stop-color="#F8F6AC"/>
</linearGradient>
<linearGradient id="paint20_linear_168_7408" x1="81.4605" y1="52.7133" x2="70.1387" y2="39.6571" gradientUnits="userSpaceOnUse">
<stop stop-color="white"/>
<stop offset="0.24" stop-color="#FDF8CE"/>
<stop offset="0.49" stop-color="#FCF19C"/>
<stop offset="0.69" stop-color="#E8C768"/>
<stop offset="0.9" stop-color="#D49E33"/>
</linearGradient>
<radialGradient id="paint21_radial_168_7408" cx="0" cy="0" r="1" gradientUnits="userSpaceOnUse" gradientTransform="translate(73.2196 42.4437) rotate(-6.47) scale(8.54863)">
<stop offset="0.44" stop-color="#CA8F31"/>
<stop offset="0.7" stop-color="#BD8128"/>
<stop offset="0.92" stop-color="#B0721F"/>
</radialGradient>
<linearGradient id="paint22_linear_168_7408" x1="70.1773" y1="38.5711" x2="78.2676" y2="51.9727" gradientUnits="userSpaceOnUse">
<stop stop-color="white"/>
<stop offset="0.21" stop-color="#FDF8CE"/>
<stop offset="0.42" stop-color="#FCF19C"/>
<stop offset="0.67" stop-color="#E5AB4E"/>
<stop offset="0.92" stop-color="#CF6400"/>
</linearGradient>
<linearGradient id="paint23_linear_168_7408" x1="142.946" y1="81.7167" x2="208.466" y2="81.7167" gradientUnits="userSpaceOnUse">
<stop stop-color="#B3FFF7"/>
<stop offset="0.06" stop-color="#9AECE3"/>
<stop offset="0.12" stop-color="#80D8CF"/>
<stop offset="0.4" stop-color="#62D8CB"/>
<stop offset="0.68" stop-color="#45D8C8"/>
<stop offset="0.74" stop-color="#229E9F"/>
<stop offset="0.81" stop-color="#006375"/>
<stop offset="0.9" stop-color="#2F8287"/>
<stop offset="1" stop-color="#5FA19A"/>
</linearGradient>
<linearGradient id="paint24_linear_168_7408" x1="141.246" y1="91.1914" x2="211.555" y2="91.1914" gradientUnits="userSpaceOnUse">
<stop stop-color="#00AAB7" stop-opacity="0.4"/>
<stop offset="0.32" stop-color="#14B0B5" stop-opacity="0.7"/>
<stop offset="0.65" stop-color="#29B6B3"/>
<stop offset="0.69" stop-color="#14929D"/>
<stop offset="0.73" stop-color="#006E87"/>
<stop offset="0.86" stop-color="#135D6C"/>
<stop offset="1" stop-color="#254C50"/>
</linearGradient>
<linearGradient id="paint25_linear_168_7408" x1="143.502" y1="67.2793" x2="200.875" y2="76.8611" gradientUnits="userSpaceOnUse">
<stop stop-color="#80D8CF"/>
<stop offset="0.36" stop-color="#409EA2"/>
<stop offset="0.72" stop-color="#006375"/>
<stop offset="0.86" stop-color="#005F70"/>
<stop offset="1" stop-color="#005B6B"/>
</linearGradient>
<linearGradient id="paint26_linear_168_7408" x1="173.956" y1="82.8446" x2="178.047" y2="58.9666" gradientUnits="userSpaceOnUse">
<stop stop-color="#62555C"/>
<stop offset="0.5" stop-color="#312B2E"/>
<stop offset="1"/>
</linearGradient>
<radialGradient id="paint27_radial_168_7408" cx="0" cy="0" r="1" gradientUnits="userSpaceOnUse" gradientTransform="translate(162.808 82.8691) scale(12.3225 12.3225)">
<stop stop-color="#999999"/>
<stop offset="0.5" stop-color="#999999" stop-opacity="0.5"/>
<stop offset="1" stop-color="#999999" stop-opacity="0"/>
</radialGradient>
<linearGradient id="paint28_linear_168_7408" x1="186.363" y1="16.0712" x2="187.843" y2="49.6463" gradientUnits="userSpaceOnUse">
<stop/>
<stop offset="0.5" stop-color="#2A2225"/>
<stop offset="1" stop-color="#53454B"/>
</linearGradient>
<linearGradient id="paint29_linear_168_7408" x1="166.286" y1="30.7344" x2="215.679" y2="30.7344" gradientUnits="userSpaceOnUse">
<stop offset="0.01"/>
<stop offset="0.51" stop-color="#2A2225" stop-opacity="0.5"/>
<stop offset="1" stop-color="#53454B" stop-opacity="0"/>
</linearGradient>
<linearGradient id="paint30_linear_168_7408" x1="171.587" y1="1.89768" x2="216.144" y2="27.8965" gradientUnits="userSpaceOnUse">
<stop stop-color="#B3FFF7"/>
<stop offset="0.06" stop-color="#9AECE3"/>
<stop offset="0.12" stop-color="#80D8CF"/>
<stop offset="0.4" stop-color="#62D8CB"/>
<stop offset="0.68" stop-color="#45D8C8"/>
<stop offset="0.74" stop-color="#229E9F"/>
<stop offset="0.81" stop-color="#006375"/>
<stop offset="0.9" stop-color="#2F8287"/>
<stop offset="1" stop-color="#5FA19A"/>
</linearGradient>
<linearGradient id="paint31_linear_168_7408" x1="192.454" y1="3.88965" x2="192.454" y2="50.8918" gradientUnits="userSpaceOnUse">
<stop stop-color="#00AAB7" stop-opacity="0.4"/>
<stop offset="0.06" stop-color="#14B0B5" stop-opacity="0.7"/>
<stop offset="0.11" stop-color="#29B6B3"/>
<stop offset="0.17" stop-color="#14929D"/>
<stop offset="0.24" stop-color="#006E87"/>
<stop offset="0.62" stop-color="#135D6C"/>
<stop offset="1" stop-color="#254C50"/>
</linearGradient>
<linearGradient id="paint32_linear_168_7408" x1="186.04" y1="49.0474" x2="184.153" y2="62.6685" gradientUnits="userSpaceOnUse">
<stop stop-color="#403B3E"/>
<stop offset="0.19" stop-color="#575058"/>
<stop offset="0.38" stop-color="#6F6473"/>
<stop offset="0.61" stop-color="#585159"/>
<stop offset="0.85" stop-color="#423D3F"/>
<stop offset="0.93" stop-color="#4A4145" stop-opacity="0.5"/>
<stop offset="1" stop-color="#53454B" stop-opacity="0"/>
</linearGradient>
<linearGradient id="paint33_linear_168_7408" x1="162" y1="55.7743" x2="210.35" y2="55.7743" gradientUnits="userSpaceOnUse">
<stop stop-color="#443E41"/>
<stop offset="0.24" stop-color="#4A4146"/>
<stop offset="0.48" stop-color="#51444A"/>
<stop offset="0.74" stop-color="#292225"/>
<stop offset="1"/>
</linearGradient>
<radialGradient id="paint34_radial_168_7408" cx="0" cy="0" r="1" gradientUnits="userSpaceOnUse" gradientTransform="translate(177.466 61.5953) scale(16.7852)">
<stop stop-color="white"/>
<stop offset="0.26" stop-color="#DEF6F3"/>
<stop offset="0.51" stop-color="#BDECE7"/>
<stop offset="0.71" stop-color="#78908D"/>
<stop offset="0.91" stop-color="#333333"/>
<stop offset="0.92" stop-color="#4D4D4D"/>
<stop offset="0.93" stop-color="#676767"/>
<stop offset="0.96" stop-color="#9C9C9C"/>
<stop offset="1" stop-color="#D1D1D1"/>
</radialGradient>
<radialGradient id="paint35_radial_168_7408" cx="0" cy="0" r="1" gradientUnits="userSpaceOnUse" gradientTransform="translate(176.888 58.2557) scale(16.8792)">
<stop stop-color="#076878"/>
<stop offset="0.35" stop-color="#77A7AF"/>
<stop offset="0.7" stop-color="#E6E6E6"/>
<stop offset="0.85" stop-color="#A89FA4"/>
<stop offset="1" stop-color="#695762"/>
</radialGradient>
<linearGradient id="paint36_linear_168_7408" x1="171.474" y1="66.6024" x2="171.474" y2="47.1124" gradientUnits="userSpaceOnUse">
<stop stop-color="#006A68"/>
<stop offset="0.5" stop-color="#003534"/>
<stop offset="1"/>
</linearGradient>
<linearGradient id="paint37_linear_168_7408" x1="171.14" y1="45.6072" x2="182.463" y2="45.5912" gradientUnits="userSpaceOnUse">
<stop stop-color="white"/>
<stop offset="0.09" stop-color="#F3F3F3"/>
<stop offset="0.18" stop-color="#E6E6E6"/>
<stop offset="0.22" stop-color="#C6C6C6"/>
<stop offset="0.25" stop-color="#A5A5A5"/>
<stop offset="0.46" stop-color="#D2D2D2"/>
<stop offset="0.67" stop-color="white"/>
<stop offset="0.72" stop-color="#8D8D8D"/>
<stop offset="0.77" stop-color="#1A1A1A"/>
<stop offset="0.89" stop-color="#4D4D4D"/>
<stop offset="1" stop-color="#808080"/>
</linearGradient>
<linearGradient id="paint38_linear_168_7408" x1="174.181" y1="73.37" x2="173.557" y2="76.9604" gradientUnits="userSpaceOnUse">
<stop stop-color="#3E393C"/>
<stop offset="0.09" stop-color="#3E393C"/>
<stop offset="0.19" stop-color="#3E393C"/>
<stop offset="0.6" stop-color="#433D40" stop-opacity="0.5"/>
<stop offset="1" stop-color="#474144" stop-opacity="0"/>
</linearGradient>
<linearGradient id="paint39_linear_168_7408" x1="274.345" y1="34.6185" x2="302.732" y2="37.8395" gradientUnits="userSpaceOnUse">
<stop stop-color="#E82DA1"/>
<stop offset="0.5" stop-color="#C91688"/>
<stop offset="1" stop-color="#AB0070"/>
</linearGradient>
<linearGradient id="paint40_linear_168_7408" x1="277.428" y1="35.1648" x2="289.129" y2="52.0802" gradientUnits="userSpaceOnUse">
<stop stop-color="white" stop-opacity="0.7"/>
<stop offset="0.41" stop-color="white" stop-opacity="0.35"/>
<stop offset="0.95" stop-color="white" stop-opacity="0"/>
</linearGradient>
<linearGradient id="paint41_linear_168_7408" x1="278.915" y1="35.9233" x2="285.975" y2="36.7244" gradientUnits="userSpaceOnUse">
<stop stop-color="#480444"/>
<stop offset="0.5" stop-color="#330231"/>
<stop offset="1" stop-color="#1E001E"/>
</linearGradient>
<linearGradient id="paint42_linear_168_7408" x1="296.16" y1="46.6235" x2="293.27" y2="31.5619" gradientUnits="userSpaceOnUse">
<stop offset="0.29" stop-color="#8D005D"/>
<stop offset="0.71" stop-color="#8C0057" stop-opacity="0.6"/>
<stop offset="1" stop-color="#8B0052" stop-opacity="0.2"/>
</linearGradient>
<linearGradient id="paint43_linear_168_7408" x1="250.12" y1="73.1484" x2="318.723" y2="80.9326" gradientUnits="userSpaceOnUse">
<stop stop-color="#E82DA1"/>
<stop offset="0.5" stop-color="#C91688"/>
<stop offset="1" stop-color="#AB0070"/>
</linearGradient>
<linearGradient id="paint44_linear_168_7408" x1="339.05" y1="91.4511" x2="307.63" y2="79.299" gradientUnits="userSpaceOnUse">
<stop offset="0.19" stop-color="#AB0070" stop-opacity="0"/>
<stop offset="0.65" stop-color="#AB006F" stop-opacity="0.5"/>
<stop offset="1" stop-color="#AA006F"/>
</linearGradient>
<linearGradient id="paint45_linear_168_7408" x1="307.157" y1="97.1147" x2="279.294" y2="100.434" gradientUnits="userSpaceOnUse">
<stop offset="0.19" stop-color="#AB0070" stop-opacity="0"/>
<stop offset="0.65" stop-color="#AB006F" stop-opacity="0.5"/>
<stop offset="1" stop-color="#AA006F"/>
</linearGradient>
<linearGradient id="paint46_linear_168_7408" x1="279.037" y1="57.3627" x2="274.564" y2="41.5568" gradientUnits="userSpaceOnUse">
<stop stop-color="white" stop-opacity="0"/>
<stop offset="0.48" stop-color="white" stop-opacity="0.5"/>
<stop offset="1" stop-color="white"/>
</linearGradient>
<radialGradient id="paint47_radial_168_7408" cx="0" cy="0" r="1" gradientUnits="userSpaceOnUse" gradientTransform="translate(278.692 54.9717) rotate(6.47357) scale(17.2344)">
<stop stop-color="white" stop-opacity="0.8"/>
<stop offset="0.65" stop-color="white" stop-opacity="0.4"/>
<stop offset="1" stop-color="white" stop-opacity="0"/>
</radialGradient>
<linearGradient id="paint48_linear_168_7408" x1="299.618" y1="92.5246" x2="304.858" y2="98.9334" gradientUnits="userSpaceOnUse">
<stop offset="0.52" stop-color="#8D005D"/>
<stop offset="0.8" stop-color="#8C0057" stop-opacity="0.6"/>
<stop offset="1" stop-color="#8B0052" stop-opacity="0.2"/>
</linearGradient>
<radialGradient id="paint49_radial_168_7408" cx="0" cy="0" r="1" gradientUnits="userSpaceOnUse" gradientTransform="translate(266.243 59.2526) rotate(6.47357) scale(13.1029)">
<stop stop-color="white" stop-opacity="0.7"/>
<stop offset="0.65" stop-color="white" stop-opacity="0.35"/>
<stop offset="1" stop-color="white" stop-opacity="0"/>
</radialGradient>
<linearGradient id="paint50_linear_168_7408" x1="279.295" y1="94.9362" x2="280.352" y2="71.6172" gradientUnits="userSpaceOnUse">
<stop stop-color="#250B10"/>
<stop offset="0.68" stop-color="#371728"/>
<stop offset="1" stop-color="#482340"/>
</linearGradient>
<linearGradient id="paint51_linear_168_7408" x1="253.923" y1="79.4772" x2="268.821" y2="81.1676" gradientUnits="userSpaceOnUse">
<stop stop-color="#664C64"/>
<stop offset="0.49" stop-color="#564055"/>
<stop offset="0.72" stop-color="#473446"/>
</linearGradient>
<linearGradient id="paint52_linear_168_7408" x1="255.385" y1="90.847" x2="264.73" y2="91.9074" gradientUnits="userSpaceOnUse">
<stop stop-color="white" stop-opacity="0.2"/>
<stop offset="0.65" stop-color="white" stop-opacity="0.4"/>
<stop offset="1" stop-color="white" stop-opacity="0.6"/>
</linearGradient>
<linearGradient id="paint53_linear_168_7408" x1="251.336" y1="88.4219" x2="262.816" y2="89.7246" gradientUnits="userSpaceOnUse">
<stop stop-color="white" stop-opacity="0"/>
<stop offset="0.48" stop-color="white" stop-opacity="0.5"/>
<stop offset="1" stop-color="white"/>
</linearGradient>
<linearGradient id="paint54_linear_168_7408" x1="290.192" y1="83.7889" x2="295.982" y2="87.0282" gradientUnits="userSpaceOnUse">
<stop stop-color="#664C64"/>
<stop offset="0.68" stop-color="#564055"/>
<stop offset="1" stop-color="#473446"/>
</linearGradient>
<linearGradient id="paint55_linear_168_7408" x1="249.495" y1="82.1198" x2="306.217" y2="88.5559" gradientUnits="userSpaceOnUse">
<stop offset="0.19" stop-color="#FFA4EE"/>
<stop offset="0.65" stop-color="#E16CC2"/>
<stop offset="1" stop-color="#C43396"/>
</linearGradient>
<linearGradient id="paint56_linear_168_7408" x1="245.988" y1="78.38" x2="306.848" y2="85.2856" gradientUnits="userSpaceOnUse">
<stop stop-color="#161717"/>
<stop offset="0.68" stop-color="#1D1F30"/>
<stop offset="1" stop-color="#242749"/>
</linearGradient>
<linearGradient id="paint57_linear_168_7408" x1="230.261" y1="80.1336" x2="260.047" y2="83.5134" gradientUnits="userSpaceOnUse">
<stop stop-color="white"/>
<stop offset="0.5" stop-color="white" stop-opacity="0.517"/>
<stop offset="0.81" stop-color="white" stop-opacity="0.034"/>
<stop offset="0.87" stop-color="white" stop-opacity="0.017"/>
<stop offset="1" stop-color="white" stop-opacity="0"/>
</linearGradient>
<linearGradient id="paint58_linear_168_7408" x1="260.824" y1="70.6282" x2="241.917" y2="101.601" gradientUnits="userSpaceOnUse">
<stop stop-color="white" stop-opacity="0"/>
<stop offset="0.65" stop-color="white" stop-opacity="0.5"/>
<stop offset="1" stop-color="white"/>
</linearGradient>
<linearGradient id="paint59_linear_168_7408" x1="305.783" y1="69.6212" x2="247.314" y2="85.093" gradientUnits="userSpaceOnUse">
<stop stop-color="#BDF3E4" stop-opacity="0.2"/>
<stop offset="0.5" stop-color="#DE79C4" stop-opacity="0.12"/>
<stop offset="0.81" stop-color="#FF00A3" stop-opacity="0.04"/>
<stop offset="0.87" stop-color="#FF80D1" stop-opacity="0.025"/>
<stop offset="1" stop-color="white" stop-opacity="0.01"/>
</linearGradient>
<linearGradient id="paint60_linear_168_7408" x1="261.135" y1="85.2094" x2="302.413" y2="88.6553" gradientUnits="userSpaceOnUse">
<stop stop-color="white" stop-opacity="0.2"/>
<stop offset="0.65" stop-color="white" stop-opacity="0.4"/>
<stop offset="1" stop-color="white" stop-opacity="0.6"/>
</linearGradient>
<linearGradient id="paint61_linear_168_7408" x1="273.565" y1="124.869" x2="278.872" y2="82.6048" gradientUnits="userSpaceOnUse">
<stop stop-color="#21D6D1"/>
<stop offset="0.68" stop-color="#21D6D1" stop-opacity="0.75"/>
<stop offset="1" stop-color="#21D6D1" stop-opacity="0.5"/>
</linearGradient>
<linearGradient id="paint62_linear_168_7408" x1="256.755" y1="109.086" x2="258.281" y2="120.759" gradientUnits="userSpaceOnUse">
<stop offset="0.29" stop-color="white" stop-opacity="0.5"/>
<stop offset="0.3" stop-color="white"/>
<stop offset="0.45" stop-color="white"/>
<stop offset="0.6" stop-color="white"/>
<stop offset="0.61" stop-color="white" stop-opacity="0"/>
</linearGradient>
<linearGradient id="paint63_linear_168_7408" x1="256.755" y1="109.086" x2="258.281" y2="120.759" gradientUnits="userSpaceOnUse">
<stop stop-color="white"/>
<stop offset="0.5" stop-color="white"/>
<stop offset="1" stop-color="white"/>
</linearGradient>
<linearGradient id="paint64_linear_168_7408" x1="277.326" y1="111.421" x2="278.852" y2="123.093" gradientUnits="userSpaceOnUse">
<stop offset="0.29" stop-color="white" stop-opacity="0.5"/>
<stop offset="0.3" stop-color="white"/>
<stop offset="0.45" stop-color="white"/>
<stop offset="0.6" stop-color="white"/>
<stop offset="0.61" stop-color="white" stop-opacity="0"/>
</linearGradient>
<linearGradient id="paint65_linear_168_7408" x1="277.326" y1="111.421" x2="278.852" y2="123.093" gradientUnits="userSpaceOnUse">
<stop stop-color="white"/>
<stop offset="0.5" stop-color="white"/>
<stop offset="1" stop-color="white"/>
</linearGradient>
<linearGradient id="paint66_linear_168_7408" x1="208.501" y1="11.6186" x2="271.056" y2="18.7167" gradientUnits="userSpaceOnUse">
<stop stop-color="#43FFF1"/>
<stop offset="0.68" stop-color="#32EBE1" stop-opacity="0.75"/>
<stop offset="1" stop-color="#21D6D1" stop-opacity="0.5"/>
</linearGradient>
<linearGradient id="paint67_linear_168_7408" x1="208.501" y1="11.6183" x2="271.056" y2="18.7164" gradientUnits="userSpaceOnUse">
<stop stop-color="#43FFF1"/>
<stop offset="0.68" stop-color="#6CFCF3"/>
<stop offset="1" stop-color="#95F8F6"/>
</linearGradient>
<linearGradient id="paint68_linear_168_7408" x1="208.501" y1="11.6183" x2="271.056" y2="18.7164" gradientUnits="userSpaceOnUse">
<stop stop-color="#43FFF1"/>
<stop offset="0.68" stop-color="#6CFCF3"/>
<stop offset="1" stop-color="#95F8F6"/>
</linearGradient>
<linearGradient id="paint69_linear_168_7408" x1="208.501" y1="11.6183" x2="271.056" y2="18.7164" gradientUnits="userSpaceOnUse">
<stop stop-color="#43FFF1"/>
<stop offset="0.68" stop-color="#6CFCF3"/>
<stop offset="1" stop-color="#95F8F6"/>
</linearGradient>
<linearGradient id="paint70_linear_168_7408" x1="208.501" y1="11.6183" x2="271.056" y2="18.7164" gradientUnits="userSpaceOnUse">
<stop stop-color="#43FFF1"/>
<stop offset="0.68" stop-color="#6CFCF3"/>
<stop offset="1" stop-color="#95F8F6"/>
</linearGradient>
<linearGradient id="paint71_linear_168_7408" x1="208.501" y1="11.6183" x2="271.056" y2="18.7164" gradientUnits="userSpaceOnUse">
<stop stop-color="#43FFF1"/>
<stop offset="0.68" stop-color="#6CFCF3"/>
<stop offset="1" stop-color="#95F8F6"/>
</linearGradient>
<linearGradient id="paint72_linear_168_7408" x1="208.501" y1="11.6184" x2="271.056" y2="18.7164" gradientUnits="userSpaceOnUse">
<stop stop-color="#43FFF1"/>
<stop offset="0.68" stop-color="#6CFCF3"/>
<stop offset="1" stop-color="#95F8F6"/>
</linearGradient>
<linearGradient id="paint73_linear_168_7408" x1="208.501" y1="11.6184" x2="271.056" y2="18.7164" gradientUnits="userSpaceOnUse">
<stop stop-color="#43FFF1"/>
<stop offset="0.68" stop-color="#6CFCF3"/>
<stop offset="1" stop-color="#95F8F6"/>
</linearGradient>
<linearGradient id="paint74_linear_168_7408" x1="208.501" y1="11.6184" x2="271.056" y2="18.7164" gradientUnits="userSpaceOnUse">
<stop stop-color="#43FFF1"/>
<stop offset="0.68" stop-color="#6CFCF3"/>
<stop offset="1" stop-color="#95F8F6"/>
</linearGradient>
<linearGradient id="paint75_linear_168_7408" x1="208.501" y1="11.6184" x2="271.056" y2="18.7164" gradientUnits="userSpaceOnUse">
<stop stop-color="#43FFF1"/>
<stop offset="0.68" stop-color="#6CFCF3"/>
<stop offset="1" stop-color="#95F8F6"/>
</linearGradient>
<linearGradient id="paint76_linear_168_7408" x1="208.501" y1="11.6184" x2="271.056" y2="18.7164" gradientUnits="userSpaceOnUse">
<stop stop-color="#43FFF1"/>
<stop offset="0.68" stop-color="#6CFCF3"/>
<stop offset="1" stop-color="#95F8F6"/>
</linearGradient>
<radialGradient id="paint77_radial_168_7408" cx="0" cy="0" r="1" gradientUnits="userSpaceOnUse" gradientTransform="translate(287.841 75.48) rotate(6.47357) scale(17.9791)">
<stop offset="0.05" stop-color="white"/>
<stop offset="0.33" stop-color="white" stop-opacity="0.5"/>
<stop offset="0.62" stop-color="white" stop-opacity="0"/>
</radialGradient>
<linearGradient id="paint78_linear_168_7408" x1="307.465" y1="38.9661" x2="307.28" y2="64.6826" gradientUnits="userSpaceOnUse">
<stop stop-color="#E82DA1"/>
<stop offset="0.5" stop-color="#C91688"/>
<stop offset="1" stop-color="#AB0070"/>
</linearGradient>
<linearGradient id="paint79_linear_168_7408" x1="302.023" y1="41.8867" x2="319.872" y2="71.0273" gradientUnits="userSpaceOnUse">
<stop stop-color="white" stop-opacity="0.7"/>
<stop offset="0.41" stop-color="white" stop-opacity="0.35"/>
<stop offset="0.95" stop-color="white" stop-opacity="0"/>
</linearGradient>
<linearGradient id="paint80_linear_168_7408" x1="297.022" y1="49.575" x2="314.996" y2="46.1023" gradientUnits="userSpaceOnUse">
<stop stop-color="#480444"/>
<stop offset="0.5" stop-color="#330231"/>
<stop offset="1" stop-color="#1E001E"/>
</linearGradient>
<linearGradient id="paint81_linear_168_7408" x1="315.63" y1="70.9498" x2="315.56" y2="39.9948" gradientUnits="userSpaceOnUse">
<stop offset="0.29" stop-color="#8D005D"/>
<stop offset="0.71" stop-color="#8C0057" stop-opacity="0.6"/>
<stop offset="1" stop-color="#8B0052" stop-opacity="0.2"/>
</linearGradient>
<radialGradient id="paint82_radial_168_7408" cx="0" cy="0" r="1" gradientUnits="userSpaceOnUse" gradientTransform="translate(372.139 85.729) rotate(12.21) scale(25.1656 42.7816)">
<stop offset="0.43" stop-color="#9A95D8"/>
<stop offset="0.66" stop-color="#937EB4"/>
<stop offset="0.87" stop-color="#8C6890"/>
<stop offset="0.94" stop-color="#A2798F"/>
<stop offset="0.98" stop-color="#B9898D"/>
</radialGradient>
<linearGradient id="paint83_linear_168_7408" x1="392.563" y1="87.3911" x2="361.032" y2="110.94" gradientUnits="userSpaceOnUse">
<stop stop-color="#282438"/>
<stop offset="0.63" stop-color="#282338" stop-opacity="0.5"/>
<stop offset="1" stop-color="#272337" stop-opacity="0"/>
</linearGradient>
<radialGradient id="paint84_radial_168_7408" cx="0" cy="0" r="1" gradientUnits="userSpaceOnUse" gradientTransform="translate(387.23 115.728) rotate(12.21) scale(25.9582)">
<stop offset="0.84" stop-color="#282448"/>
<stop offset="0.92" stop-color="#28234E" stop-opacity="0.5"/>
<stop offset="1" stop-color="#272354" stop-opacity="0"/>
</radialGradient>
<linearGradient id="paint85_linear_168_7408" x1="356.929" y1="129.239" x2="363.105" y2="120.087" gradientUnits="userSpaceOnUse">
<stop stop-color="#FFE9CC"/>
<stop offset="0.52" stop-color="#FFECD5" stop-opacity="0.5"/>
<stop offset="1" stop-color="#FFF0DF" stop-opacity="0"/>
</linearGradient>
<radialGradient id="paint86_radial_168_7408" cx="0" cy="0" r="1" gradientUnits="userSpaceOnUse" gradientTransform="translate(371.101 94.8518) rotate(34.21) scale(11.0793 21.724)">
<stop offset="0.55" stop-color="#282438"/>
<stop offset="0.86" stop-color="#282338" stop-opacity="0.5"/>
<stop offset="1" stop-color="#272337" stop-opacity="0"/>
</radialGradient>
<radialGradient id="paint87_radial_168_7408" cx="0" cy="0" r="1" gradientUnits="userSpaceOnUse" gradientTransform="translate(362.325 93.3805) rotate(29.21) scale(2.72795 10.1035)">
<stop stop-color="#F5F1BD"/>
<stop offset="0.58" stop-color="#F5EFBB" stop-opacity="0.5"/>
<stop offset="1" stop-color="#F5EEBA" stop-opacity="0"/>
</radialGradient>
<radialGradient id="paint88_radial_168_7408" cx="0" cy="0" r="1" gradientUnits="userSpaceOnUse" gradientTransform="translate(364.943 93.6688) rotate(27.21) scale(2.07574 13.8383)">
<stop stop-color="#F0AB95"/>
<stop offset="0.58" stop-color="#EFAE96" stop-opacity="0.5"/>
<stop offset="1" stop-color="#EFB197" stop-opacity="0"/>
</radialGradient>
<linearGradient id="paint89_linear_168_7408" x1="369.004" y1="121.46" x2="380.188" y2="69.7758" gradientUnits="userSpaceOnUse">
<stop stop-color="white" stop-opacity="0.2"/>
<stop offset="0.58" stop-color="white" stop-opacity="0.6"/>
<stop offset="1" stop-color="white"/>
</linearGradient>
<linearGradient id="paint90_linear_168_7408" x1="367.237" y1="131.47" x2="380.866" y2="68.4882" gradientUnits="userSpaceOnUse">
<stop offset="0.02" stop-color="#9C6874"/>
<stop offset="0.27" stop-color="#6D4E64"/>
<stop offset="1" stop-color="#3E3355"/>
</linearGradient>
<radialGradient id="paint91_radial_168_7408" cx="0" cy="0" r="1" gradientUnits="userSpaceOnUse" gradientTransform="translate(393.975 103.027) rotate(12.21) scale(35.9271 35.9272)">
<stop offset="0.78" stop-color="#9595C7"/>
<stop offset="0.92" stop-color="#AD87AC"/>
<stop offset="1" stop-color="#C57991"/>
</radialGradient>
<linearGradient id="paint92_linear_168_7408" x1="416.374" y1="83.5512" x2="384.567" y2="119.692" gradientUnits="userSpaceOnUse">
<stop stop-color="#B7BEC5"/>
<stop offset="0.62" stop-color="#919B9B" stop-opacity="0.5"/>
<stop offset="0.98" stop-color="#6B7870" stop-opacity="0"/>
</linearGradient>
<linearGradient id="paint93_linear_168_7408" x1="374.204" y1="92.8107" x2="403.368" y2="112.431" gradientUnits="userSpaceOnUse">
<stop stop-color="#282438"/>
<stop offset="0.63" stop-color="#282338" stop-opacity="0.5"/>
<stop offset="1" stop-color="#272337" stop-opacity="0"/>
</linearGradient>
<radialGradient id="paint94_radial_168_7408" cx="0" cy="0" r="1" gradientUnits="userSpaceOnUse" gradientTransform="translate(391.495 108.831) rotate(-13.79) scale(24.3464 19.0537)">
<stop offset="0.58" stop-color="#373453"/>
<stop offset="0.9" stop-color="#535072" stop-opacity="0.5"/>
<stop offset="1" stop-color="#706C92" stop-opacity="0"/>
</radialGradient>
<linearGradient id="paint95_linear_168_7408" x1="420.931" y1="137.293" x2="390.587" y2="114.258" gradientUnits="userSpaceOnUse">
<stop stop-color="#FFE9CC"/>
<stop offset="0.52" stop-color="#FFECD5" stop-opacity="0.5"/>
<stop offset="1" stop-color="#FFF0DF" stop-opacity="0"/>
</linearGradient>
<linearGradient id="paint96_linear_168_7408" x1="388.266" y1="141.415" x2="403.267" y2="72.0906" gradientUnits="userSpaceOnUse">
<stop offset="0.02" stop-color="#9C6874"/>
<stop offset="0.65" stop-color="#674E71"/>
<stop offset="1" stop-color="#31336E"/>
</linearGradient>
<linearGradient id="paint97_linear_168_7408" x1="369.668" y1="96.2255" x2="422.005" y2="117.594" gradientUnits="userSpaceOnUse">
<stop offset="0.05" stop-color="#291F3F"/>
<stop offset="0.44" stop-color="#5E4A5E" stop-opacity="0.5"/>
<stop offset="0.75" stop-color="#92767C" stop-opacity="0"/>
</linearGradient>
<clipPath id="clip0_168_7408">
<rect width="100" height="100" fill="white" transform="translate(-90.0222 58.2625) rotate(-12.2108)"/>
</clipPath>
<clipPath id="clip1_168_7408">
<rect width="110" height="110" fill="white" transform="translate(125.498 1)"/>
</clipPath>
</defs>
</svg>
