<svg width="224" height="59" viewBox="0 0 224 59" fill="none" xmlns="http://www.w3.org/2000/svg">
<g opacity="0.6" filter="url(#filter0_f_299_36872)">
<path d="M19.6343 43.5054C17.7153 43.4907 16.0381 43.1392 14.6025 42.4507C13.167 41.7622 11.9731 40.7368 11.021 39.3745C10.0688 38.0122 9.35107 36.313 8.86768 34.2769C8.38428 32.2407 8.14258 29.8604 8.14258 27.1357V27.0918C8.14258 23.459 8.56738 20.4414 9.41699 18.0391C10.2812 15.6221 11.563 13.813 13.2622 12.6118C14.9614 11.396 17.0854 10.7881 19.6343 10.7881C22.0659 10.7881 24.0581 11.2715 25.6108 12.2383C27.1782 13.2051 28.3574 14.5088 29.1484 16.1494C29.9541 17.7754 30.4375 19.5845 30.5986 21.5767L30.6646 22.5654H22.5127L22.4688 21.6206C22.3369 20.5806 22.0659 19.709 21.6558 19.0059C21.2456 18.2881 20.6377 17.9292 19.832 17.9292C19.1436 17.9292 18.5576 18.2222 18.0742 18.8081C17.6055 19.394 17.2466 20.3535 16.9976 21.6865C16.7632 23.0195 16.646 24.814 16.646 27.0698V27.1138C16.646 28.7837 16.7119 30.2046 16.8438 31.3765C16.9902 32.5483 17.2026 33.5005 17.481 34.2329C17.7593 34.9653 18.0962 35.5073 18.4917 35.8589C18.9019 36.1958 19.3706 36.3643 19.8979 36.3643C20.5425 36.3643 21.0771 36.1445 21.502 35.7051C21.9414 35.2656 22.271 34.6797 22.4907 33.9473C22.7104 33.2148 22.8276 32.4092 22.8423 31.5303V31.1787H19.854V25.2681H30.8843V29.5747C30.8843 31.8306 30.6499 33.8301 30.1812 35.5732C29.7271 37.3164 29.0312 38.7812 28.0938 39.9678C27.1562 41.1396 25.9771 42.0259 24.5562 42.6265C23.1499 43.2271 21.5093 43.52 19.6343 43.5054ZM35.0573 43V18.896H43.1213V43H35.0573ZM39.0783 17.0063C37.965 17.0063 37.0129 16.6108 36.2219 15.8198C35.4455 15.0142 35.0573 14.0547 35.0573 12.9414C35.0573 11.8428 35.4455 10.8906 36.2219 10.085C37.0129 9.2793 37.965 8.87646 39.0783 8.87646C40.2062 8.87646 41.1584 9.2793 41.9348 10.085C42.7111 10.8906 43.0993 11.8428 43.0993 12.9414C43.0993 14.0547 42.7111 15.0142 41.9348 15.8198C41.1584 16.6108 40.2062 17.0063 39.0783 17.0063ZM49.3158 43V25.0264H46.6132V18.896H49.3158V17.8193C49.3158 16.3252 49.5868 15.0581 50.1288 14.0181C50.6854 12.978 51.5351 12.1943 52.6776 11.667C53.8349 11.125 55.329 10.854 57.1601 10.854C57.9804 10.854 58.6908 10.8906 59.2914 10.9639C59.9066 11.0371 60.434 11.125 60.8734 11.2275V16.2812C60.7123 16.252 60.5219 16.23 60.3021 16.2153C60.0824 16.2007 59.8261 16.1934 59.5331 16.1934C58.7714 16.1934 58.1781 16.3618 57.7533 16.6987C57.3432 17.0356 57.1381 17.5483 57.1381 18.2368V18.896H60.8734V25.0264H57.3798V43H49.3158ZM74.0333 43.4395C71.4112 43.4395 69.419 42.8389 68.0567 41.6377C66.6944 40.4365 66.0133 38.459 66.0133 35.7051V25.0264H63.5523V18.896H66.0133V13.4907H74.0992V18.896H77.2853V25.0264H74.0992V34.958C74.0992 35.8516 74.275 36.4741 74.6266 36.8257C74.9781 37.1626 75.586 37.3311 76.4503 37.3311C76.6261 37.3311 76.7799 37.3237 76.9117 37.3091C77.0582 37.2944 77.1974 37.2798 77.3292 37.2651V43.022C76.8751 43.1392 76.3697 43.2344 75.8131 43.3076C75.2564 43.3955 74.6632 43.4395 74.0333 43.4395ZM95.1895 43V18.2368H89.2349V11.2935H109.45V18.2368H103.517V43H95.1895ZM119.841 43.5493C117.644 43.5493 115.769 43.0806 114.216 42.1431C112.663 41.1909 111.469 39.7847 110.634 37.9243C109.814 36.064 109.404 33.7495 109.404 30.981V30.937C109.404 28.2563 109.821 25.9858 110.656 24.1255C111.506 22.2651 112.707 20.8589 114.26 19.9067C115.827 18.9399 117.688 18.4565 119.841 18.4565C121.98 18.4565 123.825 18.9399 125.378 19.9067C126.946 20.8589 128.147 22.2651 128.982 24.1255C129.831 25.9712 130.256 28.2417 130.256 30.937V30.981C130.256 33.7495 129.846 36.064 129.026 37.9243C128.205 39.7847 127.019 41.1909 125.466 42.1431C123.913 43.0806 122.038 43.5493 119.841 43.5493ZM119.841 37.2432C120.324 37.2432 120.735 37.0381 121.071 36.6279C121.408 36.2178 121.657 35.5586 121.819 34.6504C121.994 33.7275 122.082 32.5117 122.082 31.0029V30.959C122.082 29.4795 121.994 28.2856 121.819 27.3774C121.643 26.4692 121.386 25.8101 121.05 25.3999C120.727 24.9751 120.324 24.7627 119.841 24.7627C119.358 24.7627 118.947 24.9751 118.611 25.3999C118.274 25.8101 118.017 26.4692 117.842 27.3774C117.68 28.2856 117.6 29.4795 117.6 30.959V31.0029C117.6 32.5117 117.68 33.7275 117.842 34.6504C118.017 35.5586 118.274 36.2178 118.611 36.6279C118.947 37.0381 119.358 37.2432 119.841 37.2432ZM134.231 50.6904V18.896H142.295V22.3896H142.449C142.771 21.5693 143.189 20.8662 143.702 20.2803C144.214 19.6943 144.822 19.2476 145.525 18.9399C146.243 18.6323 147.049 18.4785 147.942 18.4785C149.422 18.4785 150.689 18.9106 151.744 19.7749C152.813 20.6392 153.633 21.9868 154.204 23.8179C154.79 25.6489 155.083 28 155.083 30.8711V30.915C155.083 33.7861 154.79 36.1372 154.204 37.9683C153.633 39.7847 152.813 41.125 151.744 41.9893C150.674 42.8389 149.385 43.2637 147.876 43.2637C147.012 43.2637 146.228 43.1099 145.525 42.8022C144.837 42.4946 144.229 42.0479 143.702 41.4619C143.189 40.876 142.771 40.1509 142.449 39.2866H142.295V50.6904H134.231ZM144.558 36.4741C145.057 36.4741 145.481 36.2764 145.833 35.8809C146.184 35.4854 146.448 34.8848 146.624 34.0791C146.8 33.2734 146.888 32.2407 146.888 30.981V30.937C146.888 29.6479 146.792 28.5859 146.602 27.751C146.426 26.916 146.162 26.2935 145.811 25.8833C145.474 25.4731 145.057 25.2681 144.558 25.2681C144.031 25.2681 143.599 25.4805 143.262 25.9053C142.925 26.3301 142.676 26.9673 142.515 27.8169C142.369 28.6519 142.295 29.6992 142.295 30.959V30.981C142.295 32.1968 142.369 33.2075 142.515 34.0132C142.676 34.8188 142.925 35.4341 143.262 35.8589C143.599 36.269 144.031 36.4741 144.558 36.4741ZM179.03 43.4834C176.76 43.4834 174.804 43.0439 173.163 42.165C171.537 41.2861 170.285 40.0264 169.406 38.3857C168.542 36.7451 168.11 34.7676 168.11 32.4531V11.2935H176.437V32.563C176.437 33.4126 176.533 34.1157 176.723 34.6724C176.928 35.229 177.221 35.6465 177.602 35.9248C177.983 36.2031 178.459 36.3423 179.03 36.3423C179.601 36.3423 180.077 36.2031 180.458 35.9248C180.854 35.6465 181.147 35.229 181.337 34.6724C181.542 34.1157 181.645 33.4126 181.645 32.563V11.2935H189.972V32.4531C189.972 34.7529 189.533 36.7305 188.654 38.3857C187.79 40.0264 186.537 41.2861 184.897 42.165C183.271 43.0439 181.315 43.4834 179.03 43.4834ZM194.475 50.6904V18.896H202.539V22.3896H202.693C203.015 21.5693 203.433 20.8662 203.945 20.2803C204.458 19.6943 205.066 19.2476 205.769 18.9399C206.487 18.6323 207.292 18.4785 208.186 18.4785C209.666 18.4785 210.933 18.9106 211.987 19.7749C213.057 20.6392 213.877 21.9868 214.448 23.8179C215.034 25.6489 215.327 28 215.327 30.8711V30.915C215.327 33.7861 215.034 36.1372 214.448 37.9683C213.877 39.7847 213.057 41.125 211.987 41.9893C210.918 42.8389 209.629 43.2637 208.12 43.2637C207.256 43.2637 206.472 43.1099 205.769 42.8022C205.081 42.4946 204.473 42.0479 203.945 41.4619C203.433 40.876 203.015 40.1509 202.693 39.2866H202.539V50.6904H194.475ZM204.802 36.4741C205.3 36.4741 205.725 36.2764 206.077 35.8809C206.428 35.4854 206.692 34.8848 206.868 34.0791C207.043 33.2734 207.131 32.2407 207.131 30.981V30.937C207.131 29.6479 207.036 28.5859 206.846 27.751C206.67 26.916 206.406 26.2935 206.055 25.8833C205.718 25.4731 205.3 25.2681 204.802 25.2681C204.275 25.2681 203.843 25.4805 203.506 25.9053C203.169 26.3301 202.92 26.9673 202.759 27.8169C202.612 28.6519 202.539 29.6992 202.539 30.959V30.981C202.539 32.1968 202.612 33.2075 202.759 34.0132C202.92 34.8188 203.169 35.4341 203.506 35.8589C203.843 36.269 204.275 36.4741 204.802 36.4741Z" fill="url(#paint0_radial_299_36872)"/>
</g>
<defs>
<filter id="filter0_f_299_36872" x="0.142578" y="0.876465" width="223.185" height="57.814" filterUnits="userSpaceOnUse" color-interpolation-filters="sRGB">
<feFlood flood-opacity="0" result="BackgroundImageFix"/>
<feBlend mode="normal" in="SourceGraphic" in2="BackgroundImageFix" result="shape"/>
<feGaussianBlur stdDeviation="4" result="effect1_foregroundBlur_299_36872"/>
</filter>
<radialGradient id="paint0_radial_299_36872" cx="0" cy="0" r="1" gradientUnits="userSpaceOnUse" gradientTransform="translate(43.1846 27.2319) rotate(-4.93386) scale(188.73 90.0536)">
<stop stop-color="#7140CC"/>
<stop offset="1" stop-color="#FF00A2"/>
</radialGradient>
</defs>
</svg>
