<svg width="100" height="100" viewBox="0 0 100 100" fill="none" xmlns="http://www.w3.org/2000/svg">
<g clip-path="url(#clip0_7_3851)">
<mask id="mask0_7_3851" style="mask-type:luminance" maskUnits="userSpaceOnUse" x="0" y="0" width="100" height="100">
<path d="M100 0H0V100H100V0Z" fill="white"/>
</mask>
<g mask="url(#mask0_7_3851)">
<path d="M52.5961 26.8791C48.849 24.5117 39.266 25.0244 29.047 33.0794C20.2966 39.9767 12.0134 53.9572 15.5025 70.933C17.2648 79.5074 23.2425 85.2791 28.5373 87.5937C31.4744 88.8776 34.2013 89.0981 35.8816 88.1425L52.5961 26.8791Z" fill="url(#paint0_radial_7_3851)"/>
<g opacity="0.81">
<path d="M52.5961 27.161C48.849 24.8049 39.266 25.3153 29.047 33.3321C20.2966 40.1967 12.0134 54.111 15.5025 71.0061C17.2648 79.5397 23.2425 85.284 28.5373 87.5877C31.4744 88.8657 34.2013 89.0848 35.8816 88.1338L52.5961 27.161Z" fill="url(#paint1_linear_7_3851)"/>
</g>
<g opacity="0.7">
<path d="M52.5961 27.161C48.849 24.8049 39.266 25.3153 29.047 33.3321C20.2966 40.1967 12.0134 54.111 15.5025 71.0061C17.2648 79.5397 23.2425 85.284 28.5373 87.5877C31.4744 88.8657 34.2013 89.0848 35.8816 88.1338L52.5961 27.161Z" fill="url(#paint2_radial_7_3851)"/>
</g>
<g opacity="0.5">
<path d="M41.0127 69.2042L35.7998 88.2472C34.358 89.0644 32.1459 89.0189 29.6916 88.1812C24.9477 86.562 19.2988 81.9829 16.5596 74.9523L16.5615 74.9503C23.4607 86.5148 31.666 86.363 31.666 86.363C31.666 86.363 27.3977 78.9318 28.3799 68.1495C28.973 61.6386 35.0127 64.4425 41.0127 69.2042Z" fill="url(#paint3_linear_7_3851)"/>
</g>
<path d="M40.6172 56.6312C35.7947 68.6022 27.0261 76.348 21.0317 73.932C15.0373 71.516 14.0871 59.8532 18.9095 47.8822C23.7319 35.9112 32.5006 28.1653 38.4949 30.5813C44.4893 32.9973 45.4396 44.6601 40.6172 56.6312Z" fill="url(#paint4_radial_7_3851)"/>
<g opacity="0.43">
<path d="M48.4155 27.8003C50.9159 30.5653 48.2466 37.0541 42.4532 42.2938C36.6599 47.5335 29.9364 49.5396 27.4361 46.7746C24.9357 44.0097 27.605 37.5208 33.3984 32.2811C39.1917 27.0414 45.9151 25.0353 48.4155 27.8003Z" fill="url(#paint5_radial_7_3851)"/>
</g>
<g opacity="0.5">
<path d="M48.3771 27.2311C50.9976 30.3374 47.6858 37.4407 40.98 43.0965C34.2742 48.7524 26.7137 50.8191 24.0932 47.7128C21.4726 44.6064 24.7845 37.5032 31.4903 31.8473C38.1961 26.1914 45.7565 24.1247 48.3771 27.2311Z" fill="url(#paint6_radial_7_3851)"/>
</g>
<g opacity="0.8">
<path d="M46.3024 30.0433C48.0688 32.2087 45.8379 36.9451 41.3195 40.6225C36.8011 44.2998 31.7062 45.5253 29.9397 43.3599C28.1733 41.1944 30.4041 36.458 34.9225 32.7807C39.441 29.1034 44.5359 27.8778 46.3024 30.0433Z" fill="url(#paint7_radial_7_3851)"/>
</g>
<g opacity="0.5">
<path d="M35.9134 52.5424C33.4307 61.2645 29.544 67.8013 27.2321 67.1428C24.9202 66.4844 25.0587 58.8797 27.5414 50.1576C30.024 41.4355 33.9108 34.8987 36.2226 35.5572C38.5345 36.2156 38.3961 43.8203 35.9134 52.5424Z" fill="url(#paint8_radial_7_3851)"/>
</g>
<g opacity="0.5">
<path d="M23.7228 42.9235C25.2097 43.3718 25.0619 48.2626 23.3925 53.8473C21.7231 59.4319 19.1643 63.5958 17.6773 63.1475C16.1903 62.6992 16.3382 57.8085 18.0076 52.2238C19.6769 46.6391 22.2358 42.4753 23.7228 42.9235Z" fill="url(#paint9_radial_7_3851)"/>
</g>
<g opacity="0.5">
<path d="M27.5796 37.1506C28.8342 37.4872 28.0076 44.6319 25.7333 53.1089C23.459 61.5859 20.5983 68.1848 19.3436 67.8482C18.089 67.5116 18.9156 60.3669 21.1899 51.8899C23.4642 43.4129 26.3249 36.814 27.5796 37.1506Z" fill="url(#paint10_radial_7_3851)"/>
</g>
<g opacity="0.3">
<path d="M51.1613 27.9617C49.4105 26.8045 39.7082 25.1705 27.0496 36.8719C14.1082 48.8348 13.6789 67.6967 18.8025 78.9318" stroke="url(#paint11_linear_7_3851)" stroke-width="1.5625" stroke-miterlimit="10"/>
</g>
<path d="M60.156 37.1092C58.5935 32.5194 56.3431 29.2967 52.5961 26.9374C48.849 24.578 39.266 25.0891 29.047 33.1169C20.2966 39.9909 12.0134 53.9247 15.5025 70.8432C17.6041 81.0335 25.4511 87.0622 31.3097 88.2596C33.0894 88.6233 34.6857 88.5413 35.8816 87.9946C42.0896 85.1561 42.8709 79.492 42.1873 73.242" stroke="url(#paint12_linear_7_3851)" stroke-width="1.5625" stroke-linecap="round" stroke-linejoin="round"/>
<path d="M41.9541 20.3337L43.2268 19.039C43.2268 19.039 48.8193 8.57571 56.3621 8.04778C57.7867 7.94797 65.4617 8.54387 69.9531 11.5382C70.8506 12.1366 63.191 19.7156 43.2268 19.039" fill="url(#paint13_linear_7_3851)"/>
<g opacity="0.6">
<path d="M55.2076 8.20825C55.2076 8.20825 53.1779 9.43755 52.5967 12.3598" stroke="url(#paint14_linear_7_3851)" stroke-width="1.5625" stroke-linecap="round" stroke-linejoin="round"/>
</g>
<g opacity="0.6">
<path d="M60.5244 8.33594C60.5244 8.33594 59.2588 9.05156 58.2939 10.541" stroke="url(#paint15_linear_7_3851)" stroke-width="1.5625" stroke-linecap="round" stroke-linejoin="round"/>
</g>
<g opacity="0.6">
<path d="M45.7754 18.3874C45.7754 18.3874 59.9586 9.97764 69.3074 12.1423C69.3074 12.1423 67.4508 15.5886 58.9602 17.596C50.4695 19.6034 45.7754 18.3874 45.7754 18.3874Z" fill="url(#paint16_linear_7_3851)"/>
</g>
<g opacity="0.7">
<path d="M45.1689 19.0794C45.1689 19.0794 55.7287 17.6435 61.1414 15.5685C66.5541 13.4937 69.3072 10.9868 69.3072 10.9868" stroke="url(#paint17_linear_7_3851)" stroke-width="1.5625" stroke-linecap="round" stroke-linejoin="round"/>
</g>
<path d="M41.9541 20.3337L43.2268 19.039M43.2268 19.039C43.2268 19.039 48.8193 8.57571 56.3621 8.04778C57.7867 7.94797 65.4617 8.54387 69.9531 11.5382C70.8506 12.1366 63.191 19.7156 43.2268 19.039Z" stroke="url(#paint18_linear_7_3851)" stroke-width="1.5625" stroke-linecap="round" stroke-linejoin="round"/>
<g opacity="0.5">
<path d="M43.2266 19.0391C43.2266 19.0391 59.7201 8.49577 69.9527 11.5384" stroke="url(#paint19_linear_7_3851)" stroke-width="1.5625" stroke-linecap="round" stroke-linejoin="round"/>
</g>
<path d="M47.5673 35.8655L46.5072 32.7459C46.5072 32.7459 42.831 19.5133 37.4433 12.4526C37.0449 11.9305 33.3632 14.5076 33.3019 15.5508C33.2406 16.594 34.5492 16.5789 34.5492 16.5789C34.5492 16.5789 39.2105 21.867 43.8193 34.1459L45.1753 37.2106" fill="url(#paint20_linear_7_3851)"/>
<g opacity="0.31">
<path d="M34.1817 15.8057C34.1817 15.8057 35.1503 16.1717 36.221 15.3049C36.221 15.3049 40.6725 17.6908 45.3122 32.5289C45.396 32.7971 46.0967 34.9518 46.1854 34.9231C46.7114 34.7533 46.0749 27.1696 37.7194 14.1858C37.7194 14.1858 38.0911 13.0647 37.4436 12.4524C36.7962 11.8401 33.4792 14.4176 33.3022 15.5506C33.1253 16.6836 34.1817 15.8057 34.1817 15.8057Z" fill="#FFE7CA"/>
</g>
<path d="M47.9509 36.2338L46.5072 32.7459C46.5072 32.7459 42.831 19.5133 37.4433 12.4526C37.0449 11.9305 33.3632 14.5076 33.3019 15.5508C33.2406 16.594 34.5492 16.5789 34.5492 16.5789C34.5492 16.5789 39.2105 21.867 43.8193 34.1459L44.782 36.935" stroke="url(#paint21_linear_7_3851)" stroke-width="1.5625" stroke-linecap="round" stroke-linejoin="round"/>
<path d="M46.5075 32.7459C44.5812 35.0928 43.4558 33.1676 40.1323 35.6147C36.9679 37.9447 28.8821 44.7242 28.4753 64.0344C28.0095 86.1348 39.762 95.6793 54.4802 93.6877C57.1894 93.3211 59.9423 92.5151 62.6249 91.3037C73.1737 86.5408 82.636 75.5133 84.0724 60.3115C85.8741 41.2438 74.6144 24.594 61.2511 24.5781C54.253 24.5699 50.488 27.8963 46.5075 32.7459Z" fill="url(#paint22_radial_7_3851)"/>
<path d="M46.5075 32.7459C44.5812 35.0928 43.4558 33.1676 40.1323 35.6147C36.9679 37.9447 28.8821 44.7242 28.4753 64.0344C28.0095 86.1348 39.762 95.6793 54.4802 93.6877C57.1894 93.3211 59.9423 92.5151 62.6249 91.3037C73.1737 86.5408 82.636 75.5133 84.0724 60.3115C85.8741 41.2438 74.6144 24.594 61.2511 24.5781C54.253 24.5699 50.488 27.8963 46.5075 32.7459Z" fill="url(#paint23_linear_7_3851)"/>
<path d="M58.2942 79.1648C41.1211 85.0873 28.3559 72.5355 28.6293 60.7015V60.6781C28.6567 59.5218 28.7777 58.3402 28.9926 57.1449C30.893 43.0433 37.3774 37.6429 40.1313 35.6156C43.4555 33.1683 44.5805 35.0921 46.5063 32.7464C50.4867 27.8968 55.9883 21.4519 67.202 25.7062C92.3688 38.2289 84.2317 70.2197 58.2942 79.1648Z" fill="url(#paint24_linear_7_3851)"/>
<g opacity="0.81">
<path d="M46.5075 32.7459C44.5812 35.0928 43.4558 33.1676 40.1323 35.6147C36.9679 37.9447 28.8821 44.7242 28.4753 64.0344C28.0095 86.1348 39.762 95.6793 54.4802 93.6877C57.1894 93.3211 59.9423 92.5151 62.6249 91.3037C73.1737 86.5408 82.636 75.5133 84.0724 60.3115C85.8741 41.2438 74.6144 24.594 61.2511 24.5781C54.253 24.5699 50.488 27.8963 46.5075 32.7459Z" fill="url(#paint25_linear_7_3851)"/>
</g>
<path d="M77.3776 50.4731C82.2839 61.0047 75.1659 74.7088 61.4795 81.0818C47.7931 87.4548 32.7208 84.0836 27.8145 73.552C22.9082 63.0205 30.0262 49.3164 43.7126 42.9433C57.399 36.5703 72.4713 39.9415 77.3776 50.4731Z" fill="url(#paint26_radial_7_3851)"/>
<path d="M68.9474 28.8387C82.1411 33.4907 89.0654 47.9577 84.4134 61.1512C79.7615 74.3448 65.2945 81.2692 52.1009 76.6173C38.9074 71.9653 31.9829 57.4983 36.6349 44.3048C41.2868 31.1112 55.7538 24.1868 68.9474 28.8387Z" fill="url(#paint27_radial_7_3851)"/>
<g opacity="0.1">
<path d="M54.2799 70.9481C54.8589 73.8302 51.351 76.9619 46.4445 77.9432C41.5381 78.9245 37.0913 77.3835 36.5123 74.5013C35.9334 71.6192 39.4413 68.4874 44.3477 67.5062C49.2542 66.525 53.701 68.0659 54.2799 70.9481Z" fill="url(#paint28_radial_7_3851)"/>
</g>
<path d="M74.9105 35.5934C79.5663 44.3752 73.2968 56.7589 60.9068 63.2534C48.5169 69.7479 34.6985 67.8937 30.0427 59.1119C25.3869 50.3302 31.6564 37.9465 44.0464 31.452C56.4363 24.9575 70.2547 26.8117 74.9105 35.5934Z" fill="url(#paint29_radial_7_3851)"/>
<g opacity="0.3">
<path d="M76.814 38.1186C75.33 40.4852 70.4548 40.0796 65.9249 37.2126C61.3951 34.3456 58.926 30.103 60.4099 27.7365C61.8939 25.37 66.7691 25.7755 71.299 28.6425C75.8289 31.5095 78.298 35.7521 76.814 38.1186Z" fill="url(#paint30_radial_7_3851)"/>
</g>
<path d="M62.6961 38.0827C64.4508 39.1496 61.5976 47.0898 56.3233 55.8176C51.049 64.5455 45.351 70.7558 43.5964 69.689C41.8417 68.6221 44.6948 60.6821 49.9691 51.9543C55.2433 43.2264 60.9414 37.0159 62.6961 38.0827Z" fill="url(#paint31_radial_7_3851)"/>
<path d="M40.801 41.8483C43.5568 42.4804 44.0926 50.3751 41.9979 59.4811C39.9032 68.5872 35.971 75.4567 33.2152 74.8246C30.4595 74.1925 29.9237 66.2978 32.0184 57.1918C34.1131 48.0857 38.0452 41.2162 40.801 41.8483Z" fill="url(#paint32_radial_7_3851)"/>
<path d="M60.1094 51.585C53.9828 56.6187 46.0401 57.5401 42.369 53.643C38.6978 49.7458 40.6882 42.5059 46.8149 37.4721C52.9415 32.4384 60.8842 31.517 64.5553 35.4142C68.2265 39.3113 66.2361 46.5513 60.1094 51.585Z" fill="url(#paint33_radial_7_3851)"/>
<g opacity="0.5">
<path d="M84.0732 60.3108C82.2705 79.3792 67.8428 91.8792 54.4795 93.6877C51.7918 94.0514 49.2029 94.0303 46.7693 93.6182C39.4008 92.3706 33.4561 87.5385 30.499 78.9495C52.4775 104.467 86.1068 76.1118 84.0928 52.512C84.3213 55.0393 84.3252 57.6506 84.0732 60.3108Z" fill="url(#paint34_linear_7_3851)"/>
</g>
<g opacity="0.3">
<path d="M77.7332 78.3434C91.3896 47.3525 74.732 26.0742 61.0515 26.0742C54.4351 26.0742 51.266 29.2664 47.5025 33.932C45.6812 36.1898 44.1635 34.7207 40.889 36.8873C37.009 39.4547 32.1922 45.3787 30.5738 56.3633C28.7226 68.9277 30.9162 82.9395 39.1006 90.6523" stroke="url(#paint35_linear_7_3851)" stroke-width="1.5625" stroke-miterlimit="10"/>
</g>
<g opacity="0.2">
<path d="M69.8108 26.9417C69.1351 28.26 66.422 27.3538 61.0921 30.2327C57.8349 31.9921 53.0429 29.9448 50.2538 30.7592C50.1273 30.7962 46.4689 32.7985 46.5071 32.7458C47.2364 31.7434 49.0597 29.9989 49.1702 29.7542C52.3245 26.5803 55.8108 24.5725 61.2503 24.5784C64.2503 24.5803 67.1448 25.4241 69.8108 26.9417Z" fill="#29151A"/>
</g>
<path d="M46.5075 32.7459C44.5812 35.0928 43.4558 33.1676 40.1323 35.6147C36.9679 37.9447 28.8821 44.7242 28.4753 64.0344C28.0095 86.1348 39.762 95.6793 54.4802 93.6877C57.1894 93.3211 59.9423 92.5151 62.6249 91.3037C73.1737 86.5408 82.636 75.5133 84.0724 60.3115C85.8741 41.2438 74.6144 24.594 61.2511 24.5781C54.253 24.5699 50.488 27.8963 46.5075 32.7459Z" stroke="url(#paint36_linear_7_3851)" stroke-width="1.5625" stroke-linecap="round" stroke-linejoin="round"/>
<path d="M46.5075 32.7459C44.5812 35.0928 43.4558 33.1676 40.1323 35.6147C36.9679 37.9447 28.8821 44.7242 28.4753 64.0344C28.0095 86.1348 39.762 95.6793 54.4802 93.6877C57.1894 93.3211 59.9423 92.5151 62.6249 91.3037C73.1737 86.5408 82.636 75.5133 84.0724 60.3115C85.8741 41.2438 74.6144 24.594 61.2511 24.5781C54.253 24.5699 50.488 27.8963 46.5075 32.7459Z" stroke="url(#paint37_linear_7_3851)" stroke-width="1.5625" stroke-linecap="round" stroke-linejoin="round"/>
</g>
</g>
<defs>
<radialGradient id="paint0_radial_7_3851" cx="0" cy="0" r="1" gradientUnits="userSpaceOnUse" gradientTransform="translate(28.7107 43.5288) scale(25.1656 42.7816)">
<stop offset="0.43" stop-color="#9A95D8"/>
<stop offset="0.66" stop-color="#937EB4"/>
<stop offset="0.87" stop-color="#8C6890"/>
<stop offset="0.94" stop-color="#A2798F"/>
<stop offset="0.98" stop-color="#B9898D"/>
</radialGradient>
<linearGradient id="paint1_linear_7_3851" x1="49.0232" y1="40.834" x2="23.1865" y2="70.5188" gradientUnits="userSpaceOnUse">
<stop stop-color="#282438"/>
<stop offset="0.63" stop-color="#282338" stop-opacity="0.5"/>
<stop offset="1" stop-color="#272337" stop-opacity="0"/>
</linearGradient>
<radialGradient id="paint2_radial_7_3851" cx="0" cy="0" r="1" gradientUnits="userSpaceOnUse" gradientTransform="translate(49.8045 69.6578) scale(25.9582)">
<stop offset="0.84" stop-color="#282448"/>
<stop offset="0.92" stop-color="#28234E" stop-opacity="0.5"/>
<stop offset="1" stop-color="#272354" stop-opacity="0"/>
</radialGradient>
<linearGradient id="paint3_linear_7_3851" x1="23.0467" y1="89.2714" x2="27.1473" y2="79.0199" gradientUnits="userSpaceOnUse">
<stop stop-color="#FFE9CC"/>
<stop offset="0.52" stop-color="#FFECD5" stop-opacity="0.5"/>
<stop offset="1" stop-color="#FFF0DF" stop-opacity="0"/>
</linearGradient>
<radialGradient id="paint4_radial_7_3851" cx="0" cy="0" r="1" gradientUnits="userSpaceOnUse" gradientTransform="translate(29.6259 52.665) rotate(22) scale(11.0793 21.724)">
<stop offset="0.55" stop-color="#282438"/>
<stop offset="0.86" stop-color="#282338" stop-opacity="0.5"/>
<stop offset="1" stop-color="#272337" stop-opacity="0"/>
</radialGradient>
<radialGradient id="paint5_radial_7_3851" cx="0" cy="0" r="1" gradientUnits="userSpaceOnUse" gradientTransform="translate(37.811 37.2251) rotate(48) scale(6.20815 13.496)">
<stop offset="0.26" stop-color="white"/>
<stop offset="0.69" stop-color="#FFFEFE" stop-opacity="0.5"/>
<stop offset="1" stop-color="#FFFDFE" stop-opacity="0"/>
</radialGradient>
<radialGradient id="paint6_radial_7_3851" cx="0" cy="0" r="1" gradientUnits="userSpaceOnUse" gradientTransform="translate(36.2205 37.5478) rotate(50) scale(6.56754 14.5945)">
<stop offset="0.23" stop-color="#FFC4AC"/>
<stop offset="0.6" stop-color="#FFC4AC" stop-opacity="0.5"/>
<stop offset="1" stop-color="#FFC4AC" stop-opacity="0"/>
</radialGradient>
<radialGradient id="paint7_radial_7_3851" cx="0" cy="0" r="1" gradientUnits="userSpaceOnUse" gradientTransform="translate(37.9709 36.7042) rotate(49) scale(4.84556 9.88889)">
<stop offset="0.26" stop-color="white"/>
<stop offset="0.5" stop-color="#FFFEFE" stop-opacity="0.5"/>
<stop offset="1" stop-color="#FFFDFE" stop-opacity="0"/>
</radialGradient>
<radialGradient id="paint8_radial_7_3851" cx="0" cy="0" r="1" gradientUnits="userSpaceOnUse" gradientTransform="translate(31.7232 51.3911) rotate(16) scale(3.98201 15.3154)">
<stop offset="0.32" stop-color="#DC734A"/>
<stop offset="0.71" stop-color="#DC734A" stop-opacity="0.5"/>
<stop offset="1" stop-color="#DC734A" stop-opacity="0"/>
</radialGradient>
<radialGradient id="paint9_radial_7_3851" cx="0" cy="0" r="1" gradientUnits="userSpaceOnUse" gradientTransform="translate(20.7367 53.0829) rotate(17) scale(2.72795 10.1035)">
<stop stop-color="#F5F1BD"/>
<stop offset="0.58" stop-color="#F5EFBB" stop-opacity="0.5"/>
<stop offset="1" stop-color="#F5EEBA" stop-opacity="0"/>
</radialGradient>
<radialGradient id="paint10_radial_7_3851" cx="0" cy="0" r="1" gradientUnits="userSpaceOnUse" gradientTransform="translate(23.3573 52.8111) rotate(15) scale(2.07574 13.8383)">
<stop stop-color="#F0AB95"/>
<stop offset="0.58" stop-color="#EFAE96" stop-opacity="0.5"/>
<stop offset="1" stop-color="#EFB197" stop-opacity="0"/>
</radialGradient>
<linearGradient id="paint11_linear_7_3851" x1="33.2033" y1="79.1152" x2="33.2033" y2="26.2344" gradientUnits="userSpaceOnUse">
<stop stop-color="white" stop-opacity="0.2"/>
<stop offset="0.58" stop-color="white" stop-opacity="0.6"/>
<stop offset="1" stop-color="white"/>
</linearGradient>
<linearGradient id="paint12_linear_7_3851" x1="33.5935" y1="89.2714" x2="33.5935" y2="24.8323" gradientUnits="userSpaceOnUse">
<stop offset="0.02" stop-color="#9C6874"/>
<stop offset="0.27" stop-color="#6D4E64"/>
<stop offset="1" stop-color="#3E3355"/>
</linearGradient>
<linearGradient id="paint13_linear_7_3851" x1="55.8598" y1="20.3259" x2="55.8598" y2="8.02981" gradientUnits="userSpaceOnUse">
<stop offset="0.16" stop-color="#5C474E"/>
<stop offset="0.44" stop-color="#77746C"/>
<stop offset="0.74" stop-color="#92A189"/>
</linearGradient>
<linearGradient id="paint14_linear_7_3851" x1="53.7113" y1="13.0997" x2="53.7113" y2="7.38579" gradientUnits="userSpaceOnUse">
<stop offset="0.02" stop-color="#D9D8C7" stop-opacity="0"/>
<stop offset="0.4" stop-color="#D4D0B9" stop-opacity="0.5"/>
<stop offset="0.62" stop-color="#CFC8AC"/>
</linearGradient>
<linearGradient id="paint15_linear_7_3851" x1="59.375" y1="11.1463" x2="59.375" y2="7.37891" gradientUnits="userSpaceOnUse">
<stop offset="0.02" stop-color="#D9D8C7" stop-opacity="0"/>
<stop offset="0.4" stop-color="#D4D0B9" stop-opacity="0.5"/>
<stop offset="0.62" stop-color="#CFC8AC"/>
</linearGradient>
<linearGradient id="paint16_linear_7_3851" x1="57.4225" y1="18.5683" x2="57.4225" y2="11.6019" gradientUnits="userSpaceOnUse">
<stop offset="0.16" stop-color="#8B534B"/>
<stop offset="0.44" stop-color="#907677"/>
<stop offset="0.74" stop-color="#9598A3"/>
</linearGradient>
<linearGradient id="paint17_linear_7_3851" x1="57.2268" y1="19.7401" x2="57.2268" y2="10.0851" gradientUnits="userSpaceOnUse">
<stop stop-color="#F7F5DF" stop-opacity="0"/>
<stop offset="0.28" stop-color="#F9F6DF" stop-opacity="0.5"/>
<stop offset="0.64" stop-color="#FAF7DF"/>
</linearGradient>
<linearGradient id="paint18_linear_7_3851" x1="55.8598" y1="21.1072" x2="55.8598" y2="7.24856" gradientUnits="userSpaceOnUse">
<stop offset="0.02" stop-color="#483736"/>
<stop offset="0.43" stop-color="#5C5756"/>
<stop offset="0.74" stop-color="#6F7876"/>
</linearGradient>
<linearGradient id="paint19_linear_7_3851" x1="56.4453" y1="19.7403" x2="56.4453" y2="10.1257" gradientUnits="userSpaceOnUse">
<stop offset="0.02" stop-color="#4C3A36"/>
<stop offset="0.43" stop-color="#5E5E56"/>
<stop offset="0.74" stop-color="#6F8176"/>
</linearGradient>
<linearGradient id="paint20_linear_7_3851" x1="39.6486" y1="24.0371" x2="45.1509" y2="18.7014" gradientUnits="userSpaceOnUse">
<stop stop-color="#514B4E"/>
<stop offset="0.3" stop-color="#7F6E6A"/>
<stop offset="1" stop-color="#AD9186"/>
</linearGradient>
<linearGradient id="paint21_linear_7_3851" x1="44.5314" y1="19.7403" x2="36.3939" y2="26.5684" gradientUnits="userSpaceOnUse">
<stop offset="0.26" stop-color="#837170"/>
<stop offset="0.43" stop-color="#5F5258"/>
<stop offset="0.61" stop-color="#3A3341"/>
</linearGradient>
<radialGradient id="paint22_radial_7_3851" cx="0" cy="0" r="1" gradientUnits="userSpaceOnUse" gradientTransform="translate(53.7114 55.8176) scale(35.9271 35.9271)">
<stop offset="0.78" stop-color="#9595C7"/>
<stop offset="0.92" stop-color="#AD87AC"/>
<stop offset="1" stop-color="#C57991"/>
</radialGradient>
<linearGradient id="paint23_linear_7_3851" x1="71.4849" y1="32.0449" x2="48.0407" y2="74.0957" gradientUnits="userSpaceOnUse">
<stop stop-color="#B7BEC5"/>
<stop offset="0.62" stop-color="#919B9B" stop-opacity="0.5"/>
<stop offset="0.98" stop-color="#6B7870" stop-opacity="0"/>
</linearGradient>
<linearGradient id="paint24_linear_7_3851" x1="45.7031" y1="40.4433" x2="68.8947" y2="72.4841" gradientUnits="userSpaceOnUse">
<stop stop-color="#4F5579"/>
<stop offset="0.61" stop-color="#6E6F8C" stop-opacity="0.5"/>
<stop offset="0.98" stop-color="#8D8A9F" stop-opacity="0"/>
</linearGradient>
<linearGradient id="paint25_linear_7_3851" x1="32.2271" y1="50.0137" x2="64.881" y2="63.0223" gradientUnits="userSpaceOnUse">
<stop stop-color="#282438"/>
<stop offset="0.63" stop-color="#282338" stop-opacity="0.5"/>
<stop offset="1" stop-color="#272337" stop-opacity="0"/>
</linearGradient>
<radialGradient id="paint26_radial_7_3851" cx="0" cy="0" r="1" gradientUnits="userSpaceOnUse" gradientTransform="translate(52.5143 62.0143) rotate(-26) scale(24.3464 19.0537)">
<stop offset="0.58" stop-color="#373453"/>
<stop offset="0.9" stop-color="#535072" stop-opacity="0.5"/>
<stop offset="1" stop-color="#706C92" stop-opacity="0"/>
</radialGradient>
<radialGradient id="paint27_radial_7_3851" cx="0" cy="0" r="1" gradientUnits="userSpaceOnUse" gradientTransform="translate(61.0359 52.696) scale(22.9009 22.9009)">
<stop offset="0.23" stop-color="#B87A99"/>
<stop offset="0.75" stop-color="#B27D9D" stop-opacity="0.5"/>
<stop offset="1" stop-color="#AD81A1" stop-opacity="0"/>
</radialGradient>
<radialGradient id="paint28_radial_7_3851" cx="0" cy="0" r="1" gradientUnits="userSpaceOnUse" gradientTransform="translate(45.3994 72.7823) rotate(-11) scale(9.00656 5.40394)">
<stop offset="0.26" stop-color="#D9F7F8"/>
<stop offset="0.69" stop-color="#DCF6F5" stop-opacity="0.5"/>
<stop offset="1" stop-color="#DFF4F2" stop-opacity="0"/>
</radialGradient>
<radialGradient id="paint29_radial_7_3851" cx="0" cy="0" r="1" gradientUnits="userSpaceOnUse" gradientTransform="translate(52.7098 47.5007) rotate(-26) scale(24.0691 16.1263)">
<stop offset="0.23" stop-color="#FFC4AC"/>
<stop offset="0.6" stop-color="#FFC4AC" stop-opacity="0.5"/>
<stop offset="1" stop-color="#FFC4AC" stop-opacity="0"/>
</radialGradient>
<radialGradient id="paint30_radial_7_3851" cx="0" cy="0" r="1" gradientUnits="userSpaceOnUse" gradientTransform="translate(68.9118 33.0537) rotate(33) scale(9.25404 4.8121)">
<stop offset="0.26" stop-color="#D9F7F8"/>
<stop offset="0.69" stop-color="#DCF6F5" stop-opacity="0.5"/>
<stop offset="1" stop-color="#DFF4F2" stop-opacity="0"/>
</radialGradient>
<radialGradient id="paint31_radial_7_3851" cx="0" cy="0" r="1" gradientUnits="userSpaceOnUse" gradientTransform="translate(53.1229 54.0076) rotate(31) scale(3.27799 17.2526)">
<stop stop-color="#F0AB95"/>
<stop offset="0.58" stop-color="#EFAE96" stop-opacity="0.5"/>
<stop offset="1" stop-color="#EFB197" stop-opacity="0"/>
</radialGradient>
<radialGradient id="paint32_radial_7_3851" cx="0" cy="0" r="1" gradientUnits="userSpaceOnUse" gradientTransform="translate(36.9657 58.4327) rotate(12) scale(4.95697 16.5232)">
<stop stop-color="#F5F1BD"/>
<stop offset="0.58" stop-color="#F5EFBB" stop-opacity="0.5"/>
<stop offset="1" stop-color="#F5EEBA" stop-opacity="0"/>
</radialGradient>
<radialGradient id="paint33_radial_7_3851" cx="0" cy="0" r="1" gradientUnits="userSpaceOnUse" gradientTransform="translate(53.4677 44.5938) rotate(52) scale(9.06096 12.9442)">
<stop offset="0.26" stop-color="white"/>
<stop offset="0.69" stop-color="#FFFEFE" stop-opacity="0.5"/>
<stop offset="1" stop-color="#FFFDFE" stop-opacity="0"/>
</radialGradient>
<linearGradient id="paint34_linear_7_3851" x1="87.3053" y1="83.6073" x2="52.7752" y2="67.5104" gradientUnits="userSpaceOnUse">
<stop stop-color="#FFE9CC"/>
<stop offset="0.52" stop-color="#FFECD5" stop-opacity="0.5"/>
<stop offset="1" stop-color="#FFF0DF" stop-opacity="0"/>
</linearGradient>
<linearGradient id="paint35_linear_7_3851" x1="75.9769" y1="80.873" x2="35.533" y2="40.4289" gradientUnits="userSpaceOnUse">
<stop offset="0.24" stop-color="white" stop-opacity="0.2"/>
<stop offset="0.85" stop-color="white" stop-opacity="0.6"/>
<stop offset="1" stop-color="white"/>
</linearGradient>
<linearGradient id="paint36_linear_7_3851" x1="56.2505" y1="94.5449" x2="56.2505" y2="23.6156" gradientUnits="userSpaceOnUse">
<stop offset="0.02" stop-color="#9C6874"/>
<stop offset="0.65" stop-color="#674E71"/>
<stop offset="1" stop-color="#31336E"/>
</linearGradient>
<linearGradient id="paint37_linear_7_3851" x1="28.5161" y1="54.3106" x2="84.188" y2="64.127" gradientUnits="userSpaceOnUse">
<stop offset="0.05" stop-color="#291F3F"/>
<stop offset="0.44" stop-color="#5E4A5E" stop-opacity="0.5"/>
<stop offset="0.75" stop-color="#92767C" stop-opacity="0"/>
</linearGradient>
<clipPath id="clip0_7_3851">
<rect width="100" height="100" fill="white"/>
</clipPath>
</defs>
</svg>
