<svg width="100" height="100" viewBox="0 0 100 100" fill="none" xmlns="http://www.w3.org/2000/svg">
<g clip-path="url(#clip0_7_1808)">
<mask id="mask0_7_1808" style="mask-type:luminance" maskUnits="userSpaceOnUse" x="0" y="0" width="100" height="100">
<path d="M100 0H0V100H100V0Z" fill="white"/>
</mask>
<g mask="url(#mask0_7_1808)">
<path d="M59.7471 36.3214C59.9967 26.4216 58.2629 1.92473 47.4852 2.53918C36.5672 3.16164 35.7258 22.1064 35.5352 36.7943L38.1098 36.3386C38.2766 32.7757 36.517 5.68547 47.3414 5.28723C57.1287 4.92707 57.2998 29.7456 57.1297 35.0814" fill="#CE4516"/>
<path d="M59.7471 36.3214C59.9967 26.4216 58.2629 1.92473 47.4852 2.53918C36.5672 3.16164 35.7258 22.1064 35.5352 36.7943L38.1098 36.3386C38.2766 32.7757 36.517 5.68547 47.3414 5.28723C57.1287 4.92707 57.2998 29.7456 57.1297 35.0814" stroke="#5E2800" stroke-width="1.17188" stroke-linecap="round" stroke-linejoin="round"/>
<g opacity="0.5">
<path d="M51.3514 65.4033C51.1032 60.2971 47.3473 57.9158 43.6921 58.067C42.8866 51.8939 41.6165 39.2094 41.3622 37.891C41.0749 36.401 39.8776 35.8383 38.2833 33.9818C38.2833 33.9818 39.5307 48.5293 43.1532 58.1082C42.784 58.1488 42.418 58.2156 42.0585 58.308C38.6251 50.4545 36.6188 42.1162 34.6114 33.7246C33.5626 37.0947 34.5055 48.6727 41.168 58.5955C38.5231 59.6334 36.4516 62.1695 36.6436 66.1184C36.794 69.2113 38.369 71.3033 40.4364 72.3949C40.5147 77.7617 42.2755 81.8775 44.0215 81.6154C45.8089 81.7094 46.9235 77.8605 46.5813 72.8934C49.3428 71.9816 51.5501 69.4869 51.3514 65.4033ZM44.1915 80.1248C43.3042 79.3855 42.2161 77.8234 42.1479 73.0467C43.0534 73.2732 43.9981 73.3396 44.9237 73.2453C45.3014 78.1732 45.3395 79.8477 44.1915 80.1248Z" fill="url(#paint0_linear_7_1808)"/>
</g>
<path d="M39.1114 32.8804C35.6452 38.0095 37.2909 50.6216 45.8758 61.5675C41.7264 52.4103 38.1899 44.5823 39.1114 32.8804Z" fill="#FF6528"/>
<path d="M39.1114 32.8804C35.6452 38.0095 37.2909 50.6216 45.8758 61.5675C41.7264 52.4103 38.1899 44.5823 39.1114 32.8804Z" stroke="#934500" stroke-width="0.78125" stroke-linecap="round" stroke-linejoin="round"/>
<path d="M44.8261 60.7805C39.8123 69.9377 42.2388 81.5034 45.1482 81.0206C43.467 80.6331 42.8429 73.4918 44.8261 60.7805Z" fill="#FF6528"/>
<path d="M44.8261 60.7805C39.8123 69.9377 42.2388 81.5034 45.1482 81.0206C43.467 80.6331 42.8429 73.4918 44.8261 60.7805Z" stroke="#934500" stroke-width="0.78125" stroke-linecap="round" stroke-linejoin="round"/>
<path d="M45.149 60.5422C50.133 70.2063 47.9391 82.887 44.4551 80.8088C46.6752 81.3131 47.1322 73.2536 45.149 60.5422Z" fill="#FF6528"/>
<path d="M45.149 60.5422C50.133 70.2063 47.9391 82.887 44.4551 80.8088C46.6752 81.3131 47.1322 73.2536 45.149 60.5422Z" stroke="#934500" stroke-width="0.78125" stroke-linecap="round" stroke-linejoin="round"/>
<path d="M41.6611 33.1719C43.1635 35.1035 44.332 35.7236 44.5467 37.226C44.7613 38.7283 45.567 54.7998 46.0822 59.5461C42.2813 49.9604 41.6611 33.1719 41.6611 33.1719Z" fill="#FF6528"/>
<path d="M41.6611 33.1719C43.1635 35.1035 44.332 35.7236 44.5467 37.226C44.7613 38.7283 45.567 54.7998 46.0822 59.5461C42.2813 49.9604 41.6611 33.1719 41.6611 33.1719Z" stroke="#934500" stroke-width="0.78125" stroke-linecap="round" stroke-linejoin="round"/>
<path d="M38.4629 65.1906C38.4629 74.9892 53.1879 75.479 53.1879 65.1906C53.1879 54.9021 38.4629 54.9429 38.4629 65.1906Z" fill="#FF812C"/>
<path d="M38.4629 65.1906C38.4629 74.9892 53.1879 75.479 53.1879 65.1906C53.1879 54.9021 38.4629 54.9429 38.4629 65.1906Z" stroke="#934500" stroke-width="1.17188" stroke-linecap="round" stroke-linejoin="round"/>
<path d="M45.1267 59.8758C45.296 59.4254 45.9685 59.3695 46.2083 59.7791L47.8587 62.3947L50.8089 62.4678C51.3341 62.4649 51.6233 63.1158 51.2735 63.4961L49.2894 65.776L49.8976 68.5547C50.0298 69.0865 49.4327 69.5694 48.9222 69.342L46.4101 68.2918L44.0376 69.7613C43.613 70.0406 43.0169 69.6926 43.0597 69.2041C43.1013 68.2945 43.0513 67.0178 44.0196 66.5088L46.3872 65.0481C46.5151 64.9742 46.43 64.7711 46.2858 64.8088L43.295 65.5137C42.4388 65.7924 41.5433 64.9824 40.8903 64.5787C40.4042 64.2817 40.5581 63.4985 41.1265 63.3877L43.9458 62.7645L45.1267 59.8758Z" fill="#934500"/>
<path d="M39.3408 68.9355C42.5121 74.8967 53.1877 73.9508 53.1877 65.1904" stroke="#5E2800" stroke-width="1.17188" stroke-linecap="round" stroke-linejoin="round"/>
<path d="M92.8684 82.4347C93.7313 85.217 92.0619 86.0769 73.7715 89.117C61.4764 91.1605 35.3361 95.891 27.0725 97.2844C18.8088 98.6777 13.7162 91.9515 10.4012 89.0689C7.08615 86.1863 7.08595 84.2164 7.9508 79.4119C7.9508 79.4119 5.98107 77.5863 5.74084 72.3013C5.5006 67.0164 13.227 45.8629 13.7162 37.4693C13.9535 33.4006 16.8674 33.5363 22.9455 32.0847C29.0236 30.6332 71.4315 27.742 77.8983 30.8092" fill="url(#paint1_linear_7_1808)"/>
<path d="M92.8684 82.4347C93.7313 85.217 92.0619 86.0769 73.7715 89.117C61.4764 91.1605 35.3361 95.891 27.0725 97.2844C18.8088 98.6777 13.7162 91.9515 10.4012 89.0689C7.08615 86.1863 7.08595 84.2164 7.9508 79.4119C7.9508 79.4119 5.98107 77.5863 5.74084 72.3013C5.5006 67.0164 13.227 45.8629 13.7162 37.4693C13.9535 33.4006 16.8674 33.5363 22.9455 32.0847C29.0236 30.6332 71.4315 27.742 77.8983 30.8092" stroke="#934500" stroke-width="1.17188" stroke-linecap="round" stroke-linejoin="round"/>
<path d="M92.8687 82.4347C93.7316 85.2169 92.0623 86.0769 73.7719 89.1169C61.4768 91.1605 35.3365 95.8909 27.0728 97.2843C18.8092 98.6776 13.7166 91.9515 10.4016 89.0688C7.08652 86.1862 7.08633 84.2163 7.95117 79.4118C7.95117 79.4118 5.98144 77.5862 5.74121 72.3013" stroke="#5E2800" stroke-width="1.17188" stroke-linecap="round" stroke-linejoin="round"/>
<path d="M17.1696 43.2278C16.3603 57.8676 14.479 69.3122 9.10967 73.7848C6.31065 76.1165 11.1888 79.1469 13.6624 77.3258C16.136 75.5047 15.18 80.8711 19.1255 80.8161C22.1341 80.7741 22.4304 72.6303 17.1696 43.2278Z" fill="url(#paint2_linear_7_1808)"/>
<path d="M15.314 37.9712C14.0999 48.0882 8.30033 62.6562 7.45716 66.9052C6.614 71.1542 10.5933 72.5708 11.6894 67.6472C12.7855 62.7235 17.5398 42.5237 15.314 37.9712Z" fill="url(#paint3_linear_7_1808)"/>
<path d="M21.0982 94.6903C18.4678 85.6723 9.46405 80.7833 8.26854 79.4504C7.61717 81.477 4.80995 86.2061 21.0982 94.6903Z" fill="url(#paint4_linear_7_1808)"/>
<path d="M18.4346 46.1594C19.3768 51.8702 21.6551 70.6739 22.5656 73.3549C23.4762 76.036 23.6213 80.1704 23.6027 84.7618C25.449 77.1741 23.2227 73.5598 22.3971 66.6694C20.7729 53.1137 19.851 49.6434 18.4346 46.1594Z" fill="#FF9A78"/>
<path d="M14.7057 32.8695C38.1441 27.6892 59.7699 25.6732 78.7793 28.7966C78.8467 30.0199 78.8453 30.4505 78.8854 30.9626C80.1562 31.4265 81.9713 32.4808 82.0793 33.3222C82.351 35.4374 17.2406 40.9335 16.4893 37.8394C16.2791 36.9742 15.498 35.7023 14.4189 34.999C14.5033 34.5388 14.6674 33.7179 14.7057 32.8695Z" fill="url(#paint5_linear_7_1808)"/>
<path d="M14.7057 32.8695C38.1441 27.6892 59.7699 25.6732 78.7793 28.7966C78.8467 30.0199 78.8453 30.4505 78.8854 30.9626C80.1562 31.4265 81.9713 32.4808 82.0793 33.3222C82.351 35.4374 17.2406 40.9335 16.4893 37.8394C16.2791 36.9742 15.498 35.7023 14.4189 34.999C14.5033 34.5388 14.6674 33.7179 14.7057 32.8695Z" stroke="#934500" stroke-width="1.17188" stroke-linecap="round" stroke-linejoin="round"/>
<path d="M14.7102 32.6858C34.7448 26.1999 70.2497 24.9026 83.2696 28.6501C83.9903 29.7552 84.7589 31.7009 85.1913 32.6858C83.894 33.5987 82.7524 35.2483 81.5753 36.1612C82.0557 38.8757 82.3409 42.3782 82.3169 42.6982C82.2929 43.0181 80.9095 46.7878 80.5972 46.956C80.2849 47.1241 69.8434 47.8339 69.435 47.5937C69.0266 47.3534 66.0253 43.9175 65.6409 43.5331C65.2565 43.1487 64.6284 36.3132 64.8206 35.9528C65.0128 35.5925 65.3134 34.623 64.6884 33.4425C63.7155 31.6048 60.4005 32.0372 61.013 34.1511C61.4265 35.578 62.9829 36.061 63.0309 36.3372C63.079 36.6134 64.1386 43.329 64.1065 43.6173C64.0745 43.9056 62.3499 48.2204 62.0497 48.3524C61.7495 48.4845 48.2177 49.6909 47.6331 49.4907C47.0485 49.2905 44.0089 46.4149 43.6366 45.9105C43.2643 45.406 42.6722 39.1478 42.8163 38.8114C42.9604 38.4751 44.0294 37.178 42.9845 35.3763C41.9395 33.5745 38.6364 33.6587 38.8198 36.3843C38.9104 37.7323 40.1751 38.4136 40.9557 38.8819C41.1239 39.5187 42.0968 45.4817 42.0968 45.8661C42.0968 46.2505 39.7198 50.6171 39.4876 50.7933C39.2554 50.9694 27.0196 52.5278 26.5391 52.3517C26.0587 52.1755 22.5141 48.1741 22.2899 47.9339C22.0657 47.6937 21.3979 40.6683 21.1097 40.38C20.8214 40.0917 17.0005 37.6023 16.536 37.2339C16.0716 36.8655 14.3419 33.4386 14.7102 32.6858Z" fill="url(#paint6_linear_7_1808)"/>
<path d="M14.7102 32.6858C34.7448 26.1999 70.2497 24.9026 83.2696 28.6501C83.9903 29.7552 84.7589 31.7009 85.1913 32.6858C83.894 33.5987 82.7524 35.2483 81.5753 36.1612C82.0557 38.8757 82.3409 42.3782 82.3169 42.6982C82.2929 43.0181 80.9095 46.7878 80.5972 46.956C80.2848 47.1241 69.8434 47.8339 69.435 47.5937C69.0266 47.3534 66.0253 43.9175 65.6409 43.5331C65.2565 43.1487 64.6284 36.3132 64.8206 35.9528C65.0128 35.5925 65.3134 34.623 64.6884 33.4425C63.7155 31.6048 60.4005 32.0372 61.013 34.1511C61.4265 35.578 62.9829 36.061 63.0309 36.3372C63.079 36.6134 64.1386 43.329 64.1065 43.6173C64.0745 43.9056 62.3499 48.2204 62.0497 48.3524C61.7495 48.4845 48.2177 49.6909 47.6331 49.4907C47.0485 49.2905 44.0089 46.4149 43.6366 45.9105C43.2643 45.406 42.6722 39.1478 42.8163 38.8114C42.9604 38.4751 44.0294 37.178 42.9845 35.3763C41.9395 33.5745 38.6364 33.6587 38.8198 36.3843C38.9104 37.7323 40.1751 38.4136 40.9557 38.8819C41.1239 39.5187 42.0968 45.4817 42.0968 45.8661C42.0968 46.2505 39.7198 50.6171 39.4876 50.7933C39.2554 50.9694 27.0196 52.5278 26.5391 52.3517C26.0587 52.1755 22.5141 48.1741 22.2899 47.9339C22.0657 47.6937 21.3979 40.6683 21.1097 40.38C20.8214 40.0917 17.0005 37.6023 16.536 37.2339C16.0716 36.8655 14.3419 33.4386 14.7102 32.6858Z" stroke="#934500" stroke-width="1.17188" stroke-linecap="round" stroke-linejoin="round"/>
<path d="M21.11 40.38C20.8217 40.0917 17.0006 37.6022 16.5361 37.2339" stroke="#5E2800" stroke-width="1.17188" stroke-linecap="round" stroke-linejoin="round"/>
<path d="M42.9846 35.3761C41.9396 33.5743 38.6365 33.6585 38.8199 36.3841C38.9105 37.7321 40.1752 38.4134 40.9559 38.8818C41.124 39.5185 42.0969 45.4818 42.0969 45.8661C42.0969 46.2505 39.7199 50.6169 39.4877 50.7931C39.2555 50.9693 27.0197 52.5277 26.5393 52.3515C26.0588 52.1753 22.5143 48.1739 22.29 47.9337" stroke="#5E2800" stroke-width="1.17188" stroke-linecap="round" stroke-linejoin="round"/>
<path d="M64.6883 33.4424C63.7154 31.6047 60.4004 32.0371 61.0129 34.151C61.4264 35.5779 62.9828 36.0607 63.0309 36.3369C63.0789 36.6131 64.1385 43.3289 64.1064 43.6172C64.0744 43.9055 62.3498 48.2203 62.0496 48.3523C61.7494 48.4844 48.2176 49.6906 47.633 49.4904C47.0484 49.2902 44.009 46.4148 43.6367 45.9104" stroke="#5E2800" stroke-width="1.17188" stroke-linecap="round" stroke-linejoin="round"/>
<path d="M85.191 32.6858C83.8938 33.5987 82.7521 35.2483 81.575 36.1612C82.0555 38.8756 82.3406 42.3782 82.3166 42.6981C82.2926 43.018 80.9092 46.7877 80.5969 46.9559C80.2846 47.1241 69.843 47.834 69.4346 47.5938C69.0262 47.3536 66.025 43.9174 65.6406 43.5331" stroke="#5E2800" stroke-width="1.17188" stroke-linecap="round" stroke-linejoin="round"/>
<path d="M16.5508 37.7138C18.2215 44.3304 20.3941 68.146 22.1238 73.4454C23.8535 78.7448 22.1879 92.6243 23.9816 94.0122C25.7754 95.4001 46.6586 91.6149 67.2215 88.2712C87.7844 84.9274 93.4217 83.7917 94.0623 81.3313C94.7029 78.871 93.742 70.1019 92.3967 65.5595C91.0514 61.0171 83.0988 41.8177 82.1473 33.2583C73.7797 34.5286 27.0023 38.2884 16.5508 37.7138Z" fill="url(#paint7_radial_7_1808)"/>
<path d="M16.5508 37.7138C18.2215 44.3304 20.3941 68.146 22.1238 73.4454C23.8535 78.7448 22.1879 92.6243 23.9816 94.0122C25.7754 95.4001 46.6586 91.6149 67.2215 88.2712C87.7844 84.9274 93.4217 83.7917 94.0623 81.3313C94.7029 78.871 93.742 70.1019 92.3967 65.5595C91.0514 61.0171 83.0988 41.8177 82.1473 33.2583C73.7797 34.5286 27.0023 38.2884 16.5508 37.7138Z" stroke="#934500" stroke-width="1.17188" stroke-linecap="round" stroke-linejoin="round"/>
<path d="M22.124 73.4504C23.8537 78.7498 22.1881 92.6293 23.9818 94.0172C25.7756 95.4051 46.6588 91.6199 67.2217 88.2762C87.7846 84.9324 93.4219 83.7967 94.0625 81.3363C94.7031 78.876 93.7422 70.1068 92.3969 65.5645" stroke="#5E2800" stroke-width="1.17188" stroke-linecap="round" stroke-linejoin="round"/>
<path d="M80.8096 34.3228C81.5402 43.7122 88.1621 57.606 89.4072 62.4735C92.1951 73.3722 68.1937 67.9872 50.6613 75.3456C34.6424 82.0686 21.0436 43.2681 20.2236 38.7812C36.3289 38.5255 59.5711 36.5235 80.8096 34.3228Z" fill="url(#paint8_linear_7_1808)"/>
<path d="M17.3301 38.8563C25.1623 40.6138 66.0346 37.5079 81.6609 34.3638C81.7875 35.4261 82.5057 39.1132 82.9381 40.004C82.3311 40.5856 81.5799 41.696 80.4027 42.5216C80.8832 44.9767 81.3877 47.0271 81.3637 47.3163C81.3397 47.6056 80.2854 49.0839 79.973 49.236C79.6607 49.3882 69.5928 50.2345 69.1844 50.0173C68.776 49.8001 66.8063 48.214 66.4219 47.8663C66.0375 47.5187 64.8123 47.5765 64.7803 47.8372C64.7482 48.0979 62.8424 50.6472 62.5422 50.7667C62.242 50.8862 48.1811 52.3855 47.5965 52.2044C47.0119 52.0233 44.2854 50.0716 43.9131 49.6153C43.5408 49.1591 41.8232 49.5827 41.8232 49.9304C41.8232 50.278 40.3578 52.7185 40.1256 52.8778C39.8934 53.0372 26.817 54.5267 26.3365 54.3673C25.8561 54.2079 22.7162 50.5577 22.492 50.3405C22.2678 50.1233 22.5654 46.331 22.2771 46.0702C21.9889 45.8095 18.5533 43.4354 18.0889 43.1022C17.9119 42.0569 17.5008 39.7952 17.3301 38.8563Z" fill="#C35547"/>
<path d="M60.6553 43.4499L64.7443 47.6896L67.5209 42.9147L63.8328 33.9126L61.2699 34.1132L60.6553 43.4499Z" fill="#FF6528"/>
<path d="M60.6553 43.4499L64.7443 47.6896L67.5209 42.9147L63.8328 33.9126L61.2699 34.1132L60.6553 43.4499Z" stroke="#934500" stroke-width="1.17188" stroke-linecap="round" stroke-linejoin="round"/>
<path d="M39.5934 36.1396L38.8545 45.7836L43.273 50.1307L46.4854 44.8855L42.4697 35.7354" fill="#FF6528"/>
<path d="M39.5934 36.1396L38.8545 45.7836L43.273 50.1307L46.4854 44.8855L42.4697 35.7354" stroke="#934500" stroke-width="1.17188" stroke-linecap="round" stroke-linejoin="round"/>
<path d="M14.7102 32.6858C34.7448 26.1999 70.2497 24.9026 83.2696 28.6501C83.9903 29.7552 84.7589 31.7009 85.1913 32.6858C83.894 33.5987 82.7524 35.2483 81.5753 36.1612C82.0557 38.8757 82.3409 42.3782 82.3169 42.6982C82.2929 43.0181 80.9095 46.7878 80.5972 46.956C80.2849 47.1241 69.8434 47.8339 69.435 47.5937C69.0266 47.3534 66.0253 43.9175 65.6409 43.5331C65.2565 43.1487 64.6284 36.3132 64.8206 35.9528C65.0128 35.5925 65.3134 34.623 64.6884 33.4425C63.7155 31.6048 60.4005 32.0372 61.013 34.1511C61.4265 35.578 62.9829 36.061 63.0309 36.3372C63.079 36.6134 64.1386 43.329 64.1065 43.6173C64.0745 43.9056 62.3499 48.2204 62.0497 48.3524C61.7495 48.4845 48.2177 49.6909 47.6331 49.4907C47.0485 49.2905 44.0089 46.4149 43.6366 45.9105C43.2643 45.406 42.6722 39.1478 42.8163 38.8114C42.9604 38.4751 44.0294 37.178 42.9845 35.3763C41.9395 33.5745 38.6364 33.6587 38.8198 36.3843C38.9104 37.7323 40.1751 38.4136 40.9557 38.8819C41.1239 39.5187 42.0968 45.4817 42.0968 45.8661C42.0968 46.2505 39.7198 50.6171 39.4876 50.7933C39.2554 50.9694 27.0196 52.5278 26.5391 52.3517C26.0587 52.1755 22.5141 48.1741 22.2899 47.9339C22.0657 47.6937 21.3979 40.6683 21.1097 40.38C20.8214 40.0917 17.0005 37.6023 16.536 37.2339C16.0716 36.8655 14.3419 33.4386 14.7102 32.6858Z" fill="url(#paint9_linear_7_1808)"/>
<path d="M14.7102 32.6858C34.7448 26.1999 70.2497 24.9026 83.2696 28.6501C83.9903 29.7552 84.7589 31.7009 85.1913 32.6858C83.894 33.5987 82.7524 35.2483 81.5753 36.1612C82.0557 38.8757 82.3409 42.3782 82.3169 42.6982C82.2929 43.0181 80.9095 46.7878 80.5972 46.956C80.2848 47.1241 69.8434 47.8339 69.435 47.5937C69.0266 47.3534 66.0253 43.9175 65.6409 43.5331C65.2565 43.1487 64.6284 36.3132 64.8206 35.9528C65.0128 35.5925 65.3134 34.623 64.6884 33.4425C63.7155 31.6048 60.4005 32.0372 61.013 34.1511C61.4265 35.578 62.9829 36.061 63.0309 36.3372C63.079 36.6134 64.1386 43.329 64.1065 43.6173C64.0745 43.9056 62.3499 48.2204 62.0497 48.3524C61.7495 48.4845 48.2177 49.6909 47.6331 49.4907C47.0485 49.2905 44.0089 46.4149 43.6366 45.9105C43.2643 45.406 42.6722 39.1478 42.8163 38.8114C42.9604 38.4751 44.0294 37.178 42.9845 35.3763C41.9395 33.5745 38.6364 33.6587 38.8198 36.3843C38.9104 37.7323 40.1751 38.4136 40.9557 38.8819C41.1239 39.5187 42.0968 45.4817 42.0968 45.8661C42.0968 46.2505 39.7198 50.6171 39.4876 50.7933C39.2554 50.9694 27.0196 52.5278 26.5391 52.3517C26.0587 52.1755 22.5141 48.1741 22.2899 47.9339C22.0657 47.6937 21.3979 40.6683 21.1097 40.38C20.8214 40.0917 17.0005 37.6023 16.536 37.2339C16.0716 36.8655 14.3419 33.4386 14.7102 32.6858Z" stroke="#934500" stroke-width="1.17188" stroke-linecap="round" stroke-linejoin="round"/>
<path d="M21.11 40.38C20.8217 40.0917 17.0006 37.6022 16.5361 37.2339" stroke="#5E2800" stroke-width="1.17188" stroke-linecap="round" stroke-linejoin="round"/>
<path d="M42.9846 35.3761C41.9396 33.5743 38.6365 33.6585 38.8199 36.3841C38.9105 37.7321 40.1752 38.4134 40.9559 38.8818C41.124 39.5185 42.0969 45.4818 42.0969 45.8661C42.0969 46.2505 39.7199 50.6169 39.4877 50.7931C39.2555 50.9693 27.0197 52.5277 26.5393 52.3515C26.0588 52.1753 22.5143 48.1739 22.29 47.9337" stroke="#5E2800" stroke-width="1.17188" stroke-linecap="round" stroke-linejoin="round"/>
<path d="M64.6883 33.4424C63.7154 31.6047 60.4004 32.0371 61.0129 34.151C61.4264 35.5779 62.9828 36.0607 63.0309 36.3369C63.0789 36.6131 64.1385 43.3289 64.1064 43.6172C64.0744 43.9055 62.3498 48.2203 62.0496 48.3523C61.7494 48.4844 48.2176 49.6906 47.633 49.4904C47.0484 49.2902 44.009 46.4148 43.6367 45.9104" stroke="#5E2800" stroke-width="1.17188" stroke-linecap="round" stroke-linejoin="round"/>
<path d="M85.191 32.6858C83.8938 33.5987 82.7521 35.2483 81.575 36.1612C82.0555 38.8756 82.3406 42.3782 82.3166 42.6981C82.2926 43.018 80.9092 46.7877 80.5969 46.9559C80.2846 47.1241 69.843 47.834 69.4346 47.5938C69.0262 47.3536 66.025 43.9174 65.6406 43.5331" stroke="#5E2800" stroke-width="1.17188" stroke-linecap="round" stroke-linejoin="round"/>
<path d="M64.0692 34.5044C62.7673 22.9255 58.0798 3.20088 48.5159 3.74033C38.2837 4.31748 38.5001 23.2585 39.6546 36.878C40.2981 36.8294 41.9905 36.5985 42.5174 36.388C42.351 33.0843 38.8155 6.68486 48.9862 6.68486C57.0266 6.68486 60.8766 29.7673 61.201 34.7149" fill="#FF6528"/>
<path d="M64.0692 34.5044C62.7673 22.9255 58.0798 3.20088 48.5159 3.74033C38.2837 4.31748 38.5001 23.2585 39.6546 36.878C40.2981 36.8294 41.9905 36.5985 42.5174 36.388C42.351 33.0843 38.8155 6.68486 48.9862 6.68486C57.0266 6.68486 60.8766 29.7673 61.201 34.7149" stroke="#934500" stroke-width="1.17188" stroke-linecap="round" stroke-linejoin="round"/>
<path d="M40.173 36.2283C40.173 36.2283 40.1244 37.0373 40.0762 37.4414C40.7148 37.5932 41.8848 37.2516 42.3969 37.043C41.9715 35.9479 41.9844 35.6512 41.7043 35.4203C41.4242 35.1895 40.334 35.0557 40.173 36.2283Z" fill="#FF6528"/>
<path d="M42.5176 36.3877C42.3511 33.084 38.8158 6.68457 48.9865 6.68457C57.0269 6.68457 60.8769 29.7672 61.2013 34.7148" stroke="#5E2800" stroke-width="1.17188" stroke-linecap="round" stroke-linejoin="round"/>
<path d="M52.5914 5.3965C45.5656 1.46643 37.9148 7.37229 39.8932 32.5529C39.9885 18.5524 40.7457 1.24045 52.5914 5.3965Z" fill="#FF9A78"/>
<path d="M72.6691 41.9861L71.9648 34.6963L73.8516 34.7211L74.5352 41.8832L72.6691 41.9861Z" fill="url(#paint10_linear_7_1808)"/>
<path d="M72.6691 41.9861L71.9648 34.6963L73.8516 34.7211L74.5352 41.8832L72.6691 41.9861Z" stroke="#815A5A" stroke-width="0.78125" stroke-linecap="round" stroke-linejoin="round"/>
<path d="M71.9891 34.6963L70.9068 35.0801L71.3949 40.5398L70.7656 40.6719L70.9188 41.9861H72.6688L71.9891 34.6963Z" fill="#EAA2A2"/>
<path d="M71.9891 34.6963L70.9068 35.0801L71.3949 40.5398L70.7656 40.6719L70.9188 41.9861H72.6688L71.9891 34.6963Z" stroke="#815A5A" stroke-width="0.78125" stroke-linecap="round" stroke-linejoin="round"/>
<path d="M30.8635 45.7835L29.6475 38.2942L31.9877 38.0093L33.1818 45.3499L30.8635 45.7835Z" fill="url(#paint11_linear_7_1808)"/>
<path d="M30.8635 45.7835L29.6475 38.2942L31.9877 38.0093L33.1818 45.3499L30.8635 45.7835Z" stroke="#815A5A" stroke-width="0.78125" stroke-linecap="round" stroke-linejoin="round"/>
<path d="M29.5664 38.3298L29.2734 38.6546L30.3979 45.6519L30.8633 45.7837L29.5664 38.3298Z" fill="#EAA2A2"/>
<path d="M29.5664 38.3298L29.2734 38.6546L30.3979 45.6519L30.8633 45.7837L29.5664 38.3298Z" stroke="#815A5A" stroke-width="0.78125" stroke-linecap="round" stroke-linejoin="round"/>
<path d="M81.9996 36.125C82.265 37.6023 82.7707 39.8482 82.7707 39.8482C77.0469 40.5723 67.7437 40.1109 61.4021 40.4766C61.2789 40.4836 61.5234 41.4539 61.4023 41.4617C60.1064 41.5447 53.0389 42.36 52.0697 42.5361L50.5936 41.4203L50.1729 38.5367L51.2693 37.1111C52.1604 37.0238 59.6875 36.3959 60.6408 36.343C60.774 36.3355 60.6633 36.816 60.7975 36.8092C67.3029 36.4783 74.3736 36.8652 81.9996 36.125Z" fill="#5E2800" fill-opacity="0.33"/>
<path d="M82.0381 36.125C82.2902 37.6023 82.7709 39.8482 82.7709 39.8482C76.0928 40.7371 64.2879 39.8393 58.8578 40.8785L58.1904 37.1232C64.8873 36.4324 73.5703 36.9898 82.0381 36.125Z" fill="#FF6528"/>
<path d="M82.0381 36.125C82.2902 37.6023 82.7709 39.8482 82.7709 39.8482C76.0928 40.7371 64.2879 39.8393 58.8578 40.8785L58.1904 37.1232C64.8873 36.4324 73.5703 36.9898 82.0381 36.125Z" stroke="#934500" stroke-width="1.17188" stroke-linecap="round" stroke-linejoin="round"/>
<path d="M82.7707 39.8481C76.0926 40.737 64.2875 39.8394 58.8574 40.8786" stroke="#5E2800" stroke-width="1.17188" stroke-linecap="round" stroke-linejoin="round"/>
<path d="M50 38.5366L50.3488 41.4817L51.9672 42.5805L61.5605 41.4456L60.7332 36.2649L51.0857 36.9971L50 38.5366Z" fill="url(#paint12_linear_7_1808)"/>
<path d="M50 38.5366L50.3488 41.4817L51.9672 42.5805L61.5605 41.4456L60.7332 36.2649L51.0857 36.9971L50 38.5366Z" stroke="#815A5A" stroke-width="0.78125" stroke-linecap="round" stroke-linejoin="round"/>
<path d="M19.6982 40.9351L20.3707 45.48C26.5684 45.657 37.2209 42.7793 46.8037 41.9986C46.9912 41.9834 46.8824 42.6683 47.0705 42.6547C48.5836 42.5445 54.5877 41.9082 56.1279 41.9228L57.0734 40.4666L56.8588 38.0084L55.3566 36.4455C54.1857 36.4068 48.2057 37.0709 47.0508 37.1238C46.8318 37.1338 47.1568 37.6277 46.9383 37.6406C38.7371 38.123 28.9801 40.6058 19.6982 40.9351Z" fill="#5E2800" fill-opacity="0.33"/>
<path d="M19.6982 40.9351L20.3707 45.48C27.6654 45.6882 38.632 41.7652 50.1467 41.8746L49.2768 37.6515C39.5559 37.3312 30.5322 40.5507 19.6982 40.9351Z" fill="#FF6528"/>
<path d="M19.6982 40.9351L20.3707 45.48C27.6654 45.6882 38.632 41.7652 50.1467 41.8746L49.2768 37.6515C39.5559 37.3312 30.5322 40.5507 19.6982 40.9351Z" stroke="#934500" stroke-width="1.17188" stroke-linecap="round" stroke-linejoin="round"/>
<path d="M20.3711 45.48C27.6658 45.6882 38.6326 41.7652 50.1473 41.8746" stroke="#5E2800" stroke-width="1.17188" stroke-linecap="round" stroke-linejoin="round"/>
<path d="M46.792 37.0437L47.4535 42.8921L56.2596 42.0132L57.3111 39.871L57.0367 37.6636L55.8025 36.3718L46.792 37.0437Z" fill="url(#paint13_linear_7_1808)"/>
<path d="M46.792 37.0437L47.4535 42.8921L56.2596 42.0132L57.3111 39.871L57.0367 37.6636L55.8025 36.3718L46.792 37.0437Z" stroke="#815A5A" stroke-width="0.78125" stroke-linecap="round" stroke-linejoin="round"/>
<path d="M51.0107 39.3075L55.3775 38.9192" stroke="#593E3E" stroke-width="1.17188" stroke-linecap="round" stroke-linejoin="round"/>
<path d="M49.2363 30.7184L50.4352 37.5301L58.0625 36.742L58.777 35.7024L49.9607 29.6829L49.2363 30.7184Z" fill="url(#paint14_linear_7_1808)"/>
<path d="M49.2363 30.7184L50.4352 37.5301L58.0625 36.742L58.777 35.7024L49.9607 29.6829L49.2363 30.7184Z" stroke="#5B4A4A" stroke-width="0.78125" stroke-linecap="round" stroke-linejoin="round"/>
<path d="M51.0905 29.871L50.8389 28.0032C50.3069 24.9636 54.6602 24.6001 55.3071 27.4311L56.308 32.6163" stroke="#BA8181" stroke-width="1.75781" stroke-linecap="round" stroke-linejoin="round"/>
<path d="M50.7321 29.5553L50.4805 27.6875C49.9485 24.6479 54.3018 24.2844 54.9487 27.1155L55.9496 32.3006" stroke="white" stroke-width="0.390625" stroke-linecap="round" stroke-linejoin="round"/>
<path d="M49.9512 29.6258L51.15 36.4375L58.7773 35.6495L57.3895 28.9719L49.9512 29.6258Z" fill="url(#paint15_linear_7_1808)"/>
<path d="M49.9512 29.6258L51.15 36.4375L58.7773 35.6495L57.3895 28.9719L49.9512 29.6258Z" stroke="#815A5A" stroke-width="0.78125" stroke-linecap="round" stroke-linejoin="round"/>
<path d="M51.626 35.909L50.6592 30.1975L56.9814 29.6035" stroke="white" stroke-width="0.390625" stroke-linecap="round" stroke-linejoin="round"/>
<path d="M53.9821 39.1927C54.3534 41.464 55.8145 41.2931 55.3977 38.7914C55.0069 36.446 53.5756 36.7062 53.9821 39.1927Z" fill="#E1B7B7"/>
<path d="M53.9821 39.1927C54.3534 41.464 55.8145 41.2931 55.3977 38.7914C55.0069 36.446 53.5756 36.7062 53.9821 39.1927Z" stroke="#815A5A" stroke-width="0.78125" stroke-linecap="round" stroke-linejoin="round"/>
<path d="M54.8021 38.0327C54.4433 37.2926 54.1262 37.8786 54.2818 39.2469" stroke="white" stroke-width="0.390625" stroke-linecap="round" stroke-linejoin="round"/>
<path d="M72.6691 41.9861L71.9648 34.6963L73.8516 34.7211L74.5352 41.8832L72.6691 41.9861Z" fill="url(#paint16_linear_7_1808)"/>
<path d="M72.6691 41.9861L71.9648 34.6963L73.8516 34.7211L74.5352 41.8832L72.6691 41.9861Z" stroke="#815A5A" stroke-width="0.78125" stroke-linecap="round" stroke-linejoin="round"/>
<path d="M71.9891 34.6963L70.9068 35.0801L71.3949 40.5398L70.7656 40.6719L70.9188 41.9861H72.6688L71.9891 34.6963Z" fill="#EAA2A2"/>
<path d="M71.9891 34.6963L70.9068 35.0801L71.3949 40.5398L70.7656 40.6719L70.9188 41.9861H72.6688L71.9891 34.6963Z" stroke="#815A5A" stroke-width="0.78125" stroke-linecap="round" stroke-linejoin="round"/>
<path d="M30.8635 45.7835L29.6475 38.2942L31.9877 38.0093L33.1818 45.3499L30.8635 45.7835Z" fill="url(#paint17_linear_7_1808)"/>
<path d="M30.8635 45.7835L29.6475 38.2942L31.9877 38.0093L33.1818 45.3499L30.8635 45.7835Z" stroke="#815A5A" stroke-width="0.78125" stroke-linecap="round" stroke-linejoin="round"/>
<path d="M29.5664 38.3298L29.2734 38.6546L30.3979 45.6519L30.8633 45.7837L29.5664 38.3298Z" fill="#EAA2A2"/>
<path d="M29.5664 38.3298L29.2734 38.6546L30.3979 45.6519L30.8633 45.7837L29.5664 38.3298Z" stroke="#815A5A" stroke-width="0.78125" stroke-linecap="round" stroke-linejoin="round"/>
</g>
</g>
<defs>
<linearGradient id="paint0_linear_7_1808" x1="42.969" y1="59.1797" x2="40.0856" y2="40.5139" gradientUnits="userSpaceOnUse">
<stop stop-color="#EBA3A3"/>
<stop offset="0.07" stop-color="#DE9A9A"/>
<stop offset="0.15" stop-color="#D19191"/>
<stop offset="0.57" stop-color="#E8C8C8"/>
<stop offset="1" stop-color="white"/>
</linearGradient>
<linearGradient id="paint1_linear_7_1808" x1="8.39884" y1="58.5937" x2="24.5186" y2="60.5496" gradientUnits="userSpaceOnUse">
<stop stop-color="#FD7843"/>
<stop offset="0.4" stop-color="#E36348"/>
<stop offset="0.8" stop-color="#CA4F4D"/>
<stop offset="0.9" stop-color="#C44C36"/>
<stop offset="1" stop-color="#BD491E"/>
</linearGradient>
<linearGradient id="paint2_linear_7_1808" x1="16.0159" y1="46.2891" x2="14.4997" y2="78.5852" gradientUnits="userSpaceOnUse">
<stop stop-color="#934500"/>
<stop offset="0.5" stop-color="#93455B" stop-opacity="0.5"/>
<stop offset="1" stop-color="#9345B6" stop-opacity="0"/>
</linearGradient>
<linearGradient id="paint3_linear_7_1808" x1="12.3048" y1="40.4296" x2="10.9675" y2="68.9155" gradientUnits="userSpaceOnUse">
<stop stop-color="#934500"/>
<stop offset="0.5" stop-color="#93455B" stop-opacity="0.5"/>
<stop offset="1" stop-color="#9345B6" stop-opacity="0"/>
</linearGradient>
<linearGradient id="paint4_linear_7_1808" x1="24.2189" y1="85.7422" x2="10.3588" y2="87.5127" gradientUnits="userSpaceOnUse">
<stop stop-color="#934500"/>
<stop offset="0.5" stop-color="#93455B" stop-opacity="0.5"/>
<stop offset="1" stop-color="#9345B6" stop-opacity="0"/>
</linearGradient>
<linearGradient id="paint5_linear_7_1808" x1="54.2977" y1="54.1015" x2="42.1979" y2="13.987" gradientUnits="userSpaceOnUse">
<stop stop-color="#A24742"/>
<stop offset="0.5" stop-color="#D15635"/>
<stop offset="1" stop-color="#FF6528"/>
</linearGradient>
<linearGradient id="paint6_linear_7_1808" x1="50.9774" y1="42.9689" x2="48.9585" y2="26.0327" gradientUnits="userSpaceOnUse">
<stop stop-color="#FF6528"/>
<stop offset="0.5" stop-color="#FF7E3E"/>
<stop offset="1" stop-color="#FF9854"/>
</linearGradient>
<radialGradient id="paint7_radial_7_1808" cx="0" cy="0" r="1" gradientUnits="userSpaceOnUse" gradientTransform="translate(27.7348 -95.5007) scale(178.135 178.135)">
<stop stop-color="#FF6528"/>
<stop offset="0.44" stop-color="#FB6A30"/>
<stop offset="0.89" stop-color="#F86F39"/>
<stop offset="0.93" stop-color="#FB8449"/>
<stop offset="0.97" stop-color="#FF995A"/>
<stop offset="0.99" stop-color="#FF874C"/>
<stop offset="1" stop-color="#FF753E"/>
</radialGradient>
<linearGradient id="paint8_linear_7_1808" x1="45.3133" y1="60.7423" x2="84.135" y2="33.8159" gradientUnits="userSpaceOnUse">
<stop stop-color="#D94500" stop-opacity="0"/>
<stop offset="0.5" stop-color="#D94500" stop-opacity="0.25"/>
<stop offset="1" stop-color="#D94500" stop-opacity="0.5"/>
</linearGradient>
<linearGradient id="paint9_linear_7_1808" x1="50.9774" y1="42.9689" x2="48.9585" y2="26.0327" gradientUnits="userSpaceOnUse">
<stop stop-color="#F8682F"/>
<stop offset="0.5" stop-color="#FB8042"/>
<stop offset="1" stop-color="#FF9854"/>
</linearGradient>
<linearGradient id="paint10_linear_7_1808" x1="74.0244" y1="39.6484" x2="71.4951" y2="35.1633" gradientUnits="userSpaceOnUse">
<stop stop-color="#EBA3A3"/>
<stop offset="0.07" stop-color="#DE9A9A"/>
<stop offset="0.15" stop-color="#D19191"/>
<stop offset="0.57" stop-color="#E8C8C8"/>
<stop offset="1" stop-color="white"/>
</linearGradient>
<linearGradient id="paint11_linear_7_1808" x1="31.8367" y1="43.7499" x2="30.5217" y2="38.5144" gradientUnits="userSpaceOnUse">
<stop stop-color="#EBA3A3"/>
<stop offset="0.07" stop-color="#DE9A9A"/>
<stop offset="0.15" stop-color="#D19191"/>
<stop offset="0.57" stop-color="#E8C8C8"/>
<stop offset="1" stop-color="white"/>
</linearGradient>
<linearGradient id="paint12_linear_7_1808" x1="49.8047" y1="39.2579" x2="61.3652" y2="39.2579" gradientUnits="userSpaceOnUse">
<stop stop-color="#EBA3A3"/>
<stop offset="0.07" stop-color="#DE9A9A"/>
<stop offset="0.15" stop-color="#D19191"/>
<stop offset="0.57" stop-color="#E8C8C8"/>
<stop offset="1" stop-color="white"/>
</linearGradient>
<linearGradient id="paint13_linear_7_1808" x1="4.77734" y1="23.8132" x2="15.5432" y2="22.5833" gradientUnits="userSpaceOnUse">
<stop stop-color="#EBA3A3"/>
<stop offset="0.07" stop-color="#DE9A9A"/>
<stop offset="0.15" stop-color="#D19191"/>
<stop offset="0.57" stop-color="#E8C8C8"/>
<stop offset="1" stop-color="white"/>
</linearGradient>
<linearGradient id="paint14_linear_7_1808" x1="49.2029" y1="33.5764" x2="58.7437" y2="33.5764" gradientUnits="userSpaceOnUse">
<stop stop-color="#C08585"/>
<stop offset="0.07" stop-color="#B37C7C"/>
<stop offset="0.15" stop-color="#A67373"/>
<stop offset="0.38" stop-color="#BE9898"/>
<stop offset="0.61" stop-color="#D6BEBE"/>
</linearGradient>
<linearGradient id="paint15_linear_7_1808" x1="53.6955" y1="32.0139" x2="55.7109" y2="35.0262" gradientUnits="userSpaceOnUse">
<stop stop-color="#EBA3A3"/>
<stop offset="0.07" stop-color="#DE9A9A"/>
<stop offset="0.15" stop-color="#D19191"/>
<stop offset="0.57" stop-color="#E8C8C8"/>
<stop offset="1" stop-color="white"/>
</linearGradient>
<linearGradient id="paint16_linear_7_1808" x1="74.0244" y1="39.6484" x2="71.4951" y2="35.1633" gradientUnits="userSpaceOnUse">
<stop stop-color="#EBA3A3"/>
<stop offset="0.07" stop-color="#DE9A9A"/>
<stop offset="0.15" stop-color="#D19191"/>
<stop offset="0.57" stop-color="#E8C8C8"/>
<stop offset="1" stop-color="white"/>
</linearGradient>
<linearGradient id="paint17_linear_7_1808" x1="31.8367" y1="43.7499" x2="30.5217" y2="38.5144" gradientUnits="userSpaceOnUse">
<stop stop-color="#EBA3A3"/>
<stop offset="0.07" stop-color="#DE9A9A"/>
<stop offset="0.15" stop-color="#D19191"/>
<stop offset="0.57" stop-color="#E8C8C8"/>
<stop offset="1" stop-color="white"/>
</linearGradient>
<clipPath id="clip0_7_1808">
<rect width="100" height="100" fill="white"/>
</clipPath>
</defs>
</svg>
