<svg width="100" height="100" viewBox="0 0 100 100" fill="none" xmlns="http://www.w3.org/2000/svg">
<g clip-path="url(#clip0_7_2069)">
<mask id="mask0_7_2069" style="mask-type:luminance" maskUnits="userSpaceOnUse" x="0" y="0" width="100" height="100">
<path d="M100 0H0V100H100V0Z" fill="white"/>
</mask>
<g mask="url(#mask0_7_2069)">
<path d="M64.9313 20.9333C64.9313 21.9668 63.4902 22.8047 61.7127 22.8047C59.9352 22.8047 58.4941 21.9668 58.4941 20.9333C58.4941 19.8997 59.9352 19.0618 61.7127 19.0618C63.4902 19.0618 64.9313 19.8997 64.9313 20.9333Z" fill="url(#paint0_linear_7_2069)"/>
<path d="M64.9313 20.9333C64.9313 21.9668 63.4902 22.8047 61.7127 22.8047C59.9352 22.8047 58.4941 21.9668 58.4941 20.9333C58.4941 19.8997 59.9352 19.0618 61.7127 19.0618C63.4902 19.0618 64.9313 19.8997 64.9313 20.9333Z" stroke="#403D4F" stroke-width="1.36719" stroke-linecap="round" stroke-linejoin="round"/>
<path d="M89.0982 65.3749C92.2273 59.3702 97.3637 28.9421 70.6406 22.6519C75.1584 31.0735 73.3408 46.5925 73.9535 63.4483C76.6209 64.6491 84.5918 65.922 87.7201 66.153C88.2908 66.1952 88.8297 65.8903 89.0982 65.3749Z" fill="url(#paint1_linear_7_2069)"/>
<path d="M75.6381 59.5278C75.6381 59.5278 79.3646 47.8638 77.4172 30.6763C77.2729 29.4022 78.251 28.5157 79.4066 29.0265C80.9574 29.7118 83.9072 32.8376 85.6676 35.5608C90.7719 43.4569 90.4789 57.1776 87.7832 63.1618C87.4885 63.8163 87.3539 65.3319 78.2344 64.3218C81.2504 65.3319 87.3537 65.4296 88.1316 65.422C91.5041 59.5214 94.3361 47.119 87.4133 34.5011C82.0174 24.6663 72.458 23.7642 72.458 23.7642C72.458 23.7642 78.4941 31.297 75.6381 59.5278Z" fill="url(#paint2_linear_7_2069)"/>
<path d="M89.0982 65.3749C92.2273 59.3702 97.3637 28.9421 70.6406 22.6519C75.1584 31.0735 73.3408 46.5925 73.9535 63.4483C76.6209 64.6491 84.5918 65.922 87.7201 66.153C88.2908 66.1952 88.8297 65.8903 89.0982 65.3749Z" stroke="#0E0B19" stroke-width="1.36719" stroke-linecap="round" stroke-linejoin="round"/>
<path d="M74.0191 63.4485C76.7311 61.1583 78.8498 35.0991 70.64 22.652C56.6967 19.4343 44.6006 21.4858 37.2713 27.1806C26.2279 35.761 25.2266 58.0417 25.2266 58.0417C25.2266 58.0417 69.2414 67.8044 74.0191 63.4485Z" fill="url(#paint3_linear_7_2069)"/>
<path d="M74.0191 63.4485C76.7311 61.1583 78.8498 35.0991 70.64 22.652C56.6967 19.4343 44.6006 21.4858 37.2713 27.1806C26.2279 35.761 25.2266 58.0417 25.2266 58.0417C25.2266 58.0417 69.2414 67.8044 74.0191 63.4485Z" stroke="#0E0B19" stroke-width="1.36719" stroke-linecap="round" stroke-linejoin="round"/>
<path d="M70.1434 23.2679C56.2 20.0501 44.6006 21.4861 37.2713 27.1808C26.228 35.7612 65.9526 64.9722 73.6061 62.8005C76.0709 60.8081 77.7381 34.0609 70.1434 23.2679Z" fill="url(#paint4_linear_7_2069)"/>
<path d="M59.4113 21.2009C50.3936 21.7458 31.1566 21.5214 27.3984 55.2873C39.2629 49.0107 47.0836 55.3087 47.0836 55.3087C47.0836 55.3087 49.8377 32.6416 59.4113 21.2009Z" fill="url(#paint5_linear_7_2069)"/>
<path d="M56.1775 21.158C49.2092 21.3806 42.6979 23.9187 38.2484 27.3757C27.2051 35.9562 26.8623 57.631 26.8623 57.631" stroke="#A9A9B7" stroke-width="1.36719" stroke-linecap="round" stroke-linejoin="round"/>
<g opacity="0.3">
<path d="M57.091 21.1345C52.5697 21.772 45.3127 28.5156 41.8574 53.4544" stroke="#0E0B19" stroke-width="1.17188" stroke-linecap="round" stroke-linejoin="round"/>
</g>
<path d="M25.2266 58.0417C25.2266 58.0417 26.2279 35.761 37.2713 27.1805C43.0303 22.7059 51.732 20.4807 61.9605 21.2934C64.5996 21.5319 66.5578 21.8266 68.5477 22.2059" stroke="url(#paint6_linear_7_2069)" stroke-width="1.36719" stroke-linecap="round" stroke-linejoin="round"/>
<path d="M36.2044 39.6747L51.12 33.5729C51.7409 33.3626 52.2956 34.0069 52.1058 34.7184L48.4482 48.4305C48.0857 49.7481 47.0482 49.878 46.0351 48.8573L41.619 44.4081C41.1862 43.9719 41.231 43.1713 41.7114 42.7612L47.3339 37.9124C47.8157 37.4479 47.5058 36.9223 46.8067 37.3778L39.988 41.6872C39.2273 42.1417 38.5521 42.21 37.9403 41.9118L36.0954 41.0297C35.5607 40.7692 35.6333 39.8682 36.2044 39.6747Z" fill="url(#paint7_linear_7_2069)"/>
<path d="M30.0684 62.2706C26.2284 65.3161 14.6553 77.8425 9.62347 75.7239C5.6309 74.0429 10.1235 66.0532 17.8727 62.7673C21.4221 61.2622 25.6549 60.744 30.0684 62.2706Z" fill="url(#paint8_linear_7_2069)"/>
<path d="M30.0684 62.2706C26.2284 65.3161 14.6553 77.8425 9.62347 75.7239C5.6309 74.0429 10.1235 66.0532 17.8727 62.7673C21.4221 61.2622 25.6549 60.744 30.0684 62.2706Z" stroke="#0E0B19" stroke-width="1.36719" stroke-linecap="round" stroke-linejoin="round"/>
<path d="M25.196 56.297C15.2563 60.2206 4.48619 67.4081 8.64908 74.1999C7.25552 69.4294 11.5057 63.7741 18.946 62.7472C36.2739 60.3552 43.6413 79.111 57.77 79.1005C70.9163 79.0907 78.8506 64.7069 78.8506 64.7069C50.0006 60.7345 47.1768 47.2017 25.196 56.297Z" fill="url(#paint9_linear_7_2069)"/>
<path d="M25.196 56.297C15.2563 60.2206 4.48619 67.4081 8.64908 74.1999C7.25552 69.4294 11.5057 63.7741 18.946 62.7472C36.2739 60.3552 43.6413 79.111 57.77 79.1005C70.9163 79.0907 78.8506 64.7069 78.8506 64.7069C50.0006 60.7345 47.1768 47.2017 25.196 56.297Z" stroke="#0E0B19" stroke-width="1.36719" stroke-linecap="round" stroke-linejoin="round"/>
<path d="M37.5766 69.4294C37.5766 69.4294 47.9977 58.682 65.9531 63.5693C43.999 53.4517 40.951 52.8994 32.8229 54.4117C29.3482 55.0582 24.2273 57.2253 19.8688 59.2892C15.2254 61.4878 11.4473 63.5693 11.4473 63.5693C18.7182 61.7369 28.4135 61.8837 37.5766 69.4294Z" fill="url(#paint10_linear_7_2069)"/>
<g opacity="0.3">
<path d="M74.1664 64.9194C72.0832 67.4192 66.0197 73.4719 57.7334 72.9365C48.7037 72.3531 41.3453 63.3809 31.3959 60.1055C28.4621 59.1397 24.1629 58.6024 19.3164 59.4764" stroke="#0E0B19" stroke-width="1.17188" stroke-linecap="round" stroke-linejoin="round"/>
</g>
<g opacity="0.3">
<path d="M68.9723 64.1172C66.9861 66.1303 64.1869 68.7201 59.3477 68.8994C45.058 69.4291 40.1982 55.3844 22.5938 57.7282" stroke="#0E0B19" stroke-width="1.17188" stroke-linecap="round" stroke-linejoin="round"/>
</g>
<path d="M40.3338 53.2092C35.7916 53.418 30.6631 55.2489 26.1237 57.1272C17.6815 60.4596 8.64026 66.1467 8.65823 71.9461" stroke="#DCDCE5" stroke-opacity="0.4" stroke-width="1.36719" stroke-linecap="round" stroke-linejoin="round"/>
<path d="M50.0907 55.7937C40.6744 51.6601 33.5957 52.8213 25.1959 56.297C16.7537 59.6295 7.71253 65.3166 7.7305 71.116" stroke="url(#paint11_linear_7_2069)" stroke-width="1.36719" stroke-linecap="round" stroke-linejoin="round"/>
<path d="M8.88854 75.1681C8.40514 71.8578 11.4774 65.2873 18.8714 63.9677C35.2061 61.0527 43.588 79.9554 57.7167 79.9449C71.3555 79.1404 78.8503 64.7072 78.8503 64.7072C78.8503 64.7072 67.838 77.4554 57.0282 76.757C45.336 76.0017 36.5567 58.9605 19.7135 60.9732C13.8651 61.672 7.91159 65.3076 7.06081 70.264C6.386 74.1947 8.88854 75.1681 8.88854 75.1681Z" fill="url(#paint12_linear_7_2069)"/>
<path d="M8.88854 75.1681C8.40514 71.8578 11.4774 65.2873 18.8714 63.9677C35.2061 61.0527 43.588 79.9554 57.7167 79.9449C71.3555 79.1404 78.8503 64.7072 78.8503 64.7072C78.8503 64.7072 67.838 77.4554 57.0282 76.757C45.336 76.0017 36.5567 58.9605 19.7135 60.9732C13.8651 61.672 7.91159 65.3076 7.06081 70.264C6.386 74.1947 8.88854 75.1681 8.88854 75.1681Z" stroke="#14111E" stroke-width="1.36719" stroke-linecap="round" stroke-linejoin="round"/>
<path d="M57.0282 76.757C45.336 76.0017 36.5567 58.9605 19.7136 60.9732C13.8651 61.672 7.91161 65.3076 7.06083 70.264C6.72294 72.2318 7.18153 73.4583 7.72372 74.1927" stroke="url(#paint13_linear_7_2069)" stroke-width="1.36719" stroke-linecap="round" stroke-linejoin="round"/>
</g>
</g>
<defs>
<linearGradient id="paint0_linear_7_2069" x1="61.7682" y1="21.2883" x2="61.7814" y2="19.1163" gradientUnits="userSpaceOnUse">
<stop offset="0.21" stop-color="#3E3B47"/>
<stop offset="0.61" stop-color="#74727F"/>
<stop offset="0.83" stop-color="#A9A9B7"/>
</linearGradient>
<linearGradient id="paint1_linear_7_2069" x1="77.7348" y1="36.1317" x2="85.9635" y2="65.1108" gradientUnits="userSpaceOnUse">
<stop stop-color="#302E3A"/>
<stop offset="0.63" stop-color="#23212C"/>
<stop offset="1" stop-color="#16151E"/>
</linearGradient>
<linearGradient id="paint2_linear_7_2069" x1="76.3676" y1="24.2177" x2="75.8912" y2="63.5808" gradientUnits="userSpaceOnUse">
<stop stop-color="#565468"/>
<stop offset="0.53" stop-color="#444252"/>
<stop offset="0.89" stop-color="#312F3D"/>
</linearGradient>
<linearGradient id="paint3_linear_7_2069" x1="34.5701" y1="31.0538" x2="66.3543" y2="54.3038" gradientUnits="userSpaceOnUse">
<stop stop-color="#5E5C6B"/>
<stop offset="0.6" stop-color="#403E4B"/>
<stop offset="1" stop-color="#22212B"/>
</linearGradient>
<linearGradient id="paint4_linear_7_2069" x1="55.1754" y1="36.0343" x2="58.9164" y2="21.4372" gradientUnits="userSpaceOnUse">
<stop stop-color="#585668" stop-opacity="0"/>
<stop offset="0.46" stop-color="#585668" stop-opacity="0.5"/>
<stop offset="0.76" stop-color="#585668"/>
</linearGradient>
<linearGradient id="paint5_linear_7_2069" x1="35.3516" y1="35.5459" x2="48.1996" y2="40.1982" gradientUnits="userSpaceOnUse">
<stop stop-color="#818196"/>
<stop offset="0.6" stop-color="#727286" stop-opacity="0.5"/>
<stop offset="1" stop-color="#646375" stop-opacity="0"/>
</linearGradient>
<linearGradient id="paint6_linear_7_2069" x1="64.1723" y1="22.6905" x2="68.4447" y2="23.4229" gradientUnits="userSpaceOnUse">
<stop stop-color="#48465B"/>
<stop offset="0.5" stop-color="#2B293A"/>
<stop offset="1" stop-color="#0E0B19"/>
</linearGradient>
<linearGradient id="paint7_linear_7_2069" x1="43.3599" y1="36.7178" x2="49.5417" y2="45.3206" gradientUnits="userSpaceOnUse">
<stop stop-color="white"/>
<stop offset="0.42" stop-color="#E7E5EE"/>
<stop offset="0.91" stop-color="#CFCCDD"/>
</linearGradient>
<linearGradient id="paint8_linear_7_2069" x1="19.9219" y1="69.9208" x2="16.3637" y2="63.6255" gradientUnits="userSpaceOnUse">
<stop offset="0.31" stop-color="#272630"/>
<stop offset="0.66" stop-color="#1E1C27"/>
<stop offset="1" stop-color="#14111E"/>
</linearGradient>
<linearGradient id="paint9_linear_7_2069" x1="46.0944" y1="71.4833" x2="64.9075" y2="71.8171" gradientUnits="userSpaceOnUse">
<stop stop-color="#3E3B47"/>
<stop offset="0.42" stop-color="#2F2D39"/>
<stop offset="1" stop-color="#211F2A"/>
</linearGradient>
<linearGradient id="paint10_linear_7_2069" x1="33.2035" y1="53.5146" x2="38.5197" y2="63.2964" gradientUnits="userSpaceOnUse">
<stop stop-color="#7D7D93"/>
<stop offset="0.6" stop-color="#707084" stop-opacity="0.5"/>
<stop offset="1" stop-color="#646375" stop-opacity="0"/>
</linearGradient>
<linearGradient id="paint11_linear_7_2069" x1="44.2633" y1="55.541" x2="49.1235" y2="56.8838" gradientUnits="userSpaceOnUse">
<stop stop-color="#48465B"/>
<stop offset="0.5" stop-color="#2B293A"/>
<stop offset="1" stop-color="#0E0B19"/>
</linearGradient>
<linearGradient id="paint12_linear_7_2069" x1="42.5784" y1="69.5304" x2="66.6467" y2="75.3513" gradientUnits="userSpaceOnUse">
<stop offset="0.02" stop-color="#9393A3"/>
<stop offset="0.51" stop-color="#5A5A67"/>
<stop offset="1" stop-color="#21202B"/>
</linearGradient>
<linearGradient id="paint13_linear_7_2069" x1="49.9556" y1="74.1537" x2="54.3013" y2="75.8138" gradientUnits="userSpaceOnUse">
<stop stop-color="#403D4F"/>
<stop offset="0.5" stop-color="#2A2737"/>
<stop offset="1" stop-color="#14111E"/>
</linearGradient>
<clipPath id="clip0_7_2069">
<rect width="100" height="100" fill="white"/>
</clipPath>
</defs>
</svg>
