<svg width="100" height="100" viewBox="0 0 100 100" fill="none" xmlns="http://www.w3.org/2000/svg">
<g clip-path="url(#clip0_7_1291)">
<mask id="mask0_7_1291" style="mask-type:luminance" maskUnits="userSpaceOnUse" x="0" y="0" width="100" height="100">
<path d="M100 0H0V100H100V0Z" fill="white"/>
</mask>
<g mask="url(#mask0_7_1291)">
<path d="M42.9607 57.8929C38.7016 61.3067 35.665 67.7253 35.0361 75.4663C34.1002 86.9876 33.8854 94.4456 32.2998 94.4456C30.7143 94.4456 30.0455 94.4456 27.9842 94.4456C25.9229 94.4456 25.9723 91.1286 27.8486 89.9208C28.9234 89.229 25.0666 70.4249 23.9287 55.3804" fill="#1F122D"/>
<g opacity="0.25">
<path d="M42.9607 57.8929C38.7016 61.3067 35.665 67.7253 35.0361 75.4663C34.1002 86.9876 33.8854 94.4456 32.2998 94.4456C30.7143 94.4456 30.0455 94.4456 27.9842 94.4456C25.9229 94.4456 25.9723 91.1286 27.8486 89.9208C28.9234 89.229 25.0666 70.4249 23.9287 55.3804" fill="#1F122D"/>
</g>
<path d="M42.9607 57.8929C38.7016 61.3067 35.665 67.7253 35.0361 75.4663C34.1002 86.9876 33.8854 94.4456 32.2998 94.4456C30.7143 94.4456 30.0455 94.4456 27.9842 94.4456C25.9229 94.4456 25.9723 91.1286 27.8486 89.9208C28.9234 89.229 25.0666 70.4249 23.9287 55.3804" stroke="#140000" stroke-width="3.51562" stroke-linecap="round" stroke-linejoin="round"/>
<path d="M75.9346 54.4375C76.1314 73.9949 72.9451 94.5063 71.117 94.5063C67.9236 94.5063 66.5373 95.1068 66.1408 93.3525C65.6555 91.2047 67.4768 90.2721 67.4768 90.2721C67.4768 90.2721 66.2844 64.598 58.2207 58.348" fill="#1F122D"/>
<g opacity="0.25">
<path d="M75.9346 54.4375C76.1314 73.9949 72.9451 94.5063 71.117 94.5063C67.9236 94.5063 66.5373 95.1068 66.1408 93.3525C65.6555 91.2047 67.4768 90.2721 67.4768 90.2721C67.4768 90.2721 66.2844 64.598 58.2207 58.348" fill="#1F122D"/>
</g>
<path d="M75.9346 54.4375C76.1314 73.9949 72.9451 94.5063 71.117 94.5063C67.9236 94.5063 66.5373 95.1068 66.1408 93.3525C65.6555 91.2047 67.4768 90.2721 67.4768 90.2721C67.4768 90.2721 66.2844 64.598 58.2207 58.348" stroke="#140000" stroke-width="3.51562" stroke-linecap="round" stroke-linejoin="round"/>
<path d="M77.5547 44.6299C84.5705 50.7814 94.6283 42.4064 90.7652 32.333C86.1932 20.4109 81.4447 11.3117 88.4146 4.40645C91.5969 1.25391 96.0457 2.13535 95.6662 6.02891C95.5381 7.34277 94.4523 9.02187 93.4664 11.0418C90.768 16.5707 94.9746 22.5828 98.2842 34.0389C101.594 45.4949 90.2348 57.2266 79.1906 57.3148" fill="url(#paint0_linear_7_1291)"/>
<g opacity="0.3">
<path d="M95.1596 7.69238C95.1896 7.07598 92.4933 3.12754 88.6307 9.29199C85.1453 14.8543 88.4353 26.3871 88.4353 26.3871" stroke="url(#paint1_linear_7_1291)" stroke-width="3.125" stroke-linecap="round" stroke-linejoin="round"/>
</g>
<path d="M77.5547 44.6299C84.1799 50.5861 94.6283 42.4064 90.7652 32.333C86.1932 20.4109 81.4447 11.3117 88.4146 4.40645C91.5969 1.25391 96.0457 2.13535 95.6662 6.02891C95.5381 7.34277 94.4523 9.02188 93.4664 11.0418C90.768 16.5707 94.9746 22.5828 98.2842 34.0389C101.594 45.4949 89.2582 57.4219 79.1906 57.3148" stroke="url(#paint2_linear_7_1291)" stroke-width="3.51562" stroke-linecap="round" stroke-linejoin="round"/>
<path d="M88.2398 57.3673C88.0627 39.7734 84.3031 28.7112 77.8506 22.1862C76.6719 20.9943 75.4031 19.9538 74.05 19.0525C72.3328 17.9087 70.4799 16.9892 68.5018 16.2691C66.9984 15.7218 65.4227 15.2896 63.7799 14.9616C62.5467 14.7155 61.2756 14.5282 59.9686 14.395C57.0326 14.0958 53.9344 14.3282 50.8604 15.0736C48.0678 15.7505 45.2951 16.8507 42.6822 18.3601C35.9104 22.2718 30.2115 28.9318 28.0195 38.0952C28.0195 38.0952 35.1844 44.4351 36.234 58.3103C36.234 58.3103 36.9021 63.6062 44.6889 64.9972C50.3615 66.0105 55.266 60.8228 55.266 60.8228C59.5252 57.4089 65.0066 56.9997 70.526 61.2777C70.526 61.2777 77.3598 67.271 81.7186 65.6952C88.3973 63.2808 88.2398 57.3673 88.2398 57.3673Z" fill="url(#paint3_linear_7_1291)"/>
<g opacity="0.25">
<path d="M88.4346 57.5618C88.4346 57.5618 82.6104 71.1418 70.7217 61.4739C65.3037 57.0676 59.7197 57.6047 55.4619 61.0188C55.4619 61.0188 41.001 71.468 36.4287 58.5051C33.5264 50.2727 31.0322 44.4114 29.5771 41.1887C40.6221 50.9153 87.9971 54.7883 85.5635 36.177C85.5322 35.9368 85.5049 35.7024 85.4854 35.4758C87.3232 41.3137 88.3447 48.5891 88.4346 57.5618Z" fill="#0E0023"/>
</g>
<g opacity="0.3">
<path d="M85.582 39.757C83.8084 33.672 81.19 29.0793 77.8502 25.7019C76.6715 24.5099 75.4027 23.4693 74.0496 22.5679C72.3324 21.4242 70.4795 20.5046 68.5014 19.7845C66.998 19.2373 65.4223 18.8052 63.7795 18.4773C62.5463 18.2312 61.2752 18.0439 59.9682 17.9107C57.0322 17.6115 53.934 17.8437 50.86 18.589C48.0674 19.266 45.2947 20.3662 42.6818 21.8755C37.0814 25.1105 32.215 30.2253 29.459 37.081" stroke="url(#paint4_linear_7_1291)" stroke-width="3.51562" stroke-linecap="round" stroke-linejoin="round"/>
</g>
<path d="M88.2398 57.3673C88.0627 39.7734 84.3033 28.7112 77.8508 22.1862C76.6721 20.9943 75.4033 19.9538 74.0502 19.0525C72.333 17.9087 70.4799 16.989 68.5018 16.2689C66.9984 15.7216 65.4227 15.2896 63.7799 14.9616C62.5467 14.7155 61.2756 14.5282 59.9686 14.395C57.0326 14.0958 53.9344 14.3282 50.8604 15.0736C48.0678 15.7505 45.2953 16.8507 42.6824 18.3601C35.9105 22.2718 30.2115 28.9318 28.0195 38.0952C28.0195 38.0952 35.1844 44.4351 36.234 58.3103C36.234 58.3103 36.9021 63.606 44.6889 64.997C50.3615 66.0103 55.266 60.8228 55.266 60.8228C59.5252 57.4089 65.0066 56.9997 70.526 61.2777C70.526 61.2777 77.3598 67.271 81.7186 65.6952C88.3973 63.2808 88.2398 57.3673 88.2398 57.3673Z" stroke="url(#paint5_linear_7_1291)" stroke-width="3.51562" stroke-linecap="round" stroke-linejoin="round"/>
<path d="M55.2654 60.8226C51.0063 64.2364 47.9697 70.655 47.3408 78.396C46.4049 89.9173 46.19 97.3753 44.6045 97.3753C43.0189 97.3753 42.3502 97.3753 40.2889 97.3753C38.2275 97.3753 38.277 94.0583 40.1533 92.8505C41.2281 92.1587 37.3713 73.3546 36.2334 58.3101" fill="#333333"/>
<g opacity="0.25">
<path d="M55.2654 60.8226C51.0063 64.2364 47.9697 70.655 47.3408 78.396C46.4049 89.9173 46.19 97.3753 44.6045 97.3753C43.0189 97.3753 42.3502 97.3753 40.2889 97.3753C38.2275 97.3753 38.277 94.0583 40.1533 92.8505C41.2281 92.1587 37.3713 73.3546 36.2334 58.3101" fill="#0E0023"/>
</g>
<path d="M55.2654 60.8226C51.0063 64.2364 47.9697 70.655 47.3408 78.396C46.4049 89.9173 46.19 97.3753 44.6045 97.3753C43.0189 97.3753 42.3502 97.3753 40.2889 97.3753C38.2275 97.3753 38.277 94.0583 40.1533 92.8505C41.2281 92.1587 37.3713 73.3546 36.2334 58.3101" stroke="#140000" stroke-width="3.51562" stroke-linecap="round" stroke-linejoin="round"/>
<path d="M88.2393 57.3672C88.4361 76.9246 85.2498 97.4359 83.4217 97.4359C80.2283 97.4359 78.842 98.0365 78.4455 96.2822C77.9602 94.1344 79.7814 93.2018 79.7814 93.2018C79.7814 93.2018 78.5891 67.5277 70.5254 61.2777" fill="#333333"/>
<g opacity="0.25">
<path d="M88.2393 57.3672C88.4361 76.9246 85.2498 97.4359 83.4217 97.4359C80.2283 97.4359 78.842 98.0365 78.4455 96.2822C77.9602 94.1344 79.7814 93.2018 79.7814 93.2018C79.7814 93.2018 78.5891 67.5277 70.5254 61.2777" fill="#0E0023"/>
</g>
<path d="M88.2393 57.3672C88.4361 76.9246 85.2498 97.4359 83.4217 97.4359C80.2283 97.4359 78.842 98.0365 78.4455 96.2822C77.9602 94.1344 79.7814 93.2018 79.7814 93.2018C79.7814 93.2018 78.5891 67.5277 70.5254 61.2777" stroke="#140000" stroke-width="3.51562" stroke-linecap="round" stroke-linejoin="round"/>
<path d="M49.9917 49.0293C49.504 47.9908 48.9589 47.0484 48.3628 46.193C52.6298 33.5523 48.3296 28.2471 47.3056 28.2471C46.2538 28.2471 35.5331 36.4002 33.1081 38.3604C31.2503 38.1654 29.3454 38.0953 27.4333 38.0953C25.5569 38.0953 23.6874 38.1625 21.8626 38.3492C19.411 36.3678 8.7288 28.2471 7.6788 28.2471C6.65771 28.2471 2.37744 33.5162 6.58369 46.0809C5.95673 46.9662 5.38427 47.9449 4.87509 49.0293C1.1997 56.857 1.87842 73.7533 27.4333 73.7533C52.5624 73.7533 53.6671 56.857 49.9917 49.0293Z" fill="url(#paint6_linear_7_1291)"/>
<g opacity="0.25">
<path d="M27.4335 73.7529C4.81831 73.7529 1.6855 60.5205 3.8105 52.0498C5.58784 58.6865 11.9355 64.9014 27.4335 64.9014C42.8261 64.9014 49.2031 58.5615 50.9882 51.8506C53.1464 60.3115 49.8476 73.7529 27.4335 73.7529Z" fill="#0E0023"/>
</g>
<g opacity="0.3">
<path d="M4.85753 38.2349C4.85753 38.2349 4.79249 34.7261 7.8462 31.2144L20.6718 41.139C20.6718 41.139 29.6804 39.9938 33.9556 41.139L46.7066 31.8181C46.7066 31.8181 49.4407 33.2485 49.7163 41.139" stroke="url(#paint7_radial_7_1291)" stroke-width="3.51562" stroke-linecap="round" stroke-linejoin="round"/>
</g>
<path d="M49.9917 49.0293C49.504 47.9908 48.9589 47.0484 48.3628 46.193C52.6298 33.5523 48.3296 28.2471 47.3056 28.2471C46.2538 28.2471 35.5331 36.4002 33.1081 38.3604C31.2503 38.1654 29.3454 38.0953 27.4333 38.0953C25.5569 38.0953 23.6874 38.1625 21.8626 38.3492C19.411 36.3678 8.7288 28.2471 7.6788 28.2471C6.65771 28.2471 2.37744 33.5162 6.58369 46.0809C5.95673 46.9662 5.38427 47.9449 4.87509 49.0293C1.1997 56.857 1.87842 73.7533 27.4333 73.7533C52.5624 73.7533 53.6671 56.857 49.9917 49.0293Z" stroke="url(#paint8_linear_7_1291)" stroke-width="3.51562" stroke-linecap="round" stroke-linejoin="round"/>
<path d="M46.6707 52.0422C46.6707 52.0422 30.3506 39.244 31.3369 67.6301C31.3369 67.6301 49.0369 71.116 46.6707 52.0422Z" fill="url(#paint9_linear_7_1291)"/>
<g opacity="0.2">
<path d="M31.3369 67.6302C31.3369 67.6302 31.9764 46.6665 46.6709 52.0423" stroke="#140000" stroke-width="3.51562" stroke-linecap="round" stroke-linejoin="round"/>
</g>
<path d="M37.832 55.4927V61.7962" stroke="#140000" stroke-width="3.51562" stroke-linecap="round" stroke-linejoin="round"/>
<path d="M39.2871 57.3672H39.9563" stroke="white" stroke-width="2.34375" stroke-linecap="round" stroke-linejoin="round"/>
<path d="M46.6707 52.0422C46.6707 52.0422 30.3506 39.244 31.3369 67.6301C31.3369 67.6301 49.0369 71.116 46.6707 52.0422Z" stroke="#140000" stroke-width="3.51562" stroke-linecap="round" stroke-linejoin="round"/>
<path d="M8.12203 52.0422C8.12203 52.0422 24.4421 39.244 23.4558 67.6301C23.4558 67.6301 5.75582 71.116 8.12203 52.0422Z" fill="url(#paint10_linear_7_1291)"/>
<g opacity="0.2">
<path d="M8.12207 52.0423C8.12207 52.0423 21.3332 44.6949 23.4561 67.63" stroke="#140000" stroke-width="3.51562" stroke-linecap="round" stroke-linejoin="round"/>
</g>
<path d="M17.0234 55.4927V61.7962" stroke="#140000" stroke-width="3.51562" stroke-linecap="round" stroke-linejoin="round"/>
<path d="M18.3809 57.3672H19.05" stroke="white" stroke-width="2.34375" stroke-linecap="round" stroke-linejoin="round"/>
<path d="M8.12203 52.0422C8.12203 52.0422 24.4421 39.244 23.4558 67.6301C23.4558 67.6301 5.75582 71.116 8.12203 52.0422Z" stroke="#140000" stroke-width="3.51562" stroke-linecap="round" stroke-linejoin="round"/>
</g>
</g>
<defs>
<linearGradient id="paint0_linear_7_1291" x1="88.0863" y1="37.8906" x2="88.0863" y2="10.5412" gradientUnits="userSpaceOnUse">
<stop stop-color="#333333"/>
<stop offset="0.55" stop-color="#4F4D54"/>
<stop offset="1" stop-color="#6A6776"/>
</linearGradient>
<linearGradient id="paint1_linear_7_1291" x1="85.157" y1="16.0156" x2="96.8031" y2="16.0156" gradientUnits="userSpaceOnUse">
<stop offset="0.31" stop-color="white" stop-opacity="0"/>
<stop offset="0.69" stop-color="white" stop-opacity="0.5"/>
<stop offset="1" stop-color="white"/>
</linearGradient>
<linearGradient id="paint2_linear_7_1291" x1="88.0863" y1="52.5391" x2="88.0863" y2="0.54297" gradientUnits="userSpaceOnUse">
<stop offset="0.3" stop-color="#140000"/>
<stop offset="0.69" stop-color="#322338"/>
<stop offset="1" stop-color="#504770"/>
</linearGradient>
<linearGradient id="paint3_linear_7_1291" x1="58.2037" y1="51.172" x2="58.2037" y2="22.6849" gradientUnits="userSpaceOnUse">
<stop stop-color="#333333"/>
<stop offset="0.55" stop-color="#4F4D54"/>
<stop offset="1" stop-color="#6A6776"/>
</linearGradient>
<linearGradient id="paint4_linear_7_1291" x1="60.3518" y1="61.914" x2="55.0451" y2="18.6961" gradientUnits="userSpaceOnUse">
<stop offset="0.31" stop-color="white" stop-opacity="0"/>
<stop offset="0.69" stop-color="white" stop-opacity="0.5"/>
<stop offset="1" stop-color="white"/>
</linearGradient>
<linearGradient id="paint5_linear_7_1291" x1="58.0084" y1="67.5782" x2="58.0084" y2="12.3716" gradientUnits="userSpaceOnUse">
<stop offset="0.3" stop-color="#140000"/>
<stop offset="0.69" stop-color="#322338"/>
<stop offset="1" stop-color="#504770"/>
</linearGradient>
<linearGradient id="paint6_linear_7_1291" x1="27.344" y1="54.8828" x2="27.344" y2="31.584" gradientUnits="userSpaceOnUse">
<stop stop-color="#333333"/>
<stop offset="0.55" stop-color="#4F4D54"/>
<stop offset="1" stop-color="#6A6776"/>
</linearGradient>
<radialGradient id="paint7_radial_7_1291" cx="0" cy="0" r="1" gradientUnits="userSpaceOnUse" gradientTransform="translate(27.1489 36.1329) scale(17.7508 17.7508)">
<stop stop-color="white"/>
<stop offset="0.45" stop-color="white" stop-opacity="0.5"/>
<stop offset="1" stop-color="white" stop-opacity="0"/>
</radialGradient>
<linearGradient id="paint8_linear_7_1291" x1="27.344" y1="75.3906" x2="27.344" y2="26.3688" gradientUnits="userSpaceOnUse">
<stop offset="0.48" stop-color="#140000"/>
<stop offset="0.77" stop-color="#322338"/>
<stop offset="1" stop-color="#504770"/>
</linearGradient>
<linearGradient id="paint9_linear_7_1291" x1="39.0629" y1="51.1719" x2="39.0629" y2="64.9051" gradientUnits="userSpaceOnUse">
<stop offset="0.21" stop-color="#6CEC50"/>
<stop offset="0.56" stop-color="#9EF628"/>
<stop offset="0.94" stop-color="#D0FF00"/>
</linearGradient>
<linearGradient id="paint10_linear_7_1291" x1="15.6252" y1="51.1719" x2="15.6252" y2="64.9051" gradientUnits="userSpaceOnUse">
<stop offset="0.21" stop-color="#6CEC50"/>
<stop offset="0.56" stop-color="#9EF628"/>
<stop offset="0.94" stop-color="#D0FF00"/>
</linearGradient>
<clipPath id="clip0_7_1291">
<rect width="100" height="100" fill="white"/>
</clipPath>
</defs>
</svg>
