<svg width="215" height="214" viewBox="0 0 215 214" fill="none" xmlns="http://www.w3.org/2000/svg">
<path d="M197.563 107.706C197.563 158.031 156.766 198.828 106.441 198.828C56.1151 198.828 15.3181 158.031 15.3181 107.706C15.3181 57.3802 56.1151 16.5832 106.441 16.5832C156.766 16.5832 197.563 57.3802 197.563 107.706Z" stroke="#E42CAB" stroke-width="2.90153" stroke-linecap="round" stroke-linejoin="round"/>
<path d="M178.328 33.7246C178.621 35.444 177.464 37.0751 175.745 37.3679C174.026 37.6606 172.395 36.5041 172.102 34.7847C171.809 33.0654 172.966 31.4342 174.685 31.1415C176.404 30.8487 178.036 32.0052 178.328 33.7246Z" fill="#E42BAA"/>
<path d="M105.73 4.26886C107.153 5.27766 107.489 7.24899 106.48 8.67177C105.471 10.0945 103.5 10.4301 102.077 9.42129C100.654 8.41249 100.319 6.44131 101.327 5.01853C102.336 3.59575 104.307 3.26006 105.73 4.26886Z" fill="#E42BAA"/>
<path d="M33.5941 35.2343C35.3134 34.9416 36.9448 36.0981 37.2375 37.8175C37.5302 39.5368 36.3736 41.1682 34.6542 41.4609C32.9348 41.7536 31.3036 40.5969 31.0109 38.8776C30.7182 37.1582 31.8747 35.527 33.5941 35.2343Z" fill="#E42BAA"/>
<path d="M4.27979 107.964C5.28859 106.541 7.25977 106.206 8.68255 107.215C10.1053 108.223 10.441 110.195 9.43222 111.617C8.42342 113.04 6.45209 113.376 5.02932 112.367C3.60654 111.358 3.27099 109.387 4.27979 107.964Z" fill="#E42BAA"/>
<path d="M35.1343 180.155C34.8416 178.435 35.9983 176.804 37.7176 176.512C39.437 176.219 41.0682 177.375 41.3609 179.095C41.6536 180.814 40.4971 182.445 38.7777 182.738C37.0584 183.031 35.4271 181.874 35.1343 180.155Z" fill="#E42BAA"/>
<path d="M107.864 209.469C106.441 208.46 106.106 206.489 107.115 205.066C108.123 203.644 110.094 203.308 111.517 204.317C112.94 205.326 113.276 207.297 112.267 208.72C111.258 210.142 109.287 210.478 107.864 209.469Z" fill="#E42BAA"/>
<path d="M180.141 178.963C178.236 179.287 176.429 178.006 176.104 176.1C175.78 174.195 177.062 172.388 178.967 172.063C180.872 171.739 182.68 173.02 183.004 174.926C183.328 176.831 182.047 178.638 180.141 178.963Z" fill="#E42BAA"/>
<path d="M209.87 105.838C208.752 107.414 206.568 107.786 204.992 106.668C203.415 105.55 203.043 103.366 204.161 101.79C205.279 100.213 207.463 99.8412 209.04 100.959C210.616 102.077 210.988 104.261 209.87 105.838Z" fill="#E42BAA"/>
</svg>
