<svg width="100" height="100" viewBox="0 0 100 100" fill="none" xmlns="http://www.w3.org/2000/svg">
<g clip-path="url(#clip0_203_12185)">
<mask id="mask0_203_12185" style="mask-type:luminance" maskUnits="userSpaceOnUse" x="0" y="0" width="100" height="100">
<path d="M100 0H0V100H100V0Z" fill="white"/>
</mask>
<g mask="url(#mask0_203_12185)">
<path d="M57.9004 76.8075C66.0023 76.0777 76.732 80.7489 83.0092 83.5956C89.2863 86.4423 92.2061 84.5444 95.1256 70.0923C97.4041 58.8134 89.4129 59.765 87.3887 65.129C85.9289 68.9976 84.834 73.9609 84.834 73.9609C74.2504 68.4136 59.7982 69.6544 59.7982 69.6544" fill="url(#paint0_linear_203_12185)"/>
<path d="M57.9004 76.8075C66.0023 76.0776 76.732 80.7489 83.0092 83.5956C89.2863 86.4423 92.2061 84.5444 95.1256 70.0923C97.4041 58.8134 89.4129 59.765 87.3887 65.129C85.9289 68.9976 84.834 73.9609 84.834 73.9609C74.2504 68.4136 59.7982 69.6544 59.7982 69.6544" stroke="#104704" stroke-width="1.36719" stroke-linecap="round" stroke-linejoin="round"/>
<path d="M57.9004 76.8075C66.0023 76.0776 76.732 80.7489 83.0092 83.5956C89.2863 86.4423 92.2061 84.5444 95.1256 70.0923C97.4041 58.8134 89.4129 59.765 87.3887 65.129C85.9289 68.9976 84.834 73.9609 84.834 73.9609C74.2504 68.4136 59.7982 69.6544 59.7982 69.6544" stroke="#104704" stroke-width="1.95312" stroke-linecap="round" stroke-linejoin="round" stroke-dasharray="0.39 1.37"/>
<g opacity="0.5">
<path d="M63.3682 75.0547C72.1566 75.6484 82.3695 82.7184 88.477 82.7035C89.8424 82.7002 89.9822 82.25 91.0068 81.3988" stroke="#114804" stroke-width="0.976562" stroke-linecap="round" stroke-linejoin="round"/>
</g>
<g opacity="0.5">
<path d="M68.9959 77.9328C69.1313 74.1408 69.1314 71.1613 73.0588 70.4841C66.6937 68.588 62.0891 69.5361 62.0891 69.5361L60.8701 76.0367L68.9959 77.9328Z" fill="#0E3B04"/>
</g>
<g opacity="0.22">
<path d="M87.1758 74.462C87.8174 70.6124 90.277 64.9446 90.277 64.9446" stroke="#C6FFAB" stroke-width="1.95312" stroke-linecap="round" stroke-linejoin="round"/>
</g>
<path d="M60.565 42.7237C70.3883 41.9608 77.2773 49.5202 74.2908 54.3444C72.1795 57.7552 58.1807 54.9312 58.1807 54.9312" fill="#558629"/>
<path d="M60.565 42.7237C70.3883 41.9608 77.2773 49.5202 74.2908 54.3444C72.1795 57.7552 58.1807 54.9312 58.1807 54.9312" stroke="#0E3B04" stroke-width="1.36719" stroke-linecap="round" stroke-linejoin="round"/>
<path d="M60.565 42.7237C70.3883 41.9608 77.2773 49.5202 74.2908 54.3444C72.1795 57.7552 58.1807 54.9312 58.1807 54.9312" stroke="#0E3B04" stroke-width="1.95312" stroke-linecap="round" stroke-linejoin="round" stroke-dasharray="0.39 1.37"/>
<path d="M13.0682 44.7277C10.3002 37.5112 10.5309 32.7562 13.2508 26.9277C14.7836 23.6431 15.8026 22.1478 15.7116 19.0071C15.5657 13.9708 22.3364 3.53429 35.8397 10.3954C41.168 3.16945 52.2627 2.14757 57.518 10.3954C62.7733 18.6433 62.7733 30.322 62.3354 33.5335C61.8975 36.745 61.1573 40.6737 61.5951 43.2284C68.3928 49.7255 71.5385 62.3103 66.7774 71.5945C60.3612 84.106 30.2196 86.9626 22.5555 79.7366C14.8914 72.5107 12.3932 68.4456 13.342 61.0005C14.2909 53.5554 15.1119 50.056 13.0682 44.7277Z" fill="url(#paint1_radial_203_12185)"/>
<path d="M13.0682 44.7277C10.3002 37.5112 10.5309 32.7562 13.2508 26.9277C14.7836 23.6431 15.8026 22.1478 15.7116 19.0071C15.5657 13.9708 22.3364 3.53429 35.8397 10.3954C41.168 3.16945 52.2627 2.14757 57.518 10.3954C62.7733 18.6433 62.7733 30.322 62.3354 33.5335C61.8975 36.745 61.1573 40.6737 61.5952 43.2284C68.3928 49.7255 71.5385 62.3103 66.7774 71.5945C60.3612 84.106 30.2196 86.9626 22.5555 79.7366C14.8914 72.5107 12.3932 68.4456 13.342 61.0005C14.2909 53.5554 15.1119 50.056 13.0682 44.7277Z" stroke="#1B5E0E" stroke-width="1.36719" stroke-linecap="round" stroke-linejoin="round"/>
<path d="M13.0682 44.7277C10.3002 37.5112 10.5309 32.7562 13.2508 26.9277C14.7836 23.6431 15.8026 22.1478 15.7116 19.0071C15.5657 13.9708 22.3364 3.53429 35.8397 10.3954C41.168 3.16945 52.2627 2.14757 57.518 10.3954C62.7733 18.6433 62.7733 30.322 62.3354 33.5335C61.8975 36.745 61.1573 40.6737 61.5952 43.2284C68.3928 49.7255 71.5385 62.3103 66.7774 71.5945C60.3612 84.106 30.2196 86.9626 22.5555 79.7366C14.8914 72.5107 12.3932 68.4456 13.342 61.0005C14.2909 53.5554 15.1119 50.056 13.0682 44.7277Z" stroke="#1B5E0E" stroke-width="1.95312" stroke-linecap="round" stroke-linejoin="round" stroke-dasharray="0.39 1.37"/>
<path d="M52.0371 5.60278C54.1488 6.52915 56.0588 8.10474 57.5184 10.3954C62.7736 18.6432 62.7736 30.3219 62.3357 33.5334C61.8979 36.745 61.1576 40.6737 61.5955 43.2284C68.3932 49.7254 71.5389 62.3102 66.7777 71.5944C60.3615 84.1059 30.2199 86.9625 22.5559 79.7366C19.2895 76.6569 16.9613 74.1512 15.4385 71.7135" stroke="#0E3B04" stroke-width="1.36719" stroke-linecap="round" stroke-linejoin="round"/>
<path d="M52.0371 5.60278C54.1488 6.52915 56.0588 8.10474 57.5184 10.3954C62.7736 18.6432 62.7736 30.3219 62.3357 33.5334C61.8979 36.745 61.1576 40.6737 61.5955 43.2284C68.3932 49.7254 71.5389 62.3102 66.7777 71.5944C60.3615 84.1059 30.2199 86.9625 22.5559 79.7366C19.2895 76.6569 16.9613 74.1512 15.4385 71.7135" stroke="#0E3B04" stroke-width="1.95312" stroke-linecap="round" stroke-linejoin="round" stroke-dasharray="0.39 1.37"/>
<g opacity="0.22">
<path d="M23.895 78.3154C16.5439 71.3843 14.6749 67.8855 15.5325 61.1583C15.8068 59.005 15.6618 57.2863 15.989 55.6814C16.8011 51.697 16.7128 48.356 15.0761 44.0886C12.4958 37.3615 12.3253 33.4222 14.8023 28.1142C16.4273 24.632 17.7724 22.3943 17.6825 19.5652L17.6636 18.9505C17.6212 17.4958 18.4607 15.0195 20.4025 13.0203" stroke="#C6FFAB" stroke-width="1.95312" stroke-linecap="round" stroke-linejoin="round"/>
</g>
<g opacity="0.1">
<path d="M25.5585 10.72C22.7489 12.1383 20.9485 15.7584 20.8108 17.2209C20.7212 18.1747 20.7573 19.328 20.7954 20.5489C20.8778 23.187 20.9632 25.9147 19.8542 27.9622C17.6782 31.9799 17.7946 36.595 20.1815 40.9575C22.1007 44.4645 23.762 50.4727 20.7784 59.179C19.2268 63.7067 20.8714 70.9526 24.4446 75.3315" stroke="#C6FFAB" stroke-width="0.976562" stroke-linecap="round" stroke-linejoin="round" stroke-dasharray="0.39 1.37"/>
</g>
<g opacity="0.5">
<path d="M23.5865 76.5482C19.6142 71.6802 17.7617 63.7699 19.5689 58.4963C21.3761 53.2226 21.9634 47.0703 19.1148 41.8642C16.2661 36.6582 16.4398 31.2957 18.7716 26.99C20.0898 24.556 19.2128 20.0937 19.5056 16.9836C19.7984 13.8734 24.8972 4.67848 33.3382 9.54645" stroke="#0E3B04" stroke-width="0.976562" stroke-linecap="round" stroke-linejoin="round" stroke-dasharray="0.39 1.37"/>
</g>
<g opacity="0.22">
<path d="M40.4443 12.0179C42.035 9.39795 43.4387 7.52666 47.275 6.87158" stroke="#C6FFAB" stroke-width="1.95312" stroke-linecap="round" stroke-linejoin="round"/>
</g>
<g opacity="0.22">
<path d="M29.2676 11.198C33.151 11.016 35.5176 11.8048 37.9447 13.8072" stroke="#C6FFAB" stroke-width="1.95312" stroke-linecap="round" stroke-linejoin="round"/>
</g>
<path d="M27.9776 49.6872C26.1448 53.521 39.9339 58.5304 51.2382 56.3665C62.5425 54.2026 63.1946 47.5233 61.3468 45.1714C60.529 44.1304 54.1823 46.5183 47.2165 47.3353C38.4434 48.3644 28.7046 48.1665 27.9776 49.6872Z" fill="url(#paint2_radial_203_12185)"/>
<g opacity="0.5">
<path d="M24.2733 28.6287C23.5979 33.3568 29.9071 38.7988 37.5164 37.4818C45.1258 36.1648 47.1012 29.287 44.833 24.0191C42.5649 18.7511 25.1512 22.4828 24.2733 28.6287Z" fill="#434F32"/>
</g>
<g opacity="0.5">
<path d="M47.9064 23.5071C46.7357 31.7018 56.3935 34.6285 60.0519 33.2383C63.7103 31.8481 63.564 27.1655 61.8812 22.6291C60.1984 18.0928 48.3812 20.183 47.9064 23.5071Z" fill="#434F32"/>
</g>
<g opacity="0.5">
<path d="M25.6064 44.2521C27.8805 51.5625 58.3281 45.9347 60.5359 43.1578C62.7437 40.3808 61.692 39.2791 61.692 39.2791L25.6064 44.2521Z" fill="#434F32"/>
</g>
<path d="M24.0886 40.1773C23.9388 36.2748 26.7738 35.8795 32.5174 36.7262C39.2539 37.7191 54.8043 35.2879 59.2199 32.0054C62.0709 29.8861 63.7638 33.0318 63.3988 36.1318C63.2572 37.3349 63.1863 39.1781 60.3531 40.7537C57.5199 42.3293 42.2209 46.4955 29.1176 45.2428C24.9885 44.848 24.1595 42.0232 24.0886 40.1773Z" fill="url(#paint3_linear_203_12185)"/>
<path d="M24.0886 40.1773C23.9388 36.2748 26.7738 35.8795 32.5174 36.7262C39.2539 37.7191 54.8043 35.2879 59.2199 32.0054C62.0709 29.8861 63.7638 33.0318 63.3988 36.1318C63.2572 37.3349 63.1863 39.1781 60.3531 40.7537C57.5199 42.3293 42.2209 46.4955 29.1176 45.2428C24.9885 44.848 24.1595 42.0232 24.0886 40.1773Z" stroke="#82181E" stroke-width="1.36719" stroke-linecap="round" stroke-linejoin="round"/>
<path d="M24.0886 40.1773C23.9388 36.2748 26.7738 35.8795 32.5174 36.7262C39.2539 37.7191 54.8043 35.2879 59.2199 32.0054C62.0709 29.8861 63.7638 33.0318 63.3988 36.1318C63.2572 37.3349 63.1863 39.1781 60.3531 40.7537C57.5199 42.3293 42.2209 46.4955 29.1176 45.2428C24.9885 44.848 24.1595 42.0232 24.0886 40.1773Z" stroke="#82181E" stroke-width="1.95312" stroke-linecap="round" stroke-linejoin="round" stroke-dasharray="0.39 1.37"/>
<path d="M27.6914 40.6599C34.8451 42.4331 60.2727 39.8155 63.1059 33.9126" stroke="#82181E" stroke-width="1.36719" stroke-linecap="round" stroke-linejoin="round"/>
<path d="M27.6914 40.6599C34.8451 42.4331 60.2727 39.8155 63.1059 33.9126" stroke="#82181E" stroke-width="1.95312" stroke-linecap="round" stroke-linejoin="round" stroke-dasharray="0.39 1.37"/>
<path d="M63.1059 33.9126C60.2727 39.8155 34.8451 42.4331 27.6914 40.6599" stroke="#82181E" stroke-width="1.95312" stroke-linecap="round" stroke-linejoin="round" stroke-dasharray="0.98 195.31"/>
<path d="M24.4717 26.1876C23.8971 29.2766 27.7563 34.7274 36.6612 33.8514C45.566 32.9755 45.566 24.9466 44.6901 22.538C43.8141 20.1294 40.2377 16.6987 35.0553 17.7206C29.8729 18.7425 25.0557 23.0489 24.4717 26.1876Z" fill="url(#paint4_linear_203_12185)"/>
<path d="M24.4717 26.1876C23.8971 29.2766 27.7563 34.7274 36.6612 33.8514C45.566 32.9755 45.566 24.9466 44.6901 22.538C43.8141 20.1294 40.2377 16.6987 35.0553 17.7206C29.8729 18.7425 25.0557 23.0489 24.4717 26.1876Z" stroke="#244550" stroke-width="1.36719" stroke-linecap="round" stroke-linejoin="round"/>
<path d="M24.4717 26.1876C23.8971 29.2766 27.7563 34.7274 36.6612 33.8514C45.566 32.9755 45.566 24.9466 44.6901 22.538C43.8141 20.1294 40.2377 16.6987 35.0553 17.7206C29.8729 18.7425 25.0557 23.0489 24.4717 26.1876Z" stroke="#244550" stroke-width="1.95312" stroke-linecap="round" stroke-linejoin="round" stroke-dasharray="0.39 1.37"/>
<path d="M35.1017 18.8064C31.406 18.2561 27.9659 20.7936 27.4179 24.4741C26.8699 28.1545 29.4215 31.5843 33.1172 32.1346C36.8129 32.6849 40.2532 30.1473 40.8012 26.4668C41.3492 22.7863 38.7974 19.3567 35.1017 18.8064ZM32.1886 27.3503C31.6287 27.57 30.9956 27.296 30.7743 26.7381C30.5531 26.1802 30.8276 25.5499 31.3874 25.3301C31.9473 25.1104 32.5802 25.3846 32.8015 25.9425C33.0227 26.5004 32.7484 27.1306 32.1886 27.3503ZM33.468 22.8133C33.5509 22.2566 34.0713 21.8727 34.6304 21.956C35.1895 22.0392 35.5756 22.558 35.4927 23.1148C35.4098 23.6716 34.8893 24.0554 34.3302 23.9721C33.7711 23.8889 33.3851 23.3701 33.468 22.8133ZM36.8766 27.6148C36.5241 28.0567 35.8784 28.13 35.4343 27.7784C34.9902 27.4267 34.9158 26.7835 35.2683 26.3415C35.6208 25.8996 36.2665 25.8263 36.7106 26.1779C37.1548 26.5296 37.2291 27.1729 36.8766 27.6148Z" fill="#244550"/>
<path d="M35.3566 24.1421C34.7042 24.6233 33.7829 24.4861 33.299 23.8357C32.8151 23.1853 32.9517 22.2676 33.6041 21.7864C34.2566 21.3052 35.1778 21.4423 35.6617 22.0928C36.1457 22.7432 36.009 23.6608 35.3566 24.1421Z" stroke="url(#paint5_linear_203_12185)" stroke-width="0.976565" stroke-linecap="round" stroke-linejoin="round"/>
<path d="M36.9851 25.8342C36.3501 25.3315 35.4269 25.4362 34.923 26.0681C34.4191 26.6999 34.5254 27.6196 35.1603 28.1223C35.7952 28.6249 36.7185 28.5202 37.2224 27.8884C37.7262 27.2565 37.62 26.3368 36.9851 25.8342Z" stroke="url(#paint6_linear_203_12185)" stroke-width="0.976565" stroke-linecap="round" stroke-linejoin="round"/>
<path d="M33.1267 25.631C32.7325 24.894 31.8136 24.6144 31.0742 25.0062C30.3348 25.398 30.0551 26.3127 30.4494 27.0497C30.8436 27.7866 31.7623 28.0665 32.5017 27.6747C33.2411 27.2829 33.521 26.368 33.1267 25.631Z" stroke="url(#paint7_linear_203_12185)" stroke-width="0.976565" stroke-linecap="round" stroke-linejoin="round"/>
<path d="M37.2136 29.6352C34.9078 31.336 31.652 30.8512 29.9417 28.5524C28.2314 26.2537 28.7142 23.0113 31.02 21.3105C33.3258 19.6097 36.5817 20.0945 38.2919 22.3933C40.0022 24.692 39.5194 27.9345 37.2136 29.6352Z" stroke="url(#paint8_linear_203_12185)" stroke-width="0.976565" stroke-linecap="round" stroke-linejoin="round"/>
<g opacity="0.5">
<path d="M30.4033 20.4818C33.1681 18.4425 37.0721 19.0238 39.1228 21.7802C41.1736 24.5365 40.5947 28.4244 37.8299 30.4638C35.065 32.5031 31.1611 31.9218 29.1103 29.1654C27.0596 26.4091 27.6385 22.5212 30.4033 20.4818Z" stroke="url(#paint9_linear_203_12185)" stroke-width="0.976565" stroke-linecap="round" stroke-linejoin="round"/>
</g>
<path d="M47.7551 21.4211C47.1805 24.5102 50.6514 30.5875 59.5066 29.3041C64.543 28.5743 64.324 22.078 63.448 19.6694C62.5721 17.2608 59.6527 13.3922 55.7842 14.0491C50.5766 14.9334 48.3391 18.2825 47.7551 21.4211Z" fill="url(#paint10_linear_203_12185)"/>
<path d="M47.7551 21.4211C47.1805 24.5102 50.6514 30.5875 59.5066 29.3041C64.543 28.5743 64.324 22.078 63.448 19.6694C62.5721 17.2608 59.6527 13.3922 55.7842 14.0491C50.5766 14.9334 48.3391 18.2825 47.7551 21.4211Z" stroke="#244550" stroke-width="1.36719" stroke-linecap="round" stroke-linejoin="round"/>
<path d="M47.7551 21.4211C47.1805 24.5102 50.6514 30.5875 59.5066 29.3041C64.543 28.5743 64.324 22.078 63.448 19.6694C62.5721 17.2608 59.6527 13.3922 55.7842 14.0491C50.5766 14.9334 48.3391 18.2825 47.7551 21.4211Z" stroke="#244550" stroke-width="1.95312" stroke-linecap="round" stroke-linejoin="round" stroke-dasharray="0.39 1.37"/>
<path d="M58.238 15.1227C58.1205 15.1385 56.4428 15.3561 56.3298 15.3852C54.157 15.9443 52.8433 18.9174 53.3648 22.259C53.8902 25.6261 56.0886 28.1459 58.362 28.0722C58.4619 28.0689 60.1244 27.8656 60.2245 27.8521C62.6015 27.5339 64.0837 24.4261 63.5352 20.911C62.9867 17.396 60.615 14.8045 58.238 15.1227Z" fill="#103C4B"/>
<path d="M59.671 19.9841C59.39 20.5734 58.7974 20.6527 58.3476 20.1612C57.8978 19.6698 57.7611 18.7934 58.0422 18.2041C58.3233 17.6148 58.9158 17.5355 59.3657 18.0269C59.8155 18.5184 59.9521 19.3947 59.671 19.9841Z" stroke="url(#paint11_linear_203_12185)" stroke-width="0.976565" stroke-linecap="round" stroke-linejoin="round"/>
<path d="M61.0654 21.1803C60.5593 20.8588 60.0237 21.1615 59.8689 21.8566C59.7142 22.5516 59.9989 23.3756 60.5051 23.6971C61.0113 24.0186 61.5469 23.7158 61.7016 23.0208C61.8564 22.3257 61.5716 21.5018 61.0654 21.1803Z" stroke="url(#paint12_linear_203_12185)" stroke-width="0.976565" stroke-linecap="round" stroke-linejoin="round"/>
<path d="M58.6731 21.8548C58.2571 21.2636 57.632 21.2109 57.2766 21.7371C56.9212 22.2634 56.9704 23.1693 57.3863 23.7605C57.8023 24.3517 58.4274 24.4044 58.7828 23.8782C59.1382 23.3519 59.089 22.446 58.6731 21.8548Z" stroke="url(#paint13_linear_203_12185)" stroke-width="0.976565" stroke-linecap="round" stroke-linejoin="round"/>
<path d="M59.0902 19.8437C58.8765 20.2915 58.4263 20.3518 58.0845 19.9783C57.7428 19.6049 57.6388 18.9389 57.8525 18.491C58.0662 18.0432 58.5164 17.983 58.8581 18.3564C59.1998 18.7299 59.3039 19.3959 59.0902 19.8437Z" fill="white"/>
<path d="M60.6601 21.5132C60.2682 21.2643 59.8534 21.4985 59.7335 22.0367C59.6136 22.575 59.8342 23.213 60.2261 23.4619C60.618 23.7108 61.0328 23.4766 61.1527 22.9384C61.2727 22.4001 61.0521 21.7621 60.6601 21.5132Z" fill="white"/>
<path d="M58.1847 22.145C57.8634 21.6885 57.3803 21.6477 57.1059 22.0542C56.8315 22.4606 56.8696 23.1604 57.1908 23.6169C57.5121 24.0734 57.9949 24.1142 58.2694 23.7077C58.5438 23.3013 58.5059 22.6016 58.1847 22.145Z" fill="white"/>
<path d="M62.1147 24.633C61.1213 26.7159 59.0272 26.9961 57.4377 25.2592C55.8481 23.5223 55.3648 20.4257 56.3582 18.3427C57.3516 16.2597 59.4457 15.9796 61.0352 17.7164C62.6247 19.4533 63.1081 22.55 62.1147 24.633Z" stroke="url(#paint14_linear_203_12185)" stroke-width="0.976565" stroke-linecap="round" stroke-linejoin="round"/>
<g opacity="0.5">
<path d="M55.7854 17.7166C56.9767 15.2191 59.4874 14.8827 61.3934 16.9655C63.2995 19.0482 63.8789 22.7614 62.6876 25.2589C61.4963 27.7564 58.9857 28.0927 57.0796 26.01C55.1735 23.9272 54.5942 20.2141 55.7854 17.7166Z" stroke="url(#paint15_linear_203_12185)" stroke-width="0.976565" stroke-linecap="round" stroke-linejoin="round"/>
</g>
<g opacity="0.5">
<g opacity="0.5">
<path d="M31.3987 69.6329C34.2628 76.1081 36.7534 82.2098 29.5309 74.3649C30.6688 76.0774 26.8446 81.7585 30.029 82.7079C36.16 84.5358 52.5235 83.1266 61.8848 76.788C68.1979 72.5133 68.7093 62.3157 68.3817 62.6118L31.3987 69.6329Z" fill="#0E3B04"/>
</g>
</g>
<path d="M20.1362 78.6992C18.5172 82.3107 14.7625 91.1628 14.602 92.6445C14.4415 94.1261 22.3997 99.7609 24.3272 95.539C26.2547 91.3171 30.2184 83.5546 30.8186 81.2705C32.9911 73.0017 23.0038 72.3023 20.1362 78.6992Z" fill="#558629"/>
<path d="M20.1362 78.6992C18.5172 82.3107 14.7625 91.1629 14.602 92.6445C14.4415 94.1261 22.3997 99.7609 24.3272 95.539C26.2547 91.3171 30.2184 83.5546 30.8186 81.2705C32.9911 73.0017 23.0038 72.3023 20.1362 78.6992Z" stroke="#114804" stroke-width="1.36719" stroke-linecap="round" stroke-linejoin="round"/>
<path d="M20.1362 78.6992C18.5172 82.3107 14.7625 91.1629 14.602 92.6445C14.4415 94.1261 22.3997 99.7609 24.3272 95.539C26.2547 91.3171 30.2184 83.5546 30.8186 81.2705C32.9911 73.0017 23.0038 72.3023 20.1362 78.6992Z" stroke="#114804" stroke-width="1.95312" stroke-linecap="round" stroke-linejoin="round" stroke-dasharray="0.39 1.37"/>
<path d="M23.2419 86.8188C22.5065 85.1423 21.5198 83.503 20.3827 82.0774C17.6452 78.6454 14.0358 76.4518 10.9614 77.9548C6.65516 80.0598 6.71473 86.8362 9.53367 91.9991C11.7153 95.9946 15.5495 99.0241 20.2919 98.1743C22.8395 97.7179 24.1309 96.1444 24.5093 94.0544" fill="url(#paint16_linear_203_12185)"/>
<path d="M23.2419 86.8188C22.5065 85.1423 21.5198 83.503 20.3827 82.0774C17.6452 78.6454 14.0358 76.4518 10.9614 77.9548C6.65516 80.0598 6.71473 86.8362 9.53367 91.9991C11.7153 95.9946 15.5495 99.0241 20.2919 98.1743C22.8395 97.7179 24.1309 96.1444 24.5093 94.0544" stroke="#1B5E0E" stroke-width="1.36719" stroke-linecap="round" stroke-linejoin="round"/>
<path d="M23.2419 86.8188C22.5065 85.1423 21.5198 83.503 20.3827 82.0774C17.6452 78.6454 14.0358 76.4518 10.9614 77.9548C6.65516 80.0598 6.71473 86.8362 9.53367 91.9991C11.7153 95.9946 15.5495 99.0241 20.2919 98.1743C22.8395 97.7179 24.1309 96.1444 24.5093 94.0544" stroke="#1B5E0E" stroke-width="1.95312" stroke-linecap="round" stroke-linejoin="round" stroke-dasharray="0.39 1.37"/>
<path d="M10.291 93.2466C12.5475 96.5993 16.0576 98.9333 20.292 98.1745C22.8396 97.7181 24.1311 96.1446 24.5094 94.0546" stroke="#114804" stroke-width="1.36719" stroke-linecap="round" stroke-linejoin="round"/>
<path d="M10.291 93.2466C12.5475 96.5993 16.0576 98.9333 20.292 98.1745C22.8396 97.7181 24.1311 96.1446 24.5094 94.0546" stroke="#114804" stroke-width="1.95312" stroke-linecap="round" stroke-linejoin="round" stroke-dasharray="0.39 1.37"/>
<path d="M24.5093 94.0544C24.1309 96.1444 22.8395 97.7179 20.2919 98.1743C15.5495 99.0241 11.7153 95.9946 9.53367 91.9991C6.71473 86.8362 6.65516 80.0598 10.9614 77.9548C14.0358 76.4518 17.6452 78.6454 20.3827 82.0774C21.5198 83.503 22.5065 85.1423 23.2419 86.8188" stroke="#114804" stroke-width="1.36719" stroke-linecap="round" stroke-linejoin="round"/>
<path d="M24.5093 94.0544C24.1309 96.1444 22.8395 97.7179 20.2919 98.1743C15.5495 99.0241 11.7153 95.9946 9.53367 91.9991C6.71473 86.8362 6.65516 80.0598 10.9614 77.9548C14.0358 76.4518 17.6452 78.6454 20.3827 82.0774C21.5198 83.503 22.5065 85.1423 23.2419 86.8188" stroke="#114804" stroke-width="1.95312" stroke-linecap="round" stroke-linejoin="round" stroke-dasharray="1.95 195.31"/>
<g opacity="0.22">
<path d="M11.1539 89.07C9.74175 84.3081 9.85952 81.2208 12.8013 79.9575" stroke="#C6FFAB" stroke-width="1.95312" stroke-linecap="round" stroke-linejoin="round"/>
</g>
<g opacity="0.22">
<path d="M21.5713 80.6791C22.3979 78.0016 23.9236 76.8494 25.6402 76.5283" stroke="#C6FFAB" stroke-width="1.95312" stroke-linecap="round" stroke-linejoin="round"/>
</g>
<path d="M55.1152 83.1013C37.7634 79.1101 29.1519 61.3519 34.4513 53.1783C39.7507 45.0046 49.3613 49.1363 51.5169 52.0105C56.7265 42.0406 64.796 45.1916 67.6703 50.94C70.5445 56.6884 71.1031 71.7839 55.1152 83.1013Z" fill="url(#paint17_linear_203_12185)"/>
<path d="M55.1152 83.1013C37.7634 79.1101 29.1519 61.3519 34.4513 53.1783C39.7507 45.0046 49.3613 49.1363 51.5169 52.0105C56.7265 42.0406 64.796 45.1916 67.6703 50.94C70.5445 56.6884 71.1031 71.7839 55.1152 83.1013Z" stroke="#C30095" stroke-width="1.36719" stroke-linecap="round" stroke-linejoin="round"/>
<path d="M55.1152 83.1013C37.7634 79.1101 29.1519 61.3519 34.4513 53.1783C39.7507 45.0046 49.3613 49.1363 51.5169 52.0105C56.7265 42.0406 64.796 45.1916 67.6703 50.94C70.5445 56.6884 71.1031 71.7839 55.1152 83.1013Z" stroke="#C30095" stroke-width="1.95312" stroke-linecap="round" stroke-linejoin="round" stroke-dasharray="0.39 1.37"/>
<path d="M63.3605 46.4463C65.1756 47.3953 66.7115 49.0232 67.6699 50.94C70.5441 56.6885 71.1027 71.784 55.1148 83.1014C49.0129 81.6979 43.9916 78.5916 40.2764 74.7986" stroke="#810062" stroke-width="1.36719" stroke-linecap="round" stroke-linejoin="round"/>
<path d="M63.3605 46.4463C65.1756 47.3953 66.7115 49.0232 67.6699 50.94C70.5441 56.6885 71.1027 71.784 55.1148 83.1014C49.0129 81.6979 43.9916 78.5916 40.2764 74.7986" stroke="#810062" stroke-width="1.95312" stroke-linecap="round" stroke-linejoin="round" stroke-dasharray="0.39 1.37"/>
<g opacity="0.3">
<path d="M45.2346 79.1505C51.2895 79.3652 55.8668 78.4357 59.1473 77.1435C61.367 76.2691 62.993 75.2288 64.0811 74.2644C66.574 70.2757 70.0641 61.2015 69.2664 56.7142C64.7561 56.6042 55.118 60.1048 47.3816 63.2661C41.0928 65.8361 36.0605 68.1816 36.0605 68.1816C36.0605 68.1816 39.6504 76.2587 45.2346 79.1505Z" fill="#820063"/>
</g>
<g opacity="0.5">
<path d="M44.0454 48.4526C29.7944 49.736 33.9991 74.5813 55.1155 83.1013" stroke="#A80080" stroke-width="0.976562" stroke-linecap="round" stroke-linejoin="round"/>
</g>
<g opacity="0.22">
<path d="M37.8114 59.7747C37.2595 56.5321 37.3976 53.0825 40.9851 51.1506" stroke="white" stroke-width="1.95312" stroke-linecap="round" stroke-linejoin="round"/>
</g>
<path d="M48.2684 51.2474C42.5309 48.6562 39.769 49.7667 37.8499 53.4407C35.9307 57.1148 42.2366 61.5015 53.5874 57.7728C64.9381 54.0441 66.1446 53.1118 65.7059 50.8087C65.2672 48.5056 60.3321 45.3802 57.2065 47.2993C54.0809 49.2185 53.5325 52.8925 52.052 53.0569C50.5715 53.2214 49.9682 52.0151 48.2684 51.2474Z" fill="url(#paint18_linear_203_12185)"/>
<path d="M17.9422 63.7825C28.1469 76.8483 48.958 77.8389 60.061 71.8547C65.9606 68.6748 62.8299 62.8787 58.6303 64.7971C51.0979 68.2379 31.6018 68.0184 23.8457 57.7977C19.0998 51.5436 15.0535 60.084 17.9422 63.7825Z" fill="url(#paint19_linear_203_12185)"/>
<path d="M17.9422 63.7825C28.1469 76.8483 48.958 77.8389 60.061 71.8547C65.9606 68.6748 62.8299 62.8787 58.6303 64.7971C51.0979 68.2379 31.6018 68.0184 23.8457 57.7977C19.0998 51.5436 15.0535 60.084 17.9422 63.7825Z" stroke="#1B5E0E" stroke-width="1.36719" stroke-linecap="round" stroke-linejoin="round"/>
<path d="M17.9422 63.7825C28.1469 76.8483 48.958 77.8389 60.061 71.8547C65.9606 68.6748 62.8299 62.8787 58.6303 64.7971C51.0979 68.2379 31.6018 68.0184 23.8457 57.7977C19.0998 51.5436 15.0535 60.084 17.9422 63.7825Z" stroke="#1B5E0E" stroke-width="1.95312" stroke-linecap="round" stroke-linejoin="round" stroke-dasharray="0.39 1.37"/>
<path d="M19.3701 65.4602C29.9854 76.9229 49.4535 77.5717 60.0609 71.8548C65.9605 68.6749 62.8299 62.8788 58.6303 64.7971C56.0813 65.9616 52.1623 66.7067 47.792 66.787" stroke="#114804" stroke-width="1.36719" stroke-linecap="round" stroke-linejoin="round"/>
<path d="M19.3701 65.4602C29.9854 76.9229 49.4535 77.5717 60.0609 71.8548C65.9605 68.6749 62.8299 62.8788 58.6303 64.7971C56.0813 65.9616 52.1623 66.7067 47.792 66.787" stroke="#114804" stroke-width="1.95312" stroke-linecap="round" stroke-linejoin="round" stroke-dasharray="0.39 1.37"/>
<g opacity="0.5">
<path d="M17.9424 60.7432C20.0811 68.5494 41.4455 80.5994 61.8467 69.6213" stroke="#1B5E0E" stroke-width="0.976562" stroke-linecap="round" stroke-linejoin="round"/>
</g>
<g opacity="0.22">
<path d="M20.373 57.9067C22.7256 61.3286 32.7494 67.5702 39.4863 68.105" stroke="#C6FFAB" stroke-width="1.95312" stroke-linecap="round" stroke-linejoin="round"/>
</g>
<path d="M68.4881 49.3518C71.1299 57.0477 51.6035 61.8106 47.3117 61.8106C43.0199 61.8106 41.9709 68.5821 48.933 68.2959C55.8951 68.0098 68.0836 61.8024 71.8031 58.6551C75.5227 55.5079 74.723 50.3016 74.723 50.3016" fill="#558629"/>
<path d="M68.4881 49.3518C71.1299 57.0477 51.6035 61.8106 47.3117 61.8106C43.0199 61.8106 41.9709 68.5821 48.933 68.2959C55.8951 68.0098 68.0836 61.8024 71.8031 58.6551C75.5227 55.5079 74.7231 50.3016 74.7231 50.3016" stroke="#1B5E0E" stroke-width="1.36719" stroke-linecap="round" stroke-linejoin="round"/>
<path d="M68.4881 49.3518C71.1299 57.0477 51.6035 61.8106 47.3117 61.8106C43.0199 61.8106 41.9709 68.5821 48.933 68.2959C55.8951 68.0098 68.0836 61.8024 71.8031 58.6551C75.5227 55.5079 74.7231 50.3016 74.7231 50.3016" stroke="#1B5E0E" stroke-width="1.95312" stroke-linecap="round" stroke-linejoin="round" stroke-dasharray="0.39 1.37"/>
<path d="M44.2832 66.4666C44.9234 67.5673 46.3965 68.4001 48.9334 68.2958C55.8955 68.0097 68.084 61.8023 71.8035 58.655C75.523 55.5078 74.7234 50.3015 74.7234 50.3015" stroke="#114804" stroke-width="1.36719" stroke-linecap="round" stroke-linejoin="round"/>
<path d="M44.2832 66.4666C44.9234 67.5673 46.3965 68.4001 48.9334 68.2958C55.8955 68.0097 68.084 61.8023 71.8035 58.655C75.523 55.5078 74.7234 50.3015 74.7234 50.3015" stroke="#114804" stroke-width="1.95312" stroke-linecap="round" stroke-linejoin="round" stroke-dasharray="0.39 1.37"/>
<path d="M74.7231 50.3016C74.7231 50.3016 75.5227 55.5079 71.8031 58.6551C68.0836 61.8024 55.8951 68.0098 48.933 68.2959C41.9709 68.5821 43.0199 61.8106 47.3117 61.8106C51.6035 61.8106 71.1299 57.0477 68.4881 49.3518" stroke="#114804" stroke-width="1.95312" stroke-linecap="round" stroke-linejoin="round" stroke-dasharray="1.95 195.31"/>
<g opacity="0.22">
<path d="M46.8359 63.9189C52.8244 63.705 61.4066 61.2968 64.8525 58.655" stroke="#C6FFAB" stroke-width="1.95312" stroke-linecap="round" stroke-linejoin="round"/>
</g>
</g>
</g>
<defs>
<linearGradient id="paint0_linear_203_12185" x1="75.7123" y1="76.3751" x2="83.2617" y2="49.7722" gradientUnits="userSpaceOnUse">
<stop stop-color="#558629"/>
<stop offset="0.5" stop-color="#69A038"/>
<stop offset="1" stop-color="#7DBB46"/>
</linearGradient>
<radialGradient id="paint1_radial_203_12185" cx="0" cy="0" r="1" gradientUnits="userSpaceOnUse" gradientTransform="translate(49.5401 16.2189) scale(28.398 28.398)">
<stop stop-color="#7FD037"/>
<stop offset="0.5" stop-color="#6AAB30"/>
<stop offset="1" stop-color="#558629"/>
</radialGradient>
<radialGradient id="paint2_radial_203_12185" cx="0" cy="0" r="1" gradientUnits="userSpaceOnUse" gradientTransform="translate(47.5872 45.7112) scale(17.5404)">
<stop stop-color="#7FD037"/>
<stop offset="0.5" stop-color="#6AAB30"/>
<stop offset="1" stop-color="#558629"/>
</radialGradient>
<linearGradient id="paint3_linear_203_12185" x1="43.6812" y1="41.2189" x2="43.5301" y2="21.6535" gradientUnits="userSpaceOnUse">
<stop offset="0.09" stop-color="#E83C2B"/>
<stop offset="0.55" stop-color="#F49E95"/>
<stop offset="1" stop-color="white"/>
</linearGradient>
<linearGradient id="paint4_linear_203_12185" x1="35.0871" y1="31.6483" x2="33.9928" y2="15.7819" gradientUnits="userSpaceOnUse">
<stop stop-color="#B1D3E2"/>
<stop offset="0.22" stop-color="#D8E9F0"/>
<stop offset="0.44" stop-color="white"/>
</linearGradient>
<linearGradient id="paint5_linear_203_12185" x1="35.0535" y1="24.2306" x2="33.5086" y2="21.7092" gradientUnits="userSpaceOnUse">
<stop stop-color="#00798D"/>
<stop offset="0.5" stop-color="#003C46"/>
<stop offset="1"/>
</linearGradient>
<linearGradient id="paint6_linear_203_12185" x1="37.0221" y1="28.2328" x2="35.3506" y2="25.7278" gradientUnits="userSpaceOnUse">
<stop stop-color="#00798D"/>
<stop offset="0.5" stop-color="#003C46"/>
<stop offset="1"/>
</linearGradient>
<linearGradient id="paint7_linear_203_12185" x1="32.4932" y1="27.6852" x2="30.782" y2="25.036" gradientUnits="userSpaceOnUse">
<stop stop-color="#00798D"/>
<stop offset="0.5" stop-color="#003C46"/>
<stop offset="1"/>
</linearGradient>
<linearGradient id="paint8_linear_203_12185" x1="36.9385" y1="29.705" x2="31.8663" y2="21.1674" gradientUnits="userSpaceOnUse">
<stop stop-color="#00798D"/>
<stop offset="0.5" stop-color="#003C46"/>
<stop offset="1"/>
</linearGradient>
<linearGradient id="paint9_linear_203_12185" x1="31.374" y1="19.9948" x2="37.5819" y2="30.9409" gradientUnits="userSpaceOnUse">
<stop stop-color="#00798D"/>
<stop offset="0.5" stop-color="#003C46"/>
<stop offset="1"/>
</linearGradient>
<linearGradient id="paint10_linear_203_12185" x1="56.1811" y1="30.086" x2="55.0867" y2="14.2196" gradientUnits="userSpaceOnUse">
<stop stop-color="#B1D3E2"/>
<stop offset="0.22" stop-color="#D8E9F0"/>
<stop offset="0.44" stop-color="white"/>
</linearGradient>
<linearGradient id="paint11_linear_203_12185" x1="59.7271" y1="20.2397" x2="57.8637" y2="17.609" gradientUnits="userSpaceOnUse">
<stop stop-color="#00798D"/>
<stop offset="0.5" stop-color="#003C46"/>
<stop offset="1"/>
</linearGradient>
<linearGradient id="paint12_linear_203_12185" x1="61.3764" y1="24.134" x2="59.7049" y2="21.6291" gradientUnits="userSpaceOnUse">
<stop stop-color="#00798D"/>
<stop offset="0.5" stop-color="#003C46"/>
<stop offset="1"/>
</linearGradient>
<linearGradient id="paint13_linear_203_12185" x1="58.8898" y1="24.1469" x2="57.0726" y2="21.7251" gradientUnits="userSpaceOnUse">
<stop stop-color="#00798D"/>
<stop offset="0.5" stop-color="#003C46"/>
<stop offset="1"/>
</linearGradient>
<linearGradient id="paint14_linear_203_12185" x1="61.2926" y1="25.6062" x2="56.2204" y2="17.0686" gradientUnits="userSpaceOnUse">
<stop stop-color="#00798D"/>
<stop offset="0.5" stop-color="#003C46"/>
<stop offset="1"/>
</linearGradient>
<linearGradient id="paint15_linear_203_12185" x1="55.7284" y1="15.8959" x2="61.9364" y2="26.842" gradientUnits="userSpaceOnUse">
<stop stop-color="#00798D"/>
<stop offset="0.5" stop-color="#003C46"/>
<stop offset="1"/>
</linearGradient>
<linearGradient id="paint16_linear_203_12185" x1="17.8997" y1="92.7811" x2="9.01258" y2="74.3852" gradientUnits="userSpaceOnUse">
<stop stop-color="#558629"/>
<stop offset="0.5" stop-color="#74A24A"/>
<stop offset="1" stop-color="#93BF6C"/>
</linearGradient>
<linearGradient id="paint17_linear_203_12185" x1="50.9076" y1="58.2111" x2="51.4169" y2="26.283" gradientUnits="userSpaceOnUse">
<stop offset="0.09" stop-color="#D64FC3"/>
<stop offset="0.55" stop-color="#EAA7E1"/>
<stop offset="1" stop-color="white"/>
</linearGradient>
<linearGradient id="paint18_linear_203_12185" x1="49.9311" y1="41.2189" x2="52.234" y2="58.5466" gradientUnits="userSpaceOnUse">
<stop stop-color="white"/>
<stop offset="0.5" stop-color="white" stop-opacity="0.5"/>
<stop offset="1" stop-color="white" stop-opacity="0"/>
</linearGradient>
<linearGradient id="paint19_linear_203_12185" x1="39.1516" y1="70.4996" x2="41.9799" y2="57.4809" gradientUnits="userSpaceOnUse">
<stop stop-color="#558629"/>
<stop offset="0.5" stop-color="#69A235"/>
<stop offset="1" stop-color="#7CBF41"/>
</linearGradient>
<clipPath id="clip0_203_12185">
<rect width="100" height="100" fill="white"/>
</clipPath>
</defs>
</svg>
