<svg width="100" height="100" viewBox="0 0 100 100" fill="none" xmlns="http://www.w3.org/2000/svg">
<g clip-path="url(#clip0_7_3510)">
<mask id="mask0_7_3510" style="mask-type:luminance" maskUnits="userSpaceOnUse" x="0" y="0" width="100" height="100">
<path d="M100 0H0V100H100V0Z" fill="white"/>
</mask>
<g mask="url(#mask0_7_3510)">
<path d="M36.5527 25.0067C36.5527 25.0067 37.441 12.5723 41.2896 6.2073C41.2896 6.2073 53.8719 1.47059 65.1219 23.8225" fill="url(#paint0_linear_7_3510)"/>
<path d="M36.5029 26.388C36.5029 26.388 36.5523 13.3125 41.0424 6.74996C41.0424 6.74996 49.9158 5.06382 52.0951 22.1406L49.2332 22.7367C49.2332 22.7367 48.641 11.5853 42.1279 10.3025C42.1279 10.3025 38.674 15.2367 38.8715 24.9078L36.5029 26.388Z" fill="url(#paint1_linear_7_3510)"/>
<path d="M41.3389 21.3553C41.3389 21.3553 45.582 19.7764 48.4439 19.5789C48.4439 19.5789 48.3453 14.3484 44.2992 10.7959C44.2992 10.7959 41.5363 15.0395 41.3389 21.3553Z" fill="url(#paint2_linear_7_3510)"/>
<path d="M40.6973 23.2302C40.6973 23.2302 40.8453 14.6444 43.9539 10.9438" stroke="#77004A" stroke-width="1.5625" stroke-linecap="round" stroke-linejoin="round"/>
<path d="M50.6153 14.4966C50.6153 14.4966 51.8067 16.6099 52.3915 21.6019C52.9762 26.5939 59.8819 21.7699 60.385 19.9736C60.385 19.9736 62.2725 20.9568 57.0215 14.2414C51.7706 7.52593 47.4291 9.24194 50.6153 14.4966Z" fill="url(#paint3_linear_7_3510)"/>
<path d="M36.5527 25.0065C36.5527 25.0065 37.4408 12.5723 41.2895 6.20728" stroke="#77004A" stroke-width="1.5625" stroke-linecap="round" stroke-linejoin="round"/>
<path d="M41.2891 6.2071C41.2891 6.2071 53.8715 1.47019 65.1215 23.8221" stroke="#510032" stroke-width="1.5625" stroke-linecap="round" stroke-linejoin="round"/>
<path d="M42.6211 9.75977C42.6211 9.75977 47.8021 11.3881 48.5422 21.75" stroke="#77004A" stroke-width="1.5625" stroke-linecap="round" stroke-linejoin="round"/>
<path d="M19.8667 40.4971C19.8667 40.4971 15.479 39.5996 14.5255 44.2953C13.4249 49.7155 24.6036 54.8006 24.6036 54.8006L19.8667 40.4971Z" fill="#9199A8"/>
<path d="M19.8667 40.4971C19.8667 40.4971 15.479 39.5996 14.5255 44.2953C13.4249 49.7155 24.6036 54.8006 24.6036 54.8006L19.8667 40.4971Z" stroke="#060707" stroke-width="1.5625" stroke-linecap="round" stroke-linejoin="round"/>
<path d="M27.7778 94.2017C27.7778 94.2017 24.4102 91.9189 22.4485 89.2425C20.3122 86.328 18.379 81.8923 17.3497 73.0077C17.0329 70.2734 22.3827 63.9782 23.4928 56.2808C24.4509 49.6388 19.1491 49.1064 17.2757 46.215C16.6282 45.2159 17.3346 44.0277 17.6651 42.8669C23.8358 21.1999 50.927 16.9868 62.9675 19.0933C75.0079 21.1997 86.4462 32.4847 85.8442 48.1331C85.2423 63.7816 82.8512 72.3417 82.8512 72.3417C82.8512 72.3417 78.3678 81.5814 58.5011 88.4025C40.6624 94.5273 27.7778 94.2017 27.7778 94.2017Z" fill="url(#paint4_linear_7_3510)"/>
<g opacity="0.13">
<path d="M39.0682 91.9143C39.0682 91.9143 31.7418 64.5782 37.8926 44.1758C42.1768 29.9653 53.9447 26.8567 53.9447 26.8567C53.9447 26.8567 66.0668 28.8219 69.0105 36.5932C69.0105 36.5932 59.4957 47.2844 58.7488 57.0541C57.2182 77.0772 55.0549 88.5836 55.0549 88.5836C55.0549 88.5836 42.3988 94.3567 39.0682 91.9143Z" fill="white"/>
</g>
<g opacity="0.43">
<path d="M18.0898 73.1558C18.0898 73.1558 19.3811 80.8122 22.3416 87.1774C22.3416 87.1774 25.5982 91.6181 29.4469 93.5425" stroke="white" stroke-width="1.5625" stroke-linecap="round" stroke-linejoin="round"/>
</g>
<path d="M52.5795 68.863C52.5795 68.863 68.874 65.2728 72.9537 51.988C77.6584 36.6681 74.0434 30.6724 74.0434 30.6724C74.0434 30.6724 60.8619 35.9718 55.4145 46.4095C50.8033 55.2446 52.5795 68.863 52.5795 68.863Z" fill="url(#paint5_linear_7_3510)"/>
<path d="M52.1355 75.2281C52.1355 75.2281 51.7242 82.5888 52.1684 89.25C52.1684 89.25 62.8262 87.4736 68.1551 84.1429C68.1551 84.1429 71.0416 71.7088 71.2637 67.7121C71.4857 63.7154 54.8328 67.2679 51.9463 75.9275" fill="url(#paint6_linear_7_3510)"/>
<g opacity="0.67">
<path d="M17.3438 46.328C17.3438 46.328 20.259 29.5776 39.8416 22.194C53.3859 17.0872 68.2625 20.4176 68.2625 20.4176" stroke="url(#paint7_linear_7_3510)" stroke-width="1.5625" stroke-linecap="round" stroke-linejoin="round"/>
</g>
<g opacity="0.57">
<path d="M53.1722 48.8796C42.5019 54.1025 28.4906 52.9726 24.6033 45.0308C20.716 37.089 26.6045 28.6152 37.2748 23.3923C47.9451 18.1695 59.7464 20.374 63.6338 28.3158C67.5211 36.2576 63.8425 43.6568 53.1722 48.8796Z" fill="url(#paint8_radial_7_3510)"/>
</g>
<path d="M83.0818 60.6316C83.0818 60.6316 81.9115 69.8134 80.4174 72.0748C76.766 77.6011 66.9963 83.7236 59.6689 85.5C59.6689 85.5 66.6016 73.1892 68.3779 71.1908C70.1543 69.1923 83.0818 60.6316 83.0818 60.6316Z" fill="url(#paint9_linear_7_3510)"/>
<path d="M83.2334 36.4302C84.4627 39.7478 85.0975 43.4321 84.9447 47.4019C84.3525 62.7966 81.9842 70.8394 81.9842 70.8394C81.9842 70.8394 77.6422 80.1157 58.1027 86.8263C40.558 92.8517 30.4082 93.4688 30.4082 93.4688" stroke="#F943BC" stroke-width="1.58848" stroke-linecap="round" stroke-linejoin="round"/>
<path d="M59.6689 85.5C59.6689 85.5 66.0588 73.9539 68.3779 71.1908C70.6971 68.4277 83.0818 60.6316 83.0818 60.6316C83.0818 60.6316 71.4783 69.5044 69.2086 72.3664C69.2086 72.3664 62.2102 80.8619 59.6689 85.5Z" fill="#510032"/>
<path d="M19.5703 46.6593C19.5703 46.6593 22.7117 33.2468 34.2578 27.6218C34.2578 27.6218 38.4025 26.1415 43.1395 26.4376C43.1395 26.4376 30.4092 33.0741 28.4848 49.0856C26.7305 63.6829 19.5703 46.6593 19.5703 46.6593Z" fill="url(#paint10_radial_7_3510)"/>
<g opacity="0.5">
<path d="M19.4307 79.1101C19.4307 79.1101 20.9109 81.4785 27.8682 82.3666C34.8254 83.2546 43.2631 81.6265 43.2631 81.6265C43.2631 81.6265 41.6346 90.5328 30.582 92.9011" stroke="#FFA4EE" stroke-width="3.51562" stroke-linecap="round" stroke-linejoin="round"/>
<path d="M27.1279 82.3662C27.1279 82.3662 27.3746 88.2133 28.4107 92.8021" stroke="#FFA4EE" stroke-width="3.51562" stroke-linecap="round" stroke-linejoin="round"/>
</g>
<path d="M26.9385 82.1951C20.8012 81.3477 18.5986 78.8408 18.5986 78.8408C18.5986 78.8408 19.7758 83.8379 21.5824 87.5488C22.9201 90.2965 26.5141 93.4082 28.1346 94.1303C39.7953 93.1641 43.0658 81.5525 43.0658 81.5525C43.0658 81.5525 33.8863 83.1545 26.9385 82.1951Z" stroke="#FFA4EE" stroke-width="1.5625" stroke-linecap="round" stroke-linejoin="round"/>
<path d="M26.9307 82.2927C26.9307 82.2927 27.1773 88.5097 28.2135 93.0986" stroke="#FFA4EE" stroke-width="1.5625" stroke-linecap="round" stroke-linejoin="round"/>
<g opacity="0.5">
<path d="M74.0732 57.9748C74.0732 57.9748 79.3717 55.5697 84.5016 53.8181" stroke="#FFA4EE" stroke-width="3.51562" stroke-linecap="round" stroke-linejoin="round"/>
</g>
<path d="M73.5586 58.1645C73.5586 58.1645 78.4434 56.3883 85.45 53.4277" stroke="#FFA4EE" stroke-width="1.5625" stroke-miterlimit="10"/>
<g opacity="0.5">
<path d="M49.875 51.8734C49.875 51.8734 51.2072 41.6595 58.3125 35.4423C65.4178 29.2251 72.227 28.4851 72.227 28.4851" stroke="#FFA4EE" stroke-width="3.51562" stroke-linecap="round" stroke-linejoin="round"/>
</g>
<path d="M49.875 51.7994C49.875 51.7994 51.2072 41.5855 58.3125 35.3684C65.4178 29.1512 72.227 28.4111 72.227 28.4111" stroke="#FFA4EE" stroke-width="1.5625" stroke-linecap="round" stroke-linejoin="round"/>
<path d="M27.7778 94.2015C27.7778 94.2015 24.4102 91.9189 22.4485 89.2425C20.3122 86.3281 18.379 81.8923 17.3497 73.0077C17.0329 70.2734 22.3825 63.9782 23.4927 56.2808C24.4507 49.6388 19.1491 49.1064 17.2757 46.215C16.6282 45.2159 17.3346 44.0275 17.6651 42.8667C23.8358 21.1997 50.9268 16.9868 62.9673 19.0933C75.0077 21.1997 86.4462 32.4847 85.8442 48.1331C85.2423 63.7816 82.8512 72.3417 82.8512 72.3417C82.8512 72.3417 78.3677 81.5814 58.5009 88.4025C40.6622 94.5273 27.7778 94.2015 27.7778 94.2015Z" stroke="#930965" stroke-width="1.58848" stroke-linecap="round" stroke-linejoin="round"/>
<path d="M84.2078 37.3335C85.4371 40.6511 85.9971 44.8769 85.8443 48.8466C85.2521 64.2413 82.8838 72.2841 82.8838 72.2841C82.8838 72.2841 78.5416 81.5603 59.0021 88.2708C41.4574 94.2962 28.1182 94.2495 28.1182 94.2495" stroke="#510032" stroke-width="1.5625" stroke-linecap="round" stroke-linejoin="round"/>
<path d="M32.1672 54.0471C32.1672 54.0471 32.3646 60.0666 28.9107 64.8035C25.4568 69.5404 22.2002 74.968 22.2002 74.968L27.4305 77.2377C27.4305 77.2377 45.0949 64.6062 55.9502 62.7312C66.8055 60.8562 72.6277 61.843 72.6277 61.843C72.6277 61.843 75.3908 54.8365 69.9633 53.8496C64.5357 52.8627 57.4303 54.7379 49.0422 55.2312C40.6541 55.7246 32.1672 54.0471 32.1672 54.0471Z" fill="url(#paint11_linear_7_3510)"/>
<path d="M29.7988 77.2374C29.7988 77.2374 30.2922 71.3165 41.4436 65.2968C52.5949 59.277 66.8053 57.7966 70.1605 64.4085C70.1605 64.4085 53.8777 75.8559 41.8383 76.744C29.7988 77.6321 29.7988 77.2374 29.7988 77.2374Z" fill="#160814"/>
<path d="M27.8744 69.5157C27.8744 69.5157 30.7383 66.1476 33.4994 62.8052C37.2494 58.2657 36.3611 55.0091 36.3611 55.0091C36.3611 55.0091 29.848 54.2196 26.9861 53.3315C26.9861 53.3315 27.4797 59.746 25.0125 64.1868C22.5453 68.6276 21.46 71.1933 21.46 71.1933C21.46 71.1933 24.3219 69.7132 27.8744 69.5157Z" fill="url(#paint12_linear_7_3510)"/>
<path d="M23.4828 69.1455C23.4828 69.1455 24.5683 66.9744 26.1472 64.2113C27.7262 61.4482 29.1078 55.8232 28.6144 52.9613L25.6539 52.0732C25.6539 52.0732 26.3445 57.1061 23.5814 62.5336C20.8183 67.9611 19.4367 70.3297 20.2262 71.5139L23.4828 69.1455Z" fill="#8E6E8D"/>
<path d="M20.2266 71.6124C20.2266 71.6124 22.891 68.4544 27.2332 69.0466C31.5754 69.6388 35.5229 74.3755 37.2004 77.2374C37.2004 77.2374 21.1146 79.4085 20.2266 71.6124Z" fill="#594D57"/>
<g opacity="0.24">
<path d="M24.1123 74.1413C24.1123 74.1413 24.4824 71.4397 26.7027 70.6997C28.923 69.9596 34.2273 73.7466 33.4379 75.4735C32.6484 77.2005 24.1617 75.1282 24.1123 74.1413Z" fill="url(#paint13_linear_7_3510)"/>
</g>
<g opacity="0.67">
<path d="M20.5596 72.8828C20.5596 72.8828 25.5186 68.4051 30.5514 70.6254" stroke="url(#paint14_linear_7_3510)" stroke-width="1.5625" stroke-linecap="round" stroke-linejoin="round"/>
</g>
<path d="M20.2266 71.8903C20.2266 71.8903 22.891 68.7323 27.2332 69.3245C31.5754 69.9166 35.5229 74.6534 37.2004 77.5153" stroke="#281F26" stroke-width="1.58848" stroke-linecap="round" stroke-linejoin="round"/>
<path d="M29.0836 72.5437C29.0836 72.9832 28.7439 73.3395 28.325 73.3395C27.9061 73.3395 27.5664 72.9832 27.5664 72.5437C27.5664 72.1043 27.9061 71.748 28.325 71.748C28.7439 71.748 29.0836 72.1043 29.0836 72.5437Z" fill="#3A2E37"/>
<path d="M32.4322 74.7952C32.4322 75.2347 32.0926 75.5909 31.6736 75.5909C31.2547 75.5909 30.915 75.2347 30.915 74.7952C30.915 74.3558 31.2547 73.9995 31.6736 73.9995C32.0926 73.9995 32.4322 74.3558 32.4322 74.7952Z" fill="#3A2E37"/>
<path d="M25.9972 71.9638C25.8753 72.3859 25.4806 72.6429 25.1157 72.5374C24.7509 72.432 24.5538 72.0042 24.6757 71.5822C24.7976 71.1601 25.1923 70.9031 25.5572 71.0085C25.922 71.114 26.1191 71.5417 25.9972 71.9638Z" fill="#3A2E37"/>
<path d="M22.8003 72.9035C22.6587 73.2968 22.322 73.5359 22.0482 73.4375C21.7744 73.339 21.6669 72.9402 21.8085 72.5468C21.9501 72.1535 22.2869 71.9144 22.5607 72.0129C22.8345 72.1113 22.9419 72.5101 22.8003 72.9035Z" fill="#3A2E37"/>
<path d="M26.4127 74.24C26.4127 74.6795 26.073 75.0357 25.6541 75.0357C25.2352 75.0357 24.8955 74.6795 24.8955 74.24C24.8955 73.8006 25.2352 73.4443 25.6541 73.4443C26.073 73.4443 26.4127 73.8006 26.4127 74.24Z" fill="#3A2E37"/>
<path d="M29.4229 74.9646C29.4229 75.4398 29.0557 75.825 28.6025 75.825C28.1494 75.825 27.7822 75.4398 27.7822 74.9646C27.7822 74.4894 28.1494 74.1042 28.6025 74.1042C29.0557 74.1042 29.4229 74.4894 29.4229 74.9646Z" fill="#3A2E37"/>
<path d="M24.2007 73.8017C24.0591 74.195 23.7224 74.4341 23.4486 74.3357C23.1747 74.2372 23.0673 73.8384 23.2089 73.445C23.3505 73.0517 23.6872 72.8126 23.9611 72.9111C24.2349 73.0095 24.3423 73.4083 24.2007 73.8017Z" fill="#3A2E37"/>
<path d="M50.5225 74.1783C50.5225 74.1783 56.4434 58.1914 60.4895 54.6389C60.4895 54.6389 63.8447 53.4545 66.1145 54.0467C68.3842 54.6389 55.4566 73.1914 55.4566 73.1914C55.4566 73.1914 52.3975 74.2769 50.5225 74.1783Z" fill="#8E6E8D"/>
<path d="M53.1865 73.389C53.1865 73.389 60.2283 56.8564 63.4498 53.8495C64.9301 52.4679 72.5285 54.639 73.5154 57.3035C74.5023 59.9679 71.9365 63.7179 66.0154 68.0601C60.0943 72.4023 53.1865 73.389 53.1865 73.389Z" fill="url(#paint15_linear_7_3510)"/>
<path d="M22.6937 50.3955L25.6541 51.4811C25.6541 51.4811 26.1474 58.093 24.4699 61.9416C22.7924 65.7902 18.5488 69.7375 20.6213 73.685C22.6937 77.6324 32.0685 78.8166 45.8844 75.8561C59.7002 72.8955 72.1344 64.0139 74.3055 60.2639C74.3055 60.2639 74.6016 63.323 70.4568 67.2705C66.3121 71.218 56.5424 77.6322 37.4963 79.7047C18.4502 81.7771 15.9832 74.6719 17.6607 70.2311C19.3383 65.7902 25.2596 59.968 22.6937 50.3955Z" fill="url(#paint16_linear_7_3510)"/>
<path d="M17.4143 73.2897C17.4143 73.2897 16.8221 70.6252 18.8945 67.5167C20.967 64.4081 24.6676 57.1549 22.8912 50.9377" stroke="#510032" stroke-width="1.5625" stroke-linecap="round" stroke-linejoin="round"/>
<path d="M25.457 51.8755C25.457 51.8755 26.3453 54.8358 24.9636 59.9675C23.582 65.0991 19.832 68.1583 19.9306 72.1058C20.0293 76.0532 27.6203 79.2925 43.1214 76.5466C60.3912 73.4874 70.457 65.6911 73.9109 60.2636" stroke="#510032" stroke-width="1.5625" stroke-linecap="round" stroke-linejoin="round"/>
<path d="M16.9795 45.845C16.9795 45.845 21.5326 52.3063 34.5848 54.0465C54.5684 56.711 60.3414 53.8985 65.8184 53.4543C71.2953 53.0102 74.552 54.7868 74.2559 61.2999C73.9598 67.8129 61.5088 74.2534 49.3381 77.7307C40.3578 80.2965 19.4861 82.7635 17.4137 73.2899" stroke="#930965" stroke-width="1.58848" stroke-linecap="round" stroke-linejoin="round"/>
<path d="M17.446 43.3829C12.5974 42.9198 14.6466 51.4843 16.3345 50.0474C17.5874 46.9046 16.9431 43.7011 17.446 43.3829Z" fill="#9199A8"/>
<path d="M17.3204 43.4028C17.3204 43.4028 16.7282 46.3634 24.0982 49.3444C34.6868 53.6274 49.5013 53.6993 64.1995 51.6181C72.563 50.4339 74.8575 54.3565 74.5614 58.7974C74.5614 58.7974 39.0804 64.472 29.5079 61.0181C19.9355 57.5642 13.2538 52.7282 14.5366 44.7349" fill="#9199A8"/>
<path d="M17.3204 43.4028C17.3204 43.4028 16.7282 46.3634 24.0982 49.3444C34.6868 53.6274 49.5013 53.6993 64.1995 51.6181C72.563 50.4339 74.8575 54.3565 74.5614 58.7974C74.5614 58.7974 39.0804 64.472 29.5079 61.0181C19.9355 57.5642 13.2538 52.7282 14.5366 44.7349" stroke="#060707" stroke-width="1.5625" stroke-linecap="round" stroke-linejoin="round"/>
<path d="M14.5369 43.8467C14.5369 43.8467 13.5037 48.5127 23.6158 52.1361C35.458 56.3795 49.0766 56.3797 64.1752 53.9125C72.7285 52.5148 74.9592 54.9629 74.6631 59.4037C74.259 65.4666 68.76 69.909 61.6367 73.1701C49.3506 78.7951 35.2881 81.1637 26.4065 79.3873C17.5248 77.6109 15.4525 72.874 15.4525 72.874C15.4525 72.874 11.2803 57.9092 14.5369 43.8467Z" fill="url(#paint17_linear_7_3510)"/>
<path d="M16.7386 48.4255C16.7386 48.4255 16.3466 66.6761 18.5669 75.7796C18.5669 75.7796 24.8579 80.3683 34.1835 79.4802L32.8953 54.4232C32.8953 54.4232 22.3632 51.8066 16.7386 48.4255Z" fill="url(#paint18_linear_7_3510)"/>
<path d="M16.7728 48.4634C16.7728 48.4634 20.1623 52.2841 25.6392 53.0241C25.6392 53.0241 24.2728 66.8624 26.9373 79.5927C26.9373 79.5927 20.2267 77.8163 18.3517 75.6452C18.3517 75.6452 16.0644 62.4022 16.7728 48.4634Z" fill="url(#paint19_linear_7_3510)"/>
<path d="M15.5237 47.646C15.5237 47.646 18.2489 50.7886 27.6619 53.0735C37.075 55.3585 50.4807 56.7663 62.8922 54.1591C70.1383 52.6368 72.508 54.4169 72.468 57.8628C72.4133 62.5673 67.9508 67.8554 62.0192 70.7524C51.7881 75.7495 39.4053 78.929 27.7606 77.1526C20.1201 75.9872 16.3131 70.3435 16.3131 70.3435C16.3131 70.3435 13.4149 58.6812 15.5237 47.646Z" fill="url(#paint20_linear_7_3510)"/>
<g opacity="0.24">
<path d="M33.2866 54.2085C33.2866 54.2085 46.9694 56.5993 51.8544 55.6618C51.8544 55.6618 51.2624 65.7235 50.9663 77.3683C50.9663 77.3683 36.6569 79.7901 34.6833 79.7901C34.6833 79.7901 31.8064 70.6394 33.2866 54.2085Z" fill="url(#paint21_linear_7_3510)"/>
</g>
<g opacity="0.8">
<path d="M36.349 79.5436C39.2163 79.2781 45.2233 79.1137 47.1526 77.6717C49.3035 74.8526 50.5013 71.1598 52.2938 66.0706C53.6978 62.0843 54.9673 57.0792 55.2382 55.1894C53.3559 54.7356 49.2055 55.0285 44.6225 55.6988C44.2125 57.384 41.9791 64.5499 39.8062 68.9948C40.4653 69.0909 43.151 67.4309 44.253 66.5793C43.6372 69.985 40.3191 76.3175 36.349 79.5436Z" fill="url(#paint22_linear_7_3510)"/>
</g>
<g opacity="0.74">
<path d="M67.5251 59.0497C67.6556 59.1776 67.8687 59.1645 67.9708 59.0132C68.3367 58.4708 69.2126 57.463 70.4451 57.9229C72.081 58.5333 72.024 60.4641 70.7658 63.0546C70.0267 64.5764 69.2023 65.6042 68.648 66.1934C68.3017 66.5614 67.7269 66.5856 67.3492 66.2501C66.0712 65.1151 63.3747 62.4479 63.4878 60.2421C63.6269 57.5292 66.1199 57.671 67.5251 59.0497Z" fill="#21D6D1"/>
</g>
<g opacity="0.36">
<path d="M65.4736 63.8398L69.5814 58.1408C69.5814 58.1408 70.9137 57.8078 71.4318 59.3621L67.065 65.6531C67.065 65.6531 65.8066 64.839 65.4736 63.8398Z" fill="white"/>
</g>
<g opacity="0.36">
<path d="M64.7336 63.2355L67.7434 59.2883L67.176 58.9922L64.4375 62.8162L64.7336 63.2355Z" fill="white"/>
</g>
<path d="M67.5251 59.0497C67.6556 59.1776 67.8687 59.1645 67.9708 59.0132C68.3367 58.4708 69.2126 57.463 70.4451 57.9229C72.081 58.5333 72.024 60.4641 70.7658 63.0546C70.0267 64.5764 69.2023 65.6042 68.648 66.1934C68.3017 66.5614 67.7269 66.5856 67.3492 66.2501C66.0712 65.1151 63.3747 62.4479 63.4878 60.2421C63.6269 57.5292 66.1199 57.671 67.5251 59.0497Z" stroke="#060707" stroke-width="0.976562" stroke-linecap="round" stroke-linejoin="round"/>
<g opacity="0.4">
<mask id="mask1_7_3510" style="mask-type:luminance" maskUnits="userSpaceOnUse" x="16" y="19" width="45" height="76">
<path d="M52.7358 19.2871C30.7532 26.4988 23.0714 34.8009 19.7876 45.9996C18.4087 45.996 17.5298 47.0214 17.5786 48.0712C15.6743 51.0253 16.9438 72.0703 18.7825 77.1509C19.0679 77.5878 19.8979 78.0761 20.3805 78.331C20.8501 82.5439 22.0864 87.291 23.0718 89.7216C23.56 90.625 26.8315 94.3359 29.1997 94.0673C28.272 89.624 28.0766 82.8369 28.2651 80.5671C27.8081 80.6152 27.3686 80.4931 27.1712 80.3691C25.6352 68.7011 25.4888 56.8847 26.3677 52.1728C26.4706 51.6214 26.7583 50.3418 27.796 49.7576C30.1216 34.2125 42.6071 23.0349 60.0591 19.9218C58.8872 19.1406 55.8415 18.9183 52.7358 19.2871Z" fill="url(#paint23_linear_7_3510)"/>
</mask>
<g mask="url(#mask1_7_3510)">
<path d="M52.7358 19.2871C30.7532 26.4988 23.0714 34.8009 19.7876 45.9996C18.4087 45.996 17.5298 47.0214 17.5786 48.0712C15.6743 51.0253 16.9438 72.0703 18.7825 77.1509C19.0679 77.5878 19.8979 78.0761 20.3805 78.331C20.8501 82.5439 22.0864 87.291 23.0718 89.7216C23.56 90.625 26.8315 94.3359 29.1997 94.0673C28.272 89.624 28.0766 82.8369 28.2651 80.5671C27.8081 80.6152 27.3686 80.4931 27.1712 80.3691C25.6352 68.7011 25.4888 56.8847 26.3677 52.1728C26.4706 51.6214 26.7583 50.3418 27.796 49.7576C30.1216 34.2125 42.6071 23.0349 60.0591 19.9218C58.8872 19.1406 55.8415 18.9183 52.7358 19.2871Z" fill="url(#paint24_linear_7_3510)"/>
</g>
<mask id="mask2_7_3510" style="mask-type:luminance" maskUnits="userSpaceOnUse" x="39" y="25" width="43" height="68">
<path d="M72.5592 25.7812C57.3248 25.7812 44.6783 34.3262 42.3951 51.9078C41.0162 51.9043 40.1861 53.3691 40.2349 54.4189C39.6002 58.3496 38.9166 74.2188 40.5111 79.8365C40.7965 80.2734 41.8463 79.9316 42.3045 80.0889C42.7252 84.2773 43.2867 87.915 43.6041 92.0654C45.4107 91.851 49.9029 90.3861 52.2955 89.6973C51.734 85.4736 52.1002 80.4688 51.9469 77.784C51.4898 77.832 51.0015 77.9053 50.8041 77.7812C49.2682 66.1133 49.8541 59.375 50.733 54.6631C50.8359 54.1117 51.1724 52.3438 51.8683 51.9549C54.4928 38.4277 65.7721 31.1523 81.2506 28.8086C80.0787 28.0273 74.8053 25.9766 72.5592 25.7812Z" fill="url(#paint25_linear_7_3510)"/>
</mask>
<g mask="url(#mask2_7_3510)">
<path d="M72.5592 25.7812C57.3248 25.7812 44.6783 34.3262 42.3951 51.9078C41.0162 51.9043 40.1861 53.3691 40.2349 54.4189C39.6002 58.3496 38.9166 74.2188 40.5111 79.8365C40.7965 80.2734 41.8463 79.9316 42.3045 80.0889C42.7252 84.2773 43.2867 87.915 43.6041 92.0654C45.4107 91.851 49.9029 90.3861 52.2955 89.6973C51.734 85.4736 52.1002 80.4688 51.9469 77.784C51.4898 77.832 51.0015 77.9053 50.8041 77.7812C49.2682 66.1133 49.8541 59.375 50.733 54.6631C50.8359 54.1117 51.1724 52.3438 51.8683 51.9549C54.4928 38.4277 65.7721 31.1523 81.2506 28.8086C80.0787 28.0273 74.8053 25.9766 72.5592 25.7812Z" fill="url(#paint26_linear_7_3510)"/>
</g>
</g>
<path d="M14.5369 43.8462C14.5369 43.8462 13.5039 48.5122 23.616 52.1356C35.4582 56.379 49.0766 56.3792 64.1752 53.912C72.7285 52.5144 74.9592 54.9624 74.6631 59.4032C74.259 65.4661 68.76 69.9085 61.6367 73.1696C49.3506 78.7946 35.2881 81.1632 26.4065 79.3868C17.5248 77.6104 15.4525 72.8737 15.4525 72.8737C15.4525 72.8737 11.2803 57.9087 14.5369 43.8462Z" stroke="#060707" stroke-width="1.5625" stroke-linecap="round" stroke-linejoin="round"/>
<path d="M14.535 43.8396C14.535 43.8396 13.5018 48.5056 23.6139 52.1291C35.4561 56.3724 49.0745 56.3726 64.1731 53.9054C72.7264 52.5078 74.9571 54.9558 74.661 59.3966C74.2569 65.4595 68.758 69.9019 61.6348 73.163C49.3487 78.788 35.2862 81.1564 26.4045 79.38C17.5229 77.6037 15.4504 72.8669 15.4504 72.8669C15.4504 72.8669 11.2784 57.9021 14.535 43.8396Z" stroke="url(#paint27_linear_7_3510)" stroke-width="1.5625" stroke-linecap="round" stroke-linejoin="round"/>
<g opacity="0.2">
<path d="M41.3252 55.4779C45.7504 55.6984 50.3533 55.5486 55.1234 55.0918" stroke="url(#paint28_linear_7_3510)" stroke-width="1.5625" stroke-linecap="round" stroke-linejoin="round"/>
</g>
<g opacity="0.2">
<path d="M41.3252 55.4779C45.7504 55.6984 50.3533 55.5486 55.1234 55.0918" stroke="url(#paint29_linear_7_3510)" stroke-width="1.5625" stroke-linecap="round" stroke-linejoin="round"/>
</g>
<g opacity="0.2">
<path d="M41.3252 55.4779C45.7504 55.6984 50.3533 55.5486 55.1234 55.0918" stroke="url(#paint30_linear_7_3510)" stroke-width="1.5625" stroke-linecap="round" stroke-linejoin="round"/>
</g>
<g opacity="0.2">
<path d="M41.3252 55.4779C45.7504 55.6984 50.3533 55.5486 55.1234 55.0918" stroke="url(#paint31_linear_7_3510)" stroke-width="1.5625" stroke-linecap="round" stroke-linejoin="round"/>
</g>
<path d="M41.3252 55.4779C45.7504 55.6984 50.3533 55.5486 55.1234 55.0918" stroke="url(#paint32_linear_7_3510)" stroke-width="1.5625" stroke-linecap="round" stroke-linejoin="round"/>
<g opacity="0.2">
<path d="M15.6816 47.2004C16.8342 48.7012 19.09 50.4866 23.4707 52.077" stroke="url(#paint33_linear_7_3510)" stroke-width="1.5625" stroke-linecap="round" stroke-linejoin="round"/>
</g>
<g opacity="0.2">
<path d="M15.6816 47.2004C16.8342 48.7012 19.09 50.4866 23.4707 52.077" stroke="url(#paint34_linear_7_3510)" stroke-width="1.5625" stroke-linecap="round" stroke-linejoin="round"/>
</g>
<g opacity="0.2">
<path d="M15.6816 47.2004C16.8342 48.7012 19.09 50.4866 23.4707 52.077" stroke="url(#paint35_linear_7_3510)" stroke-width="1.5625" stroke-linecap="round" stroke-linejoin="round"/>
</g>
<g opacity="0.2">
<path d="M15.6816 47.2004C16.8342 48.7012 19.09 50.4866 23.4707 52.077" stroke="url(#paint36_linear_7_3510)" stroke-width="1.5625" stroke-linecap="round" stroke-linejoin="round"/>
</g>
<path d="M15.6816 47.2004C16.8342 48.7012 19.09 50.4866 23.4707 52.077" stroke="url(#paint37_linear_7_3510)" stroke-width="1.5625" stroke-linecap="round" stroke-linejoin="round"/>
<path d="M72.7101 52.5577C73.6833 62.5825 66.3456 71.4983 56.3208 72.4716C46.296 73.4448 37.3802 66.1071 36.407 56.0823C35.4337 46.0575 42.7714 37.1417 52.7962 36.1684C62.821 35.1952 71.7368 42.5329 72.7101 52.5577Z" fill="url(#paint38_radial_7_3510)"/>
<path d="M54.0363 46.4665C54.0363 46.4665 54.2152 54.3612 57.4902 54.3612C57.4902 54.3612 54.1768 53.8657 54.1768 62.2993C54.1768 62.2993 53.9688 54.4106 51.0758 54.4106C51.0758 54.4106 54.0363 53.8821 54.0363 46.4665Z" fill="white"/>
<path d="M76.2727 42.079C76.2727 42.079 81.5934 43.6946 85.0967 41.2768C85.0967 41.2768 87.9174 25.7468 83.1805 17.9014C78.4436 10.0561 71.2973 5.91121 65.3229 6.05925C65.3229 6.05925 57.5719 13.0905 56.3877 24.2665C56.3877 24.2665 57.4238 26.7829 60.8285 26.7089C60.8285 26.7089 62.827 13.7565 68.0818 12.7944C68.0818 12.7944 75.4832 20.6399 72.9668 39.1432C72.9668 39.1432 74.1756 41.9803 76.2727 42.079Z" fill="url(#paint39_linear_7_3510)"/>
<path d="M57.2682 22.5308C57.2682 22.5308 55.9361 26.0833 59.094 26.3794C59.094 26.3794 59.7928 16.1249 65.6152 10.4999C65.6152 10.4999 71.635 15.6313 72.8192 23.7235C74.0033 31.8157 73.107 39.4058 73.107 39.4058C73.107 39.4058 73.6498 41.7741 76.2731 42.0788C76.2731 42.0788 78.2176 34.4989 76.5692 24.9077C74.3981 12.2761 67.5643 7.53936 64.9738 6.4292C64.9738 6.4292 59.3406 10.3927 57.2682 22.5308Z" fill="url(#paint40_linear_7_3510)"/>
<path d="M60.8779 26.5856C60.8779 26.5856 68.8713 28.2631 72.8188 36.8487C72.8188 36.8487 76.4701 22.5395 67.5885 12.7698C67.5885 12.7698 61.8648 15.7303 60.8779 26.5856Z" fill="url(#paint41_linear_7_3510)"/>
<path d="M75.4097 19.5298C75.4097 19.5298 77.3341 26.635 76.8899 33.2962C76.4458 39.9573 76.0511 42.079 76.0511 42.079C76.0511 42.079 82.6384 43.3126 83.6745 41.0923C83.6745 41.0923 87.0792 30.3356 82.1942 20.2698C77.3093 10.204 72.7206 11.8817 75.4097 19.5298Z" fill="url(#paint42_linear_7_3510)"/>
<path d="M56.5898 24.1183C56.5898 24.1183 59.4021 10.6479 65.3232 6.05908C65.3232 6.05908 78.8504 6.93857 84.5668 21.6019C88.51 31.7169 85.4014 41.2153 85.4014 41.2153" stroke="#77004A" stroke-width="1.5625" stroke-linecap="round" stroke-linejoin="round"/>
<path d="M65.3232 6.05908C65.3232 6.05908 78.8504 6.93857 84.5668 21.6019C88.51 31.7169 85.4014 41.2153 85.4014 41.2153" stroke="#510032" stroke-width="1.5625" stroke-linecap="round" stroke-linejoin="round"/>
<g opacity="0.43">
<path d="M68.0508 10.0654C70.809 12.7799 73.8525 17.7 75.0797 24.8695" stroke="white" stroke-width="1.5625" stroke-linecap="round" stroke-linejoin="round"/>
</g>
<g opacity="0.43">
<path d="M75.5723 29.2778C75.6871 31.345 75.6551 33.5616 75.4404 35.928" stroke="white" stroke-width="1.5625" stroke-linecap="round" stroke-linejoin="round"/>
</g>
<path d="M67.3951 12.7202C61.9182 15.5327 60.8818 26.4866 60.8818 26.4866" stroke="#77004A" stroke-width="1.5625" stroke-linecap="round" stroke-linejoin="round"/>
<path d="M65.1748 10.5C65.1748 10.5 75.6848 15.977 73.1684 38.625" stroke="#77004A" stroke-width="1.5625" stroke-linecap="round" stroke-linejoin="round"/>
</g>
</g>
<defs>
<linearGradient id="paint0_linear_7_3510" x1="36.524" y1="15.2345" x2="65.0932" y2="15.2345" gradientUnits="userSpaceOnUse">
<stop stop-color="#E82DA1"/>
<stop offset="0.5" stop-color="#C91688"/>
<stop offset="1" stop-color="#AB0070"/>
</linearGradient>
<linearGradient id="paint1_linear_7_3510" x1="39.6486" y1="15.4296" x2="53.182" y2="30.9179" gradientUnits="userSpaceOnUse">
<stop stop-color="white" stop-opacity="0.7"/>
<stop offset="0.41" stop-color="white" stop-opacity="0.35"/>
<stop offset="0.95" stop-color="white" stop-opacity="0"/>
</linearGradient>
<linearGradient id="paint2_linear_7_3510" x1="41.2113" y1="16.0156" x2="48.3166" y2="16.0156" gradientUnits="userSpaceOnUse">
<stop stop-color="#480444"/>
<stop offset="0.5" stop-color="#330231"/>
<stop offset="1" stop-color="#1E001E"/>
</linearGradient>
<linearGradient id="paint3_linear_7_3510" x1="59.5536" y1="24.7033" x2="54.9833" y2="10.0636" gradientUnits="userSpaceOnUse">
<stop offset="0.29" stop-color="#8D005D"/>
<stop offset="0.71" stop-color="#8C0057" stop-opacity="0.6"/>
<stop offset="1" stop-color="#8B0052" stop-opacity="0.2"/>
</linearGradient>
<linearGradient id="paint4_linear_7_3510" x1="16.7966" y1="56.2499" x2="85.8395" y2="56.2499" gradientUnits="userSpaceOnUse">
<stop stop-color="#E82DA1"/>
<stop offset="0.5" stop-color="#C91688"/>
<stop offset="1" stop-color="#AB0070"/>
</linearGradient>
<linearGradient id="paint5_linear_7_3510" x1="107.222" y1="64.4095" x2="74.633" y2="55.8772" gradientUnits="userSpaceOnUse">
<stop offset="0.19" stop-color="#AB0070" stop-opacity="0"/>
<stop offset="0.65" stop-color="#AB006F" stop-opacity="0.5"/>
<stop offset="1" stop-color="#AA006F"/>
</linearGradient>
<linearGradient id="paint6_linear_7_3510" x1="76.1713" y1="73.6328" x2="48.8604" y2="80.0718" gradientUnits="userSpaceOnUse">
<stop offset="0.19" stop-color="#AB0070" stop-opacity="0"/>
<stop offset="0.65" stop-color="#AB006F" stop-opacity="0.5"/>
<stop offset="1" stop-color="#AA006F"/>
</linearGradient>
<linearGradient id="paint7_linear_7_3510" x1="43.75" y1="37.3046" x2="37.523" y2="22.1038" gradientUnits="userSpaceOnUse">
<stop stop-color="white" stop-opacity="0"/>
<stop offset="0.48" stop-color="white" stop-opacity="0.5"/>
<stop offset="1" stop-color="white"/>
</linearGradient>
<radialGradient id="paint8_radial_7_3510" cx="0" cy="0" r="1" gradientUnits="userSpaceOnUse" gradientTransform="translate(43.1373 34.9677) scale(17.2344)">
<stop stop-color="white" stop-opacity="0.8"/>
<stop offset="0.65" stop-color="white" stop-opacity="0.4"/>
<stop offset="1" stop-color="white" stop-opacity="0"/>
</radialGradient>
<linearGradient id="paint9_linear_7_3510" x1="68.1641" y1="69.9218" x2="74.0932" y2="75.699" gradientUnits="userSpaceOnUse">
<stop offset="0.52" stop-color="#8D005D"/>
<stop offset="0.8" stop-color="#8C0057" stop-opacity="0.6"/>
<stop offset="1" stop-color="#8B0052" stop-opacity="0.2"/>
</linearGradient>
<radialGradient id="paint10_radial_7_3510" cx="0" cy="0" r="1" gradientUnits="userSpaceOnUse" gradientTransform="translate(31.25 40.6251) scale(13.1029)">
<stop stop-color="white" stop-opacity="0.7"/>
<stop offset="0.65" stop-color="white" stop-opacity="0.35"/>
<stop offset="1" stop-color="white" stop-opacity="0"/>
</radialGradient>
<linearGradient id="paint11_linear_7_3510" x1="48.2422" y1="74.6097" x2="46.6631" y2="51.3203" gradientUnits="userSpaceOnUse">
<stop stop-color="#250B10"/>
<stop offset="0.68" stop-color="#371728"/>
<stop offset="1" stop-color="#482340"/>
</linearGradient>
<linearGradient id="paint12_linear_7_3510" x1="21.2889" y1="62.1099" x2="36.282" y2="62.1099" gradientUnits="userSpaceOnUse">
<stop stop-color="#664C64"/>
<stop offset="0.49" stop-color="#564055"/>
<stop offset="0.72" stop-color="#473446"/>
</linearGradient>
<linearGradient id="paint13_linear_7_3510" x1="24.0234" y1="73.2423" x2="33.4285" y2="73.2423" gradientUnits="userSpaceOnUse">
<stop stop-color="white" stop-opacity="0.2"/>
<stop offset="0.65" stop-color="white" stop-opacity="0.4"/>
<stop offset="1" stop-color="white" stop-opacity="0.6"/>
</linearGradient>
<linearGradient id="paint14_linear_7_3510" x1="19.7266" y1="71.2891" x2="31.2809" y2="71.2891" gradientUnits="userSpaceOnUse">
<stop stop-color="white" stop-opacity="0"/>
<stop offset="0.48" stop-color="white" stop-opacity="0.5"/>
<stop offset="1" stop-color="white"/>
</linearGradient>
<linearGradient id="paint15_linear_7_3510" x1="57.8119" y1="62.305" x2="63.9305" y2="64.8708" gradientUnits="userSpaceOnUse">
<stop stop-color="#664C64"/>
<stop offset="0.68" stop-color="#564055"/>
<stop offset="1" stop-color="#473446"/>
</linearGradient>
<linearGradient id="paint16_linear_7_3510" x1="17.1875" y1="65.2346" x2="74.273" y2="65.2346" gradientUnits="userSpaceOnUse">
<stop offset="0.19" stop-color="#FFA4EE"/>
<stop offset="0.65" stop-color="#E16CC2"/>
<stop offset="1" stop-color="#C43396"/>
</linearGradient>
<linearGradient id="paint17_linear_7_3510" x1="13.2809" y1="61.9141" x2="74.5307" y2="61.9141" gradientUnits="userSpaceOnUse">
<stop stop-color="#161717"/>
<stop offset="0.68" stop-color="#1D1F30"/>
<stop offset="1" stop-color="#242749"/>
</linearGradient>
<linearGradient id="paint18_linear_7_3510" x1="-2.1485" y1="65.4296" x2="27.8285" y2="65.4296" gradientUnits="userSpaceOnUse">
<stop stop-color="white"/>
<stop offset="0.5" stop-color="white" stop-opacity="0.517"/>
<stop offset="0.81" stop-color="white" stop-opacity="0.034"/>
<stop offset="0.87" stop-color="white" stop-opacity="0.017"/>
<stop offset="1" stop-color="white" stop-opacity="0"/>
</linearGradient>
<linearGradient id="paint19_linear_7_3510" x1="27.1482" y1="52.539" x2="11.8535" y2="85.4462" gradientUnits="userSpaceOnUse">
<stop stop-color="white" stop-opacity="0"/>
<stop offset="0.65" stop-color="white" stop-opacity="0.5"/>
<stop offset="1" stop-color="white"/>
</linearGradient>
<linearGradient id="paint20_linear_7_3510" x1="71.7069" y1="46.4696" x2="15.3549" y2="68.4349" gradientUnits="userSpaceOnUse">
<stop stop-color="#BDF3E4" stop-opacity="0.2"/>
<stop offset="0.5" stop-color="#DE79C4" stop-opacity="0.12"/>
<stop offset="0.81" stop-color="#FF00A3" stop-opacity="0.04"/>
<stop offset="0.87" stop-color="#FF80D1" stop-opacity="0.025"/>
<stop offset="1" stop-color="white" stop-opacity="0.01"/>
</linearGradient>
<linearGradient id="paint21_linear_7_3510" x1="29.1009" y1="66.9923" x2="70.5042" y2="65.7624" gradientUnits="userSpaceOnUse">
<stop stop-color="white" stop-opacity="0.2"/>
<stop offset="0.65" stop-color="white" stop-opacity="0.4"/>
<stop offset="1" stop-color="white" stop-opacity="0.6"/>
</linearGradient>
<linearGradient id="paint22_linear_7_3510" x1="45.9226" y1="104.997" x2="46.431" y2="62.4046" gradientUnits="userSpaceOnUse">
<stop stop-color="#21D6D1"/>
<stop offset="0.68" stop-color="#21D6D1" stop-opacity="0.75"/>
<stop offset="1" stop-color="#21D6D1" stop-opacity="0.5"/>
</linearGradient>
<linearGradient id="paint23_linear_7_3510" x1="27.4419" y1="91.2109" x2="30.2739" y2="102.637" gradientUnits="userSpaceOnUse">
<stop offset="0.29" stop-color="white" stop-opacity="0.5"/>
<stop offset="0.3" stop-color="white"/>
<stop offset="0.45" stop-color="white"/>
<stop offset="0.6" stop-color="white"/>
<stop offset="0.61" stop-color="white" stop-opacity="0"/>
</linearGradient>
<linearGradient id="paint24_linear_7_3510" x1="27.4419" y1="91.2109" x2="30.2739" y2="102.637" gradientUnits="userSpaceOnUse">
<stop stop-color="white"/>
<stop offset="0.5" stop-color="white"/>
<stop offset="1" stop-color="white"/>
</linearGradient>
<linearGradient id="paint25_linear_7_3510" x1="48.1451" y1="91.2109" x2="50.9771" y2="102.637" gradientUnits="userSpaceOnUse">
<stop offset="0.29" stop-color="white" stop-opacity="0.5"/>
<stop offset="0.3" stop-color="white"/>
<stop offset="0.45" stop-color="white"/>
<stop offset="0.6" stop-color="white"/>
<stop offset="0.61" stop-color="white" stop-opacity="0"/>
</linearGradient>
<linearGradient id="paint26_linear_7_3510" x1="48.1451" y1="91.2109" x2="50.9771" y2="102.637" gradientUnits="userSpaceOnUse">
<stop stop-color="white"/>
<stop offset="0.5" stop-color="white"/>
<stop offset="1" stop-color="white"/>
</linearGradient>
<linearGradient id="paint27_linear_7_3510" x1="-31.4941" y1="-0.195162" x2="31.4627" y2="-0.195162" gradientUnits="userSpaceOnUse">
<stop stop-color="#43FFF1"/>
<stop offset="0.68" stop-color="#32EBE1" stop-opacity="0.75"/>
<stop offset="1" stop-color="#21D6D1" stop-opacity="0.5"/>
</linearGradient>
<linearGradient id="paint28_linear_7_3510" x1="-31.4943" y1="-0.19531" x2="31.4625" y2="-0.19531" gradientUnits="userSpaceOnUse">
<stop stop-color="#43FFF1"/>
<stop offset="0.68" stop-color="#6CFCF3"/>
<stop offset="1" stop-color="#95F8F6"/>
</linearGradient>
<linearGradient id="paint29_linear_7_3510" x1="-31.4943" y1="-0.19531" x2="31.4625" y2="-0.19531" gradientUnits="userSpaceOnUse">
<stop stop-color="#43FFF1"/>
<stop offset="0.68" stop-color="#6CFCF3"/>
<stop offset="1" stop-color="#95F8F6"/>
</linearGradient>
<linearGradient id="paint30_linear_7_3510" x1="-31.4943" y1="-0.19531" x2="31.4625" y2="-0.19531" gradientUnits="userSpaceOnUse">
<stop stop-color="#43FFF1"/>
<stop offset="0.68" stop-color="#6CFCF3"/>
<stop offset="1" stop-color="#95F8F6"/>
</linearGradient>
<linearGradient id="paint31_linear_7_3510" x1="-31.4943" y1="-0.19531" x2="31.4625" y2="-0.19531" gradientUnits="userSpaceOnUse">
<stop stop-color="#43FFF1"/>
<stop offset="0.68" stop-color="#6CFCF3"/>
<stop offset="1" stop-color="#95F8F6"/>
</linearGradient>
<linearGradient id="paint32_linear_7_3510" x1="-31.4943" y1="-0.19531" x2="31.4625" y2="-0.19531" gradientUnits="userSpaceOnUse">
<stop stop-color="#43FFF1"/>
<stop offset="0.68" stop-color="#6CFCF3"/>
<stop offset="1" stop-color="#95F8F6"/>
</linearGradient>
<linearGradient id="paint33_linear_7_3510" x1="-31.4939" y1="-0.195458" x2="31.4629" y2="-0.195458" gradientUnits="userSpaceOnUse">
<stop stop-color="#43FFF1"/>
<stop offset="0.68" stop-color="#6CFCF3"/>
<stop offset="1" stop-color="#95F8F6"/>
</linearGradient>
<linearGradient id="paint34_linear_7_3510" x1="-31.4939" y1="-0.195458" x2="31.4629" y2="-0.195458" gradientUnits="userSpaceOnUse">
<stop stop-color="#43FFF1"/>
<stop offset="0.68" stop-color="#6CFCF3"/>
<stop offset="1" stop-color="#95F8F6"/>
</linearGradient>
<linearGradient id="paint35_linear_7_3510" x1="-31.4939" y1="-0.195458" x2="31.4629" y2="-0.195458" gradientUnits="userSpaceOnUse">
<stop stop-color="#43FFF1"/>
<stop offset="0.68" stop-color="#6CFCF3"/>
<stop offset="1" stop-color="#95F8F6"/>
</linearGradient>
<linearGradient id="paint36_linear_7_3510" x1="-31.4939" y1="-0.195458" x2="31.4629" y2="-0.195458" gradientUnits="userSpaceOnUse">
<stop stop-color="#43FFF1"/>
<stop offset="0.68" stop-color="#6CFCF3"/>
<stop offset="1" stop-color="#95F8F6"/>
</linearGradient>
<linearGradient id="paint37_linear_7_3510" x1="-31.4939" y1="-0.195458" x2="31.4629" y2="-0.195458" gradientUnits="userSpaceOnUse">
<stop stop-color="#43FFF1"/>
<stop offset="0.68" stop-color="#6CFCF3"/>
<stop offset="1" stop-color="#95F8F6"/>
</linearGradient>
<radialGradient id="paint38_radial_7_3510" cx="0" cy="0" r="1" gradientUnits="userSpaceOnUse" gradientTransform="translate(54.5402 54.3139) scale(17.9791)">
<stop offset="0.05" stop-color="white"/>
<stop offset="0.33" stop-color="white" stop-opacity="0.5"/>
<stop offset="0.62" stop-color="white" stop-opacity="0"/>
</radialGradient>
<linearGradient id="paint39_linear_7_3510" x1="69.9221" y1="15.8204" x2="72.6377" y2="41.3938" gradientUnits="userSpaceOnUse">
<stop stop-color="#E82DA1"/>
<stop offset="0.5" stop-color="#C91688"/>
<stop offset="1" stop-color="#AB0070"/>
</linearGradient>
<linearGradient id="paint40_linear_7_3510" x1="64.8443" y1="19.3358" x2="85.8652" y2="46.2782" gradientUnits="userSpaceOnUse">
<stop stop-color="white" stop-opacity="0.7"/>
<stop offset="0.41" stop-color="white" stop-opacity="0.35"/>
<stop offset="0.95" stop-color="white" stop-opacity="0"/>
</linearGradient>
<linearGradient id="paint41_linear_7_3510" x1="60.7424" y1="27.5391" x2="78.2096" y2="22.0622" gradientUnits="userSpaceOnUse">
<stop stop-color="#480444"/>
<stop offset="0.5" stop-color="#330231"/>
<stop offset="1" stop-color="#1E001E"/>
</linearGradient>
<linearGradient id="paint42_linear_7_3510" x1="81.6411" y1="46.6798" x2="78.0821" y2="15.93" gradientUnits="userSpaceOnUse">
<stop offset="0.29" stop-color="#8D005D"/>
<stop offset="0.71" stop-color="#8C0057" stop-opacity="0.6"/>
<stop offset="1" stop-color="#8B0052" stop-opacity="0.2"/>
</linearGradient>
<clipPath id="clip0_7_3510">
<rect width="100" height="100" fill="white"/>
</clipPath>
</defs>
</svg>
