<svg width="100" height="100" viewBox="0 0 100 100" fill="none" xmlns="http://www.w3.org/2000/svg">
<g clip-path="url(#clip0_7_2486)">
<mask id="mask0_7_2486" style="mask-type:luminance" maskUnits="userSpaceOnUse" x="0" y="0" width="100" height="100">
<path d="M100 0H0V100H100V0Z" fill="white"/>
</mask>
<g mask="url(#mask0_7_2486)">
<path d="M72.8598 93.9966H27.1402C26.0611 93.9966 25.1865 93.122 25.1865 92.0429V36.2267C25.1865 34.9898 28.3416 32.1107 29.4156 31.9974C33.6645 31.9257 37.6289 31.9224 40.0297 31.2478H60.0078C62.892 31.6601 66.3889 32.0207 70.5844 31.9974C72.0256 32.1474 74.8135 35.1023 74.8135 36.2267V92.0429C74.8135 93.122 73.9389 93.9966 72.8598 93.9966Z" fill="url(#paint0_linear_7_2486)"/>
<path d="M72.8598 93.9966H27.1402C26.0611 93.9966 25.1865 93.122 25.1865 92.0429V36.2267C25.1865 34.9898 28.3416 32.1107 29.4156 31.9974C33.6645 31.9257 37.6289 31.9224 40.0297 31.2478H60.0078C62.892 31.6601 66.3889 32.0207 70.5844 31.9974C72.0256 32.1474 74.8135 35.1023 74.8135 36.2267V92.0429C74.8135 93.122 73.9389 93.9966 72.8598 93.9966Z" stroke="#88B5A9" stroke-width="1.17188" stroke-linecap="round" stroke-linejoin="round"/>
<path d="M49.7005 89.2741C62.9488 89.2741 71.0675 92.2728 71.9671 91.7479C72.8667 91.2231 70.2429 79.2286 70.2429 63.7858C70.2429 48.3431 71.9298 39.9095 70.5242 38.1665C69.1185 36.4235 62.825 36.4577 58.0041 36.0019C53.9046 35.6142 53.2634 34.062 49.7005 34.062C46.1376 34.062 45.4964 35.6142 41.397 36.0019C36.5761 36.4577 30.2826 36.4235 28.8769 38.1665C27.4712 39.9095 29.1582 48.3431 29.1582 63.7858C29.1582 79.2286 26.5343 91.2231 27.4339 91.7479C28.3335 92.2728 36.4523 89.2741 49.7005 89.2741Z" fill="url(#paint1_linear_7_2486)"/>
<path d="M49.722 89.2741C62.9703 89.2741 71.089 92.2729 71.9886 91.7481C72.8882 91.2233 70.2644 79.2288 70.2644 63.786C70.2644 53.4026 71.0269 46.0901 71.0994 41.9475C67.7011 43.0618 64.7746 42.0389 49.722 42.0389C34.6695 42.0389 31.3814 43.76 28.3486 42.2424C28.4414 46.4159 29.1796 53.5708 29.1796 63.786C29.1796 79.2288 26.5558 91.2233 27.4554 91.7481C28.355 92.2729 36.4738 89.2741 49.722 89.2741Z" fill="url(#paint2_linear_7_2486)"/>
<g opacity="0.48">
<path d="M28.3271 42.2426L30.2012 43.775C43.902 55.3168 67.8684 49.7926 70.6834 43.5533C70.7549 43.1396 70.8467 42.7992 71.0779 41.9476C50.6709 39.3931 41.9461 43.1363 28.3271 42.2426Z" fill="url(#paint3_linear_7_2486)"/>
</g>
<path d="M49.7001 86.4847C61.9835 86.4847 69.511 89.3257 70.345 88.8284C71.179 88.3312 68.7464 76.9675 68.7464 62.3364C68.7464 52.4989 70.6157 47.478 70.6829 43.5532C67.0673 43.88 62.955 44.8626 49.1591 44.1038C35.2239 43.3374 33.4233 44.1761 30.2007 43.7751C30.2868 47.7292 30.6536 52.6581 30.6536 62.3364C30.6536 76.9675 28.221 88.3312 29.055 88.8284C29.889 89.3257 37.4167 86.4847 49.7001 86.4847Z" fill="url(#paint4_linear_7_2486)"/>
<path d="M28.3482 42.8513C27.2064 42.7949 27.4 52.4099 27.2669 61.5468C27.1828 67.3263 26.6187 80.4091 27.0484 78.1107C27.4781 75.8123 28.2548 65.0593 28.2619 61.2847C28.2857 48.3505 28.5658 46.3406 28.7037 49.5363C28.863 48.4568 28.5193 43.4175 28.3482 42.8513Z" fill="url(#paint5_linear_7_2486)"/>
<path d="M28.8811 64.129C28.5276 61.2849 28.7454 69.7165 27.2457 80.7923C26.4852 86.4091 26.9416 91.0308 27.3145 91.4628C28.153 92.4343 28.1733 81.6634 28.1733 81.6634C28.1733 81.6634 29.2346 66.9732 28.8811 64.129Z" fill="url(#paint6_linear_7_2486)"/>
<path d="M30.998 35.5298C30.3441 36.1333 27.4195 38.0128 27.2677 38.6374C27.116 39.262 27.3164 56.779 27.3164 56.779C27.3164 56.779 27.9746 52.4362 28.241 49.4841C28.5074 46.5319 28.2468 39.5618 28.5931 38.6124C28.9394 37.663 30.998 35.5298 30.998 35.5298Z" fill="url(#paint7_linear_7_2486)"/>
<path d="M68.6846 36.6593C69.3268 36.5703 72.0033 37.8878 72.1551 38.5125C72.3068 39.1371 71.3768 72.0646 70.9012 64.6197C70.4256 57.1748 72.0277 39.8615 71.6814 38.9121C71.3352 37.9626 70.0627 37.2134 68.6846 36.6593Z" fill="url(#paint8_linear_7_2486)"/>
<path d="M72.2871 91.5248C72.3636 85.3558 72.2105 60.8722 72.2871 54.9763C70.6828 66.3519 72.1613 89.7027 70.4414 71.665C69.632 79.5597 72.1544 91.2966 72.1544 91.2966" fill="url(#paint9_linear_7_2486)"/>
<path d="M33.1865 35.53C43.668 36.3306 44.1691 34.356 47.0371 33.9794C49.793 33.6177 51.6404 33.8171 52.9893 34.2039C51.0104 32.8298 47.1961 33.2921 45.4051 33.6064C43.6141 33.9207 41.1189 35.53 33.1865 35.53Z" fill="url(#paint10_linear_7_2486)"/>
<path d="M52.1934 33.7373C62.1584 35.3281 66.7113 34.3527 71.0777 35.7768C67.7104 34.1404 59.5818 34.1469 52.1934 33.7373Z" fill="url(#paint11_linear_7_2486)"/>
<path d="M57.875 76.3514H34.8406C34.4115 76.3514 34.0635 76.0033 34.0635 75.5742V52.5398C34.0635 52.1107 34.4115 51.7627 34.8406 51.7627H57.875C58.3041 51.7627 58.6521 52.1107 58.6521 52.5398V75.5742C58.6521 76.0033 58.3041 76.3514 57.875 76.3514Z" fill="url(#paint12_linear_7_2486)"/>
<path d="M31.3477 93.6417C44.1518 89.2271 58.1096 89.9534 68.6531 92.936C54.1758 92.079 45.3197 92.0927 31.3477 93.6417Z" fill="url(#paint13_linear_7_2486)"/>
<path d="M37.1607 34.49C35.542 34.5398 30.9977 34.7771 30.3359 34.9214C29.6742 35.0658 27.4773 37.6537 27.2459 38.3505C27.0145 39.0474 26.2217 80.5314 26.2217 80.5314C26.2217 80.5314 28.0686 57.765 27.7521 52.1017C27.4357 46.4384 27.3682 39.2701 27.8869 38.4501C28.4057 37.6302 30.2148 35.2707 30.6729 35.2449C33.4174 35.0906 35.8164 34.9181 37.1607 34.49Z" fill="white"/>
<path d="M39.0967 32.8336C43.3566 32.1967 54.7686 31.5037 59.2963 32.9067C52.5178 32.958 48.0863 33.059 45.7975 33.3783C43.5086 33.6977 39.0967 32.8336 39.0967 32.8336Z" fill="white"/>
<path d="M63.999 35.2054C65.6771 35.1283 70.2047 35.7378 71.191 36.1361C72.1773 36.5343 73.3406 37.3554 73.366 37.8781C73.3914 38.4007 72.8389 61.8427 72.8389 61.8427C72.8389 61.8427 72.5869 39.0476 72.1545 38.3011C71.7221 37.5546 70.0275 36.4472 63.999 35.2054Z" fill="white"/>
<path d="M25.792 35.954C26.8711 34.0317 29.1053 32.5987 29.4594 32.5649C32.583 32.5606 36.9543 32.6104 40.066 31.7893C43.6674 31.7893 56.0246 31.8905 60.0529 31.7893C63.1139 32.4215 69.9629 32.6727 70.6826 32.6104C72.2623 33.2563 74.2604 35.7096 74.2604 36.1395C74.2604 36.5694 74.3525 36.5967 74.3525 36.5967C72.5162 34.7604 71.0984 33.1538 70.3732 33.0668C69.648 32.9799 30.951 32.5752 30.1164 32.8788C29.2818 33.1823 26.3816 36.1415 25.8842 37.4061C25.8842 36.5461 25.792 35.954 25.792 35.954Z" fill="url(#paint14_radial_7_2486)"/>
<path d="M74.8135 39.905V92.0429C74.8135 93.122 73.9389 93.9968 72.8598 93.9968H27.1402C26.0611 93.9968 25.1865 93.122 25.1865 92.0429" stroke="#6C9388" stroke-width="1.17188" stroke-linecap="round" stroke-linejoin="round"/>
<path d="M56.3703 20.0981H43.668" stroke="#D6AB45" stroke-width="1.17188" stroke-linecap="round" stroke-linejoin="round"/>
<path d="M53.7555 10.6909H46.2832" stroke="#D6AB45" stroke-width="1.17188" stroke-linecap="round" stroke-linejoin="round"/>
<path d="M53.7555 20.0981H46.2832V10.6907H53.7555V20.0981Z" fill="url(#paint15_linear_7_2486)"/>
<path d="M53.7555 20.0981H46.2832V10.6907H53.7555V20.0981Z" stroke="#D6AB45" stroke-width="1.17188" stroke-linecap="round" stroke-linejoin="round"/>
<path d="M51.7396 14.3962C51.7396 15.346 50.9695 16.1161 50.0197 16.1161C49.0699 16.1161 48.2998 15.346 48.2998 14.3962C48.2998 13.4464 49.0699 12.6763 50.0197 12.6763C50.9695 12.6763 51.7396 13.4464 51.7396 14.3962Z" fill="#E6E6E6"/>
<path d="M51.7396 14.3962C51.7396 15.346 50.9695 16.1161 50.0197 16.1161C49.0699 16.1161 48.2998 15.346 48.2998 14.3962C48.2998 13.4464 49.0699 12.6763 50.0197 12.6763C50.9695 12.6763 51.7396 13.4464 51.7396 14.3962Z" stroke="#B3B3B3" stroke-width="0.585938" stroke-linecap="round" stroke-linejoin="round"/>
<path d="M50.001 14.2651V14.4718" stroke="#B3B3B3" stroke-width="0.585938" stroke-linecap="round" stroke-linejoin="round"/>
<path d="M56.3703 31.2481H43.668V20.0981H56.3703V31.2481Z" fill="url(#paint16_linear_7_2486)"/>
<path d="M56.3703 31.2481H43.668V20.0981H56.3703V31.2481Z" stroke="#D6AB45" stroke-width="1.17188" stroke-linecap="round" stroke-linejoin="round"/>
<path d="M71.6113 92.5642C56.8238 90.3195 42.2904 90.3576 27.998 92.5642C27.2742 92.5642 26.6875 91.9777 26.6875 91.2539L27.493 37.8978C27.493 37.2376 29.8465 34.6572 30.5027 34.5845C44.6664 33.0164 57.1676 32.5326 71.766 36.2765C72.4092 36.4414 72.9219 36.9156 72.9219 37.5794V91.2539C72.9219 91.9777 72.3352 92.5642 71.6113 92.5642Z" fill="url(#paint17_linear_7_2486)"/>
<path d="M62.2947 69.9329H37.7061V45.3442H62.2947V69.9329Z" fill="white"/>
<path d="M44.3467 54.0119V49.6759H44.7504L47.4186 53.563H47.6291V49.2126" stroke="black" stroke-width="0.813281" stroke-miterlimit="10"/>
<path d="M55.6906 49.573H52.985L52.6889 51.5414L52.8971 51.6248C52.8971 51.6248 53.2352 50.9751 54.1896 50.9751C55.1441 50.9751 55.8553 51.7984 55.6072 52.6955C55.3221 53.7267 53.6301 54.2007 52.5176 52.9587" stroke="black" stroke-width="0.813281" stroke-miterlimit="10"/>
<path d="M50.6705 50.1294C50.6705 51.1202 49.1592 51.145 49.1592 50.1294C49.1592 49.1386 50.6705 49.1138 50.6705 50.1294Z" stroke="black" stroke-width="0.406641" stroke-miterlimit="10"/>
<path d="M49.5424 56.8601C49.7129 56.493 50.2662 56.4988 50.4326 56.8639L51.5928 59.2051L53.9969 59.5C54.426 59.539 54.6152 60.1121 54.3023 60.4058L52.5184 62.1758L52.8156 64.5723C52.8855 65.0322 52.3631 65.3933 51.9625 65.1607L49.9865 64.0746L47.9436 65.1289C47.5768 65.3314 47.1152 64.99 47.1852 64.5805C47.2844 63.815 47.335 62.732 48.1623 62.3785L50.2006 61.3312C50.3104 61.2789 50.2553 61.1006 50.135 61.1211L47.642 61.4803C46.9229 61.6482 46.2498 60.8926 45.7455 60.4998C45.3699 60.2103 45.5516 59.5607 46.0236 59.5121L48.3707 59.208L49.5424 56.8601Z" fill="black"/>
<path d="M60.0496 32.0789H40.5801" stroke="#89A8A0" stroke-width="1.17188" stroke-linecap="round" stroke-linejoin="round"/>
<path d="M60.0496 32.0791H40.5801V25.0173H60.0496V32.0791Z" fill="url(#paint18_linear_7_2486)"/>
<path d="M60.0496 32.0791H40.5801V25.0173H60.0496V32.0791Z" stroke="#D6AB45" stroke-width="1.17188" stroke-linecap="round" stroke-linejoin="round"/>
<path d="M60.5734 30.3873H40.0566V26.8806H60.5734V30.3873Z" fill="url(#paint19_linear_7_2486)"/>
<path d="M60.5734 30.3873H40.0566V26.8806H60.5734V30.3873Z" stroke="#88B5A9" stroke-width="0.585938" stroke-linecap="round" stroke-linejoin="round"/>
<path d="M40.3252 20.3611H59.4725V18.2361H40.3252V20.3611Z" fill="url(#paint20_linear_7_2486)"/>
<path d="M40.3252 20.3611H59.4725V18.2361H40.3252V20.3611Z" stroke="#88B5A9" stroke-width="1.17188" stroke-linecap="round" stroke-linejoin="round"/>
<path d="M60.0494 25.0171C57.2215 25.0171 43.5285 25.0171 40.3256 25.0171C37.1227 25.0171 37.0537 20.3611 40.3256 20.3611C43.5975 20.3611 56.2213 20.3611 59.599 20.3611C62.9113 20.3611 62.8773 25.0171 60.0494 25.0171Z" fill="url(#paint21_linear_7_2486)"/>
<path d="M60.0494 25.0171C57.2215 25.0171 43.5285 25.0171 40.3256 25.0171C37.1227 25.0171 37.0537 20.3611 40.3256 20.3611C43.5975 20.3611 56.2213 20.3611 59.599 20.3611C62.9113 20.3611 62.8773 25.0171 60.0494 25.0171Z" stroke="#B0D8CD" stroke-width="1.17188" stroke-linecap="round" stroke-linejoin="round"/>
<path d="M59.5594 20.3611C62.8654 20.3611 62.9033 25.0171 60.049 25.0171C57.1029 25.0171 43.4607 25.0171 40.3252 25.0171" stroke="#A2C5BB" stroke-width="1.17188" stroke-linecap="round" stroke-linejoin="round"/>
<path d="M64.7453 18.2608H35.2465C34.0828 17.0971 33.4303 16.7612 32.2666 15.5975V8.40083L35.2465 5.42114H64.7453L67.7252 8.40083V15.5975C66.5615 16.7612 65.909 17.0971 64.7453 18.2608Z" fill="url(#paint22_linear_7_2486)"/>
<path d="M64.7453 18.2608H35.2465C34.0828 17.0971 33.4303 16.7612 32.2666 15.5975V8.40083L35.2465 5.42114H64.7453L67.7252 8.40083V15.5975C66.5615 16.7612 65.909 17.0971 64.7453 18.2608Z" stroke="#88B5A9" stroke-width="1.17188" stroke-linecap="round" stroke-linejoin="round"/>
<path d="M32.8408 8.62539H36.9129L37.9127 5.99512H35.4205L32.8408 8.62539Z" fill="#C9E1DD"/>
<path d="M32.8398 15.3446L36.9119 15.3276L37.7465 17.6583H35.4195L32.8398 15.3446Z" fill="white"/>
<path d="M32.8408 15.3448L36.9127 15.3276V8.62549H32.8408V15.3448Z" fill="url(#paint23_linear_7_2486)"/>
<path d="M67.2213 8.62539L63.1492 8.6084L62.1191 5.99512H64.6414L67.2213 8.62539Z" fill="white"/>
<path d="M67.2211 15.3446L63.149 15.3276L62.3145 17.6583H64.6414L67.2211 15.3446Z" fill="url(#paint24_linear_7_2486)"/>
<path d="M67.2203 15.3447L63.1484 15.3275V8.60815L67.2203 8.62534V15.3447Z" fill="url(#paint25_linear_7_2486)"/>
<path d="M63.1484 15.3275H36.9121V8.62515L63.1484 8.60815V15.3275Z" fill="url(#paint26_linear_7_2486)"/>
<path d="M67.7252 8.40112V15.5978C66.5615 16.7615 65.909 17.0974 64.7453 18.2611H35.2465C34.0828 17.0974 33.4303 16.7615 32.2666 15.5978" stroke="#6C9388" stroke-width="1.17188" stroke-linecap="round" stroke-linejoin="round"/>
</g>
</g>
<defs>
<linearGradient id="paint0_linear_7_2486" x1="47.6562" y1="25.3906" x2="51.6484" y2="96.4806" gradientUnits="userSpaceOnUse">
<stop stop-color="#E9F5F3"/>
<stop offset="0.17" stop-color="#C5DED8" stop-opacity="0.8"/>
<stop offset="0.35" stop-color="#A1C6BD" stop-opacity="0.6"/>
<stop offset="0.51" stop-color="#D0E2DE" stop-opacity="0.65"/>
<stop offset="0.67" stop-color="white" stop-opacity="0.7"/>
<stop offset="0.84" stop-color="#DFEDEB" stop-opacity="0.85"/>
<stop offset="1" stop-color="#C0DCD6"/>
</linearGradient>
<linearGradient id="paint1_linear_7_2486" x1="50.7816" y1="46.0938" x2="51.0851" y2="35.3194" gradientUnits="userSpaceOnUse">
<stop stop-color="white" stop-opacity="0.2"/>
<stop offset="0.5" stop-color="#A4C5BB" stop-opacity="0.3"/>
<stop offset="1" stop-color="#498A77" stop-opacity="0.4"/>
</linearGradient>
<linearGradient id="paint2_linear_7_2486" x1="49.6095" y1="88.2815" x2="49.6095" y2="42.7092" gradientUnits="userSpaceOnUse">
<stop stop-color="#FDED9F"/>
<stop offset="0.09" stop-color="#F7DD7E"/>
<stop offset="0.19" stop-color="#F0CC5E"/>
<stop offset="0.23" stop-color="#EABA49"/>
<stop offset="0.28" stop-color="#E4A835"/>
<stop offset="0.47" stop-color="#E8AE37"/>
<stop offset="0.66" stop-color="#ECB438"/>
<stop offset="0.83" stop-color="#D79229"/>
<stop offset="1" stop-color="#C2701A"/>
</linearGradient>
<linearGradient id="paint3_linear_7_2486" x1="49.4145" y1="46.2894" x2="49.6701" y2="40.876" gradientUnits="userSpaceOnUse">
<stop stop-color="#FFEED9"/>
<stop offset="0.5" stop-color="#FFD199"/>
<stop offset="1" stop-color="#FFB459"/>
</linearGradient>
<linearGradient id="paint4_linear_7_2486" x1="49.6093" y1="85.5472" x2="49.6093" y2="44.114" gradientUnits="userSpaceOnUse">
<stop stop-color="#FFD461"/>
<stop offset="0.09" stop-color="#FFC45D"/>
<stop offset="0.19" stop-color="#FFB459"/>
<stop offset="0.23" stop-color="#F59E2D"/>
<stop offset="0.28" stop-color="#EA8800"/>
<stop offset="0.47" stop-color="#E2921B"/>
<stop offset="0.66" stop-color="#DB9B35"/>
<stop offset="0.83" stop-color="#C67927"/>
<stop offset="1" stop-color="#B15719"/>
</linearGradient>
<linearGradient id="paint5_linear_7_2486" x1="27.7339" y1="75.7812" x2="27.7339" y2="43.3103" gradientUnits="userSpaceOnUse">
<stop stop-color="#FDED9F"/>
<stop offset="0.33" stop-color="#F5D16C"/>
<stop offset="0.66" stop-color="#ECB438"/>
<stop offset="0.83" stop-color="#D79229"/>
<stop offset="1" stop-color="#C2701A"/>
</linearGradient>
<linearGradient id="paint6_linear_7_2486" x1="27.7344" y1="91.4064" x2="27.7344" y2="63.4538" gradientUnits="userSpaceOnUse">
<stop stop-color="#FDED9F"/>
<stop offset="0.5" stop-color="#F5D16C"/>
<stop offset="1" stop-color="#ECB438"/>
</linearGradient>
<linearGradient id="paint7_linear_7_2486" x1="29.1019" y1="55.2733" x2="29.1019" y2="35.8522" gradientUnits="userSpaceOnUse">
<stop stop-color="#F1971F"/>
<stop offset="0.5" stop-color="#F7C25F"/>
<stop offset="1" stop-color="#FDED9F"/>
</linearGradient>
<linearGradient id="paint8_linear_7_2486" x1="70.3129" y1="63.6718" x2="70.3129" y2="37.1121" gradientUnits="userSpaceOnUse">
<stop stop-color="#FDED9F"/>
<stop offset="0.5" stop-color="#F7C25F"/>
<stop offset="1" stop-color="#F1971F"/>
</linearGradient>
<linearGradient id="paint9_linear_7_2486" x1="71.2888" y1="88.8671" x2="71.2888" y2="55.4634" gradientUnits="userSpaceOnUse">
<stop stop-color="#F1971F"/>
<stop offset="0.5" stop-color="#F7C25F"/>
<stop offset="1" stop-color="#FDED9F"/>
</linearGradient>
<linearGradient id="paint10_linear_7_2486" x1="53.7113" y1="34.3752" x2="33.6969" y2="34.3507" gradientUnits="userSpaceOnUse">
<stop stop-color="#F1F1F1"/>
<stop offset="0.5" stop-color="#F8DAA7"/>
<stop offset="1" stop-color="#FFC35D"/>
</linearGradient>
<linearGradient id="paint11_linear_7_2486" x1="70.8986" y1="34.7656" x2="52.0119" y2="34.7426" gradientUnits="userSpaceOnUse">
<stop stop-color="#FFC35D"/>
<stop offset="0.5" stop-color="#FFCB5F"/>
<stop offset="1" stop-color="#FFD461"/>
</linearGradient>
<linearGradient id="paint12_linear_7_2486" x1="45.7029" y1="49.4141" x2="46.6135" y2="74.6053" gradientUnits="userSpaceOnUse">
<stop stop-color="#C2701A" stop-opacity="0"/>
<stop offset="0.5" stop-color="#BA6C1A" stop-opacity="0.3"/>
<stop offset="1" stop-color="#B2691A" stop-opacity="0.6"/>
</linearGradient>
<linearGradient id="paint13_linear_7_2486" x1="31.2504" y1="93.1642" x2="68.4846" y2="91.1427" gradientUnits="userSpaceOnUse">
<stop stop-color="#E6E6E6" stop-opacity="0"/>
<stop offset="0.23" stop-color="#F3F3F3" stop-opacity="0.5"/>
<stop offset="0.45" stop-color="white"/>
<stop offset="0.59" stop-color="white"/>
<stop offset="0.74" stop-color="white"/>
<stop offset="0.87" stop-color="#ECECEC" stop-opacity="0.5"/>
<stop offset="1" stop-color="#D9D9D9" stop-opacity="0"/>
</linearGradient>
<radialGradient id="paint14_radial_7_2486" cx="0" cy="0" r="1" gradientUnits="userSpaceOnUse" gradientTransform="translate(45.7027 34.1797) scale(24.0002 24.0002)">
<stop stop-color="white" stop-opacity="0.1"/>
<stop offset="0.5" stop-color="white" stop-opacity="0.55"/>
<stop offset="1" stop-color="white"/>
</radialGradient>
<linearGradient id="paint15_linear_7_2486" x1="46.0943" y1="15.2344" x2="53.5664" y2="15.2344" gradientUnits="userSpaceOnUse">
<stop stop-color="#EFC674"/>
<stop offset="0.1" stop-color="#F7DAA1"/>
<stop offset="0.19" stop-color="#FFEDCE"/>
<stop offset="0.2" stop-color="#FFF4DE"/>
<stop offset="0.21" stop-color="#FFFAED"/>
<stop offset="0.28" stop-color="#FFFCF6"/>
<stop offset="0.35" stop-color="white"/>
<stop offset="0.36" stop-color="#F1DFBB"/>
<stop offset="0.38" stop-color="#E4C077"/>
<stop offset="0.41" stop-color="#C59854"/>
<stop offset="0.45" stop-color="#A67032"/>
<stop offset="0.57" stop-color="#CA984F"/>
<stop offset="0.69" stop-color="#EEC16C"/>
<stop offset="0.71" stop-color="#F7DF9F"/>
<stop offset="0.72" stop-color="#FFFED1"/>
</linearGradient>
<linearGradient id="paint16_linear_7_2486" x1="43.5551" y1="25.586" x2="56.2572" y2="25.586" gradientUnits="userSpaceOnUse">
<stop stop-color="#EFC674"/>
<stop offset="0.1" stop-color="#F7DAA1"/>
<stop offset="0.19" stop-color="#FFEDCE"/>
<stop offset="0.2" stop-color="#FFF4DE"/>
<stop offset="0.21" stop-color="#FFFAED"/>
<stop offset="0.28" stop-color="#FFFCF6"/>
<stop offset="0.35" stop-color="white"/>
<stop offset="0.36" stop-color="#F1DFBB"/>
<stop offset="0.38" stop-color="#E4C077"/>
<stop offset="0.41" stop-color="#C59854"/>
<stop offset="0.45" stop-color="#A67032"/>
<stop offset="0.57" stop-color="#CA984F"/>
<stop offset="0.69" stop-color="#EEC16C"/>
<stop offset="0.71" stop-color="#F7DF9F"/>
<stop offset="0.72" stop-color="#FFFED1"/>
</linearGradient>
<linearGradient id="paint17_linear_7_2486" x1="29.4922" y1="37.9882" x2="70.5668" y2="91.4054" gradientUnits="userSpaceOnUse">
<stop stop-color="white" stop-opacity="0.6"/>
<stop offset="0.25" stop-color="white" stop-opacity="0.3"/>
<stop offset="0.5" stop-color="white" stop-opacity="0"/>
<stop offset="0.75" stop-color="white" stop-opacity="0.4"/>
<stop offset="1" stop-color="white" stop-opacity="0.8"/>
</linearGradient>
<linearGradient id="paint18_linear_7_2486" x1="40.426" y1="28.1251" x2="59.8955" y2="28.1251" gradientUnits="userSpaceOnUse">
<stop stop-color="#EFC674"/>
<stop offset="0.1" stop-color="#F7DAA1"/>
<stop offset="0.19" stop-color="#FFEDCE"/>
<stop offset="0.2" stop-color="#FFF4DE"/>
<stop offset="0.21" stop-color="#FFFAED"/>
<stop offset="0.28" stop-color="#FFFCF6"/>
<stop offset="0.35" stop-color="white"/>
<stop offset="0.36" stop-color="#F1DFBB"/>
<stop offset="0.38" stop-color="#E4C077"/>
<stop offset="0.41" stop-color="#C59854"/>
<stop offset="0.45" stop-color="#A67032"/>
<stop offset="0.55" stop-color="#D2B782"/>
<stop offset="0.65" stop-color="#FFFED1"/>
<stop offset="0.69" stop-color="#F7DF9F"/>
<stop offset="0.74" stop-color="#EEC16C"/>
</linearGradient>
<linearGradient id="paint19_linear_7_2486" x1="40.0355" y1="28.3205" x2="60.5523" y2="28.3205" gradientUnits="userSpaceOnUse">
<stop stop-color="#E1F0EE"/>
<stop offset="0.21" stop-color="#F0F8F7"/>
<stop offset="0.42" stop-color="white"/>
<stop offset="0.59" stop-color="#E5F0EF"/>
<stop offset="0.75" stop-color="#CCE2DF"/>
<stop offset="0.88" stop-color="#E4F0EE"/>
<stop offset="1" stop-color="#FCFEFE"/>
</linearGradient>
<linearGradient id="paint20_linear_7_2486" x1="42.1832" y1="18.5546" x2="59.9896" y2="18.5546" gradientUnits="userSpaceOnUse">
<stop stop-color="#E1F0EE"/>
<stop offset="0.23" stop-color="#F0F8F7" stop-opacity="0.85"/>
<stop offset="0.45" stop-color="white" stop-opacity="0.7"/>
<stop offset="0.59" stop-color="white" stop-opacity="0.779"/>
<stop offset="0.74" stop-color="white" stop-opacity="0.858"/>
<stop offset="0.87" stop-color="#E8F3F0" stop-opacity="0.858"/>
<stop offset="1" stop-color="#D1E6E2" stop-opacity="0.858"/>
</linearGradient>
<linearGradient id="paint21_linear_7_2486" x1="38.2773" y1="22.2656" x2="61.6818" y2="22.2656" gradientUnits="userSpaceOnUse">
<stop stop-color="#ECF7F5" stop-opacity="0.8"/>
<stop offset="0.25" stop-color="#F6FBFA" stop-opacity="0.7"/>
<stop offset="0.5" stop-color="white" stop-opacity="0.6"/>
<stop offset="0.75" stop-color="#EBF6F4" stop-opacity="0.7"/>
<stop offset="1" stop-color="#D7ECE8" stop-opacity="0.8"/>
</linearGradient>
<linearGradient id="paint22_linear_7_2486" x1="38.6678" y1="11.7188" x2="61.4309" y2="11.3647" gradientUnits="userSpaceOnUse">
<stop stop-color="#E1F0EE"/>
<stop offset="0.23" stop-color="#F0F8F7" stop-opacity="0.8"/>
<stop offset="0.45" stop-color="white" stop-opacity="0.6"/>
<stop offset="0.59" stop-color="white" stop-opacity="0.729"/>
<stop offset="0.74" stop-color="white" stop-opacity="0.858"/>
<stop offset="0.87" stop-color="#E8F3F0" stop-opacity="0.858"/>
<stop offset="1" stop-color="#D1E6E2" stop-opacity="0.858"/>
</linearGradient>
<linearGradient id="paint23_linear_7_2486" x1="33.1994" y1="13.086" x2="36.9863" y2="13.086" gradientUnits="userSpaceOnUse">
<stop stop-color="white"/>
<stop offset="0.5" stop-color="#E0EDEB" stop-opacity="0.9"/>
<stop offset="1" stop-color="#C1DBD6" stop-opacity="0.8"/>
</linearGradient>
<linearGradient id="paint24_linear_7_2486" x1="64.6447" y1="15.8202" x2="64.6447" y2="17.6026" gradientUnits="userSpaceOnUse">
<stop stop-color="white"/>
<stop offset="0.5" stop-color="#E0EDEB" stop-opacity="0.9"/>
<stop offset="1" stop-color="#C1DBD6" stop-opacity="0.8"/>
</linearGradient>
<linearGradient id="paint25_linear_7_2486" x1="66.9877" y1="13.0859" x2="63.6213" y2="13.0859" gradientUnits="userSpaceOnUse">
<stop stop-color="white"/>
<stop offset="0.5" stop-color="#C1D5D1" stop-opacity="0.9"/>
<stop offset="1" stop-color="#83ACA2" stop-opacity="0.8"/>
</linearGradient>
<linearGradient id="paint26_linear_7_2486" x1="62.8863" y1="13.4765" x2="37.4576" y2="13.4765" gradientUnits="userSpaceOnUse">
<stop stop-color="white"/>
<stop offset="0.05" stop-color="white"/>
<stop offset="0.1" stop-color="white"/>
<stop offset="0.18" stop-color="#E0EDEB"/>
<stop offset="0.25" stop-color="#C1DBD6"/>
<stop offset="0.35" stop-color="#C8E0DC" stop-opacity="0.8"/>
<stop offset="0.45" stop-color="#D0E5E1" stop-opacity="0.6"/>
<stop offset="0.58" stop-color="#AAC8C2" stop-opacity="0.65"/>
<stop offset="0.71" stop-color="#83ACA2" stop-opacity="0.7"/>
<stop offset="0.82" stop-color="#BAD2CD" stop-opacity="0.75"/>
<stop offset="0.92" stop-color="#F2F9F8" stop-opacity="0.8"/>
<stop offset="0.96" stop-color="#F9FCFB" stop-opacity="0.9"/>
<stop offset="1" stop-color="white"/>
</linearGradient>
<clipPath id="clip0_7_2486">
<rect width="100" height="100" fill="white"/>
</clipPath>
</defs>
</svg>
