<svg width="100" height="100" viewBox="0 0 100 100" fill="none" xmlns="http://www.w3.org/2000/svg">
<g clip-path="url(#clip0_7_2723)">
<mask id="mask0_7_2723" style="mask-type:luminance" maskUnits="userSpaceOnUse" x="0" y="0" width="100" height="100">
<path d="M100 0H0V100H100V0Z" fill="white"/>
</mask>
<g mask="url(#mask0_7_2723)">
<path d="M76.6925 59.5283C76.6953 56.2603 74.147 54.7173 70.8002 54.3256L37.4249 50.1863C34.0063 49.7862 30.4328 50.2171 28.6146 52.4084L17.1698 67.8969C15.4918 69.8222 15.2076 71.1578 14.7427 73.282C14.433 74.7957 15.5011 87.5561 15.5888 88.2835C15.8716 90.5785 17.5469 92.028 20.3003 92.5544L57.0441 97.7097C61.5429 98.1412 66.2341 97.1361 67.6522 93.5911L75.3554 76.2351C75.8024 75.3096 76.0069 74.662 76.2956 73.344C76.7195 71.2932 76.6923 59.8338 76.6925 59.5283Z" fill="url(#paint0_linear_7_2723)"/>
<path d="M76.6925 59.5283C76.6953 56.2603 74.147 54.7173 70.8002 54.3256L37.4249 50.1863C34.0063 49.7862 30.4328 50.2171 28.6146 52.4084L17.1698 67.8969C15.4918 69.8222 15.2076 71.1578 14.7427 73.282C14.433 74.7957 15.5011 87.5561 15.5888 88.2835C15.8716 90.5785 17.5469 92.028 20.3003 92.5544L57.0441 97.7097C61.5429 98.1412 66.2341 97.1361 67.6522 93.5911L75.3554 76.2351C75.8024 75.3096 76.0069 74.662 76.2956 73.344C76.7195 71.2932 76.6923 59.8338 76.6925 59.5283Z" stroke="#006E87" stroke-width="1.23047" stroke-linecap="round" stroke-linejoin="round"/>
<path d="M15.5576 84.1808C15.6641 86.5317 17.6681 88.5328 20.4303 89.0004L57.5908 94.0488C62.1409 94.5059 66.5833 92.7443 67.952 89.4005L75.3219 72.9327C75.769 72.0072 76.5776 70.5388 76.6973 68.6804" stroke="url(#paint1_linear_7_2723)" stroke-width="0.615234" stroke-linecap="round" stroke-linejoin="round"/>
<path d="M57.0449 97.7095C61.5437 98.141 66.2349 97.1362 67.653 93.5912L75.3559 76.2352C75.803 75.3097 76.0204 74.662 76.2962 73.3438C76.698 71.2824 76.6945 59.8339 76.6933 59.5283C76.6797 56.2062 74.1478 54.7174 70.8009 54.3257" stroke="#254C50" stroke-width="1.23047" stroke-linecap="round" stroke-linejoin="round"/>
<path d="M37.4251 50.1863C34.0064 49.7862 30.4329 50.2171 28.6147 52.4084L17.1699 67.8967C15.492 69.8219 15.2077 71.0957 14.7428 73.2818C14.4332 74.7955 15.4975 87.57 15.589 88.2835" stroke="#00AAB7" stroke-width="1.23047" stroke-linecap="round" stroke-linejoin="round"/>
<path d="M55.6525 80.582L20.6616 75.4837C17.0381 74.8546 15.9904 71.5309 17.7762 69.5531L29.3369 54.1452C31.1557 52.0306 33.809 51.884 38.0416 52.2869C40.3276 52.5045 64.6263 54.4489 68.6913 55.012C72.0881 55.4825 75.899 57.586 74.315 60.2507L66.6484 76.7782C65.3594 79.0954 59.953 81.3287 55.6525 80.582Z" fill="url(#paint2_linear_7_2723)"/>
<path d="M55.3669 78.6478L21.9469 73.7681C18.4918 73.1683 17.1469 71.1235 18.8497 69.2376L29.736 54.1881C31.4704 52.1718 34.2176 51.3057 38.3103 50.8933C47.2593 49.9916 64.2484 53.9666 67.7663 55.4307C70.2381 56.4593 73.6679 58.0727 72.7237 59.7697L65.0999 75.8981C63.8709 78.1076 59.4674 79.3598 55.3669 78.6478Z" fill="black"/>
<path d="M55.3669 78.6478L21.9469 73.7681C18.4918 73.1683 17.1469 71.1235 18.8497 69.2376L29.736 54.1881C31.4704 52.1718 34.2176 51.3057 38.3103 50.8933C47.2593 49.9916 64.2484 53.9666 67.7663 55.4307C70.2381 56.4593 73.6679 58.0727 72.7237 59.7697L65.0999 75.8981C63.8709 78.1076 59.4674 79.3598 55.3669 78.6478Z" stroke="#212121" stroke-width="1.23047" stroke-linecap="round" stroke-linejoin="round"/>
<path d="M54.9977 76.8161L23.05 72.1411C19.7528 71.5685 18.4694 69.6174 20.0944 67.8177L30.3565 53.5567C32.0117 51.6325 34.6334 50.8062 38.5392 50.4127C47.0794 49.5522 63.3466 53.3636 66.704 54.7607C69.0628 55.7425 72.3358 57.2822 71.4349 58.9017L64.2861 74.1921C63.1133 76.3005 58.911 77.4955 54.9977 76.8161Z" fill="url(#paint3_linear_7_2723)"/>
<path d="M54.9977 76.8161L23.05 72.1411C19.7528 71.5685 18.4694 69.6174 20.0944 67.8177L30.3565 53.5567C32.0117 51.6325 34.6334 50.8062 38.5392 50.4127C47.0794 49.5522 63.3466 53.3636 66.704 54.7607C69.0628 55.7425 72.3358 57.2822 71.4349 58.9017L64.2861 74.1921C63.1133 76.3005 58.911 77.4955 54.9977 76.8161Z" stroke="black" stroke-width="1.23047" stroke-linecap="round" stroke-linejoin="round"/>
<path d="M19.0674 70.0164C19.5142 71.2437 21.5359 72.2868 23.415 72.4849C25.2942 72.683 54.7834 77.2983 54.7834 77.2983" stroke="url(#paint4_radial_7_2723)" stroke-width="0.615234" stroke-linecap="round" stroke-linejoin="round"/>
<g opacity="0.44">
<path d="M23.916 62.8805C28.5258 59.4916 35.2398 59.3525 47.9073 61.0122C60.5748 62.6719 64.8205 65.4917 65.2936 67.6664C51.6061 64.7846 33.3098 62.4363 23.916 62.8805Z" fill="#0F020E"/>
</g>
<path d="M30.3174 15.5564C30.328 15.3581 30.7384 28.6531 31.0477 39.7185C31.2384 46.5422 36.164 48.7132 37.6871 49.06C44.5418 49.8606 77.8065 56.792 78.6709 51.0035C79.5318 45.8985 82.8555 18.3549 78.7909 14.877C74.7297 11.4015 31.8259 -1.01209 30.3174 15.5564Z" fill="url(#paint5_linear_7_2723)"/>
<path d="M30.3174 15.5564C30.328 15.3581 30.7384 28.6531 31.0477 39.7185C31.2384 46.5422 36.164 48.7132 37.6871 49.06C44.5418 49.8606 77.8065 56.792 78.6709 51.0035C79.5318 45.8985 82.8555 18.3549 78.7909 14.877C74.7297 11.4015 31.8259 -1.01209 30.3174 15.5564Z" stroke="black" stroke-width="1.23047" stroke-linecap="round" stroke-linejoin="round"/>
<path d="M80.3964 41.4973C80.695 44.8236 78.2827 47.1515 75.0137 46.7034L42.6497 43.0015C39.4402 42.5614 36.6594 39.9688 36.4884 36.4476C36.3534 35.0543 35.8854 12.0454 35.8854 12.0454C35.8405 8.67799 38.0974 6.31242 41.3387 6.7277L73.9448 10.5114C77.2466 10.9345 80.1739 14.024 80.4776 17.4057L80.3964 41.4973Z" fill="url(#paint6_linear_7_2723)"/>
<g opacity="0.22">
<path d="M53.5622 20.9303L50.4463 20.5864L50.4514 21.1494L51.7801 21.2962L51.8129 25.1689L52.342 25.228L52.3098 21.3549L53.5668 21.4937L53.5622 20.9303Z" fill="white"/>
<path d="M54.702 22.1185C52.1823 21.9372 52.9966 26.532 55.8285 25.5345L55.644 24.9857C54.7915 25.2164 53.9613 24.917 53.805 23.9605L55.9934 24.2035C56.1009 23.093 55.4362 22.1712 54.702 22.1185ZM53.8089 23.3988C54.0025 22.389 55.3491 22.452 55.4411 23.5799L53.8089 23.3988Z" fill="white"/>
<path d="M56.7121 25.7151L57.2427 25.7742L57.2099 21.0958L56.6787 21.0371L56.7121 25.7151Z" fill="white"/>
<path d="M63.3192 23.5139C60.4081 21.2285 60.398 27.6271 63.3329 26.0788C63.5205 27.2053 62.3073 27.4573 61.5198 26.893L61.2604 27.3534C62.2486 28.0884 63.91 27.8082 63.8667 26.3948L63.8507 23.3332L63.3179 23.2746L63.3192 23.5139ZM62.4406 25.7568C61.3602 25.6787 61.3902 23.4624 62.3988 23.6037C63.5564 23.6853 63.6403 25.9377 62.4406 25.7568Z" fill="white"/>
<path d="M65.1901 23.7972L65.1885 23.4805L64.6553 23.4219L64.6713 26.6L65.2039 26.6592C65.224 25.7454 64.9555 23.9348 66.22 24.0252L66.2174 23.4604C65.8054 23.4151 65.4541 23.5388 65.1901 23.7972Z" fill="white"/>
<path d="M68.8404 25.1736C68.8697 23.7822 67.8486 23.3411 66.6483 23.7362L66.852 24.2815C67.6374 24.0621 68.2545 24.0808 68.3047 24.9595C65.7954 24.3699 65.9718 27.7859 68.3632 26.7246C68.3876 26.9453 68.4105 27.0632 68.4128 27.0743L68.9343 27.0144C68.9331 27.0083 68.815 26.3854 68.8404 25.1736ZM67.0242 25.9622C67.0868 25.3879 67.9009 25.4735 68.3025 25.5247C68.5131 26.5027 66.9514 26.6311 67.0242 25.9622Z" fill="white"/>
<path d="M73.4808 24.4704C72.953 24.139 72.445 24.3427 72.089 24.8779C71.7576 23.9639 70.6647 23.8997 70.2117 24.6683L70.2094 24.033L69.6748 23.9744L69.6865 27.1564L70.2205 27.2156C70.2125 24.8966 70.9727 24.5718 71.346 24.7444C71.8306 24.9688 71.6001 26.4335 71.6343 27.3863L72.1686 27.4314C72.1109 26.4015 72.3322 24.5996 73.222 24.9366C73.6139 25.1493 73.3603 27.2189 73.4314 27.571L73.9665 27.6303C73.8703 26.9197 74.2737 24.9259 73.4808 24.4704Z" fill="white"/>
<path d="M59.2741 22.6234C56.7482 22.4421 57.5589 27.042 60.3992 26.0433L60.2148 25.4937C59.3598 25.7246 58.5283 25.425 58.3726 24.4675L60.5661 24.7107C60.6752 23.5989 60.0101 22.6761 59.2741 22.6234ZM58.3771 23.9051C58.5723 22.8941 59.9224 22.9573 60.0134 24.0864L58.3771 23.9051Z" fill="white"/>
<path d="M47.8915 25.4076L49.0166 20.4183C49.0492 20.2733 48.9052 20.132 48.7652 20.1715L42.6046 21.9088C42.4565 21.9506 42.4648 22.1667 42.6169 22.2307L44.2418 22.9145L47.8645 20.9927L45.101 23.4192L47.6323 25.481C47.7301 25.5608 47.8657 25.5224 47.8915 25.4076Z" fill="white"/>
</g>
<path d="M78.4909 5.14962C73.4892 4.64964 44.8597 1.92354 44.8597 1.92354C42.0797 1.64238 39.3895 2.33123 37.8235 3.87404C36.6215 4.81309 31.0975 8.79591 30.1462 10.5239C29.4918 11.8159 29.3634 12.9315 29.3232 14.8504C29.2479 18.4436 29.7397 37.399 29.9269 41.5953C30.1142 45.7916 33.7024 49.1657 37.3561 49.6575L74.3422 53.9215C76.6345 54.2301 78.9802 52.5729 80.2092 50.8753C80.8924 49.9184 84.0471 44.725 84.5883 42.8988C84.9367 41.8051 85.4127 40.8874 85.5384 36.486C85.6641 32.0846 85.7353 17.7642 85.7884 13.2053C85.8415 8.64641 83.4925 5.64961 78.4909 5.14962ZM78.2237 46.2337C78.2237 49.6922 76.0142 51.9341 72.592 51.4819L38.6696 47.7167C35.3098 47.2727 32.2261 44.2662 32.1553 40.9027C32.1553 40.9027 31.5436 17.6483 31.5436 16.6945C31.5153 12.8167 34.186 10.4718 37.579 10.8908L71.7157 14.7262C75.1721 15.1531 78.2647 18.2363 78.2647 21.8922L78.2237 46.2337Z" fill="url(#paint7_linear_7_2723)"/>
<path d="M78.4909 5.14962C73.4892 4.64964 44.8597 1.92354 44.8597 1.92354C42.0797 1.64238 39.3895 2.33123 37.8235 3.87404C36.6215 4.81309 31.0975 8.79591 30.1462 10.5239C29.4918 11.8159 29.3634 12.9315 29.3232 14.8504C29.2479 18.4436 29.7397 37.399 29.9269 41.5953C30.1142 45.7916 33.7024 49.1657 37.3561 49.6575L74.3422 53.9215C76.6345 54.2301 78.9802 52.5729 80.2092 50.8753C80.8924 49.9184 84.0471 44.725 84.5883 42.8988C84.9367 41.8051 85.4127 40.8874 85.5384 36.486C85.6641 32.0846 85.7353 17.7642 85.7884 13.2053C85.8415 8.64641 83.4925 5.64961 78.4909 5.14962ZM78.2237 46.2337C78.2237 49.6922 76.0142 51.9341 72.592 51.4819L38.6696 47.7167C35.3098 47.2727 32.2261 44.2662 32.1553 40.9027C32.1553 40.9027 31.5436 17.6483 31.5436 16.6945C31.5153 12.8167 34.186 10.4718 37.579 10.8908L71.7157 14.7262C75.1721 15.1531 78.2647 18.2363 78.2647 21.8922L78.2237 46.2337Z" stroke="#006E87" stroke-width="1.23047" stroke-linecap="round" stroke-linejoin="round"/>
<path d="M83.5306 45.151C84.096 43.972 84.2645 41.9176 84.3076 39.4406C84.4384 31.9134 84.3607 23.8565 84.3732 15.509C84.3806 10.6456 81.1851 8.00071 77.1465 7.3701C73.1079 6.73948 45.2991 4.09521 42.5594 3.86142C39.8198 3.62763 37.3847 4.31197 35.2285 6.09636" stroke="url(#paint8_linear_7_2723)" stroke-width="0.615234" stroke-linecap="round" stroke-linejoin="round"/>
<path d="M38.6455 49.8061C45.182 50.5596 74.342 53.9214 74.342 53.9214C76.6344 54.23 78.9801 52.5728 80.2091 50.8752C80.8922 49.9183 84.0469 44.7249 84.5881 42.8987C84.9366 41.805 85.4125 40.8873 85.5383 36.4859C85.6488 32.6165 85.7171 21.081 85.7681 15.2515" stroke="#254C50" stroke-width="1.23047" stroke-linecap="round" stroke-linejoin="round"/>
<path d="M78.4909 5.14962C73.4892 4.64964 44.8597 1.92354 44.8597 1.92354C42.0797 1.64238 39.3895 2.33123 37.8235 3.87404C36.6215 4.81309 31.0975 8.79591 30.1462 10.5239C29.4918 11.8159 29.3634 12.9315 29.3232 14.8504C29.2598 17.8733 29.5978 31.7686 29.8183 38.602" stroke="#00AAB7" stroke-width="1.23047" stroke-linecap="round" stroke-linejoin="round"/>
<path d="M33.0664 52.9933C33.3228 48.4713 35.1061 42.2665 39.3215 41.8356C42.5488 41.5058 72.4711 45.5848 73.8804 45.9921C76.4773 46.78 75.0762 49.5404 74.1228 50.1367C72.175 50.737 71.294 56.9796 71.1228 58.2667" fill="url(#paint9_linear_7_2723)"/>
<path d="M33.0664 52.9933C33.3228 48.4713 35.1061 42.2665 39.3215 41.8356C42.5488 41.5058 72.4711 45.5848 73.8804 45.9921C76.4773 46.78 75.0762 49.5404 74.1228 50.1367C72.175 50.737 71.294 56.9796 71.1228 58.2667" stroke="url(#paint10_linear_7_2723)" stroke-width="1.23047" stroke-linecap="round" stroke-linejoin="round"/>
<path d="M59.3251 65.9504C67.6982 56.6934 61.2617 39.9607 46.916 38.4441C34.4346 37.1285 26.3268 52.2594 33.3842 62.5078C35.0223 62.1386 36.7331 61.8782 36.7331 61.8782C32.7076 57.9794 33.9875 44.4299 45.848 45.0029C57.7739 45.6184 61.3271 57.4526 57.381 64.9168C58.0684 65.2501 59.3251 65.9504 59.3251 65.9504Z" fill="url(#paint11_radial_7_2723)"/>
<path d="M59.3251 65.9504C67.6982 56.6934 61.2617 39.9607 46.916 38.4441C34.4346 37.1285 26.3268 52.2594 33.3842 62.5078C35.0223 62.1386 36.7331 61.8782 36.7331 61.8782C32.7076 57.9794 33.9875 44.4299 45.848 45.0029C57.7739 45.6184 61.3271 57.4526 57.381 64.9168C58.0684 65.2501 59.3251 65.9504 59.3251 65.9504Z" stroke="url(#paint12_radial_7_2723)" stroke-width="0.615234" stroke-linecap="round" stroke-linejoin="round"/>
<path d="M31.9053 50.3668C33.855 41.2386 44.1823 35.1855 53.8663 41.3214C44.6441 37.775 34.8584 41.7781 31.9053 50.3668Z" fill="white"/>
<path d="M58.0171 64.6329C60.3429 60.0892 61.1191 51.4479 53.0273 46.2317C59.5056 47.3793 63.5417 57.6734 58.0171 64.6329Z" fill="#E6E6E6"/>
<path d="M54.7151 48.3087C49.7586 44.2627 42.5708 43.0341 37.8272 47.3494C34.3121 50.4042 33.4168 56.8875 35.7569 61.325C26.6283 50.0375 42.417 33.8802 54.7151 48.3087Z" fill="url(#paint13_linear_7_2723)"/>
<g opacity="0.8">
<path d="M43.3047 31.0781L53.7446 31.7932L49.6959 39.0255L45.1241 38.6834L43.3047 31.0781Z" fill="#F84AAA"/>
<path d="M53.7456 31.7932L43.3057 31.0781L45.1622 28.0195L51.1704 28.4116L53.7456 31.7932Z" fill="white"/>
<path d="M52.045 40.3236L57.4435 34.5249L53.7449 31.7932L49.6963 39.0255L52.045 40.3236Z" fill="#CD2D8E"/>
<path d="M53.7451 31.7932L51.1699 28.4116L54.6778 31.1209L57.4437 34.5248L53.7451 31.7932Z" fill="#A42B88"/>
<path d="M45.1248 38.6834L43.3053 31.0781L37.6484 32.6578L42.5398 39.6004L45.1248 38.6834Z" fill="#A80244"/>
<path d="M43.3053 31.0781L45.1619 28.0195L40.2006 29.6319L37.6484 32.6576L43.3053 31.0781Z" fill="#A42B88"/>
<path d="M49.6969 39.0254L45.125 38.6833L42.54 39.6003L43.9618 41.2446L48.587 41.6668L52.0456 40.3236L49.6969 39.0254Z" fill="#EA6EC9"/>
</g>
<g opacity="0.85">
<path d="M51.1415 28.3936L45.1576 28.03L40.2041 29.6155L42.8369 33.1262L49.2046 33.6242L54.6927 31.1694L51.1415 28.3936Z" fill="#EA6EC9"/>
<path d="M42.5393 39.5873L37.6172 32.6592L40.5697 37.1697L43.9592 41.2275L42.5393 39.5873Z" fill="#CD2D8E"/>
<path d="M48.6131 41.6802L51.2184 38.1288L40.5703 37.1697L43.9598 41.2276L48.6131 41.6802Z" fill="#A80244"/>
<path d="M57.4476 34.5364L51.2184 38.1289L48.6133 41.6803L52.0734 40.3317L57.4476 34.5364Z" fill="#65001A"/>
<path d="M37.6074 32.6592L40.2041 29.6155L42.8367 33.1262L40.5704 37.1699L37.6074 32.6592Z" fill="white"/>
<path d="M49.2043 33.6242L51.2184 38.1289L40.5703 37.1697L42.8366 33.1262L49.2043 33.6242Z" fill="#F84AAA"/>
<path d="M54.6924 31.1694L49.2041 33.6242L51.2182 38.129L57.4474 34.5366L54.6924 31.1694Z" fill="#CD2D8E"/>
</g>
<path d="M40.21 29.6111L37.5635 32.6665L42.5208 39.6144L43.9992 41.3007L48.6082 41.7209L52.0449 40.3155L57.4487 34.5286L54.6781 31.1266L51.1798 28.3728L45.1723 28.0383L40.21 29.6111Z" stroke="#93005F" stroke-width="0.615234" stroke-linecap="round" stroke-linejoin="round"/>
<path d="M42.0654 39.657L44.017 41.2798C44.017 41.2798 44.7905 40.653 46.2308 40.7843C47.7096 40.9215 48.51 41.7324 48.51 41.7324L52.0191 40.3715L48.6128 41.9602L43.9595 41.5076L42.0654 39.657Z" fill="#6A6A6A"/>
<path d="M42.0654 39.657L44.017 41.2798C44.017 41.2798 44.7905 40.653 46.2308 40.7843C47.7096 40.9215 48.51 41.7324 48.51 41.7324L52.0191 40.3715L48.6128 41.9602L43.9595 41.5076L42.0654 39.657Z" stroke="url(#paint14_linear_7_2723)" stroke-width="0.615234" stroke-linecap="round" stroke-linejoin="round"/>
<path d="M65.0126 72.328C65.6654 71.1769 66.7379 68.9163 66.8448 68.1151C66.7923 67.2669 60.6121 63.4949 46.6233 61.939C26.276 59.6757 24.9689 61.3332 22.2266 65.203L22.4159 65.7226" fill="url(#paint15_linear_7_2723)"/>
<path d="M65.0126 72.328C65.6654 71.1769 66.738 68.9163 66.8448 68.1151C66.7923 67.2669 60.6121 63.4949 46.6233 61.939C26.276 59.6757 24.9689 61.3332 22.2266 65.203L22.4159 65.7226" stroke="black" stroke-width="0.615234" stroke-linecap="round" stroke-linejoin="round"/>
<path d="M25.1606 62.5862C27.5806 61.2546 31.1378 60.6728 41.5759 61.7425C29.2841 61.3299 25.3756 62.2929 21.1885 68.063C23.439 65.1634 23.8289 63.3189 25.1606 62.5862Z" fill="#64565D"/>
<path d="M40.641 83.8837C40.2772 88.6651 33.1114 87.3038 33.4606 82.4524C33.799 77.6663 41.0257 78.9879 40.641 83.8837Z" fill="#BFD3D6"/>
<path d="M40.641 83.8837C40.2772 88.6651 33.1114 87.3038 33.4606 82.4524C33.799 77.6663 41.0257 78.9879 40.641 83.8837Z" stroke="#485F60" stroke-width="1.23047" stroke-linecap="round" stroke-linejoin="round"/>
<path d="M34.1194 83.1402C34.032 80.3565 36.5834 79.6921 38.4695 80.8657" stroke="white" stroke-width="0.615234" stroke-linecap="round" stroke-linejoin="round"/>
<path d="M38.6854 84.2159C38.4873 87.3421 33.7129 86.3947 34.0008 83.2822C34.2809 80.206 38.8837 81.0862 38.6854 84.2159Z" fill="#A4BEC1"/>
<path d="M38.6854 84.2159C38.4873 87.3421 33.7129 86.3947 34.0008 83.2822C34.2809 80.206 38.8837 81.0862 38.6854 84.2159Z" stroke="#84A0A5" stroke-width="1.23047" stroke-linecap="round" stroke-linejoin="round"/>
<path d="M34.4839 83.955C34.2655 82.2094 36.1875 81.4557 37.533 82.6606" stroke="white" stroke-width="0.615234" stroke-linecap="round" stroke-linejoin="round"/>
<g opacity="0.5">
<path d="M41.8298 86.1793C42.2878 85.0542 42.53 82.3652 39.8137 80.8027C40.3003 82.6134 39.6381 84.0805 38.185 83.5639C37.3856 85.2123 34.5842 85.3731 33.7881 84.8163C33.9384 87.6035 37.2879 88.5672 38.4089 88.3964C40.1301 90.5214 43.1577 88.5959 41.8298 86.1793Z" fill="#485F60"/>
</g>
<path d="M37.3795 84.9604C37.3795 87.6924 33.2373 87.6879 33.2373 84.9604C33.2373 82.233 37.3795 82.2257 37.3795 84.9604Z" fill="#BFD3D6"/>
<path d="M37.3795 84.9604C37.3795 87.6924 33.2373 87.6879 33.2373 84.9604C33.2373 82.233 37.3795 82.2257 37.3795 84.9604Z" stroke="#768E91" stroke-width="0.615234" stroke-linecap="round" stroke-linejoin="round"/>
<path d="M35.5815 84.5937C35.5815 85.6496 33.9805 85.6478 33.9805 84.5937C33.9805 83.5396 35.5815 83.5367 35.5815 84.5937Z" fill="#FDFFFF"/>
<path d="M45.7523 11.9054C49.9817 12.4602 61.5761 13.1214 67.7095 14.1633C63.8622 11.3957 50.4201 10.2259 45.7523 11.9054Z" fill="#53D8CA"/>
<path d="M39.5469 11.0486L69.5031 14.397" stroke="#254C50" stroke-width="1.18729" stroke-linecap="round" stroke-linejoin="round"/>
</g>
</g>
<defs>
<linearGradient id="paint0_linear_7_2723" x1="15.8614" y1="73.379" x2="75.4251" y2="73.379" gradientUnits="userSpaceOnUse">
<stop stop-color="#B3FFF7"/>
<stop offset="0.06" stop-color="#9AECE3"/>
<stop offset="0.12" stop-color="#80D8CF"/>
<stop offset="0.4" stop-color="#62D8CB"/>
<stop offset="0.68" stop-color="#45D8C8"/>
<stop offset="0.74" stop-color="#229E9F"/>
<stop offset="0.81" stop-color="#006375"/>
<stop offset="0.9" stop-color="#2F8287"/>
<stop offset="1" stop-color="#5FA19A"/>
</linearGradient>
<linearGradient id="paint1_linear_7_2723" x1="14.3163" y1="81.9922" x2="78.2334" y2="81.9922" gradientUnits="userSpaceOnUse">
<stop stop-color="#00AAB7" stop-opacity="0.4"/>
<stop offset="0.32" stop-color="#14B0B5" stop-opacity="0.7"/>
<stop offset="0.65" stop-color="#29B6B3"/>
<stop offset="0.69" stop-color="#14929D"/>
<stop offset="0.73" stop-color="#006E87"/>
<stop offset="0.86" stop-color="#135D6C"/>
<stop offset="1" stop-color="#254C50"/>
</linearGradient>
<linearGradient id="paint2_linear_7_2723" x1="16.3673" y1="60.2536" x2="68.525" y2="68.9643" gradientUnits="userSpaceOnUse">
<stop stop-color="#80D8CF"/>
<stop offset="0.36" stop-color="#409EA2"/>
<stop offset="0.72" stop-color="#006375"/>
<stop offset="0.86" stop-color="#005F70"/>
<stop offset="1" stop-color="#005B6B"/>
</linearGradient>
<linearGradient id="paint3_linear_7_2723" x1="44.0533" y1="74.4039" x2="47.7726" y2="52.6966" gradientUnits="userSpaceOnUse">
<stop stop-color="#62555C"/>
<stop offset="0.5" stop-color="#312B2E"/>
<stop offset="1"/>
</linearGradient>
<radialGradient id="paint4_radial_7_2723" cx="0" cy="0" r="1" gradientUnits="userSpaceOnUse" gradientTransform="translate(33.9191 74.4262) scale(11.2023 11.2023)">
<stop stop-color="#999999"/>
<stop offset="0.5" stop-color="#999999" stop-opacity="0.5"/>
<stop offset="1" stop-color="#999999" stop-opacity="0"/>
</radialGradient>
<linearGradient id="paint5_linear_7_2723" x1="55.3324" y1="13.701" x2="56.6779" y2="44.2238" gradientUnits="userSpaceOnUse">
<stop/>
<stop offset="0.5" stop-color="#2A2225"/>
<stop offset="1" stop-color="#53454B"/>
</linearGradient>
<linearGradient id="paint6_linear_7_2723" x1="37.08" y1="27.0313" x2="81.9829" y2="27.0313" gradientUnits="userSpaceOnUse">
<stop offset="0.01"/>
<stop offset="0.51" stop-color="#2A2225" stop-opacity="0.5"/>
<stop offset="1" stop-color="#53454B" stop-opacity="0"/>
</linearGradient>
<linearGradient id="paint7_linear_7_2723" x1="41.899" y1="0.816119" x2="82.4052" y2="24.4514" gradientUnits="userSpaceOnUse">
<stop stop-color="#B3FFF7"/>
<stop offset="0.06" stop-color="#9AECE3"/>
<stop offset="0.12" stop-color="#80D8CF"/>
<stop offset="0.4" stop-color="#62D8CB"/>
<stop offset="0.68" stop-color="#45D8C8"/>
<stop offset="0.74" stop-color="#229E9F"/>
<stop offset="0.81" stop-color="#006375"/>
<stop offset="0.9" stop-color="#2F8287"/>
<stop offset="1" stop-color="#5FA19A"/>
</linearGradient>
<linearGradient id="paint8_linear_7_2723" x1="60.8688" y1="2.62685" x2="60.8688" y2="45.3561" gradientUnits="userSpaceOnUse">
<stop stop-color="#00AAB7" stop-opacity="0.4"/>
<stop offset="0.06" stop-color="#14B0B5" stop-opacity="0.7"/>
<stop offset="0.11" stop-color="#29B6B3"/>
<stop offset="0.17" stop-color="#14929D"/>
<stop offset="0.24" stop-color="#006E87"/>
<stop offset="0.62" stop-color="#135D6C"/>
<stop offset="1" stop-color="#254C50"/>
</linearGradient>
<linearGradient id="paint9_linear_7_2723" x1="55.0385" y1="43.6795" x2="53.3228" y2="56.0623" gradientUnits="userSpaceOnUse">
<stop stop-color="#403B3E"/>
<stop offset="0.19" stop-color="#575058"/>
<stop offset="0.38" stop-color="#6F6473"/>
<stop offset="0.61" stop-color="#585159"/>
<stop offset="0.85" stop-color="#423D3F"/>
<stop offset="0.93" stop-color="#4A4145" stop-opacity="0.5"/>
<stop offset="1" stop-color="#53454B" stop-opacity="0"/>
</linearGradient>
<linearGradient id="paint10_linear_7_2723" x1="33.1839" y1="49.7949" x2="77.1385" y2="49.7949" gradientUnits="userSpaceOnUse">
<stop stop-color="#443E41"/>
<stop offset="0.24" stop-color="#4A4146"/>
<stop offset="0.48" stop-color="#51444A"/>
<stop offset="0.74" stop-color="#292225"/>
<stop offset="1"/>
</linearGradient>
<radialGradient id="paint11_radial_7_2723" cx="0" cy="0" r="1" gradientUnits="userSpaceOnUse" gradientTransform="translate(47.2442 55.0868) scale(15.2593)">
<stop stop-color="white"/>
<stop offset="0.26" stop-color="#DEF6F3"/>
<stop offset="0.51" stop-color="#BDECE7"/>
<stop offset="0.71" stop-color="#78908D"/>
<stop offset="0.91" stop-color="#333333"/>
<stop offset="0.92" stop-color="#4D4D4D"/>
<stop offset="0.93" stop-color="#676767"/>
<stop offset="0.96" stop-color="#9C9C9C"/>
<stop offset="1" stop-color="#D1D1D1"/>
</radialGradient>
<radialGradient id="paint12_radial_7_2723" cx="0" cy="0" r="1" gradientUnits="userSpaceOnUse" gradientTransform="translate(46.719 52.0508) scale(15.3448)">
<stop stop-color="#076878"/>
<stop offset="0.35" stop-color="#77A7AF"/>
<stop offset="0.7" stop-color="#E6E6E6"/>
<stop offset="0.85" stop-color="#A89FA4"/>
<stop offset="1" stop-color="#695762"/>
</radialGradient>
<linearGradient id="paint13_linear_7_2723" x1="41.7971" y1="59.6387" x2="41.7971" y2="41.9205" gradientUnits="userSpaceOnUse">
<stop stop-color="#006A68"/>
<stop offset="0.5" stop-color="#003534"/>
<stop offset="1"/>
</linearGradient>
<linearGradient id="paint14_linear_7_2723" x1="41.4931" y1="40.5521" x2="51.7874" y2="40.5376" gradientUnits="userSpaceOnUse">
<stop stop-color="white"/>
<stop offset="0.09" stop-color="#F3F3F3"/>
<stop offset="0.18" stop-color="#E6E6E6"/>
<stop offset="0.22" stop-color="#C6C6C6"/>
<stop offset="0.25" stop-color="#A5A5A5"/>
<stop offset="0.46" stop-color="#D2D2D2"/>
<stop offset="0.67" stop-color="white"/>
<stop offset="0.72" stop-color="#8D8D8D"/>
<stop offset="0.77" stop-color="#1A1A1A"/>
<stop offset="0.89" stop-color="#4D4D4D"/>
<stop offset="1" stop-color="#808080"/>
</linearGradient>
<linearGradient id="paint15_linear_7_2723" x1="44.2579" y1="65.7911" x2="43.6902" y2="69.0552" gradientUnits="userSpaceOnUse">
<stop stop-color="#3E393C"/>
<stop offset="0.09" stop-color="#3E393C"/>
<stop offset="0.19" stop-color="#3E393C"/>
<stop offset="0.6" stop-color="#433D40" stop-opacity="0.5"/>
<stop offset="1" stop-color="#474144" stop-opacity="0"/>
</linearGradient>
<clipPath id="clip0_7_2723">
<rect width="100" height="100" fill="white"/>
</clipPath>
</defs>
</svg>
