<svg width="100" height="100" viewBox="0 0 100 100" fill="none" xmlns="http://www.w3.org/2000/svg">
<g clip-path="url(#clip0_7_1070)">
<mask id="mask0_7_1070" style="mask-type:luminance" maskUnits="userSpaceOnUse" x="0" y="0" width="100" height="100">
<path d="M100 0H0V100H100V0Z" fill="white"/>
</mask>
<g mask="url(#mask0_7_1070)">
<path d="M96.0421 37.0556C94.1768 31.9101 89.0102 28.484 83.6699 29.0462C79.1881 29.518 67.1216 32.5219 53.8146 36.5982C38.9843 41.1414 22.8808 46.8951 16.5842 50.0636C12.862 51.9365 12.7556 60.3922 15.4764 67.6283C18.0964 74.9015 21.3299 80.1157 27.1142 78.6693C33.9527 76.9593 49.9529 70.9389 64.1894 64.7824C76.9634 59.2582 88.0977 53.7216 91.8156 51.1752C96.2459 48.1408 97.9581 42.1826 96.0421 37.0556Z" fill="url(#paint0_linear_7_1070)"/>
<path d="M96.0421 37.0556C94.1768 31.9101 89.0102 28.484 83.6699 29.0462C79.1881 29.518 67.1216 32.5219 53.8146 36.5982C38.9843 41.1414 22.8808 46.8951 16.5842 50.0636C12.862 51.9365 12.7556 60.3922 15.4764 67.6283C18.0964 74.9015 21.3299 80.1157 27.1142 78.6693C33.9527 76.9593 49.9529 70.9389 64.1894 64.7824C76.9634 59.2582 88.0977 53.7216 91.8156 51.1752C96.2459 48.1408 97.9581 42.1826 96.0421 37.0556Z" stroke="#894700" stroke-width="1.17188" stroke-miterlimit="10"/>
<g opacity="0.75">
<path d="M45.8425 72.1517C64.1612 66.4117 69.5829 32.4128 53.1727 36.8904" stroke="url(#paint1_linear_7_1070)" stroke-width="0.78125" stroke-linecap="round" stroke-linejoin="round"/>
</g>
<g opacity="0.75">
<path d="M33.0977 76.8436C48.4919 72.5751 48.9865 37.2459 34.4319 43.0521" stroke="url(#paint2_linear_7_1070)" stroke-width="0.78125" stroke-linecap="round" stroke-linejoin="round"/>
</g>
<g opacity="0.75">
<path d="M69.3835 62.4269C79.1109 58.4383 83.6254 27.2436 72.3394 31.3982" stroke="url(#paint3_linear_7_1070)" stroke-width="0.78125" stroke-linecap="round" stroke-linejoin="round"/>
</g>
<g opacity="0.75">
<path d="M81.6649 56.7306C91.3923 52.7422 96.0941 27.9424 84.6676 28.9871" stroke="url(#paint4_linear_7_1070)" stroke-width="0.78125" stroke-linecap="round" stroke-linejoin="round"/>
</g>
<path d="M79.8585 45.3515C79.0728 42.7021 77.2335 40.6868 74.6478 40.0412C72.6993 37.0827 68.33 32.8448 64.2051 33.0367C61.4448 33.7239 58.3402 34.8438 55.3678 35.5839C59.99 35.3654 64.5051 39.463 66.506 42.6076C64.5163 44.9085 63.8104 48.0456 64.5019 51.0369C65.2345 54.0964 67.7241 56.3074 69.9272 56.6716C69.7615 58.8295 69.2416 62.3058 65.4825 64.8313C68.5375 63.4294 71.4693 62.0842 74.2852 60.792C77.496 59.1536 78.265 55.1533 78.3277 53.159C80.1969 50.8377 80.6821 48.0556 79.8585 45.3515Z" fill="url(#paint5_linear_7_1070)"/>
<path d="M79.8585 45.3515C79.0728 42.7021 77.2335 40.6868 74.6478 40.0412C72.6993 37.0827 68.33 32.8448 64.2051 33.0367C61.4448 33.7239 58.3402 34.8438 55.3678 35.5839C59.99 35.3654 64.5051 39.463 66.506 42.6076C64.5163 44.9085 63.8104 48.0456 64.5019 51.0369C65.2345 54.0964 67.7241 56.3074 69.9272 56.6716C69.7615 58.8295 69.2416 62.3058 65.4825 64.8313C68.5375 63.4294 71.4693 62.0842 74.2852 60.792C77.496 59.1536 78.265 55.1533 78.3277 53.159C80.1969 50.8377 80.6821 48.0556 79.8585 45.3515Z" stroke="url(#paint6_linear_7_1070)" stroke-width="0.78125" stroke-linecap="round" stroke-linejoin="round"/>
<path d="M70.1146 40.4356C69.171 40.7264 68.3912 41.1869 67.7754 41.7808C65.8892 38.9558 63.4287 36.358 59.3926 34.9215C59.0142 35.0166 58.2013 35.2919 57.8193 35.3879C62.1312 36.7359 65.0008 39.4387 66.9197 42.5171C64.9096 45.0404 64.2271 48.1167 64.9066 51.0345C65.6269 54.0168 67.9639 55.8973 70.2471 56.4296C70.3643 59.1019 69.4769 61.1547 67.9706 63.2024C68.3632 63.0236 69.8597 62.3359 70.2482 62.1589C71.3718 60.479 71.8782 58.1549 71.6541 56.5092C72.485 56.5922 73.1882 56.4235 74.1669 56.007C75.1226 55.5997 76.0477 54.9789 76.8834 54.2125C76.7832 55.9165 75.6519 58.7023 74.4078 60.2162C74.7649 60.0536 75.2914 59.6019 75.6175 59.2723C76.8533 58.0017 77.884 55.5283 77.9068 52.9886C79.7867 50.7595 80.2911 48.2709 79.4837 45.6077C78.7136 42.9973 76.9161 40.894 74.3682 40.3278C72.4928 37.4206 68.1271 33.3246 64.2638 33.4709C63.9167 33.5582 63.86 33.5788 63.6726 33.6271C68.4478 34.6838 71.1829 37.4154 73.0332 40.1284C72.0333 40.0556 71.0369 40.1514 70.1146 40.4356Z" fill="url(#paint7_linear_7_1070)"/>
<path d="M70.4484 38.717C69.5198 38.993 68.5793 39.2723 67.6269 39.5554C65.9383 37.5264 63.7021 35.4284 60.1494 34.6689C61.1101 34.3852 61.9232 34.1208 62.891 33.844C65.8975 34.2061 68.7843 36.7285 70.4484 38.717Z" fill="#5A79EA"/>
<path d="M73.8378 60.523C72.8466 60.9748 71.8415 61.4329 70.8223 61.8974C71.4198 61.1678 72.2997 59.4024 72.4723 58.5209C73.4704 58.0824 74.5681 57.608 75.5391 57.1814C75.3854 58.0382 74.4465 59.7261 73.8378 60.523Z" fill="#5A79EA"/>
<path d="M70.7889 41.4332C73.9025 40.4359 77.5256 42.4907 78.5307 45.9558C79.5993 49.5147 77.4794 53.3377 74.2656 54.6676C70.872 56.0921 66.9501 54.4268 65.9754 50.4948C65.0688 46.6751 67.4935 42.4634 70.7889 41.4332Z" fill="url(#paint8_linear_7_1070)"/>
<path d="M67.249 47.9224C67.6054 47.9438 67.9593 47.9654 68.3107 47.9876" stroke="#5A79EA" stroke-width="0.195312" stroke-linejoin="round"/>
<path d="M67.2645 47.4489C67.2575 47.7661 67.2445 48.0866 67.2252 48.41" stroke="#5A79EA" stroke-width="0.195312" stroke-linejoin="round"/>
<path d="M67.667 45.8057C67.6046 45.9963 67.5403 46.1883 67.474 46.3814C67.789 46.4919 68.1005 46.6032 68.4086 46.7153C68.476 46.5126 68.5413 46.3113 68.6046 46.1112" stroke="#5A79EA" stroke-width="0.195312" stroke-linejoin="round"/>
<path d="M68.0972 45.9852C68.0425 46.1649 67.9861 46.3457 67.9279 46.5275" stroke="#5A79EA" stroke-width="0.195312" stroke-linejoin="round"/>
<path d="M68.0488 44.7754C68.3591 44.9859 68.6632 45.1986 68.9608 45.4137C69.0779 45.2495 69.1936 45.086 69.308 44.9234" stroke="#5A79EA" stroke-width="0.195312" stroke-linejoin="round"/>
<path d="M69.6611 43.3616C69.5106 43.4678 69.3596 43.5743 69.2079 43.6812C69.4357 43.9261 69.6575 44.174 69.8727 44.4245C70.033 44.3081 70.1926 44.192 70.3514 44.0767" stroke="#5A79EA" stroke-width="0.195312" stroke-linejoin="round"/>
<path d="M69.9673 43.7273C69.8357 43.8205 69.7037 43.9139 69.5711 44.0077" stroke="#5A79EA" stroke-width="0.195312" stroke-linejoin="round"/>
<path d="M71.4117 42.7562C70.2595 42.7427 70.8794 44.0468 71.7136 43.5439C71.6245 43.3636 71.5256 43.16 71.5256 43.16C71.4321 43.1861 71.3383 43.2124 71.2446 43.2386" stroke="#5A79EA" stroke-width="0.195312" stroke-linejoin="round"/>
<path d="M72.689 43.6014C72.6668 43.2682 72.6375 42.939 72.601 42.6139C72.601 42.6139 72.7673 42.6128 72.9593 42.6463C73.1528 42.6787 73.4751 43.1561 72.6867 43.0681C73.0905 43.1073 73.1812 43.2219 73.2155 43.3726C73.2544 43.544 73.3107 43.6073 73.3137 43.6453" stroke="#5A79EA" stroke-width="0.195312" stroke-linejoin="round"/>
<path d="M74.1394 43.8346C74.1755 43.7363 74.6979 43.0215 74.696 43.0222C74.7539 43.0442 74.8117 43.0664 74.8692 43.0885C74.8743 43.0866 74.908 44.0026 74.8591 44.1314" stroke="#5A79EA" stroke-width="0.195312" stroke-linejoin="round"/>
<path d="M74.3613 43.54C74.5301 43.6091 74.6978 43.6788 74.8643 43.7485" stroke="#5A79EA" stroke-width="0.195312" stroke-linejoin="round"/>
<path d="M75.5946 44.5945C75.8239 44.3718 76.0508 44.1506 76.2753 43.9309C76.3257 43.9843 76.3755 44.0378 76.4252 44.0915C76.4272 44.0907 76.0707 44.8349 75.9613 44.9283C76.0716 44.8362 76.8155 44.4501 76.8155 44.4501C76.8619 44.4983 76.908 44.5466 76.954 44.5948C76.7467 44.8406 76.5365 45.0877 76.3233 45.337" stroke="#5A79EA" stroke-width="0.195312" stroke-linejoin="round"/>
<path d="M77.8581 47.9324C77.5555 47.9062 77.2509 47.8803 76.9443 47.8545" stroke="#5A79EA" stroke-width="0.195312" stroke-linejoin="round"/>
<path d="M77.7913 48.4061C77.8384 48.0866 77.8796 47.7693 77.915 47.4547" stroke="#5A79EA" stroke-width="0.195312" stroke-linejoin="round"/>
<path d="M77.136 50.1245C77.2369 49.9182 77.3357 49.7128 77.4326 49.5084C77.1931 49.3877 76.9501 49.2672 76.7042 49.1472C76.6111 49.359 76.5157 49.5721 76.4179 49.786" stroke="#5A79EA" stroke-width="0.195312" stroke-linejoin="round"/>
<path d="M76.8201 49.9265C76.9086 49.7334 76.9953 49.541 77.0802 49.3494" stroke="#5A79EA" stroke-width="0.195312" stroke-linejoin="round"/>
<path d="M76.5076 51.2704C76.3247 51.0277 76.1354 50.7862 75.9398 50.5457C75.794 50.728 75.6467 50.9109 75.4978 51.0948" stroke="#5A79EA" stroke-width="0.195312" stroke-linejoin="round"/>
<path d="M74.5927 52.9383C74.7685 52.8084 74.9433 52.6789 75.1175 52.5498C75.034 52.2543 74.9434 51.9601 74.8458 51.6675C74.6657 51.8031 74.4847 51.9392 74.3029 52.0758" stroke="#5A79EA" stroke-width="0.195312" stroke-linejoin="round"/>
<path d="M74.4952 52.4935C74.6469 52.3814 74.7978 52.2697 74.9483 52.1582" stroke="#5A79EA" stroke-width="0.195312" stroke-linejoin="round"/>
<path d="M72.7925 53.6996C73.8078 53.7036 73.8545 52.1049 72.8863 52.7215C72.8922 52.9411 72.8864 53.193 72.8864 53.193C72.9814 53.1599 73.0763 53.127 73.1711 53.094" stroke="#5A79EA" stroke-width="0.195312" stroke-linejoin="round"/>
<path d="M72.0198 52.6582C71.9085 53.066 71.7877 53.4772 71.6577 53.8916C71.6577 53.8916 71.506 53.8944 71.3466 53.8539C71.1888 53.8133 71.1074 53.2145 71.7964 53.3171C71.442 53.2721 71.4075 53.1299 71.4373 52.944C71.4711 52.7334 71.441 52.6571 71.453 52.6107" stroke="#5A79EA" stroke-width="0.195312" stroke-linejoin="round"/>
<path d="M70.7311 52.3906C70.6664 52.5087 69.8774 53.4011 69.8754 53.4014C69.8285 53.3747 69.7815 53.3477 69.7343 53.3208C69.7405 53.3198 70.0455 52.1949 70.1205 52.0441" stroke="#5A79EA" stroke-width="0.195312" stroke-linejoin="round"/>
<path d="M70.4095 52.7521C70.2714 52.6696 70.1319 52.5874 69.9912 52.5051" stroke="#5A79EA" stroke-width="0.195312" stroke-linejoin="round"/>
<path d="M69.5056 51.5081C69.2137 51.7732 68.9188 52.0401 68.6206 52.3087C68.5847 52.2453 68.5483 52.182 68.5118 52.1187C68.5146 52.118 69.0739 51.235 69.2019 51.1271C69.0677 51.235 68.1947 51.6999 68.1947 51.6999C68.1569 51.644 68.1186 51.5883 68.0802 51.5327C68.3558 51.242 68.6279 50.9536 68.8963 50.667" stroke="#5A79EA" stroke-width="0.195312" stroke-linejoin="round"/>
<path d="M71.1883 44.9218C71.2325 44.6206 71.63 44.5291 71.8263 44.768L73.1332 46.264L74.8118 46.0333C75.1005 45.9838 75.3409 46.3529 75.1978 46.6176L74.3852 48.2253L75.0827 49.8803C75.2246 50.1941 74.9536 50.5706 74.6369 50.4942L73.0511 50.1535L71.8204 51.4227C71.5968 51.6662 71.1818 51.5236 71.1434 51.196C71.0485 50.5927 70.8481 49.7617 71.3798 49.3071L72.6151 48.0897C72.6811 48.0285 72.6044 47.9091 72.5241 47.9489L70.801 48.7475C70.3018 49.0344 69.625 48.6089 69.1503 48.4194C68.7943 48.2795 68.7902 47.7391 69.1445 47.6012L70.8424 46.8889L71.1883 44.9218Z" fill="#5A79EA"/>
<path d="M16.6945 49.5712C13.9382 50.8938 13.7939 52.1968 12.4424 54.032C11.091 55.8672 9.72086 57.8717 10.5771 59.8672C11.4333 61.8627 10.0951 62.7979 10.3465 63.9214C10.5979 65.045 10.9919 66.9961 11.6632 68.5995C12.3345 70.2029 14.4535 74.4734 15.3742 74.6615C16.2948 74.8495 16.2921 75.3978 18.3355 77.1996C20.3789 79.0013 20.1178 77.9131 21.7308 78.7202C23.5006 79.6058 24.8302 79.2044 25.7846 79.4463C26.7389 79.6882 29.0326 78.8964 29.8269 78.1633C30.6211 77.4303 32.6113 75.8668 32.7673 72.1609C32.9232 68.455 32.7517 61.4641 30.8728 58.5073C28.994 55.5505 25.6742 50.0484 22.6506 48.6074C19.6269 47.1664 16.6945 49.5712 16.6945 49.5712Z" fill="url(#paint9_radial_7_1070)"/>
<path d="M16.6945 49.5712C13.9382 50.8938 13.7939 52.1968 12.4424 54.032C11.0909 55.8672 9.72086 57.8717 10.5771 59.8672C11.4333 61.8627 10.0951 62.7979 10.3465 63.9214C10.5979 65.045 10.9919 66.9961 11.6632 68.5995C12.3345 70.2029 14.4535 74.4734 15.3742 74.6615C16.2948 74.8495 16.2921 75.3978 18.3355 77.1996C20.3788 79.0013 20.1178 77.9131 21.7308 78.7202C23.5006 79.6058 24.8302 79.2044 25.7846 79.4463C26.7389 79.6882 29.0326 78.8964 29.8269 78.1633C30.6211 77.4303 32.6113 75.8668 32.7673 72.1609C32.9232 68.455 32.7517 61.4641 30.8728 58.5073C28.994 55.5505 25.6742 50.0484 22.6506 48.6074C19.6269 47.1664 16.6945 49.5712 16.6945 49.5712Z" stroke="#8E8E8E" stroke-width="0.585938" stroke-linecap="round" stroke-linejoin="round"/>
<path d="M19.8509 47.8605C20.4481 47.4451 20.9335 47.0963 22.1847 46.8527C23.5296 46.591 27.7993 49.2411 28.3651 49.5142C29.3803 50.0042 29.8 51.3298 30.1561 51.8481C30.5123 52.3663 31.0962 53.1049 31.6582 53.5553C32.2201 54.0057 33.7678 56.6619 34.0676 57.4615C34.3674 58.2611 35.4124 59.4082 35.8308 59.8624C36.2493 60.3166 37.74 62.2622 37.6855 62.8823C37.631 63.5024 37.8498 65.2524 37.7928 66.2295C37.7359 67.2065 36.6625 68.3394 36.8955 68.9492C37.1285 69.559 36.1332 73.3957 35.7953 73.9819C35.4575 74.5682 34.6109 77.0361 33.7798 77.3676C32.9488 77.6992 30.0818 78.708 29.1933 78.7159C31.7967 76.4674 32.3024 75.9261 32.4165 72.0111C34.0212 69.7162 33.327 69.1681 32.4685 65.4298C31.6101 61.6915 30.3625 57.3942 28.24 55.5468C26.2814 52.0377 22.9668 50.0015 22.6983 50.0131C21.6319 49.3246 19.8509 47.8605 19.8509 47.8605Z" fill="url(#paint10_radial_7_1070)"/>
<path d="M13.4066 70.9876C15.2848 73.3367 16.7504 73.2431 18.3114 74.2901C19.8724 75.3371 19.3236 75.4984 20.853 75.9084C22.3823 76.3185 23.8565 75.2287 24.5273 74.7384C25.1981 74.2482 25.1524 72.5143 26.0988 72.1532C27.0453 71.7921 28.4654 71.4749 27.6926 68.719C26.9198 65.963 28.5443 65.2541 28.8941 64.1118C29.2438 62.9696 28.1775 61.2809 27.9166 60.2419C27.6556 59.2028 28.4773 55.763 28.4773 55.763C28.4773 55.763 31.5261 59.8823 32.4092 65.0788C33.2923 70.2753 34.3566 76.0222 28.8308 78.7415C23.305 81.4609 18.412 77.537 15.618 74.5722C12.8239 71.6075 13.4066 70.9876 13.4066 70.9876Z" fill="url(#paint11_radial_7_1070)"/>
<path d="M29.1768 78.1066C32.4947 77.0748 32.6742 74.9218 32.4399 73.1839C32.2056 71.4459 33.9486 71.4529 33.3141 69.6189C32.6796 67.7849 32.5762 65.2525 32.3248 64.1289C32.0734 63.0053 30.7199 58.3238 29.0594 56.7865C27.3989 55.2492 27.5301 54.1741 26.9536 53.0485C26.377 51.923 25.4381 51.5191 24.7017 51.0605C23.9653 50.6019 22.8976 50.3051 22.4048 49.7568C21.9119 49.2085 20.989 47.992 20.0835 48.1748" stroke="#353535" stroke-width="1.17188" stroke-linecap="round" stroke-linejoin="round"/>
<path d="M12.952 56.6657C13.2181 56.0273 13.3496 55.046 13.7661 54.5807C14.2399 54.0516 15.4814 54.6797 16.0036 54.3404C16.713 53.8795 18.5038 52.577 18.9078 52.7989C20.4813 51.6714 21.7311 51.4622 22.2511 51.6805C23.0941 52.0344 20.9467 54.6289 21.5262 55.2926C22.0426 55.8838 23.9093 55.5122 24.3986 56.1325C24.8925 56.7585 27.078 56.627 27.461 57.3231C27.7508 57.8497 27.395 58.785 27.605 59.3467C27.8157 59.9101 25.3664 61.115 25.5286 61.6947C25.7112 62.3472 28.5913 62.4608 28.7604 63.1253C28.9358 63.814 29.9688 66.7624 29.936 67.8663C29.9169 68.5076 27.8313 68.8672 27.6602 69.4866C27.4891 70.1055 29.7812 71.2241 29.6893 71.8682C29.2682 74.8171 27.0951 76.8255 25.3115 77.2428C24.5776 77.4145 23.4452 74.895 22.7006 74.7582C21.9565 74.6216 20.9523 76.4181 20.206 76.2995C19.3906 76.1697 18.8443 74.758 18.0872 74.4505C17.0904 74.0455 16.5813 73.0887 15.9285 72.2706C15.4015 71.6101 14.3512 71.389 13.9137 70.6821C13.46 69.9489 14.2547 68.7639 13.9703 67.967C13.6994 67.2078 12.3386 66.5288 11.9771 65.8125C11.6105 65.0863 12.3307 64.4993 12.3107 63.7026C12.2967 63.1444 11.6437 62.6168 11.802 62.0781C11.9581 61.5461 13.1225 61.1514 13.2145 60.6126C13.3084 60.0628 12.0611 59.3699 12.1022 58.8187C12.285 56.3704 13.3869 56.5956 14.2764 55.7759C14.786 55.3063 14.0295 53.462 14.6466 53.1073C15.2724 52.7475 17.1975 52.887 17.6273 52.3689C21.5918 47.5904 18.8453 54.4871 19.5781 54.629C20.4048 54.7891 22.3843 53.1872 23.0268 53.6841C23.6634 54.1765 21.5707 56.6345 21.9768 57.307C22.3895 57.9909 23.368 58.1793 23.6258 58.9316C23.8841 59.6852 26.7522 59.8269 26.9776 60.6005C27.1596 61.225 26.5662 62.0398 26.7368 62.6752C26.9086 63.3152 24.5325 64.334 24.6394 64.9852C24.7473 65.642 25.5809 66.0947 25.5821 66.7644C25.5836 67.6343 26.8457 68.5201 26.9096 69.4031C26.973 70.2798 25.6463 70.989 25.5013 71.8565C25.3952 72.4908 24.7021 72.4185 24.3566 72.9636C24.1837 73.2367 25.3155 74.2215 25.0384 74.403C24.4463 74.7908 23.4134 76.7824 22.6897 76.6367C21.8043 76.4587 20.9834 75.9427 20.1064 75.767C19.6743 75.6805 20.4337 72.3589 20.0492 72.1568C19.5963 71.9188 18.4225 73.0949 18.0955 72.7114C17.5546 72.0774 15.2912 72.5533 14.8207 71.8726C14.3528 71.1959 15.9796 69.2491 15.6075 68.5398C15.2338 67.8272 15.9399 66.8837 15.7037 66.1376C15.4682 65.3942 13.7061 65.0489 13.6534 64.2758C13.5944 63.409 13.9274 62.5247 13.8989 61.6667C13.7756 57.9535 15.0631 58.5289 15.8188 57.4266C16.2033 56.8658 15.9052 56.0469 16.5431 55.7407C17.2464 55.4033 18.0485 54.0899 18.836 54.1342C19.3808 54.1648 19.5067 56.5173 20.0423 56.6468C20.5995 56.7815 22.0981 55.3149 22.4778 55.7044C22.7973 56.0323 22.7064 56.8207 22.8876 57.2295C23.1796 57.8883 21.7833 59.1082 22.0481 59.7856C22.315 60.4679 22.6495 61.0341 22.8594 61.7382C23.0711 62.4478 25.9794 62.6923 26.1055 63.4296C26.2316 64.1664 24.2482 65.0735 24.2344 65.8254C24.2204 66.5843 25.647 67.5931 25.4696 68.3328C25.2904 69.0796 25.4741 70.3034 25.0934 70.9876C24.6865 71.7187 21.8999 71.1837 21.4861 71.9102C21.1531 72.4949 21.7601 71.8647 21.0597 71.7757C20.7646 71.7382 19.9722 73.7349 19.7466 73.5422C19.0987 72.9887 18.051 72.5166 17.5923 71.8395C17.1389 71.17 15.8932 70.5754 15.587 69.8305C15.2882 69.1039 18.3711 67.3309 18.1617 66.5747C17.9537 65.8233 17.3491 65.2573 17.2053 64.514C17.0776 63.8532 14.6714 63.4722 14.6156 62.8032C14.5596 62.1315 15.1868 61.3193 15.2715 60.6704C15.3571 60.0151 16.3774 59.5816 16.6858 58.9796C16.8313 58.6958 15.4607 56.8964 15.7255 56.7028C15.995 56.5055 17.6629 58.271 17.9989 58.1897C18.8231 57.9899 19.5686 58.2006 20.4238 58.1622C20.81 58.1449 21.5105 56.8141 21.8409 56.9954C22.0886 57.1312 23.4978 57.1169 23.6342 57.35C24.0325 58.0304 23.1322 59.5461 23.1179 60.3299C23.104 61.094 20.6237 61.8486 20.6211 62.6125C20.6179 63.6132 24.3732 64.7587 24.3246 65.7792C24.2758 66.8071 23.3515 69.3502 22.4575 69.9537C22.3389 70.0339 20.9681 67.2372 20.8226 67.2365C20.6088 67.2356 19.519 69.1747 19.3719 69.0243C18.8963 68.5375 20.3911 66.7037 20.062 66.1302C19.7347 65.5598 17.1435 65.7495 16.9808 65.1278C16.8188 64.5092 18.1547 63.5597 18.1547 62.9293C18.1548 62.3013 19.4155 61.9784 19.5874 61.373C19.6091 61.2963 18.2677 60.6694 18.3427 60.6315C18.4254 60.5898 19.1951 59.8488 19.2805 59.8857C20.0283 60.2088 19.9182 61.9526 20.2571 62.6598C20.6007 63.3765 21.9297 64.7482 21.5202 65.4398C21.4672 65.5293 21.2532 66.7389 21.1541 66.7837C20.9013 66.8982 19.0987 65.2144 19.0038 64.9681C18.9092 64.7223 19.8853 64.0927 19.7655 63.8576" stroke="url(#paint12_linear_7_1070)" stroke-width="0.78125" stroke-linecap="round" stroke-linejoin="round" stroke-dasharray="1.95 1.95"/>
<path d="M28.9579 71.3135C28.6766 72.0145 28.5632 73.1066 28.0951 73.6237C27.5605 74.2142 26.1071 73.4829 25.5133 73.8542C24.7061 74.3592 22.6614 75.7962 22.2033 75.5331C20.4017 76.7785 19.3907 76.3583 18.8168 76.0931C17.8955 75.6673 19.955 73.448 19.3379 72.7159C18.7954 72.0724 16.7688 72.4483 16.2782 71.7828C15.7892 71.1194 13.4949 71.2403 13.1492 70.5177C12.8905 69.9773 13.3232 69.0296 13.1498 68.4665C12.9775 67.9069 15.5399 66.7026 15.4073 66.1373C15.2594 65.5073 12.3937 65.4354 12.2777 64.8073C12.1588 64.1631 11.3948 61.4883 11.5134 60.506C11.5816 59.9419 13.5811 59.5616 13.7836 59.0153C13.9845 58.473 11.915 57.6015 12.0475 57.0559C12.6416 54.6105 14.7415 52.8955 16.3929 52.4709C17.0756 52.2954 18.0368 54.2697 18.7367 54.3461C19.441 54.4227 20.4373 52.8999 21.146 52.9568C21.9255 53.0194 22.4422 54.1563 23.1802 54.3761C24.1625 54.6686 24.6749 55.4594 25.339 56.1363C25.8826 56.6905 26.9603 56.8405 27.4291 57.4508C27.9216 58.0919 27.1251 59.2001 27.4449 59.9252C27.7536 60.6249 29.233 61.2267 29.6544 61.9025C30.0873 62.5967 29.3259 63.1864 29.3816 63.9711C29.4211 64.5262 30.17 65.0453 30.0197 65.5935C29.8702 66.1382 28.5864 66.5547 28.5039 67.1102C28.4191 67.6813 29.8577 68.4035 29.8373 68.9886C29.7441 71.6449 28.4597 71.3866 27.4643 72.2803C26.8916 72.7945 27.8259 74.8921 27.1137 75.2852C26.3909 75.6841 24.291 75.6087 23.6651 76.0579C20.2958 78.476 22.2889 73.6398 21.4718 73.4706C20.5571 73.2812 18.3242 75.0137 17.6393 74.449C16.969 73.8963 19.3302 71.2762 18.9141 70.5632C18.4966 69.8478 17.4672 69.6503 17.229 68.8788C16.9935 68.1159 14.0502 67.9852 13.8728 67.2208C13.7312 66.6108 14.3806 65.8145 14.25 65.206C14.1198 64.5993 16.5481 63.595 16.4721 62.9868C16.3962 62.3793 15.5952 61.9824 15.6294 61.3716C15.6734 60.5863 14.5019 59.8359 14.493 59.0626C14.4842 58.304 15.7844 57.6444 15.9652 56.8983C16.0962 56.3576 16.7499 56.3892 17.101 55.9154C17.2762 55.6789 16.2525 54.9123 16.52 54.7501C17.0913 54.4035 18.1315 52.7369 18.8034 52.8155C19.6316 52.9123 20.3984 53.2883 21.2336 53.3866C21.6474 53.4353 20.8633 56.2576 21.237 56.4145C21.6796 56.6003 22.8469 55.539 23.1692 55.8523C23.7075 56.3754 25.9786 55.8624 26.4693 56.4351C26.9633 57.0117 25.3258 58.8188 25.7206 59.4517C26.122 60.0954 25.3985 60.9949 25.6577 61.6904C25.919 62.3918 27.8125 62.6822 27.894 63.4332C27.9865 64.2856 27.6501 65.1721 27.7078 66.0371C27.9666 69.9113 26.4983 69.296 25.673 70.4685C25.2496 71.0699 25.5983 71.9635 24.8801 72.2916C24.0887 72.6532 23.1844 74.0964 22.2963 74.032C21.6853 73.9877 21.5774 71.4183 20.9924 71.2752C20.3871 71.1272 18.7155 72.6842 18.3179 72.2599C17.9858 71.9056 18.1145 71.0702 17.9372 70.6394C17.654 69.9516 19.1778 68.6962 18.9191 68.0071C18.6618 67.3212 18.3329 66.7591 18.1411 66.0659C17.95 65.3754 15.0094 65.1791 14.9263 64.4779C14.8441 63.7847 16.867 62.8961 16.9144 62.1977C16.9618 61.5 15.6092 60.6253 15.8201 59.9591C16.0311 59.2922 15.9148 58.2292 16.3124 57.6243C16.7344 56.9823 19.4049 57.3303 19.8268 56.6871C20.1641 56.1725 19.559 56.7378 20.2399 56.7851C20.528 56.8051 21.3346 55.0683 21.5516 55.2202C22.1802 55.6603 23.2129 56.0179 23.6701 56.5837C24.1277 57.15 25.3967 57.6254 25.7213 58.2798C26.0419 58.9259 22.8762 60.6503 23.0894 61.3459C23.3038 62.0452 23.9361 62.5673 24.0902 63.2761C24.2288 63.9132 26.8134 64.2422 26.8904 64.9042C26.9685 65.5756 26.3005 66.4038 26.221 67.0665C26.1399 67.7416 25.0216 68.1948 24.6882 68.8222C24.5303 69.1193 26.0859 71.0421 25.7903 71.2501C25.4893 71.4619 23.6158 69.5653 23.2466 69.6502C22.3429 69.8583 21.5333 69.6355 20.6074 69.674C20.1912 69.6912 19.4005 71.0858 19.05 70.8918C18.7882 70.7471 17.2832 70.754 17.1489 70.5096C16.7604 69.8026 17.772 68.2538 17.8184 67.4648C17.8632 66.7038 20.4719 65.9322 20.4904 65.1814C20.5144 64.2099 16.7275 63.1929 16.8226 62.2424C16.917 61.2979 17.9285 58.9878 18.8242 58.4244C18.943 58.3498 20.2334 60.8126 20.3801 60.8091C20.5961 60.8039 21.7247 59.0113 21.8708 59.141C22.3471 59.564 20.8066 61.287 21.1324 61.8109C21.4596 62.3369 24.1491 62.0948 24.3234 62.6822C24.4986 63.2725 23.0893 64.2184 23.0877 64.8344C23.0862 65.4537 21.7464 65.7896 21.5566 66.3937C21.5325 66.4707 22.9605 67.0901 22.8797 67.1291C22.7905 67.1722 21.9571 67.9307 21.8658 67.8935C21.0703 67.5684 21.2156 65.8209 20.8717 65.1297C20.5276 64.4379 19.1949 63.1519 19.6309 62.4922C19.6872 62.4071 19.9344 61.2783 20.0354 61.2343C20.2934 61.1219 22.1123 62.6485 22.2085 62.8801C22.3048 63.1122 21.2829 63.735 21.4039 63.9589" stroke="url(#paint13_linear_7_1070)" stroke-width="0.78125" stroke-linecap="round" stroke-linejoin="round" stroke-dasharray="3.91 1.95"/>
<path d="M23.8054 54.5286C23.188 54.0847 22.4979 53.212 21.8245 53.0294C21.0555 52.8208 20.2378 54.2558 19.5386 54.2679C18.5878 54.2843 16.0941 54.1906 15.854 54.6708C13.6679 54.606 12.8381 55.6097 12.5024 56.1561C11.9633 57.0334 15.1085 57.7079 14.9908 58.6784C14.8874 59.5314 12.9864 60.3366 12.9385 61.1796C12.8908 62.0199 11.3198 63.2659 11.4241 64.0772C11.5022 64.684 12.3805 65.2555 12.5422 65.8344C12.7029 66.4096 15.0883 65.9429 15.2852 66.501C15.5047 67.123 13.1457 68.7786 13.3907 69.3811C13.6421 69.9992 14.4599 71.7395 15.0942 72.515C15.4586 72.9604 17.3392 73.1505 17.8063 73.5059C18.2699 73.8587 16.9062 74.98 17.3143 75.3738C19.1436 77.1383 21.3742 75.3086 23.5551 77.6614C24.0346 78.1787 23.9507 75.206 24.495 74.7512C25.0424 74.2938 26.7058 75.0442 27.2679 74.6012C27.8862 74.1138 27.6991 72.8523 28.197 72.2536C28.8597 71.4566 28.8577 70.4941 29.0447 69.5448C29.1979 68.7676 30.0179 68.0395 30.0777 67.256C30.1405 66.4327 28.8705 65.9264 28.7432 65.1272C28.6202 64.356 29.5304 63.0175 29.5149 62.2042C29.4992 61.3687 28.5407 61.2867 28.1598 60.5836C27.8904 60.086 28.2343 59.2246 27.8099 58.8387C27.388 58.4551 26.0866 58.8124 25.715 58.3823C25.3329 57.9402 26.1436 56.5213 25.8077 56.0315C24.2826 53.8074 23.3485 54.7431 22.0288 54.5311C21.2694 54.4091 20.9086 52.0924 20.0984 52.1518C19.2762 52.212 17.521 53.6334 16.7913 53.408C9.89946 51.279 16.957 56.2451 16.3653 56.8448C15.7031 57.5158 12.8905 57.2736 12.6251 58.1384C12.3653 58.9847 15.7686 59.9161 15.8089 60.7584C15.8493 61.6036 15.0952 62.3455 15.3162 63.1388C15.5347 63.9235 13.1429 65.6729 13.4109 66.4263C13.6248 67.0277 14.6018 67.3486 14.8241 67.9426C15.0455 68.535 17.6247 68.0446 17.8925 68.6078C18.1599 69.1706 17.7057 69.9562 18.0671 70.4604C18.5317 71.1086 17.9604 72.4034 18.3742 73.0708C18.78 73.7256 20.2274 73.5673 20.7852 74.1061C21.1894 74.4965 21.7193 74.1057 22.2713 74.3164C22.5467 74.4215 22.1074 75.6477 22.4197 75.6379C23.0868 75.6171 24.8649 76.4666 25.3844 76.0254C26.0246 75.4819 26.4617 74.7331 27.1071 74.1844C27.4269 73.9125 25.2333 71.9303 25.4605 71.5882C25.7296 71.1829 27.2845 71.4427 27.3836 70.9949C27.5491 70.2473 29.7294 69.4238 29.828 68.66C29.9273 67.8912 27.5724 67.2539 27.5581 66.4922C27.5434 65.7175 26.4478 65.3491 26.2857 64.6091C26.1224 63.8628 27.5489 62.5606 27.2079 61.872C26.821 61.0904 26.0562 60.5178 25.6334 59.7445C23.7395 56.2812 22.8461 57.6253 21.5167 57.0799C20.8348 56.8002 20.6398 55.8406 19.86 55.959C19.0007 56.0895 17.4577 55.356 16.7497 55.9051C16.2626 56.2829 17.5718 58.5442 17.1602 58.9923C16.7344 59.4557 14.487 59.052 14.3855 59.6366C14.3007 60.1249 14.8635 60.7689 14.9498 61.2366C15.0875 61.9833 17.0466 62.2114 17.2054 62.9455C17.3636 63.6765 17.3946 64.3407 17.6118 65.0413C17.8282 65.7392 15.4743 67.5432 15.7867 68.1902C16.0956 68.8297 18.2726 68.466 18.6928 69.038C19.1125 69.6094 18.4571 71.111 18.9965 71.5646C19.5363 72.0185 20.0179 72.9939 20.6801 73.2909C21.3831 73.6062 23.4284 71.8226 24.1318 72.139C24.6945 72.3923 23.8801 72.2447 24.4242 71.8253C24.6544 71.648 26.2755 72.6873 26.3744 72.4364C26.6607 71.7097 27.3303 70.8289 27.4046 70.0898C27.479 69.3502 28.2819 68.237 28.197 67.4957C28.1132 66.764 24.5246 67.0474 24.3241 66.3328C24.1226 65.6145 24.3674 64.8156 24.1102 64.1225C23.879 63.4995 25.8629 61.78 25.5667 61.1699C25.2662 60.5512 24.2561 60.2132 23.8285 59.6898C23.3928 59.1564 22.21 59.3901 21.5892 59.038C21.2952 58.8713 21.5495 56.3586 21.1889 56.3449C20.8215 56.3309 20.2871 58.9982 19.932 59.1308C19.0623 59.4552 18.506 60.0962 17.7103 60.5783C17.3524 60.795 15.9312 60.0401 15.7434 60.4013C15.6033 60.6707 14.34 61.5023 14.3609 61.7864C14.421 62.6081 16.1112 63.3722 16.5798 64.0225C17.0319 64.6494 19.6353 63.8596 20.0599 64.4926C20.6092 65.3115 17.9943 68.2891 18.5916 69.0507C19.185 69.8074 21.2898 71.224 22.3464 71.2083C22.4866 71.2062 22.2244 68.3782 22.3493 68.2997C22.5329 68.184 24.4538 69.0921 24.5055 68.8996C24.6738 68.2722 22.4458 67.6531 22.4331 67.023C22.4203 66.3901 24.8031 65.1018 24.6289 64.5015C24.4539 63.8985 22.7594 63.8719 22.4225 63.345C22.0839 62.8154 20.7796 63.2727 20.2916 62.8606C20.2295 62.8082 21.0871 61.4832 20.9982 61.4948C20.9001 61.5076 19.7891 61.3211 19.7331 61.4038C19.2444 62.1248 20.318 63.5413 20.407 64.3247C20.496 65.1089 20.0814 66.9519 20.8055 67.2745C20.899 67.3161 21.7206 68.1459 21.8292 68.1273C22.1064 68.0801 22.797 65.7602 22.7512 65.5084C22.7054 65.2558 21.511 65.2909 21.4903 65.0318" stroke="url(#paint14_linear_7_1070)" stroke-width="1.17188" stroke-linecap="round" stroke-linejoin="round" stroke-dasharray="1.95 9.77"/>
<g opacity="0.872709">
<path d="M17.6673 9.20054C24.2895 2.18489 32.3359 7.11298 32.6629 14.8812C32.9965 22.5831 22.7837 24.8226 16.4705 21.3399C23.3104 22.487 28.035 19.2381 27.891 13.5085C27.7751 7.64934 23.5802 5.78672 17.6673 9.20054Z" fill="#CDCDCD" fill-opacity="0.7"/>
<path d="M17.6673 9.20054C24.2895 2.18489 32.3359 7.11298 32.6629 14.8812C32.9965 22.5831 22.7837 24.8226 16.4705 21.3399C23.3104 22.487 28.035 19.2381 27.891 13.5085C27.7751 7.64934 23.5802 5.78672 17.6673 9.20054Z" stroke="#BABABA" stroke-opacity="0.15" stroke-width="4.26167" stroke-linecap="round" stroke-linejoin="round"/>
<path d="M17.6673 9.20054C24.2895 2.18489 32.3359 7.11298 32.6629 14.8812C32.9965 22.5831 22.7837 24.8226 16.4705 21.3399C23.3104 22.487 28.035 19.2381 27.891 13.5085C27.7751 7.64934 23.5802 5.78672 17.6673 9.20054Z" stroke="#BABABA" stroke-opacity="0.25" stroke-width="2.80052" stroke-linecap="round" stroke-linejoin="round"/>
<path d="M17.6673 9.20054C24.2895 2.18489 32.3359 7.11298 32.6629 14.8812C32.9965 22.5831 22.7837 24.8226 16.4705 21.3399C23.3104 22.487 28.035 19.2381 27.891 13.5085C27.7751 7.64934 23.5802 5.78672 17.6673 9.20054Z" stroke="#BABABA" stroke-opacity="0.25" stroke-width="1.58291" stroke-linecap="round" stroke-linejoin="round"/>
<path d="M16.3985 21.3891C10.4455 20.0479 7.39435 25.4678 7.96186 30.0442C8.63457 35.4642 15.5274 37.1765 20.1367 34.787C14.611 41.1904 3.91513 39.258 2.63563 32.1041C1.72376 26.7649 7.84173 18.0485 16.3985 21.3891Z" fill="#CDCDCD" fill-opacity="0.7"/>
<path d="M16.3985 21.3891C10.4455 20.0479 7.39436 25.4678 7.96186 30.0442C8.63457 35.4642 15.5274 37.1765 20.1367 34.787C14.611 41.1904 3.91513 39.258 2.63563 32.1041C1.72376 26.7649 7.84174 18.0485 16.3985 21.3891Z" stroke="#BABABA" stroke-opacity="0.15" stroke-width="4.26167" stroke-linecap="round" stroke-linejoin="round"/>
<path d="M16.3985 21.3891C10.4455 20.0479 7.39436 25.4678 7.96186 30.0442C8.63457 35.4642 15.5274 37.1765 20.1367 34.787C14.611 41.1904 3.91513 39.258 2.63563 32.1041C1.72376 26.7649 7.84174 18.0485 16.3985 21.3891Z" stroke="#BABABA" stroke-opacity="0.25" stroke-width="2.80052" stroke-linecap="round" stroke-linejoin="round"/>
<path d="M16.3985 21.3891C10.4455 20.0479 7.39436 25.4678 7.96186 30.0442C8.63457 35.4642 15.5274 37.1765 20.1367 34.787C14.611 41.1904 3.91513 39.258 2.63563 32.1041C1.72376 26.7649 7.84174 18.0485 16.3985 21.3891Z" stroke="#BABABA" stroke-opacity="0.25" stroke-width="1.58291" stroke-linecap="round" stroke-linejoin="round"/>
<path d="M20.1142 34.7954C28.9484 29.6383 36.8042 36.4894 35.9953 41.2206C35.0016 46.9623 28.266 48.834 21.1597 46.0008C25.1406 45.4666 27.4217 42.3436 27.6711 40.0789C28.0367 36.6697 25.3886 33.1418 20.1142 34.7954Z" fill="#CDCDCD" fill-opacity="0.7"/>
<path d="M20.1142 34.7954C28.9484 29.6383 36.8042 36.4894 35.9953 41.2206C35.0016 46.9623 28.266 48.834 21.1597 46.0008C25.1406 45.4666 27.4217 42.3436 27.6711 40.0789C28.0367 36.6697 25.3886 33.1418 20.1142 34.7954Z" stroke="#BABABA" stroke-opacity="0.15" stroke-width="4.26167" stroke-linecap="round" stroke-linejoin="round"/>
<path d="M20.1142 34.7954C28.9484 29.6383 36.8042 36.4894 35.9953 41.2206C35.0016 46.9623 28.266 48.834 21.1597 46.0008C25.1406 45.4666 27.4217 42.3436 27.6711 40.0789C28.0367 36.6697 25.3886 33.1418 20.1142 34.7954Z" stroke="#BABABA" stroke-opacity="0.25" stroke-width="2.80052" stroke-linecap="round" stroke-linejoin="round"/>
<path d="M20.1142 34.7954C28.9484 29.6383 36.8042 36.4894 35.9953 41.2206C35.0016 46.9623 28.266 48.834 21.1597 46.0008C25.1406 45.4666 27.4217 42.3436 27.6711 40.0789C28.0367 36.6697 25.3886 33.1418 20.1142 34.7954Z" stroke="#BABABA" stroke-opacity="0.25" stroke-width="1.58291" stroke-linecap="round" stroke-linejoin="round"/>
<path d="M20.916 46.016C19.2033 45.7366 18.3805 45.9891 17.9835 47.2183C17.3609 49.1462 19.2544 51.1026 18.7622 55.3216C18.2685 51.857 14.2472 50.7669 14.2994 47.1061C14.3213 45.5802 17.3359 44.8981 20.916 46.016Z" fill="#CDCDCD" fill-opacity="0.7"/>
<path d="M20.916 46.016C19.2033 45.7366 18.3805 45.9891 17.9835 47.2183C17.3609 49.1462 19.2544 51.1026 18.7622 55.3216C18.2685 51.857 14.2472 50.7669 14.2994 47.1061C14.3213 45.5802 17.3359 44.8981 20.916 46.016Z" stroke="#BABABA" stroke-opacity="0.15" stroke-width="4.26167" stroke-linecap="round" stroke-linejoin="round"/>
<path d="M20.916 46.016C19.2033 45.7366 18.3805 45.9891 17.9835 47.2183C17.3609 49.1462 19.2544 51.1026 18.7622 55.3216C18.2685 51.857 14.2472 50.7669 14.2994 47.1061C14.3213 45.5802 17.3359 44.8981 20.916 46.016Z" stroke="#BABABA" stroke-opacity="0.25" stroke-width="2.80052" stroke-linecap="round" stroke-linejoin="round"/>
<path d="M20.916 46.016C19.2033 45.7366 18.3805 45.9891 17.9835 47.2183C17.3609 49.1462 19.2544 51.1026 18.7622 55.3216C18.2685 51.857 14.2472 50.7669 14.2994 47.1061C14.3213 45.5802 17.3359 44.8981 20.916 46.016Z" stroke="#BABABA" stroke-opacity="0.25" stroke-width="1.58291" stroke-linecap="round" stroke-linejoin="round"/>
</g>
</g>
</g>
<defs>
<linearGradient id="paint0_linear_7_1070" x1="54.1569" y1="33.7378" x2="64.2548" y2="61.1695" gradientUnits="userSpaceOnUse">
<stop stop-color="#B87032"/>
<stop offset="0.15" stop-color="#C88E57"/>
<stop offset="0.31" stop-color="#D8AC7D"/>
<stop offset="0.43" stop-color="#CF9D6A"/>
<stop offset="0.55" stop-color="#C58E57"/>
<stop offset="0.71" stop-color="#976B3F"/>
<stop offset="0.87" stop-color="#6A4727"/>
<stop offset="0.93" stop-color="#7E542F"/>
<stop offset="1" stop-color="#936237"/>
</linearGradient>
<linearGradient id="paint1_linear_7_1070" x1="54.9841" y1="37.265" x2="65.8081" y2="66.7073" gradientUnits="userSpaceOnUse">
<stop stop-color="#7F4C1A"/>
<stop offset="0.11" stop-color="#A27444"/>
<stop offset="0.22" stop-color="#C69C6D"/>
<stop offset="0.46" stop-color="#9E7448"/>
<stop offset="0.69" stop-color="#754C24"/>
<stop offset="0.85" stop-color="#7A4C1F"/>
<stop offset="1" stop-color="#7F4C1A"/>
</linearGradient>
<linearGradient id="paint2_linear_7_1070" x1="46.8911" y1="39.5871" x2="57.9521" y2="69.6742" gradientUnits="userSpaceOnUse">
<stop stop-color="#7F4C1A"/>
<stop offset="0.11" stop-color="#A27444"/>
<stop offset="0.22" stop-color="#C69C6D"/>
<stop offset="0.46" stop-color="#9E7448"/>
<stop offset="0.69" stop-color="#754C24"/>
<stop offset="0.85" stop-color="#7A4C1F"/>
<stop offset="1" stop-color="#7F4C1A"/>
</linearGradient>
<linearGradient id="paint3_linear_7_1070" x1="66.7192" y1="34.6565" x2="76.691" y2="61.781" gradientUnits="userSpaceOnUse">
<stop stop-color="#7F4C1A"/>
<stop offset="0.11" stop-color="#A27444"/>
<stop offset="0.22" stop-color="#C69C6D"/>
<stop offset="0.46" stop-color="#9E7448"/>
<stop offset="0.69" stop-color="#754C24"/>
<stop offset="0.85" stop-color="#7A4C1F"/>
<stop offset="1" stop-color="#7F4C1A"/>
</linearGradient>
<linearGradient id="paint4_linear_7_1070" x1="73.633" y1="34.2188" x2="82.535" y2="58.4329" gradientUnits="userSpaceOnUse">
<stop stop-color="#7F4C1A"/>
<stop offset="0.11" stop-color="#A27444"/>
<stop offset="0.22" stop-color="#C69C6D"/>
<stop offset="0.46" stop-color="#9E7448"/>
<stop offset="0.69" stop-color="#754C24"/>
<stop offset="0.85" stop-color="#7A4C1F"/>
<stop offset="1" stop-color="#7F4C1A"/>
</linearGradient>
<linearGradient id="paint5_linear_7_1070" x1="63.2327" y1="25.5772" x2="73.7741" y2="54.2141" gradientUnits="userSpaceOnUse">
<stop stop-color="#E6E6E6"/>
<stop offset="0.1" stop-color="#F3F3F3"/>
<stop offset="0.2" stop-color="white"/>
<stop offset="0.6" stop-color="#D9D9D9"/>
<stop offset="1" stop-color="#B3B3B3"/>
</linearGradient>
<linearGradient id="paint6_linear_7_1070" x1="65.747" y1="33.1395" x2="76.5461" y2="62.514" gradientUnits="userSpaceOnUse">
<stop stop-color="#808080"/>
<stop offset="0.1" stop-color="#9A9A9A"/>
<stop offset="0.2" stop-color="#B3B3B3"/>
<stop offset="0.52" stop-color="#846F5A"/>
<stop offset="0.85" stop-color="#542C00"/>
<stop offset="0.93" stop-color="#875D2F"/>
<stop offset="1" stop-color="#BA8E5E"/>
</linearGradient>
<linearGradient id="paint7_linear_7_1070" x1="65.1733" y1="24.1441" x2="75.2449" y2="51.5051" gradientUnits="userSpaceOnUse">
<stop stop-color="#EBBC00"/>
<stop offset="0.07" stop-color="#F5DE80"/>
<stop offset="0.14" stop-color="white"/>
<stop offset="0.19" stop-color="white"/>
<stop offset="0.24" stop-color="white"/>
<stop offset="0.26" stop-color="#FFEAA2"/>
<stop offset="0.29" stop-color="#FFD446"/>
<stop offset="0.51" stop-color="#E4BA23"/>
<stop offset="0.74" stop-color="#C9A100"/>
<stop offset="0.75" stop-color="#E4C400"/>
<stop offset="0.76" stop-color="#FFE600"/>
<stop offset="0.88" stop-color="#F6D600"/>
<stop offset="1" stop-color="#EDC600"/>
</linearGradient>
<linearGradient id="paint8_linear_7_1070" x1="64.2122" y1="25.2267" x2="74.7536" y2="53.8635" gradientUnits="userSpaceOnUse">
<stop stop-color="#E6E6E6"/>
<stop offset="0.1" stop-color="#F3F3F3"/>
<stop offset="0.2" stop-color="white"/>
<stop offset="0.6" stop-color="#D9D9D9"/>
<stop offset="1" stop-color="#B3B3B3"/>
</linearGradient>
<radialGradient id="paint9_radial_7_1070" cx="0" cy="0" r="1" gradientUnits="userSpaceOnUse" gradientTransform="translate(27.6802 63.4729) rotate(-20) scale(14.1685 14.1685)">
<stop stop-color="#999999"/>
<stop offset="0.5" stop-color="#B2B2B2"/>
<stop offset="1" stop-color="#CCCCCC"/>
</radialGradient>
<radialGradient id="paint10_radial_7_1070" cx="0" cy="0" r="1" gradientUnits="userSpaceOnUse" gradientTransform="translate(15.31 67.2992) rotate(-20) scale(17.3978)">
<stop offset="0.81" stop-color="#FFAE00"/>
<stop offset="0.87" stop-color="#FF5700"/>
<stop offset="0.92" stop-color="#FF0000"/>
<stop offset="0.96" stop-color="#A32323"/>
<stop offset="1" stop-color="#474747"/>
</radialGradient>
<radialGradient id="paint11_radial_7_1070" cx="0" cy="0" r="1" gradientUnits="userSpaceOnUse" gradientTransform="translate(14.5212 58.6492) rotate(-20) scale(24.1789)">
<stop offset="0.55" stop-color="#999999" stop-opacity="0.5"/>
<stop offset="0.78" stop-color="#676767" stop-opacity="0.6"/>
<stop offset="1" stop-color="#353535" stop-opacity="0.7"/>
</radialGradient>
<linearGradient id="paint12_linear_7_1070" x1="27.7021" y1="78.2185" x2="15.2117" y2="51.417" gradientUnits="userSpaceOnUse">
<stop stop-color="#8C8C8C"/>
<stop offset="0.64" stop-color="#ABABAB"/>
<stop offset="1" stop-color="#C9C9C9"/>
</linearGradient>
<linearGradient id="paint13_linear_7_1070" x1="27.3495" y1="76.78" x2="15.5039" y2="51.3622" gradientUnits="userSpaceOnUse">
<stop stop-color="#ABABAB"/>
<stop offset="0.5" stop-color="#C1C1C1"/>
<stop offset="1" stop-color="#D6D6D6"/>
</linearGradient>
<linearGradient id="paint14_linear_7_1070" x1="6.78392" y1="51.764" x2="19.03" y2="77.9132" gradientUnits="userSpaceOnUse">
<stop stop-color="#FEFF00"/>
<stop offset="0.5" stop-color="#FEA220"/>
<stop offset="1" stop-color="#FF453F"/>
</linearGradient>
<clipPath id="clip0_7_1070">
<rect width="100" height="100" fill="white"/>
</clipPath>
</defs>
</svg>
